<?xml version="1.0" encoding="UTF-8"?>
<!DOCTYPE svg PUBLIC "-//W3C//DTD SVG 1.1//EN" "http://www.w3.org/Graphics/SVG/1.1/DTD/svg11.dtd">
<svg xmlns="http://www.w3.org/2000/svg" version="1.1" width="150px" height="150px" style="shape-rendering:geometricPrecision; text-rendering:geometricPrecision; image-rendering:optimizeQuality; fill-rule:evenodd; clip-rule:evenodd" xmlns:xlink="http://www.w3.org/1999/xlink">
<g><path style="opacity:0.569" fill="#cdccc3" d="M 72.5,16.5 C 72.5,17.5 72.5,18.5 72.5,19.5C 73.675,19.281 74.675,19.6143 75.5,20.5C 74.229,20.1255 73.0623,20.7922 72,22.5C 70.8881,19.7215 69.0547,17.5549 66.5,16C 63.4525,15.4202 63.1192,15.7535 65.5,17C 64.9056,17.4643 64.2389,17.631 63.5,17.5C 52.7151,17.6078 50.0484,22.2745 55.5,31.5C 47.2592,41.3127 41.0925,52.3127 37,64.5C 34.9814,75.9964 36.8147,86.663 42.5,96.5C 43.9985,103.413 45.3318,110.413 46.5,117.5C 37.7871,116.129 29.1204,116.296 20.5,118C 13.0007,121.835 10.334,128.002 12.5,136.5C 16.1974,135.992 19.8641,135.326 23.5,134.5C 25.1585,135.181 26.8251,136.015 28.5,137C 26.2115,137.822 23.8782,138.489 21.5,139C 23.0581,139.21 24.3915,139.71 25.5,140.5C 19.9199,141.532 14.5866,143.032 9.5,145C 1.17374,125.986 7.17374,114.319 27.5,110C 31.1516,109.501 34.8183,109.335 38.5,109.5C 38.6641,106.813 38.4974,104.146 38,101.5C 28.9494,86.1451 27.6161,70.1451 34,53.5C 37.5409,45.9699 41.8742,38.9699 47,32.5C 44.3228,20.511 48.8228,12.8443 60.5,9.5C 65.766,9.79534 69.766,12.1287 72.5,16.5 Z"/></g>
<g><path style="opacity:1" fill="#41413f" d="M 63.5,17.5 C 65.1032,18.5964 66.6032,19.9297 68,21.5C 68.5809,25.3878 68.2475,29.0544 67,32.5C 69.292,33.7899 71.292,35.4565 73,37.5C 75.6443,35.69 78.1443,33.69 80.5,31.5C 75.4611,21.3931 78.4611,16.8931 89.5,18C 94.4051,22.1673 94.7385,26.6673 90.5,31.5C 101.468,43.2272 108.135,57.0605 110.5,73C 110.621,76.7822 109.954,80.2822 108.5,83.5C 107.833,81.5 107.167,79.5 106.5,77.5C 106.261,59.2848 99.261,44.2848 85.5,32.5C 83.0324,33.8029 80.699,35.3029 78.5,37C 77.4258,37.7387 76.7591,38.7387 76.5,40C 80.3963,45.0534 84.063,50.2201 87.5,55.5C 86.5,54.1667 85.5,54.1667 84.5,55.5C 78.3732,47.5392 71.3732,40.3725 63.5,34C 59.3283,33.1316 56.1617,34.6316 54,38.5C 47.6321,46.5932 42.9654,55.5932 40,65.5C 38.1219,76.2642 39.9552,86.2642 45.5,95.5C 44.1054,94.1854 43.1054,94.5188 42.5,96.5C 36.8147,86.663 34.9814,75.9964 37,64.5C 41.0925,52.3127 47.2592,41.3127 55.5,31.5C 50.0484,22.2745 52.7151,17.6078 63.5,17.5 Z"/></g>
<g><path style="opacity:1" fill="#787772" d="M 57.5,20.5 C 63.7055,20.0371 65.7055,22.7037 63.5,28.5C 59.3191,30.575 56.6524,29.4083 55.5,25C 56.4138,23.5936 57.0805,22.0936 57.5,20.5 Z"/></g>
<g><path style="opacity:1" fill="#7b7a75" d="M 84.5,55.5 C 91.014,67.7087 95.3474,80.7087 97.5,94.5C 97.1667,95.1667 96.8333,95.8333 96.5,96.5C 79.9893,90.8475 63.6559,91.1809 47.5,97.5C 46.4777,97.1445 45.811,96.4778 45.5,95.5C 39.9552,86.2642 38.1219,76.2642 40,65.5C 42.9654,55.5932 47.6321,46.5932 54,38.5C 56.1617,34.6316 59.3283,33.1316 63.5,34C 71.3732,40.3725 78.3732,47.5392 84.5,55.5 Z"/></g>
<g><path style="opacity:1" fill="#7a7a75" d="M 106.5,77.5 C 106.343,83.7816 104.509,89.4482 101,94.5C 98.7807,80.5777 94.2807,67.5777 87.5,55.5C 84.063,50.2201 80.3963,45.0534 76.5,40C 76.7591,38.7387 77.4258,37.7387 78.5,37C 80.699,35.3029 83.0324,33.8029 85.5,32.5C 99.261,44.2848 106.261,59.2848 106.5,77.5 Z"/></g>
<g><path style="opacity:0.332" fill="#cccac2" d="M 128.5,112.5 C 124.667,113.81 124.667,114.977 128.5,116C 128.167,116.333 127.833,116.667 127.5,117C 128.381,117.708 129.047,118.542 129.5,119.5C 126.262,118.367 122.929,117.533 119.5,117C 112.739,116.681 106.072,116.515 99.5,116.5C 101.119,110.981 101.952,105.314 102,99.5C 105.443,94.6682 107.61,89.3349 108.5,83.5C 109.954,80.2822 110.621,76.7822 110.5,73C 108.135,57.0605 101.468,43.2272 90.5,31.5C 94.7385,26.6673 94.4051,22.1673 89.5,18C 78.4611,16.8931 75.4611,21.3931 80.5,31.5C 78.1443,33.69 75.6443,35.69 73,37.5C 71.292,35.4565 69.292,33.7899 67,32.5C 68.2475,29.0544 68.5809,25.3878 68,21.5C 66.6032,19.9297 65.1032,18.5964 63.5,17.5C 64.2389,17.631 64.9056,17.4643 65.5,17C 63.1192,15.7535 63.4525,15.4202 66.5,16C 69.0547,17.5549 70.8881,19.7215 72,22.5C 73.0623,20.7922 74.229,20.1255 75.5,20.5C 74.675,19.6143 73.675,19.281 72.5,19.5C 72.5,18.5 72.5,17.5 72.5,16.5C 74.8863,15.6267 76.8863,14.1267 78.5,12C 88.4943,7.77453 95.661,10.6079 100,20.5C 100.326,24.5305 100.326,28.5305 100,32.5C 118.727,53.5803 121.727,76.5803 109,101.5C 108.503,104.146 108.336,106.813 108.5,109.5C 115.52,109.07 122.186,110.07 128.5,112.5 Z"/></g>
<g><path style="opacity:1" fill="#787772" d="M 83.5,20.5 C 89.9355,20.5382 91.6022,23.3716 88.5,29C 81.4207,29.5273 79.754,26.694 83.5,20.5 Z"/></g>
<g><path style="opacity:1" fill="#40403e" d="M 87.5,55.5 C 94.2807,67.5777 98.7807,80.5777 101,94.5C 104.509,89.4482 106.343,83.7816 106.5,77.5C 107.167,79.5 107.833,81.5 108.5,83.5C 107.61,89.3349 105.443,94.6682 102,99.5C 101.952,105.314 101.119,110.981 99.5,116.5C 106.072,116.515 112.739,116.681 119.5,117C 122.929,117.533 126.262,118.367 129.5,119.5C 131.441,120.674 132.941,122.341 134,124.5C 134.499,128.486 134.666,132.486 134.5,136.5C 129.284,135.196 123.951,134.363 118.5,134C 107.833,133.667 97.1667,133.333 86.5,133C 77.7619,125.744 69.0953,125.744 60.5,133C 48.0914,133.186 35.758,133.686 23.5,134.5C 19.8641,135.326 16.1974,135.992 12.5,136.5C 10.334,128.002 13.0007,121.835 20.5,118C 29.1204,116.296 37.7871,116.129 46.5,117.5C 45.3318,110.413 43.9985,103.413 42.5,96.5C 43.1054,94.5188 44.1054,94.1854 45.5,95.5C 45.811,96.4778 46.4777,97.1445 47.5,97.5C 63.6559,91.1809 79.9893,90.8475 96.5,96.5C 96.8333,95.8333 97.1667,95.1667 97.5,94.5C 95.3474,80.7087 91.014,67.7087 84.5,55.5C 85.5,54.1667 86.5,54.1667 87.5,55.5 Z"/></g>
<g><path style="opacity:1" fill="#797873" d="M 57.5,96.5 C 67.8387,96.3335 78.172,96.5002 88.5,97C 92.3921,98.003 95.7255,99.8364 98.5,102.5C 94.6497,103.246 90.9831,104.413 87.5,106C 90.3753,109.044 93.3753,111.877 96.5,114.5C 80.8249,113.212 65.1583,113.212 49.5,114.5C 52.729,112.058 55.729,109.392 58.5,106.5C 55.4538,103.631 51.9538,102.964 48,104.5C 47.3333,103.5 47.3333,102.5 48,101.5C 50.9951,99.3475 54.1618,97.6808 57.5,96.5 Z"/></g>
<g><path style="opacity:1" fill="#403f3e" d="M 69.5,99.5 C 73.4629,99.0889 77.1295,99.9222 80.5,102C 82.0283,104.881 81.3616,107.214 78.5,109C 75.1667,109.667 71.8333,109.667 68.5,109C 64.3785,105.329 64.7119,102.163 69.5,99.5 Z"/></g>
<g><path style="opacity:1" fill="#7a7974" d="M 69.5,103.5 C 72.2469,103.187 74.9135,103.52 77.5,104.5C 76.6519,105.991 75.3186,106.658 73.5,106.5C 71.0182,106.89 69.6848,105.89 69.5,103.5 Z"/></g>
<g><path style="opacity:1" fill="#6e6e69" d="M 49.5,106.5 C 53.1569,106.974 53.3236,108.307 50,110.5C 48.2317,109.318 48.0651,107.985 49.5,106.5 Z"/></g>
<g><path style="opacity:1" fill="#6f6e6a" d="M 94.5,106.5 C 96.3464,106.222 97.6798,106.889 98.5,108.5C 96.1671,109.941 94.8338,109.275 94.5,106.5 Z"/></g>
<g><path style="opacity:1" fill="#74736e" d="M 63.5,116.5 C 69.8421,116.334 76.1754,116.5 82.5,117C 85.6996,117.101 88.6996,117.768 91.5,119C 79.5,119.667 67.5,119.667 55.5,119C 58.166,117.939 60.8327,117.106 63.5,116.5 Z"/></g>
<g><path style="opacity:1" fill="#7a7974" d="M 24.5,120.5 C 39.6175,120.157 54.6175,121.324 69.5,124C 65.489,125.442 61.8223,127.442 58.5,130C 45.8333,130.333 33.1667,130.667 20.5,131C 18.9751,132.009 17.3084,132.509 15.5,132.5C 14.7828,125.566 17.7828,121.566 24.5,120.5 Z"/></g>
<g><path style="opacity:1" fill="#787873" d="M 99.5,120.5 C 107.84,120.334 116.173,120.5 124.5,121C 129.999,122.821 132.332,126.655 131.5,132.5C 129.692,132.509 128.025,132.009 126.5,131C 113.833,130.667 101.167,130.333 88.5,130C 84.9934,127.746 81.3267,125.746 77.5,124C 85.011,123.048 92.3443,121.882 99.5,120.5 Z"/></g>
<g><path style="opacity:0.404" fill="#cecdc4" d="M 128.5,112.5 C 139.247,116.449 143.413,124.116 141,135.5C 140.461,138.529 139.794,141.529 139,144.5C 138.586,144.957 138.086,145.291 137.5,145.5C 133.355,143.426 129.021,141.926 124.5,141C 111.5,140.667 98.5,140.333 85.5,140C 77.8333,131.333 70.1667,131.333 62.5,140C 50.1712,140.5 37.8378,140.667 25.5,140.5C 24.3915,139.71 23.0581,139.21 21.5,139C 23.8782,138.489 26.2115,137.822 28.5,137C 26.8251,136.015 25.1585,135.181 23.5,134.5C 35.758,133.686 48.0914,133.186 60.5,133C 69.0953,125.744 77.7619,125.744 86.5,133C 97.1667,133.333 107.833,133.667 118.5,134C 123.951,134.363 129.284,135.196 134.5,136.5C 134.666,132.486 134.499,128.486 134,124.5C 132.941,122.341 131.441,120.674 129.5,119.5C 129.047,118.542 128.381,117.708 127.5,117C 127.833,116.667 128.167,116.333 128.5,116C 124.667,114.977 124.667,113.81 128.5,112.5 Z"/></g>
</svg>
