<?xml version="1.0" encoding="UTF-8"?>
<!DOCTYPE svg PUBLIC "-//W3C//DTD SVG 1.1//EN" "http://www.w3.org/Graphics/SVG/1.1/DTD/svg11.dtd">
<svg xmlns="http://www.w3.org/2000/svg" version="1.1" width="150px" height="150px" style="shape-rendering:geometricPrecision; text-rendering:geometricPrecision; image-rendering:optimizeQuality; fill-rule:evenodd; clip-rule:evenodd" xmlns:xlink="http://www.w3.org/1999/xlink">
<g><path style="opacity:0.784" fill="#cdcbc2" d="M 130.5,38.5 C 130.631,39.2389 130.464,39.9056 130,40.5C 126.039,38.7184 121.872,37.7184 117.5,37.5C 116.833,37.5 116.167,37.5 115.5,37.5C 106.447,34.4064 97.7807,35.4064 89.5,40.5C 88.5023,32.5277 88.169,24.5277 88.5,16.5C 78.3194,16.1726 68.3194,16.506 58.5,17.5C 57.8333,24.8333 57.1667,32.1667 56.5,39.5C 48.0756,35.2109 39.4089,34.5443 30.5,37.5C 22.8333,40.5 17.5,45.8333 14.5,53.5C 12.9814,56.5256 12.3148,59.8589 12.5,63.5C 12.5034,66.0254 12.8367,68.3587 13.5,70.5C 14.176,74.1867 15.676,77.5201 18,80.5C 22.3278,85.8274 26.9945,90.8274 32,95.5C 32.3729,107.169 34.3729,118.502 38,129.5C 44.4355,133.885 51.6022,135.885 59.5,135.5C 68.6575,136.658 77.9908,136.824 87.5,136C 91.4651,135.892 95.1317,135.059 98.5,133.5C 102.47,133.016 106.136,131.683 109.5,129.5C 110.75,129.423 111.583,128.756 112,127.5C 113.011,128.337 114.178,128.67 115.5,128.5C 115.5,129.5 115.5,130.5 115.5,131.5C 112.411,135.551 108.411,138.384 103.5,140C 83.8277,143.314 64.1611,143.314 44.5,140C 35.4441,137.611 30.2774,131.777 29,122.5C 27.4382,114.234 26.4382,105.901 26,97.5C 19.2079,91.7144 13.5412,85.0477 9,77.5C 2.03886,52.583 10.8722,36.4163 35.5,29C 40.8613,28.3914 46.1946,28.5581 51.5,29.5C 50.8954,22.3818 51.562,15.5485 53.5,9C 67.1667,8.33333 80.8333,8.33333 94.5,9C 95.3149,16.0867 95.8149,23.2534 96,30.5C 109.106,26.4856 120.606,29.1523 130.5,38.5 Z"/></g>
<g><path style="opacity:1" fill="#3f3f3e" d="M 115.5,37.5 C 115.672,38.4916 115.338,39.1583 114.5,39.5C 103.239,37.022 93.7389,40.022 86,48.5C 83.2774,51.5568 80.944,54.8901 79,58.5C 76.0488,67.2648 74.8821,76.2648 75.5,85.5C 81.172,85.7599 86.8387,86.0932 92.5,86.5C 93.6085,87.29 94.9419,87.79 96.5,88C 95.4734,88.5133 94.4734,89.0133 93.5,89.5C 80.1507,88.2545 66.8174,88.2545 53.5,89.5C 53.0825,88.7784 52.4158,88.2784 51.5,88C 52.7375,87.7679 53.7375,87.2679 54.5,86.5C 60.1377,85.7803 65.8044,85.447 71.5,85.5C 74.5032,64.6704 66.8366,49.5037 48.5,40C 43.5223,38.3152 38.5223,38.1485 33.5,39.5C 32.352,38.8359 31.0187,38.6692 29.5,39C 30.056,38.6174 30.3893,38.1174 30.5,37.5C 39.4089,34.5443 48.0756,35.2109 56.5,39.5C 56.7828,40.2891 57.2828,40.9558 58,41.5C 58.4997,33.5069 58.6664,25.5069 58.5,17.5C 68.3194,16.506 78.3194,16.1726 88.5,16.5C 88.169,24.5277 88.5023,32.5277 89.5,40.5C 97.7807,35.4064 106.447,34.4064 115.5,37.5 Z"/></g>
<g><path style="opacity:1" fill="#777671" d="M 64.5,20.5 C 70.3188,19.3475 76.3188,19.1808 82.5,20C 79.6511,23.0162 76.6511,25.8496 73.5,28.5C 70.4802,25.811 67.4802,23.1444 64.5,20.5 Z"/></g>
<g><path style="opacity:1" fill="#767570" d="M 61.5,22.5 C 64.6952,25.1972 67.6952,28.0305 70.5,31C 68.0505,34.4529 65.2171,37.6195 62,40.5C 61.5005,34.5092 61.3338,28.5092 61.5,22.5 Z"/></g>
<g><path style="opacity:1" fill="#787772" d="M 84.5,22.5 C 85.6525,28.3188 85.8192,34.3188 85,40.5C 81.9838,37.6511 79.1504,34.6511 76.5,31.5C 79.189,28.4802 81.8556,25.4802 84.5,22.5 Z"/></g>
<g><path style="opacity:1" fill="#a0a099" d="M 58.5,17.5 C 58.6664,25.5069 58.4997,33.5069 58,41.5C 57.2828,40.9558 56.7828,40.2891 56.5,39.5C 57.1667,32.1667 57.8333,24.8333 58.5,17.5 Z"/></g>
<g><path style="opacity:1" fill="#797873" d="M 72.5,34.5 C 76.553,36.3785 79.8864,39.2119 82.5,43C 76.5,43.6667 70.5,43.6667 64.5,43C 67.3714,40.2972 70.0381,37.4639 72.5,34.5 Z"/></g>
<g><path style="opacity:1" fill="#cccbc2" d="M 117.5,37.5 C 121.872,37.7184 126.039,38.7184 130,40.5C 130.464,39.9056 130.631,39.2389 130.5,38.5C 138.828,46.3111 142.328,55.9777 141,67.5C 140.534,72.8978 138.867,77.8978 136,82.5C 131.7,87.8012 127.034,92.8012 122,97.5C 121.073,104.844 120.073,112.178 119,119.5C 118.431,123.795 117.264,127.795 115.5,131.5C 115.5,130.5 115.5,129.5 115.5,128.5C 114.178,128.67 113.011,128.337 112,127.5C 111.583,128.756 110.75,129.423 109.5,129.5C 112.294,118.399 114.128,107.066 115,95.5C 123.665,88.8482 129.998,80.5149 134,70.5C 136.423,55.3462 130.923,44.3462 117.5,37.5 Z"/></g>
<g><path style="opacity:1" fill="#5f5f5b" d="M 14.5,53.5 C 13.7081,59.1302 13.3748,64.7969 13.5,70.5C 12.8367,68.3587 12.5034,66.0254 12.5,63.5C 12.3148,59.8589 12.9814,56.5256 14.5,53.5 Z"/></g>
<g><path style="opacity:1" fill="#40403f" d="M 30.5,37.5 C 30.3893,38.1174 30.056,38.6174 29.5,39C 31.0187,38.6692 32.352,38.8359 33.5,39.5C 15.8292,48.5274 11.6626,61.8608 21,79.5C 25.1667,83.6667 29.3333,87.8333 33.5,92C 38.5054,90.6805 43.5054,89.0139 48.5,87C 50.4727,86.5045 52.4727,86.3379 54.5,86.5C 53.7375,87.2679 52.7375,87.7679 51.5,88C 52.4158,88.2784 53.0825,88.7784 53.5,89.5C 47.8267,91.0024 42.3267,93.0024 37,95.5C 36.3333,98.5 36.3333,101.5 37,104.5C 38.5624,102.09 40.729,100.756 43.5,100.5C 46.9237,101.364 50.257,102.53 53.5,104C 50.8333,106.667 48.1667,109.333 45.5,112C 43.1009,112.711 40.7676,112.544 38.5,111.5C 37.2946,114.948 37.6279,118.282 39.5,121.5C 42.3819,120.039 45.3819,118.873 48.5,118C 63.1362,116.506 77.8029,116.172 92.5,117C 97.5353,118.401 102.535,119.901 107.5,121.5C 108.192,120.975 108.692,120.308 109,119.5C 109.497,116.854 109.664,114.187 109.5,111.5C 106.859,112.263 104.192,112.43 101.5,112C 98.6503,109.318 95.9836,106.484 93.5,103.5C 96.879,102.113 100.379,101.113 104,100.5C 106.524,101.178 108.691,102.512 110.5,104.5C 111.484,101.572 111.817,98.5719 111.5,95.5C 105.619,92.8796 99.6189,90.8796 93.5,89.5C 94.4734,89.0133 95.4734,88.5133 96.5,88C 94.9419,87.79 93.6085,87.29 92.5,86.5C 99.5056,87.253 106.172,89.253 112.5,92.5C 118.893,87.2755 124.393,81.2755 129,74.5C 134.091,58.6862 129.258,47.0196 114.5,39.5C 115.338,39.1583 115.672,38.4916 115.5,37.5C 116.167,37.5 116.833,37.5 117.5,37.5C 130.923,44.3462 136.423,55.3462 134,70.5C 129.998,80.5149 123.665,88.8482 115,95.5C 114.128,107.066 112.294,118.399 109.5,129.5C 106.136,131.683 102.47,133.016 98.5,133.5C 85.5682,135.201 72.5682,135.868 59.5,135.5C 51.6022,135.885 44.4355,133.885 38,129.5C 34.3729,118.502 32.3729,107.169 32,95.5C 26.9945,90.8274 22.3278,85.8274 18,80.5C 15.676,77.5201 14.176,74.1867 13.5,70.5C 13.3748,64.7969 13.7081,59.1302 14.5,53.5C 17.5,45.8333 22.8333,40.5 30.5,37.5 Z"/></g>
<g><path style="opacity:1" fill="#757470" d="M 101.5,103.5 C 104.792,103.12 107.125,104.453 108.5,107.5C 105.028,110.443 102.361,109.776 100.5,105.5C 100.863,104.817 101.196,104.15 101.5,103.5 Z"/></g>
<g><path style="opacity:1" fill="#767570" d="M 42.5,103.5 C 44.3464,103.222 45.6798,103.889 46.5,105.5C 44.5785,109.703 41.9119,110.369 38.5,107.5C 40.188,106.479 41.5213,105.145 42.5,103.5 Z"/></g>
<g><path style="opacity:1" fill="#797873" d="M 93.5,89.5 C 99.6189,90.8796 105.619,92.8796 111.5,95.5C 111.817,98.5719 111.484,101.572 110.5,104.5C 108.691,102.512 106.524,101.178 104,100.5C 100.379,101.113 96.879,102.113 93.5,103.5C 95.9836,106.484 98.6503,109.318 101.5,112C 104.192,112.43 106.859,112.263 109.5,111.5C 109.664,114.187 109.497,116.854 109,119.5C 108.692,120.308 108.192,120.975 107.5,121.5C 102.535,119.901 97.5353,118.401 92.5,117C 77.8029,116.172 63.1362,116.506 48.5,118C 45.3819,118.873 42.3819,120.039 39.5,121.5C 37.6279,118.282 37.2946,114.948 38.5,111.5C 40.7676,112.544 43.1009,112.711 45.5,112C 48.1667,109.333 50.8333,106.667 53.5,104C 50.257,102.53 46.9237,101.364 43.5,100.5C 40.729,100.756 38.5624,102.09 37,104.5C 36.3333,101.5 36.3333,98.5 37,95.5C 42.3267,93.0024 47.8267,91.0024 53.5,89.5C 66.8174,88.2545 80.1507,88.2545 93.5,89.5 Z"/></g>
<g><path style="opacity:1" fill="#3f3f3e" d="M 67.5,96.5 C 72.3697,96.0316 77.0364,96.6982 81.5,98.5C 84.6218,102.83 83.6218,105.997 78.5,108C 74.3749,108.854 70.3749,108.52 66.5,107C 62.4981,103.152 62.8314,99.6516 67.5,96.5 Z"/></g>
<g><path style="opacity:1" fill="#797873" d="M 70.5,99.5 C 72.8568,99.3367 75.1902,99.5034 77.5,100C 79.3937,101.079 79.727,102.413 78.5,104C 75.594,105.318 72.594,105.652 69.5,105C 67.9632,103.89 67.2965,102.39 67.5,100.5C 68.791,100.737 69.791,100.404 70.5,99.5 Z"/></g>
<g><path style="opacity:1" fill="#c9c8bf" d="M 64.5,46.5 C 70.5368,46.1707 76.5368,46.5041 82.5,47.5C 78.7321,52.0353 75.7321,57.0353 73.5,62.5C 70.9865,56.7973 67.9865,51.464 64.5,46.5 Z"/></g>
<g><path style="opacity:1" fill="#7b7a75" d="M 54.5,86.5 C 52.4727,86.3379 50.4727,86.5045 48.5,87C 43.5054,89.0139 38.5054,90.6805 33.5,92C 29.3333,87.8333 25.1667,83.6667 21,79.5C 11.6626,61.8608 15.8292,48.5274 33.5,39.5C 38.5223,38.1485 43.5223,38.3152 48.5,40C 66.8366,49.5037 74.5032,64.6704 71.5,85.5C 65.8044,85.447 60.1377,85.7803 54.5,86.5 Z"/></g>
<g><path style="opacity:1" fill="#7b7a75" d="M 114.5,39.5 C 129.258,47.0196 134.091,58.6862 129,74.5C 124.393,81.2755 118.893,87.2755 112.5,92.5C 106.172,89.253 99.5056,87.253 92.5,86.5C 86.8387,86.0932 81.172,85.7599 75.5,85.5C 74.8821,76.2648 76.0488,67.2648 79,58.5C 80.944,54.8901 83.2774,51.5568 86,48.5C 93.7389,40.022 103.239,37.022 114.5,39.5 Z"/></g>
<g><path style="opacity:1" fill="#7a7974" d="M 59.5,119.5 C 73.2619,118.979 86.9286,119.813 100.5,122C 102.874,122.848 104.874,124.181 106.5,126C 106.18,127.653 105.18,128.653 103.5,129C 99.8333,130 96.1667,131 92.5,132C 80.1667,132.667 67.8333,132.667 55.5,132C 49.7472,131.826 44.7472,129.993 40.5,126.5C 41.9242,124.282 43.9242,122.782 46.5,122C 50.9649,121.126 55.2983,120.293 59.5,119.5 Z"/></g>
<g><path style="opacity:1" fill="#61615d" d="M 98.5,133.5 C 95.1317,135.059 91.4651,135.892 87.5,136C 77.9908,136.824 68.6575,136.658 59.5,135.5C 72.5682,135.868 85.5682,135.201 98.5,133.5 Z"/></g>
</svg>
