<?xml version="1.0" encoding="UTF-8"?>
<!DOCTYPE svg PUBLIC "-//W3C//DTD SVG 1.1//EN" "http://www.w3.org/Graphics/SVG/1.1/DTD/svg11.dtd">
<svg xmlns="http://www.w3.org/2000/svg" version="1.1" width="150px" height="150px" style="shape-rendering:geometricPrecision; text-rendering:geometricPrecision; image-rendering:optimizeQuality; fill-rule:evenodd; clip-rule:evenodd" xmlns:xlink="http://www.w3.org/1999/xlink">
<g><path style="opacity:1" fill="#cdccc3" d="M 53.5,2.5 C 58.2088,8.39125 63.2088,14.2246 68.5,20C 103.463,23.5708 125.296,42.4041 134,76.5C 139.313,96.4555 139.646,116.455 135,136.5C 133.833,138.333 132.667,140.167 131.5,142C 102.494,142.833 73.4943,142.667 44.5,141.5C 39.0341,131.339 39.3674,121.506 45.5,112C 38.1224,111.105 30.7891,110.771 23.5,111C 10.2599,103.556 6.42654,92.7225 12,78.5C 17.2409,72.3485 22.2409,66.0151 27,59.5C 28.3694,53.7183 30.7027,48.3849 34,43.5C 34.1813,33.3676 35.348,23.3676 37.5,13.5C 40.1667,14.8333 42.8333,16.1667 45.5,17.5C 48.4464,12.6049 51.1131,7.60486 53.5,2.5 Z M 53.5,103.5 C 55.2058,99.2821 58.2058,96.7821 62.5,96C 59.8991,99.1117 56.8991,101.612 53.5,103.5 Z"/></g>
<g><path style="opacity:1" fill="#414140" d="M 128.5,82.5 C 128.785,84.288 128.452,85.9547 127.5,87.5C 124.849,80.5655 122.349,73.5655 120,66.5C 112.213,48.6927 99.0462,37.526 80.5,33C 81.2567,34.5122 82.2567,35.8455 83.5,37C 86.5535,37.1786 89.5535,37.6786 92.5,38.5C 93.7125,43.8841 97.0458,46.3841 102.5,46C 103.383,49.4495 104.216,52.9495 105,56.5C 106.753,57.627 108.587,58.627 110.5,59.5C 111.328,63.7956 111.828,68.1289 112,72.5C 113.586,73.376 115.086,74.376 116.5,75.5C 115.311,79.2788 114.311,83.1122 113.5,87C 115.296,89.6332 117.296,92.1332 119.5,94.5C 117.713,97.9085 116.046,101.408 114.5,105C 115.771,107.933 117.438,110.599 119.5,113C 115.462,118.903 111.796,125.069 108.5,131.5C 114.463,132.496 120.463,132.829 126.5,132.5C 128.558,119.546 128.892,106.546 127.5,93.5C 127.485,88.4212 128.485,87.7545 130.5,91.5C 132.161,106.625 131.494,121.625 128.5,136.5C 101.833,136.5 75.1667,136.5 48.5,136.5C 45.3632,129.234 45.8632,122.234 50,115.5C 56.0421,110.97 61.7088,105.97 67,100.5C 69.8622,96.6569 71.0289,92.3236 70.5,87.5C 66.5276,88.1082 62.5276,88.6082 58.5,89C 52.7886,93.0441 48.1219,98.0441 44.5,104C 40.1135,105.971 35.7802,105.805 31.5,103.5C 28.8684,104.44 26.2017,104.607 23.5,104C 16.4637,98.2299 14.297,91.0632 17,82.5C 26.208,73.4164 32.8747,62.7497 37,50.5C 37.9533,48.5448 39.2866,46.8782 41,45.5C 41.1687,38.1441 41.6687,30.8108 42.5,23.5C 45.1117,24.7787 47.4451,26.4453 49.5,28.5C 50.7935,23.9158 52.6269,19.5825 55,15.5C 58.1311,19.6328 61.6311,23.4662 65.5,27C 100.338,29.6653 121.338,48.1653 128.5,82.5 Z M 53.5,103.5 C 56.8991,101.612 59.8991,99.1117 62.5,96C 58.2058,96.7821 55.2058,99.2821 53.5,103.5 Z"/></g>
<g><path style="opacity:1" fill="#7b7a74" d="M 101.5,56.5 C 99.9142,55.8519 98.2475,55.3519 96.5,55C 96.1654,53.836 96.1654,52.5026 96.5,51C 93.0357,50.1834 89.7024,50.5167 86.5,52C 88.6079,52.3599 90.6079,53.0266 92.5,54C 94.1667,56.3333 96.1667,58.3333 98.5,60C 96.8654,60.5396 95.5321,60.0396 94.5,58.5C 93.269,59.6507 93.269,60.8173 94.5,62C 91.4786,62.6735 88.4786,63.0068 85.5,63C 87.3772,61.8147 89.3772,60.8147 91.5,60C 91,59.5 90.5,59 90,58.5C 86.9472,59.0998 84.7806,60.7665 83.5,63.5C 82.5,63.5 81.5,63.5 80.5,63.5C 81.7939,74.1594 77.4606,81.3261 67.5,85C 55.7144,85.4056 47.3811,91.0722 42.5,102C 40.1902,102.497 37.8568,102.663 35.5,102.5C 35.5732,99.3177 36.0732,96.3177 37,93.5C 33.5476,95.285 30.7143,97.785 28.5,101C 27.1667,101.667 25.8333,101.667 24.5,101C 20.1754,96.6892 18.6754,91.5225 20,85.5C 24.5867,78.5721 29.5867,71.9055 35,65.5C 36.8461,62.4313 37.8461,59.0979 38,55.5C 39.2305,52.2677 41.2305,49.6011 44,47.5C 44.3333,41.1667 44.6667,34.8333 45,28.5C 48.038,31.2026 50.7046,34.2026 53,37.5C 53.3333,33.1667 53.6667,28.8333 54,24.5C 54.2492,23.376 54.7492,22.376 55.5,21.5C 60.0176,26.8513 65.0176,31.6846 70.5,36C 72.8991,36.711 75.2324,36.5443 77.5,35.5C 79.3615,36.5283 80.6948,38.0283 81.5,40C 87.238,38.9642 90.9047,41.1309 92.5,46.5C 95.0119,47.7946 97.6786,48.4613 100.5,48.5C 100.833,51.1667 101.167,53.8333 101.5,56.5 Z"/></g>
<g><path style="opacity:1" fill="#3f3f3d" d="M 45.5,54.5 C 48.5184,54.3354 51.5184,54.502 54.5,55C 55.428,55.3879 56.0946,56.0546 56.5,57C 53.6213,61.9308 49.288,63.7641 43.5,62.5C 43.2826,59.5794 43.9493,56.9128 45.5,54.5 Z"/></g>
<g><path style="opacity:1" fill="#3f3f3e" d="M 55.5,26.5 C 60.4354,30.7036 62.9354,36.037 63,42.5C 61.9887,43.3366 60.8221,43.67 59.5,43.5C 60.2107,40.1362 59.044,37.8029 56,36.5C 55.5017,33.1832 55.335,29.8499 55.5,26.5 Z"/></g>
<g><path style="opacity:1" fill="#7c7b75" d="M 101.5,56.5 C 101.928,59.2465 103.594,60.9132 106.5,61.5C 107.327,65.4592 107.827,69.4592 108,73.5C 109.512,74.2567 110.846,75.2567 112,76.5C 112.241,80.3898 111.741,84.2231 110.5,88C 111.607,90.6108 112.941,93.1108 114.5,95.5C 113.168,99.1611 111.835,102.828 110.5,106.5C 111.987,108.961 113.654,111.295 115.5,113.5C 111.822,119.528 108.156,125.528 104.5,131.5C 86.9101,132.486 69.2434,132.819 51.5,132.5C 50.4731,128.554 50.3064,124.554 51,120.5C 57.2496,114.518 63.583,108.518 70,102.5C 71.0587,99.3821 72.3921,96.3821 74,93.5C 74.3333,90.8333 74.6667,88.1667 75,85.5C 82.0161,79.7985 84.8494,72.4652 83.5,63.5C 84.7806,60.7665 86.9472,59.0998 90,58.5C 90.5,59 91,59.5 91.5,60C 89.3772,60.8147 87.3772,61.8147 85.5,63C 88.4786,63.0068 91.4786,62.6735 94.5,62C 93.269,60.8173 93.269,59.6507 94.5,58.5C 95.5321,60.0396 96.8654,60.5396 98.5,60C 96.1667,58.3333 94.1667,56.3333 92.5,54C 90.6079,53.0266 88.6079,52.3599 86.5,52C 89.7024,50.5167 93.0357,50.1834 96.5,51C 96.1654,52.5026 96.1654,53.836 96.5,55C 98.2475,55.3519 99.9142,55.8519 101.5,56.5 Z"/></g>
<g><path style="opacity:1" fill="#3f3f3e" d="M 22.5,87.5 C 23.4959,87.4142 24.3292,87.7476 25,88.5C 25.8141,90.9018 25.6474,93.2351 24.5,95.5C 21.1897,93.5592 20.523,90.8926 22.5,87.5 Z"/></g>
<g><path style="opacity:1" fill="#797873" d="M 128.5,82.5 C 129.657,85.2727 130.324,88.2727 130.5,91.5C 128.485,87.7545 127.485,88.4212 127.5,93.5C 128.892,106.546 128.558,119.546 126.5,132.5C 120.463,132.829 114.463,132.496 108.5,131.5C 111.796,125.069 115.462,118.903 119.5,113C 117.438,110.599 115.771,107.933 114.5,105C 116.046,101.408 117.713,97.9085 119.5,94.5C 117.296,92.1332 115.296,89.6332 113.5,87C 114.311,83.1122 115.311,79.2788 116.5,75.5C 115.086,74.376 113.586,73.376 112,72.5C 111.828,68.1289 111.328,63.7956 110.5,59.5C 108.587,58.627 106.753,57.627 105,56.5C 104.216,52.9495 103.383,49.4495 102.5,46C 97.0458,46.3841 93.7125,43.8841 92.5,38.5C 89.5535,37.6786 86.5535,37.1786 83.5,37C 82.2567,35.8455 81.2567,34.5122 80.5,33C 99.0462,37.526 112.213,48.6927 120,66.5C 122.349,73.5655 124.849,80.5655 127.5,87.5C 128.452,85.9547 128.785,84.288 128.5,82.5 Z"/></g>
<g><path style="opacity:1" fill="#595956" d="M 104.5,131.5 C 96.0262,132.832 87.1929,133.498 78,133.5C 68.9936,133.5 60.1602,133.166 51.5,132.5C 69.2434,132.819 86.9101,132.486 104.5,131.5 Z"/></g>
</svg>
