<?xml version="1.0" encoding="UTF-8"?>
<!DOCTYPE svg PUBLIC "-//W3C//DTD SVG 1.1//EN" "http://www.w3.org/Graphics/SVG/1.1/DTD/svg11.dtd">
<svg xmlns="http://www.w3.org/2000/svg" version="1.1" width="150px" height="150px" style="shape-rendering:geometricPrecision; text-rendering:geometricPrecision; image-rendering:optimizeQuality; fill-rule:evenodd; clip-rule:evenodd" xmlns:xlink="http://www.w3.org/1999/xlink">
<g><path style="opacity:0.276" fill="#cfcdc4" d="M 94.5,49.5 C 91.9885,49.838 89.6552,49.838 87.5,49.5C 87.8333,48.1667 88.1667,46.8333 88.5,45.5C 85.828,43.5745 84.828,40.9079 85.5,37.5C 86.8734,37.6567 88.2068,37.49 89.5,37C 88.6634,35.9887 88.33,34.8221 88.5,33.5C 87.448,33.6495 86.448,33.4828 85.5,33C 85.0955,30.2508 83.0955,29.0841 79.5,29.5C 71.0808,26.5444 65.4142,29.2111 62.5,37.5C 57.9593,37.3309 57.626,37.9975 61.5,39.5C 60.3112,40.4287 58.9778,40.762 57.5,40.5C 57.5,41.5 57.5,42.5 57.5,43.5C 55.5395,28.6195 62.2062,21.4529 77.5,22C 90.1149,26.2291 94.1149,34.5624 89.5,47C 91.1749,47.9853 92.8415,48.8186 94.5,49.5 Z"/></g>
<g><path style="opacity:1" fill="#444442" d="M 79.5,29.5 C 86.1253,36.0016 86.1253,42.5016 79.5,49C 81.6572,50.9121 83.9906,52.5787 86.5,54C 94.0744,54.5194 100.574,57.3528 106,62.5C 107.009,64.0249 107.509,65.6916 107.5,67.5C 107.5,68.8333 107.5,70.1667 107.5,71.5C 105.901,71.7678 104.568,71.4345 103.5,70.5C 104.167,70.5 104.5,70.1667 104.5,69.5C 104.203,66.4411 102.87,63.9411 100.5,62C 95.6366,59.9344 90.6366,58.2678 85.5,57C 81.5748,54.5401 77.5748,52.3734 73.5,50.5C 68.7609,52.7091 64.0942,55.2091 59.5,58C 54.9039,58.4639 50.5705,59.7972 46.5,62C 44.84,63.4877 43.84,65.321 43.5,67.5C 42.1667,68.5 42.1667,69.5 43.5,70.5C 42.7375,71.2679 41.7375,71.7679 40.5,72C 48.0115,72.1712 55.3448,72.6712 62.5,73.5C 54.8333,73.5 47.1667,73.5 39.5,73.5C 39.5,71.1667 39.5,68.8333 39.5,66.5C 43.9645,58.2609 50.9645,54.0943 60.5,54C 63.3616,53.0695 65.695,51.4029 67.5,49C 63.8023,46.0807 62.1357,42.2474 62.5,37.5C 65.4142,29.2111 71.0808,26.5444 79.5,29.5 Z"/></g>
<g><path style="opacity:1" fill="#7b7a75" d="M 69.5,32.5 C 75.9789,30.7835 79.9789,33.1169 81.5,39.5C 80.0207,46.048 76.0207,48.2147 69.5,46C 65.5413,41.5015 65.5413,37.0015 69.5,32.5 Z"/></g>
<g><path style="opacity:1" fill="#cdccc3" d="M 79.5,29.5 C 83.0955,29.0841 85.0955,30.2508 85.5,33C 86.448,33.4828 87.448,33.6495 88.5,33.5C 88.33,34.8221 88.6634,35.9887 89.5,37C 88.2068,37.49 86.8734,37.6567 85.5,37.5C 84.828,40.9079 85.828,43.5745 88.5,45.5C 88.1667,46.8333 87.8333,48.1667 87.5,49.5C 89.6552,49.838 91.9885,49.838 94.5,49.5C 104.429,50.0472 110.929,55.0472 114,64.5C 114.499,69.4889 114.666,74.4889 114.5,79.5C 106.833,79.5 99.1667,79.5 91.5,79.5C 91.3611,78.0809 90.8611,76.7476 90,75.5C 89.5774,76.9561 88.7441,77.4561 87.5,77C 92.7256,73.9997 98.2256,73.833 104,76.5C 105.762,76.0556 105.595,75.5556 103.5,75C 105.5,74.3333 107.5,74.3333 109.5,75C 106.879,75.9056 107.046,76.4056 110,76.5C 110.833,76.3333 111.667,76.1667 112.5,76C 111.529,74.5187 110.196,73.6854 108.5,73.5C 108.795,71.2646 108.461,69.2646 107.5,67.5C 107.509,65.6916 107.009,64.0249 106,62.5C 100.574,57.3528 94.0744,54.5194 86.5,54C 83.9906,52.5787 81.6572,50.9121 79.5,49C 86.1253,42.5016 86.1253,36.0016 79.5,29.5 Z"/></g>
<g><path style="opacity:0.987" fill="#cccbc2" d="M 62.5,37.5 C 62.1357,42.2474 63.8023,46.0807 67.5,49C 65.695,51.4029 63.3616,53.0695 60.5,54C 50.9645,54.0943 43.9645,58.2609 39.5,66.5C 37.2239,66.2435 36.0572,64.9102 36,62.5C 33.9228,67.5657 33.0895,72.8991 33.5,78.5C 30.6368,60.1634 38.6368,49.9968 57.5,48C 57.9662,46.7012 57.9662,45.2012 57.5,43.5C 57.5,42.5 57.5,41.5 57.5,40.5C 58.9778,40.762 60.3112,40.4287 61.5,39.5C 57.626,37.9975 57.9593,37.3309 62.5,37.5 Z"/></g>
<g><path style="opacity:1" fill="#7b7a75" d="M 104.5,69.5 C 83.8059,70.1549 63.4725,69.4883 43.5,67.5C 43.84,65.321 44.84,63.4877 46.5,62C 50.5705,59.7972 54.9039,58.4639 59.5,58C 64.0942,55.2091 68.7609,52.7091 73.5,50.5C 77.5748,52.3734 81.5748,54.5401 85.5,57C 90.6366,58.2678 95.6366,59.9344 100.5,62C 102.87,63.9411 104.203,66.4411 104.5,69.5 Z"/></g>
<g><path style="opacity:0.918" fill="#cccbc1" d="M 39.5,66.5 C 39.5,68.8333 39.5,71.1667 39.5,73.5C 47.1667,73.5 54.8333,73.5 62.5,73.5C 62.6646,76.5184 62.498,79.5184 62,82.5C 55.9712,89.438 53.9712,97.438 56,106.5C 56.6152,108.116 57.6152,109.449 59,110.5C 59.4955,112.473 59.6621,114.473 59.5,116.5C 52.7747,116.655 46.4414,118.488 40.5,122C 38.2345,123.758 36.5678,125.925 35.5,128.5C 34.612,131.054 34.2786,133.721 34.5,136.5C 30.2144,133.345 29.3811,129.345 32,124.5C 33.5095,123.91 35.0095,123.244 36.5,122.5C 35.2889,121.28 35.2889,120.113 36.5,119C 37.825,119.148 38.9916,118.982 40,118.5C 40.7401,117.251 40.5735,116.251 39.5,115.5C 42.8004,113.358 46.467,112.025 50.5,111.5C 47.4602,100.282 49.1268,89.7817 55.5,80C 47.9885,79.8288 40.6552,79.3288 33.5,78.5C 33.0895,72.8991 33.9228,67.5657 36,62.5C 36.0572,64.9102 37.2239,66.2435 39.5,66.5 Z"/></g>
<g><path style="opacity:1" fill="#575754" d="M 43.5,67.5 C 63.4725,69.4883 83.8059,70.1549 104.5,69.5C 104.5,70.1667 104.167,70.5 103.5,70.5C 83.5,70.5 63.5,70.5 43.5,70.5C 42.1667,69.5 42.1667,68.5 43.5,67.5 Z"/></g>
<g><path style="opacity:1" fill="#40403e" d="M 43.5,70.5 C 63.5,70.5 83.5,70.5 103.5,70.5C 104.568,71.4345 105.901,71.7678 107.5,71.5C 99.8333,72.1667 92.1667,72.8333 84.5,73.5C 84.3359,76.1873 84.5026,78.854 85,81.5C 91.567,89.1828 93.567,97.8494 91,107.5C 88.259,109.067 87.0923,111.401 87.5,114.5C 86.8999,113.1 85.8999,112.1 84.5,111.5C 85.044,109.284 86.044,107.284 87.5,105.5C 88.388,102.946 88.7214,100.279 88.5,97.5C 88.1249,95.3024 87.4582,93.3024 86.5,91.5C 85.5383,88.2432 84.0383,85.2432 82,82.5C 81.502,79.5184 81.3354,76.5184 81.5,73.5C 76.5,73.5 71.5,73.5 66.5,73.5C 66.6646,76.5184 66.498,79.5184 66,82.5C 63.7621,84.3091 62.5954,86.6424 62.5,89.5C 61.5987,90.2905 60.9321,91.2905 60.5,92.5C 58.1338,96.9728 57.9671,101.639 60,106.5C 60.7083,107.381 61.5416,108.047 62.5,108.5C 62.5,110.5 62.5,112.5 62.5,114.5C 61.7321,113.737 61.2321,112.737 61,111.5C 60.8019,113.382 60.3019,115.048 59.5,116.5C 59.6621,114.473 59.4955,112.473 59,110.5C 57.6152,109.449 56.6152,108.116 56,106.5C 53.9712,97.438 55.9712,89.438 62,82.5C 62.498,79.5184 62.6646,76.5184 62.5,73.5C 55.3448,72.6712 48.0115,72.1712 40.5,72C 41.7375,71.7679 42.7375,71.2679 43.5,70.5 Z"/></g>
<g><path style="opacity:1" fill="#6e6d69" d="M 107.5,67.5 C 108.461,69.2646 108.795,71.2646 108.5,73.5C 100.5,73.5 92.5,73.5 84.5,73.5C 92.1667,72.8333 99.8333,72.1667 107.5,71.5C 107.5,70.1667 107.5,68.8333 107.5,67.5 Z"/></g>
<g><path style="opacity:1" fill="#7a7974" d="M 86.5,91.5 C 85.5041,91.4142 84.6708,91.7476 84,92.5C 82.9025,91.0325 81.4025,90.1992 79.5,90C 79.0183,88.9916 78.8516,87.825 79,86.5C 76.3266,87.3338 73.9933,88.6671 72,90.5C 71.1268,90.2645 70.2935,89.9312 69.5,89.5C 67.0509,92.0477 64.7176,92.0477 62.5,89.5C 62.5954,86.6424 63.7621,84.3091 66,82.5C 66.498,79.5184 66.6646,76.5184 66.5,73.5C 71.5,73.5 76.5,73.5 81.5,73.5C 81.3354,76.5184 81.502,79.5184 82,82.5C 84.0383,85.2432 85.5383,88.2432 86.5,91.5 Z"/></g>
<g><path style="opacity:1" fill="#7c7b76" d="M 86.5,91.5 C 87.4582,93.3024 88.1249,95.3024 88.5,97.5C 84.8421,96.1333 81.0088,95.1333 77,94.5C 76.2352,94.5699 75.7352,94.9033 75.5,95.5C 73.8762,95.6399 72.7096,94.9733 72,93.5C 70.1667,94.6667 68.6667,96.1667 67.5,98C 68.8333,98.3333 70.1667,98.6667 71.5,99C 67.9062,99.1357 64.4062,99.3024 61,99.5C 60.5,99.1667 60,98.8333 59.5,98.5C 61.5,97.6667 63.5,96.8333 65.5,96C 63.0268,95.7805 61.3602,94.6138 60.5,92.5C 60.9321,91.2905 61.5987,90.2905 62.5,89.5C 64.7176,92.0477 67.0509,92.0477 69.5,89.5C 70.2935,89.9312 71.1268,90.2645 72,90.5C 73.9933,88.6671 76.3266,87.3338 79,86.5C 78.8516,87.825 79.0183,88.9916 79.5,90C 81.4025,90.1992 82.9025,91.0325 84,92.5C 84.6708,91.7476 85.5041,91.4142 86.5,91.5 Z"/></g>
<g><path style="opacity:1" fill="#7b7a74" d="M 60.5,92.5 C 61.3602,94.6138 63.0268,95.7805 65.5,96C 63.5,96.8333 61.5,97.6667 59.5,98.5C 60,98.8333 60.5,99.1667 61,99.5C 64.4062,99.3024 67.9062,99.1357 71.5,99C 70.1667,98.6667 68.8333,98.3333 67.5,98C 68.6667,96.1667 70.1667,94.6667 72,93.5C 72.7096,94.9733 73.8762,95.6399 75.5,95.5C 76.842,96.793 78.5087,97.6264 80.5,98C 79.552,98.4828 78.552,98.6495 77.5,98.5C 77.6495,99.552 77.4828,100.552 77,101.5C 75.984,100.366 75.3173,100.699 75,102.5C 73.951,100.893 72.451,100.227 70.5,100.5C 68.5662,103.272 69.2329,105.105 72.5,106C 70.2913,107.691 68.4579,107.524 67,105.5C 65.1748,107.48 64.3415,109.813 64.5,112.5C 68.0543,112.15 71.3876,112.816 74.5,114.5C 75.7112,113.726 75.7112,112.893 74.5,112C 76.2029,111.255 77.8695,110.421 79.5,109.5C 82.0243,110.866 83.6909,110.033 84.5,107C 81.3004,106.899 78.3004,106.232 75.5,105C 79.8173,104.563 83.8173,104.73 87.5,105.5C 86.044,107.284 85.044,109.284 84.5,111.5C 84.5,113.167 84.5,114.833 84.5,116.5C 77.5,116.5 70.5,116.5 63.5,116.5C 63.8064,113.615 63.4731,110.948 62.5,108.5C 61.5416,108.047 60.7083,107.381 60,106.5C 57.9671,101.639 58.1338,96.9728 60.5,92.5 Z"/></g>
<g><path style="opacity:1" fill="#7d7c77" d="M 88.5,97.5 C 88.7214,100.279 88.388,102.946 87.5,105.5C 83.8173,104.73 79.8173,104.563 75.5,105C 78.3004,106.232 81.3004,106.899 84.5,107C 83.6909,110.033 82.0243,110.866 79.5,109.5C 77.8695,110.421 76.2029,111.255 74.5,112C 75.7112,112.893 75.7112,113.726 74.5,114.5C 71.3876,112.816 68.0543,112.15 64.5,112.5C 64.3415,109.813 65.1748,107.48 67,105.5C 68.4579,107.524 70.2913,107.691 72.5,106C 69.2329,105.105 68.5662,103.272 70.5,100.5C 72.451,100.227 73.951,100.893 75,102.5C 75.3173,100.699 75.984,100.366 77,101.5C 77.4828,100.552 77.6495,99.552 77.5,98.5C 78.552,98.6495 79.552,98.4828 80.5,98C 78.5087,97.6264 76.842,96.793 75.5,95.5C 75.7352,94.9033 76.2352,94.5699 77,94.5C 81.0088,95.1333 84.8421,96.1333 88.5,97.5 Z"/></g>
<g><path style="opacity:0.986" fill="#cccac1" d="M 84.5,73.5 C 92.5,73.5 100.5,73.5 108.5,73.5C 110.196,73.6854 111.529,74.5187 112.5,76C 111.667,76.1667 110.833,76.3333 110,76.5C 107.046,76.4056 106.879,75.9056 109.5,75C 107.5,74.3333 105.5,74.3333 103.5,75C 105.595,75.5556 105.762,76.0556 104,76.5C 98.2256,73.833 92.7256,73.9997 87.5,77C 88.7441,77.4561 89.5774,76.9561 90,75.5C 90.8611,76.7476 91.3611,78.0809 91.5,79.5C 98.7637,89.1534 100.764,99.8201 97.5,111.5C 102.454,112.473 107.121,114.306 111.5,117C 113.141,118.129 114.141,119.629 114.5,121.5C 113.25,121.423 112.417,120.756 112,119.5C 110.591,120.781 109.091,121.781 107.5,122.5C 101.45,118.654 94.7836,116.988 87.5,117.5C 87.5,116.5 87.5,115.5 87.5,114.5C 87.0923,111.401 88.259,109.067 91,107.5C 93.567,97.8494 91.567,89.1828 85,81.5C 84.5026,78.854 84.3359,76.1873 84.5,73.5 Z"/></g>
<g><path style="opacity:1" fill="#3e3e3c" d="M 62.5,114.5 C 62.5,115.5 62.5,116.5 62.5,117.5C 70.0191,117.825 77.3524,117.492 84.5,116.5C 84.5,114.833 84.5,113.167 84.5,111.5C 85.8999,112.1 86.8999,113.1 87.5,114.5C 87.5,115.5 87.5,116.5 87.5,117.5C 94.7836,116.988 101.45,118.654 107.5,122.5C 109.326,124.147 110.66,126.147 111.5,128.5C 110.833,128.833 110.167,129.167 109.5,129.5C 106.305,126.148 102.638,123.315 98.5,121C 89.8397,120.5 81.1731,120.334 72.5,120.5C 72.1667,120.5 71.8333,120.5 71.5,120.5C 64.1591,120.334 56.8258,120.5 49.5,121C 44.0196,122.991 40.0196,126.491 37.5,131.5C 37.0679,130.29 36.4013,129.29 35.5,128.5C 36.5678,125.925 38.2345,123.758 40.5,122C 46.4414,118.488 52.7747,116.655 59.5,116.5C 60.3019,115.048 60.8019,113.382 61,111.5C 61.2321,112.737 61.7321,113.737 62.5,114.5 Z"/></g>
<g><path style="opacity:1" fill="#61605d" d="M 62.5,108.5 C 63.4731,110.948 63.8064,113.615 63.5,116.5C 70.5,116.5 77.5,116.5 84.5,116.5C 77.3524,117.492 70.0191,117.825 62.5,117.5C 62.5,116.5 62.5,115.5 62.5,114.5C 62.5,112.5 62.5,110.5 62.5,108.5 Z"/></g>
<g><path style="opacity:1" fill="#7b7a75" d="M 72.5,120.5 C 81.1731,120.334 89.8397,120.5 98.5,121C 102.638,123.315 106.305,126.148 109.5,129.5C 109.5,130.167 109.5,130.833 109.5,131.5C 97.6783,132.495 85.6783,132.828 73.5,132.5C 74.8502,131.35 74.6836,130.683 73,130.5C 70.3782,130.689 67.8782,130.689 65.5,130.5C 67.6077,129.645 69.7744,128.978 72,128.5C 73.8916,128.777 75.2249,129.777 76,131.5C 76.3333,130.833 76.6667,130.167 77,129.5C 79.095,131.05 81.2617,131.383 83.5,130.5C 82.8333,129.833 82.1667,129.167 81.5,128.5C 82.8114,127.742 83.3114,126.742 83,125.5C 80.905,127.05 78.7383,127.383 76.5,126.5C 76.968,124.866 77.968,123.7 79.5,123C 81.8333,122.667 84.1667,122.333 86.5,122C 81.6486,121.826 76.9819,121.326 72.5,120.5 Z"/></g>
<g><path style="opacity:1" fill="#7a7974" d="M 71.5,120.5 C 65.0126,121.328 58.346,121.828 51.5,122C 53.01,122.85 54.51,123.683 56,124.5C 58.4028,122.017 60.7362,122.017 63,124.5C 66.443,124.549 69.943,124.382 73.5,124C 69.0573,127.143 64.0573,128.477 58.5,128C 60.8038,125.515 60.1372,125.015 56.5,126.5C 55.6195,127.971 54.2861,128.804 52.5,129C 54.4368,130.462 56.4368,131.628 58.5,132.5C 51.5,132.5 44.5,132.5 37.5,132.5C 37.5,132.167 37.5,131.833 37.5,131.5C 40.0196,126.491 44.0196,122.991 49.5,121C 56.8258,120.5 64.1591,120.334 71.5,120.5 Z"/></g>
<g><path style="opacity:1" fill="#7d7c77" d="M 71.5,120.5 C 71.8333,120.5 72.1667,120.5 72.5,120.5C 76.9819,121.326 81.6486,121.826 86.5,122C 84.1667,122.333 81.8333,122.667 79.5,123C 77.968,123.7 76.968,124.866 76.5,126.5C 78.7383,127.383 80.905,127.05 83,125.5C 83.3114,126.742 82.8114,127.742 81.5,128.5C 82.1667,129.167 82.8333,129.833 83.5,130.5C 81.2617,131.383 79.095,131.05 77,129.5C 76.6667,130.167 76.3333,130.833 76,131.5C 75.2249,129.777 73.8916,128.777 72,128.5C 69.7744,128.978 67.6077,129.645 65.5,130.5C 67.8782,130.689 70.3782,130.689 73,130.5C 74.6836,130.683 74.8502,131.35 73.5,132.5C 68.5,132.5 63.5,132.5 58.5,132.5C 56.4368,131.628 54.4368,130.462 52.5,129C 54.2861,128.804 55.6195,127.971 56.5,126.5C 60.1372,125.015 60.8038,125.515 58.5,128C 64.0573,128.477 69.0573,127.143 73.5,124C 69.943,124.382 66.443,124.549 63,124.5C 60.7362,122.017 58.4028,122.017 56,124.5C 54.51,123.683 53.01,122.85 51.5,122C 58.346,121.828 65.0126,121.328 71.5,120.5 Z"/></g>
<g><path style="opacity:1" fill="#40403e" d="M 35.5,128.5 C 36.4013,129.29 37.0679,130.29 37.5,131.5C 37.5,131.833 37.5,132.167 37.5,132.5C 61.67,133.829 86.0033,133.829 110.5,132.5C 110.376,131.893 110.043,131.56 109.5,131.5C 109.5,130.833 109.5,130.167 109.5,129.5C 110.167,129.167 110.833,128.833 111.5,128.5C 111.833,128.5 112.167,128.5 112.5,128.5C 113.092,131.127 113.425,133.794 113.5,136.5C 87.1667,136.5 60.8333,136.5 34.5,136.5C 34.2786,133.721 34.612,131.054 35.5,128.5 Z"/></g>
<g><path style="opacity:1" fill="#5d5c59" d="M 109.5,131.5 C 110.043,131.56 110.376,131.893 110.5,132.5C 86.0033,133.829 61.67,133.829 37.5,132.5C 44.5,132.5 51.5,132.5 58.5,132.5C 63.5,132.5 68.5,132.5 73.5,132.5C 85.6783,132.828 97.6783,132.495 109.5,131.5 Z"/></g>
<g><path style="opacity:1" fill="#c1bfb7" d="M 112.5,128.5 C 115.205,128.38 115.872,129.38 114.5,131.5C 115.025,132.192 115.692,132.692 116.5,133C 113.833,134 113.833,135 116.5,136C 115.833,136.333 115.167,136.667 114.5,137C 105.84,137.5 97.1731,137.666 88.5,137.5C 87.5,137.5 86.5,137.5 85.5,137.5C 68.5,137.5 51.5,137.5 34.5,137.5C 34.5,137.167 34.5,136.833 34.5,136.5C 60.8333,136.5 87.1667,136.5 113.5,136.5C 113.425,133.794 113.092,131.127 112.5,128.5 Z"/></g>
<g><path style="opacity:0.871" fill="#d0cec5" d="M 114.5,121.5 C 116.562,123.41 118.062,125.743 119,128.5C 120.225,133.085 120.725,137.752 120.5,142.5C 113.833,142.5 107.167,142.5 100.5,142.5C 100.631,141.624 100.298,140.957 99.5,140.5C 96.227,141.585 92.8936,141.752 89.5,141C 92.1667,140.667 94.8333,140.333 97.5,140C 94.4213,139.027 91.4213,138.194 88.5,137.5C 97.1731,137.666 105.84,137.5 114.5,137C 115.167,136.667 115.833,136.333 116.5,136C 113.833,135 113.833,134 116.5,133C 115.692,132.692 115.025,132.192 114.5,131.5C 115.872,129.38 115.205,128.38 112.5,128.5C 112.167,128.5 111.833,128.5 111.5,128.5C 110.66,126.147 109.326,124.147 107.5,122.5C 109.091,121.781 110.591,120.781 112,119.5C 112.417,120.756 113.25,121.423 114.5,121.5 Z"/></g>
<g><path style="opacity:0.806" fill="#cfcdc4" d="M 39.5,115.5 C 40.5735,116.251 40.7401,117.251 40,118.5C 38.9916,118.982 37.825,119.148 36.5,119C 35.2889,120.113 35.2889,121.28 36.5,122.5C 35.0095,123.244 33.5095,123.91 32,124.5C 29.3811,129.345 30.2144,133.345 34.5,136.5C 34.5,136.833 34.5,137.167 34.5,137.5C 37.574,141.085 41.574,142.251 46.5,141C 41.8294,139.741 41.6627,138.907 46,138.5C 47.1667,138.667 48.3333,138.833 49.5,139C 46.9244,140.383 47.2577,141.217 50.5,141.5C 55.6222,141.447 60.7888,141.447 66,141.5C 68.6379,138.819 71.4712,138.319 74.5,140C 72.8333,140.333 71.1667,140.667 69.5,141C 74.8333,141.667 80.1667,141.667 85.5,141C 84.1667,140.667 82.8333,140.333 81.5,140C 83.0664,139.392 84.3998,138.558 85.5,137.5C 86.5,137.5 87.5,137.5 88.5,137.5C 91.4213,138.194 94.4213,139.027 97.5,140C 94.8333,140.333 92.1667,140.667 89.5,141C 92.8936,141.752 96.227,141.585 99.5,140.5C 100.298,140.957 100.631,141.624 100.5,142.5C 76.1667,142.5 51.8333,142.5 27.5,142.5C 25.37,130.586 29.37,121.586 39.5,115.5 Z"/></g>
<g><path style="opacity:1" fill="#d1d0c7" d="M 34.5,137.5 C 51.5,137.5 68.5,137.5 85.5,137.5C 84.3998,138.558 83.0664,139.392 81.5,140C 82.8333,140.333 84.1667,140.667 85.5,141C 80.1667,141.667 74.8333,141.667 69.5,141C 71.1667,140.667 72.8333,140.333 74.5,140C 71.4712,138.319 68.6379,138.819 66,141.5C 60.7888,141.447 55.6222,141.447 50.5,141.5C 47.2577,141.217 46.9244,140.383 49.5,139C 48.3333,138.833 47.1667,138.667 46,138.5C 41.6627,138.907 41.8294,139.741 46.5,141C 41.574,142.251 37.574,141.085 34.5,137.5 Z"/></g>
</svg>
