<?xml version="1.0" encoding="UTF-8"?>
<!DOCTYPE svg PUBLIC "-//W3C//DTD SVG 1.1//EN" "http://www.w3.org/Graphics/SVG/1.1/DTD/svg11.dtd">
<svg xmlns="http://www.w3.org/2000/svg" version="1.1" width="150px" height="150px" style="shape-rendering:geometricPrecision; text-rendering:geometricPrecision; image-rendering:optimizeQuality; fill-rule:evenodd; clip-rule:evenodd" xmlns:xlink="http://www.w3.org/1999/xlink">
<g><path style="opacity:1" fill="#ceccc3" d="M 113.5,53.5 C 114.93,53.4208 116.264,53.7542 117.5,54.5C 118.169,56.6309 118.835,58.6309 119.5,60.5C 114.758,64.8891 109.424,68.5558 103.5,71.5C 100.366,60.6961 98.5327,49.6961 98,38.5C 103.091,35.5916 104.757,31.2582 103,25.5C 97.524,18.4081 91.3573,17.7414 84.5,23.5C 82.8008,23.3398 81.1341,23.5065 79.5,24C 80.448,24.4828 81.448,24.6495 82.5,24.5C 82.7428,27.8826 82.0761,31.0492 80.5,34C 80.152,36.0545 80.8186,38.0545 82.5,40C 81.5509,40.6172 80.7175,40.4506 80,39.5C 79.7811,40.938 79.2811,42.2713 78.5,43.5C 78.0941,42.4425 78.0941,41.1092 78.5,39.5C 73.4945,27.3338 76.8278,18.5005 88.5,13C 103.364,11.8642 110.198,18.6975 109,33.5C 108.184,37.1349 106.35,40.1349 103.5,42.5C 105.096,48.741 106.263,55.0744 107,61.5C 110.832,60.1617 112.999,57.495 113.5,53.5 Z"/></g>
<g><path style="opacity:1" fill="#cdcbc2" d="M 78.5,39.5 C 78.0941,41.1092 78.0941,42.4425 78.5,43.5C 79.2811,42.2713 79.7811,40.938 80,39.5C 80.7175,40.4506 81.5509,40.6172 82.5,40C 80.8186,38.0545 80.152,36.0545 80.5,34C 82.0761,31.0492 82.7428,27.8826 82.5,24.5C 81.448,24.6495 80.448,24.4828 79.5,24C 81.1341,23.5065 82.8008,23.3398 84.5,23.5C 82.7536,28.6983 83.4202,33.5316 86.5,38C 81.944,45.6112 77.7773,53.4446 74,61.5C 69.1945,53.8534 65.0279,45.8534 61.5,37.5C 66.8631,28.5851 64.6964,22.5851 55,19.5C 45.7286,20.4502 42.3952,25.4502 45,34.5C 47.2504,36.4085 49.0837,38.5752 50.5,41C 48.6213,51.5359 46.6213,62.0359 44.5,72.5C 39.5,69.1667 34.5,65.8333 29.5,62.5C 29.6079,52.7672 24.9413,48.6006 15.5,50C 8.94856,55.3176 8.94856,60.6509 15.5,66C 17.1341,66.4935 18.8008,66.6602 20.5,66.5C 22.3459,73.1902 25.0125,79.5235 28.5,85.5C 29.3088,90.0938 30.8088,94.4271 33,98.5C 34.4268,108.154 35.7601,117.821 37,127.5C 41.3613,131.929 46.5279,134.596 52.5,135.5C 50.6208,136.341 48.6208,136.675 46.5,136.5C 46.4326,137.959 46.7659,139.292 47.5,140.5C 40.4785,139.577 34.9785,136.244 31,130.5C 29.0896,120.221 27.4229,109.887 26,99.5C 22.7766,90.7202 19.2766,82.0535 15.5,73.5C 0.582276,64.0704 -0.0843905,53.9037 13.5,43C 26.2035,40.5361 33.5368,45.7027 35.5,58.5C 36.914,59.624 38.414,60.624 40,61.5C 41.0859,55.1411 42.2526,48.8077 43.5,42.5C 36.6245,35.1212 35.7912,27.1212 41,18.5C 49.6667,10.5 58.3333,10.5 67,18.5C 70.9699,24.7045 71.4699,31.2045 68.5,38C 70.2002,41.2324 72.0335,44.399 74,47.5C 74.8596,44.3672 76.3596,41.7005 78.5,39.5 Z"/></g>
<g><path style="opacity:1" fill="#424240" d="M 84.5,23.5 C 91.3573,17.7414 97.524,18.4081 103,25.5C 104.757,31.2582 103.091,35.5916 98,38.5C 98.5327,49.6961 100.366,60.6961 103.5,71.5C 109.424,68.5558 114.758,64.8891 119.5,60.5C 119.156,51.3507 123.49,47.8507 132.5,50C 136.327,53.3077 137.494,57.4744 136,62.5C 133.705,65.0648 130.872,66.7314 127.5,67.5C 126.198,71.1128 124.531,74.4461 122.5,77.5C 121.833,77.1667 121.167,76.8333 120.5,76.5C 121.295,72.2615 122.628,68.2615 124.5,64.5C 116.089,67.6259 108.255,71.9592 101,77.5C 99.7543,74.6392 98.7543,71.6392 98,68.5C 97.0358,59.0492 95.5358,49.7158 93.5,40.5C 92.8333,40.1667 92.1667,39.8333 91.5,39.5C 89.3717,40.0541 87.8717,41.3874 87,43.5C 82.915,52.0048 78.5816,60.3381 74,68.5C 68.4911,59.4847 63.4911,50.1513 59,40.5C 57.3005,39.5939 55.4672,39.2606 53.5,39.5C 51.9942,51.5401 50.1608,63.5401 48,75.5C 47.6924,76.3081 47.1924,76.9747 46.5,77.5C 40.0313,73.5298 33.698,69.3632 27.5,65C 26.0563,64.2195 24.723,64.3861 23.5,65.5C 26.1255,71.7462 28.4588,78.0796 30.5,84.5C 29.8333,84.8333 29.1667,85.1667 28.5,85.5C 25.0125,79.5235 22.3459,73.1902 20.5,66.5C 18.8008,66.6602 17.1341,66.4935 15.5,66C 8.94856,60.6509 8.94856,55.3176 15.5,50C 24.9413,48.6006 29.6079,52.7672 29.5,62.5C 34.5,65.8333 39.5,69.1667 44.5,72.5C 46.6213,62.0359 48.6213,51.5359 50.5,41C 49.0837,38.5752 47.2504,36.4085 45,34.5C 42.3952,25.4502 45.7286,20.4502 55,19.5C 64.6964,22.5851 66.8631,28.5851 61.5,37.5C 65.0279,45.8534 69.1945,53.8534 74,61.5C 77.7773,53.4446 81.944,45.6112 86.5,38C 83.4202,33.5316 82.7536,28.6983 84.5,23.5 Z"/></g>
<g><path style="opacity:1" fill="#797873" d="M 52.5,22.5 C 59.1424,22.64 61.9758,25.9734 61,32.5C 57.7428,35.4285 53.9094,36.2618 49.5,35C 46.184,29.7027 47.184,25.536 52.5,22.5 Z"/></g>
<g><path style="opacity:1" fill="#787872" d="M 91.5,22.5 C 98.1424,22.64 100.976,25.9734 100,32.5C 95.6445,37.4911 91.3111,37.4911 87,32.5C 85.5713,27.7833 87.0713,24.45 91.5,22.5 Z"/></g>
<g><path style="opacity:1" fill="#777671" d="M 16.5,52.5 C 23.0001,51.4987 25.5001,54.1653 24,60.5C 19.3006,64.8237 15.8006,63.9903 13.5,58C 14.1242,55.9149 15.1242,54.0816 16.5,52.5 Z"/></g>
<g><path style="opacity:1" fill="#7b7a75" d="M 120.5,76.5 C 117.697,82.8992 114.697,89.2325 111.5,95.5C 88.0001,85.5768 64.3334,84.9101 40.5,93.5C 38.6096,93.2965 37.1096,93.9632 36,95.5C 34.1363,91.7726 32.3029,88.1059 30.5,84.5C 28.4588,78.0796 26.1255,71.7462 23.5,65.5C 24.723,64.3861 26.0563,64.2195 27.5,65C 33.698,69.3632 40.0313,73.5298 46.5,77.5C 47.1924,76.9747 47.6924,76.3081 48,75.5C 50.1608,63.5401 51.9942,51.5401 53.5,39.5C 55.4672,39.2606 57.3005,39.5939 59,40.5C 63.4911,50.1513 68.4911,59.4847 74,68.5C 78.5816,60.3381 82.915,52.0048 87,43.5C 87.8717,41.3874 89.3717,40.0541 91.5,39.5C 92.1667,39.8333 92.8333,40.1667 93.5,40.5C 95.5358,49.7158 97.0358,59.0492 98,68.5C 98.7543,71.6392 99.7543,74.6392 101,77.5C 108.255,71.9592 116.089,67.6259 124.5,64.5C 122.628,68.2615 121.295,72.2615 120.5,76.5 Z"/></g>
<g><path style="opacity:1" fill="#787772" d="M 125.5,52.5 C 132.37,52.0325 134.703,55.0325 132.5,61.5C 122.702,63.7254 120.368,60.7254 125.5,52.5 Z"/></g>
<g><path style="opacity:0.926" fill="#cccbc2" d="M 118.5,113.5 C 118.657,112.127 118.49,110.793 118,109.5C 117.5,110.667 116.667,111.5 115.5,112C 116.706,116.364 116.206,116.531 114,112.5C 113.257,114.441 113.424,116.274 114.5,118C 113.008,119.991 112.008,122.158 111.5,124.5C 112.409,115.484 113.576,106.484 115,97.5C 117.834,90.8773 120.334,84.2106 122.5,77.5C 124.531,74.4461 126.198,71.1128 127.5,67.5C 130.872,66.7314 133.705,65.0648 136,62.5C 137.494,57.4744 136.327,53.3077 132.5,50C 123.49,47.8507 119.156,51.3507 119.5,60.5C 118.835,58.6309 118.169,56.6309 117.5,54.5C 116.264,53.7542 114.93,53.4208 113.5,53.5C 116.823,44.0021 123.489,40.5021 133.5,43C 143.387,49.0448 145.554,57.2115 140,67.5C 137.636,69.3628 135.136,71.0295 132.5,72.5C 125.788,85.6398 121.121,99.3065 118.5,113.5 Z"/></g>
<g><path style="opacity:1" fill="#424241" d="M 120.5,76.5 C 121.167,76.8333 121.833,77.1667 122.5,77.5C 120.334,84.2106 117.834,90.8773 115,97.5C 113.576,106.484 112.409,115.484 111.5,124.5C 109.747,130.241 105.747,133.408 99.5,134C 85.4201,136.537 71.4201,137.037 57.5,135.5C 66.8393,135.666 76.1726,135.5 85.5,135C 77.6876,134.123 70.0209,133.289 62.5,132.5C 75.2805,133.092 87.9471,132.258 100.5,130C 103,129.115 105.333,127.948 107.5,126.5C 106.133,125.16 104.8,123.827 103.5,122.5C 103.5,121.833 103.5,121.167 103.5,120.5C 104.93,120.421 106.264,120.754 107.5,121.5C 108.273,119.187 108.94,116.854 109.5,114.5C 107.269,114.113 104.936,113.947 102.5,114C 99.5,111 96.5,108 93.5,105C 97.395,103.991 101.228,102.825 105,101.5C 110.012,107.007 111.846,106.007 110.5,98.5C 98.0817,93.4846 85.0817,91.1512 71.5,91.5C 67.1667,91.6667 62.8333,91.8333 58.5,92C 53.1282,93.0703 47.7949,94.2369 42.5,95.5C 41.8333,94.8333 41.1667,94.1667 40.5,93.5C 64.3334,84.9101 88.0001,85.5768 111.5,95.5C 114.697,89.2325 117.697,82.8992 120.5,76.5 Z"/></g>
<g><path style="opacity:1" fill="#7a7974" d="M 103.5,120.5 C 100.281,118.282 96.614,117.115 92.5,117C 80.1667,116.333 67.8333,116.333 55.5,117C 50.0122,117.496 44.8455,118.996 40,121.5C 38.9207,118.937 38.4207,116.271 38.5,113.5C 40.8954,114.363 43.2287,114.363 45.5,113.5C 48.5,111.167 51.1667,108.5 53.5,105.5C 50.0247,104.114 46.5247,102.781 43,101.5C 41.3745,102.289 39.8745,103.289 38.5,104.5C 35.1548,99.5512 36.4881,96.5512 42.5,95.5C 47.7949,94.2369 53.1282,93.0703 58.5,92C 62.8333,91.8333 67.1667,91.6667 71.5,91.5C 85.0817,91.1512 98.0817,93.4846 110.5,98.5C 111.846,106.007 110.012,107.007 105,101.5C 101.228,102.825 97.395,103.991 93.5,105C 96.5,108 99.5,111 102.5,114C 104.936,113.947 107.269,114.113 109.5,114.5C 108.94,116.854 108.273,119.187 107.5,121.5C 106.264,120.754 104.93,120.421 103.5,120.5 Z"/></g>
<g><path style="opacity:1" fill="#403f3e" d="M 69.5,97.5 C 74.7654,96.5706 79.2654,97.9039 83,101.5C 84.1655,105.684 82.6655,108.517 78.5,110C 72.9245,111.472 68.0911,110.305 64,106.5C 63.3333,104.833 63.3333,103.167 64,101.5C 65.8121,100.023 67.6455,98.6896 69.5,97.5 Z"/></g>
<g><path style="opacity:1" fill="#7b7a75" d="M 69.5,101.5 C 72.1873,101.336 74.854,101.503 77.5,102C 79.5922,102.953 79.9255,104.286 78.5,106C 74.3905,107.143 70.7238,106.477 67.5,104C 68.3805,103.292 69.0472,102.458 69.5,101.5 Z"/></g>
<g><path style="opacity:1" fill="#777671" d="M 101.5,105.5 C 104.792,105.12 107.125,106.453 108.5,109.5C 105.119,111.12 102.453,110.287 100.5,107C 101.056,106.617 101.389,106.117 101.5,105.5 Z"/></g>
<g><path style="opacity:1" fill="#3f3f3e" d="M 30.5,84.5 C 32.3029,88.1059 34.1363,91.7726 36,95.5C 37.1096,93.9632 38.6096,93.2965 40.5,93.5C 41.1667,94.1667 41.8333,94.8333 42.5,95.5C 36.4881,96.5512 35.1548,99.5512 38.5,104.5C 39.8745,103.289 41.3745,102.289 43,101.5C 46.5247,102.781 50.0247,104.114 53.5,105.5C 51.1667,108.5 48.5,111.167 45.5,113.5C 43.2287,114.363 40.8954,114.363 38.5,113.5C 38.4207,116.271 38.9207,118.937 40,121.5C 44.8455,118.996 50.0122,117.496 55.5,117C 67.8333,116.333 80.1667,116.333 92.5,117C 96.614,117.115 100.281,118.282 103.5,120.5C 103.5,121.167 103.5,121.833 103.5,122.5C 84.5413,118.775 65.5413,118.609 46.5,122C 44.4127,122.792 42.5793,123.959 41,125.5C 40.3828,126.449 40.5494,127.282 41.5,128C 48.2101,130.928 55.2101,132.428 62.5,132.5C 70.0209,133.289 77.6876,134.123 85.5,135C 76.1726,135.5 66.8393,135.666 57.5,135.5C 55.8333,135.5 54.1667,135.5 52.5,135.5C 46.5279,134.596 41.3613,131.929 37,127.5C 35.7601,117.821 34.4268,108.154 33,98.5C 30.8088,94.4271 29.3088,90.0938 28.5,85.5C 29.1667,85.1667 29.8333,84.8333 30.5,84.5 Z"/></g>
<g><path style="opacity:1" fill="#767570" d="M 42.5,105.5 C 44.3084,105.491 45.9751,105.991 47.5,107C 45.9825,108.685 44.3159,110.185 42.5,111.5C 41.069,111.023 39.7357,110.357 38.5,109.5C 40.188,108.479 41.5213,107.145 42.5,105.5 Z"/></g>
<g><path style="opacity:1" fill="#7c7b76" d="M 103.5,122.5 C 104.8,123.827 106.133,125.16 107.5,126.5C 105.333,127.948 103,129.115 100.5,130C 87.9471,132.258 75.2805,133.092 62.5,132.5C 55.2101,132.428 48.2101,130.928 41.5,128C 40.5494,127.282 40.3828,126.449 41,125.5C 42.5793,123.959 44.4127,122.792 46.5,122C 65.5413,118.609 84.5413,118.775 103.5,122.5 Z"/></g>
<g><path style="opacity:0.325" fill="#cfcdc4" d="M 118.5,113.5 C 118.491,120.067 117.325,126.4 115,132.5C 108.118,138.797 99.9518,141.964 90.5,142C 76.0789,142.988 61.7456,142.488 47.5,140.5C 46.7659,139.292 46.4326,137.959 46.5,136.5C 48.6208,136.675 50.6208,136.341 52.5,135.5C 54.1667,135.5 55.8333,135.5 57.5,135.5C 71.4201,137.037 85.4201,136.537 99.5,134C 105.747,133.408 109.747,130.241 111.5,124.5C 112.008,122.158 113.008,119.991 114.5,118C 113.424,116.274 113.257,114.441 114,112.5C 116.206,116.531 116.706,116.364 115.5,112C 116.667,111.5 117.5,110.667 118,109.5C 118.49,110.793 118.657,112.127 118.5,113.5 Z"/></g>
</svg>
