<?xml version="1.0" encoding="UTF-8"?>
<!DOCTYPE svg PUBLIC "-//W3C//DTD SVG 1.1//EN" "http://www.w3.org/Graphics/SVG/1.1/DTD/svg11.dtd">
<svg xmlns="http://www.w3.org/2000/svg" version="1.1" width="150px" height="150px" style="shape-rendering:geometricPrecision; text-rendering:geometricPrecision; image-rendering:optimizeQuality; fill-rule:evenodd; clip-rule:evenodd" xmlns:xlink="http://www.w3.org/1999/xlink">
<g><path style="opacity:0.976" fill="#cdccc3" d="M 90.5,21.5 C 89.9935,22.8589 88.9935,23.8589 87.5,24.5C 87.9377,25.5063 88.6043,25.5063 89.5,24.5C 90.4519,26.0453 90.7852,27.712 90.5,29.5C 89.448,29.3505 88.448,29.5172 87.5,30C 89.0762,30.4396 90.4096,31.273 91.5,32.5C 93.444,31.8108 95.444,31.3108 97.5,31C 93.7868,30.7699 93.1201,29.6032 95.5,27.5C 92.223,26.5207 91.8897,25.1873 94.5,23.5C 95.2807,24.7366 96.2807,25.7366 97.5,26.5C 100.645,26.9061 103.645,26.4061 106.5,25C 105.833,25.6667 105.167,26.3333 104.5,27C 102.292,27.1909 100.292,27.6909 98.5,28.5C 98.5,31.8333 98.5,35.1667 98.5,38.5C 94.1667,38.5 89.8333,38.5 85.5,38.5C 85.5,35.1667 85.5,31.8333 85.5,28.5C 77.8333,28.5 70.1667,28.5 62.5,28.5C 62.5,31.8333 62.5,35.1667 62.5,38.5C 58.1667,38.5 53.8333,38.5 49.5,38.5C 49.5,35.1667 49.5,31.8333 49.5,28.5C 43.8333,28.5 38.1667,28.5 32.5,28.5C 32.3336,36.5069 32.5003,44.5069 33,52.5C 36.6317,55.1298 39.965,58.1298 43,61.5C 43.8327,75.1788 43.6661,88.8455 42.5,102.5C 38.2917,105.196 35.4583,108.863 34,113.5C 31.5997,115.729 29.433,118.063 27.5,120.5C 26.5119,125.64 26.1786,130.974 26.5,136.5C 56.1667,136.5 85.8333,136.5 115.5,136.5C 117.607,137.468 119.941,137.802 122.5,137.5C 122.5,138.5 122.5,139.5 122.5,140.5C 124.179,140.285 125.179,140.952 125.5,142.5C 90.5,142.5 55.5,142.5 20.5,142.5C 20.3336,134.16 20.5003,125.827 21,117.5C 25.0326,114.823 27.3659,111.156 28,106.5C 31.0044,104.661 33.5044,102.327 35.5,99.5C 36.6659,87.5139 36.8326,75.5139 36,63.5C 32.8554,60.2659 29.5221,57.2659 26,54.5C 25.5002,43.505 25.3335,32.505 25.5,21.5C 35.5,21.5 45.5,21.5 55.5,21.5C 55.8333,36.1667 56.1667,36.1667 56.5,21.5C 67.8333,21.5 79.1667,21.5 90.5,21.5 Z"/></g>
<g><path style="opacity:1" fill="#3f3f3e" d="M 62.5,38.5 C 63.4767,35.7131 63.81,32.7131 63.5,29.5C 70.5,29.5 77.5,29.5 84.5,29.5C 84.19,32.7131 84.5233,35.7131 85.5,38.5C 89.8333,38.5 94.1667,38.5 98.5,38.5C 98.5,35.1667 98.5,31.8333 98.5,28.5C 104.167,28.5 109.833,28.5 115.5,28.5C 115.666,36.1739 115.5,43.8406 115,51.5C 111.667,54.8333 108.333,58.1667 105,61.5C 104.167,75.1788 104.334,88.8455 105.5,102.5C 110.076,105.397 113.076,109.397 114.5,114.5C 116.149,116.65 117.982,118.65 120,120.5C 120.499,125.489 120.666,130.489 120.5,135.5C 89.5,135.5 58.5,135.5 27.5,135.5C 27.5,130.5 27.5,125.5 27.5,120.5C 29.433,118.063 31.5997,115.729 34,113.5C 35.4583,108.863 38.2917,105.196 42.5,102.5C 43.6661,88.8455 43.8327,75.1788 43,61.5C 39.965,58.1298 36.6317,55.1298 33,52.5C 32.5003,44.5069 32.3336,36.5069 32.5,28.5C 38.1667,28.5 43.8333,28.5 49.5,28.5C 49.5,31.8333 49.5,35.1667 49.5,38.5C 53.8333,38.5 58.1667,38.5 62.5,38.5 Z"/></g>
<g><path style="opacity:1" fill="#5c5c58" d="M 85.5,38.5 C 84.5233,35.7131 84.19,32.7131 84.5,29.5C 77.5,29.5 70.5,29.5 63.5,29.5C 63.81,32.7131 63.4767,35.7131 62.5,38.5C 62.5,35.1667 62.5,31.8333 62.5,28.5C 70.1667,28.5 77.8333,28.5 85.5,28.5C 85.5,31.8333 85.5,35.1667 85.5,38.5 Z"/></g>
<g><path style="opacity:1" fill="#5a5a57" d="M 111.5,50.5 C 111.5,44.5 111.5,38.5 111.5,32.5C 108.5,32.5 105.5,32.5 102.5,32.5C 102.813,36.0419 102.479,39.3752 101.5,42.5C 101.5,38.8333 101.5,35.1667 101.5,31.5C 105.167,31.5 108.833,31.5 112.5,31.5C 112.823,38.0221 112.49,44.3554 111.5,50.5 Z"/></g>
<g><path style="opacity:1" fill="#7b7a75" d="M 101.5,42.5 C 102.479,39.3752 102.813,36.0419 102.5,32.5C 105.5,32.5 108.5,32.5 111.5,32.5C 111.5,38.5 111.5,44.5 111.5,50.5C 108.396,53.1009 105.396,55.9343 102.5,59C 83.5,59.6667 64.5,59.6667 45.5,59C 42.6312,55.7959 39.4646,52.9626 36,50.5C 35.5005,44.1754 35.3338,37.8421 35.5,31.5C 38.8333,31.5 42.1667,31.5 45.5,31.5C 45.5,35.1667 45.5,38.8333 45.5,42.5C 52.5,42.5 59.5,42.5 66.5,42.5C 66.5,38.8333 66.5,35.1667 66.5,31.5C 71.5,31.5 76.5,31.5 81.5,31.5C 81.5,35.1667 81.5,38.8333 81.5,42.5C 88.1667,42.5 94.8333,42.5 101.5,42.5 Z"/></g>
<g><path style="opacity:1" fill="#7a7a74" d="M 46.5,62.5 C 64.8333,62.5 83.1667,62.5 101.5,62.5C 101.5,75.1667 101.5,87.8333 101.5,100.5C 83.1667,100.5 64.8333,100.5 46.5,100.5C 46.5,87.8333 46.5,75.1667 46.5,62.5 Z"/></g>
<g><path style="opacity:1" fill="#7c7b76" d="M 47.5,63.5 C 65.1667,63.5 82.8333,63.5 100.5,63.5C 100.666,71.5069 100.5,79.5069 100,87.5C 98.5944,86.3318 97.4277,86.6652 96.5,88.5C 93.4816,87.3653 90.6483,86.6986 88,86.5C 87.0546,86.0946 86.3879,85.428 86,84.5C 83.6916,76.0175 78.1916,74.3508 69.5,79.5C 67.9324,77.7997 66.099,76.4664 64,75.5C 62.1742,77.179 60.0076,78.3456 57.5,79C 61.1112,79.767 64.1112,81.6003 66.5,84.5C 66,84.8333 65.5,85.1667 65,85.5C 63.2908,84.4304 61.7908,83.0971 60.5,81.5C 58.452,82.083 56.6187,82.083 55,81.5C 51.8384,79.2529 52.005,77.0863 55.5,75C 58.687,74.9994 61.5203,74.1661 64,72.5C 65.8083,74.3959 67.975,74.8959 70.5,74C 68.8333,72.6667 67.1667,71.3333 65.5,70C 67.9359,70.0534 70.2692,69.8867 72.5,69.5C 70.3455,68.0722 68.1788,67.7389 66,68.5C 65.3109,67.6433 64.4776,66.9767 63.5,66.5C 63.2395,68.8855 62.2395,71.2189 60.5,73.5C 59.0384,72.6126 57.205,71.6126 55,70.5C 53.984,71.6341 53.3173,71.3008 53,69.5C 52.5,70 52,70.5 51.5,71C 52.6226,72.0437 53.9559,72.7104 55.5,73C 53.5812,74.9338 52.0812,74.7671 51,72.5C 50.3109,73.3567 49.4776,74.0233 48.5,74.5C 47.5108,70.8927 47.1774,67.226 47.5,63.5 Z"/></g>
<g><path style="opacity:1" fill="#7a7974" d="M 106.5,132.5 C 104.935,130.281 102.935,129.948 100.5,131.5C 99.2888,130.726 99.2888,129.893 100.5,129C 105.436,130.961 110.602,131.795 116,131.5C 116.445,129.406 115.612,127.906 113.5,127C 114.448,126.517 115.448,126.351 116.5,126.5C 116.898,121.537 115.231,120.537 111.5,123.5C 110.707,122.645 111.04,121.811 112.5,121C 111.5,120.667 110.5,120.333 109.5,120C 109.833,119.667 110.167,119.333 110.5,119C 107.372,116.645 106.205,117.145 107,120.5C 105.084,118.194 102.584,116.861 99.5,116.5C 99.0894,117.262 98.9227,118.262 99,119.5C 97.8173,118.269 96.6507,118.269 95.5,119.5C 96.96,121.422 98.6267,122.089 100.5,121.5C 99.3349,122.584 98.0016,123.417 96.5,124C 98.8107,123.845 101.144,123.845 103.5,124C 101.3,126.593 98.6334,127.26 95.5,126C 98.0635,126.763 98.0635,127.263 95.5,127.5C 92.4842,125.916 89.4842,125.249 86.5,125.5C 86.8914,126.891 86.0581,127.891 84,128.5C 83.5172,127.552 83.3505,126.552 83.5,125.5C 82.448,125.351 81.448,125.517 80.5,126C 82.3013,127.387 82.9679,128.887 82.5,130.5C 80.1614,129.582 78.6614,127.916 78,125.5C 76.9326,126.191 75.7659,126.691 74.5,127C 75.1667,127.333 75.8333,127.667 76.5,128C 74.272,128.82 72.272,128.487 70.5,127C 72.797,125.84 72.4637,124.84 69.5,124C 72.1517,121.033 74.8183,121.2 77.5,124.5C 79.0554,124.278 80.3887,123.611 81.5,122.5C 83.1667,123.167 84.8333,123.833 86.5,124.5C 87.7003,123.469 89.0337,122.635 90.5,122C 89.0929,120.548 87.5929,120.715 86,122.5C 84.43,121.642 82.7633,120.975 81,120.5C 79.3687,118.372 77.202,117.039 74.5,116.5C 72.3471,111.757 71.6805,111.59 72.5,116C 70.3359,116.914 68.3359,118.081 66.5,119.5C 65.3801,118.167 64.0468,117.667 62.5,118C 63.7158,119.74 65.3825,120.74 67.5,121C 65.765,121.651 64.0983,121.485 62.5,120.5C 62.7036,121.529 62.2036,122.529 61,123.5C 59.3333,122.167 57.6667,120.833 56,119.5C 55.6643,121.074 54.8309,122.408 53.5,123.5C 52.3044,123.154 52.3044,122.654 53.5,122C 51.5665,121.217 50.0665,121.717 49,123.5C 46.5652,120.772 44.5652,121.106 43,124.5C 40.7066,123.113 38.5399,121.946 36.5,121C 37.4506,121.718 37.6172,122.551 37,123.5C 33.308,122.187 31.6413,123.52 32,127.5C 34.3157,127.153 36.6491,126.82 39,126.5C 41.5673,127.017 41.9006,128.017 40,129.5C 37.7471,129.054 35.2471,128.888 32.5,129C 31.3157,130.145 31.3157,131.312 32.5,132.5C 31.2132,131.129 30.5465,129.295 30.5,127C 30.6667,125.167 30.8333,123.333 31,121.5C 35.2186,115.244 40.0519,109.41 45.5,104C 64.5,103.333 83.5,103.333 102.5,104C 107.945,109.458 112.778,115.291 117,121.5C 117.499,125.152 117.665,128.818 117.5,132.5C 113.833,132.5 110.167,132.5 106.5,132.5 Z"/></g>
<g><path style="opacity:0.904" fill="#cccac1" d="M 90.5,21.5 C 101.082,21.1801 111.582,21.5134 122,22.5C 122.667,32.8333 122.667,43.1667 122,53.5C 118.167,57.3333 114.333,61.1667 110.5,65C 111.322,76.424 111.822,87.924 112,99.5C 116.955,103.104 120.288,107.771 122,113.5C 127.02,117.941 128.853,123.608 127.5,130.5C 127.491,134.893 126.824,138.893 125.5,142.5C 125.179,140.952 124.179,140.285 122.5,140.5C 122.5,139.5 122.5,138.5 122.5,137.5C 119.941,137.802 117.607,137.468 115.5,136.5C 117.415,136.784 119.081,136.451 120.5,135.5C 120.666,130.489 120.499,125.489 120,120.5C 117.982,118.65 116.149,116.65 114.5,114.5C 113.076,109.397 110.076,105.397 105.5,102.5C 104.334,88.8455 104.167,75.1788 105,61.5C 108.333,58.1667 111.667,54.8333 115,51.5C 115.5,43.8406 115.666,36.1739 115.5,28.5C 109.833,28.5 104.167,28.5 98.5,28.5C 100.292,27.6909 102.292,27.1909 104.5,27C 105.167,26.3333 105.833,25.6667 106.5,25C 103.645,26.4061 100.645,26.9061 97.5,26.5C 96.2807,25.7366 95.2807,24.7366 94.5,23.5C 91.8897,25.1873 92.223,26.5207 95.5,27.5C 93.1201,29.6032 93.7868,30.7699 97.5,31C 95.444,31.3108 93.444,31.8108 91.5,32.5C 90.4096,31.273 89.0762,30.4396 87.5,30C 88.448,29.5172 89.448,29.3505 90.5,29.5C 90.7852,27.712 90.4519,26.0453 89.5,24.5C 88.6043,25.5063 87.9377,25.5063 87.5,24.5C 88.9935,23.8589 89.9935,22.8589 90.5,21.5 Z"/></g>
<g><path style="opacity:1" fill="#7c7b76" d="M 106.5,132.5 C 81.8333,132.5 57.1667,132.5 32.5,132.5C 31.3157,131.312 31.3157,130.145 32.5,129C 35.2471,128.888 37.7471,129.054 40,129.5C 41.9006,128.017 41.5673,127.017 39,126.5C 36.6491,126.82 34.3157,127.153 32,127.5C 31.6413,123.52 33.308,122.187 37,123.5C 37.6172,122.551 37.4506,121.718 36.5,121C 38.5399,121.946 40.7066,123.113 43,124.5C 44.5652,121.106 46.5652,120.772 49,123.5C 50.0665,121.717 51.5665,121.217 53.5,122C 52.3044,122.654 52.3044,123.154 53.5,123.5C 54.8309,122.408 55.6643,121.074 56,119.5C 57.6667,120.833 59.3333,122.167 61,123.5C 62.2036,122.529 62.7036,121.529 62.5,120.5C 64.0983,121.485 65.765,121.651 67.5,121C 65.3825,120.74 63.7158,119.74 62.5,118C 64.0468,117.667 65.3801,118.167 66.5,119.5C 68.3359,118.081 70.3359,116.914 72.5,116C 71.6805,111.59 72.3471,111.757 74.5,116.5C 77.202,117.039 79.3687,118.372 81,120.5C 82.7633,120.975 84.43,121.642 86,122.5C 87.5929,120.715 89.0929,120.548 90.5,122C 89.0337,122.635 87.7003,123.469 86.5,124.5C 84.8333,123.833 83.1667,123.167 81.5,122.5C 80.3887,123.611 79.0554,124.278 77.5,124.5C 74.8183,121.2 72.1517,121.033 69.5,124C 72.4637,124.84 72.797,125.84 70.5,127C 72.272,128.487 74.272,128.82 76.5,128C 75.8333,127.667 75.1667,127.333 74.5,127C 75.7659,126.691 76.9326,126.191 78,125.5C 78.6614,127.916 80.1614,129.582 82.5,130.5C 82.9679,128.887 82.3013,127.387 80.5,126C 81.448,125.517 82.448,125.351 83.5,125.5C 83.3505,126.552 83.5172,127.552 84,128.5C 86.0581,127.891 86.8914,126.891 86.5,125.5C 89.4842,125.249 92.4842,125.916 95.5,127.5C 98.0635,127.263 98.0635,126.763 95.5,126C 98.6334,127.26 101.3,126.593 103.5,124C 101.144,123.845 98.8107,123.845 96.5,124C 98.0016,123.417 99.3349,122.584 100.5,121.5C 98.6267,122.089 96.96,121.422 95.5,119.5C 96.6507,118.269 97.8173,118.269 99,119.5C 98.9227,118.262 99.0894,117.262 99.5,116.5C 102.584,116.861 105.084,118.194 107,120.5C 106.205,117.145 107.372,116.645 110.5,119C 110.167,119.333 109.833,119.667 109.5,120C 110.5,120.333 111.5,120.667 112.5,121C 111.04,121.811 110.707,122.645 111.5,123.5C 115.231,120.537 116.898,121.537 116.5,126.5C 115.448,126.351 114.448,126.517 113.5,127C 115.612,127.906 116.445,129.406 116,131.5C 110.602,131.795 105.436,130.961 100.5,129C 99.2888,129.893 99.2888,130.726 100.5,131.5C 102.935,129.948 104.935,130.281 106.5,132.5 Z"/></g>
<g><path style="opacity:1" fill="#5e5e5b" d="M 27.5,120.5 C 27.5,125.5 27.5,130.5 27.5,135.5C 58.5,135.5 89.5,135.5 120.5,135.5C 119.081,136.451 117.415,136.784 115.5,136.5C 85.8333,136.5 56.1667,136.5 26.5,136.5C 26.1786,130.974 26.5119,125.64 27.5,120.5 Z"/></g>
</svg>
