<?xml version="1.0" encoding="UTF-8"?>
<!DOCTYPE svg PUBLIC "-//W3C//DTD SVG 1.1//EN" "http://www.w3.org/Graphics/SVG/1.1/DTD/svg11.dtd">
<svg xmlns="http://www.w3.org/2000/svg" version="1.1" width="150px" height="150px" style="shape-rendering:geometricPrecision; text-rendering:geometricPrecision; image-rendering:optimizeQuality; fill-rule:evenodd; clip-rule:evenodd" xmlns:xlink="http://www.w3.org/1999/xlink">
<g><path style="opacity:1" fill="#cdcbc3" d="M 109.5,99.5 C 109.649,98.448 109.483,97.448 109,96.5C 107.974,99.6928 105.808,101.026 102.5,100.5C 102.335,103.85 102.502,107.183 103,110.5C 103.75,111.126 104.584,111.626 105.5,112C 104.62,113.356 104.286,114.856 104.5,116.5C 102.834,117.666 101.167,117.666 99.5,116.5C 101.119,110.981 101.952,105.314 102,99.5C 103.705,97.4234 104.872,95.09 105.5,92.5C 109.79,84.096 111.29,75.096 110,65.5C 106.322,52.4687 99.822,41.1353 90.5,31.5C 96.121,26.5041 95.7877,22.0041 89.5,18C 80.7745,16.2258 77.1078,19.7258 78.5,28.5C 77.6862,26.369 77.1862,24.0356 77,21.5C 75.8525,22.4581 74.8525,22.1247 74,20.5C 73.2086,19.255 72.7086,17.9217 72.5,16.5C 74.8863,15.6267 76.8863,14.1267 78.5,12C 86.8563,8.1183 93.6896,9.95163 99,17.5C 99.9057,19.7438 100.406,22.0772 100.5,24.5C 99.9876,27.1859 99.821,29.8525 100,32.5C 115.007,48.5312 120.007,67.1978 115,88.5C 114.19,92.7869 112.357,96.4536 109.5,99.5 Z"/></g>
<g><path style="opacity:1" fill="#464645" d="M 105.5,92.5 C 104.833,92.1667 104.167,91.8333 103.5,91.5C 110.102,69.0802 104.769,49.9136 87.5,34C 83.2949,33.6818 79.7949,35.1818 77,38.5C 76.3333,39.5 76.3333,40.5 77,41.5C 78.3756,42.7051 79.5423,44.0384 80.5,45.5C 79.5,45.8333 78.8333,46.5 78.5,47.5C 75.1195,45.1203 72.4528,42.1203 70.5,38.5C 70.3284,37.5084 70.6618,36.8417 71.5,36.5C 72.1174,36.6107 72.6174,36.944 73,37.5C 75.7953,35.7068 78.2953,33.5402 80.5,31C 79.6195,30.2917 78.9528,29.4584 78.5,28.5C 77.1078,19.7258 80.7745,16.2258 89.5,18C 95.7877,22.0041 96.121,26.5041 90.5,31.5C 99.822,41.1353 106.322,52.4687 110,65.5C 111.29,75.096 109.79,84.096 105.5,92.5 Z"/></g>
<g><path style="opacity:1" fill="#dbdcd7" d="M 83.5,20.5 C 90.4863,20.331 92.153,23.1643 88.5,29C 81.4159,29.475 79.7492,26.6417 83.5,20.5 Z"/></g>
<g><path style="opacity:0.863" fill="#cdcbc3" d="M 72.5,16.5 C 72.7086,17.9217 73.2086,19.255 74,20.5C 74.8525,22.1247 75.8525,22.4581 77,21.5C 77.1862,24.0356 77.6862,26.369 78.5,28.5C 78.9528,29.4584 79.6195,30.2917 80.5,31C 78.2953,33.5402 75.7953,35.7068 73,37.5C 72.6174,36.944 72.1174,36.6107 71.5,36.5C 70.1667,35.0665 68.6667,33.7332 67,32.5C 67.3607,30.0666 67.8607,27.5666 68.5,25C 67.069,18.6089 63.069,16.2755 56.5,18C 51.6316,22.1721 51.2982,26.6721 55.5,31.5C 46.9787,41.5418 40.8121,52.8752 37,65.5C 36.3833,72.8688 36.7166,80.2021 38,87.5C 39.232,90.4117 40.732,93.0784 42.5,95.5C 42.8925,97.2838 43.5592,98.9505 44.5,100.5C 44.3641,105.945 45.0308,111.278 46.5,116.5C 39.8912,116.868 33.2246,116.868 26.5,116.5C 27.6602,114.797 26.9935,114.131 24.5,114.5C 24.7148,112.821 24.0481,111.821 22.5,111.5C 27.5683,109.822 32.9016,109.156 38.5,109.5C 38.6641,106.813 38.4974,104.146 38,101.5C 28.9494,86.1451 27.6161,70.1451 34,53.5C 37.5409,45.9699 41.8742,38.9699 47,32.5C 43.806,20.2147 48.306,12.5481 60.5,9.5C 65.766,9.79534 69.766,12.1287 72.5,16.5 Z"/></g>
<g><path style="opacity:1" fill="#e4e5e0" d="M 70.5,38.5 C 72.4528,42.1203 75.1195,45.1203 78.5,47.5C 83.1943,53.5514 86.8609,60.218 89.5,67.5C 85.7726,68.0516 82.6059,69.7182 80,72.5C 78.9326,71.8095 77.7659,71.3095 76.5,71C 77.5368,69.1492 76.8701,67.9825 74.5,67.5C 74.6309,66.6236 74.2975,65.9569 73.5,65.5C 69.6955,65.0147 66.5288,63.348 64,60.5C 63.2496,61.1258 62.4162,61.6258 61.5,62C 62.624,62.2492 63.624,62.7492 64.5,63.5C 60.7347,63.2951 60.7347,64.1284 64.5,66C 62.26,66.977 59.9267,67.477 57.5,67.5C 57.33,66.1779 57.6634,65.0113 58.5,64C 57.552,63.5172 56.552,63.3505 55.5,63.5C 55.719,64.675 55.3857,65.675 54.5,66.5C 54.1667,66.1667 53.8333,65.8333 53.5,65.5C 54.0525,63.2727 54.0525,60.9393 53.5,58.5C 52.1266,58.6567 50.7932,58.49 49.5,58C 51.9288,57.5488 52.0955,56.7155 50,55.5C 48.0171,56.982 46.1837,58.6487 44.5,60.5C 45.1667,60.8333 45.8333,61.1667 46.5,61.5C 45.675,62.3857 44.675,62.719 43.5,62.5C 43.7373,61.209 43.404,60.209 42.5,59.5C 46.262,49.4836 51.9286,40.6503 59.5,33C 60.5,32.3333 61.5,32.3333 62.5,33C 64.7036,35.5945 67.3703,37.4278 70.5,38.5 Z"/></g>
<g><path style="opacity:1" fill="#e2e3df" d="M 103.5,91.5 C 102.685,92.4293 101.852,93.4293 101,94.5C 98.4979,76.185 91.6646,59.8517 80.5,45.5C 79.5423,44.0384 78.3756,42.7051 77,41.5C 76.3333,40.5 76.3333,39.5 77,38.5C 79.7949,35.1818 83.2949,33.6818 87.5,34C 104.769,49.9136 110.102,69.0802 103.5,91.5 Z"/></g>
<g><path style="opacity:1" fill="#424241" d="M 71.5,36.5 C 70.6618,36.8417 70.3284,37.5084 70.5,38.5C 67.3703,37.4278 64.7036,35.5945 62.5,33C 61.5,32.3333 60.5,32.3333 59.5,33C 51.9286,40.6503 46.262,49.4836 42.5,59.5C 40.0925,63.74 39.0925,68.4066 39.5,73.5C 39.7271,80.847 41.3938,87.847 44.5,94.5C 43.8333,94.8333 43.1667,95.1667 42.5,95.5C 40.732,93.0784 39.232,90.4117 38,87.5C 36.7166,80.2021 36.3833,72.8688 37,65.5C 40.8121,52.8752 46.9787,41.5418 55.5,31.5C 51.2982,26.6721 51.6316,22.1721 56.5,18C 63.069,16.2755 67.069,18.6089 68.5,25C 67.8607,27.5666 67.3607,30.0666 67,32.5C 68.6667,33.7332 70.1667,35.0665 71.5,36.5 Z"/></g>
<g><path style="opacity:1" fill="#d9d9d5" d="M 57.5,20.5 C 64.5614,20.1313 66.5614,22.9646 63.5,29C 55.8072,30.1433 53.8072,27.31 57.5,20.5 Z"/></g>
<g><path style="opacity:1" fill="#e6e7e3" d="M 74.5,67.5 C 71.2971,67.7683 67.9637,67.7683 64.5,67.5C 63.4096,68.727 62.0762,69.5604 60.5,70C 60.6399,71.2639 60.6399,72.4305 60.5,73.5C 58.8849,72.846 57.2182,72.346 55.5,72C 57.0441,71.7104 58.3774,71.0437 59.5,70C 59,69.8333 58.5,69.6667 58,69.5C 56.5838,70.5733 55.2504,70.5733 54,69.5C 53.6322,70.91 52.7989,71.91 51.5,72.5C 48.8332,71.877 46.3332,70.877 44,69.5C 42.2215,71.0174 42.7215,71.8508 45.5,72C 44.2068,72.49 42.8734,72.6567 41.5,72.5C 41.2222,74.3464 41.8888,75.6798 43.5,76.5C 45.3707,75.233 47.2041,75.233 49,76.5C 49.1667,76.1667 49.3333,75.8333 49.5,75.5C 48.624,74.7492 47.624,74.2492 46.5,74C 48.7489,73.1368 50.5822,73.6368 52,75.5C 52.3333,75.1667 52.6667,74.8333 53,74.5C 53.4922,75.549 53.3256,76.549 52.5,77.5C 53.0253,78.1924 53.6919,78.6924 54.5,79C 52.9154,79.0848 51.5821,79.2514 50.5,79.5C 52.4469,83.3136 55.4469,85.9803 59.5,87.5C 59.8333,87.1667 60.1667,86.8333 60.5,86.5C 59.8333,85.8333 59.1667,85.1667 58.5,84.5C 59.6283,83.7379 60.7949,83.0712 62,82.5C 63.2504,83.5733 64.5838,83.5733 66,82.5C 66.5,82.6667 67,82.8333 67.5,83C 66.0439,83.4226 65.5439,84.2559 66,85.5C 66.3333,85.1667 66.6667,84.8333 67,84.5C 69.2575,87.2858 68.7575,87.9525 65.5,86.5C 60.0835,90.0016 54.4169,91.5016 48.5,91C 43.1817,85.8117 43.6817,85.3117 50,89.5C 52.1875,88.9407 52.8542,87.6073 52,85.5C 51.6667,85.8333 51.3333,86.1667 51,86.5C 50.5,85.3333 49.6667,84.5 48.5,84C 46.141,83.7922 43.9743,83.6256 42,83.5C 40.7288,78.2461 40.2288,72.9127 40.5,67.5C 42.1238,67.6399 43.2904,66.9733 44,65.5C 44.9147,66.3279 45.5814,67.3279 46,68.5C 47.3033,67.8878 48.4699,67.5545 49.5,67.5C 47.7798,66.0803 45.9465,64.747 44,63.5C 43.3333,64.1667 42.6667,64.8333 42,65.5C 42.1349,63.5753 42.3016,61.5753 42.5,59.5C 43.404,60.209 43.7373,61.209 43.5,62.5C 44.675,62.719 45.675,62.3857 46.5,61.5C 45.8333,61.1667 45.1667,60.8333 44.5,60.5C 46.1837,58.6487 48.0171,56.982 50,55.5C 52.0955,56.7155 51.9288,57.5488 49.5,58C 50.7932,58.49 52.1266,58.6567 53.5,58.5C 54.0525,60.9393 54.0525,63.2727 53.5,65.5C 53.8333,65.8333 54.1667,66.1667 54.5,66.5C 55.3857,65.675 55.719,64.675 55.5,63.5C 56.552,63.3505 57.552,63.5172 58.5,64C 57.6634,65.0113 57.33,66.1779 57.5,67.5C 59.9267,67.477 62.26,66.977 64.5,66C 60.7347,64.1284 60.7347,63.2951 64.5,63.5C 63.624,62.7492 62.624,62.2492 61.5,62C 62.4162,61.6258 63.2496,61.1258 64,60.5C 66.5288,63.348 69.6955,65.0147 73.5,65.5C 74.2975,65.9569 74.6309,66.6236 74.5,67.5 Z"/></g>
<g><path style="opacity:1" fill="#e1e2de" d="M 42.5,59.5 C 42.3016,61.5753 42.1349,63.5753 42,65.5C 42.6667,64.8333 43.3333,64.1667 44,63.5C 45.9465,64.747 47.7798,66.0803 49.5,67.5C 48.4699,67.5545 47.3033,67.8878 46,68.5C 45.5814,67.3279 44.9147,66.3279 44,65.5C 43.2904,66.9733 42.1238,67.6399 40.5,67.5C 40.2288,72.9127 40.7288,78.2461 42,83.5C 43.9743,83.6256 46.141,83.7922 48.5,84C 49.6667,84.5 50.5,85.3333 51,86.5C 51.3333,86.1667 51.6667,85.8333 52,85.5C 52.8542,87.6073 52.1875,88.9407 50,89.5C 43.6817,85.3117 43.1817,85.8117 48.5,91C 54.4169,91.5016 60.0835,90.0016 65.5,86.5C 68.7575,87.9525 69.2575,87.2858 67,84.5C 66.6667,84.8333 66.3333,85.1667 66,85.5C 65.5439,84.2559 66.0439,83.4226 67.5,83C 67,82.8333 66.5,82.6667 66,82.5C 64.5838,83.5733 63.2504,83.5733 62,82.5C 60.7949,83.0712 59.6283,83.7379 58.5,84.5C 59.1667,85.1667 59.8333,85.8333 60.5,86.5C 60.1667,86.8333 59.8333,87.1667 59.5,87.5C 55.4469,85.9803 52.4469,83.3136 50.5,79.5C 51.5821,79.2514 52.9154,79.0848 54.5,79C 53.6919,78.6924 53.0253,78.1924 52.5,77.5C 53.3256,76.549 53.4922,75.549 53,74.5C 52.6667,74.8333 52.3333,75.1667 52,75.5C 50.5822,73.6368 48.7489,73.1368 46.5,74C 47.624,74.2492 48.624,74.7492 49.5,75.5C 49.3333,75.8333 49.1667,76.1667 49,76.5C 47.2041,75.233 45.3707,75.233 43.5,76.5C 41.8888,75.6798 41.2222,74.3464 41.5,72.5C 42.8734,72.6567 44.2068,72.49 45.5,72C 42.7215,71.8508 42.2215,71.0174 44,69.5C 46.3332,70.877 48.8332,71.877 51.5,72.5C 52.7989,71.91 53.6322,70.91 54,69.5C 55.2504,70.5733 56.5838,70.5733 58,69.5C 58.5,69.6667 59,69.8333 59.5,70C 58.3774,71.0437 57.0441,71.7104 55.5,72C 57.2182,72.346 58.8849,72.846 60.5,73.5C 60.6399,72.4305 60.6399,71.2639 60.5,70C 62.0762,69.5604 63.4096,68.727 64.5,67.5C 67.9637,67.7683 71.2971,67.7683 74.5,67.5C 76.8701,67.9825 77.5368,69.1492 76.5,71C 77.7659,71.3095 78.9326,71.8095 80,72.5C 82.6059,69.7182 85.7726,68.0516 89.5,67.5C 94.5196,76.6159 96.8529,86.2826 96.5,96.5C 84.0041,93.6103 71.3374,92.7769 58.5,94C 54.4574,94.1128 50.7907,95.2795 47.5,97.5C 46.265,96.6602 45.265,95.6602 44.5,94.5C 41.3938,87.847 39.7271,80.847 39.5,73.5C 39.0925,68.4066 40.0925,63.74 42.5,59.5 Z"/></g>
<g><path style="opacity:1" fill="#424241" d="M 80.5,45.5 C 91.6646,59.8517 98.4979,76.185 101,94.5C 101.852,93.4293 102.685,92.4293 103.5,91.5C 104.167,91.8333 104.833,92.1667 105.5,92.5C 104.872,95.09 103.705,97.4234 102,99.5C 101.952,105.314 101.119,110.981 99.5,116.5C 101.167,117.666 102.834,117.666 104.5,116.5C 113.961,115.483 122.961,116.983 131.5,121C 132.211,122.255 133.044,123.421 134,124.5C 134.499,128.486 134.666,132.486 134.5,136.5C 118.967,133.848 103.301,132.848 87.5,133.5C 78.5492,125.856 69.5492,125.689 60.5,133C 48.5,133.333 36.5,133.667 24.5,134C 22.2922,134.191 20.2922,134.691 18.5,135.5C 16.5648,136.15 14.5648,136.483 12.5,136.5C 12.5,133.167 12.5,129.833 12.5,126.5C 13.5,125.167 14.5,125.167 15.5,126.5C 14.6219,131.688 16.2885,133.188 20.5,131C 33.1667,130.667 45.8333,130.333 58.5,130C 61.631,127.101 65.2976,125.268 69.5,124.5C 70.7562,124.539 71.7562,124.039 72.5,123C 68.1794,122.501 63.8461,122.334 59.5,122.5C 59.1667,122.5 58.8333,122.5 58.5,122.5C 59.2625,121.732 60.2625,121.232 61.5,121C 69.3443,120.829 77.011,120.329 84.5,119.5C 86.5273,119.662 88.5273,119.495 90.5,119C 88.3766,117.806 86.0432,117.14 83.5,117C 77.1754,116.5 70.8421,116.334 64.5,116.5C 64.3893,115.883 64.056,115.383 63.5,115C 70.4921,114.5 77.4921,114.334 84.5,114.5C 88.5751,114.998 92.5751,114.998 96.5,114.5C 93.3753,111.877 90.3753,109.044 87.5,106C 90.9274,104.24 94.594,103.074 98.5,102.5C 96.4896,99.9828 93.8229,98.4828 90.5,98C 80.2267,96.4344 69.8934,96.1011 59.5,97C 55.9811,97.3953 52.6478,98.3953 49.5,100C 48.1772,100.816 47.5106,101.983 47.5,103.5C 46.7784,103.918 46.2784,104.584 46,105.5C 45.8019,103.618 45.3019,101.952 44.5,100.5C 43.5592,98.9505 42.8925,97.2838 42.5,95.5C 43.1667,95.1667 43.8333,94.8333 44.5,94.5C 45.265,95.6602 46.265,96.6602 47.5,97.5C 50.7907,95.2795 54.4574,94.1128 58.5,94C 71.3374,92.7769 84.0041,93.6103 96.5,96.5C 96.8529,86.2826 94.5196,76.6159 89.5,67.5C 86.8609,60.218 83.1943,53.5514 78.5,47.5C 78.8333,46.5 79.5,45.8333 80.5,45.5 Z"/></g>
<g><path style="opacity:1" fill="#4c4c4b" d="M 44.5,100.5 C 45.3019,101.952 45.8019,103.618 46,105.5C 46.2784,104.584 46.7784,103.918 47.5,103.5C 49.8568,103.337 52.1902,103.503 54.5,104C 56.2861,104.196 57.6195,105.029 58.5,106.5C 56.1051,109.861 53.1051,112.528 49.5,114.5C 50.1667,114.833 50.8333,115.167 51.5,115.5C 62.5793,113.311 73.5793,112.978 84.5,114.5C 77.4921,114.334 70.4921,114.5 63.5,115C 64.056,115.383 64.3893,115.883 64.5,116.5C 61.0569,117.01 57.7235,117.844 54.5,119C 64.4944,119.5 74.4944,119.666 84.5,119.5C 77.011,120.329 69.3443,120.829 61.5,121C 60.2625,121.232 59.2625,121.732 58.5,122.5C 46.2266,120.697 33.8932,120.197 21.5,121C 18.9774,122.36 16.9774,124.193 15.5,126.5C 14.5,125.167 13.5,125.167 12.5,126.5C 15.1436,120.547 19.8102,117.214 26.5,116.5C 33.2246,116.868 39.8912,116.868 46.5,116.5C 45.0308,111.278 44.3641,105.945 44.5,100.5 Z"/></g>
<g><path style="opacity:1" fill="#dfe0db" d="M 84.5,114.5 C 73.5793,112.978 62.5793,113.311 51.5,115.5C 50.8333,115.167 50.1667,114.833 49.5,114.5C 53.1051,112.528 56.1051,109.861 58.5,106.5C 57.6195,105.029 56.2861,104.196 54.5,104C 52.1902,103.503 49.8568,103.337 47.5,103.5C 47.5106,101.983 48.1772,100.816 49.5,100C 52.6478,98.3953 55.9811,97.3953 59.5,97C 69.8934,96.1011 80.2267,96.4344 90.5,98C 93.8229,98.4828 96.4896,99.9828 98.5,102.5C 94.594,103.074 90.9274,104.24 87.5,106C 90.3753,109.044 93.3753,111.877 96.5,114.5C 92.5751,114.998 88.5751,114.998 84.5,114.5 Z"/></g>
<g><path style="opacity:1" fill="#484846" d="M 69.5,99.5 C 73.4629,99.0889 77.1295,99.9222 80.5,102C 82.0283,104.881 81.3616,107.214 78.5,109C 75.1667,109.667 71.8333,109.667 68.5,109C 64.3785,105.329 64.7119,102.163 69.5,99.5 Z"/></g>
<g><path style="opacity:1" fill="#e0e1dc" d="M 69.5,103.5 C 72.2469,103.187 74.9135,103.52 77.5,104.5C 76.6519,105.991 75.3186,106.658 73.5,106.5C 71.0182,106.89 69.6848,105.89 69.5,103.5 Z"/></g>
<g><path style="opacity:1" fill="#c1c1bb" d="M 49.5,106.5 C 51.3547,106.272 52.1881,106.939 52,108.5C 49.1924,109.86 48.3591,109.193 49.5,106.5 Z"/></g>
<g><path style="opacity:1" fill="#c1c2bd" d="M 94.5,106.5 C 96.3464,106.222 97.6798,106.889 98.5,108.5C 96.1671,109.941 94.8338,109.275 94.5,106.5 Z"/></g>
<g><path style="opacity:0.761" fill="#cdccc3" d="M 109.5,99.5 C 108.676,102.764 108.342,106.098 108.5,109.5C 120.342,108.043 130.509,111.377 139,119.5C 142.103,127.767 142.103,136.101 139,144.5C 138.586,144.957 138.086,145.291 137.5,145.5C 133.355,143.426 129.021,141.926 124.5,141C 111.327,140.831 98.3269,140.331 85.5,139.5C 89.315,138.895 92.9817,138.895 96.5,139.5C 96.3601,137.876 97.0267,136.71 98.5,136C 98.1667,135.667 97.8333,135.333 97.5,135C 93.9748,134.821 90.6414,134.321 87.5,133.5C 103.301,132.848 118.967,133.848 134.5,136.5C 134.666,132.486 134.499,128.486 134,124.5C 133.044,123.421 132.211,122.255 131.5,121C 122.961,116.983 113.961,115.483 104.5,116.5C 104.286,114.856 104.62,113.356 105.5,112C 104.584,111.626 103.75,111.126 103,110.5C 102.502,107.183 102.335,103.85 102.5,100.5C 105.808,101.026 107.974,99.6928 109,96.5C 109.483,97.448 109.649,98.448 109.5,99.5 Z"/></g>
<g><path style="opacity:1" fill="#d0d0cb" d="M 64.5,116.5 C 70.8421,116.334 77.1754,116.5 83.5,117C 86.0432,117.14 88.3766,117.806 90.5,119C 88.5273,119.495 86.5273,119.662 84.5,119.5C 74.4944,119.666 64.4944,119.5 54.5,119C 57.7235,117.844 61.0569,117.01 64.5,116.5 Z"/></g>
<g><path style="opacity:1" fill="#dcddd9" d="M 108.5,119.5 C 115.526,118.805 122.193,119.972 128.5,123C 131.029,125.642 132.029,128.808 131.5,132.5C 117.25,130.82 102.917,129.987 88.5,130C 84.9934,127.746 81.3267,125.746 77.5,124C 87.9892,122.567 98.3226,121.067 108.5,119.5 Z"/></g>
<g><path style="opacity:1" fill="#888885" d="M 59.5,122.5 C 63.8461,122.334 68.1794,122.501 72.5,123C 71.7562,124.039 70.7562,124.539 69.5,124.5C 66.1667,123.833 62.8333,123.167 59.5,122.5 Z"/></g>
<g><path style="opacity:1" fill="#dfe0db" d="M 58.5,122.5 C 58.8333,122.5 59.1667,122.5 59.5,122.5C 62.8333,123.167 66.1667,123.833 69.5,124.5C 65.2976,125.268 61.631,127.101 58.5,130C 45.8333,130.333 33.1667,130.667 20.5,131C 16.2885,133.188 14.6219,131.688 15.5,126.5C 16.9774,124.193 18.9774,122.36 21.5,121C 33.8932,120.197 46.2266,120.697 58.5,122.5 Z"/></g>
<g><path style="opacity:1" fill="#cecdc5" d="M 87.5,133.5 C 90.6414,134.321 93.9748,134.821 97.5,135C 97.8333,135.333 98.1667,135.667 98.5,136C 97.0267,136.71 96.3601,137.876 96.5,139.5C 92.9817,138.895 89.315,138.895 85.5,139.5C 82.1852,136.592 78.3519,134.592 74,133.5C 69.6481,134.592 65.8148,136.592 62.5,139.5C 49.1625,139.667 35.8292,139.5 22.5,139C 20.7536,138.529 19.087,137.862 17.5,137C 18.056,136.617 18.3893,136.117 18.5,135.5C 20.2922,134.691 22.2922,134.191 24.5,134C 36.5,133.667 48.5,133.333 60.5,133C 69.5492,125.689 78.5492,125.856 87.5,133.5 Z"/></g>
<g><path style="opacity:0.953" fill="#cdccc3" d="M 22.5,111.5 C 24.0481,111.821 24.7148,112.821 24.5,114.5C 26.9935,114.131 27.6602,114.797 26.5,116.5C 19.8102,117.214 15.1436,120.547 12.5,126.5C 12.5,129.833 12.5,133.167 12.5,136.5C 14.5648,136.483 16.5648,136.15 18.5,135.5C 18.3893,136.117 18.056,136.617 17.5,137C 19.087,137.862 20.7536,138.529 22.5,139C 35.8292,139.5 49.1625,139.667 62.5,139.5C 49.6731,140.331 36.6731,140.831 23.5,141C 18.315,142.007 13.315,143.507 8.5,145.5C 7.57111,140.291 6.57111,135.124 5.5,130C 6.50278,119.499 12.1695,113.332 22.5,111.5 Z"/></g>
</svg>
