<?xml version="1.0" encoding="UTF-8"?>
<!DOCTYPE svg PUBLIC "-//W3C//DTD SVG 1.1//EN" "http://www.w3.org/Graphics/SVG/1.1/DTD/svg11.dtd">
<svg xmlns="http://www.w3.org/2000/svg" version="1.1" width="150px" height="150px" style="shape-rendering:geometricPrecision; text-rendering:geometricPrecision; image-rendering:optimizeQuality; fill-rule:evenodd; clip-rule:evenodd" xmlns:xlink="http://www.w3.org/1999/xlink">
<g><path style="opacity:1" fill="#444443" d="M 87.5,16.5 C 88.1666,24.3433 88.8333,32.3433 89.5,40.5C 104.093,32.4848 117.259,34.4848 129,46.5C 136.504,58.6542 136.17,70.6542 128,82.5C 123.667,86.8333 119.333,91.1667 115,95.5C 113.914,106.624 112.247,117.624 110,128.5C 102.63,133.387 94.4631,135.887 85.5,136C 71.3098,137.25 57.3098,136.25 43.5,133C 40.7886,131.739 38.622,129.906 37,127.5C 34.5154,118.857 33.0154,110.19 32.5,101.5C 32.6621,99.4727 32.4955,97.4727 32,95.5C 29,91.1667 25.3333,87.5 21,84.5C 10.5701,71.9302 9.90344,58.9302 19,45.5C 30.9111,33.8434 43.9111,32.5101 58,41.5C 58.4997,33.1733 58.6664,24.84 58.5,16.5C 68.1667,16.5 77.8333,16.5 87.5,16.5 Z"/></g>
<g><path style="opacity:1" fill="#e0e0db" d="M 84.5,22.5 C 85.6525,28.3188 85.8192,34.3188 85,40.5C 81.9838,37.6511 79.1504,34.6511 76.5,31.5C 79.189,28.4802 81.8556,25.4802 84.5,22.5 Z"/></g>
<g><path style="opacity:1" fill="#dadbd6" d="M 61.5,22.5 C 64.8123,25.1456 67.8123,28.1456 70.5,31.5C 67.8496,34.6511 65.0162,37.6511 62,40.5C 61.5005,34.5092 61.3338,28.5092 61.5,22.5 Z"/></g>
<g><path style="opacity:1" fill="#dfe0da" d="M 72.5,34.5 C 76.2347,36.7246 79.568,39.558 82.5,43C 76.5,43.6667 70.5,43.6667 64.5,43C 67.3714,40.2972 70.0381,37.4639 72.5,34.5 Z"/></g>
<g><path style="opacity:1" fill="#e3e4e0" d="M 36.5,38.5 C 49.0011,37.8335 58.5011,42.8335 65,53.5C 66.9203,56.3388 68.5869,59.3388 70,62.5C 71.2616,70.1128 71.7616,77.7795 71.5,85.5C 58.7048,84.7842 46.5381,87.1175 35,92.5C 26.0484,86.551 19.715,78.551 16,68.5C 15.1512,53.1849 21.9845,43.1849 36.5,38.5 Z"/></g>
<g><path style="opacity:1" fill="#e4e4e0" d="M 94.5,86.5 C 88.4056,84.9057 82.0723,84.239 75.5,84.5C 73.1407,65.6597 79.8073,51.1597 95.5,41C 112.765,35.7156 124.598,41.5489 131,58.5C 131.667,61.8333 131.667,65.1667 131,68.5C 129.667,71.8333 128.333,75.1667 127,78.5C 122.5,83 118,87.5 113.5,92C 107.287,90.0997 100.953,88.2663 94.5,86.5 Z"/></g>
<g><path style="opacity:1" fill="#c8c7bf" d="M 64.5,46.5 C 70.5368,46.1707 76.5368,46.5041 82.5,47.5C 79.125,52.2234 76.125,57.2234 73.5,62.5C 71.2871,56.646 68.2871,51.3126 64.5,46.5 Z"/></g>
<g><path style="opacity:0.505" fill="#cccbc3" d="M 95.5,30.5 C 94.8423,29.6016 94.1757,28.6016 93.5,27.5C 92.3652,26.8973 91.3652,26.5639 90.5,26.5C 91.6283,25.7379 92.7949,25.0712 94,24.5C 94.1962,19.6761 94.3628,15.0094 94.5,10.5C 86.16,10.3336 77.8267,10.5003 69.5,11C 74.6942,11.131 79.6942,12.131 84.5,14C 84.1667,14.3333 83.8333,14.6667 83.5,15C 85.0581,15.21 86.3915,15.71 87.5,16.5C 77.8333,16.5 68.1667,16.5 58.5,16.5C 58.6664,24.84 58.4997,33.1733 58,41.5C 43.9111,32.5101 30.9111,33.8434 19,45.5C 9.90344,58.9302 10.5701,71.9302 21,84.5C 25.3333,87.5 29,91.1667 32,95.5C 32.4955,97.4727 32.6621,99.4727 32.5,101.5C 32.3575,105.545 32.3575,109.379 32.5,113C 31.1955,113.804 30.5288,114.971 30.5,116.5C 30.9812,119.083 31.6479,121.583 32.5,124C 31.9341,124.995 31.2674,125.828 30.5,126.5C 27.9463,117.475 26.4463,108.142 26,98.5C 22.034,93.5325 17.7007,88.8658 13,84.5C 2.41639,65.9808 4.91639,49.4808 20.5,35C 30.0771,28.8552 40.4104,27.0218 51.5,29.5C 51.1878,22.5778 51.5212,15.7445 52.5,9C 66.8295,8.50009 81.1628,8.33342 95.5,8.5C 95.5,15.8333 95.5,23.1667 95.5,30.5 Z"/></g>
<g><path style="opacity:1" fill="#e3e3de" d="M 81.5,20.5 C 79.1877,23.4789 76.5211,26.1456 73.5,28.5C 70.8122,26.4789 68.4789,24.1456 66.5,21.5C 71.3054,20.5128 76.3054,20.1795 81.5,20.5 Z"/></g>
<g><path style="opacity:1" fill="#bab9b4" d="M 81.5,20.5 C 76.3054,20.1795 71.3054,20.5128 66.5,21.5C 65.7109,21.2172 65.0442,20.7172 64.5,20C 70.9222,19.1863 76.5889,19.3529 81.5,20.5 Z"/></g>
<g><path style="opacity:1" fill="#b4b3ad" d="M 75.5,84.5 C 82.0723,84.239 88.4056,84.9057 94.5,86.5C 87.9635,86.4138 81.6301,85.7472 75.5,84.5 Z"/></g>
<g><path style="opacity:1" fill="#e1e2dd" d="M 110.5,95.5 C 110.806,98.3854 110.473,101.052 109.5,103.5C 107.955,101.628 105.955,100.628 103.5,100.5C 100.042,101.097 96.7088,102.097 93.5,103.5C 96.2973,107.637 99.964,110.637 104.5,112.5C 106.135,111.954 107.801,111.62 109.5,111.5C 109.693,115.013 109.026,118.346 107.5,121.5C 95.8792,117.23 83.8792,115.564 71.5,116.5C 60.3664,115.434 49.6998,117.101 39.5,121.5C 37.9741,118.346 37.3075,115.013 37.5,111.5C 40.1411,112.263 42.8078,112.43 45.5,112C 48.1667,109.333 50.8333,106.667 53.5,104C 50.1783,102.448 46.6783,101.282 43,100.5C 40.4972,100.99 38.4972,102.323 37,104.5C 36.3333,101.5 36.3333,98.5 37,95.5C 43.1742,92.461 49.6742,90.2943 56.5,89C 75.1158,86.7556 93.1158,88.9223 110.5,95.5 Z"/></g>
<g><path style="opacity:1" fill="#474745" d="M 69.5,95.5 C 75.0083,94.7219 79.5083,96.3885 83,100.5C 83.6816,104.18 82.1816,106.68 78.5,108C 72.9245,109.472 68.0911,108.305 64,104.5C 63.3333,103.167 63.3333,101.833 64,100.5C 65.7038,98.6266 67.5372,96.9599 69.5,95.5 Z"/></g>
<g><path style="opacity:1" fill="#a1a19d" d="M 110.5,95.5 C 111.803,98.3553 111.803,101.355 110.5,104.5C 109.893,104.376 109.56,104.043 109.5,103.5C 110.473,101.052 110.806,98.3854 110.5,95.5 Z"/></g>
<g><path style="opacity:1" fill="#dededa" d="M 69.5,99.5 C 72.8806,99.4595 76.2139,99.7929 79.5,100.5C 79.0655,104.158 76.8988,105.825 73,105.5C 67.886,105.285 66.7193,103.285 69.5,99.5 Z"/></g>
<g><path style="opacity:0.704" fill="#cccbc3" d="M 95.5,30.5 C 116.839,25.5861 131.672,33.2528 140,53.5C 142.678,63.717 141.345,73.3837 136,82.5C 131.7,87.8012 127.034,92.8012 122,97.5C 121.078,109.032 119.078,120.365 116,131.5C 111.513,137.11 105.68,140.276 98.5,141C 80.4406,143.253 62.4406,142.92 44.5,140C 36.8701,138.388 32.2035,133.888 30.5,126.5C 31.2674,125.828 31.9341,124.995 32.5,124C 31.6479,121.583 30.9812,119.083 30.5,116.5C 30.5288,114.971 31.1955,113.804 32.5,113C 32.3575,109.379 32.3575,105.545 32.5,101.5C 33.0154,110.19 34.5154,118.857 37,127.5C 38.622,129.906 40.7886,131.739 43.5,133C 57.3098,136.25 71.3098,137.25 85.5,136C 94.4631,135.887 102.63,133.387 110,128.5C 112.247,117.624 113.914,106.624 115,95.5C 119.333,91.1667 123.667,86.8333 128,82.5C 136.17,70.6542 136.504,58.6542 129,46.5C 117.259,34.4848 104.093,32.4848 89.5,40.5C 88.8333,32.3433 88.1666,24.3433 87.5,16.5C 86.3915,15.71 85.0581,15.21 83.5,15C 83.8333,14.6667 84.1667,14.3333 84.5,14C 79.6942,12.131 74.6942,11.131 69.5,11C 77.8267,10.5003 86.16,10.3336 94.5,10.5C 94.3628,15.0094 94.1962,19.6761 94,24.5C 92.7949,25.0712 91.6283,25.7379 90.5,26.5C 91.3652,26.5639 92.3652,26.8973 93.5,27.5C 94.1757,28.6016 94.8423,29.6016 95.5,30.5 Z"/></g>
<g><path style="opacity:1" fill="#e1e2dd" d="M 56.5,119.5 C 70.1904,119.347 83.8571,119.847 97.5,121C 100.971,121.925 103.971,123.592 106.5,126C 106.18,127.653 105.18,128.653 103.5,129C 98.9002,130.317 94.2335,131.317 89.5,132C 77.5,132.667 65.5,132.667 53.5,132C 50.7679,131.587 48.1013,130.92 45.5,130C 38.7436,126.886 39.077,124.219 46.5,122C 49.9523,121.115 53.2856,120.282 56.5,119.5 Z"/></g>
<g><path style="opacity:1" fill="#d8d8d3" d="M 41.5,103.5 C 47.9064,104.46 48.073,106.46 42,109.5C 40.605,109.22 39.4383,108.553 38.5,107.5C 40.2882,106.717 41.2882,105.384 41.5,103.5 Z"/></g>
<g><path style="opacity:1" fill="#d2d2ce" d="M 101.5,103.5 C 104.585,103.542 106.919,104.875 108.5,107.5C 105.088,110.369 102.421,109.703 100.5,105.5C 100.863,104.817 101.196,104.15 101.5,103.5 Z"/></g>
</svg>
