<?xml version="1.0" encoding="UTF-8"?>
<!DOCTYPE svg PUBLIC "-//W3C//DTD SVG 1.1//EN" "http://www.w3.org/Graphics/SVG/1.1/DTD/svg11.dtd">
<svg xmlns="http://www.w3.org/2000/svg" version="1.1" width="150px" height="150px" style="shape-rendering:geometricPrecision; text-rendering:geometricPrecision; image-rendering:optimizeQuality; fill-rule:evenodd; clip-rule:evenodd" xmlns:xlink="http://www.w3.org/1999/xlink">
<g><path style="opacity:0.298" fill="#cdccc4" d="M 53.5,2.5 C 58.2088,8.39125 63.2088,14.2246 68.5,20C 100.208,23.0475 121.375,39.5475 132,69.5C 139.026,91.6046 140.026,113.938 135,136.5C 134.208,138.587 133.041,140.421 131.5,142C 102.494,142.833 73.4943,142.667 44.5,141.5C 39.0341,131.339 39.3674,121.506 45.5,112C 38.1224,111.105 30.7891,110.771 23.5,111C 9.01288,102.219 5.84621,90.3859 14,75.5C 18.7121,70.4566 23.0454,65.1233 27,59.5C 28.3694,53.7183 30.7027,48.3849 34,43.5C 34.1813,33.3676 35.348,23.3676 37.5,13.5C 40.2883,14.9781 43.1217,16.3114 46,17.5C 48.5266,12.4469 51.0266,7.44689 53.5,2.5 Z M 53.5,103.5 C 55.2058,99.2821 58.2058,96.7821 62.5,96C 59.8991,99.1117 56.8991,101.612 53.5,103.5 Z"/></g>
<g><path style="opacity:1" fill="#424241" d="M 110.5,122.5 C 110.564,123.365 110.897,124.365 111.5,125.5C 110.529,127.483 109.529,129.483 108.5,131.5C 107.957,131.56 107.624,131.893 107.5,132.5C 113.654,133.817 119.654,133.817 125.5,132.5C 126.268,131.737 126.768,130.737 127,129.5C 129.193,113.409 128.693,97.409 125.5,81.5C 126.222,81.0825 126.722,80.4158 127,79.5C 127.278,80.4158 127.778,81.0825 128.5,81.5C 132.452,99.8509 132.452,118.184 128.5,136.5C 102.165,136.667 75.8312,136.5 49.5,136C 45.3469,129.016 45.5136,122.183 50,115.5C 58,110.167 64.6667,103.5 70,95.5C 70.8184,92.7728 70.6517,90.1062 69.5,87.5C 65.8889,88.2618 62.2222,88.7618 58.5,89C 52.4564,93.3763 47.4564,98.7096 43.5,105C 39.3296,105.812 35.3296,105.312 31.5,103.5C 28.8684,104.44 26.2017,104.607 23.5,104C 20.0279,100.73 17.6946,96.897 16.5,92.5C 16.2011,90.396 16.5344,88.396 17.5,86.5C 18.1681,88.9688 18.8347,91.3021 19.5,93.5C 20.9447,96.1182 22.6113,98.6182 24.5,101C 25.8333,101.667 27.1667,101.667 28.5,101C 30.075,97.7578 32.575,95.5912 36,94.5C 36.5,94.8333 37,95.1667 37.5,95.5C 32.9309,101.789 34.5976,103.956 42.5,102C 47.6455,90.7709 56.3122,85.1042 68.5,85C 77.6387,80.7848 81.6387,73.6181 80.5,63.5C 81.5,63.5 82.5,63.5 83.5,63.5C 84.8494,72.4652 82.0161,79.7985 75,85.5C 74.1714,97.3391 68.6714,106.172 58.5,112C 55.628,114.537 53.128,117.37 51,120.5C 50.4657,124.859 50.6324,129.192 51.5,133.5C 68.8461,133.833 86.1795,133.5 103.5,132.5C 105.856,129.1 108.189,125.767 110.5,122.5 Z M 53.5,103.5 C 56.8991,101.612 59.8991,99.1117 62.5,96C 58.2058,96.7821 55.2058,99.2821 53.5,103.5 Z"/></g>
<g><path style="opacity:1" fill="#e0e1dc" d="M 125.5,81.5 C 128.693,97.409 129.193,113.409 127,129.5C 126.768,130.737 126.268,131.737 125.5,132.5C 119.642,132.822 113.975,132.489 108.5,131.5C 109.529,129.483 110.529,127.483 111.5,125.5C 114.273,121.466 116.94,117.3 119.5,113C 117.438,110.599 115.771,107.933 114.5,105C 115.692,101.251 117.358,97.7505 119.5,94.5C 117.5,92.1667 115.5,89.8333 113.5,87.5C 114.689,83.7212 115.689,79.8878 116.5,76C 115.387,74.6057 114.053,73.439 112.5,72.5C 111.833,68.1667 111.167,63.8333 110.5,59.5C 104.77,57.229 102.27,52.8956 103,46.5C 97.3696,46.71 93.8696,44.0434 92.5,38.5C 89.5535,37.6786 86.5535,37.1786 83.5,37C 82.2567,35.8455 81.2567,34.5122 80.5,33C 92.793,35.4076 102.96,41.5743 111,51.5C 114.394,55.8981 117.394,60.5648 120,65.5C 121.571,70.9643 123.405,76.2977 125.5,81.5 Z"/></g>
<g><path style="opacity:1" fill="#e3e4df" d="M 110.5,122.5 C 108.189,125.767 105.856,129.1 103.5,132.5C 86.1795,133.5 68.8461,133.833 51.5,133.5C 50.6324,129.192 50.4657,124.859 51,120.5C 53.128,117.37 55.628,114.537 58.5,112C 68.6714,106.172 74.1714,97.3391 75,85.5C 82.0161,79.7985 84.8494,72.4652 83.5,63.5C 82.5,63.5 81.5,63.5 80.5,63.5C 81.6387,73.6181 77.6387,80.7848 68.5,85C 56.3122,85.1042 47.6455,90.7709 42.5,102C 34.5976,103.956 32.9309,101.789 37.5,95.5C 37,95.1667 36.5,94.8333 36,94.5C 32.575,95.5912 30.075,97.7578 28.5,101C 27.1667,101.667 25.8333,101.667 24.5,101C 22.6113,98.6182 20.9447,96.1182 19.5,93.5C 19.1632,89.6924 19.6632,86.0257 21,82.5C 25.9055,77.0174 30.5722,71.3508 35,65.5C 36.8444,62.4674 37.8444,59.1341 38,55.5C 39.6107,52.0624 41.7774,49.0624 44.5,46.5C 45.1667,41.1667 45.8333,35.8333 46.5,30.5C 49.1676,32.3355 51.3343,34.6688 53,37.5C 53.066,32.0119 53.8993,26.6785 55.5,21.5C 60.0603,27.2289 65.3936,32.0622 71.5,36C 73.8107,35.8446 76.144,35.8446 78.5,36C 79.2567,37.5122 80.2567,38.8455 81.5,40C 84.1667,40.3333 86.8333,40.6667 89.5,41C 91.0237,46.627 94.6904,49.127 100.5,48.5C 100.89,51.8394 101.39,55.1727 102,58.5C 103.242,59.8721 104.742,60.8721 106.5,61.5C 107.327,65.4592 107.827,69.4592 108,73.5C 109.972,74.3052 111.472,75.6385 112.5,77.5C 111.753,81.1379 111.086,84.8045 110.5,88.5C 111.833,90.8333 113.167,93.1667 114.5,95.5C 113.097,98.7088 112.097,102.042 111.5,105.5C 112.139,108.323 113.473,110.823 115.5,113C 113.574,116.076 111.908,119.242 110.5,122.5 Z"/></g>
<g><path style="opacity:1" fill="#4f4f4d" d="M 22.5,87.5 C 24.9905,88.1081 26.3238,89.7748 26.5,92.5C 24.6842,96.6055 23.0175,96.4389 21.5,92C 22.1476,90.5603 22.4809,89.0603 22.5,87.5 Z"/></g>
<g><path style="opacity:1" fill="#464644" d="M 128.5,81.5 C 127.778,81.0825 127.278,80.4158 127,79.5C 126.722,80.4158 126.222,81.0825 125.5,81.5C 123.405,76.2977 121.571,70.9643 120,65.5C 117.394,60.5648 114.394,55.8981 111,51.5C 102.96,41.5743 92.793,35.4076 80.5,33C 81.2567,34.5122 82.2567,35.8455 83.5,37C 86.5535,37.1786 89.5535,37.6786 92.5,38.5C 93.8696,44.0434 97.3696,46.71 103,46.5C 102.27,52.8956 104.77,57.229 110.5,59.5C 111.167,63.8333 111.833,68.1667 112.5,72.5C 114.053,73.439 115.387,74.6057 116.5,76C 115.689,79.8878 114.689,83.7212 113.5,87.5C 115.5,89.8333 117.5,92.1667 119.5,94.5C 117.358,97.7505 115.692,101.251 114.5,105C 115.771,107.933 117.438,110.599 119.5,113C 116.94,117.3 114.273,121.466 111.5,125.5C 110.897,124.365 110.564,123.365 110.5,122.5C 111.908,119.242 113.574,116.076 115.5,113C 113.473,110.823 112.139,108.323 111.5,105.5C 112.097,102.042 113.097,98.7088 114.5,95.5C 113.167,93.1667 111.833,90.8333 110.5,88.5C 111.086,84.8045 111.753,81.1379 112.5,77.5C 111.472,75.6385 109.972,74.3052 108,73.5C 107.827,69.4592 107.327,65.4592 106.5,61.5C 104.742,60.8721 103.242,59.8721 102,58.5C 101.39,55.1727 100.89,51.8394 100.5,48.5C 94.6904,49.127 91.0237,46.627 89.5,41C 86.8333,40.6667 84.1667,40.3333 81.5,40C 80.2567,38.8455 79.2567,37.5122 78.5,36C 76.144,35.8446 73.8107,35.8446 71.5,36C 65.3936,32.0622 60.0603,27.2289 55.5,21.5C 53.8993,26.6785 53.066,32.0119 53,37.5C 51.3343,34.6688 49.1676,32.3355 46.5,30.5C 46.44,29.9569 46.1067,29.6236 45.5,29.5C 44.5046,35.1278 44.1712,40.7945 44.5,46.5C 41.7774,49.0624 39.6107,52.0624 38,55.5C 37.8444,59.1341 36.8444,62.4674 35,65.5C 30.5722,71.3508 25.9055,77.0174 21,82.5C 19.6632,86.0257 19.1632,89.6924 19.5,93.5C 18.8347,91.3021 18.1681,88.9688 17.5,86.5C 16.5344,88.396 16.2011,90.396 16.5,92.5C 15.1492,89.2277 15.3159,85.8944 17,82.5C 22,76.1667 27,69.8333 32,63.5C 33.8181,59.2299 35.4848,54.8966 37,50.5C 37.9533,48.5448 39.2866,46.8782 41,45.5C 41.1687,38.1441 41.6687,30.8108 42.5,23.5C 45.1117,24.7787 47.4451,26.4453 49.5,28.5C 50.5843,23.9093 52.251,19.576 54.5,15.5C 57.9567,19.4584 61.6233,23.2917 65.5,27C 99.9123,29.5743 120.912,47.741 128.5,81.5 Z"/></g>
<g><path style="opacity:1" fill="#7c7c79" d="M 44.5,58.5 C 44.5,59.5 44.5,60.5 44.5,61.5C 47.1667,61.5 49.8333,61.5 52.5,61.5C 49.7131,62.4767 46.7131,62.81 43.5,62.5C 43.2322,60.901 43.5655,59.5676 44.5,58.5 Z"/></g>
<g><path style="opacity:1" fill="#3d3d3c" d="M 52.5,61.5 C 49.8333,61.5 47.1667,61.5 44.5,61.5C 44.5,60.5 44.5,59.5 44.5,58.5C 44.33,57.1779 44.6634,56.0113 45.5,55C 49.2027,54.4213 52.8694,54.588 56.5,55.5C 56.3775,58.2921 55.0442,60.2921 52.5,61.5 Z"/></g>
<g><path style="opacity:1" fill="#aeaea9" d="M 46.5,30.5 C 45.8333,35.8333 45.1667,41.1667 44.5,46.5C 44.1712,40.7945 44.5046,35.1278 45.5,29.5C 46.1067,29.6236 46.44,29.9569 46.5,30.5 Z"/></g>
<g><path style="opacity:1" fill="#cecec9" d="M 70.5,31.5 C 72.5167,30.126 74.5167,30.2926 76.5,32C 74.4024,32.6776 72.4024,32.5109 70.5,31.5 Z"/></g>
<g><path style="opacity:1" fill="#464645" d="M 55.5,26.5 C 58.2226,29.5863 60.7226,32.9196 63,36.5C 63.6667,38.5 63.6667,40.5 63,42.5C 61.9887,43.3366 60.8221,43.67 59.5,43.5C 59.7852,41.712 59.4519,40.0453 58.5,38.5C 57.2011,37.91 56.3678,36.91 56,35.5C 55.502,32.5184 55.3354,29.5184 55.5,26.5 Z"/></g>
<g><path style="opacity:1" fill="#90908d" d="M 108.5,131.5 C 113.975,132.489 119.642,132.822 125.5,132.5C 119.654,133.817 113.654,133.817 107.5,132.5C 107.624,131.893 107.957,131.56 108.5,131.5 Z"/></g>
</svg>
