<?xml version="1.0" encoding="UTF-8"?>
<!DOCTYPE svg PUBLIC "-//W3C//DTD SVG 1.1//EN" "http://www.w3.org/Graphics/SVG/1.1/DTD/svg11.dtd">
<svg xmlns="http://www.w3.org/2000/svg" version="1.1" width="150px" height="150px" style="shape-rendering:geometricPrecision; text-rendering:geometricPrecision; image-rendering:optimizeQuality; fill-rule:evenodd; clip-rule:evenodd" xmlns:xlink="http://www.w3.org/1999/xlink">
<g><path style="opacity:0.885" fill="#cecdc4" d="M 90.5,36.5 C 88.5,36.5 86.5,36.5 84.5,36.5C 81.8653,29.3808 76.8653,26.8808 69.5,29C 64.1733,31.4866 61.8399,35.6532 62.5,41.5C 60.2188,41.0773 58.5521,41.744 57.5,43.5C 54.9609,32.4377 59.2942,25.271 70.5,22C 81.7086,20.7567 88.3753,25.59 90.5,36.5 Z"/></g>
<g><path style="opacity:1" fill="#474746" d="M 84.5,36.5 C 85.4616,41.7403 83.7949,45.9069 79.5,49C 84.935,53.6194 91.2683,56.286 98.5,57C 100.692,57.926 102.692,59.0927 104.5,60.5C 104.833,61.1667 105.167,61.8333 105.5,62.5C 104.5,62.8333 103.833,63.5 103.5,64.5C 98.9699,60.5476 93.6365,58.3809 87.5,58C 82.9077,55.2061 78.241,52.7061 73.5,50.5C 69.4252,52.3734 65.4252,54.5401 61.5,57C 56.2464,57.9169 51.2464,59.5836 46.5,62C 44.84,63.4877 43.84,65.321 43.5,67.5C 43.1667,67.5 42.8333,67.5 42.5,67.5C 42.44,66.9569 42.1067,66.6236 41.5,66.5C 40.5344,68.396 40.2011,70.396 40.5,72.5C 47.8333,72.5 55.1667,72.5 62.5,72.5C 62.5,72.8333 62.5,73.1667 62.5,73.5C 57.1667,73.5 51.8333,73.5 46.5,73.5C 44.1667,73.5 41.8333,73.5 39.5,73.5C 38.4523,67.8203 40.1189,63.1537 44.5,59.5C 50.124,56.4227 56.124,54.2561 62.5,53C 64.4552,52.0467 66.1218,50.7134 67.5,49C 64.7956,47.1401 63.1289,44.6401 62.5,41.5C 61.8399,35.6532 64.1733,31.4866 69.5,29C 76.8653,26.8808 81.8653,29.3808 84.5,36.5 Z"/></g>
<g><path style="opacity:1" fill="#e2e3de" d="M 71.5,31.5 C 78.0285,31.8571 81.1952,35.1905 81,41.5C 78.6117,46.226 74.7784,47.726 69.5,46C 65.0539,40.3971 65.7206,35.5638 71.5,31.5 Z"/></g>
<g><path style="opacity:0.96" fill="#cdcbc3" d="M 62.5,41.5 C 63.1289,44.6401 64.7956,47.1401 67.5,49C 66.1218,50.7134 64.4552,52.0467 62.5,53C 56.124,54.2561 50.124,56.4227 44.5,59.5C 40.1189,63.1537 38.4523,67.8203 39.5,73.5C 41.8333,73.5 44.1667,73.5 46.5,73.5C 43.0981,75.9971 39.5981,75.9971 36,73.5C 34.967,73.5481 34.6337,73.8814 35,74.5C 39.6647,75.7391 39.498,76.5724 34.5,77C 41.8333,77.3333 49.1667,77.6667 56.5,78C 48.8406,78.4997 41.1739,78.6664 33.5,78.5C 30.8701,59.9637 38.8701,49.797 57.5,48C 57.9662,46.7012 57.9662,45.2012 57.5,43.5C 58.5521,41.744 60.2188,41.0773 62.5,41.5 Z"/></g>
<g><path style="opacity:1" fill="#cbcac1" d="M 84.5,36.5 C 86.5,36.5 88.5,36.5 90.5,36.5C 91.1471,37.2739 91.4805,38.2739 91.5,39.5C 90.8534,42.2332 90.3534,44.8999 90,47.5C 94.1032,48.7895 98.2699,49.9561 102.5,51C 104.093,51.9487 105.426,53.1154 106.5,54.5C 104.83,54.2488 103.33,53.5822 102,52.5C 101.308,53.0253 100.808,53.6919 100.5,54.5C 102.078,55.2978 103.744,55.7978 105.5,56C 105.53,57.4293 105.197,58.9293 104.5,60.5C 102.692,59.0927 100.692,57.926 98.5,57C 91.2683,56.286 84.935,53.6194 79.5,49C 83.7949,45.9069 85.4616,41.7403 84.5,36.5 Z"/></g>
<g><path style="opacity:1" fill="#e3e4df" d="M 103.5,64.5 C 103.5,64.8333 103.5,65.1667 103.5,65.5C 103.5,66.8333 103.5,68.1667 103.5,69.5C 83.1387,70.1547 63.1387,69.488 43.5,67.5C 43.84,65.321 44.84,63.4877 46.5,62C 51.2464,59.5836 56.2464,57.9169 61.5,57C 65.4252,54.5401 69.4252,52.3734 73.5,50.5C 78.241,52.7061 82.9077,55.2061 87.5,58C 93.6365,58.3809 98.9699,60.5476 103.5,64.5 Z"/></g>
<g><path style="opacity:1" fill="#8d8d88" d="M 103.5,65.5 C 104.451,66.9187 104.784,68.5853 104.5,70.5C 83.8333,70.5 63.1667,70.5 42.5,70.5C 42.5,69.5 42.5,68.5 42.5,67.5C 42.8333,67.5 43.1667,67.5 43.5,67.5C 63.1387,69.488 83.1387,70.1547 103.5,69.5C 103.5,68.1667 103.5,66.8333 103.5,65.5 Z"/></g>
<g><path style="opacity:1" fill="#373736" d="M 105.5,62.5 C 106.674,63.5137 107.34,64.847 107.5,66.5C 107.5,68.5 107.5,70.5 107.5,72.5C 99.8333,72.5 92.1667,72.5 84.5,72.5C 77.1667,72.5 69.8333,72.5 62.5,72.5C 55.1667,72.5 47.8333,72.5 40.5,72.5C 40.2011,70.396 40.5344,68.396 41.5,66.5C 42.1067,66.6236 42.44,66.9569 42.5,67.5C 42.5,68.5 42.5,69.5 42.5,70.5C 63.1667,70.5 83.8333,70.5 104.5,70.5C 104.784,68.5853 104.451,66.9187 103.5,65.5C 103.5,65.1667 103.5,64.8333 103.5,64.5C 103.833,63.5 104.5,62.8333 105.5,62.5 Z"/></g>
<g><path style="opacity:1" fill="#6f6f6b" d="M 107.5,66.5 C 108.468,68.6074 108.802,70.9407 108.5,73.5C 100.5,73.5 92.5,73.5 84.5,73.5C 84.5,73.1667 84.5,72.8333 84.5,72.5C 92.1667,72.5 99.8333,72.5 107.5,72.5C 107.5,70.5 107.5,68.5 107.5,66.5 Z"/></g>
<g><path style="opacity:0.965" fill="#ceccc4" d="M 106.5,54.5 C 110.195,56.8694 112.695,60.2027 114,64.5C 114.499,69.4889 114.666,74.4889 114.5,79.5C 106.826,79.3336 99.1594,79.5003 91.5,80C 97.0068,86.855 99.3401,94.6883 98.5,103.5C 97.71,102.391 97.21,101.058 97,99.5C 95.9887,100.337 94.8221,100.67 93.5,100.5C 93.5,99.5 93.5,98.5 93.5,97.5C 94.8221,97.33 95.9887,97.6634 97,98.5C 97.6667,97.5 97.6667,96.5 97,95.5C 95.6439,96.3802 94.1439,96.7135 92.5,96.5C 90.5406,91.2478 88.0406,86.2478 85,81.5C 84.5026,78.854 84.3359,76.1873 84.5,73.5C 92.5,73.5 100.5,73.5 108.5,73.5C 108.802,70.9407 108.468,68.6074 107.5,66.5C 107.34,64.847 106.674,63.5137 105.5,62.5C 105.167,61.8333 104.833,61.1667 104.5,60.5C 105.197,58.9293 105.53,57.4293 105.5,56C 103.744,55.7978 102.078,55.2978 100.5,54.5C 100.808,53.6919 101.308,53.0253 102,52.5C 103.33,53.5822 104.83,54.2488 106.5,54.5 Z"/></g>
<g><path style="opacity:1" fill="#ceccc3" d="M 46.5,73.5 C 51.8333,73.5 57.1667,73.5 62.5,73.5C 63.3134,78.461 62.1467,82.7944 59,86.5C 57.2406,90.0087 56.074,93.6754 55.5,97.5C 54.5318,99.6074 54.1984,101.941 54.5,104.5C 52.8762,104.36 51.7096,105.027 51,106.5C 50.6174,105.944 50.1174,105.611 49.5,105.5C 48.2581,96.2978 50.2581,87.7978 55.5,80C 47.9885,79.8288 40.6552,79.3288 33.5,78.5C 41.1739,78.6664 48.8406,78.4997 56.5,78C 49.1667,77.6667 41.8333,77.3333 34.5,77C 39.498,76.5724 39.6647,75.7391 35,74.5C 34.6337,73.8814 34.967,73.5481 36,73.5C 39.5981,75.9971 43.0981,75.9971 46.5,73.5 Z"/></g>
<g><path style="opacity:0.912" fill="#cdcbc3" d="M 98.5,103.5 C 98.6126,106.049 97.9459,108.382 96.5,110.5C 103.83,112.157 109.83,115.824 114.5,121.5C 115.087,122.767 115.087,123.767 114.5,124.5C 110.898,121.912 108.064,119.245 106,116.5C 104.173,117.662 102.506,117.328 101,115.5C 100.645,116.509 99.8121,117.176 98.5,117.5C 94.8333,117.5 91.1667,117.5 87.5,117.5C 87.0395,112.756 88.5395,108.756 92,105.5C 92.498,102.518 92.6646,99.5184 92.5,96.5C 94.1439,96.7135 95.6439,96.3802 97,95.5C 97.6667,96.5 97.6667,97.5 97,98.5C 95.9887,97.6634 94.8221,97.33 93.5,97.5C 93.5,98.5 93.5,99.5 93.5,100.5C 94.8221,100.67 95.9887,100.337 97,99.5C 97.21,101.058 97.71,102.391 98.5,103.5 Z"/></g>
<g><path style="opacity:1" fill="#424241" d="M 84.5,72.5 C 84.5,72.8333 84.5,73.1667 84.5,73.5C 84.3359,76.1873 84.5026,78.854 85,81.5C 88.0406,86.2478 90.5406,91.2478 92.5,96.5C 92.6646,99.5184 92.498,102.518 92,105.5C 88.5395,108.756 87.0395,112.756 87.5,117.5C 91.1667,117.5 94.8333,117.5 98.5,117.5C 105.072,119.737 109.738,124.07 112.5,130.5C 111.272,131.306 110.272,132.306 109.5,133.5C 109.5,133.167 109.5,132.833 109.5,132.5C 109.415,130.071 108.415,128.071 106.5,126.5C 104.203,123.529 101.203,121.862 97.5,121.5C 81.672,120.339 65.672,120.172 49.5,121C 48.5842,121.278 47.9175,121.778 47.5,122.5C 43.2329,123.768 40.2329,126.435 38.5,130.5C 37.8333,130.5 37.5,130.833 37.5,131.5C 36.609,130.89 35.609,130.557 34.5,130.5C 37.2213,123.613 42.2213,119.446 49.5,118C 52.8168,117.502 56.1501,117.335 59.5,117.5C 60.2008,113.181 59.0341,109.514 56,106.5C 55.502,103.518 55.3354,100.518 55.5,97.5C 56.074,93.6754 57.2406,90.0087 59,86.5C 62.1467,82.7944 63.3134,78.461 62.5,73.5C 62.5,73.1667 62.5,72.8333 62.5,72.5C 69.8333,72.5 77.1667,72.5 84.5,72.5 Z"/></g>
<g><path style="opacity:1" fill="#9e9e99" d="M 63.5,110.5 C 63.5,111.5 63.5,112.5 63.5,113.5C 63.5,114.5 63.5,115.5 63.5,116.5C 69.5,116.5 75.5,116.5 81.5,116.5C 82.5,116.5 83.5,116.5 84.5,116.5C 77.3524,117.492 70.0191,117.825 62.5,117.5C 62.1984,114.941 62.5318,112.607 63.5,110.5 Z"/></g>
<g><path style="opacity:1" fill="#e6e7e2" d="M 81.5,116.5 C 75.5,116.5 69.5,116.5 63.5,116.5C 63.5,115.5 63.5,114.5 63.5,113.5C 64.807,111.777 64.807,109.943 63.5,108C 66.1667,107.667 68.8333,107.333 71.5,107C 68.8325,104.591 68.9992,103.424 72,103.5C 75.0022,103.997 77.0022,105.663 78,108.5C 79.3876,107.446 80.8876,107.28 82.5,108C 82.0183,109.008 81.8516,110.175 82,111.5C 81.3457,110.304 80.8457,110.304 80.5,111.5C 81.376,112.251 82.376,112.751 83.5,113C 81.0614,113.533 80.3948,114.7 81.5,116.5 Z"/></g>
<g><path style="opacity:1" fill="#e3e4df" d="M 66.5,82.5 C 67.2216,82.9175 67.7216,83.5842 68,84.5C 69.0665,82.7174 70.5665,82.2174 72.5,83C 71.5,83.8333 70.5,84.6667 69.5,85.5C 69.9377,86.5063 70.6043,86.5063 71.5,85.5C 72.521,86.0016 72.6877,86.6683 72,87.5C 70.0245,88.4279 68.1911,89.5946 66.5,91C 68.8907,91.2868 71.2241,91.7868 73.5,92.5C 73.8333,92.1667 74.1667,91.8333 74.5,91.5C 72.0031,89.4477 72.3365,87.781 75.5,86.5C 78.3591,86.8994 81.0258,87.7327 83.5,89C 82.376,89.2492 81.376,89.7492 80.5,90.5C 81.5301,90.5545 82.6967,90.8878 84,91.5C 84.49,90.2068 84.6567,88.8734 84.5,87.5C 85.1174,87.6107 85.6174,87.944 86,88.5C 87.2506,92.2494 88.0839,96.0828 88.5,100C 86.668,105.399 85.3346,110.899 84.5,116.5C 83.5,116.5 82.5,116.5 81.5,116.5C 80.3948,114.7 81.0614,113.533 83.5,113C 82.376,112.751 81.376,112.251 80.5,111.5C 80.8457,110.304 81.3457,110.304 82,111.5C 81.8516,110.175 82.0183,109.008 82.5,108C 80.8876,107.28 79.3876,107.446 78,108.5C 77.0022,105.663 75.0022,103.997 72,103.5C 68.9992,103.424 68.8325,104.591 71.5,107C 68.8333,107.333 66.1667,107.667 63.5,108C 64.807,109.943 64.807,111.777 63.5,113.5C 63.5,112.5 63.5,111.5 63.5,110.5C 58.4349,105.359 57.2683,99.3586 60,92.5C 61.4442,88.5891 63.6109,85.2558 66.5,82.5 Z"/></g>
<g><path style="opacity:1" fill="#e2e3de" d="M 84.5,87.5 C 84.6567,88.8734 84.49,90.2068 84,91.5C 82.6967,90.8878 81.5301,90.5545 80.5,90.5C 81.376,89.7492 82.376,89.2492 83.5,89C 81.0258,87.7327 78.3591,86.8994 75.5,86.5C 72.3365,87.781 72.0031,89.4477 74.5,91.5C 74.1667,91.8333 73.8333,92.1667 73.5,92.5C 71.2241,91.7868 68.8907,91.2868 66.5,91C 68.1911,89.5946 70.0245,88.4279 72,87.5C 72.6877,86.6683 72.521,86.0016 71.5,85.5C 70.6043,86.5063 69.9377,86.5063 69.5,85.5C 70.5,84.6667 71.5,83.8333 72.5,83C 70.5665,82.2174 69.0665,82.7174 68,84.5C 67.7216,83.5842 67.2216,82.9175 66.5,82.5C 66.5,79.5 66.5,76.5 66.5,73.5C 71.5,73.5 76.5,73.5 81.5,73.5C 80.9097,78.5948 81.9097,83.2615 84.5,87.5 Z"/></g>
<g><path style="opacity:0.714" fill="#cccbc2" d="M 55.5,97.5 C 55.3354,100.518 55.502,103.518 56,106.5C 59.0341,109.514 60.2008,113.181 59.5,117.5C 56.1501,117.335 52.8168,117.502 49.5,118C 42.2213,119.446 37.2213,123.613 34.5,130.5C 34.5,132.167 34.5,133.833 34.5,135.5C 60.6614,136.498 86.9947,136.831 113.5,136.5C 113.795,134.265 113.461,132.265 112.5,130.5C 109.738,124.07 105.072,119.737 98.5,117.5C 99.8121,117.176 100.645,116.509 101,115.5C 102.506,117.328 104.173,117.662 106,116.5C 108.064,119.245 110.898,121.912 114.5,124.5C 115.087,123.767 115.087,122.767 114.5,121.5C 116.474,123.428 117.974,125.761 119,128.5C 120.122,133.102 120.622,137.768 120.5,142.5C 89.5,142.5 58.5,142.5 27.5,142.5C 26.2009,125.407 33.8676,115.074 50.5,111.5C 50.4828,109.435 50.1495,107.435 49.5,105.5C 50.1174,105.611 50.6174,105.944 51,106.5C 51.7096,105.027 52.8762,104.36 54.5,104.5C 54.1984,101.941 54.5318,99.6074 55.5,97.5 Z"/></g>
<g><path style="opacity:1" fill="#e5e6e1" d="M 96.5,121.5 C 96.8333,121.5 97.1667,121.5 97.5,121.5C 101.203,121.862 104.203,123.529 106.5,126.5C 108.415,128.071 109.415,130.071 109.5,132.5C 99.1667,132.5 88.8333,132.5 78.5,132.5C 77.1879,130.521 75.5212,128.855 73.5,127.5C 74.6651,126.416 75.9984,125.583 77.5,125C 76.9056,124.536 76.2389,124.369 75.5,124.5C 82.2741,122.849 89.2741,121.849 96.5,121.5 Z"/></g>
<g><path style="opacity:1" fill="#e7e8e3" d="M 51.5,122.5 C 66.324,121.504 81.324,121.171 96.5,121.5C 89.2741,121.849 82.2741,122.849 75.5,124.5C 72.3323,126.248 68.999,127.748 65.5,129C 66.9494,130.117 68.6161,130.784 70.5,131C 63.144,131.831 55.8107,131.665 48.5,130.5C 50.9865,130.249 53.3199,129.749 55.5,129C 54.0439,128.577 53.5439,127.744 54,126.5C 54.3333,126.833 54.6667,127.167 55,127.5C 58.0265,126.434 61.1931,125.6 64.5,125C 60.2373,123.841 55.9039,123.007 51.5,122.5 Z"/></g>
<g><path style="opacity:1" fill="#e3e4df" d="M 47.5,122.5 C 48.8333,122.5 50.1667,122.5 51.5,122.5C 55.9039,123.007 60.2373,123.841 64.5,125C 61.1931,125.6 58.0265,126.434 55,127.5C 54.6667,127.167 54.3333,126.833 54,126.5C 53.5439,127.744 54.0439,128.577 55.5,129C 53.3199,129.749 50.9865,130.249 48.5,130.5C 55.8107,131.665 63.144,131.831 70.5,131C 68.6161,130.784 66.9494,130.117 65.5,129C 68.999,127.748 72.3323,126.248 75.5,124.5C 76.2389,124.369 76.9056,124.536 77.5,125C 75.9984,125.583 74.6651,126.416 73.5,127.5C 75.5212,128.855 77.1879,130.521 78.5,132.5C 64.7914,133.148 51.4581,132.481 38.5,130.5C 40.2329,126.435 43.2329,123.768 47.5,122.5 Z"/></g>
<g><path style="opacity:1" fill="#cdcbc3" d="M 97.5,121.5 C 97.1667,121.5 96.8333,121.5 96.5,121.5C 81.324,121.171 66.324,121.504 51.5,122.5C 50.1667,122.5 48.8333,122.5 47.5,122.5C 47.9175,121.778 48.5842,121.278 49.5,121C 65.672,120.172 81.672,120.339 97.5,121.5 Z"/></g>
<g><path style="opacity:1" fill="#373736" d="M 34.5,130.5 C 35.609,130.557 36.609,130.89 37.5,131.5C 61.1434,133.49 85.1434,134.157 109.5,133.5C 110.272,132.306 111.272,131.306 112.5,130.5C 112.5,132.167 112.5,133.833 112.5,135.5C 86.5,135.5 60.5,135.5 34.5,135.5C 34.5,133.833 34.5,132.167 34.5,130.5 Z"/></g>
<g><path style="opacity:1" fill="#959591" d="M 38.5,130.5 C 51.4581,132.481 64.7914,133.148 78.5,132.5C 88.8333,132.5 99.1667,132.5 109.5,132.5C 109.5,132.833 109.5,133.167 109.5,133.5C 85.1434,134.157 61.1434,133.49 37.5,131.5C 37.5,130.833 37.8333,130.5 38.5,130.5 Z"/></g>
<g><path style="opacity:1" fill="#585856" d="M 112.5,130.5 C 113.461,132.265 113.795,134.265 113.5,136.5C 86.9947,136.831 60.6614,136.498 34.5,135.5C 60.5,135.5 86.5,135.5 112.5,135.5C 112.5,133.833 112.5,132.167 112.5,130.5 Z"/></g>
</svg>
