<?xml version="1.0" encoding="UTF-8"?>
<!DOCTYPE svg PUBLIC "-//W3C//DTD SVG 1.1//EN" "http://www.w3.org/Graphics/SVG/1.1/DTD/svg11.dtd">
<svg xmlns="http://www.w3.org/2000/svg" version="1.1" width="150px" height="150px" style="shape-rendering:geometricPrecision; text-rendering:geometricPrecision; image-rendering:optimizeQuality; fill-rule:evenodd; clip-rule:evenodd" xmlns:xlink="http://www.w3.org/1999/xlink">
<g><path style="opacity:0.616" fill="#cecdc4" d="M 66.5,18.5 C 65.2073,19.6448 64.0407,19.3115 63,17.5C 63.0773,18.7376 62.9106,19.7376 62.5,20.5C 60.5914,19.6518 58.5914,19.3184 56.5,19.5C 52.0712,18.8867 48.4046,20.22 45.5,23.5C 44.3588,22.661 43.0255,21.9943 41.5,21.5C 37.761,26.1239 37.761,30.6239 41.5,35C 41.1667,35.3333 40.8333,35.6667 40.5,36C 41.5,36.3333 42.5,36.6667 43.5,37C 42.2625,37.2321 41.2625,37.7321 40.5,38.5C 35.8356,30.3242 36.8356,22.8242 43.5,16C 51.9491,10.7351 59.6157,11.5684 66.5,18.5 Z"/></g>
<g><path style="opacity:1" fill="#cfcec5" d="M 101.5,15.5 C 101.189,16.4778 100.522,17.1445 99.5,17.5C 97.5781,16.289 95.7448,14.9557 94,13.5C 92.7817,15.0192 91.2817,16.1859 89.5,17C 91.6928,16.4303 93.6928,16.7637 95.5,18C 93.9419,18.21 92.6085,18.71 91.5,19.5C 87.5925,20.407 84.9258,22.7404 83.5,26.5C 82.0693,24.7318 80.4027,24.0651 78.5,24.5C 79.2458,23.2638 79.5792,21.9305 79.5,20.5C 81.2055,16.6213 84.2055,14.1213 88.5,13C 93.3471,11.8438 97.6804,12.6771 101.5,15.5 Z"/></g>
<g><path style="opacity:0.65" fill="#cdccc3" d="M 101.5,15.5 C 107.073,18.1283 109.74,22.6283 109.5,29C 109.527,34.4238 107.527,38.9238 103.5,42.5C 104.348,44.4086 104.682,46.4086 104.5,48.5C 104.649,49.552 104.483,50.552 104,51.5C 102.883,50.0506 102.216,48.3839 102,46.5C 101.781,47.938 101.281,49.2713 100.5,50.5C 99.0623,48.0023 99.3956,45.8356 101.5,44C 100.552,43.5172 99.552,43.3505 98.5,43.5C 98.7373,42.209 98.404,41.209 97.5,40.5C 99.3713,38.3724 101.038,36.0391 102.5,33.5C 105.012,24.3193 101.346,19.6527 91.5,19.5C 92.6085,18.71 93.9419,18.21 95.5,18C 93.6928,16.7637 91.6928,16.4303 89.5,17C 91.2817,16.1859 92.7817,15.0192 94,13.5C 95.7448,14.9557 97.5781,16.289 99.5,17.5C 100.522,17.1445 101.189,16.4778 101.5,15.5 Z"/></g>
<g><path style="opacity:1" fill="#414140" d="M 56.5,19.5 C 63.2859,21.9499 65.6192,26.6166 63.5,33.5C 62.8333,33.1667 62.1667,32.8333 61.5,32.5C 61.845,25.343 58.5116,22.1763 51.5,23C 47.0517,26.3562 46.3851,30.3562 49.5,35C 51.0249,36.0086 52.6916,36.5086 54.5,36.5C 55.9217,36.7086 57.255,37.2086 58.5,38C 55.3348,37.6327 52.3348,37.7994 49.5,38.5C 44.6863,34.5565 43.353,29.5565 45.5,23.5C 48.4046,20.22 52.0712,18.8867 56.5,19.5 Z"/></g>
<g><path style="opacity:1" fill="#414140" d="M 91.5,19.5 C 101.346,19.6527 105.012,24.3193 102.5,33.5C 101.833,32.8333 101.167,32.1667 100.5,31.5C 100.36,24.8576 97.0266,22.0242 90.5,23C 86.2929,26.0696 85.4595,29.903 88,34.5C 90.5645,36.1793 93.3979,36.846 96.5,36.5C 94.2209,37.6515 91.8876,38.6515 89.5,39.5C 88.5987,40.2905 87.9321,41.2905 87.5,42.5C 86.5,42.1667 85.8333,41.5 85.5,40.5C 86.8028,37.8806 86.3028,35.5472 84,33.5C 83.5034,31.1902 83.3367,28.8568 83.5,26.5C 84.9258,22.7404 87.5925,20.407 91.5,19.5 Z"/></g>
<g><path style="opacity:1" fill="#c8c8bf" d="M 45.5,23.5 C 43.353,29.5565 44.6863,34.5565 49.5,38.5C 50.1524,39.4486 50.4857,40.6153 50.5,42C 50.6068,44.2206 49.9402,46.0539 48.5,47.5C 48.3573,45.7376 48.6906,44.0709 49.5,42.5C 46.0923,41.9013 43.0923,40.5679 40.5,38.5C 41.2625,37.7321 42.2625,37.2321 43.5,37C 42.5,36.6667 41.5,36.3333 40.5,36C 40.8333,35.6667 41.1667,35.3333 41.5,35C 37.761,30.6239 37.761,26.1239 41.5,21.5C 43.0255,21.9943 44.3588,22.661 45.5,23.5 Z"/></g>
<g><path style="opacity:0.617" fill="#cdccc3" d="M 66.5,18.5 C 70.9475,24.469 71.6142,30.969 68.5,38C 69.9056,39.978 70.9056,42.1447 71.5,44.5C 71.4208,45.9305 71.7542,47.2638 72.5,48.5C 70.9547,49.4519 69.288,49.7852 67.5,49.5C 64.9861,45.8056 62.9861,41.8056 61.5,37.5C 62.1799,36.1401 62.8466,34.8068 63.5,33.5C 65.6192,26.6166 63.2859,21.9499 56.5,19.5C 58.5914,19.3184 60.5914,19.6518 62.5,20.5C 62.9106,19.7376 63.0773,18.7376 63,17.5C 64.0407,19.3115 65.2073,19.6448 66.5,18.5 Z"/></g>
<g><path style="opacity:1" fill="#ddddd8" d="M 61.5,32.5 C 59.5082,34.5638 57.1748,35.8971 54.5,36.5C 52.6916,36.5086 51.0249,36.0086 49.5,35C 46.3851,30.3562 47.0517,26.3562 51.5,23C 58.5116,22.1763 61.845,25.343 61.5,32.5 Z"/></g>
<g><path style="opacity:1" fill="#dbdbd6" d="M 100.5,31.5 C 99.197,33.1423 97.8637,34.8089 96.5,36.5C 93.3979,36.846 90.5645,36.1793 88,34.5C 85.4595,29.903 86.2929,26.0696 90.5,23C 97.0266,22.0242 100.36,24.8576 100.5,31.5 Z"/></g>
<g><path style="opacity:1" fill="#474746" d="M 61.5,32.5 C 62.1667,32.8333 62.8333,33.1667 63.5,33.5C 62.8466,34.8068 62.1799,36.1401 61.5,37.5C 62.9861,41.8056 64.9861,45.8056 67.5,49.5C 68.9885,51.6451 69.9885,53.9785 70.5,56.5C 69.5,56.8333 68.8333,57.5 68.5,58.5C 65.1076,52.7196 61.9409,46.7196 59,40.5C 57.3005,39.5939 55.4672,39.2606 53.5,39.5C 52.0582,49.8177 50.7249,60.1511 49.5,70.5C 48.6618,70.8417 48.3284,71.5084 48.5,72.5C 47.7784,72.0825 47.2784,71.4158 47,70.5C 46.0764,72.4951 44.9097,72.8284 43.5,71.5C 45.3103,68.6279 46.3103,65.2946 46.5,61.5C 47.6437,57.0363 48.3104,52.3696 48.5,47.5C 49.9402,46.0539 50.6068,44.2206 50.5,42C 50.4857,40.6153 50.1524,39.4486 49.5,38.5C 52.3348,37.7994 55.3348,37.6327 58.5,38C 57.255,37.2086 55.9217,36.7086 54.5,36.5C 57.1748,35.8971 59.5082,34.5638 61.5,32.5 Z"/></g>
<g><path style="opacity:0.518" fill="#cecdc4" d="M 139.5,48.5 C 137.627,46.2569 135.627,46.0902 133.5,48C 134.833,48.3333 136.167,48.6667 137.5,49C 135.527,49.4955 133.527,49.6621 131.5,49.5C 125.792,48.3536 121.792,50.3536 119.5,55.5C 117.588,56.9801 116.421,58.9801 116,61.5C 114.582,58.999 113.582,59.3323 113,62.5C 112.667,62.1667 112.333,61.8333 112,61.5C 110.333,62.5 109,63.8333 108,65.5C 104.347,61.8901 103.014,57.5568 104,52.5C 104.156,55.1909 104.989,57.5242 106.5,59.5C 106.369,60.2389 106.536,60.9056 107,61.5C 108.586,60.624 110.086,59.624 111.5,58.5C 115.324,42.9196 124.324,38.7529 138.5,46C 139.252,46.6708 139.586,47.5041 139.5,48.5 Z"/></g>
<g><path style="opacity:1" fill="#cecdc4" d="M 31.5,48.5 C 30.0536,49.6129 28.3869,49.7796 26.5,49C 27.2052,47.4435 26.5385,46.2768 24.5,45.5C 22.5985,46.8551 20.2652,48.1884 17.5,49.5C 10.5035,51.8638 8.83686,56.1972 12.5,62.5C 14.2485,65.375 16.9152,66.7083 20.5,66.5C 21.1667,69.1667 21.8333,71.8333 22.5,74.5C 20.3469,73.4271 18.3469,73.4271 16.5,74.5C 12.7922,71.8732 9.29224,68.8732 6,65.5C 1.79767,55.821 4.29767,48.321 13.5,43C 20.8283,41.0181 26.8283,42.8515 31.5,48.5 Z"/></g>
<g><path style="opacity:1" fill="#cccbc2" d="M 79.5,20.5 C 79.5792,21.9305 79.2458,23.2638 78.5,24.5C 80.4027,24.0651 82.0693,24.7318 83.5,26.5C 83.3367,28.8568 83.5034,31.1902 84,33.5C 86.3028,35.5472 86.8028,37.8806 85.5,40.5C 81.1725,47.1491 77.3392,54.1491 74,61.5C 72.8111,59.7669 71.6444,58.1002 70.5,56.5C 69.9885,53.9785 68.9885,51.6451 67.5,49.5C 69.288,49.7852 70.9547,49.4519 72.5,48.5C 71.7542,47.2638 71.4208,45.9305 71.5,44.5C 72.3149,45.4293 73.1482,46.4293 74,47.5C 75.3333,44.8333 76.6667,42.1667 78,39.5C 77.5355,36.0664 77.0355,32.5664 76.5,29C 76.2445,25.592 77.2445,22.7586 79.5,20.5 Z"/></g>
<g><path style="opacity:1" fill="#464644" d="M 100.5,31.5 C 101.167,32.1667 101.833,32.8333 102.5,33.5C 101.038,36.0391 99.3713,38.3724 97.5,40.5C 98.3887,51.0535 100.389,61.3868 103.5,71.5C 104.417,70.8728 105.417,70.5394 106.5,70.5C 107.5,70.8333 108.167,71.5 108.5,72.5C 105.711,74.6405 102.711,76.3072 99.5,77.5C 99.4828,75.4352 99.1495,73.4352 98.5,71.5C 98.4613,67.2671 97.7947,63.2671 96.5,59.5C 96.5,59.1667 96.5,58.8333 96.5,58.5C 95.6459,52.1879 94.9793,45.8545 94.5,39.5C 92.8333,39.5 91.1667,39.5 89.5,39.5C 91.8876,38.6515 94.2209,37.6515 96.5,36.5C 97.8637,34.8089 99.197,33.1423 100.5,31.5 Z"/></g>
<g><path style="opacity:1" fill="#cbcac2" d="M 139.5,48.5 C 144.587,54.5408 144.754,60.8741 140,67.5C 137.264,69.7519 134.431,71.7519 131.5,73.5C 128.909,74.2543 127.076,75.921 126,78.5C 125.658,76.3808 124.825,76.0474 123.5,77.5C 124.631,74.1109 125.964,70.7775 127.5,67.5C 135.521,65.9795 138.354,61.3129 136,53.5C 134.603,51.9297 133.103,50.5964 131.5,49.5C 133.527,49.6621 135.527,49.4955 137.5,49C 136.167,48.6667 134.833,48.3333 133.5,48C 135.627,46.0902 137.627,46.2569 139.5,48.5 Z"/></g>
<g><path style="opacity:1" fill="#444443" d="M 17.5,49.5 C 25.5602,49.8983 29.5602,54.2317 29.5,62.5C 34.1843,65.5263 38.8509,68.5263 43.5,71.5C 44.9097,72.8284 46.0764,72.4951 47,70.5C 47.2784,71.4158 47.7784,72.0825 48.5,72.5C 48.2041,74.403 47.5375,76.0697 46.5,77.5C 46.1667,77.5 45.8333,77.5 45.5,77.5C 39.7408,73.1092 33.7408,68.9426 27.5,65C 26.552,64.5172 25.552,64.3505 24.5,64.5C 24.1667,63.5 23.5,62.8333 22.5,62.5C 26.0448,57.3515 24.8782,54.0181 19,52.5C 14.3112,53.8777 12.8112,56.8777 14.5,61.5C 13.5084,61.3284 12.8417,61.6618 12.5,62.5C 8.83686,56.1972 10.5035,51.8638 17.5,49.5 Z"/></g>
<g><path style="opacity:1" fill="#cfcec5" d="M 40.5,38.5 C 43.0923,40.5679 46.0923,41.9013 49.5,42.5C 48.6906,44.0709 48.3573,45.7376 48.5,47.5C 48.3104,52.3696 47.6437,57.0363 46.5,61.5C 45.7961,59.6558 44.4628,59.1558 42.5,60C 43.6956,60.6543 43.6956,61.1543 42.5,61.5C 41.8165,61.1373 41.1499,60.8039 40.5,60.5C 41.1736,54.4435 42.1736,48.4435 43.5,42.5C 42.4756,41.1482 41.4756,39.8149 40.5,38.5 Z"/></g>
<g><path style="opacity:1" fill="#e1e1dd" d="M 89.5,39.5 C 91.1667,39.5 92.8333,39.5 94.5,39.5C 94.9793,45.8545 95.6459,52.1879 96.5,58.5C 93.49,60.1168 90.1567,60.9502 86.5,61C 85.3523,62.6487 84.019,64.1487 82.5,65.5C 81.4937,65.0623 81.4937,64.3957 82.5,63.5C 80.8327,62.3336 79.166,62.3336 77.5,63.5C 80.5629,56.3741 83.8962,49.3741 87.5,42.5C 87.9321,41.2905 88.5987,40.2905 89.5,39.5 Z"/></g>
<g><path style="opacity:1" fill="#434342" d="M 131.5,49.5 C 133.103,50.5964 134.603,51.9297 136,53.5C 138.354,61.3129 135.521,65.9795 127.5,67.5C 125.964,70.7775 124.631,74.1109 123.5,77.5C 122.833,78.8333 122.167,80.1667 121.5,81.5C 120.094,81.0269 119.427,80.0269 119.5,78.5C 120.782,73.6523 122.448,68.9856 124.5,64.5C 118.663,66.0851 113.33,68.7518 108.5,72.5C 108.167,71.5 107.5,70.8333 106.5,70.5C 110.187,67.5003 114.187,64.8336 118.5,62.5C 119.474,60.2573 119.808,57.924 119.5,55.5C 121.792,50.3536 125.792,48.3536 131.5,49.5 Z"/></g>
<g><path style="opacity:1" fill="#e1e2dd" d="M 68.5,58.5 C 69.1098,59.391 69.4431,60.391 69.5,61.5C 68.8826,61.3893 68.3826,61.056 68,60.5C 67,62.1667 65.6667,63.5 64,64.5C 62.8904,62.9632 61.3904,62.2965 59.5,62.5C 59.2865,60.8561 59.6198,59.3561 60.5,58C 58.6951,57.028 57.0284,55.8613 55.5,54.5C 51.7505,57.1672 51.7505,59.6672 55.5,62C 51.9114,63.6742 50.2447,66.5075 50.5,70.5C 50.1667,70.5 49.8333,70.5 49.5,70.5C 50.7249,60.1511 52.0582,49.8177 53.5,39.5C 55.4672,39.2606 57.3005,39.5939 59,40.5C 61.9409,46.7196 65.1076,52.7196 68.5,58.5 Z"/></g>
<g><path style="opacity:1" fill="#dadbd6" d="M 22.5,62.5 C 19.5451,64.09 16.8784,63.7567 14.5,61.5C 12.8112,56.8777 14.3112,53.8777 19,52.5C 24.8782,54.0181 26.0448,57.3515 22.5,62.5 Z"/></g>
<g><path style="opacity:1" fill="#dbdcd7" d="M 125.5,52.5 C 131.665,51.8293 134.165,54.496 133,60.5C 129.255,64.5661 125.922,64.2327 123,59.5C 122.333,58.1667 122.333,56.8333 123,55.5C 124.045,54.6266 124.878,53.6266 125.5,52.5 Z"/></g>
<g><path style="opacity:1" fill="#434342" d="M 85.5,40.5 C 85.8333,41.5 86.5,42.1667 87.5,42.5C 83.8962,49.3741 80.5629,56.3741 77.5,63.5C 76.2632,64.9649 75.2632,66.6316 74.5,68.5C 73.8333,68.1667 73.1667,67.8333 72.5,67.5C 72.0075,65.1815 71.0075,63.1815 69.5,61.5C 69.4431,60.391 69.1098,59.391 68.5,58.5C 68.8333,57.5 69.5,56.8333 70.5,56.5C 71.6444,58.1002 72.8111,59.7669 74,61.5C 77.3392,54.1491 81.1725,47.1491 85.5,40.5 Z"/></g>
<g><path style="opacity:1" fill="#cccbc3" d="M 31.5,48.5 C 33.3966,51.5054 34.7299,54.8387 35.5,58.5C 36.914,59.624 38.414,60.624 40,61.5C 40.3988,61.2716 40.5654,60.9382 40.5,60.5C 41.1499,60.8039 41.8165,61.1373 42.5,61.5C 43.6956,61.1543 43.6956,60.6543 42.5,60C 44.4628,59.1558 45.7961,59.6558 46.5,61.5C 46.3103,65.2946 45.3103,68.6279 43.5,71.5C 38.8509,68.5263 34.1843,65.5263 29.5,62.5C 29.5602,54.2317 25.5602,49.8983 17.5,49.5C 20.2652,48.1884 22.5985,46.8551 24.5,45.5C 26.5385,46.2768 27.2052,47.4435 26.5,49C 28.3869,49.7796 30.0536,49.6129 31.5,48.5 Z"/></g>
<g><path style="opacity:1" fill="#e5e6e1" d="M 69.5,61.5 C 71.0075,63.1815 72.0075,65.1815 72.5,67.5C 72.4142,68.4959 72.7476,69.3292 73.5,70C 72.5509,70.6172 71.7175,70.4506 71,69.5C 69.6658,70.8779 69.4991,72.2113 70.5,73.5C 68.9681,74.3696 67.4681,74.0362 66,72.5C 64.9326,73.1905 63.7659,73.6905 62.5,74C 63.938,74.2189 65.2713,74.7189 66.5,75.5C 66.3333,75.8333 66.1667,76.1667 66,76.5C 64.2041,75.233 62.3707,75.233 60.5,76.5C 60.1667,75.8333 59.8333,75.1667 59.5,74.5C 58.8165,74.8627 58.1499,75.1961 57.5,75.5C 53.3664,75.3574 51.0331,73.6908 50.5,70.5C 50.2447,66.5075 51.9114,63.6742 55.5,62C 51.7505,59.6672 51.7505,57.1672 55.5,54.5C 57.0284,55.8613 58.6951,57.028 60.5,58C 59.6198,59.3561 59.2865,60.8561 59.5,62.5C 61.3904,62.2965 62.8904,62.9632 64,64.5C 65.6667,63.5 67,62.1667 68,60.5C 68.3826,61.056 68.8826,61.3893 69.5,61.5 Z"/></g>
<g><path style="opacity:1" fill="#c9c8c0" d="M 97.5,40.5 C 98.404,41.209 98.7373,42.209 98.5,43.5C 99.552,43.3505 100.552,43.5172 101.5,44C 99.3956,45.8356 99.0623,48.0023 100.5,50.5C 101.281,49.2713 101.781,47.938 102,46.5C 102.216,48.3839 102.883,50.0506 104,51.5C 104.483,50.552 104.649,49.552 104.5,48.5C 105.687,51.9458 106.354,55.6125 106.5,59.5C 104.989,57.5242 104.156,55.1909 104,52.5C 103.014,57.5568 104.347,61.8901 108,65.5C 109,63.8333 110.333,62.5 112,61.5C 112.333,61.8333 112.667,62.1667 113,62.5C 113.582,59.3323 114.582,58.999 116,61.5C 116.421,58.9801 117.588,56.9801 119.5,55.5C 119.808,57.924 119.474,60.2573 118.5,62.5C 114.187,64.8336 110.187,67.5003 106.5,70.5C 105.417,70.5394 104.417,70.8728 103.5,71.5C 100.389,61.3868 98.3887,51.0535 97.5,40.5 Z"/></g>
<g><path style="opacity:1" fill="#e6e7e2" d="M 96.5,58.5 C 96.5,58.8333 96.5,59.1667 96.5,59.5C 96.4386,61.5922 95.4386,63.0922 93.5,64C 96.1997,64.9492 97.033,66.7825 96,69.5C 94.3903,69.8696 92.8903,69.2029 91.5,67.5C 90.8076,68.0253 90.3076,68.6919 90,69.5C 88.0606,65.6934 86.2273,65.6934 84.5,69.5C 86.7476,70.324 86.9142,71.324 85,72.5C 82.4206,71.8434 79.9206,70.8434 77.5,69.5C 77.33,70.8221 77.6634,71.9887 78.5,73C 76.925,72.621 75.425,72.7877 74,73.5C 73.5,73 73,72.5 72.5,72C 73.8333,71.3333 75.1667,70.6667 76.5,70C 75.5842,69.7216 74.9175,69.2216 74.5,68.5C 75.2632,66.6316 76.2632,64.9649 77.5,63.5C 79.166,62.3336 80.8327,62.3336 82.5,63.5C 81.4937,64.3957 81.4937,65.0623 82.5,65.5C 84.019,64.1487 85.3523,62.6487 86.5,61C 90.1567,60.9502 93.49,60.1168 96.5,58.5 Z"/></g>
<g><path style="opacity:1" fill="#e2e3de" d="M 24.5,64.5 C 25.552,64.3505 26.552,64.5172 27.5,65C 33.7408,68.9426 39.7408,73.1092 45.5,77.5C 44.3121,78.6843 43.1455,78.6843 42,77.5C 41.5814,78.6721 40.9147,79.6721 40,80.5C 38.0743,78.3154 35.9076,76.8154 33.5,76C 34.1667,77.3333 35.1667,78.3333 36.5,79C 35.3128,80.0195 34.3128,81.1861 33.5,82.5C 34.7111,83.7202 34.7111,84.8869 33.5,86C 34.9308,86.4652 36.0975,87.2986 37,88.5C 37.3333,87.8333 37.6667,87.1667 38,86.5C 39,87.8333 40,87.8333 41,86.5C 41.1667,86.8333 41.3333,87.1667 41.5,87.5C 40.5,88.1667 39.5,88.8333 38.5,89.5C 39.2739,90.7112 40.1072,90.7112 41,89.5C 42.0386,90.2438 42.5386,91.2438 42.5,92.5C 40.847,92.6596 39.5137,93.3263 38.5,94.5C 36.1977,96.0773 34.6977,95.4106 34,92.5C 30.2539,83.7993 26.7539,74.966 23.5,66C 23.5699,65.2352 23.9033,64.7352 24.5,64.5 Z"/></g>
<g><path style="opacity:1" fill="#e1e2de" d="M 49.5,70.5 C 49.8333,70.5 50.1667,70.5 50.5,70.5C 51.0331,73.6908 53.3664,75.3574 57.5,75.5C 57.5875,78.5983 57.0875,78.9316 56,76.5C 52.9429,78.1376 52.9429,79.4709 56,80.5C 57.6667,79.8333 59.3333,79.1667 61,78.5C 60.4806,81.2256 58.6473,82.7256 55.5,83C 58.8721,82.8904 60.8721,84.3904 61.5,87.5C 61.1583,88.3382 60.4916,88.6716 59.5,88.5C 56.4355,87.1816 53.2688,87.1816 50,88.5C 49.5,88 49,87.5 48.5,87C 48.9662,85.7012 48.9662,84.2012 48.5,82.5C 50.1033,82.6882 51.4366,82.1882 52.5,81C 50.3819,79.9179 48.3819,78.7512 46.5,77.5C 47.5375,76.0697 48.2041,74.403 48.5,72.5C 48.3284,71.5084 48.6618,70.8417 49.5,70.5 Z"/></g>
<g><path style="opacity:1" fill="#e7e8e3" d="M 70.5,73.5 C 73.2236,74.3898 75.557,75.8898 77.5,78C 76.6667,78.8333 75.8333,79.6667 75,80.5C 73.0244,79.4567 72.5244,78.1233 73.5,76.5C 71.7305,75.3735 70.3972,75.8735 69.5,78C 70.1667,78.3333 70.8333,78.6667 71.5,79C 70.1667,79.3333 68.8333,79.6667 67.5,80C 68.8107,83.3102 71.144,85.4769 74.5,86.5C 74.8178,84.7361 76.3178,83.4027 79,82.5C 81.1299,82.5866 83.2966,82.5866 85.5,82.5C 85.8333,82.6667 86.1667,82.8333 86.5,83C 84.9632,84.1096 84.2965,85.6096 84.5,87.5C 83.5,87.5 82.5,87.5 81.5,87.5C 74.8333,87.5 68.1667,87.5 61.5,87.5C 60.8721,84.3904 58.8721,82.8904 55.5,83C 58.6473,82.7256 60.4806,81.2256 61,78.5C 59.3333,79.1667 57.6667,79.8333 56,80.5C 52.9429,79.4709 52.9429,78.1376 56,76.5C 57.0875,78.9316 57.5875,78.5983 57.5,75.5C 58.1499,75.1961 58.8165,74.8627 59.5,74.5C 59.8333,75.1667 60.1667,75.8333 60.5,76.5C 62.3707,75.233 64.2041,75.233 66,76.5C 66.1667,76.1667 66.3333,75.8333 66.5,75.5C 65.2713,74.7189 63.938,74.2189 62.5,74C 63.7659,73.6905 64.9326,73.1905 66,72.5C 67.4681,74.0362 68.9681,74.3696 70.5,73.5 Z"/></g>
<g><path style="opacity:1" fill="#e2e3df" d="M 96.5,59.5 C 97.7947,63.2671 98.4613,67.2671 98.5,71.5C 95.9956,71.8283 94.1622,73.1616 93,75.5C 92.1627,73.9926 90.9961,73.4926 89.5,74C 91.6157,75.1707 92.2824,76.6707 91.5,78.5C 89.2244,77.7985 86.8911,77.9651 84.5,79C 88.9222,80.2441 91.2555,83.0774 91.5,87.5C 94.8067,88.0508 98.1401,88.3841 101.5,88.5C 101.5,89.5 101.5,90.5 101.5,91.5C 95.0002,89.4673 88.3335,88.4673 81.5,88.5C 81.5,88.1667 81.5,87.8333 81.5,87.5C 82.5,87.5 83.5,87.5 84.5,87.5C 84.2965,85.6096 84.9632,84.1096 86.5,83C 86.1667,82.8333 85.8333,82.6667 85.5,82.5C 83.2966,82.5866 81.1299,82.5866 79,82.5C 76.3178,83.4027 74.8178,84.7361 74.5,86.5C 71.144,85.4769 68.8107,83.3102 67.5,80C 68.8333,79.6667 70.1667,79.3333 71.5,79C 70.8333,78.6667 70.1667,78.3333 69.5,78C 70.3972,75.8735 71.7305,75.3735 73.5,76.5C 72.5244,78.1233 73.0244,79.4567 75,80.5C 75.8333,79.6667 76.6667,78.8333 77.5,78C 75.557,75.8898 73.2236,74.3898 70.5,73.5C 69.4991,72.2113 69.6658,70.8779 71,69.5C 71.7175,70.4506 72.5509,70.6172 73.5,70C 72.7476,69.3292 72.4142,68.4959 72.5,67.5C 73.1667,67.8333 73.8333,68.1667 74.5,68.5C 74.9175,69.2216 75.5842,69.7216 76.5,70C 75.1667,70.6667 73.8333,71.3333 72.5,72C 73,72.5 73.5,73 74,73.5C 75.425,72.7877 76.925,72.621 78.5,73C 77.6634,71.9887 77.33,70.8221 77.5,69.5C 79.9206,70.8434 82.4206,71.8434 85,72.5C 86.9142,71.324 86.7476,70.324 84.5,69.5C 86.2273,65.6934 88.0606,65.6934 90,69.5C 90.3076,68.6919 90.8076,68.0253 91.5,67.5C 92.8903,69.2029 94.3903,69.8696 96,69.5C 97.033,66.7825 96.1997,64.9492 93.5,64C 95.4386,63.0922 96.4386,61.5922 96.5,59.5 Z"/></g>
<g><path style="opacity:1" fill="#e3e4df" d="M 119.5,78.5 C 117.138,84.2273 114.472,89.894 111.5,95.5C 108.222,93.9645 104.889,92.6311 101.5,91.5C 101.5,90.5 101.5,89.5 101.5,88.5C 98.1401,88.3841 94.8067,88.0508 91.5,87.5C 91.2555,83.0774 88.9222,80.2441 84.5,79C 86.8911,77.9651 89.2244,77.7985 91.5,78.5C 92.2824,76.6707 91.6157,75.1707 89.5,74C 90.9961,73.4926 92.1627,73.9926 93,75.5C 94.1622,73.1616 95.9956,71.8283 98.5,71.5C 99.1495,73.4352 99.4828,75.4352 99.5,77.5C 102.711,76.3072 105.711,74.6405 108.5,72.5C 113.33,68.7518 118.663,66.0851 124.5,64.5C 122.448,68.9856 120.782,73.6523 119.5,78.5 Z"/></g>
<g><path style="opacity:1" fill="#e5e6e1" d="M 45.5,77.5 C 45.8333,77.5 46.1667,77.5 46.5,77.5C 48.3819,78.7512 50.3819,79.9179 52.5,81C 51.4366,82.1882 50.1033,82.6882 48.5,82.5C 48.9662,84.2012 48.9662,85.7012 48.5,87C 49,87.5 49.5,88 50,88.5C 53.2688,87.1816 56.4355,87.1816 59.5,88.5C 57.5853,88.2155 55.9187,88.5489 54.5,89.5C 50.3219,89.8779 46.3219,90.8779 42.5,92.5C 42.5386,91.2438 42.0386,90.2438 41,89.5C 40.1072,90.7112 39.2739,90.7112 38.5,89.5C 39.5,88.8333 40.5,88.1667 41.5,87.5C 41.3333,87.1667 41.1667,86.8333 41,86.5C 40,87.8333 39,87.8333 38,86.5C 37.6667,87.1667 37.3333,87.8333 37,88.5C 36.0975,87.2986 34.9308,86.4652 33.5,86C 34.7111,84.8869 34.7111,83.7202 33.5,82.5C 34.3128,81.1861 35.3128,80.0195 36.5,79C 35.1667,78.3333 34.1667,77.3333 33.5,76C 35.9076,76.8154 38.0743,78.3154 40,80.5C 40.9147,79.6721 41.5814,78.6721 42,77.5C 43.1455,78.6843 44.3121,78.6843 45.5,77.5 Z"/></g>
<g><path style="opacity:1" fill="#c7c6be" d="M 22.5,74.5 C 26.171,81.1823 29.3376,88.1823 32,95.5C 32.977,97.74 33.477,100.073 33.5,102.5C 31.9139,103.413 30.4139,103.413 29,102.5C 27.474,98.0391 25.6407,93.7058 23.5,89.5C 24.1667,88.8333 24.8333,88.1667 25.5,87.5C 23.7227,86.099 22.056,84.599 20.5,83C 20.7205,81.2015 21.0539,79.3682 21.5,77.5C 20.9747,76.8076 20.3081,76.3076 19.5,76C 20.7375,75.7679 21.7375,75.2679 22.5,74.5 Z"/></g>
<g><path style="opacity:1" fill="#434341" d="M 14.5,61.5 C 16.8784,63.7567 19.5451,64.09 22.5,62.5C 23.5,62.8333 24.1667,63.5 24.5,64.5C 23.9033,64.7352 23.5699,65.2352 23.5,66C 26.7539,74.966 30.2539,83.7993 34,92.5C 34.6977,95.4106 36.1977,96.0773 38.5,94.5C 40.099,94.2322 41.4324,94.5655 42.5,95.5C 36.4691,96.7531 34.9691,100.086 38,105.5C 39.3513,103.981 40.8513,102.648 42.5,101.5C 46.0631,102.959 49.7298,103.959 53.5,104.5C 51.4434,108.067 48.7768,111.234 45.5,114C 43.1527,114.334 40.8194,114.167 38.5,113.5C 38.5,115.167 38.5,116.833 38.5,118.5C 38.7709,120.38 38.1042,121.713 36.5,122.5C 35.4988,115.821 34.4988,109.155 33.5,102.5C 33.477,100.073 32.977,97.74 32,95.5C 29.3376,88.1823 26.171,81.1823 22.5,74.5C 21.8333,71.8333 21.1667,69.1667 20.5,66.5C 16.9152,66.7083 14.2485,65.375 12.5,62.5C 12.8417,61.6618 13.5084,61.3284 14.5,61.5 Z"/></g>
<g><path style="opacity:1" fill="#81817e" d="M 61.5,87.5 C 68.1667,87.5 74.8333,87.5 81.5,87.5C 81.5,87.8333 81.5,88.1667 81.5,88.5C 72.4846,88.5009 63.4846,88.8342 54.5,89.5C 55.9187,88.5489 57.5853,88.2155 59.5,88.5C 60.4916,88.6716 61.1583,88.3382 61.5,87.5 Z"/></g>
<g><path style="opacity:1" fill="#454544" d="M 119.5,78.5 C 119.427,80.0269 120.094,81.0269 121.5,81.5C 119.112,88.194 116.779,94.8607 114.5,101.5C 113.833,101.5 113.5,101.833 113.5,102.5C 112.833,101.5 112.167,100.5 111.5,99.5C 106.295,96.4086 100.629,94.242 94.5,93C 86.2082,91.8162 77.8749,91.3162 69.5,91.5C 60.2981,91.5409 51.2981,92.8742 42.5,95.5C 41.4324,94.5655 40.099,94.2322 38.5,94.5C 39.5137,93.3263 40.847,92.6596 42.5,92.5C 46.3219,90.8779 50.3219,89.8779 54.5,89.5C 63.4846,88.8342 72.4846,88.5009 81.5,88.5C 88.3335,88.4673 95.0002,89.4673 101.5,91.5C 104.889,92.6311 108.222,93.9645 111.5,95.5C 114.472,89.894 117.138,84.2273 119.5,78.5 Z"/></g>
<g><path style="opacity:1" fill="#e2e2de" d="M 69.5,91.5 C 69.5159,93.6291 68.8492,95.4624 67.5,97C 68.0944,97.4643 68.7611,97.631 69.5,97.5C 68.7095,98.4013 67.7095,99.0679 66.5,99.5C 66.2089,98.3509 65.3756,97.6842 64,97.5C 61.8819,98.4764 59.7152,99.3097 57.5,100C 56.6426,102.019 55.3092,103.519 53.5,104.5C 49.7298,103.959 46.0631,102.959 42.5,101.5C 40.8513,102.648 39.3513,103.981 38,105.5C 34.9691,100.086 36.4691,96.7531 42.5,95.5C 51.2981,92.8742 60.2981,91.5409 69.5,91.5 Z"/></g>
<g><path style="opacity:1" fill="#e1e2dd" d="M 69.5,91.5 C 77.8749,91.3162 86.2082,91.8162 94.5,93C 100.629,94.242 106.295,96.4086 111.5,99.5C 111.313,101.564 110.813,103.564 110,105.5C 108.53,103.848 106.697,102.848 104.5,102.5C 101.106,103.078 97.7722,103.744 94.5,104.5C 92.1911,102.17 89.6911,102.17 87,104.5C 86.6667,105.833 86.3333,107.167 86,108.5C 84.8545,107.316 83.6879,107.316 82.5,108.5C 84.3209,104.769 83.6542,101.603 80.5,99C 76.9743,97.6632 73.3076,97.1632 69.5,97.5C 68.7611,97.631 68.0944,97.4643 67.5,97C 68.8492,95.4624 69.5159,93.6291 69.5,91.5 Z"/></g>
<g><path style="opacity:1" fill="#494948" d="M 69.5,97.5 C 73.3076,97.1632 76.9743,97.6632 80.5,99C 83.6542,101.603 84.3209,104.769 82.5,108.5C 77.6029,110.624 72.6029,110.957 67.5,109.5C 62.691,106.49 62.3576,103.156 66.5,99.5C 67.7095,99.0679 68.7095,98.4013 69.5,97.5 Z"/></g>
<g><path style="opacity:0.688" fill="#cecdc4" d="M 131.5,73.5 C 127.736,82.0322 124.236,90.6989 121,99.5C 119.785,107.837 118.618,116.17 117.5,124.5C 116.792,122.622 115.626,120.955 114,119.5C 114.077,120.738 113.911,121.738 113.5,122.5C 112.441,119.155 112.608,115.822 114,112.5C 114.202,114.256 114.702,115.922 115.5,117.5C 118.044,116.265 118.044,115.099 115.5,114C 115.957,113.586 116.291,113.086 116.5,112.5C 114.688,109.101 114.021,105.434 114.5,101.5C 116.779,94.8607 119.112,88.194 121.5,81.5C 122.167,80.1667 122.833,78.8333 123.5,77.5C 124.825,76.0474 125.658,76.3808 126,78.5C 127.076,75.921 128.909,74.2543 131.5,73.5 Z"/></g>
<g><path style="opacity:1" fill="#e6e6e2" d="M 66.5,99.5 C 62.3576,103.156 62.691,106.49 67.5,109.5C 66.7375,110.268 65.7375,110.768 64.5,111C 65.624,111.249 66.624,111.749 67.5,112.5C 67.3333,112.833 67.1667,113.167 67,113.5C 64.905,111.95 62.7383,111.617 60.5,112.5C 61.6119,113.265 62.2786,114.265 62.5,115.5C 60.9557,115.297 59.6223,114.63 58.5,113.5C 56.8291,116.081 56.3291,115.748 57,112.5C 57.7504,111.874 58.5838,111.374 59.5,111C 57.7928,110.805 56.1261,110.805 54.5,111C 56.6778,108.646 56.3445,106.479 53.5,104.5C 55.3092,103.519 56.6426,102.019 57.5,100C 59.7152,99.3097 61.8819,98.4764 64,97.5C 65.3756,97.6842 66.2089,98.3509 66.5,99.5 Z"/></g>
<g><path style="opacity:1" fill="#40403f" d="M 111.5,99.5 C 112.167,100.5 112.833,101.5 113.5,102.5C 113.478,108.583 112.811,114.583 111.5,120.5C 110.833,119.833 110.167,119.167 109.5,118.5C 109.5,116.833 109.5,115.167 109.5,113.5C 107.181,114.167 104.847,114.334 102.5,114C 99.2956,110.964 96.2956,107.797 93.5,104.5C 93.8333,104.5 94.1667,104.5 94.5,104.5C 97.7722,103.744 101.106,103.078 104.5,102.5C 106.697,102.848 108.53,103.848 110,105.5C 110.813,103.564 111.313,101.564 111.5,99.5 Z"/></g>
<g><path style="opacity:1" fill="#e3e3df" d="M 70.5,101.5 C 72.8568,101.337 75.1902,101.503 77.5,102C 79.158,102.725 79.658,103.892 79,105.5C 75.9269,106.617 72.7603,106.784 69.5,106C 68.6919,105.692 68.0253,105.192 67.5,104.5C 68.3398,103.265 69.3398,102.265 70.5,101.5 Z"/></g>
<g><path style="opacity:1" fill="#d5d5cf" d="M 100.5,105.5 C 104.224,104.773 106.891,106.106 108.5,109.5C 107.562,110.553 106.395,111.22 105,111.5C 102.899,109.906 101.399,107.906 100.5,105.5 Z"/></g>
<g><path style="opacity:1" fill="#d5d5d0" d="M 42.5,105.5 C 44.3084,105.491 45.9751,105.991 47.5,107C 45.9825,108.685 44.3159,110.185 42.5,111.5C 41.069,111.023 39.7357,110.357 38.5,109.5C 40.188,108.479 41.5213,107.145 42.5,105.5 Z"/></g>
<g><path style="opacity:1" fill="#e0e1dc" d="M 53.5,104.5 C 56.3445,106.479 56.6778,108.646 54.5,111C 56.1261,110.805 57.7928,110.805 59.5,111C 58.5838,111.374 57.7504,111.874 57,112.5C 56.3291,115.748 56.8291,116.081 58.5,113.5C 59.6223,114.63 60.9557,115.297 62.5,115.5C 63.1667,115.5 63.8333,115.5 64.5,115.5C 64.5,115.833 64.5,116.167 64.5,116.5C 55.8509,116.196 47.6842,117.863 40,121.5C 39.7679,120.263 39.2679,119.263 38.5,118.5C 38.5,116.833 38.5,115.167 38.5,113.5C 40.8194,114.167 43.1527,114.334 45.5,114C 48.7768,111.234 51.4434,108.067 53.5,104.5 Z"/></g>
<g><path style="opacity:1" fill="#d7d8d3" d="M 93.5,104.5 C 96.2956,107.797 99.2956,110.964 102.5,114C 104.847,114.334 107.181,114.167 109.5,113.5C 109.5,115.167 109.5,116.833 109.5,118.5C 108.842,119.398 108.176,120.398 107.5,121.5C 102.741,119.227 97.7415,117.727 92.5,117C 83.1726,116.5 73.8393,116.334 64.5,116.5C 64.5,116.167 64.5,115.833 64.5,115.5C 73.8393,115.666 83.1726,115.5 92.5,115C 92.9574,114.586 93.2907,114.086 93.5,113.5C 91.7997,111.932 90.4664,110.099 89.5,108C 90.2529,106.513 91.0862,106.346 92,107.5C 92.2321,106.263 92.7321,105.263 93.5,104.5 Z"/></g>
<g><path style="opacity:1" fill="#e5e6e1" d="M 94.5,104.5 C 94.1667,104.5 93.8333,104.5 93.5,104.5C 92.7321,105.263 92.2321,106.263 92,107.5C 91.0862,106.346 90.2529,106.513 89.5,108C 90.4664,110.099 91.7997,111.932 93.5,113.5C 93.2907,114.086 92.9574,114.586 92.5,115C 83.1726,115.5 73.8393,115.666 64.5,115.5C 63.8333,115.5 63.1667,115.5 62.5,115.5C 62.2786,114.265 61.6119,113.265 60.5,112.5C 62.7383,111.617 64.905,111.95 67,113.5C 67.1667,113.167 67.3333,112.833 67.5,112.5C 66.624,111.749 65.624,111.249 64.5,111C 65.7375,110.768 66.7375,110.268 67.5,109.5C 72.6029,110.957 77.6029,110.624 82.5,108.5C 83.6879,107.316 84.8545,107.316 86,108.5C 86.3333,107.167 86.6667,105.833 87,104.5C 89.6911,102.17 92.1911,102.17 94.5,104.5 Z"/></g>
<g><path style="opacity:0.68" fill="#cdccc3" d="M 22.5,74.5 C 21.7375,75.2679 20.7375,75.7679 19.5,76C 20.3081,76.3076 20.9747,76.8076 21.5,77.5C 21.0539,79.3682 20.7205,81.2015 20.5,83C 22.056,84.599 23.7227,86.099 25.5,87.5C 24.8333,88.1667 24.1667,88.8333 23.5,89.5C 25.6407,93.7058 27.474,98.0391 29,102.5C 30.4139,103.413 31.9139,103.413 33.5,102.5C 34.4988,109.155 35.4988,115.821 36.5,122.5C 36.2155,124.415 36.5489,126.081 37.5,127.5C 39.2752,130.211 41.6085,132.211 44.5,133.5C 41.963,133.791 39.2963,133.958 36.5,134C 35.944,134.383 35.6107,134.883 35.5,135.5C 32.9374,133.388 31.104,130.721 30,127.5C 28.8304,118.143 27.4971,108.81 26,99.5C 22.7283,91.182 19.5617,82.8486 16.5,74.5C 18.3469,73.4271 20.3469,73.4271 22.5,74.5 Z"/></g>
<g><path style="opacity:1" fill="#454543" d="M 64.5,116.5 C 73.8393,116.334 83.1726,116.5 92.5,117C 97.7415,117.727 102.741,119.227 107.5,121.5C 108.176,120.398 108.842,119.398 109.5,118.5C 110.167,119.167 110.833,119.833 111.5,120.5C 112.424,124.884 111.091,128.218 107.5,130.5C 107.167,129.5 106.5,128.833 105.5,128.5C 105.953,127.542 106.619,126.708 107.5,126C 105.691,123.762 103.358,122.595 100.5,122.5C 95.7881,120.845 90.7881,120.012 85.5,120C 76.6567,119.176 67.9901,119.343 59.5,120.5C 59.1667,120.5 58.8333,120.5 58.5,120.5C 52.8575,120.328 47.5242,121.495 42.5,124C 41.1772,124.816 40.5106,125.983 40.5,127.5C 39.2502,127.423 38.4169,126.756 38,125.5C 37.5357,126.094 37.369,126.761 37.5,127.5C 36.5489,126.081 36.2155,124.415 36.5,122.5C 38.1042,121.713 38.7709,120.38 38.5,118.5C 39.2679,119.263 39.7679,120.263 40,121.5C 47.6842,117.863 55.8509,116.196 64.5,116.5 Z"/></g>
<g><path style="opacity:1" fill="#c9c8c0" d="M 114.5,101.5 C 114.021,105.434 114.688,109.101 116.5,112.5C 116.291,113.086 115.957,113.586 115.5,114C 118.044,115.099 118.044,116.265 115.5,117.5C 114.702,115.922 114.202,114.256 114,112.5C 112.608,115.822 112.441,119.155 113.5,122.5C 113.911,121.738 114.077,120.738 114,119.5C 115.626,120.955 116.792,122.622 117.5,124.5C 116.727,131.939 112.727,136.606 105.5,138.5C 104.662,138.158 104.328,137.492 104.5,136.5C 104.44,135.957 104.107,135.624 103.5,135.5C 100.798,137.848 97.9647,139.181 95,139.5C 94.5,138.333 93.6667,137.5 92.5,137C 90.1902,136.503 87.8568,136.337 85.5,136.5C 85.5,136.167 85.5,135.833 85.5,135.5C 93.3387,135.867 100.672,134.2 107.5,130.5C 111.091,128.218 112.424,124.884 111.5,120.5C 112.811,114.583 113.478,108.583 113.5,102.5C 113.5,101.833 113.833,101.5 114.5,101.5 Z"/></g>
<g><path style="opacity:1" fill="#e6e7e3" d="M 58.5,120.5 C 58.8333,120.5 59.1667,120.5 59.5,120.5C 63.7959,119.985 67.4625,121.152 70.5,124C 68.842,124.725 68.342,125.892 69,127.5C 73.5922,129.113 73.4255,130.446 68.5,131.5C 67.3527,131.182 66.5194,130.516 66,129.5C 65.5357,130.094 65.369,130.761 65.5,131.5C 63.076,131.808 60.7427,131.474 58.5,130.5C 56.8397,128.007 54.8397,125.84 52.5,124C 55.1667,123.333 55.1667,122.667 52.5,122C 54.4406,121.257 56.2739,121.424 58,122.5C 58.4643,121.906 58.631,121.239 58.5,120.5 Z"/></g>
<g><path style="opacity:1" fill="#e5e6e1" d="M 100.5,122.5 C 103.358,122.595 105.691,123.762 107.5,126C 106.619,126.708 105.953,127.542 105.5,128.5C 101.015,130.328 96.3482,131.328 91.5,131.5C 90.0222,131.762 88.6888,131.429 87.5,130.5C 88.6053,129.108 89.9386,127.941 91.5,127C 90.1667,126.667 88.8333,126.333 87.5,126C 89.5675,125.313 91.5675,125.48 93.5,126.5C 96.4429,123.82 96.1096,123.153 92.5,124.5C 91.2888,123.726 91.2888,122.893 92.5,122C 95.1572,121.825 97.8239,121.992 100.5,122.5 Z"/></g>
<g><path style="opacity:1" fill="#dedfda" d="M 58.5,120.5 C 58.631,121.239 58.4643,121.906 58,122.5C 56.2739,121.424 54.4406,121.257 52.5,122C 55.1667,122.667 55.1667,123.333 52.5,124C 54.8397,125.84 56.8397,128.007 58.5,130.5C 60.7427,131.474 63.076,131.808 65.5,131.5C 65.5,131.833 65.5,132.167 65.5,132.5C 56.6454,132.996 48.3121,131.329 40.5,127.5C 40.5106,125.983 41.1772,124.816 42.5,124C 47.5242,121.495 52.8575,120.328 58.5,120.5 Z"/></g>
<g><path style="opacity:1" fill="#464645" d="M 40.5,127.5 C 48.3121,131.329 56.6454,132.996 65.5,132.5C 74.3494,132.826 83.0161,132.493 91.5,131.5C 96.3482,131.328 101.015,130.328 105.5,128.5C 106.5,128.833 107.167,129.5 107.5,130.5C 100.672,134.2 93.3387,135.867 85.5,135.5C 73.815,135.635 62.1483,135.302 50.5,134.5C 48.5,134.167 46.5,133.833 44.5,133.5C 41.6085,132.211 39.2752,130.211 37.5,127.5C 37.369,126.761 37.5357,126.094 38,125.5C 38.4169,126.756 39.2502,127.423 40.5,127.5 Z"/></g>
<g><path style="opacity:1" fill="#e2e3de" d="M 59.5,120.5 C 67.9901,119.343 76.6567,119.176 85.5,120C 90.7881,120.012 95.7881,120.845 100.5,122.5C 97.8239,121.992 95.1572,121.825 92.5,122C 91.2888,122.893 91.2888,123.726 92.5,124.5C 96.1096,123.153 96.4429,123.82 93.5,126.5C 91.5675,125.48 89.5675,125.313 87.5,126C 88.8333,126.333 90.1667,126.667 91.5,127C 89.9386,127.941 88.6053,129.108 87.5,130.5C 88.6888,131.429 90.0222,131.762 91.5,131.5C 83.0161,132.493 74.3494,132.826 65.5,132.5C 65.5,132.167 65.5,131.833 65.5,131.5C 65.369,130.761 65.5357,130.094 66,129.5C 66.5194,130.516 67.3527,131.182 68.5,131.5C 73.4255,130.446 73.5922,129.113 69,127.5C 68.342,125.892 68.842,124.725 70.5,124C 67.4625,121.152 63.7959,119.985 59.5,120.5 Z"/></g>
<g><path style="opacity:1" fill="#646461" d="M 50.5,134.5 C 62.1483,135.302 73.815,135.635 85.5,135.5C 85.5,135.833 85.5,136.167 85.5,136.5C 76.1607,136.666 66.8274,136.5 57.5,136C 54.9644,135.814 52.631,135.314 50.5,134.5 Z"/></g>
<g><path style="opacity:1" fill="#d0cfc6" d="M 44.5,133.5 C 46.5,133.833 48.5,134.167 50.5,134.5C 52.631,135.314 54.9644,135.814 57.5,136C 66.8274,136.5 76.1607,136.666 85.5,136.5C 87.8568,136.337 90.1902,136.503 92.5,137C 93.6667,137.5 94.5,138.333 95,139.5C 97.9647,139.181 100.798,137.848 103.5,135.5C 104.107,135.624 104.44,135.957 104.5,136.5C 100.154,139.896 94.8211,140.896 88.5,139.5C 86.9446,139.722 85.6113,140.389 84.5,141.5C 78.8978,141.29 73.2312,141.123 67.5,141C 69.0441,140.71 70.3774,140.044 71.5,139C 71,138.833 70.5,138.667 70,138.5C 68.5838,139.573 67.2504,139.573 66,138.5C 62.5074,141.981 58.8407,141.981 55,138.5C 54.6192,139.482 53.7859,140.148 52.5,140.5C 47.4817,139.159 42.4817,137.826 37.5,136.5C 36.8333,136.167 36.1667,135.833 35.5,135.5C 35.6107,134.883 35.944,134.383 36.5,134C 39.2963,133.958 41.963,133.791 44.5,133.5 Z"/></g>
<g><path style="opacity:0.659" fill="#cecdc4" d="M 37.5,136.5 C 42.4817,137.826 47.4817,139.159 52.5,140.5C 53.7859,140.148 54.6192,139.482 55,138.5C 58.8407,141.981 62.5074,141.981 66,138.5C 67.2504,139.573 68.5838,139.573 70,138.5C 70.5,138.667 71,138.833 71.5,139C 70.3774,140.044 69.0441,140.71 67.5,141C 73.2312,141.123 78.8978,141.29 84.5,141.5C 85.6113,140.389 86.9446,139.722 88.5,139.5C 94.8211,140.896 100.154,139.896 104.5,136.5C 104.328,137.492 104.662,138.158 105.5,138.5C 100.818,140.474 95.8175,141.641 90.5,142C 76.7961,142.862 63.1294,142.528 49.5,141C 45.0002,140.559 41.0002,139.059 37.5,136.5 Z"/></g>
</svg>
