<?xml version="1.0" encoding="UTF-8"?>
<!DOCTYPE svg PUBLIC "-//W3C//DTD SVG 1.1//EN" "http://www.w3.org/Graphics/SVG/1.1/DTD/svg11.dtd">
<svg xmlns="http://www.w3.org/2000/svg" version="1.1" width="150px" height="150px" style="shape-rendering:geometricPrecision; text-rendering:geometricPrecision; image-rendering:optimizeQuality; fill-rule:evenodd; clip-rule:evenodd" xmlns:xlink="http://www.w3.org/1999/xlink">
<g><path style="opacity:0.997" fill="#cfcdc5" d="M 93.5,21.5 C 97.2951,23.175 101.462,24.175 106,24.5C 107.726,23.4238 109.559,23.2571 111.5,24C 110.672,24.9147 109.672,25.5814 108.5,26C 110.441,26.7429 112.274,26.5762 114,25.5C 114.5,26 115,26.5 115.5,27C 109.652,27.1728 103.985,27.6728 98.5,28.5C 98.5,31.8333 98.5,35.1667 98.5,38.5C 94.1667,38.5 89.8333,38.5 85.5,38.5C 85.5,35.1667 85.5,31.8333 85.5,28.5C 77.8333,28.5 70.1667,28.5 62.5,28.5C 62.5,31.8333 62.5,35.1667 62.5,38.5C 58.1667,38.5 53.8333,38.5 49.5,38.5C 49.5,35.1667 49.5,31.8333 49.5,28.5C 43.8333,28.5 38.1667,28.5 32.5,28.5C 31.8334,36.0104 31.1667,43.6771 30.5,51.5C 29.3777,52.6302 28.0443,53.2969 26.5,53.5C 25.5056,43.0131 25.1722,32.3464 25.5,21.5C 35.5,21.5 45.5,21.5 55.5,21.5C 55.8333,36.1667 56.1667,36.1667 56.5,21.5C 68.983,21.5676 81.3163,21.5676 93.5,21.5 Z"/></g>
<g><path style="opacity:1" fill="#595957" d="M 32.5,29.5 C 32.5,29.1667 32.5,28.8333 32.5,28.5C 38.1667,28.5 43.8333,28.5 49.5,28.5C 49.5,31.8333 49.5,35.1667 49.5,38.5C 48.5233,35.7131 48.19,32.7131 48.5,29.5C 43.1667,29.5 37.8333,29.5 32.5,29.5 Z"/></g>
<g><path style="opacity:1" fill="#5d5d5b" d="M 85.5,38.5 C 84.5233,35.7131 84.19,32.7131 84.5,29.5C 77.5,29.5 70.5,29.5 63.5,29.5C 63.81,32.7131 63.4767,35.7131 62.5,38.5C 62.5,35.1667 62.5,31.8333 62.5,28.5C 70.1667,28.5 77.8333,28.5 85.5,28.5C 85.5,31.8333 85.5,35.1667 85.5,38.5 Z"/></g>
<g><path style="opacity:1" fill="#3e3e3d" d="M 98.5,28.5 C 104.167,28.5 109.833,28.5 115.5,28.5C 115.666,36.1739 115.5,43.8406 115,51.5C 111.667,54.8333 108.333,58.1667 105,61.5C 104.333,75.1667 104.333,88.8333 105,102.5C 109.885,105.21 113.052,109.21 114.5,114.5C 116.121,116.624 117.954,118.624 120,120.5C 120.499,125.489 120.666,130.489 120.5,135.5C 89.5,135.5 58.5,135.5 27.5,135.5C 27.5,130.833 27.5,126.167 27.5,121.5C 28.1174,121.611 28.6174,121.944 29,122.5C 29.1787,126.025 29.6787,129.359 30.5,132.5C 59.3285,133.498 88.3285,133.831 117.5,133.5C 117.666,129.486 117.499,125.486 117,121.5C 113.188,119.212 110.855,115.879 110,111.5C 107.5,109 105,106.5 102.5,104C 83.5029,103.5 64.5029,103.333 45.5,103.5C 44.5084,103.672 43.8417,103.338 43.5,102.5C 43.6666,88.8293 43.4999,75.1626 43,61.5C 39.9845,58.3172 36.8178,55.3172 33.5,52.5C 32.5025,44.8622 32.1692,37.1955 32.5,29.5C 37.8333,29.5 43.1667,29.5 48.5,29.5C 48.19,32.7131 48.5233,35.7131 49.5,38.5C 53.8333,38.5 58.1667,38.5 62.5,38.5C 63.4767,35.7131 63.81,32.7131 63.5,29.5C 70.5,29.5 77.5,29.5 84.5,29.5C 84.19,32.7131 84.5233,35.7131 85.5,38.5C 89.8333,38.5 94.1667,38.5 98.5,38.5C 98.5,35.1667 98.5,31.8333 98.5,28.5 Z"/></g>
<g><path style="opacity:1" fill="#acaca7" d="M 45.5,31.5 C 45.5,31.8333 45.5,32.1667 45.5,32.5C 42.5,32.5 39.5,32.5 36.5,32.5C 36.5,38.5 36.5,44.5 36.5,50.5C 35.5098,44.3554 35.1765,38.0221 35.5,31.5C 38.8333,31.5 42.1667,31.5 45.5,31.5 Z"/></g>
<g><path style="opacity:1" fill="#92928e" d="M 111.5,50.5 C 111.5,44.5 111.5,38.5 111.5,32.5C 108.5,32.5 105.5,32.5 102.5,32.5C 102.813,36.0419 102.479,39.3752 101.5,42.5C 101.5,38.8333 101.5,35.1667 101.5,31.5C 105.167,31.5 108.833,31.5 112.5,31.5C 112.823,38.0221 112.49,44.3554 111.5,50.5 Z"/></g>
<g><path style="opacity:1" fill="#595958" d="M 45.5,31.5 C 46.4794,34.6248 46.8128,37.9581 46.5,41.5C 52.8333,41.5 59.1667,41.5 65.5,41.5C 65.1872,37.9581 65.5206,34.6248 66.5,31.5C 66.5,35.1667 66.5,38.8333 66.5,42.5C 59.5,42.5 52.5,42.5 45.5,42.5C 45.5,39.1667 45.5,35.8333 45.5,32.5C 45.5,32.1667 45.5,31.8333 45.5,31.5 Z"/></g>
<g><path style="opacity:1" fill="#e4e5e0" d="M 66.5,31.5 C 71.5,31.5 76.5,31.5 81.5,31.5C 81.5,35.1667 81.5,38.8333 81.5,42.5C 88.1667,42.5 94.8333,42.5 101.5,42.5C 102.479,39.3752 102.813,36.0419 102.5,32.5C 105.5,32.5 108.5,32.5 111.5,32.5C 111.5,38.5 111.5,44.5 111.5,50.5C 108.396,53.1009 105.396,55.9343 102.5,59C 83.5,59.6667 64.5,59.6667 45.5,59C 42.4257,56.1506 39.4257,53.3172 36.5,50.5C 36.5,44.5 36.5,38.5 36.5,32.5C 39.5,32.5 42.5,32.5 45.5,32.5C 45.5,35.8333 45.5,39.1667 45.5,42.5C 52.5,42.5 59.5,42.5 66.5,42.5C 66.5,38.8333 66.5,35.1667 66.5,31.5 Z"/></g>
<g><path style="opacity:0.988" fill="#cccbc3" d="M 100.5,100.5 C 100.5,100.167 100.5,99.8333 100.5,99.5C 100.5,89.8333 100.5,80.1667 100.5,70.5C 100.5,68.1667 100.5,65.8333 100.5,63.5C 82.8333,63.5 65.1667,63.5 47.5,63.5C 47.5,75.8333 47.5,88.1667 47.5,100.5C 46.5046,88.011 46.1713,75.3443 46.5,62.5C 64.8333,62.5 83.1667,62.5 101.5,62.5C 101.829,75.3443 101.495,88.011 100.5,100.5 Z"/></g>
<g><path style="opacity:1" fill="#e5e6e1" d="M 100.5,70.5 C 99.0689,71.0819 97.7356,71.9152 96.5,73C 97.6956,73.6543 97.6956,74.1543 96.5,74.5C 93.6538,73.6015 90.8204,72.6015 88,71.5C 85.9203,73.9733 83.7536,73.9733 81.5,71.5C 81.3309,72.3966 80.9976,73.3966 80.5,74.5C 77.054,72.668 75.554,73.3346 76,76.5C 72.4534,75.5434 68.6201,74.5434 64.5,73.5C 61.9012,75.2203 59.2345,76.0536 56.5,76C 59.1185,76.184 61.6185,77.0173 64,78.5C 65.6934,77.8155 67.1934,76.8155 68.5,75.5C 69.6956,75.8457 69.6956,76.3457 68.5,77C 70.6314,77.5431 72.6314,78.3764 74.5,79.5C 74.1131,80.7199 73.2798,81.3865 72,81.5C 69.1346,80.2237 66.3013,79.8904 63.5,80.5C 64.5294,80.2964 65.5294,80.7964 66.5,82C 62.5839,82.6485 60.7505,84.8151 61,88.5C 62.7086,89.5719 65.3753,89.5719 69,88.5C 70.3651,88.8443 71.5318,89.5109 72.5,90.5C 76.7304,87.7089 78.8971,89.0422 79,94.5C 80.7141,93.0745 82.0475,93.4078 83,95.5C 86.051,93.7233 89.2177,92.0566 92.5,90.5C 92.2907,89.914 91.9574,89.414 91.5,89C 94.8533,88.1085 97.1866,89.2752 98.5,92.5C 98.1924,93.3081 97.6924,93.9747 97,94.5C 96.0766,93.2412 95.2432,91.9079 94.5,90.5C 93.5846,92.9803 92.0846,93.6469 90,92.5C 89.0196,94.2594 88.353,95.9261 88,97.5C 87.6667,96.8333 87.3333,96.1667 87,95.5C 85.6861,96.3128 84.5195,97.3128 83.5,98.5C 81.1943,98.3543 78.861,98.021 76.5,97.5C 75.6919,97.8076 75.0253,98.3076 74.5,99C 83.1603,99.4998 91.8269,99.6664 100.5,99.5C 100.5,99.8333 100.5,100.167 100.5,100.5C 82.8333,100.5 65.1667,100.5 47.5,100.5C 47.5,88.1667 47.5,75.8333 47.5,63.5C 65.1667,63.5 82.8333,63.5 100.5,63.5C 100.5,65.8333 100.5,68.1667 100.5,70.5 Z"/></g>
<g><path style="opacity:1" fill="#e6e7e2" d="M 100.5,70.5 C 100.5,80.1667 100.5,89.8333 100.5,99.5C 91.8269,99.6664 83.1603,99.4998 74.5,99C 75.0253,98.3076 75.6919,97.8076 76.5,97.5C 78.861,98.021 81.1943,98.3543 83.5,98.5C 84.5195,97.3128 85.6861,96.3128 87,95.5C 87.3333,96.1667 87.6667,96.8333 88,97.5C 88.353,95.9261 89.0196,94.2594 90,92.5C 92.0846,93.6469 93.5846,92.9803 94.5,90.5C 95.2432,91.9079 96.0766,93.2412 97,94.5C 97.6924,93.9747 98.1924,93.3081 98.5,92.5C 97.1866,89.2752 94.8533,88.1085 91.5,89C 91.9574,89.414 92.2907,89.914 92.5,90.5C 89.2177,92.0566 86.051,93.7233 83,95.5C 82.0475,93.4078 80.7141,93.0745 79,94.5C 78.8971,89.0422 76.7304,87.7089 72.5,90.5C 71.5318,89.5109 70.3651,88.8443 69,88.5C 65.3753,89.5719 62.7086,89.5719 61,88.5C 60.7505,84.8151 62.5839,82.6485 66.5,82C 65.5294,80.7964 64.5294,80.2964 63.5,80.5C 66.3013,79.8904 69.1346,80.2237 72,81.5C 73.2798,81.3865 74.1131,80.7199 74.5,79.5C 72.6314,78.3764 70.6314,77.5431 68.5,77C 69.6956,76.3457 69.6956,75.8457 68.5,75.5C 67.1934,76.8155 65.6934,77.8155 64,78.5C 61.6185,77.0173 59.1185,76.184 56.5,76C 59.2345,76.0536 61.9012,75.2203 64.5,73.5C 68.6201,74.5434 72.4534,75.5434 76,76.5C 75.554,73.3346 77.054,72.668 80.5,74.5C 80.9976,73.3966 81.3309,72.3966 81.5,71.5C 83.7536,73.9733 85.9203,73.9733 88,71.5C 90.8204,72.6015 93.6538,73.6015 96.5,74.5C 97.6956,74.1543 97.6956,73.6543 96.5,73C 97.7356,71.9152 99.0689,71.0819 100.5,70.5 Z"/></g>
<g><path style="opacity:1" fill="#e0e1dc" d="M 45.5,103.5 C 64.5029,103.333 83.5029,103.5 102.5,104C 105,106.5 107.5,109 110,111.5C 110.855,115.879 113.188,119.212 117,121.5C 117.499,125.486 117.666,129.486 117.5,133.5C 88.3285,133.831 59.3285,133.498 30.5,132.5C 30.3347,128.818 30.5014,125.152 31,121.5C 35.2821,115.107 40.1154,109.107 45.5,103.5 Z"/></g>
<g><path style="opacity:1" fill="#4a4a49" d="M 43.5,102.5 C 43.8417,103.338 44.5084,103.672 45.5,103.5C 40.1154,109.107 35.2821,115.107 31,121.5C 30.5014,125.152 30.3347,128.818 30.5,132.5C 29.6787,129.359 29.1787,126.025 29,122.5C 28.6174,121.944 28.1174,121.611 27.5,121.5C 27.5,121.167 27.5,120.833 27.5,120.5C 30.9887,117.511 33.4887,113.844 35,109.5C 37.4356,106.553 40.2689,104.22 43.5,102.5 Z"/></g>
<g><path style="opacity:1" fill="#cbcac2" d="M 32.5,28.5 C 32.5,28.8333 32.5,29.1667 32.5,29.5C 32.1692,37.1955 32.5025,44.8622 33.5,52.5C 36.8178,55.3172 39.9845,58.3172 43,61.5C 43.4999,75.1626 43.6666,88.8293 43.5,102.5C 40.2689,104.22 37.4356,106.553 35,109.5C 33.4887,113.844 30.9887,117.511 27.5,120.5C 26.5119,125.64 26.1786,130.974 26.5,136.5C 47.8333,136.5 69.1667,136.5 90.5,136.5C 85.6835,137.326 80.6835,137.826 75.5,138C 75.8333,138.333 76.1667,138.667 76.5,139C 75.635,140.359 74.635,141.526 73.5,142.5C 55.8333,142.5 38.1667,142.5 20.5,142.5C 20.3336,134.16 20.5003,125.827 21,117.5C 24.5715,114.945 26.9048,111.612 28,107.5C 30.6667,104.833 33.3333,102.167 36,99.5C 36.6667,87.5 36.6667,75.5 36,63.5C 32.6291,60.2975 29.4625,56.9641 26.5,53.5C 28.0443,53.2969 29.3777,52.6302 30.5,51.5C 31.1667,43.6771 31.8334,36.0104 32.5,28.5 Z"/></g>
<g><path style="opacity:0.934" fill="#cccbc3" d="M 93.5,21.5 C 102.833,21.5 112.167,21.5 121.5,21.5C 121.667,32.505 121.5,43.505 121,54.5C 116.973,57.194 113.639,60.5273 111,64.5C 110.333,75.8333 110.333,87.1667 111,98.5C 114,101.5 117,104.5 120,107.5C 120.333,109.167 120.667,110.833 121,112.5C 123.374,114.539 125.374,116.872 127,119.5C 127.5,127.159 127.666,134.826 127.5,142.5C 109.5,142.5 91.5,142.5 73.5,142.5C 74.635,141.526 75.635,140.359 76.5,139C 76.1667,138.667 75.8333,138.333 75.5,138C 80.6835,137.826 85.6835,137.326 90.5,136.5C 100.681,136.827 110.681,136.494 120.5,135.5C 120.666,130.489 120.499,125.489 120,120.5C 117.954,118.624 116.121,116.624 114.5,114.5C 113.052,109.21 109.885,105.21 105,102.5C 104.333,88.8333 104.333,75.1667 105,61.5C 108.333,58.1667 111.667,54.8333 115,51.5C 115.5,43.8406 115.666,36.1739 115.5,28.5C 109.833,28.5 104.167,28.5 98.5,28.5C 103.985,27.6728 109.652,27.1728 115.5,27C 115,26.5 114.5,26 114,25.5C 112.274,26.5762 110.441,26.7429 108.5,26C 109.672,25.5814 110.672,24.9147 111.5,24C 109.559,23.2571 107.726,23.4238 106,24.5C 101.462,24.175 97.2951,23.175 93.5,21.5 Z"/></g>
<g><path style="opacity:1" fill="#5c5b59" d="M 27.5,120.5 C 27.5,120.833 27.5,121.167 27.5,121.5C 27.5,126.167 27.5,130.833 27.5,135.5C 58.5,135.5 89.5,135.5 120.5,135.5C 110.681,136.494 100.681,136.827 90.5,136.5C 69.1667,136.5 47.8333,136.5 26.5,136.5C 26.1786,130.974 26.5119,125.64 27.5,120.5 Z"/></g>
</svg>
