<?xml version="1.0" encoding="UTF-8"?>
<!DOCTYPE svg PUBLIC "-//W3C//DTD SVG 1.1//EN" "http://www.w3.org/Graphics/SVG/1.1/DTD/svg11.dtd">
<svg xmlns="http://www.w3.org/2000/svg" version="1.1" width="150px" height="150px" style="shape-rendering:geometricPrecision; text-rendering:geometricPrecision; image-rendering:optimizeQuality; fill-rule:evenodd; clip-rule:evenodd" xmlns:xlink="http://www.w3.org/1999/xlink">
<g><path style="opacity:0.162" fill="#fb0000" d="M 64.5,4.5 C 71.175,4.33375 77.8417,4.50042 84.5,5C 86.0009,6.25152 87.6675,7.25152 89.5,8C 90.3041,9.77135 91.4708,11.2713 93,12.5C 94.1671,17.5045 95.3338,22.5045 96.5,27.5C 112.3,39.4549 119.133,55.4549 117,75.5C 115.894,79.8035 114.894,84.1368 114,88.5C 111.853,92.4546 110.019,96.4546 108.5,100.5C 119.555,100.121 130.555,100.621 141.5,102C 145.815,104.305 147.482,107.972 146.5,113C 145.555,121.616 144.055,130.116 142,138.5C 141.347,140.564 140.18,142.231 138.5,143.5C 119.528,145.978 100.528,146.145 81.5,144C 79.1614,142.677 76.9947,141.177 75,139.5C 73.0748,140.88 71.2415,142.38 69.5,144C 50.4989,145.978 31.4989,145.978 12.5,144C 10.652,142.482 9.15195,140.649 8,138.5C 7.6247,134.332 6.6247,130.332 5,126.5C 3.32087,118.516 3.1542,110.516 4.5,102.5C 16.7683,101.049 29.1016,100.049 41.5,99.5C 33.2724,84.3479 31.1057,68.3479 35,51.5C 38.109,44.2648 41.9424,37.5981 46.5,31.5C 48.6382,31.297 50.3049,30.297 51.5,28.5C 52.0502,22.2908 53.3835,16.2908 55.5,10.5C 56.5,10.5 57.5,10.5 58.5,10.5C 58.5,9.5 58.5,8.5 58.5,7.5C 60.9699,7.34647 62.9699,6.34647 64.5,4.5 Z"/></g>
<g><path style="opacity:0.911" fill="#1e0703" d="M 70.5,14.5 C 78.4717,13.6373 83.4717,16.9707 85.5,24.5C 81.7907,32.5925 78.624,40.9258 76,49.5C 74.3233,55.0488 73.4899,60.7155 73.5,66.5C 74.5,66.5 75.5,66.5 76.5,66.5C 76.6251,55.1644 79.6251,44.6644 85.5,35C 92.7448,37.5615 98.2448,42.3949 102,49.5C 109.491,63.3091 109.157,76.9758 101,90.5C 99.1667,93.6667 96.6667,96.1667 93.5,98C 81.1667,98.6667 68.8333,98.6667 56.5,98C 48.2644,92.017 43.7644,83.8504 43,73.5C 42.0153,55.8037 49.1819,42.4704 64.5,33.5C 60.3418,25.0024 62.3418,18.669 70.5,14.5 Z"/></g>
<g><path style="opacity:0.92" fill="#f66367" d="M 77.5,18.5 C 75.5435,20.5905 73.3768,22.5905 71,24.5C 70.5017,27.8168 70.335,31.1501 70.5,34.5C 65.8107,31.8226 64.3107,27.8226 66,22.5C 68.7482,17.763 72.5816,16.4297 77.5,18.5 Z"/></g>
<g><path style="opacity:0.91" fill="#f66667" d="M 95.5,45.5 C 93.8657,46.9717 92.3657,48.6383 91,50.5C 89.8814,54.0705 88.2147,57.4039 86,60.5C 85.6667,64.1667 85.3333,67.8333 85,71.5C 84.6924,72.3081 84.1924,72.9747 83.5,73.5C 80.562,74.5748 77.562,74.7415 74.5,74C 73.6426,71.9812 72.3092,70.4812 70.5,69.5C 73.5,69.5 76.5,69.5 79.5,69.5C 79.3141,58.9105 81.6474,48.9105 86.5,39.5C 90.3731,39.6369 93.3731,41.6369 95.5,45.5 Z"/></g>
<g><path style="opacity:0.91" fill="#fa6869" d="M 69.5,35.5 C 68.8153,37.4144 68.3153,39.4144 68,41.5C 60.8969,50.7082 56.2302,61.0415 54,72.5C 52.6667,74.5 51.3333,76.5 50,78.5C 49.3292,79.2524 48.4959,79.5858 47.5,79.5C 43.1075,63.8403 47.1075,50.6736 59.5,40C 62.469,37.682 65.8023,36.182 69.5,35.5 Z"/></g>
<g><path style="opacity:0.867" fill="#f81e1f" d="M 77.5,18.5 C 80.3781,19.2122 82.0448,21.0456 82.5,24C 79.6781,30.4519 76.8448,36.9519 74,43.5C 73.4657,47.3048 72.4657,50.9714 71,54.5C 70.5007,59.4889 70.3341,64.4889 70.5,69.5C 72.3092,70.4812 73.6426,71.9812 74.5,74C 77.562,74.7415 80.562,74.5748 83.5,73.5C 84.1924,72.9747 84.6924,72.3081 85,71.5C 85.3333,67.8333 85.6667,64.1667 86,60.5C 88.2147,57.4039 89.8814,54.0705 91,50.5C 92.3657,48.6383 93.8657,46.9717 95.5,45.5C 107.975,62.4002 107.308,78.9002 93.5,95C 81.1667,95.6667 68.8333,95.6667 56.5,95C 51.8169,90.7991 48.8169,85.6324 47.5,79.5C 48.4959,79.5858 49.3292,79.2524 50,78.5C 51.3333,76.5 52.6667,74.5 54,72.5C 56.2302,61.0415 60.8969,50.7082 68,41.5C 68.3153,39.4144 68.8153,37.4144 69.5,35.5C 70.1667,35.5 70.5,35.1667 70.5,34.5C 70.335,31.1501 70.5017,27.8168 71,24.5C 73.3768,22.5905 75.5435,20.5905 77.5,18.5 Z"/></g>
<g><path style="opacity:0.994" fill="#220c09" d="M 102.5,110.5 C 113.654,111.495 124.988,111.828 136.5,111.5C 136.5,112.833 136.5,114.167 136.5,115.5C 134.577,122.026 133.244,128.693 132.5,135.5C 117.496,135.667 102.496,135.5 87.5,135C 83.2363,131.671 79.0697,128.171 75,124.5C 70.8197,128.016 66.6531,131.516 62.5,135C 47.5037,135.5 32.5037,135.667 17.5,135.5C 16.7574,128.694 15.4241,122.027 13.5,115.5C 13.5,114.167 13.5,112.833 13.5,111.5C 25.0123,111.828 36.3456,111.495 47.5,110.5C 49.701,107.979 52.0343,105.479 54.5,103C 68.1667,102.333 81.8333,102.333 95.5,103C 97.5017,105.86 99.835,108.36 102.5,110.5 Z"/></g>
<g><path style="opacity:0.867" fill="#fb1e20" d="M 58.5,105.5 C 70.5046,105.333 82.5046,105.5 94.5,106C 96.7337,109.736 99.7337,112.57 103.5,114.5C 105.999,117.169 108.332,120.002 110.5,123C 117.492,123.5 124.492,123.666 131.5,123.5C 130.833,126.5 130.167,129.5 129.5,132.5C 115.496,132.667 101.496,132.5 87.5,132C 83.9559,128.946 80.6226,125.613 77.5,122C 75.8333,121.333 74.1667,121.333 72.5,122C 69.1396,125.36 65.8063,128.694 62.5,132C 48.1705,132.5 33.8372,132.667 19.5,132.5C 19.2962,129.482 18.9629,126.482 18.5,123.5C 30.1714,123.667 41.8381,123.5 53.5,123C 61.811,118.9 63.4777,113.066 58.5,105.5 Z"/></g>
<g><path style="opacity:0.387" fill="#950000" d="M 47.5,110.5 C 36.3456,111.495 25.0123,111.828 13.5,111.5C 13.5,112.833 13.5,114.167 13.5,115.5C 12.5489,114.081 12.2155,112.415 12.5,110.5C 24.1667,110.5 35.8333,110.5 47.5,110.5 Z"/></g>
<g><path style="opacity:0.387" fill="#9a0000" d="M 102.5,110.5 C 114.167,110.5 125.833,110.5 137.5,110.5C 137.784,112.415 137.451,114.081 136.5,115.5C 136.5,114.167 136.5,112.833 136.5,111.5C 124.988,111.828 113.654,111.495 102.5,110.5 Z"/></g>
<g><path style="opacity:0.906" fill="#fd686a" d="M 58.5,105.5 C 63.4777,113.066 61.811,118.9 53.5,123C 41.8381,123.5 30.1714,123.667 18.5,123.5C 17.087,120.781 16.4203,117.781 16.5,114.5C 26.8387,114.666 37.172,114.5 47.5,114C 50.8333,112 53.5,109.333 55.5,106C 56.448,105.517 57.448,105.351 58.5,105.5 Z"/></g>
<g><path style="opacity:0.906" fill="#fd6769" d="M 103.5,114.5 C 113.5,114.5 123.5,114.5 133.5,114.5C 133.084,117.583 132.417,120.583 131.5,123.5C 124.492,123.666 117.492,123.5 110.5,123C 108.332,120.002 105.999,117.169 103.5,114.5 Z"/></g>
</svg>
