<?xml version="1.0" encoding="UTF-8"?>
<!DOCTYPE svg PUBLIC "-//W3C//DTD SVG 1.1//EN" "http://www.w3.org/Graphics/SVG/1.1/DTD/svg11.dtd">
<svg xmlns="http://www.w3.org/2000/svg" version="1.1" width="150px" height="150px" style="shape-rendering:geometricPrecision; text-rendering:geometricPrecision; image-rendering:optimizeQuality; fill-rule:evenodd; clip-rule:evenodd" xmlns:xlink="http://www.w3.org/1999/xlink">
<g><path style="opacity:0.166" fill="#fa0000" d="M 64.5,4.5 C 86.5896,-0.138505 97.2563,8.52816 96.5,30.5C 125.323,26.9958 140.99,39.6625 143.5,68.5C 143.198,76.3398 141.198,83.6731 137.5,90.5C 132.7,95.9655 128.033,101.465 123.5,107C 129.246,118.056 130.413,129.556 127,141.5C 126.097,142.701 124.931,143.535 123.5,144C 94.854,145.558 66.1873,145.892 37.5,145C 32.5304,145.064 27.8638,144.064 23.5,142C 21.0397,132.612 20.873,123.112 23,113.5C 24.57,111.395 26.07,109.229 27.5,107C 23.5922,102.055 19.2589,97.5554 14.5,93.5C 6.94022,81.6563 4.77355,68.9896 8,55.5C 12.3878,42.4428 21.2211,34.2762 34.5,31C 41.2,29.8102 47.8667,29.3102 54.5,29.5C 53.4537,23.7525 53.9537,18.0858 56,12.5C 58.1565,9.02414 60.9898,6.35748 64.5,4.5 Z"/></g>
<g><path style="opacity:0.967" fill="#200804" d="M 70.5,14.5 C 84.1919,14.0286 89.0253,20.3619 85,33.5C 82.1939,40.4455 78.8606,47.1122 75,53.5C 70.8217,46.4767 67.155,39.1433 64,31.5C 61.6665,23.9189 63.8332,18.2523 70.5,14.5 Z"/></g>
<g><path style="opacity:0.877" fill="#f92226" d="M 75.5,17.5 C 83.0643,18.7188 85.5643,23.0521 83,30.5C 80.6228,36.2566 77.9561,41.9233 75,47.5C 72.3668,43.8981 70.5334,39.8981 69.5,35.5C 68.654,28.5143 71.3206,23.5143 77.5,20.5C 76.8075,19.4822 76.1408,18.4822 75.5,17.5 Z"/></g>
<g><path style="opacity:0.915" fill="#f66469" d="M 75.5,17.5 C 76.1408,18.4822 76.8075,19.4822 77.5,20.5C 71.3206,23.5143 68.654,28.5143 69.5,35.5C 66.7478,31.2987 65.9144,26.6321 67,21.5C 68.8514,18.1619 71.6847,16.8285 75.5,17.5 Z"/></g>
<g><path style="opacity:0.995" fill="#1e0805" d="M 114.5,99.5 C 114.672,98.5084 114.338,97.8417 113.5,97.5C 117.088,92.4067 121.255,87.74 126,83.5C 132.502,72.5985 132.002,62.2652 124.5,52.5C 118.239,45.1868 110.239,42.1868 100.5,43.5C 95.7229,44.2202 91.3896,46.0535 87.5,49C 83.2978,53.3702 78.9645,57.5368 74.5,61.5C 68.7968,53.6315 61.4635,47.7982 52.5,44C 49.5184,43.502 46.5184,43.3354 43.5,43.5C 28.7496,45.2519 20.7496,53.5852 19.5,68.5C 19.6667,70.8333 19.8333,73.1667 20,75.5C 21.2754,77.7173 22.2754,80.0506 23,82.5C 29.0465,88.0445 34.5465,94.0445 39.5,100.5C 41.8321,103.665 43.4988,107.165 44.5,111C 49.1356,110.876 53.8023,110.71 58.5,110.5C 56.369,111.314 54.0356,111.814 51.5,112C 52.7932,112.49 54.1266,112.657 55.5,112.5C 50.9813,113.363 46.3146,114.197 41.5,115C 38.6945,116.382 36.3612,118.216 34.5,120.5C 33.8333,120.167 33.1667,119.833 32.5,119.5C 33.6138,118.115 34.6138,116.615 35.5,115C 37.8743,114.152 39.8743,112.819 41.5,111C 36.2391,101.057 29.4057,92.2241 21,84.5C 11.527,64.2843 17.027,49.7843 37.5,41C 47.4531,38.9238 56.4531,40.9238 64.5,47C 68,50.5 71.5,54 75,57.5C 80.7648,50.0557 87.9315,44.5557 96.5,41C 120.701,38.542 132.868,49.3753 133,73.5C 131.885,77.7293 130.219,81.7293 128,85.5C 123.269,90.062 118.769,94.7287 114.5,99.5 Z"/></g>
<g><path style="opacity:0.867" fill="#fc1f20" d="M 43.5,43.5 C 46.5184,43.3354 49.5184,43.502 52.5,44C 61.4635,47.7982 68.7968,53.6315 74.5,61.5C 75.3007,63.0418 75.634,64.7085 75.5,66.5C 79.4629,66.9111 83.1295,66.0778 86.5,64C 91.0659,57.014 95.7325,50.1807 100.5,43.5C 110.239,42.1868 118.239,45.1868 124.5,52.5C 125.268,58.1351 125.101,63.8018 124,69.5C 121.289,74.4247 118.456,79.2581 115.5,84C 114.5,84.3333 113.5,84.6667 112.5,85C 103.887,94.4889 93.8867,102.322 82.5,108.5C 75.6786,109.167 69.0119,109.833 62.5,110.5C 61.1667,110.5 59.8333,110.5 58.5,110.5C 53.8023,110.71 49.1356,110.876 44.5,111C 43.4988,107.165 41.8321,103.665 39.5,100.5C 41.1068,90.8287 38.6068,82.4953 32,75.5C 26.2558,61.2234 30.0892,50.5567 43.5,43.5 Z"/></g>
<g><path style="opacity:0.906" fill="#fa6567" d="M 100.5,43.5 C 95.7325,50.1807 91.0659,57.014 86.5,64C 83.1295,66.0778 79.4629,66.9111 75.5,66.5C 75.634,64.7085 75.3007,63.0418 74.5,61.5C 78.9645,57.5368 83.2978,53.3702 87.5,49C 91.3896,46.0535 95.7229,44.2202 100.5,43.5 Z"/></g>
<g><path style="opacity:0.906" fill="#fa6769" d="M 43.5,43.5 C 30.0892,50.5567 26.2558,61.2234 32,75.5C 38.6068,82.4953 41.1068,90.8287 39.5,100.5C 34.5465,94.0445 29.0465,88.0445 23,82.5C 22.2754,80.0506 21.2754,77.7173 20,75.5C 19.8333,73.1667 19.6667,70.8333 19.5,68.5C 20.7496,53.5852 28.7496,45.2519 43.5,43.5 Z"/></g>
<g><path style="opacity:0.981" fill="#1c0503" d="M 41.5,62.5 C 44.3198,62.2475 46.9865,62.7475 49.5,64C 55.1363,68.7929 59.803,74.2929 63.5,80.5C 62.0887,85.7074 58.7554,87.5408 53.5,86C 47.5326,80.8758 42.5326,75.0425 38.5,68.5C 38.9837,66.1992 39.9837,64.1992 41.5,62.5 Z"/></g>
<g><path style="opacity:0.979" fill="#1f0704" d="M 101.5,62.5 C 105.594,61.7046 108.761,63.038 111,66.5C 111.635,68.6354 111.301,70.6354 110,72.5C 105.833,76.6667 101.667,80.8333 97.5,85C 89.9505,87.9838 86.4505,85.4838 87,77.5C 92.0365,72.6313 96.8698,67.6313 101.5,62.5 Z"/></g>
<g><path style="opacity:0.256" fill="#f30000" d="M 43.5,65.5 C 44.8734,65.3433 46.2068,65.51 47.5,66C 51.6667,70.1667 55.8333,74.3333 60,78.5C 60.339,82.4874 58.5057,83.9874 54.5,83C 50.3333,78.8333 46.1667,74.6667 42,70.5C 41.3872,68.5048 41.8872,66.8381 43.5,65.5 Z"/></g>
<g><path style="opacity:0.257" fill="#f50000" d="M 102.5,65.5 C 107.068,65.0826 108.568,67.0826 107,71.5C 103.167,75.3333 99.3333,79.1667 95.5,83C 91.4943,83.9874 89.661,82.4874 90,78.5C 94.3702,74.2978 98.5368,69.9645 102.5,65.5 Z"/></g>
<g><path style="opacity:0.908" fill="#e91617" d="M 124.5,52.5 C 132.002,62.2652 132.502,72.5985 126,83.5C 121.255,87.74 117.088,92.4067 113.5,97.5C 109.301,101.224 106.635,105.891 105.5,111.5C 91.1801,110.73 76.8468,110.396 62.5,110.5C 69.0119,109.833 75.6786,109.167 82.5,108.5C 93.8867,102.322 103.887,94.4889 112.5,85C 113.5,84.6667 114.5,84.3333 115.5,84C 118.456,79.2581 121.289,74.4247 124,69.5C 125.101,63.8018 125.268,58.1351 124.5,52.5 Z"/></g>
<g><path style="opacity:0.996" fill="#1e0602" d="M 113.5,97.5 C 114.338,97.8417 114.672,98.5084 114.5,99.5C 112.241,103.017 110.241,106.683 108.5,110.5C 112.131,113.3 115.298,116.633 118,120.5C 119.325,125.401 119.825,130.401 119.5,135.5C 89.8333,135.5 60.1667,135.5 30.5,135.5C 30.0008,129.942 30.6674,124.608 32.5,119.5C 33.1667,119.833 33.8333,120.167 34.5,120.5C 33.3563,124.648 33.3563,128.648 34.5,132.5C 61.8333,132.5 89.1667,132.5 116.5,132.5C 116.665,129.15 116.498,125.817 116,122.5C 115.623,121.058 114.79,120.058 113.5,119.5C 110.873,115.731 107.206,113.897 102.5,114C 86.8664,112.659 71.1997,112.159 55.5,112.5C 54.1266,112.657 52.7932,112.49 51.5,112C 54.0356,111.814 56.369,111.314 58.5,110.5C 59.8333,110.5 61.1667,110.5 62.5,110.5C 76.8468,110.396 91.1801,110.73 105.5,111.5C 106.635,105.891 109.301,101.224 113.5,97.5 Z"/></g>
<g><path style="opacity:0.908" fill="#f76666" d="M 55.5,112.5 C 71.1997,112.159 86.8664,112.659 102.5,114C 107.206,113.897 110.873,115.731 113.5,119.5C 111.588,120.799 109.588,121.799 107.5,122.5C 105.708,122.366 104.042,122.699 102.5,123.5C 81.1641,123.333 59.8307,123.5 38.5,124C 35.1558,125.894 33.8224,128.727 34.5,132.5C 33.3563,128.648 33.3563,124.648 34.5,120.5C 36.3612,118.216 38.6945,116.382 41.5,115C 46.3146,114.197 50.9813,113.363 55.5,112.5 Z"/></g>
<g><path style="opacity:0.867" fill="#fd1d1e" d="M 107.5,122.5 C 108.833,122.5 110.167,122.5 111.5,122.5C 112.145,125.547 111.145,127.713 108.5,129C 85.4928,129.833 62.4928,129.666 39.5,128.5C 38.2889,127.28 38.2889,126.113 39.5,125C 60.6707,124.832 81.6707,124.332 102.5,123.5C 104.042,122.699 105.708,122.366 107.5,122.5 Z"/></g>
<g><path style="opacity:0.884" fill="#fa2429" d="M 113.5,119.5 C 114.79,120.058 115.623,121.058 116,122.5C 116.498,125.817 116.665,129.15 116.5,132.5C 89.1667,132.5 61.8333,132.5 34.5,132.5C 33.8224,128.727 35.1558,125.894 38.5,124C 59.8307,123.5 81.1641,123.333 102.5,123.5C 81.6707,124.332 60.6707,124.832 39.5,125C 38.2889,126.113 38.2889,127.28 39.5,128.5C 62.4928,129.666 85.4928,129.833 108.5,129C 111.145,127.713 112.145,125.547 111.5,122.5C 110.167,122.5 108.833,122.5 107.5,122.5C 109.588,121.799 111.588,120.799 113.5,119.5 Z"/></g>
</svg>
