<?xml version="1.0" encoding="UTF-8"?>
<!DOCTYPE svg PUBLIC "-//W3C//DTD SVG 1.1//EN" "http://www.w3.org/Graphics/SVG/1.1/DTD/svg11.dtd">
<svg xmlns="http://www.w3.org/2000/svg" version="1.1" width="150px" height="150px" style="shape-rendering:geometricPrecision; text-rendering:geometricPrecision; image-rendering:optimizeQuality; fill-rule:evenodd; clip-rule:evenodd" xmlns:xlink="http://www.w3.org/1999/xlink">
<g><path style="opacity:0.17" fill="#fb0000" d="M 52.5,4.5 C 57.544,4.17252 62.544,4.50585 67.5,5.5C 71.1726,8.67315 74.6726,12.0065 78,15.5C 109.002,19.1664 127.002,36.4997 132,67.5C 133.186,80.8196 132.353,93.9863 129.5,107C 134.885,116.838 136.718,127.338 135,138.5C 133.848,140.649 132.348,142.482 130.5,144C 101.519,145.549 72.5194,145.883 43.5,145C 30.9505,146.744 25.6172,141.41 27.5,129C 27.0743,121.7 28.4077,114.867 31.5,108.5C 32.5,108.5 33.5,108.5 34.5,108.5C 35.7444,105.31 36.7444,101.977 37.5,98.5C 27.959,97.5678 20.1257,93.5678 14,86.5C 12.2588,80.1467 12.2588,73.8133 14,67.5C 18.4724,61.0196 22.9724,54.5196 27.5,48C 30.2053,42.1203 32.5386,36.1203 34.5,30C 37.0084,26.8316 39.8417,23.9983 43,21.5C 44.7995,17.2681 46.2995,12.9348 47.5,8.5C 49.21,7.11276 50.8767,5.77943 52.5,4.5 Z"/></g>
<g><path style="opacity:0.985" fill="#200904" d="M 57.5,14.5 C 58.8734,14.3433 60.2068,14.51 61.5,15C 64.8604,18.3604 68.1937,21.6937 71.5,25C 96.9529,27.1345 113.453,40.3012 121,64.5C 123.506,80.0262 122.673,95.3595 118.5,110.5C 118.456,113.974 119.956,116.64 123,118.5C 125.205,123.932 126.038,129.598 125.5,135.5C 95.8333,135.5 66.1667,135.5 36.5,135.5C 34.7623,126.542 37.2623,119.209 44,113.5C 44.6217,107.347 46.6217,101.68 50,96.5C 55.9565,90.3644 62.2898,84.6978 69,79.5C 70.6006,76.9058 70.7673,74.2392 69.5,71.5C 64.2521,76.6403 57.9188,79.1403 50.5,79C 47.8084,81.5572 45.475,84.3905 43.5,87.5C 35.0984,89.5405 28.2651,87.2072 23,80.5C 22.3333,78.1667 22.3333,75.8333 23,73.5C 26.946,67.2206 31.2794,61.2206 36,55.5C 38.8941,49.7127 41.2275,43.7127 43,37.5C 45.6667,34.1667 48.6667,31.1667 52,28.5C 53.4657,24.9714 54.4657,21.3048 55,17.5C 56.045,16.6266 56.8783,15.6266 57.5,14.5 Z"/></g>
<g><path style="opacity:0.91" fill="#f8686a" d="M 62.5,20.5 C 61.3563,24.9716 60.523,29.6383 60,34.5C 55.973,38.527 51.973,42.527 48,46.5C 47.6903,60.975 40.5236,69.975 26.5,73.5C 35.0587,63.0559 41.5587,51.3892 46,38.5C 48.6396,35.8604 51.3063,33.1937 54,30.5C 55.7322,26.6366 57.0656,22.6366 58,18.5C 60.1079,17.3877 61.6079,18.0543 62.5,20.5 Z"/></g>
<g><path style="opacity:0.909" fill="#eb1617" d="M 87.5,31.5 C 108.783,40.1643 119.449,56.1643 119.5,79.5C 119.278,88.2229 118.444,96.8895 117,105.5C 116.218,108.216 114.884,110.55 113,112.5C 98.2335,110.762 83.4002,110.096 68.5,110.5C 76.9903,109.67 85.657,109.17 94.5,109C 94.0426,108.586 93.7093,108.086 93.5,107.5C 94.154,105.885 94.654,104.218 95,102.5C 99.8416,94.5709 103.842,86.2375 107,77.5C 110.151,58.8136 103.817,44.4803 88,34.5C 87.5172,33.552 87.3505,32.552 87.5,31.5 Z"/></g>
<g><path style="opacity:0.867" fill="#fd1e1f" d="M 62.5,20.5 C 65.2971,22.795 67.9638,25.295 70.5,28C 76.3646,28.3844 82.0313,29.551 87.5,31.5C 87.3505,32.552 87.5172,33.552 88,34.5C 103.817,44.4803 110.151,58.8136 107,77.5C 103.842,86.2375 99.8416,94.5709 95,102.5C 94.654,104.218 94.154,105.885 93.5,107.5C 93.7093,108.086 94.0426,108.586 94.5,109C 85.657,109.17 76.9903,109.67 68.5,110.5C 62.143,110.476 55.8097,110.81 49.5,111.5C 48.3789,109.911 48.5456,108.244 50,106.5C 52.0111,103.99 54.1778,101.657 56.5,99.5C 61.3614,97.8196 65.8614,95.4863 70,92.5C 71.2367,88.9399 71.7367,85.2733 71.5,81.5C 73.6335,77.0204 73.9668,72.3537 72.5,67.5C 71.8333,67.1667 71.1667,66.8333 70.5,66.5C 67.646,69.1884 64.646,71.6884 61.5,74C 57.9164,75.0734 54.2498,75.7401 50.5,76C 46.2994,79.0361 42.6327,82.5361 39.5,86.5C 35.3865,85.3049 31.3865,83.8049 27.5,82C 25.327,79.3025 24.9937,76.4692 26.5,73.5C 40.5236,69.975 47.6903,60.975 48,46.5C 51.973,42.527 55.973,38.527 60,34.5C 60.523,29.6383 61.3563,24.9716 62.5,20.5 Z"/></g>
<g><path style="opacity:0.913" fill="#f56769" d="M 71.5,81.5 C 71.7367,85.2733 71.2367,88.9399 70,92.5C 65.8614,95.4863 61.3614,97.8196 56.5,99.5C 54.1778,101.657 52.0111,103.99 50,106.5C 48.5456,108.244 48.3789,109.911 49.5,111.5C 49.44,112.043 49.1067,112.376 48.5,112.5C 47.6369,106.912 49.1369,101.912 53,97.5C 59.0387,91.9572 65.2053,86.6239 71.5,81.5 Z"/></g>
<g><path style="opacity:0.908" fill="#f86667" d="M 119.5,119.5 C 116.541,121.543 113.208,122.71 109.5,123C 88.1667,123.333 66.8333,123.667 45.5,124C 42.2882,126.019 40.6216,128.853 40.5,132.5C 38.0215,124.773 40.3549,118.939 47.5,115C 69.8213,111.742 92.1546,111.742 114.5,115C 116.618,116.049 118.284,117.549 119.5,119.5 Z"/></g>
<g><path style="opacity:0.867" fill="#fd2123" d="M 119.5,119.5 C 120.79,120.058 121.623,121.058 122,122.5C 122.498,125.817 122.665,129.15 122.5,132.5C 95.1667,132.5 67.8333,132.5 40.5,132.5C 40.6216,128.853 42.2882,126.019 45.5,124C 66.8333,123.667 88.1667,123.333 109.5,123C 113.208,122.71 116.541,121.543 119.5,119.5 Z"/></g>
</svg>
