<?xml version="1.0" encoding="UTF-8"?>
<!DOCTYPE svg PUBLIC "-//W3C//DTD SVG 1.1//EN" "http://www.w3.org/Graphics/SVG/1.1/DTD/svg11.dtd">
<svg xmlns="http://www.w3.org/2000/svg" version="1.1" width="150px" height="150px" style="shape-rendering:geometricPrecision; text-rendering:geometricPrecision; image-rendering:optimizeQuality; fill-rule:evenodd; clip-rule:evenodd" xmlns:xlink="http://www.w3.org/1999/xlink">
<g><path style="opacity:0.162" fill="#fb0000" d="M 70.5,18.5 C 83.7483,17.0369 93.915,21.7036 101,32.5C 103.949,42.0376 104.283,51.7042 102,61.5C 100.337,63.1579 99.5041,65.1579 99.5,67.5C 98.5,67.5 97.5,67.5 96.5,67.5C 96.4101,71.425 98.0768,74.425 101.5,76.5C 104.755,81.695 106.422,87.3616 106.5,93.5C 107.93,93.4208 109.264,93.7542 110.5,94.5C 127.283,105.995 132.617,121.661 126.5,141.5C 125.5,142.333 124.5,143.167 123.5,144C 94.854,145.558 66.1873,145.892 37.5,145C 33.4592,144.827 29.4592,144.327 25.5,143.5C 23.5761,141.991 22.4094,139.991 22,137.5C 21.1695,129.112 21.5028,120.779 23,112.5C 25.121,109.253 26.9543,105.919 28.5,102.5C 29.5,102.5 30.5,102.5 31.5,102.5C 31.5,101.5 31.5,100.5 31.5,99.5C 32.5,99.5 33.5,99.5 34.5,99.5C 34.5,98.5 34.5,97.5 34.5,96.5C 37.7693,96.1156 40.6026,94.7823 43,92.5C 43.8966,84.7807 46.8966,78.114 52,72.5C 52.6667,70.8333 52.6667,69.1667 52,67.5C 47.0901,61.95 45.2568,55.45 46.5,48C 46.6667,44.1667 46.8333,40.3333 47,36.5C 48.3599,32.4466 50.1932,28.7799 52.5,25.5C 55.5949,23.448 58.9282,21.6146 62.5,20C 65.3647,19.8171 68.0314,19.3171 70.5,18.5 Z"/></g>
<g><path style="opacity:0.989" fill="#1f0702" d="M 70.5,28.5 C 81.9631,27.8148 89.7964,32.8148 94,43.5C 94.5186,60.9782 86.0186,68.8115 68.5,67C 55.6633,59.8241 52.4966,49.6574 59,36.5C 62.4821,33.1608 66.3155,30.4942 70.5,28.5 Z"/></g>
<g><path style="opacity:0.867" fill="#f81c1e" d="M 83.5,34.5 C 93.815,43.2075 94.1483,52.3742 84.5,62C 75.3686,66.5741 67.5352,65.0741 61,57.5C 60.5357,56.9056 60.369,56.2389 60.5,55.5C 62.0443,55.7031 63.3777,56.3698 64.5,57.5C 64.6964,44.646 71.0297,36.9793 83.5,34.5 Z"/></g>
<g><path style="opacity:0.913" fill="#f66568" d="M 83.5,34.5 C 71.0297,36.9793 64.6964,44.646 64.5,57.5C 63.3777,56.3698 62.0443,55.7031 60.5,55.5C 56.8941,47.784 58.2274,40.9506 64.5,35C 70.8462,30.6379 77.1795,30.4712 83.5,34.5 Z"/></g>
<g><path style="opacity:0.995" fill="#200803" d="M 71.5,71.5 C 87.6974,74.2054 96.5307,83.872 98,100.5C 113.465,107.128 120.298,118.794 118.5,135.5C 89.1667,135.5 59.8333,135.5 30.5,135.5C 29.5079,119.135 36.5079,107.469 51.5,100.5C 52.7694,86.9298 59.4361,77.2631 71.5,71.5 Z"/></g>
<g><path style="opacity:0.867" fill="#fe2021" d="M 76.5,75.5 C 78.099,75.2322 79.4324,75.5655 80.5,76.5C 84.1291,79.9817 87.2958,83.9817 90,88.5C 90.3333,93.5 90.6667,98.5 91,103.5C 93.3989,106.12 95.0656,109.12 96,112.5C 97.5789,118.785 97.7456,125.118 96.5,131.5C 77.4971,131.667 58.4971,131.5 39.5,131C 38.255,130.209 36.9217,129.709 35.5,129.5C 41.4132,114.542 52.4132,109.042 68.5,113C 74.1253,111.21 76.7919,107.377 76.5,101.5C 69.4122,101.795 62.4122,101.462 55.5,100.5C 55.5,99.5 55.5,98.5 55.5,97.5C 58.2295,90.6016 63.2295,86.1016 70.5,84C 73.564,81.7928 75.564,78.9594 76.5,75.5 Z"/></g>
<g><path style="opacity:0.91" fill="#f66769" d="M 76.5,75.5 C 75.564,78.9594 73.564,81.7928 70.5,84C 63.2295,86.1016 58.2295,90.6016 55.5,97.5C 56.323,87.8413 60.9897,80.6746 69.5,76C 71.8098,75.5034 74.1432,75.3367 76.5,75.5 Z"/></g>
<g><path style="opacity:0.908" fill="#ee1719" d="M 80.5,76.5 C 90.22,81.9359 94.72,90.2692 94,101.5C 103.515,105.085 110.515,111.418 115,120.5C 115.499,124.486 115.666,128.486 115.5,132.5C 88.8333,132.5 62.1667,132.5 35.5,132.5C 35.5,131.5 35.5,130.5 35.5,129.5C 36.9217,129.709 38.255,130.209 39.5,131C 58.4971,131.5 77.4971,131.667 96.5,131.5C 97.7456,125.118 97.5789,118.785 96,112.5C 95.0656,109.12 93.3989,106.12 91,103.5C 90.6667,98.5 90.3333,93.5 90,88.5C 87.2958,83.9817 84.1291,79.9817 80.5,76.5 Z"/></g>
<g><path style="opacity:0.91" fill="#fb696a" d="M 55.5,100.5 C 62.4122,101.462 69.4122,101.795 76.5,101.5C 76.7919,107.377 74.1253,111.21 68.5,113C 52.4132,109.042 41.4132,114.542 35.5,129.5C 35.5,130.5 35.5,131.5 35.5,132.5C 32.8784,127.675 33.0451,122.675 36,117.5C 38.4626,114.035 41.2959,110.869 44.5,108C 48.5796,105.971 52.2463,103.471 55.5,100.5 Z"/></g>
</svg>
