<?xml version="1.0" encoding="UTF-8"?>
<!DOCTYPE svg PUBLIC "-//W3C//DTD SVG 1.1//EN" "http://www.w3.org/Graphics/SVG/1.1/DTD/svg11.dtd">
<svg xmlns="http://www.w3.org/2000/svg" version="1.1" width="150px" height="150px" style="shape-rendering:geometricPrecision; text-rendering:geometricPrecision; image-rendering:optimizeQuality; fill-rule:evenodd; clip-rule:evenodd" xmlns:xlink="http://www.w3.org/1999/xlink">
<g><path style="opacity:0.182" fill="#fb0000" d="M 49.5,13.5 C 55.8421,13.3338 62.1754,13.5005 68.5,14C 70.6641,14.9143 72.6641,16.081 74.5,17.5C 77.0876,16.8064 79.421,15.6398 81.5,14C 87.8333,13.3333 94.1667,13.3333 100.5,14C 108.603,17.0436 112.603,22.8769 112.5,31.5C 136.865,27.3346 147.365,37.3346 144,61.5C 141.401,66.4342 137.734,70.4342 133,73.5C 129.262,84.2151 125.429,94.8817 121.5,105.5C 123.523,108.29 125.356,111.29 127,114.5C 130.1,123.549 130.1,132.549 127,141.5C 126.097,142.701 124.931,143.535 123.5,144C 92.8445,145.779 62.1778,145.946 31.5,144.5C 26.5856,145.061 23.419,143.061 22,138.5C 21.0387,129.721 21.5387,121.055 23.5,112.5C 24.8026,110.623 26.3026,108.957 28,107.5C 28.6667,105.833 28.6667,104.167 28,102.5C 24.0866,93.7648 20.7533,84.7648 18,75.5C 14.9708,72.3935 11.8041,69.3935 8.5,66.5C 2.69102,55.2292 3.69102,44.7292 11.5,35C 13.3325,34.2515 14.9991,33.2515 16.5,32C 23.4921,31.5004 30.4921,31.3337 37.5,31.5C 37.3359,28.8127 37.5026,26.146 38,23.5C 41.2148,19.3406 45.0482,16.0073 49.5,13.5 Z"/></g>
<g><path style="opacity:0.928" fill="#1d0704" d="M 115.5,117.5 C 114.508,117.328 113.842,117.662 113.5,118.5C 111.862,117.343 110.196,116.176 108.5,115C 86.1571,111.719 63.8238,111.719 41.5,115C 39.6125,116.394 37.6125,117.56 35.5,118.5C 35.5,117.833 35.1667,117.5 34.5,117.5C 36.3382,114.894 38.6715,112.728 41.5,111C 36.1329,96.5648 30.9662,82.0648 26,67.5C 22.7772,65.2886 19.7772,62.6219 17,59.5C 12.6567,49.5196 15.8234,43.1863 26.5,40.5C 37.2913,42.7345 40.6246,48.9012 36.5,59C 39.9651,63.4668 43.7984,67.6334 48,71.5C 50.2069,64.0929 52.0402,56.5929 53.5,49C 51.3475,46.1776 49.1808,43.3442 47,40.5C 45.1134,27.7198 50.6134,22.2198 63.5,24C 68.3552,26.3485 71.0218,30.1818 71.5,35.5C 70.9336,39.5404 69.6002,43.2071 67.5,46.5C 69.2338,53.7657 71.7338,60.7657 75,67.5C 77.9314,60.2059 80.7648,52.8726 83.5,45.5C 76.1027,37.1798 77.1027,30.0132 86.5,24C 99.4073,22.2404 104.907,27.7404 103,40.5C 100.79,43.3668 98.6233,46.2002 96.5,49C 97.6308,56.6895 99.4641,64.1895 102,71.5C 105.717,67.2384 109.55,63.0718 113.5,59C 110.184,52.859 111.184,47.5257 116.5,43C 128.356,39.1593 134.523,43.326 135,55.5C 134.333,56.8333 133.667,58.1667 133,59.5C 129.918,62.186 126.918,64.8527 124,67.5C 119.272,81.285 114.272,94.9517 109,108.5C 108.219,109.944 108.386,111.277 109.5,112.5C 112.129,113.467 114.129,115.133 115.5,117.5 Z"/></g>
<g><path style="opacity:0.935" fill="#f05d5f" d="M 127.5,45.5 C 120.57,46.4579 117.904,50.4579 119.5,57.5C 118.209,57.2627 117.209,57.596 116.5,58.5C 112.877,52.3555 114.211,47.5222 120.5,44C 122.5,43.3333 124.5,43.3333 126.5,44C 127.056,44.3826 127.389,44.8826 127.5,45.5 Z"/></g>
<g><path style="opacity:0.914" fill="#f66265" d="M 29.5,44.5 C 28.2073,46.2959 26.7073,47.9625 25,49.5C 24.2585,52.562 24.4252,55.562 25.5,58.5C 23.713,58.9427 22.0463,59.2761 20.5,59.5C 15.8399,53.2998 16.8399,48.1331 23.5,44C 25.7116,43.2109 27.7116,43.3775 29.5,44.5 Z"/></g>
<g><path style="opacity:0.914" fill="#f66366" d="M 95.5,27.5 C 88.9087,29.0787 86.5754,33.0787 88.5,39.5C 86.0914,40.7219 84.258,40.0553 83,37.5C 82.5357,38.0944 82.369,38.7611 82.5,39.5C 80.1694,31.7907 83.1694,27.4573 91.5,26.5C 93.0451,26.5108 94.3784,26.8442 95.5,27.5 Z"/></g>
<g><path style="opacity:0.913" fill="#fa656a" d="M 62.5,27.5 C 56.3183,29.6978 53.9849,34.0311 55.5,40.5C 53.0532,40.385 51.0532,39.385 49.5,37.5C 49.3454,28.0928 53.6788,24.7595 62.5,27.5 Z"/></g>
<g><path style="opacity:0.867" fill="#f91f21" d="M 62.5,27.5 C 67.4918,29.483 69.3251,33.1497 68,38.5C 66.8423,40.9763 65.3423,43.1429 63.5,45C 67.4301,55.9955 71.4301,66.8289 75.5,77.5C 78.0444,77.8957 80.2111,77.229 82,75.5C 83.697,65.518 85.197,55.518 86.5,45.5C 84.8338,43.8132 83.5005,41.8132 82.5,39.5C 82.369,38.7611 82.5357,38.0944 83,37.5C 84.258,40.0553 86.0914,40.7219 88.5,39.5C 86.5754,33.0787 88.9087,29.0787 95.5,27.5C 99.166,28.8175 100.833,31.4842 100.5,35.5C 100.713,40.6076 98.3801,43.6076 93.5,44.5C 95.1571,54.4812 96.8238,64.4812 98.5,74.5C 98.5,75.8333 98.5,77.1667 98.5,78.5C 100.359,78.4609 101.692,79.2942 102.5,81C 106.18,81.6816 108.68,80.1816 110,76.5C 111.218,71.7335 112.718,67.0669 114.5,62.5C 115.6,61.3951 116.267,60.0618 116.5,58.5C 117.209,57.596 118.209,57.2627 119.5,57.5C 117.904,50.4579 120.57,46.4579 127.5,45.5C 134.091,50.3231 134.091,55.4897 127.5,61C 123.822,61.0094 121.655,62.8428 121,66.5C 115.727,81.4867 110.56,96.4867 105.5,111.5C 86.1512,110.222 66.8178,110.222 47.5,111.5C 50.0214,109.299 52.5214,106.966 55,104.5C 55.6667,102.833 55.6667,101.167 55,99.5C 46.632,87.4061 37.7986,75.7395 28.5,64.5C 27.7326,63.828 27.0659,62.9947 26.5,62C 24.1887,61.7641 22.1887,60.9307 20.5,59.5C 22.0463,59.2761 23.713,58.9427 25.5,58.5C 24.4252,55.562 24.2585,52.562 25,49.5C 26.7073,47.9625 28.2073,46.2959 29.5,44.5C 32.091,45.2543 33.9243,46.921 35,49.5C 35.4151,53.3101 35.0817,56.9767 34,60.5C 39.366,66.696 44.866,72.696 50.5,78.5C 53.6516,79.0414 56.1516,78.0414 58,75.5C 58.6667,66.5 58.6667,57.5 58,48.5C 57.79,46.9419 57.29,45.6085 56.5,44.5C 52.5,43.8333 50.1667,41.5 49.5,37.5C 51.0532,39.385 53.0532,40.385 55.5,40.5C 53.9849,34.0311 56.3183,29.6978 62.5,27.5 Z"/></g>
<g><path style="opacity:0.916" fill="#f06567" d="M 56.5,44.5 C 57.29,45.6085 57.79,46.9419 58,48.5C 58.6667,57.5 58.6667,66.5 58,75.5C 56.1516,78.0414 53.6516,79.0414 50.5,78.5C 53.1243,67.2884 55.1243,55.9551 56.5,44.5 Z"/></g>
<g><path style="opacity:0.909" fill="#f16465" d="M 86.5,45.5 C 85.197,55.518 83.697,65.518 82,75.5C 80.2111,77.229 78.0444,77.8957 75.5,77.5C 78.7957,66.6102 82.4624,55.9435 86.5,45.5 Z"/></g>
<g><path style="opacity:0.912" fill="#f46364" d="M 114.5,62.5 C 112.718,67.0669 111.218,71.7335 110,76.5C 108.68,80.1816 106.18,81.6816 102.5,81C 101.692,79.2942 100.359,78.4609 98.5,78.5C 98.5,77.1667 98.5,75.8333 98.5,74.5C 99.1577,75.3984 99.8243,76.3984 100.5,77.5C 105.188,72.4797 109.855,67.4797 114.5,62.5 Z"/></g>
<g><path style="opacity:0.91" fill="#fc696b" d="M 28.5,64.5 C 37.7986,75.7395 46.632,87.4061 55,99.5C 55.6667,101.167 55.6667,102.833 55,104.5C 52.5214,106.966 50.0214,109.299 47.5,111.5C 46.5,111.5 45.5,111.5 44.5,111.5C 38.8874,95.9386 33.5541,80.2719 28.5,64.5 Z"/></g>
<g><path style="opacity:0.908" fill="#f76667" d="M 113.5,118.5 C 113.5,118.833 113.5,119.167 113.5,119.5C 110.828,121.338 107.828,122.505 104.5,123C 82.8333,123.333 61.1667,123.667 39.5,124C 36.1558,125.894 34.8224,128.727 35.5,132.5C 34.2227,131.306 33.5561,129.64 33.5,127.5C 33.4488,124.308 34.1155,121.308 35.5,118.5C 37.6125,117.56 39.6125,116.394 41.5,115C 63.8238,111.719 86.1571,111.719 108.5,115C 110.196,116.176 111.862,117.343 113.5,118.5 Z"/></g>
<g><path style="opacity:0.998" fill="#200701" d="M 34.5,117.5 C 35.1667,117.5 35.5,117.833 35.5,118.5C 34.1155,121.308 33.4488,124.308 33.5,127.5C 33.5561,129.64 34.2227,131.306 35.5,132.5C 62.5,132.5 89.5,132.5 116.5,132.5C 116.665,129.15 116.498,125.817 116,122.5C 115.623,121.058 114.79,120.058 113.5,119.5C 113.5,119.167 113.5,118.833 113.5,118.5C 113.842,117.662 114.508,117.328 115.5,117.5C 117.41,118.975 118.576,120.975 119,123.5C 119.499,127.486 119.666,131.486 119.5,135.5C 89.8333,135.5 60.1667,135.5 30.5,135.5C 30.3343,131.154 30.501,126.821 31,122.5C 31.6972,120.416 32.8639,118.749 34.5,117.5 Z"/></g>
<g><path style="opacity:0.867" fill="#fb2021" d="M 113.5,119.5 C 114.79,120.058 115.623,121.058 116,122.5C 116.498,125.817 116.665,129.15 116.5,132.5C 89.5,132.5 62.5,132.5 35.5,132.5C 34.8224,128.727 36.1558,125.894 39.5,124C 61.1667,123.667 82.8333,123.333 104.5,123C 107.828,122.505 110.828,121.338 113.5,119.5 Z"/></g>
</svg>
