<?xml version="1.0" encoding="UTF-8"?>
<!DOCTYPE svg PUBLIC "-//W3C//DTD SVG 1.1//EN" "http://www.w3.org/Graphics/SVG/1.1/DTD/svg11.dtd">
<svg xmlns="http://www.w3.org/2000/svg" version="1.1" width="150px" height="150px" style="shape-rendering:geometricPrecision; text-rendering:geometricPrecision; image-rendering:optimizeQuality; fill-rule:evenodd; clip-rule:evenodd" xmlns:xlink="http://www.w3.org/1999/xlink">
<g><path style="opacity:0.167" fill="#fb0000" d="M 67.5,18.5 C 72.8437,18.334 78.1771,18.5006 83.5,19C 93.0705,20.9872 102.737,22.3205 112.5,23C 115.249,24.1227 117.749,25.6227 120,27.5C 121.707,38.8019 121.707,50.1353 120,61.5C 118.024,65.285 116.19,69.1183 114.5,73C 116.598,83.4088 118.098,93.9088 119,104.5C 129.782,114.886 132.449,127.219 127,141.5C 126.167,142.333 125.333,143.167 124.5,144C 95.5194,145.549 66.5194,145.883 37.5,145C 24.6327,146.742 19.2994,141.242 21.5,128.5C 20.9324,121.338 22.2657,114.671 25.5,108.5C 26.5,108.5 27.5,108.5 28.5,108.5C 28.5,107.5 28.5,106.5 28.5,105.5C 29.5,105.5 30.5,105.5 31.5,105.5C 33.0864,94.4727 34.753,83.4727 36.5,72.5C 35.0664,69.9528 33.3998,67.6195 31.5,65.5C 28.419,53.3283 27.7524,40.9949 29.5,28.5C 31.8273,26.2171 34.494,24.3837 37.5,23C 44.458,21.936 51.458,21.2694 58.5,21C 61.5,19.9261 64.5,19.0928 67.5,18.5 Z"/></g>
<g><path style="opacity:0.993" fill="#200804" d="M 115.5,117.5 C 114.662,117.842 114.328,118.508 114.5,119.5C 114.167,119.5 113.833,119.5 113.5,119.5C 110.915,115.799 107.248,113.966 102.5,114C 82.1162,111.756 61.7829,112.089 41.5,115C 37.6778,116.387 35.0112,118.887 33.5,122.5C 33.6716,121.508 33.3382,120.842 32.5,120.5C 33.756,116.742 36.256,114.075 40,112.5C 43.1223,96.8949 44.9556,81.2283 45.5,65.5C 41.8999,62.7217 39.7333,59.055 39,54.5C 38.4263,48.1442 38.093,41.8109 38,35.5C 42.4453,32.3448 47.2787,31.3448 52.5,32.5C 54.2948,36.3837 55.7948,40.3837 57,44.5C 59.0217,45.9909 60.6883,45.6576 62,43.5C 62.9459,38.8365 63.7792,34.1699 64.5,29.5C 71.5,28.1667 78.5,28.1667 85.5,29.5C 86.9612,49.4347 90.9612,50.268 97.5,32C 102.794,31.3653 107.627,32.532 112,35.5C 112.237,43.2315 111.57,50.8982 110,58.5C 107.412,61.8842 105.578,65.5509 104.5,69.5C 106.287,83.8395 108.12,98.1728 110,112.5C 112.328,113.664 114.162,115.33 115.5,117.5 Z"/></g>
<g><path style="opacity:0.871" fill="#f71e20" d="M 46.5,62.5 C 63.8855,60.9776 76.2188,52.311 83.5,36.5C 83.1977,40.7905 83.8643,44.7905 85.5,48.5C 88.5719,48.8174 91.5719,48.4841 94.5,47.5C 95.8776,43.1969 97.5443,39.0302 99.5,35C 102.232,34.8462 104.898,35.3462 107.5,36.5C 108.664,42.8072 108.831,49.1405 108,55.5C 104.284,65.3271 97.784,67.4938 88.5,62C 76.0989,61.0827 63.7656,61.5827 51.5,63.5C 49.6307,63.4932 47.964,63.1599 46.5,62.5 Z"/></g>
<g><path style="opacity:0.906" fill="#b81b1e" d="M 83.5,36.5 C 84.6167,40.2949 85.2833,44.2949 85.5,48.5C 83.8643,44.7905 83.1977,40.7905 83.5,36.5 Z"/></g>
<g><path style="opacity:0.911" fill="#f86769" d="M 83.5,36.5 C 76.2188,52.311 63.8855,60.9776 46.5,62.5C 44.187,60.7906 42.687,58.4572 42,55.5C 41.7127,49.976 41.2127,44.476 40.5,39C 42.6124,34.96 45.9457,33.6267 50.5,35C 52.0877,39.1693 53.7544,43.336 55.5,47.5C 58.4281,48.4841 61.4281,48.8174 64.5,48.5C 64.6955,42.8245 65.6955,37.3245 67.5,32C 72.5,31.3333 77.5,31.3333 82.5,32C 83.3802,33.3561 83.7135,34.8561 83.5,36.5 Z"/></g>
<g><path style="opacity:0.908" fill="#e91616" d="M 101.5,71.5 C 101.198,75.7905 101.864,79.7905 103.5,83.5C 104.94,92.7775 105.94,102.111 106.5,111.5C 91.8527,110.627 77.186,110.293 62.5,110.5C 72.6585,109.67 82.9919,109.17 93.5,109C 91.2552,105.017 90.9219,100.85 92.5,96.5C 91.9822,89.7804 90.1488,83.4471 87,77.5C 81.3059,72.5686 74.8059,69.0686 67.5,67C 68.8333,66.6667 70.1667,66.3333 71.5,66C 64.8253,65.6114 58.1586,65.7781 51.5,66.5C 58.9393,64.9778 66.6059,64.3111 74.5,64.5C 83.5913,64.3972 92.5913,65.0639 101.5,66.5C 101.5,68.1667 101.5,69.8333 101.5,71.5 Z"/></g>
<g><path style="opacity:0.867" fill="#fe1e1f" d="M 62.5,110.5 C 57.1335,110.323 51.8002,110.656 46.5,111.5C 45.5,111.167 44.5,110.833 43.5,110.5C 43.6236,109.893 43.9569,109.56 44.5,109.5C 50.2771,108.028 55.4438,105.361 60,101.5C 60.1667,100.333 60.3333,99.1667 60.5,98C 58.5258,89.7867 56.6925,81.62 55,73.5C 53.5679,71.5612 51.7346,70.2279 49.5,69.5C 49.2852,67.8212 49.9519,66.8212 51.5,66.5C 58.1586,65.7781 64.8253,65.6114 71.5,66C 70.1667,66.3333 68.8333,66.6667 67.5,67C 74.8059,69.0686 81.3059,72.5686 87,77.5C 90.1488,83.4471 91.9822,89.7804 92.5,96.5C 90.9219,100.85 91.2552,105.017 93.5,109C 82.9919,109.17 72.6585,109.67 62.5,110.5 Z"/></g>
<g><path style="opacity:0.91" fill="#fa696b" d="M 49.5,69.5 C 51.7346,70.2279 53.5679,71.5612 55,73.5C 56.6925,81.62 58.5258,89.7867 60.5,98C 60.3333,99.1667 60.1667,100.333 60,101.5C 55.4438,105.361 50.2771,108.028 44.5,109.5C 45.5073,96.0734 47.174,82.7401 49.5,69.5 Z"/></g>
<g><path style="opacity:0.918" fill="#960e10" d="M 101.5,71.5 C 102.617,75.2949 103.283,79.2949 103.5,83.5C 101.864,79.7905 101.198,75.7905 101.5,71.5 Z"/></g>
<g><path style="opacity:0.908" fill="#f76666" d="M 113.5,119.5 C 110.828,121.338 107.828,122.505 104.5,123C 82.8333,123.333 61.1667,123.667 39.5,124C 36.1558,125.894 34.8224,128.727 35.5,132.5C 33.5977,129.663 32.931,126.329 33.5,122.5C 35.0112,118.887 37.6778,116.387 41.5,115C 61.7829,112.089 82.1162,111.756 102.5,114C 107.248,113.966 110.915,115.799 113.5,119.5 Z"/></g>
<g><path style="opacity:0.998" fill="#200601" d="M 115.5,117.5 C 117.41,118.975 118.576,120.975 119,123.5C 119.499,127.486 119.666,131.486 119.5,135.5C 89.8333,135.5 60.1667,135.5 30.5,135.5C 30.3343,131.154 30.501,126.821 31,122.5C 31.2784,121.584 31.7784,120.918 32.5,120.5C 33.3382,120.842 33.6716,121.508 33.5,122.5C 32.931,126.329 33.5977,129.663 35.5,132.5C 62.5,132.5 89.5,132.5 116.5,132.5C 116.946,127.929 116.28,123.596 114.5,119.5C 114.328,118.508 114.662,117.842 115.5,117.5 Z"/></g>
<g><path style="opacity:0.867" fill="#fd2123" d="M 113.5,119.5 C 113.833,119.5 114.167,119.5 114.5,119.5C 116.28,123.596 116.946,127.929 116.5,132.5C 89.5,132.5 62.5,132.5 35.5,132.5C 34.8224,128.727 36.1558,125.894 39.5,124C 61.1667,123.667 82.8333,123.333 104.5,123C 107.828,122.505 110.828,121.338 113.5,119.5 Z"/></g>
</svg>
