<?xml version="1.0" encoding="UTF-8"?>
<!DOCTYPE svg PUBLIC "-//W3C//DTD SVG 1.1//EN" "http://www.w3.org/Graphics/SVG/1.1/DTD/svg11.dtd">
<svg xmlns="http://www.w3.org/2000/svg" version="1.1" width="150px" height="150px" style="shape-rendering:geometricPrecision; text-rendering:geometricPrecision; image-rendering:optimizeQuality; fill-rule:evenodd; clip-rule:evenodd" xmlns:xlink="http://www.w3.org/1999/xlink">
<g><path style="opacity:0.162" fill="#fafafa" d="M 64.5,4.5 C 71.175,4.33375 77.8417,4.50042 84.5,5C 86.0009,6.25152 87.6675,7.25152 89.5,8C 90.3041,9.77135 91.4708,11.2713 93,12.5C 94.1671,17.5045 95.3338,22.5045 96.5,27.5C 112.3,39.4549 119.133,55.4549 117,75.5C 115.894,79.8035 114.894,84.1368 114,88.5C 111.853,92.4546 110.019,96.4546 108.5,100.5C 119.555,100.121 130.555,100.621 141.5,102C 145.815,104.305 147.482,107.972 146.5,113C 145.555,121.616 144.055,130.116 142,138.5C 141.347,140.564 140.18,142.231 138.5,143.5C 119.528,145.978 100.528,146.145 81.5,144C 79.1614,142.677 76.9947,141.177 75,139.5C 73.0748,140.88 71.2415,142.38 69.5,144C 50.4989,145.978 31.4989,145.978 12.5,144C 10.652,142.482 9.15195,140.649 8,138.5C 7.6247,134.332 6.6247,130.332 5,126.5C 3.32087,118.516 3.1542,110.516 4.5,102.5C 16.7683,101.049 29.1016,100.049 41.5,99.5C 33.2724,84.3479 31.1057,68.3479 35,51.5C 38.109,44.2648 41.9424,37.5981 46.5,31.5C 48.6382,31.297 50.3049,30.297 51.5,28.5C 52.0502,22.2908 53.3835,16.2908 55.5,10.5C 56.5,10.5 57.5,10.5 58.5,10.5C 58.5,9.5 58.5,8.5 58.5,7.5C 60.9699,7.34647 62.9699,6.34647 64.5,4.5 Z"/></g>
<g><path style="opacity:0.911" fill="#191a1a" d="M 69.5,14.5 C 75.2912,13.4888 80.1245,15.1555 84,19.5C 84.923,21.0344 85.423,22.701 85.5,24.5C 81.7907,32.5925 78.624,40.9258 76,49.5C 74.3233,55.0488 73.4899,60.7155 73.5,66.5C 74.5,66.5 75.5,66.5 76.5,66.5C 76.6251,55.1644 79.6251,44.6644 85.5,35C 92.7448,37.5615 98.2448,42.3949 102,49.5C 109.491,63.3091 109.157,76.9758 101,90.5C 99.1667,93.6667 96.6667,96.1667 93.5,98C 81.1667,98.6667 68.8333,98.6667 56.5,98C 48.2644,92.017 43.7644,83.8504 43,73.5C 41.9992,55.8379 49.1658,42.5046 64.5,33.5C 60.6258,25.5729 62.2925,19.2396 69.5,14.5 Z"/></g>
<g><path style="opacity:0.957" fill="#d9f4f6" d="M 77.5,18.5 C 76.0978,20.4828 74.2645,22.1495 72,23.5C 71.3434,26.908 70.1767,29.908 68.5,32.5C 67.5416,32.0472 66.7083,31.3805 66,30.5C 64.1434,20.5256 67.9767,16.5256 77.5,18.5 Z"/></g>
<g><path style="opacity:0.879" fill="#b3f4fa" d="M 77.5,18.5 C 80.3781,19.2122 82.0448,21.0456 82.5,24C 81.0716,28.5497 79.0716,32.7164 76.5,36.5C 74.9826,36.5106 73.8159,37.1772 73,38.5C 68.3217,46.9024 66.3217,55.9024 67,65.5C 68.5501,66.5908 69.7168,67.9242 70.5,69.5C 74.1071,74.8751 78.7737,75.8751 84.5,72.5C 85.052,67.0297 86.2187,61.6963 88,56.5C 89.9662,52.3735 92.1328,48.3735 94.5,44.5C 97.2307,46.9464 99.2307,49.9464 100.5,53.5C 102.855,74.6343 93.855,88.1343 73.5,94C 67.8431,94.4994 62.1764,94.6661 56.5,94.5C 51.7301,90.6373 48.7301,85.6373 47.5,79.5C 53.0538,75.4222 55.8871,69.7555 56,62.5C 59.2413,55.0114 63.2413,48.0114 68,41.5C 68.6397,39.735 68.4731,38.0683 67.5,36.5C 68.2625,35.7321 69.2625,35.2321 70.5,35C 69.6195,34.2917 68.9528,33.4584 68.5,32.5C 70.1767,29.908 71.3434,26.908 72,23.5C 74.2645,22.1495 76.0978,20.4828 77.5,18.5 Z"/></g>
<g><path style="opacity:0.956" fill="#ddf5f7" d="M 67.5,36.5 C 68.4731,38.0683 68.6397,39.735 68,41.5C 63.2413,48.0114 59.2413,55.0114 56,62.5C 55.8871,69.7555 53.0538,75.4222 47.5,79.5C 43.105,63.8472 47.105,50.6806 59.5,40C 61.8175,38.0073 64.4842,36.8406 67.5,36.5 Z"/></g>
<g><path style="opacity:0.957" fill="#d8f0f2" d="M 94.5,44.5 C 92.1328,48.3735 89.9662,52.3735 88,56.5C 86.2187,61.6963 85.052,67.0297 84.5,72.5C 78.7737,75.8751 74.1071,74.8751 70.5,69.5C 73.5,69.5 76.5,69.5 79.5,69.5C 79.3593,58.9224 81.6926,48.9224 86.5,39.5C 89.852,39.5325 92.5186,41.1991 94.5,44.5 Z"/></g>
<g><path style="opacity:0.898" fill="#98cfd2" d="M 76.5,36.5 C 72.4321,47.1089 70.4321,58.1089 70.5,69.5C 69.7168,67.9242 68.5501,66.5908 67,65.5C 66.3217,55.9024 68.3217,46.9024 73,38.5C 73.8159,37.1772 74.9826,36.5106 76.5,36.5 Z"/></g>
<g><path style="opacity:0.896" fill="#94c9cd" d="M 100.5,53.5 C 107.231,68.7664 104.898,82.5997 93.5,95C 80.9931,95.8265 68.6597,95.6599 56.5,94.5C 62.1764,94.6661 67.8431,94.4994 73.5,94C 93.855,88.1343 102.855,74.6343 100.5,53.5 Z"/></g>
<g><path style="opacity:0.994" fill="#171a1a" d="M 102.5,110.5 C 113.654,111.495 124.988,111.828 136.5,111.5C 136.5,112.833 136.5,114.167 136.5,115.5C 134.577,122.026 133.244,128.693 132.5,135.5C 117.496,135.667 102.496,135.5 87.5,135C 86.1667,134.333 84.8333,133.667 83.5,133C 81.3209,129.488 78.4875,126.654 75,124.5C 70.8197,128.016 66.6531,131.516 62.5,135C 47.5037,135.5 32.5037,135.667 17.5,135.5C 16.0433,127.794 14.3766,120.128 12.5,112.5C 24.1524,111.667 35.8191,111.167 47.5,111C 49.5977,108.146 51.931,105.479 54.5,103C 68.1667,102.333 81.8333,102.333 95.5,103C 97.9657,105.479 100.299,107.979 102.5,110.5 Z"/></g>
<g><path style="opacity:0.879" fill="#b2f2f8" d="M 59.5,105.5 C 71.1714,105.333 82.8381,105.5 94.5,106C 96.1255,108.628 98.1255,110.961 100.5,113C 111.674,113.17 122.674,113.67 133.5,114.5C 123.494,114.334 113.494,114.5 103.5,115C 106.206,117.371 108.539,120.037 110.5,123C 117.492,123.5 124.492,123.666 131.5,123.5C 130.833,126.5 130.167,129.5 129.5,132.5C 115.496,132.667 101.496,132.5 87.5,132C 84.4972,129.504 81.8305,126.671 79.5,123.5C 78.707,118.224 75.707,116.391 70.5,118C 66.4512,122.624 62.7846,127.457 59.5,132.5C 46.1667,132.5 32.8333,132.5 19.5,132.5C 19.2962,129.482 18.9629,126.482 18.5,123.5C 31.2414,123.941 43.908,123.441 56.5,122C 61.7294,117.218 62.7294,111.718 59.5,105.5 Z"/></g>
<g><path style="opacity:0.956" fill="#e0fafc" d="M 59.5,105.5 C 62.7294,111.718 61.7294,117.218 56.5,122C 43.908,123.441 31.2414,123.941 18.5,123.5C 17.2318,121.095 16.5651,118.428 16.5,115.5C 26.8333,114.833 37.1667,114.167 47.5,113.5C 48.2389,113.631 48.9056,113.464 49.5,113C 51.5,110.667 53.5,108.333 55.5,106C 56.7932,105.51 58.1266,105.343 59.5,105.5 Z"/></g>
<g><path style="opacity:0.387" fill="#9a9a9a" d="M 102.5,110.5 C 114.167,110.5 125.833,110.5 137.5,110.5C 137.784,112.415 137.451,114.081 136.5,115.5C 136.5,114.167 136.5,112.833 136.5,111.5C 124.988,111.828 113.654,111.495 102.5,110.5 Z"/></g>
<g><path style="opacity:0.977" fill="#707d7d" d="M 47.5,113.5 C 37.1667,114.167 26.8333,114.833 16.5,115.5C 15.9569,115.44 15.6236,115.107 15.5,114.5C 26.1459,113.501 36.8126,113.168 47.5,113.5 Z"/></g>
<g><path style="opacity:0.959" fill="#e1fafc" d="M 133.5,114.5 C 133.084,117.583 132.417,120.583 131.5,123.5C 124.492,123.666 117.492,123.5 110.5,123C 108.539,120.037 106.206,117.371 103.5,115C 113.494,114.5 123.494,114.334 133.5,114.5 Z"/></g>
<g><path style="opacity:0.894" fill="#9ad2d5" d="M 79.5,123.5 C 77.5043,121.667 75.171,121.167 72.5,122C 69.1667,125.333 65.8333,128.667 62.5,132C 61.552,132.483 60.552,132.649 59.5,132.5C 62.7846,127.457 66.4512,122.624 70.5,118C 75.707,116.391 78.707,118.224 79.5,123.5 Z"/></g>
</svg>
