<?xml version="1.0" encoding="UTF-8"?>
<!DOCTYPE svg PUBLIC "-//W3C//DTD SVG 1.1//EN" "http://www.w3.org/Graphics/SVG/1.1/DTD/svg11.dtd">
<svg xmlns="http://www.w3.org/2000/svg" version="1.1" width="150px" height="150px" style="shape-rendering:geometricPrecision; text-rendering:geometricPrecision; image-rendering:optimizeQuality; fill-rule:evenodd; clip-rule:evenodd" xmlns:xlink="http://www.w3.org/1999/xlink">
<g><path style="opacity:0.166" fill="#fbfbfb" d="M 64.5,4.5 C 86.5896,-0.138505 97.2563,8.52816 96.5,30.5C 125.323,26.9958 140.99,39.6625 143.5,68.5C 143.198,76.3398 141.198,83.6731 137.5,90.5C 132.7,95.9655 128.033,101.465 123.5,107C 129.246,118.056 130.413,129.556 127,141.5C 126.097,142.701 124.931,143.535 123.5,144C 94.854,145.558 66.1873,145.892 37.5,145C 32.5304,145.064 27.8638,144.064 23.5,142C 21.0397,132.612 20.873,123.112 23,113.5C 24.57,111.395 26.07,109.229 27.5,107C 23.5922,102.055 19.2589,97.5554 14.5,93.5C 6.94022,81.6563 4.77355,68.9896 8,55.5C 12.3878,42.4428 21.2211,34.2762 34.5,31C 41.2,29.8102 47.8667,29.3102 54.5,29.5C 53.4537,23.7525 53.9537,18.0858 56,12.5C 58.1565,9.02414 60.9898,6.35748 64.5,4.5 Z"/></g>
<g><path style="opacity:0.995" fill="#1c1f1f" d="M 70.5,14.5 C 84.208,14.0426 89.0413,20.376 85,33.5C 82.1939,40.4455 78.8606,47.1122 75,53.5C 70.8217,46.4767 67.155,39.1433 64,31.5C 61.6665,23.9189 63.8332,18.2523 70.5,14.5 Z"/></g>
<g><path style="opacity:0.96" fill="#d7f2f4" d="M 78.5,18.5 C 76.2637,20.2027 73.7637,22.536 71,25.5C 71.0704,28.992 70.2371,31.992 68.5,34.5C 66.4043,29.9687 66.0709,25.302 67.5,20.5C 70.8195,17.4637 74.4862,16.797 78.5,18.5 Z"/></g>
<g><path style="opacity:0.883" fill="#aff1f4" d="M 78.5,18.5 C 81.8451,19.3481 83.5117,21.5148 83.5,25C 82.0513,33.0116 79.2179,40.5116 75,47.5C 72.3084,43.4501 70.1417,39.1168 68.5,34.5C 70.2371,31.992 71.0704,28.992 71,25.5C 73.7637,22.536 76.2637,20.2027 78.5,18.5 Z"/></g>
<g><path style="opacity:0.993" fill="#1a1c1d" d="M 37.5,40.5 C 47.4568,38.9221 56.4568,41.0887 64.5,47C 68,50.5 71.5,54 75,57.5C 80.7648,50.0557 87.9315,44.5557 96.5,41C 114.375,37.8504 126.541,44.6837 133,61.5C 134.523,70.2211 132.856,78.2211 128,85.5C 119.555,92.4264 113.055,100.76 108.5,110.5C 112.131,113.3 115.298,116.633 118,120.5C 119.325,125.401 119.825,130.401 119.5,135.5C 89.8333,135.5 60.1667,135.5 30.5,135.5C 28.3974,124.551 32.0641,116.384 41.5,111C 40.1205,107.28 38.2872,103.78 36,100.5C 30.6379,94.4744 25.3046,88.4744 20,82.5C 12.3588,62.7914 18.1921,48.7914 37.5,40.5 Z"/></g>
<g><path style="opacity:0.879" fill="#b3f4fa" d="M 45.5,43.5 C 50.5816,43.1408 55.2482,44.3074 59.5,47C 64.7502,52.0903 70.0835,56.9236 75.5,61.5C 74.7659,62.7079 74.4326,64.0413 74.5,65.5C 78.6049,65.7662 82.6049,65.2662 86.5,64C 91.053,57.0511 95.7197,50.2178 100.5,43.5C 110.239,42.1868 118.239,45.1868 124.5,52.5C 125.295,57.1493 125.461,61.8159 125,66.5C 122.985,71.3671 120.818,76.2004 118.5,81C 111.792,87.046 105.125,93.046 98.5,99C 92.9656,102.599 87.2989,105.932 81.5,109C 74.9867,109.172 68.6534,109.672 62.5,110.5C 56.4646,110.594 50.4646,110.761 44.5,111C 43.4147,106.662 41.4147,102.828 38.5,99.5C 39.6484,95.0189 39.8151,90.3522 39,85.5C 36,80.5 33,75.5 30,70.5C 28.1029,62.306 29.9363,55.1394 35.5,49C 38.5495,46.4972 41.8828,44.6639 45.5,43.5 Z"/></g>
<g><path style="opacity:0.956" fill="#dbf3f5" d="M 100.5,43.5 C 95.7197,50.2178 91.053,57.0511 86.5,64C 82.6049,65.2662 78.6049,65.7662 74.5,65.5C 74.4326,64.0413 74.7659,62.7079 75.5,61.5C 81.1415,54.0242 88.1415,48.1909 96.5,44C 97.7932,43.51 99.1266,43.3433 100.5,43.5 Z"/></g>
<g><path style="opacity:0.956" fill="#ddf6f8" d="M 45.5,43.5 C 41.8828,44.6639 38.5495,46.4972 35.5,49C 29.9363,55.1394 28.1029,62.306 30,70.5C 33,75.5 36,80.5 39,85.5C 39.8151,90.3522 39.6484,95.0189 38.5,99.5C 33.664,93.5063 28.4974,87.8396 23,82.5C 15.1883,65.2656 19.6883,52.4323 36.5,44C 39.4816,43.502 42.4816,43.3354 45.5,43.5 Z"/></g>
<g><path style="opacity:0.981" fill="#151919" d="M 42.5,62.5 C 44.9892,62.2978 47.3225,62.7978 49.5,64C 53.6667,68.1667 57.8333,72.3333 62,76.5C 64.3854,80.4569 63.5521,83.6236 59.5,86C 57.5,86.6667 55.5,86.6667 53.5,86C 47.5326,80.8758 42.5326,75.0425 38.5,68.5C 38.8662,65.7441 40.1995,63.7441 42.5,62.5 Z"/></g>
<g><path style="opacity:0.979" fill="#191c1c" d="M 101.5,62.5 C 105.594,61.7046 108.761,63.038 111,66.5C 111.635,68.6354 111.301,70.6354 110,72.5C 105.833,76.6667 101.667,80.8333 97.5,85C 89.9505,87.9838 86.4505,85.4838 87,77.5C 92.0365,72.6313 96.8698,67.6313 101.5,62.5 Z"/></g>
<g><path style="opacity:0.256" fill="#f3f3f3" d="M 43.5,65.5 C 44.8734,65.3433 46.2068,65.51 47.5,66C 51.6667,70.1667 55.8333,74.3333 60,78.5C 60.339,82.4874 58.5057,83.9874 54.5,83C 50.3333,78.8333 46.1667,74.6667 42,70.5C 41.3872,68.5048 41.8872,66.8381 43.5,65.5 Z"/></g>
<g><path style="opacity:0.257" fill="#f6f6f6" d="M 102.5,65.5 C 107.068,65.0826 108.568,67.0826 107,71.5C 103.5,75 100,78.5 96.5,82C 92.132,84.5571 89.9653,83.3904 90,78.5C 94.3702,74.2978 98.5368,69.9645 102.5,65.5 Z"/></g>
<g><path style="opacity:0.894" fill="#9ad1d4" d="M 124.5,52.5 C 131.879,62.3517 132.379,72.685 126,83.5C 120.633,88.5318 115.633,93.8651 111,99.5C 108.344,103.144 106.511,107.144 105.5,111.5C 91.1885,110.609 76.8551,110.275 62.5,110.5C 68.6534,109.672 74.9867,109.172 81.5,109C 87.2989,105.932 92.9656,102.599 98.5,99C 105.125,93.046 111.792,87.046 118.5,81C 120.818,76.2004 122.985,71.3671 125,66.5C 125.461,61.8159 125.295,57.1493 124.5,52.5 Z"/></g>
<g><path style="opacity:0.955" fill="#ddf5f7" d="M 112.5,118.5 C 110.11,121.028 107.11,122.528 103.5,123C 81.8333,123.333 60.1667,123.667 38.5,124C 35.1465,129.099 33.8131,128.599 34.5,122.5C 35.3625,118.714 37.6958,116.214 41.5,115C 63.8182,111.742 86.1515,111.742 108.5,115C 110.093,115.949 111.426,117.115 112.5,118.5 Z"/></g>
<g><path style="opacity:0.878" fill="#b4f4fa" d="M 112.5,118.5 C 114.173,119.343 115.34,120.676 116,122.5C 116.498,125.817 116.665,129.15 116.5,132.5C 88.8333,132.5 61.1667,132.5 33.5,132.5C 33.1872,128.958 33.5206,125.625 34.5,122.5C 33.8131,128.599 35.1465,129.099 38.5,124C 60.1667,123.667 81.8333,123.333 103.5,123C 107.11,122.528 110.11,121.028 112.5,118.5 Z"/></g>
</svg>
