<?xml version="1.0" encoding="UTF-8"?>
<!DOCTYPE svg PUBLIC "-//W3C//DTD SVG 1.1//EN" "http://www.w3.org/Graphics/SVG/1.1/DTD/svg11.dtd">
<svg xmlns="http://www.w3.org/2000/svg" version="1.1" width="150px" height="150px" style="shape-rendering:geometricPrecision; text-rendering:geometricPrecision; image-rendering:optimizeQuality; fill-rule:evenodd; clip-rule:evenodd" xmlns:xlink="http://www.w3.org/1999/xlink">
<g><path style="opacity:0.17" fill="#fbfbfb" d="M 52.5,4.5 C 57.544,4.17252 62.544,4.50585 67.5,5.5C 71.1726,8.67315 74.6726,12.0065 78,15.5C 109.002,19.1664 127.002,36.4997 132,67.5C 133.186,80.8196 132.353,93.9863 129.5,107C 134.885,116.838 136.718,127.338 135,138.5C 133.848,140.649 132.348,142.482 130.5,144C 101.519,145.549 72.5194,145.883 43.5,145C 30.9505,146.744 25.6172,141.41 27.5,129C 27.0743,121.7 28.4077,114.867 31.5,108.5C 32.5,108.5 33.5,108.5 34.5,108.5C 35.7444,105.31 36.7444,101.977 37.5,98.5C 27.959,97.5678 20.1257,93.5678 14,86.5C 12.2588,80.1467 12.2588,73.8133 14,67.5C 18.4724,61.0196 22.9724,54.5196 27.5,48C 30.2053,42.1203 32.5386,36.1203 34.5,30C 37.0084,26.8316 39.8417,23.9983 43,21.5C 44.7995,17.2681 46.2995,12.9348 47.5,8.5C 49.21,7.11276 50.8767,5.77943 52.5,4.5 Z"/></g>
<g><path style="opacity:0.984" fill="#191b1c" d="M 121.5,117.5 C 120.662,117.842 120.328,118.508 120.5,119.5C 120.167,119.5 119.833,119.5 119.5,119.5C 116.915,115.799 113.248,113.966 108.5,114C 88.1015,111.707 67.7682,112.04 47.5,115C 43.218,116.445 40.5513,119.278 39.5,123.5C 39.7373,122.209 39.404,121.209 38.5,120.5C 39.3734,117.423 41.2068,115.09 44,113.5C 44.6217,107.347 46.6217,101.68 50,96.5C 55.9565,90.3644 62.2898,84.6978 69,79.5C 70.6006,76.9058 70.7673,74.2392 69.5,71.5C 64.2521,76.6403 57.9188,79.1403 50.5,79C 47.8084,81.5572 45.475,84.3905 43.5,87.5C 35.0984,89.5405 28.2651,87.2072 23,80.5C 22.3333,78.1667 22.3333,75.8333 23,73.5C 26.946,67.2206 31.2794,61.2206 36,55.5C 38.8941,49.7127 41.2275,43.7127 43,37.5C 45.5269,34.0614 48.5269,31.0614 52,28.5C 53.4657,24.9714 54.4657,21.3048 55,17.5C 56.1171,15.8757 57.6171,14.8757 59.5,14.5C 63.9171,17.4101 67.9171,20.9101 71.5,25C 100.076,27.2472 116.91,42.4139 122,70.5C 123.302,84.3962 122.136,98.0628 118.5,111.5C 118.628,113.955 119.628,115.955 121.5,117.5 Z"/></g>
<g><path style="opacity:0.879" fill="#b4f4fc" d="M 60.5,18.5 C 63.8123,21.1456 66.8123,24.1456 69.5,27.5C 74.5633,28.2831 79.5633,29.2831 84.5,30.5C 85.1573,33.5595 87.1573,35.0595 90.5,35C 106.393,48.6921 110.893,65.5255 104,85.5C 100.966,91.1865 97.9664,96.8531 95,102.5C 94.023,104.74 93.523,107.073 93.5,109.5C 84.9832,109.174 76.6499,109.507 68.5,110.5C 62.143,110.476 55.8097,110.81 49.5,111.5C 50.3161,103.506 54.9828,98.6722 63.5,97C 70.6137,94.2778 72.947,89.4445 70.5,82.5C 71.5116,81.1283 72.5116,79.795 73.5,78.5C 74.4959,78.5858 75.3292,78.2524 76,77.5C 76.2494,74.8232 77.2494,72.4899 79,70.5C 79.6667,66.8333 79.6667,63.1667 79,59.5C 77.6124,58.4464 76.1124,58.2797 74.5,59C 72.5056,61.1575 71.1723,63.6575 70.5,66.5C 67.6653,69.1653 64.6653,71.6653 61.5,74C 57.9164,75.0734 54.2498,75.7401 50.5,76C 46.2994,79.0361 42.6327,82.5361 39.5,86.5C 35.186,85.8432 31.186,84.3432 27.5,82C 25.327,79.3025 24.9937,76.4692 26.5,73.5C 40.4932,70.0006 47.6599,61.0006 48,46.5C 52.3333,42.8333 56.3333,38.8333 60,34.5C 61.3648,29.1525 61.5315,23.8191 60.5,18.5 Z"/></g>
<g><path style="opacity:0.894" fill="#9ad1d4" d="M 73.5,78.5 C 73.8226,74.774 73.4892,71.1073 72.5,67.5C 71.8165,67.1373 71.1499,66.8039 70.5,66.5C 71.1723,63.6575 72.5056,61.1575 74.5,59C 76.1124,58.2797 77.6124,58.4464 79,59.5C 79.6667,63.1667 79.6667,66.8333 79,70.5C 77.2494,72.4899 76.2494,74.8232 76,77.5C 75.3292,78.2524 74.4959,78.5858 73.5,78.5 Z"/></g>
<g><path style="opacity:0.894" fill="#9bd2d5" d="M 84.5,30.5 C 108.091,38.7905 119.758,55.6239 119.5,81C 119.012,91.607 117.679,102.107 115.5,112.5C 99.907,110.682 84.2403,110.015 68.5,110.5C 76.6499,109.507 84.9832,109.174 93.5,109.5C 93.523,107.073 94.023,104.74 95,102.5C 97.9664,96.8531 100.966,91.1865 104,85.5C 110.893,65.5255 106.393,48.6921 90.5,35C 87.1573,35.0595 85.1573,33.5595 84.5,30.5 Z"/></g>
<g><path style="opacity:0.957" fill="#dcf5f7" d="M 60.5,18.5 C 61.5315,23.8191 61.3648,29.1525 60,34.5C 56.3333,38.8333 52.3333,42.8333 48,46.5C 47.6599,61.0006 40.4932,70.0006 26.5,73.5C 35.0634,63.0452 41.5634,51.3786 46,38.5C 49.6742,35.1584 53.0075,31.4917 56,27.5C 56.3457,24.4245 57.0124,21.4245 58,18.5C 58.9772,17.2264 59.8106,17.2264 60.5,18.5 Z"/></g>
<g><path style="opacity:0.958" fill="#d8f2f4" d="M 70.5,82.5 C 72.947,89.4445 70.6137,94.2778 63.5,97C 54.9828,98.6722 50.3161,103.506 49.5,111.5C 49.44,112.043 49.1067,112.376 48.5,112.5C 47.6369,106.912 49.1369,101.912 53,97.5C 58.7056,92.2901 64.539,87.2901 70.5,82.5 Z"/></g>
<g><path style="opacity:0.955" fill="#dcf4f6" d="M 119.5,119.5 C 117.641,120.848 115.641,122.015 113.5,123C 90.8333,123.333 68.1667,123.667 45.5,124C 42.2882,126.019 40.6216,128.853 40.5,132.5C 39.5233,129.713 39.19,126.713 39.5,123.5C 40.5513,119.278 43.218,116.445 47.5,115C 67.7682,112.04 88.1015,111.707 108.5,114C 113.248,113.966 116.915,115.799 119.5,119.5 Z"/></g>
<g><path style="opacity:0.998" fill="#191c1c" d="M 121.5,117.5 C 123.41,118.975 124.576,120.975 125,123.5C 125.499,127.486 125.666,131.486 125.5,135.5C 95.8333,135.5 66.1667,135.5 36.5,135.5C 36.3342,130.821 36.5008,126.155 37,121.5C 37.3826,120.944 37.8826,120.611 38.5,120.5C 39.404,121.209 39.7373,122.209 39.5,123.5C 39.19,126.713 39.5233,129.713 40.5,132.5C 67.8333,132.5 95.1667,132.5 122.5,132.5C 122.946,127.929 122.28,123.596 120.5,119.5C 120.328,118.508 120.662,117.842 121.5,117.5 Z"/></g>
<g><path style="opacity:0.882" fill="#b5f5fa" d="M 119.5,119.5 C 119.833,119.5 120.167,119.5 120.5,119.5C 122.28,123.596 122.946,127.929 122.5,132.5C 95.1667,132.5 67.8333,132.5 40.5,132.5C 40.6216,128.853 42.2882,126.019 45.5,124C 68.1667,123.667 90.8333,123.333 113.5,123C 115.641,122.015 117.641,120.848 119.5,119.5 Z"/></g>
</svg>
