<?xml version="1.0" encoding="UTF-8"?>
<!DOCTYPE svg PUBLIC "-//W3C//DTD SVG 1.1//EN" "http://www.w3.org/Graphics/SVG/1.1/DTD/svg11.dtd">
<svg xmlns="http://www.w3.org/2000/svg" version="1.1" width="150px" height="150px" style="shape-rendering:geometricPrecision; text-rendering:geometricPrecision; image-rendering:optimizeQuality; fill-rule:evenodd; clip-rule:evenodd" xmlns:xlink="http://www.w3.org/1999/xlink">
<g><path style="opacity:0.162" fill="#fbfbfb" d="M 70.5,18.5 C 83.7483,17.0369 93.915,21.7036 101,32.5C 103.949,42.0376 104.283,51.7042 102,61.5C 100.337,63.1579 99.5041,65.1579 99.5,67.5C 98.5,67.5 97.5,67.5 96.5,67.5C 96.4101,71.425 98.0768,74.425 101.5,76.5C 104.755,81.695 106.422,87.3616 106.5,93.5C 107.93,93.4208 109.264,93.7542 110.5,94.5C 127.283,105.995 132.617,121.661 126.5,141.5C 125.5,142.333 124.5,143.167 123.5,144C 94.854,145.558 66.1873,145.892 37.5,145C 33.4592,144.827 29.4592,144.327 25.5,143.5C 23.5761,141.991 22.4094,139.991 22,137.5C 21.1695,129.112 21.5028,120.779 23,112.5C 25.121,109.253 26.9543,105.919 28.5,102.5C 29.5,102.5 30.5,102.5 31.5,102.5C 31.5,101.5 31.5,100.5 31.5,99.5C 32.5,99.5 33.5,99.5 34.5,99.5C 34.5,98.5 34.5,97.5 34.5,96.5C 37.7693,96.1156 40.6026,94.7823 43,92.5C 43.8966,84.7807 46.8966,78.114 52,72.5C 52.6667,70.8333 52.6667,69.1667 52,67.5C 47.0901,61.95 45.2568,55.45 46.5,48C 46.6667,44.1667 46.8333,40.3333 47,36.5C 48.3599,32.4466 50.1932,28.7799 52.5,25.5C 55.5949,23.448 58.9282,21.6146 62.5,20C 65.3647,19.8171 68.0314,19.3171 70.5,18.5 Z"/></g>
<g><path style="opacity:0.994" fill="#1b1d1e" d="M 70.5,28.5 C 81.9631,27.8148 89.7964,32.8148 94,43.5C 94.5186,60.9782 86.0186,68.8115 68.5,67C 55.3884,59.9411 52.2217,49.7744 59,36.5C 62.4821,33.1608 66.3155,30.4942 70.5,28.5 Z"/></g>
<g><path style="opacity:0.956" fill="#daf4f6" d="M 83.5,34.5 C 80.6572,36.4006 77.3238,37.5672 73.5,38C 66.6239,42.5916 63.6239,49.0916 64.5,57.5C 63.2638,56.7542 61.9305,56.4208 60.5,56.5C 56.828,48.3531 58.1614,41.1864 64.5,35C 70.7375,30.594 77.0708,30.4274 83.5,34.5 Z"/></g>
<g><path style="opacity:0.879" fill="#b3f5fa" d="M 83.5,34.5 C 85.1667,35.5 86.5,36.8333 87.5,38.5C 89.6089,44.7239 88.7755,50.3906 85,55.5C 79.7839,58.9907 74.2839,61.6573 68.5,63.5C 65.2157,61.883 62.5491,59.5497 60.5,56.5C 61.9305,56.4208 63.2638,56.7542 64.5,57.5C 63.6239,49.0916 66.6239,42.5916 73.5,38C 77.3238,37.5672 80.6572,36.4006 83.5,34.5 Z"/></g>
<g><path style="opacity:0.896" fill="#93cace" d="M 87.5,38.5 C 90.3075,40.9584 91.6408,44.1251 91.5,48C 91.0508,55.5705 87.3841,60.9039 80.5,64C 76.3112,64.8119 72.3112,64.6453 68.5,63.5C 74.2839,61.6573 79.7839,58.9907 85,55.5C 88.7755,50.3906 89.6089,44.7239 87.5,38.5 Z"/></g>
<g><path style="opacity:0.995" fill="#191c1c" d="M 71.5,71.5 C 87.7175,74.2243 96.5509,83.891 98,100.5C 113.465,107.128 120.298,118.794 118.5,135.5C 89.1667,135.5 59.8333,135.5 30.5,135.5C 29.5079,119.135 36.5079,107.469 51.5,100.5C 52.8005,86.9067 59.4672,77.24 71.5,71.5 Z"/></g>
<g><path style="opacity:0.955" fill="#dff7fa" d="M 35.5,132.5 C 32.8784,127.675 33.0451,122.675 36,117.5C 40.5631,110.429 46.7298,105.429 54.5,102.5C 61.7771,101.57 69.1104,101.236 76.5,101.5C 76.7919,107.377 74.1253,111.21 68.5,113C 60.7291,113.066 53.0624,113.733 45.5,115C 39.765,119.544 36.4317,125.377 35.5,132.5 Z"/></g>
<g><path style="opacity:0.959" fill="#d8f1f3" d="M 76.5,75.5 C 74.2782,81.5468 69.9448,85.3801 63.5,87C 59.9525,89.9753 57.2858,93.4753 55.5,97.5C 56.323,87.8413 60.9897,80.6746 69.5,76C 71.8098,75.5034 74.1432,75.3367 76.5,75.5 Z"/></g>
<g><path style="opacity:0.878" fill="#b4f5fb" d="M 76.5,75.5 C 82.8963,76.8891 87.5629,80.5558 90.5,86.5C 90.3339,92.1764 90.5006,97.8431 91,103.5C 94.2712,106.447 96.2712,110.113 97,114.5C 97.4988,120.516 97.3321,126.516 96.5,132.5C 76.1667,132.5 55.8333,132.5 35.5,132.5C 36.4317,125.377 39.765,119.544 45.5,115C 53.0624,113.733 60.7291,113.066 68.5,113C 74.1253,111.21 76.7919,107.377 76.5,101.5C 69.1104,101.236 61.7771,101.57 54.5,102.5C 55.3007,100.958 55.634,99.2915 55.5,97.5C 57.2858,93.4753 59.9525,89.9753 63.5,87C 69.9448,85.3801 74.2782,81.5468 76.5,75.5 Z"/></g>
<g><path style="opacity:0.895" fill="#9ad4d7" d="M 90.5,86.5 C 91.5585,87.6002 92.3918,88.9336 93,90.5C 93.3333,94.1667 93.6667,97.8333 94,101.5C 103.515,105.085 110.515,111.418 115,120.5C 115.499,124.486 115.666,128.486 115.5,132.5C 109.167,132.5 102.833,132.5 96.5,132.5C 97.3321,126.516 97.4988,120.516 97,114.5C 96.2712,110.113 94.2712,106.447 91,103.5C 90.5006,97.8431 90.3339,92.1764 90.5,86.5 Z"/></g>
</svg>
