<?xml version="1.0" encoding="UTF-8"?>
<!DOCTYPE svg PUBLIC "-//W3C//DTD SVG 1.1//EN" "http://www.w3.org/Graphics/SVG/1.1/DTD/svg11.dtd">
<svg xmlns="http://www.w3.org/2000/svg" version="1.1" width="150px" height="150px" style="shape-rendering:geometricPrecision; text-rendering:geometricPrecision; image-rendering:optimizeQuality; fill-rule:evenodd; clip-rule:evenodd" xmlns:xlink="http://www.w3.org/1999/xlink">
<g><path style="opacity:0.182" fill="#fbfbfb" d="M 49.5,13.5 C 55.8421,13.3338 62.1754,13.5005 68.5,14C 70.6641,14.9143 72.6641,16.081 74.5,17.5C 77.0876,16.8064 79.421,15.6398 81.5,14C 87.8333,13.3333 94.1667,13.3333 100.5,14C 108.603,17.0436 112.603,22.8769 112.5,31.5C 136.865,27.3346 147.365,37.3346 144,61.5C 141.401,66.4342 137.734,70.4342 133,73.5C 129.262,84.2151 125.429,94.8817 121.5,105.5C 123.523,108.29 125.356,111.29 127,114.5C 130.1,123.549 130.1,132.549 127,141.5C 126.097,142.701 124.931,143.535 123.5,144C 92.8445,145.779 62.1778,145.946 31.5,144.5C 26.5856,145.061 23.419,143.061 22,138.5C 21.0387,129.721 21.5387,121.055 23.5,112.5C 24.8026,110.623 26.3026,108.957 28,107.5C 28.6667,105.833 28.6667,104.167 28,102.5C 24.0866,93.7648 20.7533,84.7648 18,75.5C 14.9708,72.3935 11.8041,69.3935 8.5,66.5C 2.69102,55.2292 3.69102,44.7292 11.5,35C 13.3325,34.2515 14.9991,33.2515 16.5,32C 23.4921,31.5004 30.4921,31.3337 37.5,31.5C 37.3359,28.8127 37.5026,26.146 38,23.5C 41.2148,19.3406 45.0482,16.0073 49.5,13.5 Z"/></g>
<g><path style="opacity:0.979" fill="#1a1c1c" d="M 115.5,117.5 C 114.833,117.5 114.5,117.833 114.5,118.5C 113.833,118.167 113.167,117.833 112.5,117.5C 111.027,116.928 109.693,116.095 108.5,115C 87.8707,112.172 67.204,111.839 46.5,114C 42.3459,114.414 38.6793,115.914 35.5,118.5C 35.6716,117.508 35.3382,116.842 34.5,116.5C 36.7955,114.677 39.1288,112.844 41.5,111C 36.1456,95.7892 30.6456,80.6225 25,65.5C 13.7065,60.1299 11.8732,52.6299 19.5,43C 27.3035,39.1555 33.4701,40.9888 38,48.5C 38.9285,52.2441 38.4285,55.7441 36.5,59C 39.9651,63.4668 43.7984,67.6334 48,71.5C 50.2069,64.0929 52.0402,56.5929 53.5,49C 51.3475,46.1776 49.1808,43.3442 47,40.5C 45.9086,25.6204 52.4086,20.787 66.5,26C 70.5757,29.2263 72.0757,33.393 71,38.5C 69.5687,41.0829 68.402,43.7496 67.5,46.5C 69.5004,53.6672 72.0004,60.6672 75,67.5C 77.9314,60.2059 80.7648,52.8726 83.5,45.5C 76.5753,38.3734 76.9086,31.5401 84.5,25C 98.3476,21.1879 104.514,26.3546 103,40.5C 101.183,43.3158 99.0166,45.8158 96.5,48C 97.64,56.0133 99.4733,63.8466 102,71.5C 105.717,67.2384 109.55,63.0718 113.5,59C 109.378,50.5677 111.711,44.5677 120.5,41C 130.697,40.5303 135.53,45.3636 135,55.5C 134.333,56.8333 133.667,58.1667 133,59.5C 129.918,62.186 126.918,64.8527 124,67.5C 119.272,81.285 114.272,94.9517 109,108.5C 108.219,109.944 108.386,111.277 109.5,112.5C 112.129,113.467 114.129,115.133 115.5,117.5 Z"/></g>
<g><path style="opacity:0.956" fill="#d1edee" d="M 29.5,44.5 C 24.9716,47.9798 23.305,52.6465 24.5,58.5C 23.1667,58.5 21.8333,58.5 20.5,58.5C 15.9434,52.694 16.9434,47.8606 23.5,44C 25.7116,43.2109 27.7116,43.3775 29.5,44.5 Z"/></g>
<g><path style="opacity:0.958" fill="#dbf7fa" d="M 93.5,26.5 C 92.213,28.2574 90.713,29.9241 89,31.5C 88.2585,34.562 88.4252,37.562 89.5,40.5C 86.5524,41.6155 84.3858,40.6155 83,37.5C 82.5045,35.5273 82.3379,33.5273 82.5,31.5C 84.9934,27.4222 88.6601,25.7555 93.5,26.5 Z"/></g>
<g><path style="opacity:0.956" fill="#d9f4f6" d="M 62.5,27.5 C 56.3064,29.5431 53.9731,33.8765 55.5,40.5C 53.3146,40.2964 51.3146,39.6298 49.5,38.5C 48.7974,28.5211 53.1308,24.8545 62.5,27.5 Z"/></g>
<g><path style="opacity:0.879" fill="#b3f2f8" d="M 93.5,26.5 C 100.516,29.3927 102.349,34.3927 99,41.5C 97.7365,43.607 95.9032,44.607 93.5,44.5C 94.6784,53.5412 96.1784,62.5412 98,71.5C 98.5662,73.7226 99.3995,75.7226 100.5,77.5C 102.021,81.8386 104.521,82.5052 108,79.5C 109.966,74.6117 112.133,69.7783 114.5,65C 113.906,64.5357 113.239,64.369 112.5,64.5C 114.016,62.8143 115.35,60.981 116.5,59C 112.275,48.8982 115.609,43.8982 126.5,44C 135.317,52.2515 133.984,58.4182 122.5,62.5C 121.624,62.3691 120.957,62.7025 120.5,63.5C 114.891,77.2133 106.891,89.38 96.5,100C 91.9974,103.755 86.9974,106.755 81.5,109C 74.9867,109.172 68.6534,109.672 62.5,110.5C 57.4376,110.274 52.4376,110.608 47.5,111.5C 50.0214,109.299 52.5214,106.966 55,104.5C 55.6667,102.833 55.6667,101.167 55,99.5C 46.6872,87.3653 37.8539,75.6986 28.5,64.5C 25.8793,62.4974 23.2127,60.4974 20.5,58.5C 21.8333,58.5 23.1667,58.5 24.5,58.5C 23.305,52.6465 24.9716,47.9798 29.5,44.5C 32.091,45.2543 33.9243,46.921 35,49.5C 35.4151,53.3101 35.0817,56.9767 34,60.5C 39.3333,66.5 44.6667,72.5 50,78.5C 50.2321,77.2625 50.7321,76.2625 51.5,75.5C 51.5,76.5 51.5,77.5 51.5,78.5C 54.3245,78.9193 56.4912,77.9193 58,75.5C 58.6667,66.5 58.6667,57.5 58,48.5C 57.6174,49.056 57.1174,49.3893 56.5,49.5C 57.038,47.8828 57.3713,46.2161 57.5,44.5C 53.4105,44.4119 50.7438,42.4119 49.5,38.5C 51.3146,39.6298 53.3146,40.2964 55.5,40.5C 53.9731,33.8765 56.3064,29.5431 62.5,27.5C 68.6978,30.6141 70.0311,35.2808 66.5,41.5C 64.9884,42.2494 63.9884,43.416 63.5,45C 67.4857,55.7995 71.3191,66.6329 75,77.5C 75.2784,76.5842 75.7784,75.9175 76.5,75.5C 76.62,76.5862 77.2867,77.2528 78.5,77.5C 80.0554,77.278 81.3887,76.6113 82.5,75.5C 83.9201,66.5453 84.9201,57.5453 85.5,48.5C 85.6775,47.3052 86.0109,46.1385 86.5,45C 81.751,41.3986 80.4176,36.8986 82.5,31.5C 82.3379,33.5273 82.5045,35.5273 83,37.5C 84.3858,40.6155 86.5524,41.6155 89.5,40.5C 88.4252,37.562 88.2585,34.562 89,31.5C 90.713,29.9241 92.213,28.2574 93.5,26.5 Z"/></g>
<g><path style="opacity:0.959" fill="#d8f1f4" d="M 51.5,75.5 C 52.5662,66.5956 54.2329,57.9289 56.5,49.5C 57.1174,49.3893 57.6174,49.056 58,48.5C 58.6667,57.5 58.6667,66.5 58,75.5C 56.4912,77.9193 54.3245,78.9193 51.5,78.5C 51.5,77.5 51.5,76.5 51.5,75.5 Z"/></g>
<g><path style="opacity:0.96" fill="#d3ecee" d="M 85.5,48.5 C 84.9201,57.5453 83.9201,66.5453 82.5,75.5C 81.3887,76.6113 80.0554,77.278 78.5,77.5C 77.2867,77.2528 76.62,76.5862 76.5,75.5C 78.9259,66.2223 81.9259,57.2223 85.5,48.5 Z"/></g>
<g><path style="opacity:0.957" fill="#d9f2f4" d="M 112.5,64.5 C 113.239,64.369 113.906,64.5357 114.5,65C 112.133,69.7783 109.966,74.6117 108,79.5C 104.521,82.5052 102.021,81.8386 100.5,77.5C 104.5,73.1667 108.5,68.8333 112.5,64.5 Z"/></g>
<g><path style="opacity:0.956" fill="#e0f9fb" d="M 28.5,64.5 C 37.8539,75.6986 46.6872,87.3653 55,99.5C 55.6667,101.167 55.6667,102.833 55,104.5C 52.5214,106.966 50.0214,109.299 47.5,111.5C 46.5,111.5 45.5,111.5 44.5,111.5C 39.1631,95.8224 33.8298,80.1557 28.5,64.5 Z"/></g>
<g><path style="opacity:0.894" fill="#9ad0d4" d="M 122.5,62.5 C 116.636,78.759 110.969,95.0924 105.5,111.5C 91.1801,110.73 76.8468,110.396 62.5,110.5C 68.6534,109.672 74.9867,109.172 81.5,109C 86.9974,106.755 91.9974,103.755 96.5,100C 106.891,89.38 114.891,77.2133 120.5,63.5C 120.957,62.7025 121.624,62.3691 122.5,62.5 Z"/></g>
<g><path style="opacity:0.955" fill="#dcf4f7" d="M 112.5,117.5 C 111.215,121.002 108.548,122.835 104.5,123C 82.8333,123.333 61.1667,123.667 39.5,124C 36.6792,126.141 35.3459,128.975 35.5,132.5C 34.2227,131.306 33.5561,129.64 33.5,127.5C 33.4488,124.308 34.1155,121.308 35.5,118.5C 38.6793,115.914 42.3459,114.414 46.5,114C 67.204,111.839 87.8707,112.172 108.5,115C 109.693,116.095 111.027,116.928 112.5,117.5 Z"/></g>
<g><path style="opacity:0.998" fill="#191c1c" d="M 34.5,116.5 C 35.3382,116.842 35.6716,117.508 35.5,118.5C 34.1155,121.308 33.4488,124.308 33.5,127.5C 33.5561,129.64 34.2227,131.306 35.5,132.5C 62.5,132.5 89.5,132.5 116.5,132.5C 116.882,127.638 116.216,122.972 114.5,118.5C 114.5,117.833 114.833,117.5 115.5,117.5C 117.41,118.975 118.576,120.975 119,123.5C 119.499,127.486 119.666,131.486 119.5,135.5C 89.8333,135.5 60.1667,135.5 30.5,135.5C 29.5065,128.551 30.8398,122.218 34.5,116.5 Z"/></g>
<g><path style="opacity:0.878" fill="#b4f4fa" d="M 112.5,117.5 C 113.167,117.833 113.833,118.167 114.5,118.5C 116.216,122.972 116.882,127.638 116.5,132.5C 89.5,132.5 62.5,132.5 35.5,132.5C 35.3459,128.975 36.6792,126.141 39.5,124C 61.1667,123.667 82.8333,123.333 104.5,123C 108.548,122.835 111.215,121.002 112.5,117.5 Z"/></g>
</svg>
