<?xml version="1.0" encoding="UTF-8"?>
<!DOCTYPE svg PUBLIC "-//W3C//DTD SVG 1.1//EN" "http://www.w3.org/Graphics/SVG/1.1/DTD/svg11.dtd">
<svg xmlns="http://www.w3.org/2000/svg" version="1.1" width="150px" height="150px" style="shape-rendering:geometricPrecision; text-rendering:geometricPrecision; image-rendering:optimizeQuality; fill-rule:evenodd; clip-rule:evenodd" xmlns:xlink="http://www.w3.org/1999/xlink">
<g><path style="opacity:0.167" fill="#fcfcfc" d="M 67.5,18.5 C 72.8437,18.334 78.1771,18.5006 83.5,19C 93.0705,20.9872 102.737,22.3205 112.5,23C 115.249,24.1227 117.749,25.6227 120,27.5C 121.707,38.8019 121.707,50.1353 120,61.5C 118.024,65.285 116.19,69.1183 114.5,73C 116.598,83.4088 118.098,93.9088 119,104.5C 129.782,114.886 132.449,127.219 127,141.5C 126.167,142.333 125.333,143.167 124.5,144C 95.5194,145.549 66.5194,145.883 37.5,145C 24.6327,146.742 19.2994,141.242 21.5,128.5C 20.9324,121.338 22.2657,114.671 25.5,108.5C 26.5,108.5 27.5,108.5 28.5,108.5C 28.5,107.5 28.5,106.5 28.5,105.5C 29.5,105.5 30.5,105.5 31.5,105.5C 33.0864,94.4727 34.753,83.4727 36.5,72.5C 35.0664,69.9528 33.3998,67.6195 31.5,65.5C 28.419,53.3283 27.7524,40.9949 29.5,28.5C 31.8273,26.2171 34.494,24.3837 37.5,23C 44.458,21.936 51.458,21.2694 58.5,21C 61.5,19.9261 64.5,19.0928 67.5,18.5 Z"/></g>
<g><path style="opacity:0.993" fill="#191b1b" d="M 115.5,117.5 C 114.833,117.5 114.5,117.833 114.5,118.5C 113.833,118.167 113.167,117.833 112.5,117.5C 111.027,116.928 109.693,116.095 108.5,115C 86.1453,111.742 63.8119,111.742 41.5,115C 37.6778,116.387 35.0112,118.887 33.5,122.5C 33.6716,121.508 33.3382,120.842 32.5,120.5C 33.4168,116.415 35.9168,113.748 40,112.5C 42.0355,97.9873 44.2022,83.4873 46.5,69C 44.4193,65.5559 42.2526,62.0559 40,58.5C 38.6222,50.873 37.9556,43.2063 38,35.5C 42.4453,32.3448 47.2787,31.3448 52.5,32.5C 54.1667,36.5 55.8333,40.5 57.5,44.5C 59.3469,45.8304 60.8469,45.497 62,43.5C 62.6521,38.923 63.4854,34.423 64.5,30C 71.4597,28.1698 78.4597,28.0031 85.5,29.5C 86.2436,34.8846 87.2436,40.218 88.5,45.5C 89.9778,45.762 91.3112,45.4287 92.5,44.5C 94.2691,40.3563 95.9358,36.1896 97.5,32C 102.794,31.3653 107.627,32.532 112,35.5C 112.152,41.8363 111.819,48.1697 111,54.5C 109.777,58.6153 107.777,62.282 105,65.5C 106.223,81.1724 107.889,96.8391 110,112.5C 112.328,113.664 114.162,115.33 115.5,117.5 Z"/></g>
<g><path style="opacity:0.896" fill="#98d0d3" d="M 105.5,35.5 C 106.15,35.8039 106.817,36.1373 107.5,36.5C 108.664,42.8072 108.831,49.1405 108,55.5C 105.059,64.3323 99.5592,66.6656 91.5,62.5C 94.1667,62.5 96.8333,62.5 99.5,62.5C 101.5,53.5 103.5,44.5 105.5,35.5 Z"/></g>
<g><path style="opacity:0.879" fill="#b1f0f6" d="M 82.5,32.5 C 84.2297,37.5695 85.2297,42.9029 85.5,48.5C 88.5719,48.8174 91.5719,48.4841 94.5,47.5C 95.9017,43.4612 97.4017,39.4612 99,35.5C 101.081,34.6669 103.248,34.6669 105.5,35.5C 103.5,44.5 101.5,53.5 99.5,62.5C 96.8333,62.5 94.1667,62.5 91.5,62.5C 78.1243,60.9888 64.791,61.3221 51.5,63.5C 48.3889,63.9882 46.0556,62.9882 44.5,60.5C 57.865,61.5804 69.0316,56.9138 78,46.5C 78.5359,44.1311 79.7026,42.1311 81.5,40.5C 82.48,37.9135 82.8134,35.2469 82.5,32.5 Z"/></g>
<g><path style="opacity:0.955" fill="#dbf3f5" d="M 82.5,32.5 C 82.8134,35.2469 82.48,37.9135 81.5,40.5C 79.7026,42.1311 78.5359,44.1311 78,46.5C 69.0316,56.9138 57.865,61.5804 44.5,60.5C 41.1669,52.8414 40.1669,44.8414 41.5,36.5C 44.2893,34.7018 47.2893,34.2018 50.5,35C 52.0877,39.1693 53.7544,43.336 55.5,47.5C 58.4281,48.4841 61.4281,48.8174 64.5,48.5C 64.8071,42.8421 65.8071,37.3421 67.5,32C 72.6842,31.1837 77.6842,31.3503 82.5,32.5 Z"/></g>
<g><path style="opacity:0.894" fill="#99cfd2" d="M 63.5,110.5 C 73.3249,109.67 83.3249,109.17 93.5,109C 97.0362,89.7356 90.0362,76.069 72.5,68C 65.4941,67.4996 58.4941,66.9996 51.5,66.5C 67.7343,63.7234 84.0676,63.89 100.5,67C 103.523,81.6465 105.523,96.4798 106.5,111.5C 92.1745,110.895 77.8411,110.562 63.5,110.5 Z"/></g>
<g><path style="opacity:0.876" fill="#b6f6fd" d="M 51.5,66.5 C 58.4941,66.9996 65.4941,67.4996 72.5,68C 90.0362,76.069 97.0362,89.7356 93.5,109C 83.3249,109.17 73.3249,109.67 63.5,110.5C 56.6386,110.814 49.972,110.814 43.5,110.5C 44.1667,110.5 44.5,110.167 44.5,109.5C 48.5949,107.385 52.9282,105.719 57.5,104.5C 59.6398,102.86 60.6398,100.693 60.5,98C 58.5456,89.877 56.7122,81.7104 55,73.5C 53.549,71.5359 51.7157,70.2026 49.5,69.5C 49.2852,67.8212 49.9519,66.8212 51.5,66.5 Z"/></g>
<g><path style="opacity:0.955" fill="#def7f9" d="M 49.5,69.5 C 51.7157,70.2026 53.549,71.5359 55,73.5C 56.7122,81.7104 58.5456,89.877 60.5,98C 60.6398,100.693 59.6398,102.86 57.5,104.5C 52.9282,105.719 48.5949,107.385 44.5,109.5C 45.3242,106.236 45.6576,102.902 45.5,99.5C 46.0556,89.3811 47.389,79.3811 49.5,69.5 Z"/></g>
<g><path style="opacity:0.953" fill="#9badaf" d="M 45.5,99.5 C 45.6576,102.902 45.3242,106.236 44.5,109.5C 44.5,110.167 44.1667,110.5 43.5,110.5C 43.6459,106.613 44.3126,102.946 45.5,99.5 Z"/></g>
<g><path style="opacity:0.955" fill="#dcf4f6" d="M 112.5,117.5 C 112.67,118.822 112.337,119.989 111.5,121C 109.212,121.822 106.878,122.489 104.5,123C 82.8333,123.333 61.1667,123.667 39.5,124C 36.1558,125.894 34.8224,128.727 35.5,132.5C 33.5977,129.663 32.931,126.329 33.5,122.5C 35.0112,118.887 37.6778,116.387 41.5,115C 63.8119,111.742 86.1453,111.742 108.5,115C 109.693,116.095 111.027,116.928 112.5,117.5 Z"/></g>
<g><path style="opacity:0.998" fill="#191c1c" d="M 115.5,117.5 C 117.41,118.975 118.576,120.975 119,123.5C 119.499,127.486 119.666,131.486 119.5,135.5C 89.8333,135.5 60.1667,135.5 30.5,135.5C 30.3343,131.154 30.501,126.821 31,122.5C 31.2784,121.584 31.7784,120.918 32.5,120.5C 33.3382,120.842 33.6716,121.508 33.5,122.5C 32.931,126.329 33.5977,129.663 35.5,132.5C 62.5,132.5 89.5,132.5 116.5,132.5C 116.882,127.638 116.216,122.972 114.5,118.5C 114.5,117.833 114.833,117.5 115.5,117.5 Z"/></g>
<g><path style="opacity:0.878" fill="#b4f4fa" d="M 112.5,117.5 C 113.167,117.833 113.833,118.167 114.5,118.5C 116.216,122.972 116.882,127.638 116.5,132.5C 89.5,132.5 62.5,132.5 35.5,132.5C 34.8224,128.727 36.1558,125.894 39.5,124C 61.1667,123.667 82.8333,123.333 104.5,123C 106.878,122.489 109.212,121.822 111.5,121C 112.337,119.989 112.67,118.822 112.5,117.5 Z"/></g>
</svg>
