<?xml version="1.0" encoding="UTF-8"?>
<!DOCTYPE svg PUBLIC "-//W3C//DTD SVG 1.1//EN" "http://www.w3.org/Graphics/SVG/1.1/DTD/svg11.dtd">
<svg xmlns="http://www.w3.org/2000/svg" version="1.1" width="150px" height="150px" style="shape-rendering:geometricPrecision; text-rendering:geometricPrecision; image-rendering:optimizeQuality; fill-rule:evenodd; clip-rule:evenodd" xmlns:xlink="http://www.w3.org/1999/xlink">
<g><path style="opacity:0.903" fill="#000000" d="M 69.5,13.5 C 77.5087,13.5035 82.1754,17.5035 83.5,25.5C 82.9733,28.5807 82.14,31.5807 81,34.5C 77.4728,40.2211 74.4728,46.2211 72,52.5C 70.8776,57.1016 70.3776,61.7682 70.5,66.5C 72.1667,66.5 73.8333,66.5 75.5,66.5C 75.2101,56.2037 78.2101,47.0371 84.5,39C 89.7466,38.8746 93.9132,41.0413 97,45.5C 106.769,58.0089 109.769,72.0089 106,87.5C 104.789,90.7591 102.956,93.5925 100.5,96C 84.5673,97.6207 68.5673,97.954 52.5,97C 45.4428,93.9448 41.4428,88.6115 40.5,81C 39.1539,68.6115 42.3205,57.4449 50,47.5C 54.5584,42.6048 59.3918,38.1048 64.5,34C 61.7765,28.0656 61.9432,22.2323 65,16.5C 66.6516,15.6006 68.1516,14.6006 69.5,13.5 Z"/></g>
<g><path style="opacity:0.899" fill="#000000" d="M 51.5,102.5 C 67.5035,102.333 83.5035,102.5 99.5,103C 100.218,105.461 100.885,107.961 101.5,110.5C 112.814,111.499 124.147,111.832 135.5,111.5C 133.962,119.191 132.295,126.858 130.5,134.5C 115.511,135.666 100.511,135.833 85.5,135C 84.5,134.667 83.5,134.333 82.5,134C 79.7603,130.639 76.927,127.472 74,124.5C 71.6416,127.327 69.1416,130.161 66.5,133C 65.1667,133.667 63.8333,134.333 62.5,135C 47.8333,135.667 33.1667,135.667 18.5,135C 16.44,127.259 14.7734,119.426 13.5,111.5C 25.1667,111.5 36.8333,111.5 48.5,111.5C 48.1289,107.997 49.1289,104.997 51.5,102.5 Z"/></g>
</svg>
