<?xml version="1.0" encoding="UTF-8"?>
<!DOCTYPE svg PUBLIC "-//W3C//DTD SVG 1.1//EN" "http://www.w3.org/Graphics/SVG/1.1/DTD/svg11.dtd">
<svg xmlns="http://www.w3.org/2000/svg" version="1.1" width="150px" height="150px" style="shape-rendering:geometricPrecision; text-rendering:geometricPrecision; image-rendering:optimizeQuality; fill-rule:evenodd; clip-rule:evenodd" xmlns:xlink="http://www.w3.org/1999/xlink">
<g><path style="opacity:0.842" fill="#000000" d="M 75.5,54.5 C 74.5041,54.5858 73.6708,54.2524 73,53.5C 68.4568,44.999 65.2901,35.999 63.5,26.5C 64.6711,15.9088 70.3378,12.4088 80.5,16C 83.7384,18.1447 85.405,21.1447 85.5,25C 83.0545,35.1705 79.7211,45.0038 75.5,54.5 Z"/></g>
<g><path style="opacity:0.944" fill="#000000" d="M 75.5,54.5 C 84.63,38.7294 97.9633,33.8961 115.5,40C 121.425,44.0079 125.258,49.5079 127,56.5C 127.667,60.5 127.667,64.5 127,68.5C 122.973,75.8822 117.973,82.5489 112,88.5C 111.918,93.5055 111.918,98.5055 112,103.5C 110.314,105.919 107.981,106.919 105,106.5C 94.8622,105.189 84.6955,104.189 74.5,103.5C 62.8209,104.542 51.1542,105.376 39.5,106C 38.6667,105.167 37.8333,104.333 37,103.5C 36.7812,98.4848 36.7812,93.4848 37,88.5C 34.3333,84.5 31,81.1667 27,78.5C 20.0313,68.4662 19.698,58.1329 26,47.5C 36.2935,36.4076 48.1268,34.5742 61.5,42C 66.5064,46.5264 70.6731,51.6931 74,57.5C 75.0386,56.7562 75.5386,55.7562 75.5,54.5 Z"/></g>
<g><path style="opacity:1" fill="#e1e1e1" d="M 53.5,66.5 C 55.0174,66.5106 56.1841,67.1772 57,68.5C 58.3926,72.2857 60.0593,75.9523 62,79.5C 62.6667,81.8333 62.6667,84.1667 62,86.5C 61,87.8333 60,87.8333 59,86.5C 58.0654,81.2049 55.7321,76.5382 52,72.5C 51.2516,70.1599 51.7516,68.1599 53.5,66.5 Z"/></g>
<g><path style="opacity:1" fill="#e4e4e4" d="M 92.5,66.5 C 96.1431,67.3822 97.3098,69.7155 96,73.5C 91.8779,76.9342 89.5446,81.2675 89,86.5C 88.586,86.9574 88.086,87.2907 87.5,87.5C 86.0723,79.7791 87.739,72.7791 92.5,66.5 Z"/></g>
<g><path style="opacity:0.895" fill="#000000" d="M 63.5,110.5 C 79.224,110.256 94.8907,111.089 110.5,113C 115.369,115.251 117.869,119.085 118,124.5C 118.499,128.152 118.665,131.818 118.5,135.5C 89.1591,135.833 59.8258,135.5 30.5,134.5C 29.6973,128.28 30.6973,122.28 33.5,116.5C 34.5,115.667 35.5,114.833 36.5,114C 45.6294,112.773 54.6294,111.607 63.5,110.5 Z"/></g>
</svg>
