<?xml version="1.0" encoding="UTF-8"?>
<!DOCTYPE svg PUBLIC "-//W3C//DTD SVG 1.1//EN" "http://www.w3.org/Graphics/SVG/1.1/DTD/svg11.dtd">
<svg xmlns="http://www.w3.org/2000/svg" version="1.1" width="150px" height="150px" style="shape-rendering:geometricPrecision; text-rendering:geometricPrecision; image-rendering:optimizeQuality; fill-rule:evenodd; clip-rule:evenodd" xmlns:xlink="http://www.w3.org/1999/xlink">
<g><path style="opacity:0.928" fill="#000000" d="M 58.5,17.5 C 59.552,17.3505 60.552,17.5172 61.5,18C 65.8333,23 70.1667,28 74.5,33C 95.2819,36.1132 109.115,47.6132 116,67.5C 117.59,79.79 118.257,92.1234 118,104.5C 116.302,105.733 114.302,106.4 112,106.5C 101.848,105.272 91.6817,104.272 81.5,103.5C 69.2322,105.282 56.8988,106.282 44.5,106.5C 44.3184,104.409 44.6518,102.409 45.5,100.5C 51.5404,94.8095 58.5404,90.6428 66.5,88C 74.5466,83.775 76.5466,77.6083 72.5,69.5C 70.3119,72.5218 67.6452,75.0218 64.5,77C 58.4542,80.0955 52.1208,82.4288 45.5,84C 39.7225,94.4725 32.8892,94.9725 25,85.5C 24.2045,78.0195 26.2045,71.3529 31,65.5C 34.3702,62.465 37.3702,59.1317 40,55.5C 41.9694,51.7682 42.9694,47.7682 43,43.5C 45.964,39.5342 49.2974,35.8675 53,32.5C 55.2948,27.6438 57.1281,22.6438 58.5,17.5 Z"/></g>
<g><path style="opacity:0.895" fill="#000000" d="M 69.5,110.5 C 85.2269,110.207 100.894,111.041 116.5,113C 120.9,115.077 123.4,118.577 124,123.5C 124.793,127.423 124.626,131.256 123.5,135C 94.5019,135.5 65.5019,135.667 36.5,135.5C 35.6729,128.19 37.0063,121.357 40.5,115C 41.8333,114.333 43.1667,113.667 44.5,113C 53.0119,112.438 61.3452,111.605 69.5,110.5 Z"/></g>
</svg>
