<?xml version="1.0" encoding="UTF-8"?>
<!DOCTYPE svg PUBLIC "-//W3C//DTD SVG 1.1//EN" "http://www.w3.org/Graphics/SVG/1.1/DTD/svg11.dtd">
<svg xmlns="http://www.w3.org/2000/svg" version="1.1" width="150px" height="150px" style="shape-rendering:geometricPrecision; text-rendering:geometricPrecision; image-rendering:optimizeQuality; fill-rule:evenodd; clip-rule:evenodd" xmlns:xlink="http://www.w3.org/1999/xlink">
<g><path style="opacity:0.902" fill="#000000" d="M 53.5,22.5 C 65.1581,21.6594 70.6581,26.9928 70,38.5C 68.848,40.6487 67.348,42.482 65.5,44C 68.4619,52.5495 71.6285,61.0495 75,69.5C 77.84,61.1568 80.6733,52.8235 83.5,44.5C 77.2455,35.8549 78.5789,28.6882 87.5,23C 99.8304,21.6654 104.997,27.1654 103,39.5C 100.912,42.1128 98.7458,44.6128 96.5,47C 98.4643,55.7489 99.9643,64.5823 101,73.5C 104.807,68.0589 108.973,62.8922 113.5,58C 109.751,48.4153 112.917,42.582 123,40.5C 125.981,40.6572 128.648,41.6572 131,43.5C 137.822,52.5722 135.822,59.2389 125,63.5C 119.37,77.703 114.203,92.0363 109.5,106.5C 98.1736,105.417 86.8403,104.417 75.5,103.5C 63.5621,105.222 51.5621,106.222 39.5,106.5C 35.1594,91.6392 29.826,77.1392 23.5,63C 13.536,58.6138 11.7026,52.1138 18,43.5C 23.041,39.7331 28.2077,39.5664 33.5,43C 37.8661,47.5266 38.5327,52.5266 35.5,58C 39.6667,62.8333 43.8333,67.6667 48,72.5C 50.169,63.6519 52.3356,54.8186 54.5,46C 46.8814,42.2533 44.7147,36.4199 48,28.5C 49.3597,25.9774 51.193,23.9774 53.5,22.5 Z"/></g>
<g><path style="opacity:0.893" fill="#000000" d="M 62.5,110.5 C 78.5577,110.233 94.5577,111.066 110.5,113C 113,114.167 114.833,116 116,118.5C 117.972,123.687 118.639,129.02 118,134.5C 89.2386,135.662 60.4052,135.828 31.5,135C 30.5097,130.539 30.6763,126.039 32,121.5C 32.6064,118.452 34.1064,115.952 36.5,114C 45.2426,112.61 53.9092,111.443 62.5,110.5 Z"/></g>
</svg>
