<?xml version="1.0" encoding="UTF-8"?>
<!DOCTYPE svg PUBLIC "-//W3C//DTD SVG 1.1//EN" "http://www.w3.org/Graphics/SVG/1.1/DTD/svg11.dtd">
<svg xmlns="http://www.w3.org/2000/svg" version="1.1" width="150px" height="150px" style="shape-rendering:geometricPrecision; text-rendering:geometricPrecision; image-rendering:optimizeQuality; fill-rule:evenodd; clip-rule:evenodd" xmlns:xlink="http://www.w3.org/1999/xlink">
<g><path style="opacity:0.898" fill="#000000" d="M 70.5,27.5 C 74.1817,27.3347 77.8484,27.5014 81.5,28C 82.624,28.2492 83.624,28.7492 84.5,29.5C 85.8198,34.7403 86.4865,40.0736 86.5,45.5C 88.8333,45.5 91.1667,45.5 93.5,45.5C 94.6695,40.826 96.3361,36.326 98.5,32C 102.956,31.4222 107.289,31.9222 111.5,33.5C 111.663,40.5473 111.163,47.5473 110,54.5C 108.877,57.2487 107.377,59.7487 105.5,62C 103.634,62.9847 101.634,63.4847 99.5,63.5C 81.8218,61.002 64.1551,60.8353 46.5,63C 43.1309,60.6351 40.9643,57.4685 40,53.5C 38.7896,46.8883 38.2896,40.2217 38.5,33.5C 43.0327,32.0165 47.6993,31.3498 52.5,31.5C 54.0319,36.0974 55.3652,40.764 56.5,45.5C 58.5,45.5 60.5,45.5 62.5,45.5C 63.285,40.1726 64.1184,34.8392 65,29.5C 66.9483,28.8906 68.7816,28.224 70.5,27.5 Z"/></g>
<g><path style="opacity:0.913" fill="#000000" d="M 58.5,67.5 C 73.2691,66.8915 87.9358,67.7248 102.5,70C 105.407,81.9825 107.407,94.1492 108.5,106.5C 97.354,105.346 86.1873,104.346 75,103.5C 64.1431,104.468 53.3097,105.301 42.5,106C 43.3714,94.2546 45.2048,82.4213 48,70.5C 51.5566,69.3353 55.0566,68.3353 58.5,67.5 Z"/></g>
<g><path style="opacity:0.896" fill="#000000" d="M 64.5,110.5 C 80.6485,109.952 96.6485,111.119 112.5,114C 117.562,119.868 119.395,126.701 118,134.5C 88.9052,135.662 59.7385,135.828 30.5,135C 28.7613,126.958 30.7613,119.958 36.5,114C 45.9825,112.855 55.3159,111.688 64.5,110.5 Z"/></g>
</svg>
