<?xml version="1.0" encoding="UTF-8"?>
<!DOCTYPE svg PUBLIC "-//W3C//DTD SVG 1.1//EN" "http://www.w3.org/Graphics/SVG/1.1/DTD/svg11.dtd">
<svg xmlns="http://www.w3.org/2000/svg" version="1.1" width="150px" height="150px" style="shape-rendering:geometricPrecision; text-rendering:geometricPrecision; image-rendering:optimizeQuality; fill-rule:evenodd; clip-rule:evenodd" xmlns:xlink="http://www.w3.org/1999/xlink">
<g><path style="opacity:0.899" fill="#040404" d="M 70.5,15.5 C 85.528,16.235 91.3613,23.9016 88,38.5C 112.218,57.9333 114.385,79.4333 94.5,103C 108.496,103.5 122.496,103.667 136.5,103.5C 135.015,113.927 133.015,124.26 130.5,134.5C 115.545,135.65 100.545,135.817 85.5,135C 84.5,134.667 83.5,134.333 82.5,134C 79.9579,131.289 77.2912,128.789 74.5,126.5C 71.7546,127.462 69.7546,129.295 68.5,132C 66.2827,133.275 63.9494,134.275 61.5,135C 47.5,135.667 33.5,135.667 19.5,135C 16.1658,124.82 13.8324,114.32 12.5,103.5C 26.504,103.667 40.504,103.5 54.5,103C 38.2254,86.7496 36.7254,69.2496 50,50.5C 53.3604,46.4729 57.0271,42.8062 61,39.5C 57.8454,28.8313 61.012,20.8313 70.5,15.5 Z"/></g>
<g><path style="opacity:1" fill="#f8f8f8" d="M 67.5,63.5 C 66.5139,67.97 66.1805,72.6367 66.5,77.5C 70.1667,77.5 73.8333,77.5 77.5,77.5C 77.5,72.5 77.5,67.5 77.5,62.5C 77.3732,56.6048 79.2066,51.6048 83,47.5C 94.5262,55.9141 98.8596,67.2475 96,81.5C 92.5082,87.8105 88.5082,93.8105 84,99.5C 79.7864,106.286 81.2864,111.286 88.5,114.5C 99.6544,115.495 110.988,115.828 122.5,115.5C 122.007,117.806 121.674,120.139 121.5,122.5C 109.674,123.66 97.6738,123.826 85.5,123C 81.9071,119.726 78.0737,116.893 74,114.5C 73.1667,114.667 72.3333,114.833 71.5,115C 68.823,118.009 65.823,120.676 62.5,123C 50.8381,123.5 39.1714,123.667 27.5,123.5C 27.7845,121.585 27.4511,119.919 26.5,118.5C 26.5,117.5 26.5,116.5 26.5,115.5C 38.0123,115.828 49.3456,115.495 60.5,114.5C 62.679,114.16 64.5123,113.16 66,111.5C 66.6667,108.5 66.6667,105.5 66,102.5C 61.9697,96.4792 57.9697,90.4792 54,84.5C 51.1369,74.226 52.4702,64.5593 58,55.5C 62,51.5 66,47.5 70,43.5C 70.5404,39.6487 70.3738,35.8153 69.5,32C 69.5864,27.2515 71.9197,25.5848 76.5,27C 77.9797,28.2991 78.6464,29.9658 78.5,32C 74.1278,42.2463 70.4611,52.7463 67.5,63.5 Z"/></g>
<g><path style="opacity:1" fill="#5f5f5f" d="M 77.5,62.5 C 77.5,67.5 77.5,72.5 77.5,77.5C 73.8333,77.5 70.1667,77.5 66.5,77.5C 66.1805,72.6367 66.5139,67.97 67.5,63.5C 67.5,67.8333 67.5,72.1667 67.5,76.5C 70.5,76.5 73.5,76.5 76.5,76.5C 76.1805,71.6367 76.5139,66.97 77.5,62.5 Z"/></g>
<g><path style="opacity:1" fill="#292929" d="M 60.5,114.5 C 49.3456,115.495 38.0123,115.828 26.5,115.5C 26.5,116.5 26.5,117.5 26.5,118.5C 25.5655,117.432 25.2322,116.099 25.5,114.5C 37.1667,114.5 48.8333,114.5 60.5,114.5 Z"/></g>
<g><path style="opacity:1" fill="#303030" d="M 88.5,114.5 C 100.167,114.5 111.833,114.5 123.5,114.5C 123.706,117.495 123.04,120.162 121.5,122.5C 121.674,120.139 122.007,117.806 122.5,115.5C 110.988,115.828 99.6544,115.495 88.5,114.5 Z"/></g>
</svg>
