<?xml version="1.0" encoding="UTF-8"?>
<!DOCTYPE svg PUBLIC "-//W3C//DTD SVG 1.1//EN" "http://www.w3.org/Graphics/SVG/1.1/DTD/svg11.dtd">
<svg xmlns="http://www.w3.org/2000/svg" version="1.1" width="150px" height="150px" style="shape-rendering:geometricPrecision; text-rendering:geometricPrecision; image-rendering:optimizeQuality; fill-rule:evenodd; clip-rule:evenodd" xmlns:xlink="http://www.w3.org/1999/xlink">
<g><path style="opacity:0.84" fill="#010101" d="M 70.5,14.5 C 78.7629,13.6126 83.7629,17.1126 85.5,25C 83.5367,35.7374 79.5367,45.5707 73.5,54.5C 67.6877,45.7408 64.021,36.0742 62.5,25.5C 62.875,20.1303 65.5417,16.4637 70.5,14.5 Z"/></g>
<g><path style="opacity:1" fill="#d9d9d9" d="M 71.5,23.5 C 73.1439,23.2865 74.6439,23.6198 76,24.5C 76.8819,29.1581 76.0486,33.4915 73.5,37.5C 70.5366,33.1211 69.8699,28.4545 71.5,23.5 Z"/></g>
<g><path style="opacity:0.912" fill="#040404" d="M 35.5,39.5 C 48.1852,37.926 58.3519,42.2593 66,52.5C 68.3333,56.1667 70.6667,59.8333 73,63.5C 77.0703,56.7598 81.9036,50.5931 87.5,45C 97.7678,38.4934 108.435,37.8267 119.5,43C 131.746,54.3864 133.579,67.2197 125,81.5C 119.276,88.4548 114.442,95.9548 110.5,104C 112.28,106.784 114.447,109.284 117,111.5C 120.328,119.115 121.161,126.948 119.5,135C 89.2615,135.828 59.0949,135.662 29,134.5C 28.2825,128.775 28.6159,123.109 30,117.5C 32.082,112.328 34.9154,107.662 38.5,103.5C 37.9456,101.39 37.1123,99.3904 36,97.5C 30.9393,92.3733 26.606,86.7066 23,80.5C 14.993,63.0262 19.1596,49.3595 35.5,39.5 Z"/></g>
<g><path style="opacity:1" fill="#545454" d="M 44.5,51.5 C 41.7628,51.4013 39.0961,51.7347 36.5,52.5C 37.4919,50.9735 38.9919,50.3068 41,50.5C 42.3847,50.5143 43.5514,50.8476 44.5,51.5 Z"/></g>
<g><path style="opacity:1" fill="#fafafa" d="M 44.5,51.5 C 51.409,52.8849 56.909,56.5516 61,62.5C 63.6722,68.4911 67.6722,73.1578 73,76.5C 75.151,76.3569 76.8176,75.3569 78,73.5C 80.6057,68.5648 83.6057,63.8981 87,59.5C 95.3751,50.4308 104.875,49.0975 115.5,55.5C 118.909,61.1743 119.409,67.1743 117,73.5C 112.385,80.4495 107.385,87.1162 102,93.5C 100.293,95.9088 99.4598,98.5755 99.5,101.5C 82.8227,100.236 66.1561,100.236 49.5,101.5C 49.5086,99.6916 49.0086,98.0249 48,96.5C 43,89.5 38,82.5 33,75.5C 30.6292,70.0609 29.9625,64.3942 31,58.5C 32.331,56.0038 34.1644,54.0038 36.5,52.5C 39.0961,51.7347 41.7628,51.4013 44.5,51.5 Z"/></g>
<g><path style="opacity:1" fill="#d0d0d0" d="M 92.5,112.5 C 78.1472,112.297 63.8138,112.63 49.5,113.5C 51.2922,112.691 53.2922,112.191 55.5,112C 68.0069,111.173 80.3403,111.34 92.5,112.5 Z"/></g>
<g><path style="opacity:1" fill="#fbfbfb" d="M 92.5,112.5 C 97.4478,113.094 102.114,114.594 106.5,117C 108.229,118.789 108.896,120.956 108.5,123.5C 85.8333,123.5 63.1667,123.5 40.5,123.5C 40.6753,117.657 43.6753,114.323 49.5,113.5C 63.8138,112.63 78.1472,112.297 92.5,112.5 Z"/></g>
</svg>
