<?xml version="1.0" encoding="UTF-8"?>
<!DOCTYPE svg PUBLIC "-//W3C//DTD SVG 1.1//EN" "http://www.w3.org/Graphics/SVG/1.1/DTD/svg11.dtd">
<svg xmlns="http://www.w3.org/2000/svg" version="1.1" width="150px" height="150px" style="shape-rendering:geometricPrecision; text-rendering:geometricPrecision; image-rendering:optimizeQuality; fill-rule:evenodd; clip-rule:evenodd" xmlns:xlink="http://www.w3.org/1999/xlink">
<g><path style="opacity:0.901" fill="#040404" d="M 59.5,17.5 C 60.675,17.281 61.675,17.6143 62.5,18.5C 66.6118,24.1147 71.2785,29.2813 76.5,34C 103.291,39.7936 117.291,56.2936 118.5,83.5C 118.461,90.3192 117.461,96.9859 115.5,103.5C 118.907,106.738 121.741,110.405 124,114.5C 125.288,121.437 125.788,128.437 125.5,135.5C 94.9264,135.829 64.4264,135.496 34,134.5C 32.3299,120.842 37.3299,110.509 49,103.5C 50.0704,100.758 51.5704,98.2583 53.5,96C 58.672,92.9148 63.672,89.5814 68.5,86C 71.0571,84.0766 73.0571,81.7432 74.5,79C 73.5761,77.85 73.5761,76.85 74.5,76C 73.5,75.3333 72.5,75.3333 71.5,76C 70.1667,78 68.8333,80 67.5,82C 62.0174,84.7181 56.3507,87.0515 50.5,89C 49.4367,92.7161 47.1034,95.3828 43.5,97C 28.5795,98.4099 22.0795,91.5766 24,76.5C 27.5519,69.6178 31.8852,63.2845 37,57.5C 39.5056,53.1194 41.1723,48.4527 42,43.5C 46.2998,40.2019 50.2998,36.5352 54,32.5C 54.8816,29.2105 55.5483,25.8772 56,22.5C 56.6972,20.4156 57.8639,18.7489 59.5,17.5 Z"/></g>
<g><path style="opacity:1" fill="#f8f8f8" d="M 104.5,99.5 C 92.4016,100.148 80.4016,100.814 68.5,101.5C 67.0222,101.762 65.6888,101.429 64.5,100.5C 68.2132,96.979 72.5465,94.479 77.5,93C 84.3491,87.7884 86.8491,80.955 85,72.5C 81.5268,66.3329 76.3602,63.8329 69.5,65C 65.7974,68.3675 62.464,72.0342 59.5,76C 51.8801,76.9757 45.5468,80.309 40.5,86C 39.2161,86.6838 38.0495,86.5171 37,85.5C 34.8791,81.0029 35.2125,76.6695 38,72.5C 44.4734,65.224 49.1401,56.8906 52,47.5C 57.0964,44.0745 61.0964,39.7412 64,34.5C 66.8487,37.016 69.3487,39.8493 71.5,43C 98.5022,49.1559 110.002,65.9892 106,93.5C 105.685,95.5856 105.185,97.5856 104.5,99.5 Z"/></g>
<g><path style="opacity:1" fill="#282828" d="M 104.5,99.5 C 92.8799,101.479 80.8799,102.146 68.5,101.5C 80.4016,100.814 92.4016,100.148 104.5,99.5 Z"/></g>
<g><path style="opacity:1" fill="#f8f8f8" d="M 60.5,111.5 C 74.5509,111.091 88.5509,111.591 102.5,113C 106.419,114.54 109.919,116.707 113,119.5C 113.49,120.793 113.657,122.127 113.5,123.5C 90.8333,123.5 68.1667,123.5 45.5,123.5C 45.2693,120.215 46.6026,117.715 49.5,116C 53.0531,113.879 56.7197,112.379 60.5,111.5 Z"/></g>
</svg>
