<?xml version="1.0" encoding="UTF-8"?>
<!DOCTYPE svg PUBLIC "-//W3C//DTD SVG 1.1//EN" "http://www.w3.org/Graphics/SVG/1.1/DTD/svg11.dtd">
<svg xmlns="http://www.w3.org/2000/svg" version="1.1" width="150px" height="150px" style="shape-rendering:geometricPrecision; text-rendering:geometricPrecision; image-rendering:optimizeQuality; fill-rule:evenodd; clip-rule:evenodd" xmlns:xlink="http://www.w3.org/1999/xlink">
<g><path style="opacity:0.879" fill="#030303" d="M 71.5,41.5 C 94.1399,46.2348 99.1399,58.4014 86.5,78C 88.628,81.1301 91.128,83.9634 94,86.5C 94.9347,91.533 95.9347,96.533 97,101.5C 108.533,109.783 113.7,120.95 112.5,135C 86.5944,135.828 60.7611,135.661 35,134.5C 34.6905,133.234 34.1905,132.067 33.5,131C 35.8186,123.543 38.8186,116.377 42.5,109.5C 45.7204,106.625 48.8871,103.625 52,100.5C 51.4705,91.891 54.4705,84.891 61,79.5C 61.6667,78.1667 61.6667,76.8333 61,75.5C 51.0133,59.8394 54.5133,48.506 71.5,41.5 Z"/></g>
<g><path style="opacity:1" fill="#f7f7f7" d="M 81.5,58.5 C 81.6323,61.5701 81.299,64.5701 80.5,67.5C 77.8753,71.8206 77.042,76.4873 78,81.5C 80.6667,84.8333 83.3333,88.1667 86,91.5C 86.3333,96.1667 86.6667,100.833 87,105.5C 92.3206,109.155 96.9873,113.488 101,118.5C 101.494,120.134 101.66,121.801 101.5,123.5C 83.1667,123.5 64.8333,123.5 46.5,123.5C 46.372,121.345 46.872,119.345 48,117.5C 52.033,113.132 56.3663,109.132 61,105.5C 61.3333,100.833 61.6667,96.1667 62,91.5C 65,87.8333 68,84.1667 71,80.5C 71.6667,78.1667 71.6667,75.8333 71,73.5C 67.2576,68.793 65.9242,63.4596 67,57.5C 70.6558,54.3298 74.8224,53.6631 79.5,55.5C 80.4252,56.3569 81.0919,57.3569 81.5,58.5 Z"/></g>
<g><path style="opacity:1" fill="#545454" d="M 81.5,58.5 C 82.6341,60.9664 82.8007,63.633 82,66.5C 81.6174,67.056 81.1174,67.3893 80.5,67.5C 81.299,64.5701 81.6323,61.5701 81.5,58.5 Z"/></g>
</svg>
