<?xml version="1.0" encoding="UTF-8"?>
<!DOCTYPE svg PUBLIC "-//W3C//DTD SVG 1.1//EN" "http://www.w3.org/Graphics/SVG/1.1/DTD/svg11.dtd">
<svg xmlns="http://www.w3.org/2000/svg" version="1.1" width="150px" height="150px" style="shape-rendering:geometricPrecision; text-rendering:geometricPrecision; image-rendering:optimizeQuality; fill-rule:evenodd; clip-rule:evenodd" xmlns:xlink="http://www.w3.org/1999/xlink">
<g><path style="opacity:0.896" fill="#040404" d="M 51.5,25.5 C 65.917,25.4004 70.7503,32.067 66,45.5C 65.1667,46.3333 64.3333,47.1667 63.5,48C 66.9971,54.4821 70.4971,60.9821 74,67.5C 78.0075,61.4884 81.5075,55.155 84.5,48.5C 77.9148,39.0604 79.5815,31.5604 89.5,26C 103.952,25.4443 108.785,31.9443 104,45.5C 102.316,47.3513 100.483,49.018 98.5,50.5C 99.6643,56.8173 100.831,63.1506 102,69.5C 105.5,66 109,62.5 112.5,59C 109.712,53.3352 110.712,48.3352 115.5,44C 123.784,40.3345 129.951,42.5011 134,50.5C 134.755,53.3033 134.422,55.9699 133,58.5C 129.942,61.8962 126.608,64.8962 123,67.5C 118.731,80.1409 114.564,92.8076 110.5,105.5C 118.685,113.737 121.685,123.571 119.5,135C 89.4579,135.825 59.4579,135.658 29.5,134.5C 28.9962,128.175 29.4962,121.842 31,115.5C 32.9229,111.742 35.4229,108.409 38.5,105.5C 34.2344,92.5363 30.0677,79.5363 26,66.5C 21.0703,64.5385 17.4037,61.2052 15,56.5C 15.7357,44.4429 21.9024,40.2763 33.5,44C 38.2878,48.3352 39.2878,53.3352 36.5,59C 39.3064,62.7423 42.473,66.2423 46,69.5C 47.7694,63.0432 49.2694,56.5432 50.5,50C 43.526,46.551 41.026,41.051 43,33.5C 45.0738,29.9231 47.9072,27.2565 51.5,25.5 Z"/></g>
<g><path style="opacity:1" fill="#ebebeb" d="M 53.5,34.5 C 59.4877,34.664 60.821,37.164 57.5,42C 51.4034,42.1475 50.0701,39.6475 53.5,34.5 Z"/></g>
<g><path style="opacity:1" fill="#e2e2e2" d="M 90.5,34.5 C 97.004,34.1377 98.6707,36.6377 95.5,42C 89.5933,42.7465 87.9267,40.2465 90.5,34.5 Z"/></g>
<g><path style="opacity:1" fill="#dbdbdb" d="M 24.5,50.5 C 30.5548,49.9421 31.8881,52.1088 28.5,57C 23.7915,57.082 22.4582,54.9154 24.5,50.5 Z"/></g>
<g><path style="opacity:1" fill="#e2e2e2" d="M 119.5,50.5 C 124.123,49.4082 125.956,51.0748 125,55.5C 119.42,57.7516 117.587,56.0849 119.5,50.5 Z"/></g>
<g><path style="opacity:1" fill="#f4f4f4" d="M 56.5,56.5 C 57.3764,56.3691 58.0431,56.7025 58.5,57.5C 63.8333,66.8333 69.1667,76.1667 74.5,85.5C 79.939,75.6104 85.6057,65.9438 91.5,56.5C 93.2234,66.5057 95.0567,76.5057 97,86.5C 101.667,81.8333 106.333,77.1667 111,72.5C 107.971,82.4263 104.804,92.4263 101.5,102.5C 100.833,102.833 100.167,103.167 99.5,103.5C 83.2385,99.9349 66.9052,99.6015 50.5,102.5C 49.5,102.167 48.5,101.833 47.5,101.5C 45.0051,92.3565 41.6718,83.5231 37.5,75C 37.6667,74.5 37.8333,74 38,73.5C 42.3482,78.0153 46.8482,82.3487 51.5,86.5C 53.6806,76.5954 55.3473,66.5954 56.5,56.5 Z"/></g>
<g><path style="opacity:1" fill="#f8f8f8" d="M 55.5,111.5 C 67.5046,111.333 79.5046,111.5 91.5,112C 97.519,113.178 102.852,115.678 107.5,119.5C 108.246,120.736 108.579,122.07 108.5,123.5C 86.1667,123.5 63.8333,123.5 41.5,123.5C 41.1043,120.956 41.771,118.789 43.5,117C 47.284,114.471 51.284,112.638 55.5,111.5 Z"/></g>
</svg>
