<?xml version="1.0" encoding="UTF-8"?>
<!DOCTYPE svg PUBLIC "-//W3C//DTD SVG 1.1//EN" "http://www.w3.org/Graphics/SVG/1.1/DTD/svg11.dtd">
<svg xmlns="http://www.w3.org/2000/svg" version="1.1" width="150px" height="150px" style="shape-rendering:geometricPrecision; text-rendering:geometricPrecision; image-rendering:optimizeQuality; fill-rule:evenodd; clip-rule:evenodd" xmlns:xlink="http://www.w3.org/1999/xlink">
<g><path style="opacity:0.912" fill="#040404" d="M 69.5,27.5 C 74.2332,27.2232 78.8999,27.5565 83.5,28.5C 85.2702,31.1934 85.9368,34.1934 85.5,37.5C 90.3422,38.3383 93.0088,36.3383 93.5,31.5C 99.2266,31.1706 104.893,32.0039 110.5,34C 114.234,46.9274 112.234,58.9274 104.5,70C 106.145,80.8037 107.645,91.637 109,102.5C 116.636,111.679 119.969,122.345 119,134.5C 89.5719,135.662 60.0719,135.828 30.5,135C 29.6959,126.966 30.8625,119.132 34,111.5C 35.6255,108.872 37.6255,106.539 40,104.5C 41.4272,93.3214 42.9272,82.1548 44.5,71C 41.3496,65.8611 38.8496,60.3611 37,54.5C 36.2522,48.4681 36.4189,42.4681 37.5,36.5C 37.8178,35.3527 38.4844,34.5194 39.5,34C 44.2858,32.4631 49.1191,31.2964 54,30.5C 56.0569,31.9784 57.3902,33.9784 58,36.5C 59.8138,37.7596 61.6471,37.7596 63.5,36.5C 64.1667,34.1667 64.8333,31.8333 65.5,29.5C 66.9492,28.8281 68.2825,28.1614 69.5,27.5 Z"/></g>
<g><path style="opacity:1" fill="#f3f3f3" d="M 55.5,48.5 C 56.8714,49.7868 58.7047,50.4535 61,50.5C 63.2953,50.4535 65.1286,49.7868 66.5,48.5C 68.2443,40.4983 72.911,38.3316 80.5,42C 82.2024,44.2354 83.2024,46.7354 83.5,49.5C 86.8333,49.5 90.1667,49.5 93.5,49.5C 93.42,43.8689 95.92,41.8689 101,43.5C 102.527,50.4402 101.027,56.6069 96.5,62C 90.0716,61.3959 83.5716,60.8959 77,60.5C 70.5952,60.5146 64.2619,61.1812 58,62.5C 55.019,62.9185 52.6856,61.9185 51,59.5C 47.8323,54.3186 46.999,48.8186 48.5,43C 52.9434,42.0027 55.2767,43.8361 55.5,48.5 Z"/></g>
<g><path style="opacity:1" fill="#a2a2a2" d="M 55.5,48.5 C 59.1667,49.8333 62.8333,49.8333 66.5,48.5C 65.1286,49.7868 63.2953,50.4535 61,50.5C 58.7047,50.4535 56.8714,49.7868 55.5,48.5 Z"/></g>
<g><path style="opacity:1" fill="#fafafa" d="M 95.5,88.5 C 95.5045,92.5341 95.8379,96.5341 96.5,100.5C 95.1667,100.5 93.8333,100.5 92.5,100.5C 80.144,100.296 67.8106,100.63 55.5,101.5C 53.8212,101.715 52.8212,101.048 52.5,99.5C 52.5,99.1667 52.5,98.8333 52.5,98.5C 53.9573,93.402 54.624,88.0687 54.5,82.5C 54.3367,80.1432 54.5034,77.8098 55,75.5C 55.5,73.6667 56.6667,72.5 58.5,72C 68.1667,71.3333 77.8333,71.3333 87.5,72C 89.556,72.3108 91.556,72.8108 93.5,73.5C 95.042,78.3771 95.7087,83.3771 95.5,88.5 Z"/></g>
<g><path style="opacity:1" fill="#a2a2a2" d="M 54.5,82.5 C 54.624,88.0687 53.9573,93.402 52.5,98.5C 52.376,92.9313 53.0427,87.598 54.5,82.5 Z"/></g>
<g><path style="opacity:1" fill="#aaaaaa" d="M 95.5,88.5 C 97.3033,92.9647 97.6366,97.6314 96.5,102.5C 94.9745,102.006 93.6412,101.339 92.5,100.5C 93.8333,100.5 95.1667,100.5 96.5,100.5C 95.8379,96.5341 95.5045,92.5341 95.5,88.5 Z"/></g>
<g><path style="opacity:1" fill="#7e7e7e" d="M 52.5,99.5 C 52.8212,101.048 53.8212,101.715 55.5,101.5C 54.4324,102.434 53.099,102.768 51.5,102.5C 51.2627,101.209 51.596,100.209 52.5,99.5 Z"/></g>
<g><path style="opacity:1" fill="#f9f9f9" d="M 55.5,111.5 C 67.5046,111.333 79.5046,111.5 91.5,112C 96.9553,113.369 101.789,115.869 106,119.5C 106.49,120.793 106.657,122.127 106.5,123.5C 85.1667,123.5 63.8333,123.5 42.5,123.5C 41.9586,120.348 42.9586,117.848 45.5,116C 48.8153,114.17 52.1486,112.67 55.5,111.5 Z"/></g>
</svg>
