<?xml version="1.0" encoding="UTF-8"?>
<!DOCTYPE svg PUBLIC "-//W3C//DTD SVG 1.1//EN" "http://www.w3.org/Graphics/SVG/1.1/DTD/svg11.dtd">
<svg xmlns="http://www.w3.org/2000/svg" version="1.1" width="300px" height="300px" style="shape-rendering:geometricPrecision; text-rendering:geometricPrecision; image-rendering:optimizeQuality; fill-rule:evenodd; clip-rule:evenodd" xmlns:xlink="http://www.w3.org/1999/xlink">
<g><path style="opacity:1" fill="#262626" d="M 143.5,24.5 C 161.31,25.476 170.477,34.8094 171,52.5C 163.367,59.8153 157.7,68.4819 154,78.5C 145.188,101.559 140.355,125.393 139.5,150C 144.645,151.446 149.979,151.946 155.5,151.5C 155.165,129.842 158.665,108.842 166,88.5C 168.579,83.0082 171.412,77.6748 174.5,72.5C 175.365,71.4173 176.365,71.2506 177.5,72C 192.794,86.619 204.961,103.452 214,122.5C 223.441,149.988 221.441,176.655 208,202.5C 204.882,207.286 201.382,211.786 197.5,216C 210.246,216.794 221.079,221.628 230,230.5C 232.66,234.814 234.327,239.481 235,244.5C 235.5,253.494 235.666,262.494 235.5,271.5C 176.5,271.5 117.5,271.5 58.5,271.5C 58.3526,261.8 58.8526,252.134 60,242.5C 62.5349,231.627 69.0349,224.127 79.5,220C 85.1373,218.539 90.804,217.206 96.5,216C 74.891,188.521 69.391,158.021 80,124.5C 90.1713,100.982 105.005,80.8156 124.5,64C 117.619,50.5209 119.952,38.8543 131.5,29C 135.432,26.9716 139.432,25.4716 143.5,24.5 Z"/></g>
<g><path style="opacity:1" fill="#737070" d="M 143.5,32.5 C 143.938,32.4346 144.272,32.6012 144.5,33C 137.082,37.6473 131.916,44.1473 129,52.5C 128.617,51.944 128.117,51.6107 127.5,51.5C 127.769,40.8976 133.103,34.5642 143.5,32.5 Z"/></g>
<g><path style="opacity:1" fill="#555251" d="M 143.5,32.5 C 144.946,31.3871 146.613,31.2204 148.5,32C 151.281,32.5218 153.615,33.6885 155.5,35.5C 156.823,41.6016 156.323,47.6016 154,53.5C 145.937,69.9582 137.604,86.2916 129,102.5C 121.49,120.653 121.824,138.653 130,156.5C 130.671,157.252 131.504,157.586 132.5,157.5C 142.319,158.494 152.319,158.827 162.5,158.5C 161.796,135.928 164.963,113.928 172,92.5C 173.667,89.1667 175.333,85.8333 177,82.5C 184.506,88.8281 190.673,96.1615 195.5,104.5C 211.905,154.007 197.238,190.673 151.5,214.5C 136.157,214.689 120.823,214.856 105.5,215C 95.3505,204.675 88.3505,192.508 84.5,178.5C 88.2503,145.75 99.417,115.75 118,88.5C 124.5,80.6667 131.667,73.5 139.5,67C 137.975,65.9914 136.308,65.4914 134.5,65.5C 133.262,63.3807 131.762,61.3807 130,59.5C 128.659,56.978 127.826,54.3113 127.5,51.5C 128.117,51.6107 128.617,51.944 129,52.5C 131.916,44.1473 137.082,37.6473 144.5,33C 144.272,32.6012 143.938,32.4346 143.5,32.5 Z"/></g>
<g><path style="opacity:1" fill="#454242" d="M 155.5,35.5 C 159.851,38.0401 162.518,41.8735 163.5,47C 146.381,71.3419 136.548,98.5086 134,128.5C 133.146,137.872 132.646,147.539 132.5,157.5C 131.504,157.586 130.671,157.252 130,156.5C 121.824,138.653 121.49,120.653 129,102.5C 137.604,86.2916 145.937,69.9582 154,53.5C 156.323,47.6016 156.823,41.6016 155.5,35.5 Z"/></g>
<g><path style="opacity:1" fill="#757272" d="M 134.5,65.5 C 136.308,65.4914 137.975,65.9914 139.5,67C 131.667,73.5 124.5,80.6667 118,88.5C 99.417,115.75 88.2503,145.75 84.5,178.5C 79.4137,158.625 80.9137,139.292 89,120.5C 100.348,98.9877 115.514,80.6543 134.5,65.5 Z"/></g>
<g><path style="opacity:1" fill="#454242" d="M 195.5,104.5 C 213.732,129.994 217.565,157.661 207,187.5C 202.822,198.01 196.655,207.177 188.5,215C 176.459,214.839 164.126,214.673 151.5,214.5C 197.238,190.673 211.905,154.007 195.5,104.5 Z"/></g>
<g><path style="opacity:1" fill="#757272" d="M 225.5,238.5 C 219.049,235.92 212.549,234.586 206,234.5C 198.639,233.304 190.972,232.304 183,231.5C 159,231.5 135,231.5 111,231.5C 103.379,232.453 96.0456,233.453 89,234.5C 88.6667,234.167 88.3333,233.833 88,233.5C 86,234.167 84,234.833 82,235.5C 81.6667,235.167 81.3333,234.833 81,234.5C 77.2213,235.528 73.5546,236.861 70,238.5C 69.6012,238.272 69.4346,237.938 69.5,237.5C 73.5156,230.645 79.5156,226.478 87.5,225C 107.219,222.111 127.053,220.945 147,221.5C 167.275,220.955 187.442,222.122 207.5,225C 212.122,226.427 216.455,228.427 220.5,231C 222.808,233.128 224.474,235.628 225.5,238.5 Z"/></g>
<g><path style="opacity:1" fill="#555251" d="M 225.5,238.5 C 226.887,240.877 227.721,243.543 228,246.5C 228.499,252.491 228.666,258.491 228.5,264.5C 174.166,264.667 119.832,264.5 65.5,264C 65.7379,258.256 66.2379,251.756 67,244.5C 67.3903,241.896 68.2237,239.562 69.5,237.5C 69.4346,237.938 69.6012,238.272 70,238.5C 73.5546,236.861 77.2213,235.528 81,234.5C 81.3333,234.833 81.6667,235.167 82,235.5C 84,234.833 86,234.167 88,233.5C 88.3333,233.833 88.6667,234.167 89,234.5C 96.0456,233.453 103.379,232.453 111,231.5C 135,231.5 159,231.5 183,231.5C 190.972,232.304 198.639,233.304 206,234.5C 212.549,234.586 219.049,235.92 225.5,238.5 Z"/></g>
</svg>
