<?xml version="1.0" encoding="UTF-8"?>
<!DOCTYPE svg PUBLIC "-//W3C//DTD SVG 1.1//EN" "http://www.w3.org/Graphics/SVG/1.1/DTD/svg11.dtd">
<svg xmlns="http://www.w3.org/2000/svg" version="1.1" width="300px" height="300px" style="shape-rendering:geometricPrecision; text-rendering:geometricPrecision; image-rendering:optimizeQuality; fill-rule:evenodd; clip-rule:evenodd" xmlns:xlink="http://www.w3.org/1999/xlink">
<g><path style="opacity:0.987" fill="#262626" d="M 131.5,22.5 C 143.833,22.5 156.167,22.5 168.5,22.5C 168.5,29.1667 168.5,35.8333 168.5,42.5C 175.167,42.5 181.833,42.5 188.5,42.5C 188.5,55.1667 188.5,67.8333 188.5,80.5C 182.491,80.3338 176.491,80.5005 170.5,81C 171.561,84.124 172.561,87.2907 173.5,90.5C 196.989,80.3888 219.989,81.2221 242.5,93C 262.109,108.48 269.942,128.646 266,153.5C 262.681,167.145 256.014,178.812 246,188.5C 235.391,198.104 225.891,208.604 217.5,220C 230.21,224.241 237.044,233.075 238,246.5C 238.5,254.827 238.666,263.16 238.5,271.5C 179.5,271.5 120.5,271.5 61.5,271.5C 60.9489,260.047 61.7822,248.713 64,237.5C 67.3733,228.627 73.54,222.627 82.5,219.5C 71.5541,206.385 60.0541,193.718 48,181.5C 33.6412,164.041 29.6412,144.374 36,122.5C 45.5062,97.2323 63.8396,84.2323 91,83.5C 103.435,83.7937 115.435,86.127 127,90.5C 127.711,87.266 128.545,84.0994 129.5,81C 123.509,80.5005 117.509,80.3338 111.5,80.5C 111.5,67.8333 111.5,55.1667 111.5,42.5C 118.167,42.5 124.833,42.5 131.5,42.5C 131.5,35.8333 131.5,29.1667 131.5,22.5 Z M 101.5,133.5 C 108.874,133.847 115.54,136.18 121.5,140.5C 122.499,153.149 122.832,165.816 122.5,178.5C 120.143,178.663 117.81,178.497 115.5,178C 106.962,169.131 98.7956,159.964 91,150.5C 88.1166,140.884 91.6166,135.218 101.5,133.5 Z M 194.5,133.5 C 211.064,135.292 214.564,142.959 205,156.5C 198.5,163.5 192,170.5 185.5,177.5C 182.914,178.48 180.247,178.813 177.5,178.5C 177.168,165.816 177.501,153.149 178.5,140.5C 183.45,137.019 188.783,134.685 194.5,133.5 Z"/></g>
<g><path style="opacity:1" fill="#858382" d="M 161.5,30.5 C 160.5,31.1667 159.5,31.8333 158.5,32.5C 152.833,32.5 147.167,32.5 141.5,32.5C 141.5,39.1667 141.5,45.8333 141.5,52.5C 134.833,52.5 128.167,52.5 121.5,52.5C 121.5,58.1667 121.5,63.8333 121.5,69.5C 120.833,70.5 120.167,71.5 119.5,72.5C 118.508,65.0182 118.175,57.3516 118.5,49.5C 125.167,49.5 131.833,49.5 138.5,49.5C 138.5,42.8333 138.5,36.1667 138.5,29.5C 146.352,29.1746 154.018,29.508 161.5,30.5 Z"/></g>
<g><path style="opacity:1" fill="#555251" d="M 161.5,30.5 C 161.5,36.8333 161.5,43.1667 161.5,49.5C 160.733,50.172 160.066,51.0053 159.5,52C 166.826,52.4997 174.159,52.6663 181.5,52.5C 181.5,59.1667 181.5,65.8333 181.5,72.5C 174.8,72.17 168.134,72.5033 161.5,73.5C 163.708,82.5415 166.041,91.5415 168.5,100.5C 187.761,91.0076 207.761,88.841 228.5,94C 236.468,96.8145 242.801,101.648 247.5,108.5C 251.938,120.8 253.438,133.467 252,146.5C 250.617,153.929 247.617,160.596 243,166.5C 226.833,182.667 210.667,198.833 194.5,215C 193.552,215.483 192.552,215.649 191.5,215.5C 177.84,215.026 164.173,214.692 150.5,214.5C 130.116,214.712 109.783,215.545 89.5,217C 79.4824,202.975 67.9824,190.141 55,178.5C 51.9113,174.646 49.078,170.646 46.5,166.5C 47.5176,163.623 47.3509,160.623 46,157.5C 42.2773,131.118 51.7773,111.284 74.5,98C 82.9871,94.5448 91.6538,92.3781 100.5,91.5C 111.422,93.2306 122.089,95.8973 132.5,99.5C 134.184,90.7651 136.184,82.0984 138.5,73.5C 132.202,72.5037 125.868,72.1703 119.5,72.5C 120.167,71.5 120.833,70.5 121.5,69.5C 122.488,64.3595 122.821,59.0262 122.5,53.5C 129.022,53.8235 135.355,53.4902 141.5,52.5C 142.49,46.3554 142.823,40.0221 142.5,33.5C 148.026,33.8214 153.36,33.4881 158.5,32.5C 159.5,31.8333 160.5,31.1667 161.5,30.5 Z M 101.5,133.5 C 91.6166,135.218 88.1166,140.884 91,150.5C 98.7956,159.964 106.962,169.131 115.5,178C 117.81,178.497 120.143,178.663 122.5,178.5C 122.832,165.816 122.499,153.149 121.5,140.5C 115.54,136.18 108.874,133.847 101.5,133.5 Z M 194.5,133.5 C 188.783,134.685 183.45,137.019 178.5,140.5C 177.501,153.149 177.168,165.816 177.5,178.5C 180.247,178.813 182.914,178.48 185.5,177.5C 192,170.5 198.5,163.5 205,156.5C 214.564,142.959 211.064,135.292 194.5,133.5 Z"/></g>
<g><path style="opacity:1" fill="#6b6868" d="M 158.5,32.5 C 153.36,33.4881 148.026,33.8214 142.5,33.5C 142.823,40.0221 142.49,46.3554 141.5,52.5C 141.5,45.8333 141.5,39.1667 141.5,32.5C 147.167,32.5 152.833,32.5 158.5,32.5 Z"/></g>
<g><path style="opacity:1" fill="#848281" d="M 161.5,49.5 C 168.167,49.5 174.833,49.5 181.5,49.5C 181.5,50.5 181.5,51.5 181.5,52.5C 174.159,52.6663 166.826,52.4997 159.5,52C 160.066,51.0053 160.733,50.172 161.5,49.5 Z"/></g>
<g><path style="opacity:1" fill="#6c6968" d="M 141.5,52.5 C 135.355,53.4902 129.022,53.8235 122.5,53.5C 122.821,59.0262 122.488,64.3595 121.5,69.5C 121.5,63.8333 121.5,58.1667 121.5,52.5C 128.167,52.5 134.833,52.5 141.5,52.5 Z"/></g>
<g><path style="opacity:1" fill="#737070" d="M 100.5,91.5 C 91.6538,92.3781 82.9871,94.5448 74.5,98C 51.7773,111.284 42.2773,131.118 46,157.5C 47.3509,160.623 47.5176,163.623 46.5,166.5C 34.8133,140.762 39.48,118.595 60.5,100C 72.7044,91.9099 86.0377,89.0766 100.5,91.5 Z"/></g>
<g><path style="opacity:1" fill="#444141" d="M 247.5,108.5 C 253.99,115.487 257.823,123.821 259,133.5C 261.361,150.746 256.695,165.746 245,178.5C 232.018,190.141 220.518,202.975 210.5,217C 203.987,217.207 197.654,216.707 191.5,215.5C 192.552,215.649 193.552,215.483 194.5,215C 210.667,198.833 226.833,182.667 243,166.5C 247.617,160.596 250.617,153.929 252,146.5C 253.438,133.467 251.938,120.8 247.5,108.5 Z"/></g>
<g><path style="opacity:0.963" fill="#262626" d="M 99.5,126.5 C 111.007,126.223 121.007,129.889 129.5,137.5C 130.499,153.152 130.833,168.819 130.5,184.5C 124.203,185.539 117.87,185.706 111.5,185C 102.077,175.301 93.2432,165.134 85,154.5C 79.5236,139.785 84.357,130.452 99.5,126.5 Z M 101.5,133.5 C 91.6166,135.218 88.1166,140.884 91,150.5C 98.7956,159.964 106.962,169.131 115.5,178C 117.81,178.497 120.143,178.663 122.5,178.5C 122.832,165.816 122.499,153.149 121.5,140.5C 115.54,136.18 108.874,133.847 101.5,133.5 Z"/></g>
<g><path style="opacity:0.994" fill="#262626" d="M 173.5,185.5 C 172.791,184.596 171.791,184.263 170.5,184.5C 170.5,168.833 170.5,153.167 170.5,137.5C 174.463,134.18 178.796,131.346 183.5,129C 194.017,124.877 203.85,126.044 213,132.5C 219.254,141.669 218.92,150.669 212,159.5C 204.167,168 196.333,176.5 188.5,185C 183.511,185.499 178.511,185.666 173.5,185.5 Z M 194.5,133.5 C 188.783,134.685 183.45,137.019 178.5,140.5C 177.501,153.149 177.168,165.816 177.5,178.5C 180.247,178.813 182.914,178.48 185.5,177.5C 192,170.5 198.5,163.5 205,156.5C 214.564,142.959 211.064,135.292 194.5,133.5 Z"/></g>
<g><path style="opacity:1" fill="#444141" d="M 170.5,137.5 C 170.5,153.167 170.5,168.833 170.5,184.5C 171.791,184.263 172.791,184.596 173.5,185.5C 172.167,185.5 170.833,185.5 169.5,185.5C 169.17,169.325 169.504,153.325 170.5,137.5 Z"/></g>
<g><path style="opacity:1" fill="#767373" d="M 227.5,236.5 C 227.083,237.124 226.416,237.457 225.5,237.5C 210.841,234.269 196.341,232.269 182,231.5C 160.667,231.5 139.333,231.5 118,231.5C 102.278,232.223 86.7777,234.557 71.5,238.5C 74.8217,232.347 79.8217,228.18 86.5,226C 106.294,222.127 126.294,220.627 146.5,221.5C 166.939,220.97 187.272,222.137 207.5,225C 216.074,225.786 222.741,229.619 227.5,236.5 Z"/></g>
<g><path style="opacity:1" fill="#555251" d="M 227.5,236.5 C 229.335,239.842 230.502,243.509 231,247.5C 231.499,253.157 231.666,258.824 231.5,264.5C 177.167,264.5 122.833,264.5 68.5,264.5C 68.0015,255.602 69.0015,246.935 71.5,238.5C 86.7777,234.557 102.278,232.223 118,231.5C 139.333,231.5 160.667,231.5 182,231.5C 196.341,232.269 210.841,234.269 225.5,237.5C 226.416,237.457 227.083,237.124 227.5,236.5 Z"/></g>
</svg>
