<?xml version="1.0" encoding="UTF-8"?>
<!DOCTYPE svg PUBLIC "-//W3C//DTD SVG 1.1//EN" "http://www.w3.org/Graphics/SVG/1.1/DTD/svg11.dtd">
<svg xmlns="http://www.w3.org/2000/svg" version="1.1" width="300px" height="300px" style="shape-rendering:geometricPrecision; text-rendering:geometricPrecision; image-rendering:optimizeQuality; fill-rule:evenodd; clip-rule:evenodd" xmlns:xlink="http://www.w3.org/1999/xlink">
<g><path style="opacity:0.987" fill="#262626" d="M 116.5,30.5 C 118.857,30.3367 121.19,30.5034 123.5,31C 130.5,38 137.5,45 144.5,52C 198.864,60.3649 229.697,91.8649 237,146.5C 237.844,157.211 237.511,167.878 236,178.5C 233.281,192.376 229.781,206.043 225.5,219.5C 237.291,223.789 244.124,232.122 246,244.5C 246.5,253.494 246.666,262.494 246.5,271.5C 187.5,271.5 128.5,271.5 69.5,271.5C 68.698,258.511 70.198,245.844 74,233.5C 78.2572,226.574 84.2572,221.908 92,219.5C 95.1633,208.839 100.163,199.172 107,190.5C 117.243,179.566 128.243,169.566 140,160.5C 145.624,154.959 147.624,148.292 146,140.5C 134.717,154.225 120.217,161.725 102.5,163C 98.7265,166.718 95.5599,170.884 93,175.5C 91.4571,177.378 89.6238,178.878 87.5,180C 74.903,180.691 63.2363,177.691 52.5,171C 43.9803,163.737 41.8136,154.903 46,144.5C 54.9127,132.342 63.5794,120.008 72,107.5C 76.3333,96.5 80.6667,85.5 85,74.5C 89.6667,68.5 95,63.1667 101,58.5C 103.795,51.651 106.129,44.651 108,37.5C 110.217,34.3227 113.05,31.9893 116.5,30.5 Z"/></g>
<g><path style="opacity:1" fill="#757272" d="M 121.5,39.5 C 122.963,47.2187 122.796,54.8854 121,62.5C 113.767,67.7976 107.101,73.7976 101,80.5C 95.4402,89.8398 91.4402,99.8398 89,110.5C 77.0143,126.312 64.5143,141.646 51.5,156.5C 51.0889,152.537 51.9222,148.87 54,145.5C 62.7231,133.776 71.0565,121.776 79,109.5C 82.807,99.0769 86.807,88.7436 91,78.5C 96.2792,73.2208 101.613,67.8874 107,62.5C 110.083,55.7536 112.416,48.7536 114,41.5C 115.389,39.7727 117.056,38.4394 119,37.5C 120.011,38.0556 120.844,38.7222 121.5,39.5 Z"/></g>
<g><path style="opacity:1" fill="#555251" d="M 121.5,39.5 C 128.298,45.7973 134.965,52.2973 141.5,59C 144.544,59.3629 147.544,59.8629 150.5,60.5C 199.673,76.8679 217.839,109.868 205,159.5C 198.286,174.201 189.953,187.867 180,200.5C 177.546,205.073 175.379,209.739 173.5,214.5C 160.163,214.333 146.829,214.5 133.5,215C 122.514,215.215 111.68,216.382 101,218.5C 101.48,213.514 103.146,208.848 106,204.5C 108.333,201.167 110.667,197.833 113,194.5C 123.701,184.131 134.701,174.131 146,164.5C 150.257,159.571 153.091,153.905 154.5,147.5C 159.991,135.226 161.991,122.56 160.5,109.5C 159.325,109.281 158.325,109.614 157.5,110.5C 154.324,116.862 150.658,122.862 146.5,128.5C 138.421,140.199 127.754,148.533 114.5,153.5C 110.732,150.775 106.732,148.275 102.5,146C 100.5,145.333 98.5,145.333 96.5,146C 92.2211,155.392 87.5544,164.558 82.5,173.5C 71.2089,172.907 61.3756,168.907 53,161.5C 51.9914,159.975 51.4914,158.308 51.5,156.5C 64.5143,141.646 77.0143,126.312 89,110.5C 91.4402,99.8398 95.4402,89.8398 101,80.5C 107.101,73.7976 113.767,67.7976 121,62.5C 122.796,54.8854 122.963,47.2187 121.5,39.5 Z"/></g>
<g><path style="opacity:1" fill="#444241" d="M 150.5,60.5 C 189.006,67.8409 214.172,90.1742 226,127.5C 230.894,145.36 231.561,163.36 228,181.5C 225.299,193.304 222.133,204.97 218.5,216.5C 217.5,216.833 216.5,217.167 215.5,217.5C 201.565,215.582 187.565,214.582 173.5,214.5C 175.379,209.739 177.546,205.073 180,200.5C 189.953,187.867 198.286,174.201 205,159.5C 217.839,109.868 199.673,76.8679 150.5,60.5 Z"/></g>
<g><path style="opacity:1" fill="#262626" d="M 118.5,82.5 C 126.523,82.683 130.023,86.683 129,94.5C 126.57,97.2145 123.57,98.8812 120,99.5C 115.347,97.8741 111.013,98.5408 107,101.5C 107.783,93.259 111.616,86.9257 118.5,82.5 Z"/></g>
<g><path style="opacity:1" fill="#444241" d="M 154.5,147.5 C 154.605,143.313 153.772,139.313 152,135.5C 151.009,132.36 149.176,130.026 146.5,128.5C 150.658,122.862 154.324,116.862 157.5,110.5C 158.325,109.614 159.325,109.281 160.5,109.5C 161.991,122.56 159.991,135.226 154.5,147.5 Z"/></g>
<g><path style="opacity:1" fill="#444241" d="M 114.5,153.5 C 105.982,152.747 98.8154,155.414 93,161.5C 90.6159,166.688 87.1159,170.688 82.5,173.5C 87.5544,164.558 92.2211,155.392 96.5,146C 98.5,145.333 100.5,145.333 102.5,146C 106.732,148.275 110.732,150.775 114.5,153.5 Z"/></g>
<g><path style="opacity:1" fill="#757272" d="M 236.5,238.5 C 232.327,236.873 227.994,235.706 223.5,235C 212.648,233.481 201.815,232.314 191,231.5C 169.333,231.5 147.667,231.5 126,231.5C 115.535,232.497 105.035,233.664 94.5,235C 90.035,235.699 85.7016,236.866 81.5,238.5C 80.8933,238.376 80.56,238.043 80.5,237.5C 83.4715,231.703 88.1382,227.87 94.5,226C 115.816,222.107 137.316,220.607 159,221.5C 177.23,221.179 195.397,222.012 213.5,224C 221.947,224.974 229.114,228.474 235,234.5C 235.791,235.745 236.291,237.078 236.5,238.5 Z"/></g>
<g><path style="opacity:1" fill="#555251" d="M 236.5,238.5 C 237.776,240.562 238.61,242.896 239,245.5C 239.5,251.825 239.666,258.158 239.5,264.5C 185.5,264.5 131.5,264.5 77.5,264.5C 76.9559,257.969 77.1225,251.303 78,244.5C 78.3903,241.896 79.2237,239.562 80.5,237.5C 80.56,238.043 80.8933,238.376 81.5,238.5C 85.7016,236.866 90.035,235.699 94.5,235C 105.035,233.664 115.535,232.497 126,231.5C 147.667,231.5 169.333,231.5 191,231.5C 201.815,232.314 212.648,233.481 223.5,235C 227.994,235.706 232.327,236.873 236.5,238.5 Z"/></g>
</svg>
