<?xml version="1.0" encoding="UTF-8"?>
<!DOCTYPE svg PUBLIC "-//W3C//DTD SVG 1.1//EN" "http://www.w3.org/Graphics/SVG/1.1/DTD/svg11.dtd">
<svg xmlns="http://www.w3.org/2000/svg" version="1.1" width="300px" height="300px" style="shape-rendering:geometricPrecision; text-rendering:geometricPrecision; image-rendering:optimizeQuality; fill-rule:evenodd; clip-rule:evenodd" xmlns:xlink="http://www.w3.org/1999/xlink">
<g><path style="opacity:1" fill="#262626" d="M 108.5,31.5 C 131.152,29.6605 142.985,39.9939 144,62.5C 142.568,68.6929 140.068,74.3596 136.5,79.5C 140.702,92.9391 145.202,106.272 150,119.5C 155.317,106.386 160.15,93.0522 164.5,79.5C 152.817,63.8106 154.151,49.3106 168.5,36C 182.765,28.5007 195.598,30.334 207,41.5C 214.595,53.7494 214.262,65.7494 206,77.5C 203.512,79.7433 200.846,81.7433 198,83.5C 198.085,100.982 199.085,118.316 201,135.5C 206.468,129.031 212.301,122.864 218.5,117C 212.218,99.2278 217.885,86.8945 235.5,80C 255.335,77.5813 266.668,86.248 269.5,106C 268.295,119.266 261.462,128.099 249,132.5C 237.069,160.793 225.236,189.126 213.5,217.5C 221.013,220.183 227.513,224.516 233,230.5C 235.66,234.814 237.327,239.481 238,244.5C 238.5,253.494 238.666,262.494 238.5,271.5C 179.5,271.5 120.5,271.5 61.5,271.5C 61.7562,262.157 62.2562,252.824 63,243.5C 64.2873,235.536 68.1206,229.036 74.5,224C 78.9863,221.909 83.3196,219.742 87.5,217.5C 75.6667,189.167 63.8333,160.833 52,132.5C 33.6986,124.562 28.0319,111.228 35,92.5C 43.2926,80.513 54.4592,76.6797 68.5,81C 83.5195,89.1956 88.3528,101.362 83,117.5C 88.3009,123.802 93.9675,129.802 100,135.5C 101.372,118.846 102.539,102.179 103.5,85.5C 87.6092,74.138 84.1092,59.8046 93,42.5C 97.1272,37.202 102.294,33.5354 108.5,31.5 Z"/></g>
<g><path style="opacity:1" fill="#747171" d="M 118.5,38.5 C 112.739,40.7377 107.906,44.4044 104,49.5C 100.784,55.3443 98.2841,61.3443 96.5,67.5C 92.5635,49.118 99.8968,39.4513 118.5,38.5 Z"/></g>
<g><path style="opacity:1" fill="#555251" d="M 118.5,38.5 C 121.079,38.3939 123.412,39.0605 125.5,40.5C 126.167,40.8333 126.833,41.1667 127.5,41.5C 129.552,45.7955 129.719,50.1288 128,54.5C 125.268,58.2406 122.934,62.2406 121,66.5C 120.333,69.8333 120.333,73.1667 121,76.5C 128.565,93.7291 136.399,110.729 144.5,127.5C 146.404,132.028 148.237,136.694 150,141.5C 157.922,119.905 165.755,98.2381 173.5,76.5C 169.033,73.5513 166.033,69.5513 164.5,64.5C 167.221,59.2272 170.054,53.8939 173,48.5C 176.802,44.0366 181.302,40.7033 186.5,38.5C 189.341,38.5597 192.007,39.2264 194.5,40.5C 195.167,40.8333 195.833,41.1667 196.5,41.5C 198.552,45.7955 198.719,50.1288 197,54.5C 192.504,60.1559 188.504,66.1559 185,72.5C 186.364,94.7385 188.864,116.738 192.5,138.5C 192.999,143.492 193.499,148.492 194,153.5C 205.167,141.667 216.333,129.833 227.5,118C 225.84,116.512 224.84,114.679 224.5,112.5C 227.066,100.61 233.733,91.9429 244.5,86.5C 248.684,86.5919 252.017,88.2586 254.5,91.5C 257.28,97.8479 257.113,104.181 254,110.5C 248.841,114.414 243.507,118.08 238,121.5C 227.246,143.359 214.246,163.693 199,182.5C 192.469,189.365 185.636,195.865 178.5,202C 170.622,207.272 162.288,211.439 153.5,214.5C 133.765,214.296 114.098,215.296 94.5,217.5C 82.1667,186.833 69.8333,156.167 57.5,125.5C 48.7016,125.034 42.7016,120.701 39.5,112.5C 41.8234,106.192 44.99,100.192 49,94.5C 52.4821,91.1608 56.3155,88.4942 60.5,86.5C 63.5042,86.722 66.1708,87.722 68.5,89.5C 70.0212,95.3151 69.5212,100.982 67,106.5C 66.3333,109.5 66.3333,112.5 67,115.5C 75.0151,124.015 83.5151,132.015 92.5,139.5C 97.1464,143.812 101.813,148.145 106.5,152.5C 108.58,127.836 109.58,103.169 109.5,78.5C 103.604,76.598 99.2703,72.9313 96.5,67.5C 98.2841,61.3443 100.784,55.3443 104,49.5C 107.906,44.4044 112.739,40.7377 118.5,38.5 Z"/></g>
<g><path style="opacity:1" fill="#73706f" d="M 186.5,38.5 C 181.302,40.7033 176.802,44.0366 173,48.5C 170.054,53.8939 167.221,59.2272 164.5,64.5C 162.189,52.2946 166.856,43.7946 178.5,39C 181.146,38.5026 183.813,38.3359 186.5,38.5 Z"/></g>
<g><path style="opacity:1" fill="#1f1f1f" d="M 194.5,40.5 C 194.56,39.9569 194.893,39.6236 195.5,39.5C 204.522,43.6845 209.189,50.8512 209.5,61C 207.404,70.3519 202.237,77.5186 194,82.5C 193.831,98.3387 193.331,114.005 192.5,129.5C 192.071,114.992 191.404,100.492 190.5,86C 190.833,83.5 191.167,81 191.5,78.5C 200.586,75.0127 205.253,68.3461 205.5,58.5C 205.374,51.246 202.374,45.5793 196.5,41.5C 195.833,41.1667 195.167,40.8333 194.5,40.5 Z"/></g>
<g><path style="opacity:1" fill="#434141" d="M 127.5,41.5 C 140.813,53.1917 140.813,65.025 127.5,77C 132.803,91.0768 137.803,105.243 142.5,119.5C 143.371,122.112 144.037,124.779 144.5,127.5C 136.399,110.729 128.565,93.7291 121,76.5C 120.333,73.1667 120.333,69.8333 121,66.5C 122.934,62.2406 125.268,58.2406 128,54.5C 129.719,50.1288 129.552,45.7955 127.5,41.5 Z"/></g>
<g><path style="opacity:1" fill="#444141" d="M 196.5,41.5 C 202.374,45.5793 205.374,51.246 205.5,58.5C 205.253,68.3461 200.586,75.0127 191.5,78.5C 191.167,81 190.833,83.5 190.5,86C 191.404,100.492 192.071,114.992 192.5,129.5C 192.5,132.5 192.5,135.5 192.5,138.5C 188.864,116.738 186.364,94.7385 185,72.5C 188.504,66.1559 192.504,60.1559 197,54.5C 198.719,50.1288 198.552,45.7955 196.5,41.5 Z"/></g>
<g><path style="opacity:1" fill="#1f1f1f" d="M 142.5,119.5 C 137.803,105.243 132.803,91.0768 127.5,77C 140.813,65.025 140.813,53.1917 127.5,41.5C 126.833,41.1667 126.167,40.8333 125.5,40.5C 125.369,39.6236 125.702,38.9569 126.5,38.5C 136.774,43.8069 140.607,52.1402 138,63.5C 136.384,68.7332 134.217,73.7332 131.5,78.5C 135.599,91.6312 139.599,104.798 143.5,118C 143.43,118.765 143.097,119.265 142.5,119.5 Z"/></g>
<g><path style="opacity:1" fill="#726f6f" d="M 60.5,86.5 C 56.3155,88.4942 52.4821,91.1608 49,94.5C 44.99,100.192 41.8234,106.192 39.5,112.5C 36.914,96.0863 43.914,87.4196 60.5,86.5 Z"/></g>
<g><path style="opacity:1" fill="#726f6f" d="M 244.5,86.5 C 233.733,91.9429 227.066,100.61 224.5,112.5C 220.685,100.617 224.685,92.1172 236.5,87C 239.146,86.5026 241.813,86.3359 244.5,86.5 Z"/></g>
<g><path style="opacity:1" fill="#444241" d="M 68.5,89.5 C 78.6993,97.4823 80.366,106.816 73.5,117.5C 79.8786,124.872 86.2119,132.206 92.5,139.5C 83.5151,132.015 75.0151,124.015 67,115.5C 66.3333,112.5 66.3333,109.5 67,106.5C 69.5212,100.982 70.0212,95.3151 68.5,89.5 Z"/></g>
<g><path style="opacity:1" fill="#444141" d="M 254.5,91.5 C 256.861,93.1939 258.861,95.1939 260.5,97.5C 263.739,107.855 261.072,116.355 252.5,123C 249.829,124.903 246.829,125.736 243.5,125.5C 231.476,155.558 219.143,185.558 206.5,215.5C 205.778,215.918 205.278,216.584 205,217.5C 188.251,215.067 171.085,214.067 153.5,214.5C 162.288,211.439 170.622,207.272 178.5,202C 185.636,195.865 192.469,189.365 199,182.5C 214.246,163.693 227.246,143.359 238,121.5C 243.507,118.08 248.841,114.414 254,110.5C 257.113,104.181 257.28,97.8479 254.5,91.5 Z"/></g>
<g><path style="opacity:1" fill="#1f1f1f" d="M 206.5,215.5 C 219.143,185.558 231.476,155.558 243.5,125.5C 246.829,125.736 249.829,124.903 252.5,123C 261.072,116.355 263.739,107.855 260.5,97.5C 261.97,98.2246 263.136,99.8912 264,102.5C 265.346,110.981 262.846,118.147 256.5,124C 253.131,126.684 249.464,128.851 245.5,130.5C 233.455,159.473 221.121,188.307 208.5,217C 207.184,217.528 206.517,217.028 206.5,215.5 Z"/></g>
<g><path style="opacity:1" fill="#767372" d="M 228.5,237.5 C 213.438,234.438 198.271,232.438 183,231.5C 161.667,231.5 140.333,231.5 119,231.5C 108.196,232.431 97.3631,233.597 86.5,235C 82.035,235.699 77.7016,236.866 73.5,238.5C 72.8933,238.376 72.56,238.043 72.5,237.5C 75.4715,231.703 80.1382,227.87 86.5,226C 107.987,222.121 129.654,220.621 151.5,221.5C 172.362,220.592 193.029,222.092 213.5,226C 220.054,227.929 225.054,231.762 228.5,237.5 Z"/></g>
<g><path style="opacity:1" fill="#555251" d="M 228.5,237.5 C 229.621,239.954 230.454,242.621 231,245.5C 231.5,251.825 231.666,258.158 231.5,264.5C 177.5,264.5 123.5,264.5 69.5,264.5C 69.3337,257.825 69.5004,251.158 70,244.5C 70.3903,241.896 71.2237,239.562 72.5,237.5C 72.56,238.043 72.8933,238.376 73.5,238.5C 77.7016,236.866 82.035,235.699 86.5,235C 97.3631,233.597 108.196,232.431 119,231.5C 140.333,231.5 161.667,231.5 183,231.5C 198.271,232.438 213.438,234.438 228.5,237.5 Z"/></g>
</svg>
