<?xml version="1.0" encoding="UTF-8"?>
<!DOCTYPE svg PUBLIC "-//W3C//DTD SVG 1.1//EN" "http://www.w3.org/Graphics/SVG/1.1/DTD/svg11.dtd">
<svg xmlns="http://www.w3.org/2000/svg" version="1.1" width="300px" height="300px" style="shape-rendering:geometricPrecision; text-rendering:geometricPrecision; image-rendering:optimizeQuality; fill-rule:evenodd; clip-rule:evenodd" xmlns:xlink="http://www.w3.org/1999/xlink">
<g><path style="opacity:1" fill="#262626" d="M 136.5,48.5 C 148.254,48.067 159.92,48.7337 171.5,50.5C 172.793,60.4688 173.793,70.4688 174.5,80.5C 177.448,80.7771 180.281,80.4438 183,79.5C 185.154,70.8868 186.987,62.2202 188.5,53.5C 201.388,52.5921 213.388,55.4255 224.5,62C 225.022,62.5613 225.355,63.228 225.5,64C 224.197,76.4729 223.03,88.9729 222,101.5C 220.213,113.115 214.046,121.448 203.5,126.5C 206.088,157.464 209.421,188.464 213.5,219.5C 226.519,222.353 234.353,230.353 237,243.5C 237.5,252.827 237.666,262.161 237.5,271.5C 178.833,271.5 120.167,271.5 61.5,271.5C 61.3335,262.161 61.5002,252.827 62,243.5C 64.6472,230.353 72.4805,222.353 85.5,219.5C 89.5785,188.464 92.9118,157.464 95.5,126.5C 84.9539,121.448 78.7872,113.115 77,101.5C 75.9981,89.1431 74.8315,76.8098 73.5,64.5C 73.6082,63.5581 73.9415,62.7247 74.5,62C 85.612,55.4255 97.612,52.5921 110.5,53.5C 112.013,62.2202 113.846,70.8868 116,79.5C 118.719,80.4438 121.552,80.7771 124.5,80.5C 125.207,70.4688 126.207,60.4688 127.5,50.5C 130.689,50.1417 133.689,49.475 136.5,48.5 Z"/></g>
<g><path style="opacity:1" fill="#838080" d="M 146.5,55.5 C 147.552,55.3505 148.552,55.5172 149.5,56C 142.106,59.6362 136.606,65.1362 133,72.5C 132.601,72.2716 132.435,71.9382 132.5,71.5C 132.751,66.4932 133.084,61.4932 133.5,56.5C 137.785,55.7051 142.119,55.3718 146.5,55.5 Z"/></g>
<g><path style="opacity:1" fill="#555251" d="M 146.5,55.5 C 146.917,54.8761 147.584,54.5427 148.5,54.5C 154.13,55.0098 159.63,56.0098 165,57.5C 166.332,67.4891 167.499,77.4891 168.5,87.5C 175.2,87.83 181.866,87.4967 188.5,86.5C 189.389,82.6826 190.389,79.0159 191.5,75.5C 195.868,71.1334 199.868,66.4667 203.5,61.5C 205.698,61.8751 207.698,62.5418 209.5,63.5C 207.287,77.0222 204.12,90.3556 200,103.5C 196.284,110.267 191.117,115.601 184.5,119.5C 156.903,116.401 129.403,117.068 102,121.5C 95.3472,119.275 90.1806,115.275 86.5,109.5C 87.33,100.009 87.83,90.342 88,80.5C 89.1815,74.2542 91.3482,68.4209 94.5,63C 93.9056,62.5357 93.2389,62.369 92.5,62.5C 96.2949,61.3833 100.295,60.7167 104.5,60.5C 106.184,69.2349 108.184,77.9016 110.5,86.5C 117.134,87.4967 123.8,87.83 130.5,87.5C 130.875,81.9908 131.542,76.6575 132.5,71.5C 132.435,71.9382 132.601,72.2716 133,72.5C 136.606,65.1362 142.106,59.6362 149.5,56C 148.552,55.5172 147.552,55.3505 146.5,55.5 Z"/></g>
<g><path style="opacity:1" fill="#82807f" d="M 203.5,61.5 C 199.868,66.4667 195.868,71.1334 191.5,75.5C 192.497,70.8404 193.497,66.1738 194.5,61.5C 197.498,60.3565 200.498,60.3565 203.5,61.5 Z"/></g>
<g><path style="opacity:1" fill="#858382" d="M 92.5,62.5 C 93.2389,62.369 93.9056,62.5357 94.5,63C 91.3482,68.4209 89.1815,74.2542 88,80.5C 87.83,90.342 87.33,100.009 86.5,109.5C 85.7739,106.821 84.9406,104.154 84,101.5C 82.9437,89.8321 82.2771,78.1654 82,66.5C 85.1677,64.2777 88.6677,62.9444 92.5,62.5 Z"/></g>
<g><path style="opacity:1" fill="#444241" d="M 209.5,63.5 C 211.924,64.0305 214.257,64.8638 216.5,66C 217.097,67.0617 217.43,68.2284 217.5,69.5C 216.619,79.011 215.619,88.1777 214.5,97C 215.042,107.545 210.376,115.212 200.5,120C 195.146,120.529 189.813,120.362 184.5,119.5C 191.117,115.601 196.284,110.267 200,103.5C 204.12,90.3556 207.287,77.0222 209.5,63.5 Z"/></g>
<g><path style="opacity:1" fill="#444241" d="M 187.5,215.5 C 187.094,192.753 181.594,170.753 171,149.5C 160.912,135.386 147.412,127.386 130.5,125.5C 137.777,124.634 144.61,123.967 151,123.5C 165.742,124.441 180.408,126.108 195,128.5C 198.912,158.125 202.412,187.792 205.5,217.5C 199.531,216.615 193.531,215.948 187.5,215.5 Z"/></g>
<g><path style="opacity:1" fill="#555251" d="M 130.5,125.5 C 147.412,127.386 160.912,135.386 171,149.5C 181.594,170.753 187.094,192.753 187.5,215.5C 155.77,213.912 124.103,214.412 92.5,217C 96.5308,187.253 100.197,157.42 103.5,127.5C 112.453,126.256 121.453,125.589 130.5,125.5 Z"/></g>
<g><path style="opacity:1" fill="#757372" d="M 227.5,237.5 C 227.565,237.938 227.399,238.272 227,238.5C 220.391,235.845 213.724,234.511 207,234.5C 198.694,233.235 190.361,232.235 182,231.5C 160,231.5 138,231.5 116,231.5C 105.535,232.497 95.0355,233.664 84.5,235C 80.1543,235.627 75.9877,236.794 72,238.5C 71.6012,238.272 71.4346,237.938 71.5,237.5C 72.9061,234.586 74.9061,232.086 77.5,230C 89.1825,224.495 101.516,221.828 114.5,222C 137.833,221.333 161.167,221.333 184.5,222C 193.892,222.939 203.225,224.272 212.5,226C 219.415,227.445 224.415,231.278 227.5,237.5 Z"/></g>
<g><path style="opacity:1" fill="#555251" d="M 227.5,237.5 C 228.887,239.877 229.721,242.543 230,245.5C 230.5,251.825 230.666,258.158 230.5,264.5C 176.5,264.5 122.5,264.5 68.5,264.5C 68.3338,258.158 68.5005,251.825 69,245.5C 69.2794,242.543 70.1127,239.877 71.5,237.5C 71.4346,237.938 71.6012,238.272 72,238.5C 75.9877,236.794 80.1543,235.627 84.5,235C 95.0355,233.664 105.535,232.497 116,231.5C 138,231.5 160,231.5 182,231.5C 190.361,232.235 198.694,233.235 207,234.5C 213.724,234.511 220.391,235.845 227,238.5C 227.399,238.272 227.565,237.938 227.5,237.5 Z"/></g>
</svg>
