<?xml version="1.0" encoding="UTF-8"?>
<!DOCTYPE svg PUBLIC "-//W3C//DTD SVG 1.1//EN" "http://www.w3.org/Graphics/SVG/1.1/DTD/svg11.dtd">
<svg xmlns="http://www.w3.org/2000/svg" version="1.1" width="300px" height="300px" style="shape-rendering:geometricPrecision; text-rendering:geometricPrecision; image-rendering:optimizeQuality; fill-rule:evenodd; clip-rule:evenodd" xmlns:xlink="http://www.w3.org/1999/xlink">
<g><path style="opacity:0.972" fill="#474747" d="M 131.5,22.5 C 143.833,22.5 156.167,22.5 168.5,22.5C 168.5,29.1667 168.5,35.8333 168.5,42.5C 175.167,42.5 181.833,42.5 188.5,42.5C 188.5,55.1667 188.5,67.8333 188.5,80.5C 182.491,80.3338 176.491,80.5005 170.5,81C 171.561,84.124 172.561,87.2907 173.5,90.5C 192.936,82.7624 212.603,81.929 232.5,88C 255.089,98.9822 266.756,117.149 267.5,142.5C 266.735,157.303 261.568,170.303 252,181.5C 239.946,193.718 228.446,206.385 217.5,219.5C 230.13,224.09 236.963,233.09 238,246.5C 238.5,254.827 238.666,263.16 238.5,271.5C 179.5,271.5 120.5,271.5 61.5,271.5C 60.99,260.052 61.8233,248.719 64,237.5C 67.3916,228.608 73.5582,222.608 82.5,219.5C 72.6272,206.121 61.4605,193.787 49,182.5C 34.6965,166.335 30.0298,147.669 35,126.5C 43.4743,99.0387 62.141,84.7054 91,83.5C 103.409,83.9154 115.409,86.2487 127,90.5C 127.679,87.4501 128.512,84.4501 129.5,81.5C 123.537,80.5041 117.537,80.1707 111.5,80.5C 111.5,67.8333 111.5,55.1667 111.5,42.5C 118.167,42.5 124.833,42.5 131.5,42.5C 131.5,35.8333 131.5,29.1667 131.5,22.5 Z M 101.5,133.5 C 109.08,133.71 115.914,136.043 122,140.5C 122.5,153.162 122.667,165.829 122.5,178.5C 119.753,178.813 117.086,178.48 114.5,177.5C 106.48,168.648 98.6468,159.648 91,150.5C 88.1336,140.871 91.6336,135.205 101.5,133.5 Z M 194.5,133.5 C 210.293,134.754 214.126,142.087 206,155.5C 199.167,163 192.333,170.5 185.5,178C 182.854,178.497 180.187,178.664 177.5,178.5C 177.168,165.816 177.501,153.149 178.5,140.5C 183.45,137.019 188.783,134.685 194.5,133.5 Z"/></g>
<g><path style="opacity:1" fill="#f7f7f7" d="M 181.5,72.5 C 174.8,72.17 168.134,72.5033 161.5,73.5C 161.624,74.1067 161.957,74.44 162.5,74.5C 163.863,83.3135 165.863,91.9801 168.5,100.5C 184.928,92.3732 202.262,89.5398 220.5,92C 230.34,93.9165 238.673,98.4165 245.5,105.5C 252.55,120.105 254.383,135.438 251,151.5C 249.607,155.286 247.941,158.952 246,162.5C 229.196,180.305 212.029,197.805 194.5,215C 192.866,215.494 191.199,215.66 189.5,215.5C 157.426,213.6 125.426,214.267 93.5,217.5C 91.8561,217.714 90.3561,217.38 89,216.5C 79.1496,202.642 67.8163,189.975 55,178.5C 38.3274,158.458 35.994,136.792 48,113.5C 60.0068,96.4176 76.5068,88.9176 97.5,91C 103.5,92 109.5,93 115.5,94C 121.154,95.9405 126.821,97.7738 132.5,99.5C 134.166,91.5014 135.833,83.5014 137.5,75.5C 138.404,74.791 138.737,73.791 138.5,72.5C 131.833,72.5 125.167,72.5 118.5,72.5C 118.5,64.8333 118.5,57.1667 118.5,49.5C 125.167,49.5 131.833,49.5 138.5,49.5C 138.5,42.8333 138.5,36.1667 138.5,29.5C 146.167,29.5 153.833,29.5 161.5,29.5C 161.5,36.1667 161.5,42.8333 161.5,49.5C 168.167,49.5 174.833,49.5 181.5,49.5C 181.5,57.1667 181.5,64.8333 181.5,72.5 Z M 101.5,133.5 C 91.6336,135.205 88.1336,140.871 91,150.5C 98.6468,159.648 106.48,168.648 114.5,177.5C 117.086,178.48 119.753,178.813 122.5,178.5C 122.667,165.829 122.5,153.162 122,140.5C 115.914,136.043 109.08,133.71 101.5,133.5 Z M 194.5,133.5 C 188.783,134.685 183.45,137.019 178.5,140.5C 177.501,153.149 177.168,165.816 177.5,178.5C 180.187,178.664 182.854,178.497 185.5,178C 192.333,170.5 199.167,163 206,155.5C 214.126,142.087 210.293,134.754 194.5,133.5 Z"/></g>
<g><path style="opacity:1" fill="#949494" d="M 118.5,72.5 C 125.167,72.5 131.833,72.5 138.5,72.5C 138.737,73.791 138.404,74.791 137.5,75.5C 131.399,73.8511 125.065,72.8511 118.5,72.5 Z"/></g>
<g><path style="opacity:1" fill="#949494" d="M 181.5,72.5 C 175.167,73.1667 168.833,73.8333 162.5,74.5C 161.957,74.44 161.624,74.1067 161.5,73.5C 168.134,72.5033 174.8,72.17 181.5,72.5 Z"/></g>
<g><path style="opacity:1" fill="#d1d1d1" d="M 245.5,105.5 C 255.419,115.7 260.086,128.033 259.5,142.5C 259.759,148.339 258.926,154.006 257,159.5C 253.835,165.834 250.169,171.834 246,177.5C 232.685,189.474 220.852,202.64 210.5,217C 208.866,217.494 207.199,217.66 205.5,217.5C 200.014,216.982 194.681,216.315 189.5,215.5C 191.199,215.66 192.866,215.494 194.5,215C 212.029,197.805 229.196,180.305 246,162.5C 247.941,158.952 249.607,155.286 251,151.5C 254.383,135.438 252.55,120.105 245.5,105.5 Z"/></g>
<g><path style="opacity:0.988" fill="#4a4a4a" d="M 97.5,126.5 C 109.717,125.882 120.384,129.548 129.5,137.5C 130.824,153.397 130.824,169.23 129.5,185C 123.5,185.667 117.5,185.667 111.5,185C 102.629,175.798 94.1293,166.298 86,156.5C 79.1242,142.285 82.9576,132.285 97.5,126.5 Z M 101.5,133.5 C 91.6336,135.205 88.1336,140.871 91,150.5C 98.6468,159.648 106.48,168.648 114.5,177.5C 117.086,178.48 119.753,178.813 122.5,178.5C 122.667,165.829 122.5,153.162 122,140.5C 115.914,136.043 109.08,133.71 101.5,133.5 Z"/></g>
<g><path style="opacity:0.986" fill="#484848" d="M 190.5,126.5 C 198.779,125.777 206.279,127.777 213,132.5C 219.121,141.66 218.788,150.66 212,159.5C 204.167,168 196.333,176.5 188.5,185C 182.509,185.499 176.509,185.666 170.5,185.5C 170.333,169.497 170.5,153.497 171,137.5C 176.606,132.117 183.106,128.45 190.5,126.5 Z M 194.5,133.5 C 188.783,134.685 183.45,137.019 178.5,140.5C 177.501,153.149 177.168,165.816 177.5,178.5C 180.187,178.664 182.854,178.497 185.5,178C 192.333,170.5 199.167,163 206,155.5C 214.126,142.087 210.293,134.754 194.5,133.5 Z"/></g>
<g><path style="opacity:1" fill="#2e2e2e" d="M 189.5,215.5 C 194.681,216.315 200.014,216.982 205.5,217.5C 206.609,218.29 207.942,218.79 209.5,219C 208.361,220.78 207.361,222.614 206.5,224.5C 168.816,220.536 131.149,220.536 93.5,224.5C 92.6394,222.614 91.6394,220.78 90.5,219C 91.7375,218.768 92.7375,218.268 93.5,217.5C 125.426,214.267 157.426,213.6 189.5,215.5 Z"/></g>
<g><path style="opacity:1" fill="#fdfdfd" d="M 206.5,224.5 C 213.953,225.482 220.453,228.482 226,233.5C 226.791,234.745 227.291,236.078 227.5,237.5C 214.427,234.704 201.26,232.704 188,231.5C 187,231.833 186,232.167 185,232.5C 175,231.833 165,231.167 155,230.5C 142.645,230.918 129.312,231.585 115,232.5C 101.38,232.295 87.2132,233.961 72.5,237.5C 77.3323,229.905 84.3323,225.572 93.5,224.5C 131.149,220.536 168.816,220.536 206.5,224.5 Z"/></g>
<g><path style="opacity:1" fill="#f7f7f7" d="M 227.5,237.5 C 229.511,239.667 230.678,242.334 231,245.5C 231.5,251.825 231.666,258.158 231.5,264.5C 177.167,264.5 122.833,264.5 68.5,264.5C 68.3338,258.491 68.5005,252.491 69,246.5C 69.5053,243.135 70.672,240.135 72.5,237.5C 87.2132,233.961 101.38,232.295 115,232.5C 129.312,231.585 142.645,230.918 155,230.5C 165,231.167 175,231.833 185,232.5C 186,232.167 187,231.833 188,231.5C 201.26,232.704 214.427,234.704 227.5,237.5 Z"/></g>
</svg>
