<?xml version="1.0" encoding="UTF-8"?>
<!DOCTYPE svg PUBLIC "-//W3C//DTD SVG 1.1//EN" "http://www.w3.org/Graphics/SVG/1.1/DTD/svg11.dtd">
<svg xmlns="http://www.w3.org/2000/svg" version="1.1" width="300px" height="300px" style="shape-rendering:geometricPrecision; text-rendering:geometricPrecision; image-rendering:optimizeQuality; fill-rule:evenodd; clip-rule:evenodd" xmlns:xlink="http://www.w3.org/1999/xlink">
<g><path style="opacity:0.98" fill="#474747" d="M 142.5,66.5 C 171.819,65.4922 188.152,79.4922 191.5,108.5C 191.302,119.937 187.302,129.77 179.5,138C 185.667,142.167 191.833,146.333 198,150.5C 198.835,158.16 197.001,165.16 192.5,171.5C 186.872,172.495 181.206,172.829 175.5,172.5C 177.207,187.081 183.54,199.248 194.5,209C 199.991,213.246 205.658,217.246 211.5,221C 225.023,235.068 230.69,251.901 228.5,271.5C 175.5,271.5 122.5,271.5 69.5,271.5C 67.8217,243.009 79.4884,222.176 104.5,209C 115.001,199 121.334,186.834 123.5,172.5C 117.794,172.829 112.128,172.495 106.5,171.5C 101.696,165.283 99.8623,158.283 101,150.5C 107.167,146.333 113.333,142.167 119.5,138C 107.779,125.067 104.612,110.233 110,93.5C 116.329,78.9388 127.162,69.9388 142.5,66.5 Z"/></g>
<g><path style="opacity:1" fill="#f7f7f7" d="M 172.5,82.5 C 183.829,109.343 175.829,127.843 148.5,138C 154.825,138.5 161.158,138.666 167.5,138.5C 167.5,139.167 167.833,139.5 168.5,139.5C 169.723,142.274 171.223,144.941 173,147.5C 175.941,155.027 174.107,161.027 167.5,165.5C 155.5,165.5 143.5,165.5 131.5,165.5C 124.468,165.83 117.468,165.497 110.5,164.5C 109.118,161.808 108.118,158.974 107.5,156C 114.705,149.381 122.705,143.714 131.5,139C 116.054,127.662 111.221,112.829 117,94.5C 126.081,77.8761 139.914,71.3761 158.5,75C 163.926,76.2113 168.593,78.7113 172.5,82.5 Z"/></g>
<g><path style="opacity:1" fill="#cfcfcf" d="M 172.5,82.5 C 187.076,97.7517 188.242,114.085 176,131.5C 173.412,134.2 170.579,136.533 167.5,138.5C 161.158,138.666 154.825,138.5 148.5,138C 175.829,127.843 183.829,109.343 172.5,82.5 Z"/></g>
<g><path style="opacity:1" fill="#d1d1d1" d="M 168.5,139.5 C 175.482,144.141 182.482,148.807 189.5,153.5C 191.019,157.697 190.352,161.53 187.5,165C 180.842,165.5 174.175,165.666 167.5,165.5C 174.107,161.027 175.941,155.027 173,147.5C 171.223,144.941 169.723,142.274 168.5,139.5 Z"/></g>
<g><path style="opacity:1" fill="#d2d2d2" d="M 131.5,165.5 C 143.5,165.5 155.5,165.5 167.5,165.5C 168.019,185.37 175.686,201.87 190.5,215C 196.234,219.188 201.901,223.354 207.5,227.5C 193.398,225.192 180.731,219.692 169.5,211C 157.304,198.47 144.804,186.304 132,174.5C 131.722,175.416 131.222,176.082 130.5,176.5C 131.114,172.865 131.448,169.198 131.5,165.5 Z"/></g>
<g><path style="opacity:1" fill="#f7f7f7" d="M 207.5,227.5 C 217.99,237.503 222.656,249.837 221.5,264.5C 173.5,264.5 125.5,264.5 77.5,264.5C 76.5324,249.279 81.5324,236.446 92.5,226C 112.559,215.116 125.225,198.616 130.5,176.5C 131.222,176.082 131.722,175.416 132,174.5C 144.804,186.304 157.304,198.47 169.5,211C 180.731,219.692 193.398,225.192 207.5,227.5 Z"/></g>
</svg>
