<?xml version="1.0" encoding="UTF-8"?>
<!DOCTYPE svg PUBLIC "-//W3C//DTD SVG 1.1//EN" "http://www.w3.org/Graphics/SVG/1.1/DTD/svg11.dtd">
<svg xmlns="http://www.w3.org/2000/svg" version="1.1" width="300px" height="300px" style="shape-rendering:geometricPrecision; text-rendering:geometricPrecision; image-rendering:optimizeQuality; fill-rule:evenodd; clip-rule:evenodd" xmlns:xlink="http://www.w3.org/1999/xlink">
<g><path style="opacity:0.983" fill="#484848" d="M 137.5,48.5 C 148.916,48.1142 160.249,48.7809 171.5,50.5C 172.665,60.4828 173.665,70.4828 174.5,80.5C 177.448,80.7771 180.281,80.4438 183,79.5C 185.154,70.8868 186.987,62.2202 188.5,53.5C 201.326,52.8732 213.326,55.7065 224.5,62C 225.022,62.5613 225.355,63.228 225.5,64C 224.086,76.4632 222.92,88.9632 222,101.5C 220.19,113.143 214.023,121.477 203.5,126.5C 206.09,157.482 209.424,188.482 213.5,219.5C 226.519,222.353 234.353,230.353 237,243.5C 237.5,252.827 237.666,262.161 237.5,271.5C 178.833,271.5 120.167,271.5 61.5,271.5C 61.3335,262.161 61.5002,252.827 62,243.5C 64.6472,230.353 72.4805,222.353 85.5,219.5C 89.084,189.161 92.7506,158.828 96.5,128.5C 92.2379,125.417 88.0712,122.084 84,118.5C 80.2888,113.41 77.9555,107.743 77,101.5C 76.0804,88.9632 74.9137,76.4632 73.5,64C 77.6823,60.0717 82.6823,57.405 88.5,56C 95.707,54.066 103.04,53.2327 110.5,53.5C 112.013,62.2202 113.846,70.8868 116,79.5C 118.719,80.4438 121.552,80.7771 124.5,80.5C 125.335,70.4828 126.335,60.4828 127.5,50.5C 131.011,50.1006 134.344,49.4339 137.5,48.5 Z"/></g>
<g><path style="opacity:1" fill="#f6f6f6" d="M 209.5,63.5 C 207.287,77.0222 204.12,90.3556 200,103.5C 196.284,110.267 191.117,115.601 184.5,119.5C 172.216,118.088 159.882,117.422 147.5,117.5C 131.122,117.924 114.789,118.757 98.5,120C 90.6998,116.267 85.8664,110.1 84,101.5C 83.1644,89.8145 82.4977,78.1478 82,66.5C 88.9564,62.0938 96.4564,60.4271 104.5,61.5C 106.818,70.1058 108.818,78.7725 110.5,87.5C 117.167,87.5 123.833,87.5 130.5,87.5C 131.83,77.2013 132.83,66.868 133.5,56.5C 144.157,55.261 154.824,55.261 165.5,56.5C 166.17,66.868 167.17,77.2013 168.5,87.5C 175.167,87.5 181.833,87.5 188.5,87.5C 190.29,78.793 192.29,70.1263 194.5,61.5C 199.701,60.5329 204.701,61.1996 209.5,63.5 Z"/></g>
<g><path style="opacity:1" fill="#d0d0d0" d="M 209.5,63.5 C 211.924,64.0305 214.257,64.8638 216.5,66C 217.097,67.0617 217.43,68.2284 217.5,69.5C 216.294,79.8004 215.46,90.1337 215,100.5C 211.347,117.323 201.181,123.656 184.5,119.5C 191.117,115.601 196.284,110.267 200,103.5C 204.12,90.3556 207.287,77.0222 209.5,63.5 Z"/></g>
<g><path style="opacity:1" fill="#d1d1d1" d="M 187.5,215.5 C 187.11,190.415 180.777,167.082 168.5,145.5C 156.582,132.876 141.915,126.209 124.5,125.5C 131.791,124.156 139.291,123.489 147,123.5C 163.259,123.901 179.425,125.235 195.5,127.5C 199.114,157.468 202.448,187.468 205.5,217.5C 199.479,216.965 193.479,216.298 187.5,215.5 Z"/></g>
<g><path style="opacity:1" fill="#f7f7f7" d="M 124.5,125.5 C 141.915,126.209 156.582,132.876 168.5,145.5C 180.777,167.082 187.11,190.415 187.5,215.5C 156.094,213.655 124.76,214.322 93.5,217.5C 96.3402,187.445 99.6736,157.445 103.5,127.5C 110.474,126.587 117.474,125.92 124.5,125.5 Z"/></g>
<g><path style="opacity:1" fill="#f8f8f8" d="M 115.5,221.5 C 138.169,221.333 160.836,221.5 183.5,222C 195.103,222.559 206.436,224.559 217.5,228C 224.256,231.089 228.423,236.255 230,243.5C 230.5,250.492 230.666,257.492 230.5,264.5C 176.5,264.5 122.5,264.5 68.5,264.5C 68.3337,257.492 68.5004,250.492 69,243.5C 70.4455,238.105 73.2789,233.605 77.5,230C 89.7361,224.731 102.403,221.898 115.5,221.5 Z"/></g>
</svg>
