<?xml version="1.0" encoding="UTF-8"?>
<!DOCTYPE svg PUBLIC "-//W3C//DTD SVG 1.1//EN" "http://www.w3.org/Graphics/SVG/1.1/DTD/svg11.dtd">
<svg xmlns="http://www.w3.org/2000/svg" version="1.1" width="150px" height="150px" style="shape-rendering:geometricPrecision; text-rendering:geometricPrecision; image-rendering:optimizeQuality; fill-rule:evenodd; clip-rule:evenodd" xmlns:xlink="http://www.w3.org/1999/xlink">
<g><path style="opacity:0.977" fill="#1e1d20" d="M 107.5,93.5 C 105.135,95.8603 102.468,97.8603 99.5,99.5C 83.3724,98.1754 67.3724,98.1754 51.5,99.5C 50.8333,99.5 50.1667,99.5 49.5,99.5C 48.3951,98.3995 47.0618,97.7329 45.5,97.5C 39.2781,92.3823 36.2781,85.7157 36.5,77.5C 37.5172,67.2764 41.3505,58.2764 48,50.5C 54.2066,44.6245 60.7066,39.1245 67.5,34C 62.0564,27.7443 62.3897,21.7443 68.5,16C 78.0373,12.6009 84.0373,15.7676 86.5,25.5C 86.0259,28.7644 84.6925,31.5978 82.5,34C 93.7567,41.9221 102.923,51.7554 110,63.5C 113.556,70.9395 114.222,78.6062 112,86.5C 110.974,89.2387 109.474,91.572 107.5,93.5 Z"/></g>
<g><path style="opacity:1" fill="#3f93b9" d="M 81.5,21.5 C 81.5,28.8333 77.8333,32.5 70.5,32.5C 66.3503,29.2871 65.517,25.2871 68,20.5C 72.9111,16.2952 77.4111,16.6285 81.5,21.5 Z"/></g>
<g><path style="opacity:1" fill="#296884" d="M 81.5,21.5 C 83.4452,30.8882 79.7786,34.5549 70.5,32.5C 77.8333,32.5 81.5,28.8333 81.5,21.5 Z"/></g>
<g><path style="opacity:1" fill="#348db6" d="M 90.5,45.5 C 89.4359,48.8924 87.1025,50.8924 83.5,51.5C 82.5329,53.7901 81.1996,55.7901 79.5,57.5C 76.1667,57.5 72.8333,57.5 69.5,57.5C 68.5233,60.2869 68.19,63.2869 68.5,66.5C 65.1016,66.8204 61.7683,66.487 58.5,65.5C 59.1667,65.1667 59.8333,64.8333 60.5,64.5C 59.675,63.6143 58.675,63.281 57.5,63.5C 62.1691,57.3238 66.6691,50.9904 71,44.5C 71.1667,43.3333 71.3333,42.1667 71.5,41C 71.3917,39.3189 70.7251,38.1522 69.5,37.5C 69.6107,36.8826 69.944,36.3826 70.5,36C 78.9795,35.2214 85.6461,38.388 90.5,45.5 Z"/></g>
<g><path style="opacity:1" fill="#0b1215" d="M 69.5,58.5 C 72.8333,58.5 76.1667,58.5 79.5,58.5C 79.19,61.7131 79.5233,64.7131 80.5,67.5C 83.5,67.5 86.5,67.5 89.5,67.5C 89.5,71.1667 89.5,74.8333 89.5,78.5C 86.5,78.5 83.5,78.5 80.5,78.5C 79.5269,80.9479 79.1936,83.6146 79.5,86.5C 76.1667,86.5 72.8333,86.5 69.5,86.5C 69.5,83.8333 69.5,81.1667 69.5,78.5C 66.7131,77.5233 63.7131,77.19 60.5,77.5C 60.5,74.1667 60.5,70.8333 60.5,67.5C 63.5,67.5 66.5,67.5 69.5,67.5C 69.5,64.5 69.5,61.5 69.5,58.5 Z"/></g>
<g><path style="opacity:1" fill="#153543" d="M 69.5,58.5 C 69.5,58.1667 69.5,57.8333 69.5,57.5C 72.8333,57.5 76.1667,57.5 79.5,57.5C 80.4794,60.6248 80.8128,63.9581 80.5,67.5C 79.5233,64.7131 79.19,61.7131 79.5,58.5C 76.1667,58.5 72.8333,58.5 69.5,58.5 Z"/></g>
<g><path style="opacity:1" fill="#2a7293" d="M 95.5,49.5 C 101.734,54.9585 106.234,61.6252 109,69.5C 110.397,77.2309 109.397,84.5642 106,91.5C 104.223,93.7899 102.056,95.4566 99.5,96.5C 96.6665,94.1114 96.3331,91.6114 98.5,89C 98.2231,85.8623 97.8898,82.3623 97.5,78.5C 97.732,76.2019 98.3986,74.0353 99.5,72C 98.9279,68.015 98.2612,64.1817 97.5,60.5C 96.9922,56.8026 96.3255,53.1359 95.5,49.5 Z"/></g>
<g><path style="opacity:1" fill="#509cbf" d="M 69.5,37.5 C 70.7251,38.1522 71.3917,39.3189 71.5,41C 71.3333,42.1667 71.1667,43.3333 71,44.5C 66.6691,50.9904 62.1691,57.3238 57.5,63.5C 53.4989,69.8318 48.1656,74.8318 41.5,78.5C 40.5258,76.2573 40.1924,73.924 40.5,71.5C 41.8765,65.6284 44.3765,60.2951 48,55.5C 54.1822,48.1362 61.3489,42.1362 69.5,37.5 Z"/></g>
<g><path style="opacity:1" fill="#3288ae" d="M 69.5,57.5 C 69.5,57.8333 69.5,58.1667 69.5,58.5C 69.5,61.5 69.5,64.5 69.5,67.5C 66.5,67.5 63.5,67.5 60.5,67.5C 59.5206,70.6248 59.1872,73.9581 59.5,77.5C 58.6981,76.0484 58.1981,74.3817 58,72.5C 57.6397,74.4211 56.8064,76.0878 55.5,77.5C 55.7093,78.086 56.0426,78.586 56.5,79C 55.0066,82.0664 54.1733,85.233 54,88.5C 53.044,87.4214 52.2106,86.2547 51.5,85C 50.365,84.2506 49.365,84.4173 48.5,85.5C 49.5312,86.7003 50.3645,88.0337 51,89.5C 52,89.5 53,89.5 54,89.5C 53.7629,92.966 55.5962,95.1327 59.5,96C 57.9419,96.21 56.6085,96.71 55.5,97.5C 53.4727,97.6621 51.4727,97.4955 49.5,97C 41.2021,90.2689 38.2021,81.7689 40.5,71.5C 40.1924,73.924 40.5258,76.2573 41.5,78.5C 48.1656,74.8318 53.4989,69.8318 57.5,63.5C 58.675,63.281 59.675,63.6143 60.5,64.5C 59.8333,64.8333 59.1667,65.1667 58.5,65.5C 61.7683,66.487 65.1016,66.8204 68.5,66.5C 68.19,63.2869 68.5233,60.2869 69.5,57.5 Z"/></g>
<g><path style="opacity:1" fill="#338cb4" d="M 90.5,45.5 C 92.7488,46.0798 94.4154,47.4131 95.5,49.5C 96.3255,53.1359 96.9922,56.8026 97.5,60.5C 99.1342,77.498 92.1342,89.1646 76.5,95.5C 77.3799,93.6112 77.3799,91.6112 76.5,89.5C 76.1211,88.2759 73.4544,87.9426 68.5,88.5C 68.5,85.1667 68.5,81.8333 68.5,78.5C 68.8333,78.5 69.1667,78.5 69.5,78.5C 69.5,81.1667 69.5,83.8333 69.5,86.5C 72.9619,87.4816 76.6286,87.815 80.5,87.5C 80.5,84.5 80.5,81.5 80.5,78.5C 83.5,78.5 86.5,78.5 89.5,78.5C 89.5,74.8333 89.5,71.1667 89.5,67.5C 86.5,67.5 83.5,67.5 80.5,67.5C 80.8128,63.9581 80.4794,60.6248 79.5,57.5C 81.1996,55.7901 82.5329,53.7901 83.5,51.5C 87.1025,50.8924 89.4359,48.8924 90.5,45.5 Z"/></g>
<g><path style="opacity:1" fill="#4994b6" d="M 77.5,84.5 C 75.8333,84.5 74.1667,84.5 72.5,84.5C 72.81,81.2869 72.4767,78.2869 71.5,75.5C 68.5,75.5 65.5,75.5 62.5,75.5C 62.5,73.5 62.5,71.5 62.5,69.5C 65.5,69.5 68.5,69.5 71.5,69.5C 71.5,66.5 71.5,63.5 71.5,60.5C 73.5,60.5 75.5,60.5 77.5,60.5C 77.5,63.5 77.5,66.5 77.5,69.5C 80.5,69.5 83.5,69.5 86.5,69.5C 86.5,71.5 86.5,73.5 86.5,75.5C 83.5,75.5 80.5,75.5 77.5,75.5C 77.5,78.5 77.5,81.5 77.5,84.5 Z"/></g>
<g><path style="opacity:1" fill="#37667c" d="M 71.5,75.5 C 72.4767,78.2869 72.81,81.2869 72.5,84.5C 74.1667,84.5 75.8333,84.5 77.5,84.5C 75.7354,85.4614 73.7354,85.7947 71.5,85.5C 71.5,82.1667 71.5,78.8333 71.5,75.5 Z"/></g>
<g><path style="opacity:1" fill="#193e4e" d="M 60.5,67.5 C 60.5,70.8333 60.5,74.1667 60.5,77.5C 63.7131,77.19 66.7131,77.5233 69.5,78.5C 69.1667,78.5 68.8333,78.5 68.5,78.5C 65.2869,78.81 62.2869,78.4767 59.5,77.5C 59.1872,73.9581 59.5206,70.6248 60.5,67.5 Z"/></g>
<g><path style="opacity:1" fill="#2d7da1" d="M 97.5,60.5 C 98.2612,64.1817 98.9279,68.015 99.5,72C 98.3986,74.0353 97.732,76.2019 97.5,78.5C 97.8898,82.3623 98.2231,85.8623 98.5,89C 96.3331,91.6114 96.6665,94.1114 99.5,96.5C 91.3501,97.4927 83.0168,97.8261 74.5,97.5C 75.1667,96.8333 75.8333,96.1667 76.5,95.5C 92.1342,89.1646 99.1342,77.498 97.5,60.5 Z"/></g>
<g><path style="opacity:1" fill="#163745" d="M 80.5,78.5 C 80.5,81.5 80.5,84.5 80.5,87.5C 76.6286,87.815 72.9619,87.4816 69.5,86.5C 72.8333,86.5 76.1667,86.5 79.5,86.5C 79.1936,83.6146 79.5269,80.9479 80.5,78.5 Z"/></g>
<g><path style="opacity:1" fill="#348fb7" d="M 59.5,77.5 C 62.2869,78.4767 65.2869,78.81 68.5,78.5C 68.5,81.8333 68.5,85.1667 68.5,88.5C 73.4544,87.9426 76.1211,88.2759 76.5,89.5C 77.3799,91.6112 77.3799,93.6112 76.5,95.5C 75.8333,96.1667 75.1667,96.8333 74.5,97.5C 68.1667,97.5 61.8333,97.5 55.5,97.5C 56.6085,96.71 57.9419,96.21 59.5,96C 55.5962,95.1327 53.7629,92.966 54,89.5C 53,89.5 52,89.5 51,89.5C 50.3645,88.0337 49.5312,86.7003 48.5,85.5C 49.365,84.4173 50.365,84.2506 51.5,85C 52.2106,86.2547 53.044,87.4214 54,88.5C 54.1733,85.233 55.0066,82.0664 56.5,79C 56.0426,78.586 55.7093,78.086 55.5,77.5C 56.8064,76.0878 57.6397,74.4211 58,72.5C 58.1981,74.3817 58.6981,76.0484 59.5,77.5 Z"/></g>
<g><path style="opacity:1" fill="#0c1113" d="M 107.5,93.5 C 106.457,96.0562 104.79,98.2228 102.5,100C 108.118,105.948 107.452,111.282 100.5,116C 97.5597,117.152 94.5597,118.152 91.5,119C 101.006,120.308 110.673,120.974 120.5,121C 126.442,121.077 130.942,123.577 134,128.5C 135.9,132.632 136.733,136.966 136.5,141.5C 120.497,141.667 104.497,141.5 88.5,141C 83.1956,139.191 78.5289,136.358 74.5,132.5C 70.8167,136.341 66.4834,139.174 61.5,141C 45.5035,141.5 29.5035,141.667 13.5,141.5C 12.2958,129.359 17.6292,122.526 29.5,121C 39.2663,120.949 48.9329,120.282 58.5,119C 52.3028,118.324 47.4695,115.491 44,110.5C 42.6986,108.635 42.3653,106.635 43,104.5C 44.5,103 46,101.5 47.5,100C 46.6195,99.2917 45.9528,98.4584 45.5,97.5C 47.0618,97.7329 48.3951,98.3995 49.5,99.5C 49.8333,100.167 50.1667,100.833 50.5,101.5C 49.5,102.833 48.5,104.167 47.5,105.5C 46.6618,105.842 46.3284,106.508 46.5,107.5C 47.6141,110.449 49.6141,112.615 52.5,114C 67.1667,114.667 81.8333,114.667 96.5,114C 99.4086,112.594 101.409,110.428 102.5,107.5C 103.525,107.103 103.692,106.437 103,105.5C 101.296,103.627 99.4628,101.96 97.5,100.5C 82.3424,99.5038 67.0091,99.1705 51.5,99.5C 67.3724,98.1754 83.3724,98.1754 99.5,99.5C 102.468,97.8603 105.135,95.8603 107.5,93.5 Z"/></g>
<g><path style="opacity:1" fill="#276a89" d="M 46.5,107.5 C 65.1667,107.5 83.8333,107.5 102.5,107.5C 101.409,110.428 99.4086,112.594 96.5,114C 81.8333,114.667 67.1667,114.667 52.5,114C 49.6141,112.615 47.6141,110.449 46.5,107.5 Z"/></g>
<g><path style="opacity:1" fill="#3b8fb5" d="M 51.5,101.5 C 66.6576,100.504 81.9909,100.17 97.5,100.5C 99.4628,101.96 101.296,103.627 103,105.5C 103.692,106.437 103.525,107.103 102.5,107.5C 83.8333,107.5 65.1667,107.5 46.5,107.5C 46.3284,106.508 46.6618,105.842 47.5,105.5C 62.3277,106.661 77.3277,106.828 92.5,106C 78.8464,104.289 65.1798,102.789 51.5,101.5 Z"/></g>
<g><path style="opacity:1" fill="#5aa2c3" d="M 50.5,101.5 C 50.8333,101.5 51.1667,101.5 51.5,101.5C 65.1798,102.789 78.8464,104.289 92.5,106C 77.3277,106.828 62.3277,106.661 47.5,105.5C 48.5,104.167 49.5,102.833 50.5,101.5 Z"/></g>
<g><path style="opacity:1" fill="#0d1c24" d="M 49.5,99.5 C 50.1667,99.5 50.8333,99.5 51.5,99.5C 67.0091,99.1705 82.3424,99.5038 97.5,100.5C 81.9909,100.17 66.6576,100.504 51.5,101.5C 51.1667,101.5 50.8333,101.5 50.5,101.5C 50.1667,100.833 49.8333,100.167 49.5,99.5 Z"/></g>
<g><path style="opacity:1" fill="#25617d" d="M 62.5,118.5 C 70.3225,117.344 78.3225,117.177 86.5,118C 88.6442,120.893 91.3109,123.06 94.5,124.5C 90.1667,124.5 85.8333,124.5 81.5,124.5C 75.1148,122.815 68.7814,120.815 62.5,118.5 Z"/></g>
<g><path style="opacity:1" fill="#3288af" d="M 62.5,118.5 C 68.7814,120.815 75.1148,122.815 81.5,124.5C 79.4551,125.923 78.4551,127.923 78.5,130.5C 76.8639,129.251 75.6972,127.584 75,125.5C 73.668,127.66 72.168,129.66 70.5,131.5C 67.6887,131.826 65.022,132.659 62.5,134C 49.8333,134.333 37.1667,134.667 24.5,135C 22.1116,135.303 19.9449,136.137 18,137.5C 17.51,136.207 17.3433,134.873 17.5,133.5C 17.6596,131.847 18.3263,130.514 19.5,129.5C 29.6584,130.659 39.9917,130.825 50.5,130C 54.2657,129.249 57.2657,127.249 59.5,124C 58.9056,123.536 58.2389,123.369 57.5,123.5C 59.5,122.167 61.1667,120.5 62.5,118.5 Z"/></g>
<g><path style="opacity:1" fill="#5aa0c0" d="M 57.5,123.5 C 58.2389,123.369 58.9056,123.536 59.5,124C 57.2657,127.249 54.2657,129.249 50.5,130C 39.9917,130.825 29.6584,130.659 19.5,129.5C 20.3472,127.156 22.0139,125.656 24.5,125C 35.5456,124.789 46.5456,124.289 57.5,123.5 Z"/></g>
<g><path style="opacity:1" fill="#5aa2c2" d="M 104.5,124.5 C 111.508,124.334 118.508,124.5 125.5,125C 126.571,125.852 127.571,126.685 128.5,127.5C 128.715,129.179 128.048,130.179 126.5,130.5C 117.808,130.831 109.141,130.498 100.5,129.5C 102.552,128.389 103.886,126.723 104.5,124.5 Z"/></g>
<g><path style="opacity:1" fill="#348db5" d="M 81.5,124.5 C 85.8333,124.5 90.1667,124.5 94.5,124.5C 97.8333,124.5 101.167,124.5 104.5,124.5C 103.886,126.723 102.552,128.389 100.5,129.5C 109.141,130.498 117.808,130.831 126.5,130.5C 125.251,132.136 123.584,133.303 121.5,134C 108.504,134.5 95.5043,134.667 82.5,134.5C 80.8333,133.5 79.5,132.167 78.5,130.5C 78.4551,127.923 79.4551,125.923 81.5,124.5 Z"/></g>
<g><path style="opacity:1" fill="#25637f" d="M 70.5,131.5 C 67.0565,135.222 62.7232,137.389 57.5,138C 43.8374,138.5 30.1707,138.667 16.5,138.5C 16.2155,136.585 16.5489,134.919 17.5,133.5C 17.3433,134.873 17.51,136.207 18,137.5C 19.9449,136.137 22.1116,135.303 24.5,135C 37.1667,134.667 49.8333,134.333 62.5,134C 65.022,132.659 67.6887,131.826 70.5,131.5 Z"/></g>
<g><path style="opacity:1" fill="#266784" d="M 128.5,127.5 C 130.942,129.121 132.275,131.454 132.5,134.5C 132.5,135.833 132.5,137.167 132.5,138.5C 119.833,138.5 107.167,138.5 94.5,138.5C 90.0463,138.217 86.0463,136.884 82.5,134.5C 95.5043,134.667 108.504,134.5 121.5,134C 123.584,133.303 125.251,132.136 126.5,130.5C 128.048,130.179 128.715,129.179 128.5,127.5 Z"/></g>
<g><path style="opacity:1" fill="#102731" d="M 132.5,134.5 C 133.451,135.919 133.784,137.585 133.5,139.5C 120.323,139.829 107.323,139.495 94.5,138.5C 107.167,138.5 119.833,138.5 132.5,138.5C 132.5,137.167 132.5,135.833 132.5,134.5 Z"/></g>
</svg>
