<?xml version="1.0" encoding="UTF-8"?>
<!DOCTYPE svg PUBLIC "-//W3C//DTD SVG 1.1//EN" "http://www.w3.org/Graphics/SVG/1.1/DTD/svg11.dtd">
<svg xmlns="http://www.w3.org/2000/svg" version="1.1" width="150px" height="150px" style="shape-rendering:geometricPrecision; text-rendering:geometricPrecision; image-rendering:optimizeQuality; fill-rule:evenodd; clip-rule:evenodd" xmlns:xlink="http://www.w3.org/1999/xlink">
<g><path style="opacity:0.405" fill="#070d10" d="M 68.5,5.5 C 72.6845,6.16641 77.0178,6.83308 81.5,7.5C 80.6072,10.0841 80.2739,12.7508 80.5,15.5C 80.1667,15.5 79.8333,15.5 79.5,15.5C 79.5,13.1667 79.5,10.8333 79.5,8.5C 78.5,8.5 77.5,8.5 76.5,8.5C 74.5,8.5 72.5,8.5 70.5,8.5C 70.5,10.8333 70.5,13.1667 70.5,15.5C 67.8333,15.5 65.1667,15.5 62.5,15.5C 62.5,18.8333 62.5,22.1667 62.5,25.5C 65.1667,25.5 67.8333,25.5 70.5,25.5C 70.5,27.8333 70.5,30.1667 70.5,32.5C 72.1667,32.5 73.8333,32.5 75.5,32.5C 76.8333,32.5 78.1667,32.5 79.5,32.5C 79.1984,29.9407 79.5318,27.6074 80.5,25.5C 79.2106,32.0263 81.8773,34.8596 88.5,34C 87.944,34.3826 87.6107,34.8826 87.5,35.5C 78.6506,35.1736 69.9839,35.507 61.5,36.5C 50.5063,37.2763 40.173,40.2763 30.5,45.5C 29.8333,44.8333 29.1667,44.1667 28.5,43.5C 40.1416,36.6232 52.8083,32.9565 66.5,32.5C 66.5,31.1667 66.5,29.8333 66.5,28.5C 64.1667,28.5 61.8333,28.5 59.5,28.5C 59.5,23.1667 59.5,17.8333 59.5,12.5C 61.8333,12.5 64.1667,12.5 66.5,12.5C 65.9898,9.61221 66.6565,7.27887 68.5,5.5 Z"/></g>
<g><path style="opacity:1" fill="#358db5" d="M 76.5,8.5 C 77.5,8.5 78.5,8.5 79.5,8.5C 79.5,10.8333 79.5,13.1667 79.5,15.5C 81.6074,16.4682 83.9407,16.8016 86.5,16.5C 86.5,17.8333 86.5,19.1667 86.5,20.5C 77.67,19.6657 74.0033,23.6657 75.5,32.5C 73.8333,32.5 72.1667,32.5 70.5,32.5C 70.5,30.1667 70.5,27.8333 70.5,25.5C 67.8333,25.5 65.1667,25.5 62.5,25.5C 62.5,22.1667 62.5,18.8333 62.5,15.5C 65.1667,15.5 67.8333,15.5 70.5,15.5C 68.3926,16.4682 66.0593,16.8016 63.5,16.5C 63.3379,18.5273 63.5045,20.5273 64,22.5C 72.2075,21.4584 76.3741,16.7918 76.5,8.5 Z"/></g>
<g><path style="opacity:1" fill="#59a4c6" d="M 76.5,8.5 C 76.3741,16.7918 72.2075,21.4584 64,22.5C 63.5045,20.5273 63.3379,18.5273 63.5,16.5C 66.0593,16.8016 68.3926,16.4682 70.5,15.5C 70.5,13.1667 70.5,10.8333 70.5,8.5C 72.5,8.5 74.5,8.5 76.5,8.5 Z"/></g>
<g><path style="opacity:1" fill="#25627e" d="M 79.5,15.5 C 79.8333,15.5 80.1667,15.5 80.5,15.5C 82.8333,15.5 85.1667,15.5 87.5,15.5C 87.5,18.8333 87.5,22.1667 87.5,25.5C 85.1667,25.5 82.8333,25.5 80.5,25.5C 79.5318,27.6074 79.1984,29.9407 79.5,32.5C 78.1667,32.5 76.8333,32.5 75.5,32.5C 74.0033,23.6657 77.67,19.6657 86.5,20.5C 86.5,19.1667 86.5,17.8333 86.5,16.5C 83.9407,16.8016 81.6074,16.4682 79.5,15.5 Z"/></g>
<g><path style="opacity:1" fill="#183643" d="M 87.5,35.5 C 90.4951,35.2938 93.1617,35.9605 95.5,37.5C 92.5718,37.4349 89.9052,36.7682 87.5,35.5 Z"/></g>
<g><path style="opacity:1" fill="#348eb6" d="M 61.5,36.5 C 69.9839,35.507 78.6506,35.1736 87.5,35.5C 89.9052,36.7682 92.5718,37.4349 95.5,37.5C 104.235,38.9675 112.569,41.6342 120.5,45.5C 110.854,45.2766 102.521,48.6099 95.5,55.5C 93.4518,52.785 91.1184,50.4517 88.5,48.5C 88.6495,47.448 88.4828,46.448 88,45.5C 80.9323,37.8819 72.099,34.8819 61.5,36.5 Z"/></g>
<g><path style="opacity:1" fill="#549ebf" d="M 61.5,36.5 C 72.099,34.8819 80.9323,37.8819 88,45.5C 88.4828,46.448 88.6495,47.448 88.5,48.5C 79.3799,44.4231 70.3799,44.5897 61.5,49C 58.9598,51.2047 56.7932,53.7047 55,56.5C 48.1643,48.8407 39.6643,45.174 29.5,45.5C 29.8333,45.5 30.1667,45.5 30.5,45.5C 40.173,40.2763 50.5063,37.2763 61.5,36.5 Z"/></g>
<g><path style="opacity:1" fill="#286987" d="M 82.5,49.5 C 80.8333,49.5 79.1667,49.5 77.5,49.5C 71.8416,50.4775 67.5083,53.4775 64.5,58.5C 66.1329,60.3872 65.7996,61.8872 63.5,63C 64.1667,64 64.8333,65 65.5,66C 62.9659,68.5867 62.9659,71.2533 65.5,74C 65.5385,75.2447 65.2052,76.5781 64.5,78C 65.9515,86.619 67.2849,95.119 68.5,103.5C 71.1667,103.5 73.8333,103.5 76.5,103.5C 79.1667,103.5 81.8333,103.5 84.5,103.5C 84.2155,101.585 84.5489,99.9187 85.5,98.5C 85.5,100.5 85.5,102.5 85.5,104.5C 78.8333,104.5 72.1667,104.5 65.5,104.5C 64.7063,100.642 64.0397,96.6423 63.5,92.5C 62.7828,82.6295 60.9495,72.9629 58,63.5C 57.1961,54.6126 61.3627,49.4459 70.5,48C 74.7809,47.2015 78.7809,47.7015 82.5,49.5 Z"/></g>
<g><path style="opacity:1" fill="#296d8c" d="M 118.5,49.5 C 122.914,49.3903 123.914,50.7236 121.5,53.5C 121.631,52.6236 121.298,51.9569 120.5,51.5C 115.401,52.686 110.401,54.186 105.5,56C 102.697,60.4361 99.5307,64.6028 96,68.5C 95.3112,71.4081 94.1445,74.0748 92.5,76.5C 93.1667,77.8333 93.8333,79.1667 94.5,80.5C 91.0443,87.3557 89.0443,95.0224 88.5,103.5C 89.8333,103.5 91.1667,103.5 92.5,103.5C 93.8333,103.5 95.1667,103.5 96.5,103.5C 97.5,103.5 98.5,103.5 99.5,103.5C 99.5,104.167 99.1667,104.5 98.5,104.5C 94.8333,104.5 91.1667,104.5 87.5,104.5C 88.5175,88.3938 91.6842,72.7272 97,57.5C 102.86,51.3202 110.026,48.6536 118.5,49.5 Z"/></g>
<g><path style="opacity:1" fill="#348fb8" d="M 45.5,52.5 C 48.6433,53.1335 51.1433,54.8002 53,57.5C 55.1448,63.4147 56.9782,69.4147 58.5,75.5C 57.8826,75.3893 57.3826,75.056 57,74.5C 54.1711,76.8286 53.0045,79.8286 53.5,83.5C 54.502,90.1746 55.502,96.8413 56.5,103.5C 54.8333,103.5 53.1667,103.5 51.5,103.5C 51.8799,101.302 51.2132,99.6354 49.5,98.5C 49.3713,96.7839 49.038,95.1172 48.5,93.5C 48.5394,92.4168 48.8728,91.4168 49.5,90.5C 43.4463,79.6562 40.2797,67.9895 40,55.5C 41.2635,53.393 43.0968,52.393 45.5,52.5 Z"/></g>
<g><path style="opacity:1" fill="#2b7596" d="M 30.5,49.5 C 35.939,48.9819 40.939,49.9819 45.5,52.5C 43.0968,52.393 41.2635,53.393 40,55.5C 40.2797,67.9895 43.4463,79.6562 49.5,90.5C 48.8728,91.4168 48.5394,92.4168 48.5,93.5C 42.274,79.1833 35.274,65.1833 27.5,51.5C 28.0047,50.0815 29.0047,49.4148 30.5,49.5 Z"/></g>
<g><path style="opacity:1" fill="#338db5" d="M 77.5,49.5 C 79.1667,49.5 80.8333,49.5 82.5,49.5C 88.248,50.5809 91.5813,53.9142 92.5,59.5C 84.0801,55.6272 78.9135,58.2939 77,67.5C 76.5001,79.4954 76.3335,91.4954 76.5,103.5C 73.8333,103.5 71.1667,103.5 68.5,103.5C 67.6368,89.0171 67.1368,74.3505 67,59.5C 69.393,54.9074 72.893,51.5741 77.5,49.5 Z"/></g>
<g><path style="opacity:1" fill="#10191e" d="M 29.5,45.5 C 39.6643,45.174 48.1643,48.8407 55,56.5C 56.7932,53.7047 58.9598,51.2047 61.5,49C 70.3799,44.5897 79.3799,44.4231 88.5,48.5C 91.1184,50.4517 93.4518,52.785 95.5,55.5C 102.521,48.6099 110.854,45.2766 120.5,45.5C 121.289,45.7828 121.956,46.2828 122.5,47C 118.833,47.3333 115.167,47.6667 111.5,48C 114.036,48.1862 116.369,48.6862 118.5,49.5C 110.026,48.6536 102.86,51.3202 97,57.5C 91.6842,72.7272 88.5175,88.3938 87.5,104.5C 91.1667,104.5 94.8333,104.5 98.5,104.5C 95.023,105.323 91.3563,105.823 87.5,106C 91.6877,106.176 95.6877,106.676 99.5,107.5C 85.1667,107.5 70.8333,107.5 56.5,107.5C 54.5,107.5 52.5,107.5 50.5,107.5C 61.9928,106.669 73.6595,106.169 85.5,106C 78.654,105.828 71.9874,105.328 65.5,104.5C 72.1667,104.5 78.8333,104.5 85.5,104.5C 85.5,102.5 85.5,100.5 85.5,98.5C 86.6823,85.4067 89.0156,72.4067 92.5,59.5C 91.5813,53.9142 88.248,50.5809 82.5,49.5C 78.7809,47.7015 74.7809,47.2015 70.5,48C 61.3627,49.4459 57.1961,54.6126 58,63.5C 60.9495,72.9629 62.7828,82.6295 63.5,92.5C 62.6618,92.8417 62.3284,93.5084 62.5,94.5C 62.1667,94.5 61.8333,94.5 61.5,94.5C 60.8229,88.1049 59.8229,81.7716 58.5,75.5C 56.9782,69.4147 55.1448,63.4147 53,57.5C 51.1433,54.8002 48.6433,53.1335 45.5,52.5C 40.939,49.9819 35.939,48.9819 30.5,49.5C 32.9686,48.6829 35.6353,48.1829 38.5,48C 34.8333,47.6667 31.1667,47.3333 27.5,47C 28.0442,46.2828 28.7109,45.7828 29.5,45.5 Z"/></g>
<g><path style="opacity:1" fill="#2c789a" d="M 77.5,49.5 C 72.893,51.5741 69.393,54.9074 67,59.5C 67.1368,74.3505 67.6368,89.0171 68.5,103.5C 67.2849,95.119 65.9515,86.619 64.5,78C 65.2052,76.5781 65.5385,75.2447 65.5,74C 62.9659,71.2533 62.9659,68.5867 65.5,66C 64.8333,65 64.1667,64 63.5,63C 65.7996,61.8872 66.1329,60.3872 64.5,58.5C 67.5083,53.4775 71.8416,50.4775 77.5,49.5 Z"/></g>
<g><path style="opacity:1" fill="#4b99bc" d="M 92.5,59.5 C 89.0156,72.4067 86.6823,85.4067 85.5,98.5C 84.5489,99.9187 84.2155,101.585 84.5,103.5C 81.8333,103.5 79.1667,103.5 76.5,103.5C 76.3335,91.4954 76.5001,79.4954 77,67.5C 78.9135,58.2939 84.0801,55.6272 92.5,59.5 Z"/></g>
<g><path style="opacity:1" fill="#338cb4" d="M 119.5,57.5 C 118.32,60.5396 116.653,63.2063 114.5,65.5C 109.385,64.8378 105.885,67.1712 104,72.5C 101.335,82.8258 98.835,93.1591 96.5,103.5C 95.1667,103.5 93.8333,103.5 92.5,103.5C 92.2606,101.533 92.5939,99.6995 93.5,98C 91.4277,95.0334 91.4277,92.3667 93.5,90C 93.1667,89.6667 92.8333,89.3333 92.5,89C 95.4347,84.1973 97.1014,79.1973 97.5,74C 100,70.1625 101.834,65.9958 103,61.5C 107.096,58.9158 111.429,56.9158 116,55.5C 117.681,55.6083 118.848,56.2749 119.5,57.5 Z"/></g>
<g><path style="opacity:1" fill="#2e7ea2" d="M 121.5,53.5 C 121.011,54.9952 120.345,56.3285 119.5,57.5C 118.848,56.2749 117.681,55.6083 116,55.5C 111.429,56.9158 107.096,58.9158 103,61.5C 101.834,65.9958 100,70.1625 97.5,74C 97.1014,79.1973 95.4347,84.1973 92.5,89C 92.8333,89.3333 93.1667,89.6667 93.5,90C 91.4277,92.3667 91.4277,95.0334 93.5,98C 92.5939,99.6995 92.2606,101.533 92.5,103.5C 91.1667,103.5 89.8333,103.5 88.5,103.5C 89.0443,95.0224 91.0443,87.3557 94.5,80.5C 93.8333,79.1667 93.1667,77.8333 92.5,76.5C 94.1445,74.0748 95.3112,71.4081 96,68.5C 99.5307,64.6028 102.697,60.4361 105.5,56C 110.401,54.186 115.401,52.686 120.5,51.5C 121.298,51.9569 121.631,52.6236 121.5,53.5 Z"/></g>
<g><path style="opacity:1" fill="#4b97ba" d="M 58.5,75.5 C 59.8229,81.7716 60.8229,88.1049 61.5,94.5C 61.5,97.5 61.5,100.5 61.5,103.5C 59.8333,103.5 58.1667,103.5 56.5,103.5C 55.502,96.8413 54.502,90.1746 53.5,83.5C 53.0045,79.8286 54.1711,76.8286 57,74.5C 57.3826,75.056 57.8826,75.3893 58.5,75.5 Z"/></g>
<g><path style="opacity:1" fill="#4b98ba" d="M 114.5,65.5 C 107.922,77.572 102.922,90.2387 99.5,103.5C 98.5,103.5 97.5,103.5 96.5,103.5C 98.835,93.1591 101.335,82.8258 104,72.5C 105.885,67.1712 109.385,64.8378 114.5,65.5 Z"/></g>
<g><path style="opacity:0.485" fill="#060a0c" d="M 68.5,5.5 C 73.5,5.5 78.5,5.5 83.5,5.5C 83.7564,7.7925 83.4231,9.95917 82.5,12C 85.146,12.4974 87.8127,12.6641 90.5,12.5C 90.5,17.8333 90.5,23.1667 90.5,28.5C 87.8127,28.3359 85.146,28.5026 82.5,29C 83.3366,30.0113 83.67,31.1779 83.5,32.5C 97.7534,33.1963 111.087,37.0296 123.5,44C 125.087,45.8448 126.421,47.8448 127.5,50C 117.279,67.1093 108.946,85.1093 102.5,104C 104.374,106.371 106.04,108.871 107.5,111.5C 107.409,115.712 105.409,118.379 101.5,119.5C 103.025,117.784 104.025,115.784 104.5,113.5C 103.581,110.911 101.914,108.911 99.5,107.5C 95.6877,106.676 91.6877,106.176 87.5,106C 91.3563,105.823 95.023,105.323 98.5,104.5C 99.1667,104.5 99.5,104.167 99.5,103.5C 102.922,90.2387 107.922,77.572 114.5,65.5C 116.653,63.2063 118.32,60.5396 119.5,57.5C 120.345,56.3285 121.011,54.9952 121.5,53.5C 123.914,50.7236 122.914,49.3903 118.5,49.5C 116.369,48.6862 114.036,48.1862 111.5,48C 115.167,47.6667 118.833,47.3333 122.5,47C 121.956,46.2828 121.289,45.7828 120.5,45.5C 112.569,41.6342 104.235,38.9675 95.5,37.5C 93.1617,35.9605 90.4951,35.2938 87.5,35.5C 87.6107,34.8826 87.944,34.3826 88.5,34C 81.8773,34.8596 79.2106,32.0263 80.5,25.5C 82.8333,25.5 85.1667,25.5 87.5,25.5C 87.5,22.1667 87.5,18.8333 87.5,15.5C 85.1667,15.5 82.8333,15.5 80.5,15.5C 80.2739,12.7508 80.6072,10.0841 81.5,7.5C 77.0178,6.83308 72.6845,6.16641 68.5,5.5 Z"/></g>
<g><path style="opacity:0.988" fill="#0a1013" d="M 28.5,43.5 C 29.1667,44.1667 29.8333,44.8333 30.5,45.5C 30.1667,45.5 29.8333,45.5 29.5,45.5C 28.7109,45.7828 28.0442,46.2828 27.5,47C 31.1667,47.3333 34.8333,47.6667 38.5,48C 35.6353,48.1829 32.9686,48.6829 30.5,49.5C 29.0047,49.4148 28.0047,50.0815 27.5,51.5C 35.274,65.1833 42.274,79.1833 48.5,93.5C 49.038,95.1172 49.3713,96.7839 49.5,98.5C 50.1495,100.435 50.4828,102.435 50.5,104.5C 54.5,104.5 58.5,104.5 62.5,104.5C 62.5,101.167 62.5,97.8333 62.5,94.5C 62.3284,93.5084 62.6618,92.8417 63.5,92.5C 64.0397,96.6423 64.7063,100.642 65.5,104.5C 71.9874,105.328 78.654,105.828 85.5,106C 73.6595,106.169 61.9928,106.669 50.5,107.5C 47.6356,109.023 45.969,111.357 45.5,114.5C 46.5,117.5 48.5,119.5 51.5,120.5C 66.324,121.496 81.324,121.829 96.5,121.5C 82.3392,122.331 68.0059,122.831 53.5,123C 67.6727,123.169 81.6727,123.669 95.5,124.5C 75.1639,124.333 54.8306,124.5 34.5,125C 32.6769,125.997 31.0103,127.164 29.5,128.5C 28.8902,127.609 28.5569,126.609 28.5,125.5C 29.0577,124.21 30.0577,123.377 31.5,123C 35.8551,121.896 40.1884,120.729 44.5,119.5C 42.9702,117.774 41.9702,115.774 41.5,113.5C 43.7206,110.452 45.7206,107.285 47.5,104C 41.5942,84.8563 33.2609,66.8563 22.5,50C 23.4983,46.786 25.4983,44.6194 28.5,43.5 Z"/></g>
<g><path style="opacity:1" fill="#30677f" d="M 61.5,94.5 C 61.8333,94.5 62.1667,94.5 62.5,94.5C 62.5,97.8333 62.5,101.167 62.5,104.5C 58.5,104.5 54.5,104.5 50.5,104.5C 50.4828,102.435 50.1495,100.435 49.5,98.5C 51.2132,99.6354 51.8799,101.302 51.5,103.5C 53.1667,103.5 54.8333,103.5 56.5,103.5C 58.1667,103.5 59.8333,103.5 61.5,103.5C 61.5,100.5 61.5,97.5 61.5,94.5 Z"/></g>
<g><path style="opacity:1" fill="#348cb4" d="M 56.5,107.5 C 70.8333,107.5 85.1667,107.5 99.5,107.5C 101.914,108.911 103.581,110.911 104.5,113.5C 101.833,113.5 99.1667,113.5 96.5,113.5C 83.0605,112.268 69.7271,110.268 56.5,107.5 Z"/></g>
<g><path style="opacity:1" fill="#559fc1" d="M 50.5,107.5 C 52.5,107.5 54.5,107.5 56.5,107.5C 69.7271,110.268 83.0605,112.268 96.5,113.5C 95.609,114.11 94.609,114.443 93.5,114.5C 77.5,114.5 61.5,114.5 45.5,114.5C 45.969,111.357 47.6356,109.023 50.5,107.5 Z"/></g>
<g><path style="opacity:1" fill="#3186ac" d="M 45.5,114.5 C 61.5,114.5 77.5,114.5 93.5,114.5C 87.6485,115.717 81.8151,117.05 76,118.5C 75.6667,118.167 75.3333,117.833 75,117.5C 67.2353,118.768 59.402,119.768 51.5,120.5C 48.5,119.5 46.5,117.5 45.5,114.5 Z"/></g>
<g><path style="opacity:1" fill="#286e8d" d="M 96.5,113.5 C 99.1667,113.5 101.833,113.5 104.5,113.5C 104.025,115.784 103.025,117.784 101.5,119.5C 99.8333,120.167 98.1667,120.833 96.5,121.5C 81.324,121.829 66.324,121.496 51.5,120.5C 59.402,119.768 67.2353,118.768 75,117.5C 75.3333,117.833 75.6667,118.167 76,118.5C 81.8151,117.05 87.6485,115.717 93.5,114.5C 94.609,114.443 95.609,114.11 96.5,113.5 Z"/></g>
<g><path style="opacity:1" fill="#59a2c3" d="M 95.5,124.5 C 100.833,124.5 106.167,124.5 111.5,124.5C 109.388,127.063 106.721,128.896 103.5,130C 78.6632,130.83 53.9966,130.663 29.5,129.5C 29.5,129.167 29.5,128.833 29.5,128.5C 31.0103,127.164 32.6769,125.997 34.5,125C 54.8306,124.5 75.1639,124.333 95.5,124.5 Z"/></g>
<g><path style="opacity:1" fill="#338cb4" d="M 111.5,124.5 C 114.491,124.166 116.824,125.166 118.5,127.5C 117.316,130.849 114.983,133.015 111.5,134C 83.8353,134.5 56.1687,134.667 28.5,134.5C 28.5,133.5 28.5,132.5 28.5,131.5C 28.3284,130.508 28.6618,129.842 29.5,129.5C 53.9966,130.663 78.6632,130.83 103.5,130C 106.721,128.896 109.388,127.063 111.5,124.5 Z"/></g>
<g><path style="opacity:1" fill="#05090b" d="M 107.5,111.5 C 108.625,114.52 107.959,117.353 105.5,120C 120.13,119.796 127.13,126.962 126.5,141.5C 92.1667,141.5 57.8333,141.5 23.5,141.5C 23.7811,137.812 24.2811,134.145 25,130.5C 25.6972,128.416 26.8639,126.749 28.5,125.5C 28.5569,126.609 28.8902,127.609 29.5,128.5C 29.5,128.833 29.5,129.167 29.5,129.5C 28.6618,129.842 28.3284,130.508 28.5,131.5C 27.5489,132.919 27.2155,134.585 27.5,136.5C 26.596,137.209 26.2627,138.209 26.5,139.5C 58.8333,139.5 91.1667,139.5 123.5,139.5C 123.795,137.265 123.461,135.265 122.5,133.5C 121.66,131.147 120.326,129.147 118.5,127.5C 116.824,125.166 114.491,124.166 111.5,124.5C 106.167,124.5 100.833,124.5 95.5,124.5C 81.6727,123.669 67.6727,123.169 53.5,123C 68.0059,122.831 82.3392,122.331 96.5,121.5C 98.1667,120.833 99.8333,120.167 101.5,119.5C 105.409,118.379 107.409,115.712 107.5,111.5 Z"/></g>
<g><path style="opacity:1" fill="#266582" d="M 118.5,127.5 C 120.326,129.147 121.66,131.147 122.5,133.5C 122.5,135.167 122.5,136.833 122.5,138.5C 90.4824,139.159 58.8157,138.493 27.5,136.5C 27.2155,134.585 27.5489,132.919 28.5,131.5C 28.5,132.5 28.5,133.5 28.5,134.5C 56.1687,134.667 83.8353,134.5 111.5,134C 114.983,133.015 117.316,130.849 118.5,127.5 Z"/></g>
<g><path style="opacity:1" fill="#102630" d="M 122.5,133.5 C 123.461,135.265 123.795,137.265 123.5,139.5C 91.1667,139.5 58.8333,139.5 26.5,139.5C 26.2627,138.209 26.596,137.209 27.5,136.5C 58.8157,138.493 90.4824,139.159 122.5,138.5C 122.5,136.833 122.5,135.167 122.5,133.5 Z"/></g>
</svg>
