<?xml version="1.0" encoding="UTF-8"?>
<!DOCTYPE svg PUBLIC "-//W3C//DTD SVG 1.1//EN" "http://www.w3.org/Graphics/SVG/1.1/DTD/svg11.dtd">
<svg xmlns="http://www.w3.org/2000/svg" version="1.1" width="150px" height="150px" style="shape-rendering:geometricPrecision; text-rendering:geometricPrecision; image-rendering:optimizeQuality; fill-rule:evenodd; clip-rule:evenodd" xmlns:xlink="http://www.w3.org/1999/xlink">
<g><path style="opacity:0.498" fill="#080e10" d="M 35.5,120.5 C 36.2216,120.918 36.7216,121.584 37,122.5C 38.0113,121.663 39.1779,121.33 40.5,121.5C 43.1667,121.5 45.8333,121.5 48.5,121.5C 59.8333,121.5 71.1667,121.5 82.5,121.5C 84.5,121.5 86.5,121.5 88.5,121.5C 93.5111,121.666 98.5111,121.499 103.5,121C 105.32,120.8 106.653,119.966 107.5,118.5C 109.308,118.509 110.975,118.009 112.5,117C 114.907,114.262 116.907,111.262 118.5,108C 115.598,105.031 113.598,101.531 112.5,97.5C 112.338,95.4727 112.505,93.4727 113,91.5C 114.777,88.9406 116.277,86.2739 117.5,83.5C 121.704,80.0844 121.371,77.0844 116.5,74.5C 114.074,68.4474 112.908,62.114 113,55.5C 112.243,53.6854 111.41,52.0188 110.5,50.5C 109.393,47.6306 107.393,45.6306 104.5,44.5C 103.507,39.8804 103.173,35.2137 103.5,30.5C 101.5,30.5 99.5,30.5 97.5,30.5C 92.9996,29.6262 88.6663,28.2929 84.5,26.5C 80.9017,24.2597 76.9017,22.9264 72.5,22.5C 68.8954,21.0371 65.2287,19.5371 61.5,18C 59.1902,17.5034 56.8568,17.3367 54.5,17.5C 54.3542,20.9556 54.1876,24.6223 54,28.5C 52.9609,29.7101 51.7942,30.7101 50.5,31.5C 48.2459,32.4151 46.2459,33.7484 44.5,35.5C 46.0512,32.4372 48.2179,29.7705 51,27.5C 51.0759,23.181 50.9093,18.8476 50.5,14.5C 54.5138,14.3345 58.5138,14.5012 62.5,15C 72.7034,18.0683 82.7034,21.7349 92.5,26C 97.149,26.8129 101.649,27.3129 106,27.5C 107.161,32.4164 107.827,37.4164 108,42.5C 111.058,44.9573 113.392,47.9573 115,51.5C 116.06,57.4805 117.06,63.4805 118,69.5C 119.425,72.9221 121.592,75.7554 124.5,78C 121.241,83.7424 118.241,89.5758 115.5,95.5C 115.899,97.1966 116.399,98.8632 117,100.5C 119.222,102.385 121.056,104.551 122.5,107C 120.692,113.139 117.026,117.806 111.5,121C 121.795,123.822 126.462,130.655 125.5,141.5C 91.1667,141.5 56.8333,141.5 22.5,141.5C 21.5679,130.997 25.9012,123.997 35.5,120.5 Z"/></g>
<g><path style="opacity:1" fill="#368eb6" d="M 54.5,17.5 C 56.8568,17.3367 59.1902,17.5034 61.5,18C 65.2287,19.5371 68.8954,21.0371 72.5,22.5C 74.3531,25.2084 75.3531,28.2084 75.5,31.5C 77.9468,31.385 79.9468,30.385 81.5,28.5C 85.9451,29.729 89.2784,32.3956 91.5,36.5C 92.931,36.9766 94.2643,37.6433 95.5,38.5C 96.6462,42.4882 98.4795,46.1548 101,49.5C 103.131,58.9125 102.964,68.2458 100.5,77.5C 97.6508,77.267 95.4841,75.9337 94,73.5C 92.887,74.7604 92.7203,75.927 93.5,77C 92.5787,78.756 91.412,78.9227 90,77.5C 87.9947,78.8387 86.328,80.5053 85,82.5C 82.5214,80.0343 80.0214,77.701 77.5,75.5C 84.1465,69.2674 86.6465,61.6007 85,52.5C 84.1482,51.4293 83.3149,50.4293 82.5,49.5C 82.5,48.8333 82.1667,48.5 81.5,48.5C 81.44,47.9569 81.1067,47.6236 80.5,47.5C 79.5091,51.4454 79.1758,55.4454 79.5,59.5C 74.4376,63.2214 69.1043,66.5547 63.5,69.5C 63.5618,66.7716 63.5618,63.9383 63.5,61C 66.1094,58.8398 68.7761,57.6731 71.5,57.5C 70.4688,56.2997 69.6355,54.9663 69,53.5C 67.3718,54.0966 65.7051,53.7633 64,52.5C 60.8585,56.4535 57.0252,57.4535 52.5,55.5C 55.4783,51.9315 54.9783,48.9315 51,46.5C 51.1484,45.175 50.9817,44.0084 50.5,43C 51,42.5 51.5,42 52,41.5C 52.3333,42.8333 52.6667,44.1667 53,45.5C 53.3768,44.0577 54.2101,43.0577 55.5,42.5C 57.7508,43.8647 59.7508,43.5314 61.5,41.5C 62.2389,41.631 62.9056,41.4643 63.5,41C 63.3267,38.5931 63.3267,36.2598 63.5,34C 65.1124,33.2797 66.6124,33.4464 68,34.5C 68.5,34 69,33.5 69.5,33C 67.3921,32.6401 65.3921,31.9734 63.5,31C 65.0449,29.3123 66.0449,27.3123 66.5,25C 65.6477,23.2716 64.6477,23.105 63.5,24.5C 62.1667,23.8333 60.8333,23.1667 59.5,22.5C 58.1606,28.4051 56.8272,28.5718 55.5,23C 55.7549,21.6739 56.4216,20.6739 57.5,20C 55.8807,19.7645 54.8807,18.9311 54.5,17.5 Z"/></g>
<g><path style="opacity:1" fill="#10181d" d="M 59.5,22.5 C 60.8333,23.1667 62.1667,23.8333 63.5,24.5C 65.4788,28.9754 64.4788,30.1421 60.5,28C 59.5939,26.3005 59.2606,24.4672 59.5,22.5 Z"/></g>
<g><path style="opacity:1" fill="#356b84" d="M 72.5,22.5 C 76.9017,22.9264 80.9017,24.2597 84.5,26.5C 82.9731,26.427 81.9731,27.0937 81.5,28.5C 79.9468,30.385 77.9468,31.385 75.5,31.5C 75.3531,28.2084 74.3531,25.2084 72.5,22.5 Z"/></g>
<g><path style="opacity:1" fill="#0b1216" d="M 61.5,41.5 C 59.7508,43.5314 57.7508,43.8647 55.5,42.5C 54.9423,41.2101 53.9423,40.3768 52.5,40C 54.6829,37.6496 57.0163,35.483 59.5,33.5C 60.7946,36.0119 61.4613,38.6786 61.5,41.5 Z"/></g>
<g><path style="opacity:1" fill="#3589af" d="M 54.5,17.5 C 54.8807,18.9311 55.8807,19.7645 57.5,20C 56.4216,20.6739 55.7549,21.6739 55.5,23C 56.8272,28.5718 58.1606,28.4051 59.5,22.5C 59.2606,24.4672 59.5939,26.3005 60.5,28C 64.4788,30.1421 65.4788,28.9754 63.5,24.5C 64.6477,23.105 65.6477,23.2716 66.5,25C 66.0449,27.3123 65.0449,29.3123 63.5,31C 65.3921,31.9734 67.3921,32.6401 69.5,33C 69,33.5 68.5,34 68,34.5C 66.6124,33.4464 65.1124,33.2797 63.5,34C 63.3267,36.2598 63.3267,38.5931 63.5,41C 62.9056,41.4643 62.2389,41.631 61.5,41.5C 61.4613,38.6786 60.7946,36.0119 59.5,33.5C 57.0163,35.483 54.6829,37.6496 52.5,40C 53.9423,40.3768 54.9423,41.2101 55.5,42.5C 54.2101,43.0577 53.3768,44.0577 53,45.5C 52.6667,44.1667 52.3333,42.8333 52,41.5C 51.5,42 51,42.5 50.5,43C 50.9817,44.0084 51.1484,45.175 51,46.5C 54.9783,48.9315 55.4783,51.9315 52.5,55.5C 57.0252,57.4535 60.8585,56.4535 64,52.5C 65.7051,53.7633 67.3718,54.0966 69,53.5C 69.6355,54.9663 70.4688,56.2997 71.5,57.5C 68.7761,57.6731 66.1094,58.8398 63.5,61C 63.5618,63.9383 63.5618,66.7716 63.5,69.5C 63.2648,70.0967 62.7648,70.4301 62,70.5C 59.9149,69.8758 58.0816,68.8758 56.5,67.5C 56.1541,65.6372 55.1541,64.8039 53.5,65C 49.2241,68.6207 45.2241,72.4541 41.5,76.5C 39.8273,78.0863 37.8273,78.7529 35.5,78.5C 33.9719,78.4827 33.4719,77.816 34,76.5C 36.3333,74.9938 38.5,73.3271 40.5,71.5C 40,71.1667 39.5,70.8333 39,70.5C 26.568,79.489 22.4013,76.489 26.5,61.5C 33.4272,56.4078 39.5939,50.4078 45,43.5C 45.2497,38.7573 47.0831,34.7573 50.5,31.5C 51.7942,30.7101 52.9609,29.7101 54,28.5C 54.1876,24.6223 54.3542,20.9556 54.5,17.5 Z"/></g>
<g><path style="opacity:1" fill="#3481a5" d="M 84.5,26.5 C 88.6663,28.2929 92.9996,29.6262 97.5,30.5C 99.4623,33.9161 99.4623,37.5828 97.5,41.5C 100.547,43.9181 102.88,46.9181 104.5,50.5C 103.596,53.3076 104.263,55.8076 106.5,58C 105.866,60.0745 105.532,62.2412 105.5,64.5C 105.59,66.9637 106.257,69.1303 107.5,71C 105.408,71.9525 105.075,73.2859 106.5,75C 105.552,75.4828 104.552,75.6495 103.5,75.5C 103.526,84.7223 100.192,92.7223 93.5,99.5C 93.7093,100.086 94.0426,100.586 94.5,101C 92.8339,103.48 92.0006,106.313 92,109.5C 88.9684,113.359 85.8017,117.026 82.5,120.5C 82.6816,118.409 82.3482,116.409 81.5,114.5C 81.4861,110.378 83.4861,107.878 87.5,107C 88.478,105.025 89.8113,103.358 91.5,102C 92.6155,100.765 92.6155,99.5984 91.5,98.5C 95.544,93.1843 98.8773,87.5176 101.5,81.5C 100.754,80.2638 100.421,78.9305 100.5,77.5C 102.964,68.2458 103.131,58.9125 101,49.5C 98.4795,46.1548 96.6462,42.4882 95.5,38.5C 94.2643,37.6433 92.931,36.9766 91.5,36.5C 89.2784,32.3956 85.9451,29.729 81.5,28.5C 81.9731,27.0937 82.9731,26.427 84.5,26.5 Z"/></g>
<g><path style="opacity:1" fill="#1d3e4e" d="M 81.5,48.5 C 80.8333,52.1667 80.1667,55.8333 79.5,59.5C 79.1758,55.4454 79.5091,51.4454 80.5,47.5C 81.1067,47.6236 81.44,47.9569 81.5,48.5 Z"/></g>
<g><path style="opacity:1" fill="#457d97" d="M 110.5,50.5 C 111.41,52.0188 112.243,53.6854 113,55.5C 112.908,62.114 114.074,68.4474 116.5,74.5C 118.182,77.2899 117.682,79.6233 115,81.5C 113.331,80.1537 112.164,78.487 111.5,76.5C 109.957,71.6811 109.291,66.6811 109.5,61.5C 109.501,57.6508 109.835,53.9841 110.5,50.5 Z"/></g>
<g><path style="opacity:1" fill="#24627d" d="M 82.5,49.5 C 83.3149,50.4293 84.1482,51.4293 85,52.5C 86.6465,61.6007 84.1465,69.2674 77.5,75.5C 73.9617,77.7685 70.295,79.7685 66.5,81.5C 68.5633,77.4206 69.8967,73.0873 70.5,68.5C 74.4166,66.2922 78.25,63.9589 82,61.5C 82.4988,57.5138 82.6655,53.5138 82.5,49.5 Z"/></g>
<g><path style="opacity:1" fill="#338bb2" d="M 100.5,77.5 C 100.421,78.9305 100.754,80.2638 101.5,81.5C 98.8773,87.5176 95.544,93.1843 91.5,98.5C 92.6155,99.5984 92.6155,100.765 91.5,102C 89.8113,103.358 88.478,105.025 87.5,107C 83.4861,107.878 81.4861,110.378 81.5,114.5C 82.3482,116.409 82.6816,118.409 82.5,120.5C 82.5,120.833 82.5,121.167 82.5,121.5C 71.1667,121.5 59.8333,121.5 48.5,121.5C 49.0398,118.569 48.7065,115.569 47.5,112.5C 48.0639,110.181 48.5639,107.847 49,105.5C 53.6412,100.024 58.4745,94.6906 63.5,89.5C 64.0736,87.9411 64.7402,86.4411 65.5,85C 64.9056,84.5357 64.2389,84.369 63.5,84.5C 64.1667,83.1667 65.1667,82.1667 66.5,81.5C 70.295,79.7685 73.9617,77.7685 77.5,75.5C 80.0214,77.701 82.5214,80.0343 85,82.5C 86.328,80.5053 87.9947,78.8387 90,77.5C 91.412,78.9227 92.5787,78.756 93.5,77C 92.7203,75.927 92.887,74.7604 94,73.5C 95.4841,75.9337 97.6508,77.267 100.5,77.5 Z"/></g>
<g><path style="opacity:1" fill="#2b7596" d="M 97.5,30.5 C 99.5,30.5 101.5,30.5 103.5,30.5C 103.173,35.2137 103.507,39.8804 104.5,44.5C 107.393,45.6306 109.393,47.6306 110.5,50.5C 109.835,53.9841 109.501,57.6508 109.5,61.5C 109.291,66.6811 109.957,71.6811 111.5,76.5C 109.974,77.1047 108.974,78.2714 108.5,80C 109.308,80.3076 109.975,80.8076 110.5,81.5C 110.071,84.1473 108.738,86.1473 106.5,87.5C 107.813,89.5184 107.147,90.6851 104.5,91C 104.957,91.414 105.291,91.914 105.5,92.5C 101.983,94.3836 101.649,96.7169 104.5,99.5C 104.023,100.478 103.357,101.311 102.5,102C 102.888,103.808 102.888,105.475 102.5,107C 101.333,107.5 100.5,108.333 100,109.5C 99.586,109.043 99.086,108.709 98.5,108.5C 97.292,112.122 96.292,115.789 95.5,119.5C 93.901,119.232 92.5676,119.566 91.5,120.5C 90.209,120.263 89.209,120.596 88.5,121.5C 86.5,121.5 84.5,121.5 82.5,121.5C 82.5,121.167 82.5,120.833 82.5,120.5C 85.8017,117.026 88.9684,113.359 92,109.5C 92.0006,106.313 92.8339,103.48 94.5,101C 94.0426,100.586 93.7093,100.086 93.5,99.5C 100.192,92.7223 103.526,84.7223 103.5,75.5C 104.552,75.6495 105.552,75.4828 106.5,75C 105.075,73.2859 105.408,71.9525 107.5,71C 106.257,69.1303 105.59,66.9637 105.5,64.5C 105.532,62.2412 105.866,60.0745 106.5,58C 104.263,55.8076 103.596,53.3076 104.5,50.5C 102.88,46.9181 100.547,43.9181 97.5,41.5C 99.4623,37.5828 99.4623,33.9161 97.5,30.5 Z"/></g>
<g><path style="opacity:1" fill="#214c5f" d="M 117.5,83.5 C 116.277,86.2739 114.777,88.9406 113,91.5C 112.505,93.4727 112.338,95.4727 112.5,97.5C 110.706,92.1688 111.539,87.1688 115,82.5C 115.671,83.2524 116.504,83.5858 117.5,83.5 Z"/></g>
<g><path style="opacity:1" fill="#2a6986" d="M 116.5,74.5 C 121.371,77.0844 121.704,80.0844 117.5,83.5C 116.504,83.5858 115.671,83.2524 115,82.5C 111.539,87.1688 110.706,92.1688 112.5,97.5C 113.598,101.531 115.598,105.031 118.5,108C 116.907,111.262 114.907,114.262 112.5,117C 110.975,118.009 109.308,118.509 107.5,118.5C 102.257,119.81 96.9233,120.476 91.5,120.5C 92.5676,119.566 93.901,119.232 95.5,119.5C 96.292,115.789 97.292,112.122 98.5,108.5C 99.086,108.709 99.586,109.043 100,109.5C 100.5,108.333 101.333,107.5 102.5,107C 102.888,105.475 102.888,103.808 102.5,102C 103.357,101.311 104.023,100.478 104.5,99.5C 101.649,96.7169 101.983,94.3836 105.5,92.5C 105.291,91.914 104.957,91.414 104.5,91C 107.147,90.6851 107.813,89.5184 106.5,87.5C 108.738,86.1473 110.071,84.1473 110.5,81.5C 109.975,80.8076 109.308,80.3076 108.5,80C 108.974,78.2714 109.974,77.1047 111.5,76.5C 112.164,78.487 113.331,80.1537 115,81.5C 117.682,79.6233 118.182,77.2899 116.5,74.5 Z"/></g>
<g><path style="opacity:0.306" fill="#070c0e" d="M 50.5,31.5 C 47.0831,34.7573 45.2497,38.7573 45,43.5C 39.5939,50.4078 33.4272,56.4078 26.5,61.5C 22.4013,76.489 26.568,79.489 39,70.5C 39.5,70.8333 40,71.1667 40.5,71.5C 38.5,73.3271 36.3333,74.9938 34,76.5C 33.4719,77.816 33.9719,78.4827 35.5,78.5C 41.9481,81.028 46.4481,79.028 49,72.5C 50.8864,69.758 53.3864,68.0913 56.5,67.5C 58.0816,68.8758 59.9149,69.8758 62,70.5C 62.7648,70.4301 63.2648,70.0967 63.5,69.5C 69.1043,66.5547 74.4376,63.2214 79.5,59.5C 80.1667,55.8333 80.8333,52.1667 81.5,48.5C 82.1667,48.5 82.5,48.8333 82.5,49.5C 82.6655,53.5138 82.4988,57.5138 82,61.5C 78.25,63.9589 74.4166,66.2922 70.5,68.5C 69.8967,73.0873 68.5633,77.4206 66.5,81.5C 65.1667,82.1667 64.1667,83.1667 63.5,84.5C 54.8769,91.4464 46.2102,98.4464 37.5,105.5C 34.1169,111.84 35.1169,117.174 40.5,121.5C 39.1779,121.33 38.0113,121.663 37,122.5C 36.7216,121.584 36.2216,120.918 35.5,120.5C 31.688,115.13 31.5213,109.464 35,103.5C 41.312,96.8507 48.4786,91.3507 56.5,87C 61.4151,83.425 64.7485,78.7584 66.5,73C 62.3346,74.0991 58.5012,73.2658 55,70.5C 52.1385,73.78 49.6385,77.28 47.5,81C 44.7892,82.2197 41.9559,83.0531 39,83.5C 33.8346,80.8677 28.8346,78.5344 24,76.5C 22.2625,70.9177 22.0959,65.251 23.5,59.5C 30.0987,55.7358 35.5987,50.7358 40,44.5C 41.0465,41.1411 42.5465,38.1411 44.5,35.5C 46.2459,33.7484 48.2459,32.4151 50.5,31.5 Z"/></g>
<g><path style="opacity:1" fill="#256480" d="M 56.5,67.5 C 53.3864,68.0913 50.8864,69.758 49,72.5C 46.4481,79.028 41.9481,81.028 35.5,78.5C 37.8273,78.7529 39.8273,78.0863 41.5,76.5C 45.2241,72.4541 49.2241,68.6207 53.5,65C 55.1541,64.8039 56.1541,65.6372 56.5,67.5 Z"/></g>
<g><path style="opacity:1" fill="#162b36" d="M 33.5,61.5 C 34.2389,61.369 34.9056,61.5357 35.5,62C 34.6198,63.3561 34.2865,64.8561 34.5,66.5C 29.6042,65.7125 29.2709,64.0459 33.5,61.5 Z"/></g>
<g><path style="opacity:1" fill="#4c96b7" d="M 63.5,84.5 C 64.2389,84.369 64.9056,84.5357 65.5,85C 64.7402,86.4411 64.0736,87.9411 63.5,89.5C 58.4745,94.6906 53.6412,100.024 49,105.5C 48.5639,107.847 48.0639,110.181 47.5,112.5C 48.7065,115.569 49.0398,118.569 48.5,121.5C 45.8333,121.5 43.1667,121.5 40.5,121.5C 35.1169,117.174 34.1169,111.84 37.5,105.5C 46.2102,98.4464 54.8769,91.4464 63.5,84.5 Z"/></g>
<g><path style="opacity:1" fill="#1a3a49" d="M 107.5,118.5 C 106.653,119.966 105.32,120.8 103.5,121C 98.5111,121.499 93.5111,121.666 88.5,121.5C 89.209,120.596 90.209,120.263 91.5,120.5C 96.9233,120.476 102.257,119.81 107.5,118.5 Z"/></g>
<g><path style="opacity:1" fill="#58a0c0" d="M 111.5,124.5 C 111.5,125.833 111.5,127.167 111.5,128.5C 84.8632,129.307 58.1965,129.807 31.5,130C 29.5981,131.73 27.9314,133.563 26.5,135.5C 26.5,135.167 26.5,134.833 26.5,134.5C 27.0701,130.088 29.4034,126.922 33.5,125C 59.4979,124.5 85.4979,124.333 111.5,124.5 Z"/></g>
<g><path style="opacity:1" fill="#338ab1" d="M 111.5,124.5 C 113.284,124.893 114.95,125.559 116.5,126.5C 114.892,130.666 111.892,133.499 107.5,135C 90.3329,135.963 73.3329,137.13 56.5,138.5C 46.5,138.5 36.5,138.5 26.5,138.5C 26.5,137.5 26.5,136.5 26.5,135.5C 27.9314,133.563 29.5981,131.73 31.5,130C 58.1965,129.807 84.8632,129.307 111.5,128.5C 111.5,127.167 111.5,125.833 111.5,124.5 Z"/></g>
<g><path style="opacity:1" fill="#256582" d="M 116.5,126.5 C 119.608,128.234 121.274,130.9 121.5,134.5C 121.5,135.833 121.5,137.167 121.5,138.5C 99.8333,138.5 78.1667,138.5 56.5,138.5C 73.3329,137.13 90.3329,135.963 107.5,135C 111.892,133.499 114.892,130.666 116.5,126.5 Z"/></g>
<g><path style="opacity:1" fill="#122a34" d="M 26.5,134.5 C 26.5,134.833 26.5,135.167 26.5,135.5C 26.5,136.5 26.5,137.5 26.5,138.5C 36.5,138.5 46.5,138.5 56.5,138.5C 78.1667,138.5 99.8333,138.5 121.5,138.5C 121.5,137.167 121.5,135.833 121.5,134.5C 122.451,135.919 122.784,137.585 122.5,139.5C 90.1667,139.5 57.8333,139.5 25.5,139.5C 25.2155,137.585 25.5489,135.919 26.5,134.5 Z"/></g>
</svg>
