<?xml version="1.0" encoding="UTF-8"?>
<!DOCTYPE svg PUBLIC "-//W3C//DTD SVG 1.1//EN" "http://www.w3.org/Graphics/SVG/1.1/DTD/svg11.dtd">
<svg xmlns="http://www.w3.org/2000/svg" version="1.1" width="150px" height="150px" style="shape-rendering:geometricPrecision; text-rendering:geometricPrecision; image-rendering:optimizeQuality; fill-rule:evenodd; clip-rule:evenodd" xmlns:xlink="http://www.w3.org/1999/xlink">
<g><path style="opacity:0.784" fill="#070d0f" d="M 101.5,77.5 C 101.511,75.9826 102.177,74.8159 103.5,74C 102.944,73.6174 102.611,73.1174 102.5,72.5C 102.737,71.209 102.404,70.209 101.5,69.5C 101.389,68.8826 101.056,68.3826 100.5,68C 83.3283,67.1716 66.3283,67.3383 49.5,68.5C 49.1667,69.1667 48.8333,69.8333 48.5,70.5C 48.9613,73.3033 50.2947,75.6366 52.5,77.5C 51.1196,78.7065 49.9529,78.3731 49,76.5C 48.3645,75.0337 47.5312,73.7003 46.5,72.5C 47.7111,71.2798 47.7111,70.1131 46.5,69C 47.1667,68.3333 47.8333,67.6667 48.5,67C 53.8333,66.6667 59.1667,66.3333 64.5,66C 64.8333,65.6667 65.1667,65.3333 65.5,65C 63.5743,64.5776 62.5743,63.4109 62.5,61.5C 62.8333,61.5 63.1667,61.5 63.5,61.5C 68.372,64.1685 73.7053,65.1685 79.5,64.5C 90.2682,61.5022 95.9349,54.3356 96.5,43C 96.7001,40.1345 96.0334,37.6345 94.5,35.5C 92.5,30.8333 89.1667,27.5 84.5,25.5C 82.0872,23.9493 79.4206,23.2826 76.5,23.5C 73.8127,23.3359 71.146,23.5026 68.5,24C 67.5842,24.2784 66.9175,24.7784 66.5,25.5C 56.2488,30.6784 52.4155,39.0117 55,50.5C 56.116,53.7556 57.9493,56.4223 60.5,58.5C 60.8333,59.1667 61.1667,59.8333 61.5,60.5C 60.0379,61.4709 58.7046,61.1376 57.5,59.5C 49.3121,50.6359 48.4788,40.9692 55,30.5C 68.0207,16.2086 81.354,15.8752 95,29.5C 102.437,42.4927 100.604,53.9927 89.5,64C 93.8333,64.3333 98.1667,64.6667 102.5,65C 107.526,69.494 107.193,73.6607 101.5,77.5 Z"/></g>
<g><path style="opacity:1" fill="#4192b7" d="M 76.5,23.5 C 76.4226,24.7498 75.756,25.5831 74.5,26C 75.447,28.0095 77.1137,30.0095 79.5,32C 78.5209,33.7785 78.8542,35.4452 80.5,37C 80.4301,38.6236 79.9301,40.4569 79,42.5C 76.1751,43.5842 76.0085,44.7508 78.5,46C 76.1667,48.3333 73.8333,50.6667 71.5,53C 69.8333,53.3333 68.1667,53.6667 66.5,54C 67.1667,54.3333 67.8333,54.6667 68.5,55C 67.5,55.8333 66.5,56.6667 65.5,57.5C 65.7093,58.086 66.0426,58.586 66.5,59C 64.9343,59.765 63.6009,59.5983 62.5,58.5C 65.2686,56.3373 65.1019,54.3373 62,52.5C 61.1923,50.4213 61.359,48.4213 62.5,46.5C 65.6306,46.9368 68.2973,46.4368 70.5,45C 70.5462,42.8978 71.5462,40.8978 73.5,39C 71.3636,36.2657 69.0303,33.099 66.5,29.5C 66.968,27.8662 67.968,26.6995 69.5,26C 68.552,25.5172 67.552,25.3505 66.5,25.5C 66.9175,24.7784 67.5842,24.2784 68.5,24C 71.146,23.5026 73.8127,23.3359 76.5,23.5 Z"/></g>
<g><path style="opacity:1" fill="#2c7799" d="M 84.5,25.5 C 89.1667,27.5 92.5,30.8333 94.5,35.5C 94.1947,44.4343 91.3614,52.4343 86,59.5C 84.6361,58.7417 83.4695,59.2417 82.5,61C 80.295,62.0765 78.295,62.7432 76.5,63C 77.7375,63.2321 78.7375,63.7321 79.5,64.5C 73.7053,65.1685 68.372,64.1685 63.5,61.5C 67.8461,61.6657 72.1794,61.499 76.5,61C 79.7949,58.7693 83.2949,56.9359 87,55.5C 88.4774,50.2345 89.6441,44.9012 90.5,39.5C 90.257,36.3441 89.4237,33.3441 88,30.5C 86.1978,29.2107 85.0312,27.5441 84.5,25.5 Z"/></g>
<g><path style="opacity:1" fill="#378fb6" d="M 76.5,23.5 C 79.4206,23.2826 82.0872,23.9493 84.5,25.5C 85.0312,27.5441 86.1978,29.2107 88,30.5C 89.4237,33.3441 90.257,36.3441 90.5,39.5C 89.6441,44.9012 88.4774,50.2345 87,55.5C 83.2949,56.9359 79.7949,58.7693 76.5,61C 72.1794,61.499 67.8461,61.6657 63.5,61.5C 63.1667,61.5 62.8333,61.5 62.5,61.5C 62.5,60.8333 62.1667,60.5 61.5,60.5C 61.1667,59.8333 60.8333,59.1667 60.5,58.5C 61.1667,58.5 61.8333,58.5 62.5,58.5C 63.6009,59.5983 64.9343,59.765 66.5,59C 66.0426,58.586 65.7093,58.086 65.5,57.5C 66.5,56.6667 67.5,55.8333 68.5,55C 67.8333,54.6667 67.1667,54.3333 66.5,54C 68.1667,53.6667 69.8333,53.3333 71.5,53C 73.8333,50.6667 76.1667,48.3333 78.5,46C 76.0085,44.7508 76.1751,43.5842 79,42.5C 79.9301,40.4569 80.4301,38.6236 80.5,37C 78.8542,35.4452 78.5209,33.7785 79.5,32C 77.1137,30.0095 75.447,28.0095 74.5,26C 75.756,25.5831 76.4226,24.7498 76.5,23.5 Z"/></g>
<g><path style="opacity:1" fill="#509bbc" d="M 66.5,25.5 C 67.552,25.3505 68.552,25.5172 69.5,26C 67.968,26.6995 66.968,27.8662 66.5,29.5C 69.0303,33.099 71.3636,36.2657 73.5,39C 71.5462,40.8978 70.5462,42.8978 70.5,45C 68.2973,46.4368 65.6306,46.9368 62.5,46.5C 61.359,48.4213 61.1923,50.4213 62,52.5C 65.1019,54.3373 65.2686,56.3373 62.5,58.5C 61.8333,58.5 61.1667,58.5 60.5,58.5C 57.9493,56.4223 56.116,53.7556 55,50.5C 52.4155,39.0117 56.2488,30.6784 66.5,25.5 Z"/></g>
<g><path style="opacity:1" fill="#276987" d="M 94.5,35.5 C 96.0334,37.6345 96.7001,40.1345 96.5,43C 95.9349,54.3356 90.2682,61.5022 79.5,64.5C 78.7375,63.7321 77.7375,63.2321 76.5,63C 78.295,62.7432 80.295,62.0765 82.5,61C 83.4695,59.2417 84.6361,58.7417 86,59.5C 91.3614,52.4343 94.1947,44.4343 94.5,35.5 Z"/></g>
<g><path style="opacity:1" fill="#5aa3c3" d="M 49.5,68.5 C 60.1719,68.3335 70.8385,68.5002 81.5,69C 70.5438,70.3189 59.5438,70.8189 48.5,70.5C 48.8333,69.8333 49.1667,69.1667 49.5,68.5 Z"/></g>
<g><path style="opacity:1" fill="#266987" d="M 101.5,69.5 C 102.404,70.209 102.737,71.209 102.5,72.5C 101.023,74.807 99.0226,76.6403 96.5,78C 89.5079,78.4996 82.5079,78.6663 75.5,78.5C 75.0825,77.7784 74.4158,77.2784 73.5,77C 75.6108,75.009 76.9442,73.009 77.5,71C 85.6772,70.8292 93.6772,70.3292 101.5,69.5 Z"/></g>
<g><path style="opacity:1" fill="#3484a7" d="M 49.5,68.5 C 66.3283,67.3383 83.3283,67.1716 100.5,68C 101.056,68.3826 101.389,68.8826 101.5,69.5C 93.6772,70.3292 85.6772,70.8292 77.5,71C 76.9442,73.009 75.6108,75.009 73.5,77C 74.4158,77.2784 75.0825,77.7784 75.5,78.5C 68.8333,78.5 62.1667,78.5 55.5,78.5C 54.391,78.4431 53.391,78.1098 52.5,77.5C 50.2947,75.6366 48.9613,73.3033 48.5,70.5C 59.5438,70.8189 70.5438,70.3189 81.5,69C 70.8385,68.5002 60.1719,68.3335 49.5,68.5 Z"/></g>
<g><path style="opacity:0.86" fill="#090f13" d="M 102.5,72.5 C 102.611,73.1174 102.944,73.6174 103.5,74C 102.177,74.8159 101.511,75.9826 101.5,77.5C 99.2725,80.4495 96.2725,82.1162 92.5,82.5C 93.2981,87.0604 94.7981,91.3937 97,95.5C 99.7411,98.7289 102.241,102.062 104.5,105.5C 106.879,110.294 108.879,115.294 110.5,120.5C 112.849,121.543 114.849,122.876 116.5,124.5C 114.784,124.371 113.117,124.038 111.5,123.5C 86.1645,123.333 60.8311,123.5 35.5,124C 33.9221,125.094 32.2554,125.928 30.5,126.5C 30.4142,125.504 30.7476,124.671 31.5,124C 34.3751,122.698 37.3751,121.865 40.5,121.5C 40.1568,119.517 40.8235,118.183 42.5,117.5C 42.5,118.167 42.5,118.833 42.5,119.5C 41.9569,119.56 41.6236,119.893 41.5,120.5C 63.9964,121.828 86.3297,121.828 108.5,120.5C 107.64,117.089 106.474,113.756 105,110.5C 99.6869,105.207 95.3536,99.2069 92,92.5C 90.0961,89.0769 89.2628,85.4102 89.5,81.5C 85.5,81.5 81.5,81.5 77.5,81.5C 71.7291,80.8872 66.3958,81.5539 61.5,83.5C 61.5674,84.9587 61.2341,86.2921 60.5,87.5C 60.5,88.1667 60.1667,88.5 59.5,88.5C 59.0284,86.068 59.0284,83.7347 59.5,81.5C 71.1524,80.6675 82.8191,80.1675 94.5,80C 81.3269,79.831 68.3269,79.331 55.5,78.5C 62.1667,78.5 68.8333,78.5 75.5,78.5C 82.5079,78.6663 89.5079,78.4996 96.5,78C 99.0226,76.6403 101.023,74.807 102.5,72.5 Z"/></g>
<g><path style="opacity:1" fill="#3289b0" d="M 76.5,120.5 C 65.5,120.5 54.5,120.5 43.5,120.5C 47.9597,119.024 52.6263,117.858 57.5,117C 58.9308,116.535 60.0975,115.701 61,114.5C 62.1119,109.777 62.6119,104.944 62.5,100C 62.4915,95.4428 61.8248,91.2762 60.5,87.5C 61.2341,86.2921 61.5674,84.9587 61.5,83.5C 66.0815,82.3932 70.7481,82.2266 75.5,83C 74.8333,83.6667 74.1667,84.3333 73.5,85C 76.0373,87.5457 79.0373,89.2124 82.5,90C 89.2472,104.707 84.9139,114.374 69.5,119C 72.0356,119.186 74.369,119.686 76.5,120.5 Z"/></g>
<g><path style="opacity:1" fill="#2a7596" d="M 77.5,81.5 C 79.2922,82.3091 81.2922,82.8091 83.5,83C 82.3659,84.016 82.6992,84.6827 84.5,85C 83.8333,85.6667 83.1667,86.3333 82.5,87C 84.5076,92.0135 87.5076,96.3468 91.5,100C 88.5362,102.855 88.8696,105.189 92.5,107C 91.1147,110.329 89.4481,113.496 87.5,116.5C 88.3681,118.397 89.7014,119.73 91.5,120.5C 86.5,120.5 81.5,120.5 76.5,120.5C 74.369,119.686 72.0356,119.186 69.5,119C 84.9139,114.374 89.2472,104.707 82.5,90C 79.0373,89.2124 76.0373,87.5457 73.5,85C 74.1667,84.3333 74.8333,83.6667 75.5,83C 70.7481,82.2266 66.0815,82.3932 61.5,83.5C 66.3958,81.5539 71.7291,80.8872 77.5,81.5 Z"/></g>
<g><path style="opacity:1" fill="#256582" d="M 77.5,81.5 C 81.5,81.5 85.5,81.5 89.5,81.5C 89.2628,85.4102 90.0961,89.0769 92,92.5C 95.3536,99.2069 99.6869,105.207 105,110.5C 106.474,113.756 107.64,117.089 108.5,120.5C 102.833,120.5 97.1667,120.5 91.5,120.5C 89.7014,119.73 88.3681,118.397 87.5,116.5C 89.4481,113.496 91.1147,110.329 92.5,107C 88.8696,105.189 88.5362,102.855 91.5,100C 87.5076,96.3468 84.5076,92.0135 82.5,87C 83.1667,86.3333 83.8333,85.6667 84.5,85C 82.6992,84.6827 82.3659,84.016 83.5,83C 81.2922,82.8091 79.2922,82.3091 77.5,81.5 Z"/></g>
<g><path style="opacity:1" fill="#509abb" d="M 60.5,87.5 C 61.8248,91.2762 62.4915,95.4428 62.5,100C 62.6119,104.944 62.1119,109.777 61,114.5C 60.0975,115.701 58.9308,116.535 57.5,117C 52.6263,117.858 47.9597,119.024 43.5,120.5C 42.8333,120.5 42.5,120.167 42.5,119.5C 42.5,118.833 42.5,118.167 42.5,117.5C 45.9652,110.189 50.4652,103.523 56,97.5C 57.7411,94.6907 58.9078,91.6907 59.5,88.5C 60.1667,88.5 60.5,88.1667 60.5,87.5 Z"/></g>
<g><path style="opacity:1" fill="#040709" d="M 57.5,59.5 C 58.7046,61.1376 60.0379,61.4709 61.5,60.5C 62.1667,60.5 62.5,60.8333 62.5,61.5C 62.5743,63.4109 63.5743,64.5776 65.5,65C 65.1667,65.3333 64.8333,65.6667 64.5,66C 59.1667,66.3333 53.8333,66.6667 48.5,67C 47.8333,67.6667 47.1667,68.3333 46.5,69C 47.7111,70.1131 47.7111,71.2798 46.5,72.5C 47.5312,73.7003 48.3645,75.0337 49,76.5C 49.9529,78.3731 51.1196,78.7065 52.5,77.5C 53.391,78.1098 54.391,78.4431 55.5,78.5C 68.3269,79.331 81.3269,79.831 94.5,80C 82.8191,80.1675 71.1524,80.6675 59.5,81.5C 59.0284,83.7347 59.0284,86.068 59.5,88.5C 58.9078,91.6907 57.7411,94.6907 56,97.5C 50.4652,103.523 45.9652,110.189 42.5,117.5C 40.8235,118.183 40.1568,119.517 40.5,121.5C 37.3751,121.865 34.3751,122.698 31.5,124C 30.7476,124.671 30.4142,125.504 30.5,126.5C 30.5,126.833 30.5,127.167 30.5,127.5C 28.2878,130.321 27.2878,133.655 27.5,137.5C 59.329,138.498 91.329,138.832 123.5,138.5C 123.784,136.585 123.451,134.919 122.5,133.5C 122.103,129.435 120.103,126.435 116.5,124.5C 114.849,122.876 112.849,121.543 110.5,120.5C 108.879,115.294 106.879,110.294 104.5,105.5C 108.547,109.615 110.881,114.615 111.5,120.5C 119.919,120.798 124.753,125.131 126,133.5C 126.497,136.146 126.664,138.813 126.5,141.5C 92.2603,141.829 58.0936,141.496 24,140.5C 22.8531,129.132 27.8531,122.132 39,119.5C 40.0485,115.735 41.3819,112.068 43,108.5C 49.9067,101.931 54.7401,94.0974 57.5,85C 57.1667,84.1667 56.8333,83.3333 56.5,82.5C 49.9486,80.782 45.9486,76.6153 44.5,70C 45.4394,68.0561 46.7727,66.3894 48.5,65C 52.8333,64.6667 57.1667,64.3333 61.5,64C 59.3645,63.1237 58.0312,61.6237 57.5,59.5 Z"/></g>
<g><path style="opacity:1" fill="#3288ae" d="M 111.5,123.5 C 113.117,124.038 114.784,124.371 116.5,124.5C 117.057,128.888 115.39,132.055 111.5,134C 100.439,135.828 89.4387,136.995 78.5,137.5C 61.5,137.5 44.5,137.5 27.5,137.5C 27.2878,133.655 28.2878,130.321 30.5,127.5C 30.5858,128.496 30.2524,129.329 29.5,130C 32.4208,130.15 35.2541,129.65 38,128.5C 62.0942,129.661 86.2609,129.827 110.5,129C 112.83,127.512 113.164,125.679 111.5,123.5 Z"/></g>
<g><path style="opacity:1" fill="#246480" d="M 116.5,124.5 C 120.103,126.435 122.103,129.435 122.5,133.5C 122.5,134.833 122.5,136.167 122.5,137.5C 107.833,137.5 93.1667,137.5 78.5,137.5C 89.4387,136.995 100.439,135.828 111.5,134C 115.39,132.055 117.057,128.888 116.5,124.5 Z"/></g>
<g><path style="opacity:1" fill="#589fbe" d="M 111.5,123.5 C 113.164,125.679 112.83,127.512 110.5,129C 86.2609,129.827 62.0942,129.661 38,128.5C 35.2541,129.65 32.4208,130.15 29.5,130C 30.2524,129.329 30.5858,128.496 30.5,127.5C 30.5,127.167 30.5,126.833 30.5,126.5C 32.2554,125.928 33.9221,125.094 35.5,124C 60.8311,123.5 86.1645,123.333 111.5,123.5 Z"/></g>
<g><path style="opacity:1" fill="#122b36" d="M 42.5,119.5 C 42.5,120.167 42.8333,120.5 43.5,120.5C 54.5,120.5 65.5,120.5 76.5,120.5C 81.5,120.5 86.5,120.5 91.5,120.5C 97.1667,120.5 102.833,120.5 108.5,120.5C 86.3297,121.828 63.9964,121.828 41.5,120.5C 41.6236,119.893 41.9569,119.56 42.5,119.5 Z"/></g>
<g><path style="opacity:1" fill="#193c4c" d="M 122.5,133.5 C 123.451,134.919 123.784,136.585 123.5,138.5C 91.329,138.832 59.329,138.498 27.5,137.5C 44.5,137.5 61.5,137.5 78.5,137.5C 93.1667,137.5 107.833,137.5 122.5,137.5C 122.5,136.167 122.5,134.833 122.5,133.5 Z"/></g>
</svg>
