<?xml version="1.0" encoding="UTF-8"?>
<!DOCTYPE svg PUBLIC "-//W3C//DTD SVG 1.1//EN" "http://www.w3.org/Graphics/SVG/1.1/DTD/svg11.dtd">
<svg xmlns="http://www.w3.org/2000/svg" version="1.1" width="150px" height="150px" style="shape-rendering:geometricPrecision; text-rendering:geometricPrecision; image-rendering:optimizeQuality; fill-rule:evenodd; clip-rule:evenodd" xmlns:xlink="http://www.w3.org/1999/xlink">
<g><path style="opacity:0.666" fill="#050a0c" d="M 82.5,48.5 C 81.6981,49.9516 81.1981,51.6183 81,53.5C 80.8091,51.2922 80.3091,49.2922 79.5,47.5C 78.7255,42.2032 78.3921,36.8699 78.5,31.5C 76.5,31.5 74.5,31.5 72.5,31.5C 71.9022,36.813 71.5688,42.1463 71.5,47.5C 70.9882,53.9406 69.8215,60.274 68,66.5C 67.3292,67.2524 66.4959,67.5858 65.5,67.5C 59.5352,59.671 54.8685,51.0043 51.5,41.5C 50.6086,40.4104 49.6086,40.4104 48.5,41.5C 47.2121,43.2985 47.2121,44.9652 48.5,46.5C 48.8333,49.1667 49.1667,51.8333 49.5,54.5C 49.3444,57.0661 49.6777,59.5661 50.5,62C 50.1918,63.4595 49.5251,64.6261 48.5,65.5C 47.3211,58.1153 45.8211,50.782 44,43.5C 33.7359,38.8256 31.9026,31.9923 38.5,23C 44.0624,19.3992 49.2291,19.8992 54,24.5C 55.5519,26.7682 56.3852,29.2682 56.5,32C 55.4989,35.1365 54.9989,38.3032 55,41.5C 57.4456,49.0578 60.9456,56.0578 65.5,62.5C 67.2011,53.0584 68.5345,43.5584 69.5,34C 67.7553,30.8884 65.922,27.7218 64,24.5C 63.1155,10.7204 69.2821,5.88708 82.5,10C 89.3247,17.0563 89.1581,23.8897 82,30.5C 81.964,36.4871 82.1307,42.4871 82.5,48.5 Z"/></g>
<g><path style="opacity:1" fill="#3d8fb5" d="M 71.5,12.5 C 73.1992,12.3398 74.8659,12.5065 76.5,13C 75.6598,14.6665 76.1598,14.8331 78,13.5C 80.4294,20.9818 77.9294,25.6485 70.5,27.5C 64.9913,22.1898 65.3247,17.1898 71.5,12.5 Z"/></g>
<g><path style="opacity:1" fill="#2d799c" d="M 71.5,12.5 C 76.4081,10.8024 80.4081,12.1358 83.5,16.5C 83.6816,18.5914 83.3482,20.5914 82.5,22.5C 79.4245,23.411 77.0911,25.2443 75.5,28C 74.2068,28.49 72.8734,28.6567 71.5,28.5C 70.8333,28.5 70.5,28.1667 70.5,27.5C 77.9294,25.6485 80.4294,20.9818 78,13.5C 76.1598,14.8331 75.6598,14.6665 76.5,13C 74.8659,12.5065 73.1992,12.3398 71.5,12.5 Z"/></g>
<g><path style="opacity:1" fill="#24607b" d="M 83.5,16.5 C 85.1862,26.1471 81.1862,30.1471 71.5,28.5C 72.8734,28.6567 74.2068,28.49 75.5,28C 77.0911,25.2443 79.4245,23.411 82.5,22.5C 83.3482,20.5914 83.6816,18.5914 83.5,16.5 Z"/></g>
<g><path style="opacity:1" fill="#3988ac" d="M 43.5,24.5 C 47.5588,24.9189 49.5588,27.2522 49.5,31.5C 48.9264,33.0589 48.2598,34.5589 47.5,36C 44.854,36.4974 42.1873,36.6641 39.5,36.5C 35.9861,30.9504 37.3195,26.9504 43.5,24.5 Z"/></g>
<g><path style="opacity:0.581" fill="#060b0e" d="M 112.5,60.5 C 114.017,60.4894 115.184,59.8228 116,58.5C 117.107,59.7119 117.607,59.3786 117.5,57.5C 118.5,57.8333 119.167,58.5 119.5,59.5C 119.833,60.1667 120.167,60.8333 120.5,61.5C 120.737,62.791 120.404,63.791 119.5,64.5C 119.573,62.9731 118.906,61.9731 117.5,61.5C 117.565,61.0618 117.399,60.7284 117,60.5C 112.138,66.5444 106.305,71.2111 99.5,74.5C 98.4113,70.9221 98.2446,67.2554 99,63.5C 100.821,56.2438 102.321,48.9105 103.5,41.5C 100.672,39.5993 99.0056,40.266 98.5,43.5C 95.2929,51.5808 91.2929,59.2475 86.5,66.5C 85.675,67.3857 84.675,67.719 83.5,67.5C 80.9035,61.1095 79.5701,54.4428 79.5,47.5C 80.3091,49.2922 80.8091,51.2922 81,53.5C 81.1981,51.6183 81.6981,49.9516 82.5,48.5C 83.1505,53.5126 83.9838,58.5126 85,63.5C 89.5988,55.7093 93.4321,47.5426 96.5,39C 91.7953,27.0605 95.7953,21.0605 108.5,21C 114.823,23.8115 117.323,28.6448 116,35.5C 114.212,39.1229 111.379,41.4563 107.5,42.5C 104.693,51.6997 102.86,61.033 102,70.5C 105.369,66.9626 108.869,63.6293 112.5,60.5 Z"/></g>
<g><path style="opacity:1" fill="#266582" d="M 103.5,24.5 C 106.867,23.2376 109.7,24.2376 112,27.5C 114.26,34.3249 111.927,38.3249 105,39.5C 103.124,39.4753 101.624,38.8086 100.5,37.5C 108.495,37.8248 111.495,34.1582 109.5,26.5C 107.5,25.8333 105.5,25.1667 103.5,24.5 Z"/></g>
<g><path style="opacity:1" fill="#3a8baf" d="M 103.5,24.5 C 105.5,25.1667 107.5,25.8333 109.5,26.5C 111.495,34.1582 108.495,37.8248 100.5,37.5C 95.7621,31.8574 96.7621,27.5241 103.5,24.5 Z"/></g>
<g><path style="opacity:1" fill="#276885" d="M 43.5,24.5 C 47.4019,23.3483 50.5686,24.6816 53,28.5C 53.8333,36.3333 50.3333,39.8333 42.5,39C 41.0577,38.6232 40.0577,37.7899 39.5,36.5C 42.1873,36.6641 44.854,36.4974 47.5,36C 48.2598,34.5589 48.9264,33.0589 49.5,31.5C 49.5588,27.2522 47.5588,24.9189 43.5,24.5 Z"/></g>
<g><path style="opacity:1" fill="#25617c" d="M 125.5,48.5 C 131.766,51.9765 132.099,56.1431 126.5,61C 124.527,61.4955 122.527,61.6621 120.5,61.5C 120.167,60.8333 119.833,60.1667 119.5,59.5C 121.394,58.9524 123.06,57.9524 124.5,56.5C 125.204,53.6989 125.538,51.0323 125.5,48.5 Z"/></g>
<g><path style="opacity:0.616" fill="#070c0f" d="M 48.5,65.5 C 49.5251,64.6261 50.1918,63.4595 50.5,62C 49.6777,59.5661 49.3444,57.0661 49.5,54.5C 51.617,60.5568 52.4504,66.8901 52,73.5C 51.3292,74.2524 50.4959,74.5858 49.5,74.5C 43.9312,70.4389 38.7645,65.7723 34,60.5C 31.6988,61.8774 31.1988,63.544 32.5,65.5C 36.5745,74.6483 40.9078,83.6483 45.5,92.5C 44.2921,91.7659 42.9587,91.4326 41.5,91.5C 37.1799,82.8599 32.8466,74.1932 28.5,65.5C 16.9202,62.8938 14.2535,56.7272 20.5,47C 26.6526,43.3772 31.8193,44.5438 36,50.5C 35.9519,54.5206 36.9519,58.1873 39,61.5C 42.1446,64.7341 45.4779,67.7341 49,70.5C 48.9813,68.8925 48.8146,67.2259 48.5,65.5 Z"/></g>
<g><path style="opacity:1" fill="#3d8db1" d="M 29.5,48.5 C 30.5873,55.3804 27.9207,58.7137 21.5,58.5C 19.2755,51.3832 21.9421,48.0499 29.5,48.5 Z"/></g>
<g><path style="opacity:1" fill="#296e8e" d="M 29.5,48.5 C 35.4118,54.108 34.5785,58.4413 27,61.5C 24.6013,61.3868 22.7679,60.3868 21.5,58.5C 27.9207,58.7137 30.5873,55.3804 29.5,48.5 Z"/></g>
<g><path style="opacity:1" fill="#559aba" d="M 98.5,43.5 C 100.225,43.8425 100.725,44.8425 100,46.5C 96.6744,53.7988 93.341,61.1322 90,68.5C 88.2111,70.229 86.0444,70.8957 83.5,70.5C 82.375,69.3478 82.375,68.3478 83.5,67.5C 84.675,67.719 85.675,67.3857 86.5,66.5C 91.2929,59.2475 95.2929,51.5808 98.5,43.5 Z"/></g>
<g><path style="opacity:1" fill="#539bbc" d="M 52.5,77.5 C 51.3065,76.7281 50.3065,75.7281 49.5,74.5C 50.4959,74.5858 51.3292,74.2524 52,73.5C 52.4504,66.8901 51.617,60.5568 49.5,54.5C 49.1667,51.8333 48.8333,49.1667 48.5,46.5C 48.56,45.9569 48.8933,45.6236 49.5,45.5C 52.5214,54.4615 54.8548,63.6282 56.5,73C 56.6054,75.8727 55.2721,77.3727 52.5,77.5 Z"/></g>
<g><path style="opacity:1" fill="#338bb2" d="M 99.5,74.5 C 98.596,75.209 98.2627,76.209 98.5,77.5C 100.167,77.5 101.833,77.5 103.5,77.5C 102.972,78.7206 102.305,79.8873 101.5,81C 101.833,81.3333 102.167,81.6667 102.5,82C 100.833,82.3333 99.1667,82.6667 97.5,83C 97.6651,84.1169 97.9984,85.2836 98.5,86.5C 96.2453,87.3365 93.5786,88.1698 90.5,89C 94.1658,89.3905 94.3324,90.5571 91,92.5C 87.8501,90.8388 86.3501,91.8388 86.5,95.5C 84.3812,95.5323 83.0478,94.5323 82.5,92.5C 81.0582,91.1805 80.3915,89.5138 80.5,87.5C 79.1779,87.33 78.0113,87.6634 77,88.5C 76.1888,86.3299 74.8554,84.6632 73,83.5C 71.2785,83.6107 71.1118,84.1107 72.5,85C 69.8333,85.3333 69.1667,84.3333 70.5,82C 69.1868,79.6742 67.1868,78.3408 64.5,78C 66.5342,76.7947 68.5342,76.628 70.5,77.5C 70.2907,78.086 69.9574,78.586 69.5,79C 71.2072,79.1953 72.8739,79.1953 74.5,79C 75.8333,80 75.8333,81 74.5,82C 76.64,82.9733 78.3067,84.4733 79.5,86.5C 83.2372,84.8325 83.2372,83.4991 79.5,82.5C 80.5,81.5 81.5,80.5 82.5,79.5C 83.1667,80.5 83.8333,81.5 84.5,82.5C 85.5063,82.0623 85.5063,81.3957 84.5,80.5C 87.569,78.5646 87.7357,76.8979 85,75.5C 84.3923,73.8455 83.8923,72.1789 83.5,70.5C 86.0444,70.8957 88.2111,70.229 90,68.5C 93.341,61.1322 96.6744,53.7988 100,46.5C 100.725,44.8425 100.225,43.8425 98.5,43.5C 99.0056,40.266 100.672,39.5993 103.5,41.5C 102.321,48.9105 100.821,56.2438 99,63.5C 98.2446,67.2554 98.4113,70.9221 99.5,74.5 Z"/></g>
<g><path style="opacity:1" fill="#3287ad" d="M 79.5,47.5 C 79.5701,54.4428 80.9035,61.1095 83.5,67.5C 82.375,68.3478 82.375,69.3478 83.5,70.5C 83.8923,72.1789 84.3923,73.8455 85,75.5C 87.7357,76.8979 87.569,78.5646 84.5,80.5C 85.5063,81.3957 85.5063,82.0623 84.5,82.5C 83.8333,81.5 83.1667,80.5 82.5,79.5C 81.5,80.5 80.5,81.5 79.5,82.5C 83.2372,83.4991 83.2372,84.8325 79.5,86.5C 78.3067,84.4733 76.64,82.9733 74.5,82C 75.8333,81 75.8333,80 74.5,79C 72.8739,79.1953 71.2072,79.1953 69.5,79C 69.9574,78.586 70.2907,78.086 70.5,77.5C 68.5342,76.628 66.5342,76.7947 64.5,78C 67.1868,78.3408 69.1868,79.6742 70.5,82C 69.1667,84.3333 69.8333,85.3333 72.5,85C 71.1118,84.1107 71.2785,83.6107 73,83.5C 74.8554,84.6632 76.1888,86.3299 77,88.5C 78.0113,87.6634 79.1779,87.33 80.5,87.5C 80.3915,89.5138 81.0582,91.1805 82.5,92.5C 79.492,93.4202 76.6587,94.7535 74,96.5C 73.5078,95.451 73.6744,94.451 74.5,93.5C 73.147,92.3147 71.9803,90.9814 71,89.5C 69.8118,90.5634 69.3118,91.8967 69.5,93.5C 66.755,93.627 64.755,92.4603 63.5,90C 63.8333,89.6667 64.1667,89.3333 64.5,89C 61.5594,87.717 58.8927,86.0503 56.5,84C 57.6025,81.6091 56.9358,81.1091 54.5,82.5C 50.516,81.6253 49.8493,79.9587 52.5,77.5C 55.2721,77.3727 56.6054,75.8727 56.5,73C 54.8548,63.6282 52.5214,54.4615 49.5,45.5C 48.8933,45.6236 48.56,45.9569 48.5,46.5C 47.2121,44.9652 47.2121,43.2985 48.5,41.5C 49.6086,40.4104 50.6086,40.4104 51.5,41.5C 54.8685,51.0043 59.5352,59.671 65.5,67.5C 64.3552,68.7927 64.6885,69.9593 66.5,71C 68.235,71.6514 69.9017,71.4847 71.5,70.5C 73.3958,61.2521 73.8958,51.9188 73,42.5C 72.8019,44.3817 72.3019,46.0484 71.5,47.5C 71.5688,42.1463 71.9022,36.813 72.5,31.5C 74.5,31.5 76.5,31.5 78.5,31.5C 78.3921,36.8699 78.7255,42.2032 79.5,47.5 Z"/></g>
<g><path style="opacity:1" fill="#559bba" d="M 65.5,67.5 C 66.4959,67.5858 67.3292,67.2524 68,66.5C 69.8215,60.274 70.9882,53.9406 71.5,47.5C 72.3019,46.0484 72.8019,44.3817 73,42.5C 73.8958,51.9188 73.3958,61.2521 71.5,70.5C 69.9017,71.4847 68.235,71.6514 66.5,71C 64.6885,69.9593 64.3552,68.7927 65.5,67.5 Z"/></g>
<g><path style="opacity:1" fill="#4a94b5" d="M 50.5,101.5 C 50.1667,101.5 49.8333,101.5 49.5,101.5C 47.8946,98.6223 46.5612,95.6223 45.5,92.5C 40.9078,83.6483 36.5745,74.6483 32.5,65.5C 32.56,64.9569 32.8933,64.6236 33.5,64.5C 34.4803,65.9814 35.647,67.3147 37,68.5C 41.5589,75.7398 46.5589,82.7398 52,89.5C 54.2836,93.9001 53.7836,97.9001 50.5,101.5 Z"/></g>
<g><path style="opacity:1" fill="#549aba" d="M 117.5,61.5 C 117.346,63.9699 116.346,65.9699 114.5,67.5C 110.833,70.8333 107.167,74.1667 103.5,77.5C 101.833,77.5 100.167,77.5 98.5,77.5C 98.2627,76.209 98.596,75.209 99.5,74.5C 106.305,71.2111 112.138,66.5444 117,60.5C 117.399,60.7284 117.565,61.0618 117.5,61.5 Z"/></g>
<g><path style="opacity:1" fill="#3289af" d="M 49.5,74.5 C 50.3065,75.7281 51.3065,76.7281 52.5,77.5C 49.8493,79.9587 50.516,81.6253 54.5,82.5C 56.9358,81.1091 57.6025,81.6091 56.5,84C 58.8927,86.0503 61.5594,87.717 64.5,89C 64.1667,89.3333 63.8333,89.6667 63.5,90C 64.755,92.4603 66.755,93.627 69.5,93.5C 69.3118,91.8967 69.8118,90.5634 71,89.5C 71.9803,90.9814 73.147,92.3147 74.5,93.5C 73.6744,94.451 73.5078,95.451 74,96.5C 76.6587,94.7535 79.492,93.4202 82.5,92.5C 83.0478,94.5323 84.3812,95.5323 86.5,95.5C 86.3501,91.8388 87.8501,90.8388 91,92.5C 94.3324,90.5571 94.1658,89.3905 90.5,89C 93.5786,88.1698 96.2453,87.3365 98.5,86.5C 97.9984,85.2836 97.6651,84.1169 97.5,83C 99.1667,82.6667 100.833,82.3333 102.5,82C 102.167,81.6667 101.833,81.3333 101.5,81C 102.305,79.8873 102.972,78.7206 103.5,77.5C 107.167,74.1667 110.833,70.8333 114.5,67.5C 110.159,73.1924 106.159,79.1924 102.5,85.5C 101.675,86.3857 100.675,86.719 99.5,86.5C 99.4959,88.8421 98.6625,90.8421 97,92.5C 96.2114,96.0915 96.3781,99.5915 97.5,103C 81.8369,103.5 66.1702,103.667 50.5,103.5C 50.5,102.833 50.5,102.167 50.5,101.5C 53.7836,97.9001 54.2836,93.9001 52,89.5C 46.5589,82.7398 41.5589,75.7398 37,68.5C 35.647,67.3147 34.4803,65.9814 33.5,64.5C 32.8933,64.6236 32.56,64.9569 32.5,65.5C 31.1988,63.544 31.6988,61.8774 34,60.5C 38.7645,65.7723 43.9312,70.4389 49.5,74.5 Z"/></g>
<g><path style="opacity:1" fill="#256582" d="M 117.5,61.5 C 118.906,61.9731 119.573,62.9731 119.5,64.5C 116.828,68.687 114.328,73.0203 112,77.5C 108.409,85.0195 105.075,92.6862 102,100.5C 101.051,102.093 99.8846,103.426 98.5,104.5C 82.3246,104.83 66.3246,104.496 50.5,103.5C 66.1702,103.667 81.8369,103.5 97.5,103C 96.3781,99.5915 96.2114,96.0915 97,92.5C 98.6625,90.8421 99.4959,88.8421 99.5,86.5C 100.675,86.719 101.675,86.3857 102.5,85.5C 106.159,79.1924 110.159,73.1924 114.5,67.5C 116.346,65.9699 117.346,63.9699 117.5,61.5 Z"/></g>
<g><path style="opacity:1" fill="#0c1a20" d="M 49.5,101.5 C 49.8333,101.5 50.1667,101.5 50.5,101.5C 50.5,102.167 50.5,102.833 50.5,103.5C 66.3246,104.496 82.3246,104.83 98.5,104.5C 82.5,105.167 66.5,105.833 50.5,106.5C 50.5,106.833 50.5,107.167 50.5,107.5C 50.1667,107.5 49.8333,107.5 49.5,107.5C 49.5,105.5 49.5,103.5 49.5,101.5 Z"/></g>
<g><path style="opacity:1" fill="#529bbb" d="M 49.5,107.5 C 49.8333,107.5 50.1667,107.5 50.5,107.5C 67.0689,107.651 83.4023,109.651 99.5,113.5C 97.604,114.466 95.604,114.799 93.5,114.5C 77.8333,114.5 62.1667,114.5 46.5,114.5C 46.5,113.5 46.5,112.5 46.5,111.5C 47.4884,110.205 48.4884,108.872 49.5,107.5 Z"/></g>
<g><path style="opacity:1" fill="#2f7fa3" d="M 46.5,111.5 C 46.5,112.5 46.5,113.5 46.5,114.5C 62.1667,114.5 77.8333,114.5 93.5,114.5C 91.7633,116.88 89.43,118.547 86.5,119.5C 79.4086,119.131 72.5753,118.798 66,118.5C 64,119.167 62,119.833 60,120.5C 58.8032,118.208 57.1365,117.875 55,119.5C 52.3792,117.968 49.5459,116.968 46.5,116.5C 45.2801,114.716 45.2801,113.05 46.5,111.5 Z"/></g>
<g><path style="opacity:1" fill="#256481" d="M 50.5,107.5 C 50.5,107.167 50.5,106.833 50.5,106.5C 67.18,106.167 83.8467,106.501 100.5,107.5C 107.024,112.726 106.358,117.226 98.5,121C 83.5037,121.5 68.5037,121.667 53.5,121.5C 50.3257,120.99 47.9923,119.323 46.5,116.5C 49.5459,116.968 52.3792,117.968 55,119.5C 57.1365,117.875 58.8032,118.208 60,120.5C 62,119.833 64,119.167 66,118.5C 72.5753,118.798 79.4086,119.131 86.5,119.5C 89.43,118.547 91.7633,116.88 93.5,114.5C 95.604,114.799 97.604,114.466 99.5,113.5C 83.4023,109.651 67.0689,107.651 50.5,107.5 Z"/></g>
<g><path style="opacity:0.659" fill="#091013" d="M 123.5,128.5 C 122.292,127.766 120.959,127.433 119.5,127.5C 118.833,127.167 118.167,126.833 117.5,126.5C 115.162,124.96 112.495,124.294 109.5,124.5C 85.5,124.5 61.5,124.5 37.5,124.5C 57.6625,123.668 77.9959,123.168 98.5,123C 83.3277,122.831 68.3277,122.331 53.5,121.5C 68.5037,121.667 83.5037,121.5 98.5,121C 106.358,117.226 107.024,112.726 100.5,107.5C 83.8467,106.501 67.18,106.167 50.5,106.5C 66.5,105.833 82.5,105.167 98.5,104.5C 99.8846,103.426 101.051,102.093 102,100.5C 105.075,92.6862 108.409,85.0195 112,77.5C 114.328,73.0203 116.828,68.687 119.5,64.5C 120.404,63.791 120.737,62.791 120.5,61.5C 122.527,61.6621 124.527,61.4955 126.5,61C 132.099,56.1431 131.766,51.9765 125.5,48.5C 119.344,48.3251 116.677,51.3251 117.5,57.5C 117.607,59.3786 117.107,59.7119 116,58.5C 115.184,59.8228 114.017,60.4894 112.5,60.5C 113.991,56.6781 115.157,52.6781 116,48.5C 122.841,42.7932 128.508,43.7932 133,51.5C 133.79,54.634 133.457,57.634 132,60.5C 128.408,63.0629 124.741,65.3963 121,67.5C 115.03,79.9398 109.197,92.4398 103.5,105C 104.608,107.112 106.108,108.946 108,110.5C 109.027,114.18 108.194,117.347 105.5,120C 110.727,120.591 115.727,121.924 120.5,124C 122.141,125.129 123.141,126.629 123.5,128.5 Z"/></g>
<g><path style="opacity:1" fill="#428eb0" d="M 125.5,48.5 C 125.538,51.0323 125.204,53.6989 124.5,56.5C 123.06,57.9524 121.394,58.9524 119.5,59.5C 119.167,58.5 118.5,57.8333 117.5,57.5C 116.677,51.3251 119.344,48.3251 125.5,48.5 Z"/></g>
<g><path style="opacity:1" fill="#579fbf" d="M 37.5,124.5 C 61.5,124.5 85.5,124.5 109.5,124.5C 108.185,127.006 106.185,128.839 103.5,130C 91.3333,130.167 79.1667,130.333 67,130.5C 54.4812,130.499 42.3145,129.832 30.5,128.5C 32.3356,126.412 34.6689,125.079 37.5,124.5 Z"/></g>
<g><path style="opacity:1" fill="#24627f" d="M 117.5,126.5 C 118.167,126.833 118.833,127.167 119.5,127.5C 122.231,130.634 123.564,134.301 123.5,138.5C 98.8333,138.5 74.1667,138.5 49.5,138.5C 69.0167,137.42 88.6834,136.254 108.5,135C 113.268,133.964 116.268,131.13 117.5,126.5 Z"/></g>
<g><path style="opacity:1" fill="#3187ad" d="M 109.5,124.5 C 112.495,124.294 115.162,124.96 117.5,126.5C 116.268,131.13 113.268,133.964 108.5,135C 88.6834,136.254 69.0167,137.42 49.5,138.5C 42.1667,138.5 34.8333,138.5 27.5,138.5C 27.0255,134.584 28.0255,131.251 30.5,128.5C 42.3145,129.832 54.4812,130.499 67,130.5C 79.1667,130.333 91.3333,130.167 103.5,130C 106.185,128.839 108.185,127.006 109.5,124.5 Z"/></g>
<g><path style="opacity:1" fill="#080e11" d="M 41.5,91.5 C 42.9587,91.4326 44.2921,91.7659 45.5,92.5C 46.5612,95.6223 47.8946,98.6223 49.5,101.5C 49.5,103.5 49.5,105.5 49.5,107.5C 48.4884,108.872 47.4884,110.205 46.5,111.5C 45.2801,113.05 45.2801,114.716 46.5,116.5C 47.9923,119.323 50.3257,120.99 53.5,121.5C 68.3277,122.331 83.3277,122.831 98.5,123C 77.9959,123.168 57.6625,123.668 37.5,124.5C 34.6689,125.079 32.3356,126.412 30.5,128.5C 28.0255,131.251 27.0255,134.584 27.5,138.5C 34.8333,138.5 42.1667,138.5 49.5,138.5C 74.1667,138.5 98.8333,138.5 123.5,138.5C 123.564,134.301 122.231,130.634 119.5,127.5C 120.959,127.433 122.292,127.766 123.5,128.5C 126.035,132.355 127.035,136.688 126.5,141.5C 92.5,141.5 58.5,141.5 24.5,141.5C 22.6453,132.178 25.9787,125.678 34.5,122C 38.1864,121.441 41.853,120.774 45.5,120C 43.654,117.976 42.3207,115.643 41.5,113C 43.5,110.333 45.5,107.667 47.5,105C 45.3507,100.537 43.3507,96.0374 41.5,91.5 Z"/></g>
</svg>
