<?xml version="1.0" encoding="UTF-8"?>
<!DOCTYPE svg PUBLIC "-//W3C//DTD SVG 1.1//EN" "http://www.w3.org/Graphics/SVG/1.1/DTD/svg11.dtd">
<svg xmlns="http://www.w3.org/2000/svg" version="1.1" width="150px" height="150px" style="shape-rendering:geometricPrecision; text-rendering:geometricPrecision; image-rendering:optimizeQuality; fill-rule:evenodd; clip-rule:evenodd" xmlns:xlink="http://www.w3.org/1999/xlink">
<g><path style="opacity:0.57" fill="#060b0e" d="M 107.5,63.5 C 105.783,66.8448 105.116,70.5115 105.5,74.5C 104.566,73.4324 104.232,72.099 104.5,70.5C 104.768,67.8806 104.435,65.3806 103.5,63C 96.5079,62.5004 89.5079,62.3337 82.5,62.5C 70.1201,61.8542 58.1201,62.5209 46.5,64.5C 44.8929,82.7887 43.5595,101.122 42.5,119.5C 42.5,119.833 42.5,120.167 42.5,120.5C 42.5,120.833 42.5,121.167 42.5,121.5C 63.9599,122.187 86.6266,122.853 110.5,123.5C 86.5,123.5 62.5,123.5 38.5,123.5C 38.3893,122.883 38.056,122.383 37.5,122C 39.9386,121.467 40.6052,120.3 39.5,118.5C 40.5584,99.46 41.7251,80.46 43,61.5C 39.5,58 36,54.5 32.5,51C 33.2323,41.4931 34.0656,31.6598 35,21.5C 42.0787,20.5201 49.2454,20.1868 56.5,20.5C 56.5,24.5 56.5,28.5 56.5,32.5C 59.5,32.5 62.5,32.5 65.5,32.5C 65.5,28.5 65.5,24.5 65.5,20.5C 72.1667,20.5 78.8333,20.5 85.5,20.5C 85.5,24.5 85.5,28.5 85.5,32.5C 88.5,32.5 91.5,32.5 94.5,32.5C 94.5,28.5 94.5,24.5 94.5,20.5C 101.755,20.1868 108.921,20.5201 116,21.5C 116.958,31.8246 117.291,42.1579 117,52.5C 113.227,55.7635 110.06,59.4302 107.5,63.5 Z"/></g>
<g><path style="opacity:1" fill="#3388ae" d="M 52.5,23.5 C 53.4834,27.2984 53.8168,31.2984 53.5,35.5C 58.5,35.5 63.5,35.5 68.5,35.5C 69.8234,33.2377 71.1568,30.9044 72.5,28.5C 75.3819,27.0392 78.3819,25.8725 81.5,25C 78.3054,24.8195 75.3054,24.3195 72.5,23.5C 75.8333,23.5 79.1667,23.5 82.5,23.5C 82.5,27.5 82.5,31.5 82.5,35.5C 87.8333,35.5 93.1667,35.5 98.5,35.5C 98.5,31.5 98.5,27.5 98.5,23.5C 103.167,23.5 107.833,23.5 112.5,23.5C 112.662,25.5273 112.495,27.5273 112,29.5C 111.617,30.056 111.117,30.3893 110.5,30.5C 109.279,31.0283 108.113,31.695 107,32.5C 106.667,37.1738 106.833,41.8405 107.5,46.5C 104.606,46.0423 102.106,46.709 100,48.5C 98.769,47.8922 97.4357,47.5589 96,47.5C 91.322,47.9442 86.822,48.6109 82.5,49.5C 68.1667,49.5 53.8333,49.5 39.5,49.5C 41.4613,47.7084 42.7946,45.5418 43.5,43C 42.6275,37.853 41.9608,32.6863 41.5,27.5C 44.7396,27.2322 47.9063,26.5655 51,25.5C 52.0299,25.1639 52.5299,24.4972 52.5,23.5 Z"/></g>
<g><path style="opacity:1" fill="#4d99bb" d="M 72.5,23.5 C 75.3054,24.3195 78.3054,24.8195 81.5,25C 78.3819,25.8725 75.3819,27.0392 72.5,28.5C 71.1568,30.9044 69.8234,33.2377 68.5,35.5C 68.5,31.5 68.5,27.5 68.5,23.5C 69.8333,23.5 71.1667,23.5 72.5,23.5 Z"/></g>
<g><path style="opacity:1" fill="#266885" d="M 112.5,23.5 C 113.338,30.4982 114.005,37.6649 114.5,45C 114.492,46.7067 114.158,48.2067 113.5,49.5C 110.833,49.5 108.167,49.5 105.5,49.5C 108.152,49.009 109.652,47.3424 110,44.5C 110.434,41.8208 110.268,39.1541 109.5,36.5C 109.709,35.0055 110.376,33.8388 111.5,33C 110.748,32.3292 110.414,31.4959 110.5,30.5C 111.117,30.3893 111.617,30.056 112,29.5C 112.495,27.5273 112.662,25.5273 112.5,23.5 Z"/></g>
<g><path style="opacity:1" fill="#2c7a9d" d="M 110.5,30.5 C 110.414,31.4959 110.748,32.3292 111.5,33C 110.376,33.8388 109.709,35.0055 109.5,36.5C 110.268,39.1541 110.434,41.8208 110,44.5C 109.652,47.3424 108.152,49.009 105.5,49.5C 97.8333,49.5 90.1667,49.5 82.5,49.5C 86.822,48.6109 91.322,47.9442 96,47.5C 97.4357,47.5589 98.769,47.8922 100,48.5C 102.106,46.709 104.606,46.0423 107.5,46.5C 106.833,41.8405 106.667,37.1738 107,32.5C 108.113,31.695 109.279,31.0283 110.5,30.5 Z"/></g>
<g><path style="opacity:1" fill="#4a96b8" d="M 52.5,23.5 C 52.5299,24.4972 52.0299,25.1639 51,25.5C 47.9063,26.5655 44.7396,27.2322 41.5,27.5C 41.9608,32.6863 42.6275,37.853 43.5,43C 42.7946,45.5418 41.4613,47.7084 39.5,49.5C 37.5437,43.588 36.8771,37.2547 37.5,30.5C 37.5,28.1667 37.5,25.8333 37.5,23.5C 42.5,23.5 47.5,23.5 52.5,23.5 Z"/></g>
<g><path style="opacity:1" fill="#10262f" d="M 37.5,30.5 C 36.8771,37.2547 37.5437,43.588 39.5,49.5C 53.8333,49.5 68.1667,49.5 82.5,49.5C 90.1667,49.5 97.8333,49.5 105.5,49.5C 108.167,49.5 110.833,49.5 113.5,49.5C 88.0054,50.4978 62.3388,50.8311 36.5,50.5C 36.176,43.6457 36.5093,36.979 37.5,30.5 Z"/></g>
<g><path style="opacity:1" fill="#225e79" d="M 38.5,53.5 C 62.6632,52.3368 86.9965,52.1701 111.5,53C 109.316,55.0165 107.316,57.1831 105.5,59.5C 85.5,60.8333 65.5,60.8333 45.5,59.5C 43.7607,56.7573 41.4274,54.7573 38.5,53.5 Z"/></g>
<g><path style="opacity:1" fill="#132f3c" d="M 82.5,62.5 C 89.5079,62.3337 96.5079,62.5004 103.5,63C 104.435,65.3806 104.768,67.8806 104.5,70.5C 103.733,69.828 103.066,68.9947 102.5,68C 97.8169,65.3184 92.8169,63.8184 87.5,63.5C 86.8333,63.5 86.1667,63.5 85.5,63.5C 84.209,63.7373 83.209,63.404 82.5,62.5 Z"/></g>
<g><path style="opacity:1" fill="#1e5269" d="M 85.5,63.5 C 86.1667,63.5 86.8333,63.5 87.5,63.5C 90.688,65.6902 93.8546,68.0235 97,70.5C 96.3829,72.0948 96.7163,73.4281 98,74.5C 98.3333,73.8333 98.6667,73.1667 99,72.5C 100.914,74.8565 103.081,76.8565 105.5,78.5C 105.724,82.1788 106.058,85.8455 106.5,89.5C 101.458,83.4392 95.9575,77.7725 90,72.5C 89.0138,69.1943 87.5138,66.1943 85.5,63.5 Z"/></g>
<g><path style="opacity:1" fill="#1a4559" d="M 87.5,63.5 C 92.8169,63.8184 97.8169,65.3184 102.5,68C 103.066,68.9947 103.733,69.828 104.5,70.5C 104.232,72.099 104.566,73.4324 105.5,74.5C 105.5,75.8333 105.5,77.1667 105.5,78.5C 103.081,76.8565 100.914,74.8565 99,72.5C 98.6667,73.1667 98.3333,73.8333 98,74.5C 96.7163,73.4281 96.3829,72.0948 97,70.5C 93.8546,68.0235 90.688,65.6902 87.5,63.5 Z"/></g>
<g><path style="opacity:1" fill="#4994b6" d="M 46.5,64.5 C 46.8333,64.5 47.1667,64.5 47.5,64.5C 49.4095,65.9746 50.5762,67.9746 51,70.5C 53.8348,82.5056 56.6681,94.5056 59.5,106.5C 58.8445,109.659 57.1779,112.159 54.5,114C 50.5085,116.137 46.5085,117.97 42.5,119.5C 43.5595,101.122 44.8929,82.7887 46.5,64.5 Z"/></g>
<g><path style="opacity:1" fill="#2c799c" d="M 68.5,63.5 C 73.3111,63.4123 77.6445,64.7456 81.5,67.5C 83.8253,72.1466 86.6587,76.4799 90,80.5C 90.7203,82.1124 90.5536,83.6124 89.5,85C 91.5689,85.3242 91.9023,86.1575 90.5,87.5C 92.4393,91.9706 94.1059,96.4706 95.5,101C 92.2602,102.699 91.5935,104.699 93.5,107C 92.3032,109.894 90.9699,112.727 89.5,115.5C 90.2427,116.182 90.9094,116.849 91.5,117.5C 91.7822,118.778 92.4489,119.778 93.5,120.5C 91.8333,120.5 90.1667,120.5 88.5,120.5C 87.2419,117.349 87.5752,114.183 89.5,111C 88.2415,108.815 88.2415,106.648 89.5,104.5C 89.0233,103.522 88.3567,102.689 87.5,102C 88.6721,101.581 89.6721,100.915 90.5,100C 90.9694,98.038 90.3027,96.2047 88.5,94.5C 88.7093,93.914 89.0426,93.414 89.5,93C 87.8071,91.287 86.4738,89.287 85.5,87C 86.0219,86.4387 86.3552,85.772 86.5,85C 85.3165,82.0569 83.6498,79.3903 81.5,77C 82.0406,74.1354 80.7073,72.1354 77.5,71C 77.8333,70.6667 78.1667,70.3333 78.5,70C 77.8095,68.9326 77.3095,67.7659 77,66.5C 76,67.1667 75,67.8333 74,68.5C 71.913,67.2062 69.7463,66.0395 67.5,65C 68.056,64.6174 68.3893,64.1174 68.5,63.5 Z"/></g>
<g><path style="opacity:1" fill="#3289b0" d="M 47.5,64.5 C 54.3134,63.5088 61.3134,63.1755 68.5,63.5C 68.3893,64.1174 68.056,64.6174 67.5,65C 69.7463,66.0395 71.913,67.2062 74,68.5C 75,67.8333 76,67.1667 77,66.5C 77.3095,67.7659 77.8095,68.9326 78.5,70C 78.1667,70.3333 77.8333,70.6667 77.5,71C 80.7073,72.1354 82.0406,74.1354 81.5,77C 83.6498,79.3903 85.3165,82.0569 86.5,85C 86.3552,85.772 86.0219,86.4387 85.5,87C 86.4738,89.287 87.8071,91.287 89.5,93C 89.0426,93.414 88.7093,93.914 88.5,94.5C 90.3027,96.2047 90.9694,98.038 90.5,100C 89.6721,100.915 88.6721,101.581 87.5,102C 88.3567,102.689 89.0233,103.522 89.5,104.5C 88.2415,106.648 88.2415,108.815 89.5,111C 87.5752,114.183 87.2419,117.349 88.5,120.5C 73.1667,120.5 57.8333,120.5 42.5,120.5C 42.5,120.167 42.5,119.833 42.5,119.5C 46.5085,117.97 50.5085,116.137 54.5,114C 57.1779,112.159 58.8445,109.659 59.5,106.5C 56.6681,94.5056 53.8348,82.5056 51,70.5C 50.5762,67.9746 49.4095,65.9746 47.5,64.5 Z"/></g>
<g><path style="opacity:1" fill="#29708f" d="M 81.5,67.5 C 83.5596,68.2152 85.2263,69.5486 86.5,71.5C 87.6405,72.4255 87.6405,73.2588 86.5,74C 93.1466,80.7956 96.98,88.9623 98,98.5C 98.2601,105.753 96.0934,112.087 91.5,117.5C 90.9094,116.849 90.2427,116.182 89.5,115.5C 90.9699,112.727 92.3032,109.894 93.5,107C 91.5935,104.699 92.2602,102.699 95.5,101C 94.1059,96.4706 92.4393,91.9706 90.5,87.5C 91.9023,86.1575 91.5689,85.3242 89.5,85C 90.5536,83.6124 90.7203,82.1124 90,80.5C 86.6587,76.4799 83.8253,72.1466 81.5,67.5 Z"/></g>
<g><path style="opacity:1" fill="#225e79" d="M 82.5,62.5 C 83.209,63.404 84.209,63.7373 85.5,63.5C 87.5138,66.1943 89.0138,69.1943 90,72.5C 95.9575,77.7725 101.458,83.4392 106.5,89.5C 106.5,90.8333 106.5,92.1667 106.5,93.5C 106.666,98.5111 106.499,103.511 106,108.5C 104.649,110.019 103.149,111.352 101.5,112.5C 102.91,118.944 100.243,121.611 93.5,120.5C 92.4489,119.778 91.7822,118.778 91.5,117.5C 96.0934,112.087 98.2601,105.753 98,98.5C 96.98,88.9623 93.1466,80.7956 86.5,74C 87.6405,73.2588 87.6405,72.4255 86.5,71.5C 85.2263,69.5486 83.5596,68.2152 81.5,67.5C 77.6445,64.7456 73.3111,63.4123 68.5,63.5C 61.3134,63.1755 54.3134,63.5088 47.5,64.5C 47.1667,64.5 46.8333,64.5 46.5,64.5C 58.1201,62.5209 70.1201,61.8542 82.5,62.5 Z"/></g>
<g><path style="opacity:1" fill="#183e4f" d="M 106.5,93.5 C 107.954,102.293 108.621,111.293 108.5,120.5C 86.5331,121.468 64.5331,121.801 42.5,121.5C 42.5,121.167 42.5,120.833 42.5,120.5C 57.8333,120.5 73.1667,120.5 88.5,120.5C 90.1667,120.5 91.8333,120.5 93.5,120.5C 100.243,121.611 102.91,118.944 101.5,112.5C 103.149,111.352 104.649,110.019 106,108.5C 106.499,103.511 106.666,98.5111 106.5,93.5 Z"/></g>
<g><path style="opacity:0.991" fill="#040708" d="M 107.5,63.5 C 108.747,82.5466 110.413,101.547 112.5,120.5C 119.956,121.12 124.456,125.12 126,132.5C 126.498,135.482 126.665,138.482 126.5,141.5C 92.5,141.5 58.5,141.5 24.5,141.5C 23.0485,134.129 25.0485,127.962 30.5,123C 33.8336,121.958 36.8336,120.458 39.5,118.5C 40.6052,120.3 39.9386,121.467 37.5,122C 38.056,122.383 38.3893,122.883 38.5,123.5C 34.4353,123.897 31.4353,125.897 29.5,129.5C 27.7773,131.78 27.1107,134.447 27.5,137.5C 59.329,138.498 91.329,138.832 123.5,138.5C 123.931,133.793 122.598,129.793 119.5,126.5C 117.281,124.394 114.615,123.394 111.5,123.5C 111.167,123.5 110.833,123.5 110.5,123.5C 86.6266,122.853 63.9599,122.187 42.5,121.5C 64.5331,121.801 86.5331,121.468 108.5,120.5C 108.621,111.293 107.954,102.293 106.5,93.5C 106.5,92.1667 106.5,90.8333 106.5,89.5C 106.058,85.8455 105.724,82.1788 105.5,78.5C 105.5,77.1667 105.5,75.8333 105.5,74.5C 105.116,70.5115 105.783,66.8448 107.5,63.5 Z"/></g>
<g><path style="opacity:1" fill="#3289b1" d="M 111.5,123.5 C 114.615,123.394 117.281,124.394 119.5,126.5C 118.191,131.638 114.858,134.471 109.5,135C 82.2013,136.895 54.868,137.728 27.5,137.5C 27.1107,134.447 27.7773,131.78 29.5,129.5C 54.6633,130.663 79.9967,130.83 105.5,130C 108.965,129.35 111.965,127.85 114.5,125.5C 113.398,124.824 112.398,124.158 111.5,123.5 Z"/></g>
<g><path style="opacity:1" fill="#569ebe" d="M 38.5,123.5 C 62.5,123.5 86.5,123.5 110.5,123.5C 110.833,123.5 111.167,123.5 111.5,123.5C 112.398,124.158 113.398,124.824 114.5,125.5C 111.965,127.85 108.965,129.35 105.5,130C 79.9967,130.83 54.6633,130.663 29.5,129.5C 31.4353,125.897 34.4353,123.897 38.5,123.5 Z"/></g>
<g><path style="opacity:1" fill="#215972" d="M 119.5,126.5 C 122.598,129.793 123.931,133.793 123.5,138.5C 91.329,138.832 59.329,138.498 27.5,137.5C 54.868,137.728 82.2013,136.895 109.5,135C 114.858,134.471 118.191,131.638 119.5,126.5 Z"/></g>
</svg>
