<?xml version="1.0" encoding="UTF-8"?>
<!DOCTYPE svg PUBLIC "-//W3C//DTD SVG 1.1//EN" "http://www.w3.org/Graphics/SVG/1.1/DTD/svg11.dtd">
<svg xmlns="http://www.w3.org/2000/svg" version="1.1" width="150px" height="150px" style="shape-rendering:geometricPrecision; text-rendering:geometricPrecision; image-rendering:optimizeQuality; fill-rule:evenodd; clip-rule:evenodd" xmlns:xlink="http://www.w3.org/1999/xlink">
<g><path style="opacity:1" fill="#222020" d="M 102.5,99.5 C 84.1667,99.5 65.8333,99.5 47.5,99.5C 39.9401,94.7202 36.2735,87.7202 36.5,78.5C 37.5788,68.3408 41.4121,59.3408 48,51.5C 53.8507,45.1688 60.3507,39.6688 67.5,35C 61.9897,28.7119 62.323,22.7119 68.5,17C 78.2281,13.2892 84.2281,16.4558 86.5,26.5C 86.0259,29.7644 84.6925,32.5978 82.5,35C 94.3217,43.1516 103.655,53.4849 110.5,66C 114.941,76.8002 113.774,86.9668 107,96.5C 105.729,97.8825 104.229,98.8825 102.5,99.5 Z"/></g>
<g><path style="opacity:1" fill="#bbbdb8" d="M 71.5,42.5 C 73.8769,44.0302 73.8769,45.5302 71.5,47C 73.0762,47.4396 74.4096,48.273 75.5,49.5C 76.7112,48.7261 76.7112,47.8928 75.5,47C 77.8071,46.2214 79.8071,46.7214 81.5,48.5C 82.2811,47.2713 82.7811,45.938 83,44.5C 84.3561,45.3802 85.8561,45.7135 87.5,45.5C 87.3505,46.552 87.5172,47.552 88,48.5C 88.3333,48.1667 88.6667,47.8333 89,47.5C 89.4482,49.2244 90.2815,49.891 91.5,49.5C 91.5866,51.9633 91.5866,54.4633 91.5,57C 93.1966,57.3845 94.8632,57.2178 96.5,56.5C 100.672,59.6311 101.672,63.2978 99.5,67.5C 98.9569,67.56 98.6236,67.8933 98.5,68.5C 101.215,70.5505 101.048,72.2172 98,73.5C 97.1376,75.087 96.4709,76.7536 96,78.5C 94.3333,79.8333 92.6667,79.8333 91,78.5C 90.8213,74.9748 90.3213,71.6414 89.5,68.5C 86.7131,67.5233 83.7131,67.19 80.5,67.5C 80.5,64.5 80.5,61.5 80.5,58.5C 76.8333,58.5 73.1667,58.5 69.5,58.5C 68.6805,61.3054 68.1805,64.3054 68,67.5C 66.7288,64.2579 64.5622,61.9246 61.5,60.5C 63.8406,56.5023 66.6739,52.8357 70,49.5C 70.662,47.1873 71.162,44.854 71.5,42.5 Z"/></g>
<g><path style="opacity:1" fill="#dfe0de" d="M 71.5,42.5 C 71.162,44.854 70.662,47.1873 70,49.5C 66.6739,52.8357 63.8406,56.5023 61.5,60.5C 59.1402,61.865 57.4735,63.865 56.5,66.5C 54.1938,69.4729 51.5272,72.1395 48.5,74.5C 48.2642,72.9509 48.2642,71.4509 48.5,70C 51.1667,69.3333 51.1667,68.6667 48.5,68C 50.1247,67.1475 50.4581,66.1475 49.5,65C 49.9963,63.0036 50.9963,61.3369 52.5,60C 52.0426,59.586 51.7093,59.086 51.5,58.5C 52.5565,55.8114 53.8899,53.3114 55.5,51C 54.9056,50.5357 54.2389,50.369 53.5,50.5C 57.7949,46.3535 62.4616,42.6868 67.5,39.5C 70.3714,38.0136 71.7047,39.0136 71.5,42.5 Z"/></g>
<g><path style="opacity:1" fill="#b8bbb6" d="M 96.5,51.5 C 95.9285,52.9733 95.9285,54.64 96.5,56.5C 94.8632,57.2178 93.1966,57.3845 91.5,57C 91.5866,54.4633 91.5866,51.9633 91.5,49.5C 90.2815,49.891 89.4482,49.2244 89,47.5C 88.6667,47.8333 88.3333,48.1667 88,48.5C 87.5172,47.552 87.3505,46.552 87.5,45.5C 85.8561,45.7135 84.3561,45.3802 83,44.5C 82.7811,45.938 82.2811,47.2713 81.5,48.5C 79.8071,46.7214 77.8071,46.2214 75.5,47C 76.7112,47.8928 76.7112,48.7261 75.5,49.5C 74.4096,48.273 73.0762,47.4396 71.5,47C 73.8769,45.5302 73.8769,44.0302 71.5,42.5C 71.7047,39.0136 70.3714,38.0136 67.5,39.5C 68.0577,38.2101 69.0577,37.3768 70.5,37C 73.5,36.3333 76.5,36.3333 79.5,37C 85.6524,41.3233 91.319,46.1567 96.5,51.5 Z"/></g>
<g><path style="opacity:1" fill="#b7b9b5" d="M 78.5,19.5 C 83.7372,24.1364 83.7372,28.9698 78.5,34C 74.5369,35.1366 71.2036,34.3033 68.5,31.5C 70.0799,29.2829 71.0799,26.6163 71.5,23.5C 74.1381,22.4174 76.4714,21.0841 78.5,19.5 Z"/></g>
<g><path style="opacity:1" fill="#e2e3e2" d="M 78.5,19.5 C 76.4714,21.0841 74.1381,22.4174 71.5,23.5C 71.0799,26.6163 70.0799,29.2829 68.5,31.5C 65.2338,26.3338 66.2338,22.1671 71.5,19C 73.9291,18.2967 76.2625,18.4634 78.5,19.5 Z"/></g>
<g><path style="opacity:1" fill="#e2e4e2" d="M 53.5,50.5 C 54.2389,50.369 54.9056,50.5357 55.5,51C 53.8899,53.3114 52.5565,55.8114 51.5,58.5C 51.7093,59.086 52.0426,59.586 52.5,60C 50.9963,61.3369 49.9963,63.0036 49.5,65C 50.4581,66.1475 50.1247,67.1475 48.5,68C 51.1667,68.6667 51.1667,69.3333 48.5,70C 48.2642,71.4509 48.2642,72.9509 48.5,74.5C 43.0531,81.3504 40.3864,80.6838 40.5,72.5C 42.7742,63.9519 47.1075,56.6186 53.5,50.5 Z"/></g>
<g><path style="opacity:1" fill="#0e0f10" d="M 69.5,59.5 C 72.8333,59.5 76.1667,59.5 79.5,59.5C 79.5,62.5 79.5,65.5 79.5,68.5C 82.8333,68.5 86.1667,68.5 89.5,68.5C 89.5,71.8333 89.5,75.1667 89.5,78.5C 86.5,78.5 83.5,78.5 80.5,78.5C 79.5233,81.2869 79.19,84.2869 79.5,87.5C 76.1667,87.5 72.8333,87.5 69.5,87.5C 69.5,84.5 69.5,81.5 69.5,78.5C 66.5,78.5 63.5,78.5 60.5,78.5C 60.5,75.1667 60.5,71.8333 60.5,68.5C 63.5,68.5 66.5,68.5 69.5,68.5C 69.5,65.5 69.5,62.5 69.5,59.5 Z"/></g>
<g><path style="opacity:0.992" fill="#4d4e4d" d="M 69.5,59.5 C 69.5,59.1667 69.5,58.8333 69.5,58.5C 73.1667,58.5 76.8333,58.5 80.5,58.5C 80.5,61.5 80.5,64.5 80.5,67.5C 83.7131,67.19 86.7131,67.5233 89.5,68.5C 86.1667,68.5 82.8333,68.5 79.5,68.5C 79.5,65.5 79.5,62.5 79.5,59.5C 76.1667,59.5 72.8333,59.5 69.5,59.5 Z"/></g>
<g><path style="opacity:1" fill="#a5a7a3" d="M 96.5,51.5 C 108.109,61.6453 111.776,73.9786 107.5,88.5C 107.047,85.537 105.547,83.2037 103,81.5C 102,82.5 101,83.5 100,84.5C 99.8333,84.1667 99.6667,83.8333 99.5,83.5C 100.747,81.9579 100.747,80.4579 99.5,79C 101.384,78.7837 103.051,78.117 104.5,77C 103.22,74.8683 103.22,72.7016 104.5,70.5C 102.64,69.6751 100.974,68.6751 99.5,67.5C 101.672,63.2978 100.672,59.6311 96.5,56.5C 95.9285,54.64 95.9285,52.9733 96.5,51.5 Z"/></g>
<g><path style="opacity:1" fill="#dadbda" d="M 77.5,61.5 C 77.5,64.8333 77.5,68.1667 77.5,71.5C 80.5,71.5 83.5,71.5 86.5,71.5C 86.5,73.1667 86.5,74.8333 86.5,76.5C 83.5,76.5 80.5,76.5 77.5,76.5C 77.5,79.5 77.5,82.5 77.5,85.5C 75.8333,85.5 74.1667,85.5 72.5,85.5C 72.81,82.2869 72.4767,79.2869 71.5,76.5C 68.5,76.5 65.5,76.5 62.5,76.5C 62.5,74.5 62.5,72.5 62.5,70.5C 65.5,70.5 68.5,70.5 71.5,70.5C 71.5,67.5 71.5,64.5 71.5,61.5C 73.5,61.5 75.5,61.5 77.5,61.5 Z"/></g>
<g><path style="opacity:1" fill="#828482" d="M 77.5,61.5 C 78.4767,64.2869 78.81,67.2869 78.5,70.5C 81.5,70.5 84.5,70.5 87.5,70.5C 87.7947,72.7354 87.4614,74.7354 86.5,76.5C 86.5,74.8333 86.5,73.1667 86.5,71.5C 83.5,71.5 80.5,71.5 77.5,71.5C 77.5,68.1667 77.5,64.8333 77.5,61.5 Z"/></g>
<g><path style="opacity:1" fill="#babdb8" d="M 56.5,66.5 C 59.1293,69.7694 59.1293,73.1027 56.5,76.5C 57.9378,78.3445 57.6044,79.5112 55.5,80C 57.7811,81.4823 57.7811,83.149 55.5,85C 54.5509,85.6172 53.7175,85.4506 53,84.5C 52.5439,85.7441 53.0439,86.5774 54.5,87C 53.9341,87.9947 53.2674,88.828 52.5,89.5C 51.7784,89.0825 51.2784,88.4158 51,87.5C 49.2092,90.8271 47.0425,91.1604 44.5,88.5C 43.8165,88.8627 43.1499,89.1961 42.5,89.5C 39.5471,83.9897 38.8804,78.3231 40.5,72.5C 40.3864,80.6838 43.0531,81.3504 48.5,74.5C 51.5272,72.1395 54.1938,69.4729 56.5,66.5 Z"/></g>
<g><path style="opacity:1" fill="#828481" d="M 60.5,68.5 C 60.5,71.8333 60.5,75.1667 60.5,78.5C 63.5,78.5 66.5,78.5 69.5,78.5C 69.5,81.5 69.5,84.5 69.5,87.5C 69.5,87.8333 69.5,88.1667 69.5,88.5C 69.1667,88.5 68.8333,88.5 68.5,88.5C 68.5,85.5 68.5,82.5 68.5,79.5C 65.5,79.5 62.5,79.5 59.5,79.5C 59.185,75.6286 59.5184,71.9619 60.5,68.5 Z"/></g>
<g><path style="opacity:1" fill="#8a8c88" d="M 71.5,76.5 C 72.4767,79.2869 72.81,82.2869 72.5,85.5C 74.1667,85.5 75.8333,85.5 77.5,85.5C 75.7354,86.4614 73.7354,86.7947 71.5,86.5C 71.5,83.1667 71.5,79.8333 71.5,76.5 Z"/></g>
<g><path style="opacity:1" fill="#b4b7b3" d="M 69.5,58.5 C 69.5,58.8333 69.5,59.1667 69.5,59.5C 69.5,62.5 69.5,65.5 69.5,68.5C 66.5,68.5 63.5,68.5 60.5,68.5C 59.5184,71.9619 59.185,75.6286 59.5,79.5C 62.5,79.5 65.5,79.5 68.5,79.5C 68.5,82.5 68.5,85.5 68.5,88.5C 65.0922,88.4367 62.7589,86.77 61.5,83.5C 60.1068,85.6741 60.4402,87.5074 62.5,89C 60.9632,90.1096 60.2965,91.6096 60.5,93.5C 60.44,94.0431 60.1067,94.3764 59.5,94.5C 58.8333,93.5 58.1667,92.5 57.5,91.5C 56.8333,92.8333 56.1667,94.1667 55.5,95.5C 54.5,94.1667 53.5,94.1667 52.5,95.5C 51.7492,94.624 51.2492,93.624 51,92.5C 50.0862,93.6537 49.2529,93.487 48.5,92C 49.8584,91.0656 51.1917,90.2323 52.5,89.5C 53.2674,88.828 53.9341,87.9947 54.5,87C 53.0439,86.5774 52.5439,85.7441 53,84.5C 53.7175,85.4506 54.5509,85.6172 55.5,85C 57.7811,83.149 57.7811,81.4823 55.5,80C 57.6044,79.5112 57.9378,78.3445 56.5,76.5C 59.1293,73.1027 59.1293,69.7694 56.5,66.5C 57.4735,63.865 59.1402,61.865 61.5,60.5C 64.5622,61.9246 66.7288,64.2579 68,67.5C 68.1805,64.3054 68.6805,61.3054 69.5,58.5 Z"/></g>
<g><path style="opacity:1" fill="#b6b9b5" d="M 74.5,98.5 C 74.1667,98.5 73.8333,98.5 73.5,98.5C 73.1044,95.5178 73.7711,92.8511 75.5,90.5C 73.5,89.1667 71.5,89.1667 69.5,90.5C 70.5,91.1667 71.5,91.8333 72.5,92.5C 72.1667,92.8333 71.8333,93.1667 71.5,93.5C 66.3631,92.2237 66.1965,92.8903 71,95.5C 71.6877,96.3317 71.521,96.9984 70.5,97.5C 67.8765,95.6407 65.3765,93.6407 63,91.5C 62.9252,93.935 62.0919,94.6016 60.5,93.5C 60.2965,91.6096 60.9632,90.1096 62.5,89C 60.4402,87.5074 60.1068,85.6741 61.5,83.5C 62.7589,86.77 65.0922,88.4367 68.5,88.5C 68.8333,88.5 69.1667,88.5 69.5,88.5C 73.1667,88.5 76.8333,88.5 80.5,88.5C 81.4767,85.7131 81.81,82.7131 81.5,79.5C 84.1873,79.3359 86.854,79.5026 89.5,80C 87.1088,80.6914 87.1088,81.6914 89.5,83C 88.8333,83.3333 88.1667,83.6667 87.5,84C 89.3126,83.9536 90.9793,84.1203 92.5,84.5C 87.7854,90.9688 81.7854,95.6354 74.5,98.5 Z"/></g>
<g><path style="opacity:1" fill="#aaada9" d="M 99.5,67.5 C 100.974,68.6751 102.64,69.6751 104.5,70.5C 103.22,72.7016 103.22,74.8683 104.5,77C 103.051,78.117 101.384,78.7837 99.5,79C 100.747,80.4579 100.747,81.9579 99.5,83.5C 99.6667,83.8333 99.8333,84.1667 100,84.5C 101,83.5 102,82.5 103,81.5C 105.547,83.2037 107.047,85.537 107.5,88.5C 106.137,92.702 103.47,95.8686 99.5,98C 91.1733,98.4997 82.84,98.6664 74.5,98.5C 81.7854,95.6354 87.7854,90.9688 92.5,84.5C 90.9793,84.1203 89.3126,83.9536 87.5,84C 88.1667,83.6667 88.8333,83.3333 89.5,83C 87.1088,81.6914 87.1088,80.6914 89.5,80C 86.854,79.5026 84.1873,79.3359 81.5,79.5C 81.81,82.7131 81.4767,85.7131 80.5,88.5C 80.5,85.1667 80.5,81.8333 80.5,78.5C 83.5,78.5 86.5,78.5 89.5,78.5C 89.5,75.1667 89.5,71.8333 89.5,68.5C 90.3213,71.6414 90.8213,74.9748 91,78.5C 92.6667,79.8333 94.3333,79.8333 96,78.5C 96.4709,76.7536 97.1376,75.087 98,73.5C 101.048,72.2172 101.215,70.5505 98.5,68.5C 98.6236,67.8933 98.9569,67.56 99.5,67.5 Z"/></g>
<g><path style="opacity:0.996" fill="#464747" d="M 80.5,78.5 C 80.5,81.8333 80.5,85.1667 80.5,88.5C 76.8333,88.5 73.1667,88.5 69.5,88.5C 69.5,88.1667 69.5,87.8333 69.5,87.5C 72.8333,87.5 76.1667,87.5 79.5,87.5C 79.19,84.2869 79.5233,81.2869 80.5,78.5 Z"/></g>
<g><path style="opacity:1" fill="#b7bab6" d="M 52.5,89.5 C 51.1917,90.2323 49.8584,91.0656 48.5,92C 49.2529,93.487 50.0862,93.6537 51,92.5C 51.2492,93.624 51.7492,94.624 52.5,95.5C 53.5,94.1667 54.5,94.1667 55.5,95.5C 56.1667,94.1667 56.8333,92.8333 57.5,91.5C 58.1667,92.5 58.8333,93.5 59.5,94.5C 60.1067,94.3764 60.44,94.0431 60.5,93.5C 62.0919,94.6016 62.9252,93.935 63,91.5C 65.3765,93.6407 67.8765,95.6407 70.5,97.5C 71.521,96.9984 71.6877,96.3317 71,95.5C 66.1965,92.8903 66.3631,92.2237 71.5,93.5C 71.8333,93.1667 72.1667,92.8333 72.5,92.5C 71.5,91.8333 70.5,91.1667 69.5,90.5C 71.5,89.1667 73.5,89.1667 75.5,90.5C 73.7711,92.8511 73.1044,95.5178 73.5,98.5C 65.8261,98.6664 58.1594,98.4997 50.5,98C 46.5907,96.2596 43.924,93.4263 42.5,89.5C 43.1499,89.1961 43.8165,88.8627 44.5,88.5C 47.0425,91.1604 49.2092,90.8271 51,87.5C 51.2784,88.4158 51.7784,89.0825 52.5,89.5 Z"/></g>
<g><path style="opacity:1" fill="#171718" d="M 47.5,99.5 C 65.8333,99.5 84.1667,99.5 102.5,99.5C 104.043,102.217 105.377,105.051 106.5,108C 104.114,115.053 99.1135,119.053 91.5,120C 101.243,121.115 110.91,121.949 120.5,122.5C 111.435,121.864 102.769,122.53 94.5,124.5C 90.2798,124.573 87.9464,122.573 87.5,118.5C 78.9832,118.174 70.6499,118.507 62.5,119.5C 61.1394,121.527 59.4727,123.194 57.5,124.5C 56.5,124.5 55.5,124.5 54.5,124.5C 54.6107,123.883 54.944,123.383 55.5,123C 53.9419,122.79 52.6085,122.29 51.5,121.5C 53.9892,121.702 56.3225,121.202 58.5,120C 52.3028,119.324 47.4695,116.491 44,111.5C 42.6986,109.635 42.3653,107.635 43,105.5C 45.1267,103.886 46.6267,101.886 47.5,99.5 Z"/></g>
<g><path style="opacity:1" fill="#a4a6a2" d="M 101.5,105.5 C 103.273,106.314 103.773,107.648 103,109.5C 101.127,111.709 98.96,113.542 96.5,115C 89.5079,115.5 82.5079,115.666 75.5,115.5C 75.5198,113.857 74.8532,112.524 73.5,111.5C 74.2427,110.818 74.9094,110.151 75.5,109.5C 83.8599,109.831 92.1932,109.498 100.5,108.5C 98.9084,106.775 99.2417,105.775 101.5,105.5 Z"/></g>
<g><path style="opacity:1" fill="#a2a4a0" d="M 47.5,109.5 C 56.8333,109.5 66.1667,109.5 75.5,109.5C 74.9094,110.151 74.2427,110.818 73.5,111.5C 74.8532,112.524 75.5198,113.857 75.5,115.5C 67.8261,115.666 60.1594,115.5 52.5,115C 49.921,113.924 48.2543,112.091 47.5,109.5 Z"/></g>
<g><path style="opacity:1" fill="#eaebea" d="M 50.5,103.5 C 65.5208,104.669 80.5208,106.169 95.5,108C 87.5,108.167 79.5,108.333 71.5,108.5C 63.1376,108.498 55.1376,107.831 47.5,106.5C 47.5,104.5 48.5,103.5 50.5,103.5 Z"/></g>
<g><path style="opacity:1" fill="#c0c2be" d="M 101.5,105.5 C 99.2417,105.775 98.9084,106.775 100.5,108.5C 92.1932,109.498 83.8599,109.831 75.5,109.5C 66.1667,109.5 56.8333,109.5 47.5,109.5C 46.1667,108.5 46.1667,107.5 47.5,106.5C 55.1376,107.831 63.1376,108.498 71.5,108.5C 79.5,108.333 87.5,108.167 95.5,108C 80.5208,106.169 65.5208,104.669 50.5,103.5C 50.6107,102.883 50.944,102.383 51.5,102C 67.1667,101.333 82.8333,101.333 98.5,102C 99.7101,103.039 100.71,104.206 101.5,105.5 Z"/></g>
<g><path style="opacity:1" fill="#9ea19c" d="M 62.5,119.5 C 70.6499,118.507 78.9832,118.174 87.5,118.5C 87.9464,122.573 90.2798,124.573 94.5,124.5C 94.5,124.833 94.5,125.167 94.5,125.5C 88.5378,126.471 82.5378,126.471 76.5,125.5C 76.5,126.5 76.5,127.5 76.5,128.5C 75.7784,128.082 75.2784,127.416 75,126.5C 74.6174,127.056 74.1174,127.389 73.5,127.5C 73.5,126.167 73.5,124.833 73.5,123.5C 69.5053,122.947 65.8386,121.614 62.5,119.5 Z"/></g>
<g><path style="opacity:1" fill="#eff0ef" d="M 54.5,124.5 C 55.5,124.5 56.5,124.5 57.5,124.5C 59.6456,124.696 59.8122,125.696 58,127.5C 56.786,129.049 55.286,130.215 53.5,131C 41.9924,131.826 30.6591,131.659 19.5,130.5C 20.2187,128.112 21.8854,126.612 24.5,126C 34.5766,125.809 44.5766,125.309 54.5,124.5 Z"/></g>
<g><path style="opacity:1" fill="#b9bbb7" d="M 62.5,119.5 C 65.8386,121.614 69.5053,122.947 73.5,123.5C 73.5,124.833 73.5,126.167 73.5,127.5C 72.5514,129.777 71.2181,131.777 69.5,133.5C 66.4726,134.037 63.4726,134.871 60.5,136C 47.8333,136.333 35.1667,136.667 22.5,137C 21.0577,137.377 20.0577,138.21 19.5,139.5C 18.5,139.5 17.5,139.5 16.5,139.5C 16.1376,135.919 17.1376,132.919 19.5,130.5C 30.6591,131.659 41.9924,131.826 53.5,131C 55.286,130.215 56.786,129.049 58,127.5C 59.8122,125.696 59.6456,124.696 57.5,124.5C 59.4727,123.194 61.1394,121.527 62.5,119.5 Z"/></g>
<g><path style="opacity:1" fill="#babdb8" d="M 94.5,125.5 C 97.8333,125.5 101.167,125.5 104.5,125.5C 104.405,128.272 103.071,130.272 100.5,131.5C 109.141,132.498 117.808,132.831 126.5,132.5C 125.547,134.61 123.881,135.777 121.5,136C 109.171,136.5 96.8378,136.667 84.5,136.5C 80.855,134.855 78.1884,132.188 76.5,128.5C 76.5,127.5 76.5,126.5 76.5,125.5C 82.5378,126.471 88.5378,126.471 94.5,125.5 Z"/></g>
<g><path style="opacity:1" fill="#ecedec" d="M 104.5,125.5 C 111.175,125.334 117.842,125.5 124.5,126C 127.229,126.566 129.229,128.066 130.5,130.5C 129.817,132.176 128.483,132.843 126.5,132.5C 117.808,132.831 109.141,132.498 100.5,131.5C 103.071,130.272 104.405,128.272 104.5,125.5 Z"/></g>
<g><path style="opacity:1" fill="#171718" d="M 76.5,128.5 C 78.1884,132.188 80.855,134.855 84.5,136.5C 88.4054,138.876 92.7387,139.876 97.5,139.5C 97.5,139.833 97.5,140.167 97.5,140.5C 95.8008,140.34 94.1341,140.506 92.5,141C 94.0581,141.21 95.3915,141.71 96.5,142.5C 87.8485,142.619 80.5152,139.619 74.5,133.5C 68.9609,139.794 61.9609,142.794 53.5,142.5C 54.2625,141.732 55.2625,141.232 56.5,141C 42.9937,140.831 29.6604,140.331 16.5,139.5C 17.5,139.5 18.5,139.5 19.5,139.5C 32.1711,139.667 44.8377,139.5 57.5,139C 62.0064,138.01 66.0064,136.177 69.5,133.5C 71.2181,131.777 72.5514,129.777 73.5,127.5C 74.1174,127.389 74.6174,127.056 75,126.5C 75.2784,127.416 75.7784,128.082 76.5,128.5 Z"/></g>
<g><path style="opacity:0.854" fill="#111213" d="M 120.5,122.5 C 129.438,122.267 134.604,126.6 136,135.5C 136.497,137.81 136.663,140.143 136.5,142.5C 123.167,142.5 109.833,142.5 96.5,142.5C 95.3915,141.71 94.0581,141.21 92.5,141C 94.1341,140.506 95.8008,140.34 97.5,140.5C 109.5,140.5 121.5,140.5 133.5,140.5C 133.768,138.901 133.434,137.568 132.5,136.5C 132.741,134.102 132.074,132.102 130.5,130.5C 129.229,128.066 127.229,126.566 124.5,126C 117.842,125.5 111.175,125.334 104.5,125.5C 101.167,125.5 97.8333,125.5 94.5,125.5C 94.5,125.167 94.5,124.833 94.5,124.5C 102.769,122.53 111.435,121.864 120.5,122.5 Z"/></g>
<g><path style="opacity:1" fill="#9d9f9a" d="M 69.5,133.5 C 66.0064,136.177 62.0064,138.01 57.5,139C 44.8377,139.5 32.1711,139.667 19.5,139.5C 20.0577,138.21 21.0577,137.377 22.5,137C 35.1667,136.667 47.8333,136.333 60.5,136C 63.4726,134.871 66.4726,134.037 69.5,133.5 Z"/></g>
<g><path style="opacity:1" fill="#9fa19c" d="M 130.5,130.5 C 132.074,132.102 132.741,134.102 132.5,136.5C 132.5,137.5 132.5,138.5 132.5,139.5C 120.833,139.5 109.167,139.5 97.5,139.5C 92.7387,139.876 88.4054,138.876 84.5,136.5C 96.8378,136.667 109.171,136.5 121.5,136C 123.881,135.777 125.547,134.61 126.5,132.5C 128.483,132.843 129.817,132.176 130.5,130.5 Z"/></g>
<g><path style="opacity:1" fill="#323332" d="M 132.5,136.5 C 133.434,137.568 133.768,138.901 133.5,140.5C 121.5,140.5 109.5,140.5 97.5,140.5C 97.5,140.167 97.5,139.833 97.5,139.5C 109.167,139.5 120.833,139.5 132.5,139.5C 132.5,138.5 132.5,137.5 132.5,136.5 Z"/></g>
<g><path style="opacity:0.847" fill="#101112" d="M 51.5,121.5 C 52.6085,122.29 53.9419,122.79 55.5,123C 54.944,123.383 54.6107,123.883 54.5,124.5C 44.5766,125.309 34.5766,125.809 24.5,126C 21.8854,126.612 20.2187,128.112 19.5,130.5C 17.1376,132.919 16.1376,135.919 16.5,139.5C 29.6604,140.331 42.9937,140.831 56.5,141C 55.2625,141.232 54.2625,141.732 53.5,142.5C 40.1667,142.5 26.8333,142.5 13.5,142.5C 11.8724,130.647 16.8724,123.814 28.5,122C 36.1594,121.5 43.8261,121.334 51.5,121.5 Z"/></g>
</svg>
