<?xml version="1.0" encoding="UTF-8"?>
<!DOCTYPE svg PUBLIC "-//W3C//DTD SVG 1.1//EN" "http://www.w3.org/Graphics/SVG/1.1/DTD/svg11.dtd">
<svg xmlns="http://www.w3.org/2000/svg" version="1.1" width="150px" height="150px" style="shape-rendering:geometricPrecision; text-rendering:geometricPrecision; image-rendering:optimizeQuality; fill-rule:evenodd; clip-rule:evenodd" xmlns:xlink="http://www.w3.org/1999/xlink">
<g><path style="opacity:0.852" fill="#0b0d0e" d="M 113.5,76.5 C 112.5,76.1667 111.833,75.5 111.5,74.5C 112.448,71.8598 113.448,69.1931 114.5,66.5C 116.588,64.6644 117.921,62.3311 118.5,59.5C 120.066,57.0444 121.733,54.5444 123.5,52C 122.255,51.2086 120.922,50.7086 119.5,50.5C 116.695,49.6805 113.695,49.1805 110.5,49C 114.5,48.6667 118.5,48.3333 122.5,48C 121.956,47.2828 121.289,46.7828 120.5,46.5C 107.26,40.0234 93.2597,36.6901 78.5,36.5C 63.2685,35.0813 48.9352,37.748 35.5,44.5C 33.5,45.1667 31.5,45.8333 29.5,46.5C 27.3796,47.4033 27.0462,48.7367 28.5,50.5C 27.4265,51.2506 27.2599,52.2506 28,53.5C 35.2544,66.2168 41.7544,79.2168 47.5,92.5C 48.038,94.1172 48.3713,95.7839 48.5,97.5C 48.573,99.0269 47.9063,100.027 46.5,100.5C 40.2415,83.1497 32.2415,66.6497 22.5,51C 23.5853,48.828 24.9186,46.828 26.5,45C 38.9504,38.0156 52.2838,34.1822 66.5,33.5C 66.33,32.1779 66.6634,31.0113 67.5,30C 64.854,29.5026 62.1873,29.3359 59.5,29.5C 59.5,24.1667 59.5,18.8333 59.5,13.5C 62.1873,13.6641 64.854,13.4974 67.5,13C 66.5769,10.9592 66.2436,8.7925 66.5,6.5C 72.1667,6.5 77.8333,6.5 83.5,6.5C 83.7564,8.7925 83.4231,10.9592 82.5,13C 85.146,13.4974 87.8127,13.6641 90.5,13.5C 90.5,18.8333 90.5,24.1667 90.5,29.5C 87.8127,29.3359 85.146,29.5026 82.5,30C 83.3366,31.0113 83.67,32.1779 83.5,33.5C 98.5519,34.1294 112.385,38.4628 125,46.5C 126.751,48.212 127.418,50.212 127,52.5C 122.205,60.4325 117.705,68.4325 113.5,76.5 Z"/></g>
<g><path style="opacity:1" fill="#b9bab6" d="M 78.5,36.5 C 93.2597,36.6901 107.26,40.0234 120.5,46.5C 115.733,47.0244 111.066,48.0244 106.5,49.5C 102.382,51.0626 98.7156,53.3959 95.5,56.5C 93.0743,53.0677 90.0743,50.4011 86.5,48.5C 87.2389,48.631 87.9056,48.4643 88.5,48C 85.646,45.3116 82.646,42.8116 79.5,40.5C 78.5713,39.3112 78.238,37.9778 78.5,36.5 Z"/></g>
<g><path style="opacity:1" fill="#d1d2cf" d="M 78.5,36.5 C 78.238,37.9778 78.5713,39.3112 79.5,40.5C 82.646,42.8116 85.646,45.3116 88.5,48C 87.9056,48.4643 87.2389,48.631 86.5,48.5C 81.3028,46.9131 75.9695,46.2464 70.5,46.5C 63.04,44.4729 55.3733,42.8062 47.5,41.5C 43.6548,43.128 39.6548,44.128 35.5,44.5C 48.9352,37.748 63.2685,35.0813 78.5,36.5 Z"/></g>
<g><path style="opacity:1" fill="#989995" d="M 79.5,16.5 C 82.1667,16.5 84.8333,16.5 87.5,16.5C 87.5,19.8333 87.5,23.1667 87.5,26.5C 84.8333,26.5 82.1667,26.5 79.5,26.5C 79.5,28.8333 79.5,31.1667 79.5,33.5C 78.1667,33.5 76.8333,33.5 75.5,33.5C 74.9428,25.7211 78.6094,21.7211 86.5,21.5C 86.5,20.1667 86.5,18.8333 86.5,17.5C 83.9407,17.8016 81.6074,17.4682 79.5,16.5 Z"/></g>
<g><path style="opacity:1" fill="#babbb7" d="M 76.5,10.5 C 77.5,10.5 78.5,10.5 79.5,10.5C 79.5,12.5 79.5,14.5 79.5,16.5C 81.6074,17.4682 83.9407,17.8016 86.5,17.5C 86.5,18.8333 86.5,20.1667 86.5,21.5C 78.6094,21.7211 74.9428,25.7211 75.5,33.5C 73.8333,33.5 72.1667,33.5 70.5,33.5C 70.5,31.1667 70.5,28.8333 70.5,26.5C 67.8333,26.5 65.1667,26.5 62.5,26.5C 62.5,23.1667 62.5,19.8333 62.5,16.5C 65.1667,16.5 67.8333,16.5 70.5,16.5C 68.3926,17.4682 66.0593,17.8016 63.5,17.5C 63.5,19.5 63.5,21.5 63.5,23.5C 71.8333,23.1667 76.1667,18.8333 76.5,10.5 Z"/></g>
<g><path style="opacity:1" fill="#f0f0ef" d="M 76.5,9.5 C 76.5,9.83333 76.5,10.1667 76.5,10.5C 76.1667,18.8333 71.8333,23.1667 63.5,23.5C 63.5,21.5 63.5,19.5 63.5,17.5C 66.0593,17.8016 68.3926,17.4682 70.5,16.5C 70.5,14.1667 70.5,11.8333 70.5,9.5C 72.5,9.5 74.5,9.5 76.5,9.5 Z"/></g>
<g><path style="opacity:1" fill="#e4e4e3" d="M 70.5,46.5 C 67.3093,47.0922 64.3093,48.2589 61.5,50C 59.3171,52.3504 56.9837,54.517 54.5,56.5C 47.3438,50.0081 39.0105,46.6747 29.5,46.5C 31.5,45.8333 33.5,45.1667 35.5,44.5C 39.6548,44.128 43.6548,43.128 47.5,41.5C 55.3733,42.8062 63.04,44.4729 70.5,46.5 Z"/></g>
<g><path style="opacity:0.988" fill="#2f3030" d="M 120.5,46.5 C 121.289,46.7828 121.956,47.2828 122.5,48C 118.5,48.3333 114.5,48.6667 110.5,49C 113.695,49.1805 116.695,49.6805 119.5,50.5C 115.766,50.3227 112.099,50.6561 108.5,51.5C 109.66,49.7973 108.993,49.1307 106.5,49.5C 111.066,48.0244 115.733,47.0244 120.5,46.5 Z"/></g>
<g><path style="opacity:1" fill="#abada8" d="M 28.5,50.5 C 32.5138,50.3345 36.5138,50.5012 40.5,51C 42.4913,51.3736 44.158,52.207 45.5,53.5C 41.3337,53.9984 39.3337,56.3317 39.5,60.5C 39.4184,63.7573 40.4184,66.5906 42.5,69C 42.0426,69.414 41.7093,69.914 41.5,70.5C 42.9079,71.2432 44.2412,72.0766 45.5,73C 44.572,73.3879 43.9054,74.0546 43.5,75C 45.1473,80.7721 46.4806,86.6054 47.5,92.5C 41.7544,79.2168 35.2544,66.2168 28,53.5C 27.2599,52.2506 27.4265,51.2506 28.5,50.5 Z"/></g>
<g><path style="opacity:1" fill="#bec0bb" d="M 45.5,53.5 C 48.9594,54.436 51.7928,56.436 54,59.5C 55.818,65.4387 57.318,71.4387 58.5,77.5C 57.1196,76.2935 55.9529,76.6269 55,78.5C 53.9777,80.7017 53.4777,83.0351 53.5,85.5C 54.3761,91.8759 55.3761,98.2093 56.5,104.5C 58.1667,104.5 59.8333,104.5 61.5,104.5C 61.1667,99.1667 60.8333,93.8333 60.5,88.5C 62.0121,93.9291 62.6787,99.5958 62.5,105.5C 58.8183,105.665 55.1516,105.499 51.5,105C 50.718,102.328 49.718,99.8281 48.5,97.5C 48.3713,95.7839 48.038,94.1172 47.5,92.5C 46.4806,86.6054 45.1473,80.7721 43.5,75C 43.9054,74.0546 44.572,73.3879 45.5,73C 44.2412,72.0766 42.9079,71.2432 41.5,70.5C 41.7093,69.914 42.0426,69.414 42.5,69C 40.4184,66.5906 39.4184,63.7573 39.5,60.5C 39.3337,56.3317 41.3337,53.9984 45.5,53.5 Z"/></g>
<g><path style="opacity:1" fill="#bfc1bc" d="M 118.5,59.5 C 117.921,62.3311 116.588,64.6644 114.5,66.5C 111.231,66.8844 108.397,68.2177 106,70.5C 103.344,76.9503 101.511,83.617 100.5,90.5C 101.5,90.5 102.5,90.5 103.5,90.5C 101.968,95.0974 100.635,99.764 99.5,104.5C 97.5,104.5 95.5,104.5 93.5,104.5C 93.0786,98.8519 93.0786,93.3519 93.5,88C 94.3333,87.1667 95.1667,86.3333 96,85.5C 97.0122,81.1174 98.1788,76.7841 99.5,72.5C 99.1667,71.8333 98.8333,71.1667 98.5,70.5C 101.433,63.0816 106.933,58.7483 115,57.5C 116.681,57.6083 117.848,58.2749 118.5,59.5 Z"/></g>
<g><path style="opacity:1" fill="#dcdcda" d="M 114.5,66.5 C 113.448,69.1931 112.448,71.8598 111.5,74.5C 108.323,79.5202 105.657,84.8535 103.5,90.5C 102.5,90.5 101.5,90.5 100.5,90.5C 101.511,83.617 103.344,76.9503 106,70.5C 108.397,68.2177 111.231,66.8844 114.5,66.5 Z"/></g>
<g><path style="opacity:1" fill="#adafaa" d="M 119.5,50.5 C 120.922,50.7086 122.255,51.2086 123.5,52C 121.733,54.5444 120.066,57.0444 118.5,59.5C 117.848,58.2749 116.681,57.6083 115,57.5C 106.933,58.7483 101.433,63.0816 98.5,70.5C 98.8333,71.1667 99.1667,71.8333 99.5,72.5C 98.1788,76.7841 97.0122,81.1174 96,85.5C 95.1667,86.3333 94.3333,87.1667 93.5,88C 93.0786,93.3519 93.0786,98.8519 93.5,104.5C 91.8333,104.5 90.1667,104.5 88.5,104.5C 89.1266,99.8592 89.4599,95.1925 89.5,90.5C 91.0372,80.3527 93.2038,70.3527 96,60.5C 98.825,55.6679 102.992,52.6679 108.5,51.5C 112.099,50.6561 115.766,50.3227 119.5,50.5 Z"/></g>
<g><path style="opacity:1" fill="#e0e0de" d="M 58.5,77.5 C 59.6746,81.0424 60.3413,84.7091 60.5,88.5C 60.8333,93.8333 61.1667,99.1667 61.5,104.5C 59.8333,104.5 58.1667,104.5 56.5,104.5C 55.3761,98.2093 54.3761,91.8759 53.5,85.5C 53.4777,83.0351 53.9777,80.7017 55,78.5C 55.9529,76.6269 57.1196,76.2935 58.5,77.5 Z"/></g>
<g><path style="opacity:0.913" fill="#121314" d="M 29.5,46.5 C 39.0105,46.6747 47.3438,50.0081 54.5,56.5C 56.9837,54.517 59.3171,52.3504 61.5,50C 64.3093,48.2589 67.3093,47.0922 70.5,46.5C 75.9695,46.2464 81.3028,46.9131 86.5,48.5C 90.0743,50.4011 93.0743,53.0677 95.5,56.5C 98.7156,53.3959 102.382,51.0626 106.5,49.5C 108.993,49.1307 109.66,49.7973 108.5,51.5C 102.992,52.6679 98.825,55.6679 96,60.5C 93.2038,70.3527 91.0372,80.3527 89.5,90.5C 88.2751,95.2895 87.6084,100.29 87.5,105.5C 91.7016,105.817 95.7016,105.483 99.5,104.5C 100.635,99.764 101.968,95.0974 103.5,90.5C 105.657,84.8535 108.323,79.5202 111.5,74.5C 111.833,75.5 112.5,76.1667 113.5,76.5C 108.964,85.6005 105.297,95.1005 102.5,105C 104.68,107.684 106.68,110.517 108.5,113.5C 108.023,115.597 107.357,117.597 106.5,119.5C 104.784,119.629 103.117,119.962 101.5,120.5C 102.752,118.999 103.752,117.332 104.5,115.5C 103.909,112.386 102.242,109.886 99.5,108C 83.1667,107.333 66.8333,107.333 50.5,108C 49.944,108.383 49.6107,108.883 49.5,109.5C 45.9437,110.979 44.9437,113.312 46.5,116.5C 46.5569,117.609 46.8902,118.609 47.5,119.5C 46.8333,119.833 46.1667,120.167 45.5,120.5C 43.0404,119.09 41.7071,116.924 41.5,114C 43.1945,111.464 45.0278,108.964 47,106.5C 47.4901,104.455 47.3235,102.455 46.5,100.5C 47.9063,100.027 48.573,99.0269 48.5,97.5C 49.718,99.8281 50.718,102.328 51.5,105C 55.1516,105.499 58.8183,105.665 62.5,105.5C 62.6787,99.5958 62.0121,93.9291 60.5,88.5C 60.3413,84.7091 59.6746,81.0424 58.5,77.5C 57.318,71.4387 55.818,65.4387 54,59.5C 51.7928,56.436 48.9594,54.436 45.5,53.5C 44.158,52.207 42.4913,51.3736 40.5,51C 36.5138,50.5012 32.5138,50.3345 28.5,50.5C 27.0462,48.7367 27.3796,47.4033 29.5,46.5 Z"/></g>
<g><path style="opacity:1" fill="#bcbdb8" d="M 85.5,51.5 C 93.3363,54.1719 95.3363,59.1719 91.5,66.5C 91.8795,60.0044 88.8795,57.8378 82.5,60C 78.7416,63.2609 76.9082,67.4276 77,72.5C 76.5002,83.1615 76.3335,93.8281 76.5,104.5C 73.5,104.5 70.5,104.5 67.5,104.5C 67.2851,89.8236 67.1185,75.157 67,60.5C 69.1896,58.6116 71.0229,56.4449 72.5,54C 74.1293,53.4145 75.6293,52.5812 77,51.5C 79.9127,51.3836 82.7461,51.3836 85.5,51.5 Z"/></g>
<g><path style="opacity:1" fill="#ddddda" d="M 91.5,66.5 C 88.292,78.9538 86.292,91.6204 85.5,104.5C 82.5,104.5 79.5,104.5 76.5,104.5C 76.3335,93.8281 76.5002,83.1615 77,72.5C 76.9082,67.4276 78.7416,63.2609 82.5,60C 88.8795,57.8378 91.8795,60.0044 91.5,66.5 Z"/></g>
<g><path style="opacity:1" fill="#a9aba6" d="M 85.5,51.5 C 82.7461,51.3836 79.9127,51.3836 77,51.5C 75.6293,52.5812 74.1293,53.4145 72.5,54C 71.0229,56.4449 69.1896,58.6116 67,60.5C 67.1185,75.157 67.2851,89.8236 67.5,104.5C 70.5,104.5 73.5,104.5 76.5,104.5C 79.5,104.5 82.5,104.5 85.5,104.5C 78.6866,105.491 71.6866,105.825 64.5,105.5C 63.9759,91.5553 61.8092,77.8886 58,64.5C 56.703,59.8831 57.8697,56.0498 61.5,53C 69.3535,47.732 77.3535,47.232 85.5,51.5 Z"/></g>
<g><path style="opacity:1" fill="#777876" d="M 89.5,90.5 C 89.4599,95.1925 89.1266,99.8592 88.5,104.5C 90.1667,104.5 91.8333,104.5 93.5,104.5C 95.5,104.5 97.5,104.5 99.5,104.5C 95.7016,105.483 91.7016,105.817 87.5,105.5C 87.6084,100.29 88.2751,95.2895 89.5,90.5 Z"/></g>
<g><path style="opacity:1" fill="#e5e6e4" d="M 49.5,109.5 C 64.9134,110.625 80.2467,112.458 95.5,115C 79.2619,116.47 62.9286,116.97 46.5,116.5C 44.9437,113.312 45.9437,110.979 49.5,109.5 Z"/></g>
<g><path style="opacity:1" fill="#aeafaa" d="M 104.5,115.5 C 99.501,116.113 94.501,117.78 89.5,120.5C 88.2519,119.96 87.0852,119.293 86,118.5C 81.6886,119.833 77.3553,120.167 73,119.5C 66.0473,121.362 58.8806,122.029 51.5,121.5C 50.1667,120.833 48.8333,120.167 47.5,119.5C 46.8902,118.609 46.5569,117.609 46.5,116.5C 62.9286,116.97 79.2619,116.47 95.5,115C 80.2467,112.458 64.9134,110.625 49.5,109.5C 49.6107,108.883 49.944,108.383 50.5,108C 66.8333,107.333 83.1667,107.333 99.5,108C 102.242,109.886 103.909,112.386 104.5,115.5 Z"/></g>
<g><path style="opacity:1" fill="#9e9f9a" d="M 104.5,115.5 C 103.752,117.332 102.752,118.999 101.5,120.5C 100.078,120.709 98.745,121.209 97.5,122C 81.9945,122.828 66.6611,122.661 51.5,121.5C 58.8806,122.029 66.0473,121.362 73,119.5C 77.3553,120.167 81.6886,119.833 86,118.5C 87.0852,119.293 88.2519,119.96 89.5,120.5C 94.501,117.78 99.501,116.113 104.5,115.5 Z"/></g>
<g><path style="opacity:0.897" fill="#151616" d="M 47.5,119.5 C 48.8333,120.167 50.1667,120.833 51.5,121.5C 66.6611,122.661 81.9945,122.828 97.5,122C 98.745,121.209 100.078,120.709 101.5,120.5C 103.117,119.962 104.784,119.629 106.5,119.5C 106.389,120.117 106.056,120.617 105.5,121C 120.13,120.796 127.13,127.962 126.5,142.5C 92.1667,142.5 57.8333,142.5 23.5,142.5C 23.5991,137.231 24.7658,132.231 27,127.5C 28.7309,125.383 30.8976,123.883 33.5,123C 37.6993,122.472 41.6993,121.639 45.5,120.5C 46.1667,120.167 46.8333,119.833 47.5,119.5 Z"/></g>
<g><path style="opacity:1" fill="#bbbcb7" d="M 111.5,125.5 C 114.241,125.707 116.574,126.707 118.5,128.5C 117.171,132.031 114.838,134.531 111.5,136C 83.8353,136.5 56.1687,136.667 28.5,136.5C 28.5,135.167 28.5,133.833 28.5,132.5C 28.3284,131.508 28.6618,130.842 29.5,130.5C 53.9966,131.663 78.6632,131.83 103.5,131C 107.07,130.389 109.737,128.556 111.5,125.5 Z"/></g>
<g><path style="opacity:1" fill="#f1f1f0" d="M 111.5,125.5 C 109.737,128.556 107.07,130.389 103.5,131C 78.6632,131.83 53.9966,131.663 29.5,130.5C 30.6728,128.496 32.3395,126.996 34.5,126C 60.1645,125.5 85.8312,125.333 111.5,125.5 Z"/></g>
<g><path style="opacity:1" fill="#a0a19c" d="M 118.5,128.5 C 119.75,128.577 120.583,129.244 121,130.5C 122.43,133.353 123.263,136.353 123.5,139.5C 91.5,139.5 59.5,139.5 27.5,139.5C 27.1984,136.941 27.5318,134.607 28.5,132.5C 28.5,133.833 28.5,135.167 28.5,136.5C 56.1687,136.667 83.8353,136.5 111.5,136C 114.838,134.531 117.171,132.031 118.5,128.5 Z"/></g>
</svg>
