<?xml version="1.0" encoding="UTF-8"?>
<!DOCTYPE svg PUBLIC "-//W3C//DTD SVG 1.1//EN" "http://www.w3.org/Graphics/SVG/1.1/DTD/svg11.dtd">
<svg xmlns="http://www.w3.org/2000/svg" version="1.1" width="150px" height="150px" style="shape-rendering:geometricPrecision; text-rendering:geometricPrecision; image-rendering:optimizeQuality; fill-rule:evenodd; clip-rule:evenodd" xmlns:xlink="http://www.w3.org/1999/xlink">
<g><path style="opacity:1" fill="#9d9e99" d="M 82.5,51.5 C 86.261,58.0201 86.261,64.6867 82.5,71.5C 78.0733,77.217 72.4066,81.217 65.5,83.5C 67.9529,79.1431 69.6196,74.4764 70.5,69.5C 73.9974,66.917 77.6641,64.5836 81.5,62.5C 82.4892,58.8927 82.8226,55.226 82.5,51.5 Z"/></g>
<g><path style="opacity:0.208" fill="#111313" d="M 81.5,49.5 C 82.3382,49.8417 82.6716,50.5084 82.5,51.5C 82.8226,55.226 82.4892,58.8927 81.5,62.5C 77.6641,64.5836 73.9974,66.917 70.5,69.5C 69.6196,74.4764 67.9529,79.1431 65.5,83.5C 64.1667,84.1667 63.1667,85.1667 62.5,86.5C 57.6269,90.8577 52.2936,94.691 46.5,98C 43.2792,101.221 40.1126,104.387 37,107.5C 33.6815,119.528 38.1815,124.528 50.5,122.5C 62.8333,122.5 75.1667,122.5 87.5,122.5C 93.8778,122.705 100.211,122.372 106.5,121.5C 108.167,121.5 109.833,121.5 111.5,121.5C 121.563,124.613 126.23,131.613 125.5,142.5C 91.1667,142.5 56.8333,142.5 22.5,142.5C 21.4459,132.083 25.7793,125.25 35.5,122C 31.6722,116.354 31.5055,110.521 35,104.5C 41.6858,97.5792 49.1858,91.7459 57.5,87C 61.9918,83.6779 64.9918,79.3445 66.5,74C 62.3346,75.0991 58.5012,74.2658 55,71.5C 52.2037,74.2667 50.0371,77.4334 48.5,81C 43.9249,84.5054 39.2583,85.0054 34.5,82.5C 32.887,79.2603 30.2204,77.7603 26.5,78C 27.056,77.6174 27.3893,77.1174 27.5,76.5C 31.7742,76.1967 35.4408,74.53 38.5,71.5C 38.8333,72 39.1667,72.5 39.5,73C 38.9444,74.0111 38.2778,74.8444 37.5,75.5C 36.0267,76.072 34.6934,76.9054 33.5,78C 34.0442,78.7172 34.7109,79.2172 35.5,79.5C 41.6525,81.5118 46.1525,79.5118 49,73.5C 51.0165,71.316 53.1831,69.316 55.5,67.5C 58.9699,71.0281 62.6366,71.3615 66.5,68.5C 70.7057,65.8977 75.039,63.5643 79.5,61.5C 80.1667,57.5 80.8333,53.5 81.5,49.5 Z"/></g>
<g><path style="opacity:1" fill="#b8bab4" d="M 101.5,53.5 C 104.724,63.3227 104.057,72.9894 99.5,82.5C 99.6082,83.4419 99.9415,84.2753 100.5,85C 99,85.8333 97.8333,87 97,88.5C 96.195,86.0989 95.3617,86.2656 94.5,89C 96.669,90.3277 97.0023,91.9943 95.5,94C 95.9054,94.9454 96.572,95.6121 97.5,96C 96.2412,96.9234 94.9079,97.7568 93.5,98.5C 92.7463,101.777 92.2463,105.11 92,108.5C 89.705,108.689 87.705,110.023 86,112.5C 83.7186,115.063 82.5519,118.063 82.5,121.5C 71.8333,121.5 61.1667,121.5 50.5,121.5C 48.4495,116.987 48.1162,112.32 49.5,107.5C 55.4403,101.726 60.4403,95.226 64.5,88C 64.1639,86.9701 63.4972,86.4701 62.5,86.5C 63.1667,85.1667 64.1667,84.1667 65.5,83.5C 72.4066,81.217 78.0733,77.217 82.5,71.5C 82.5858,72.4959 82.2524,73.3292 81.5,74C 82.3081,74.3076 82.9747,74.8076 83.5,75.5C 81.5586,77.3159 80.8919,79.3159 81.5,81.5C 86.0928,79.4499 90.7594,78.4499 95.5,78.5C 96.7472,76.9936 96.7472,75.4936 95.5,74C 98.1667,73 98.1667,72 95.5,71C 97.0526,69.9032 98.386,68.5699 99.5,67C 99.1667,66.6667 98.8333,66.3333 98.5,66C 99.7441,65.5439 100.577,66.0439 101,67.5C 102.632,65.9732 102.799,64.3066 101.5,62.5C 100.808,63.0253 100.308,63.6919 100,64.5C 99.8333,63.8333 99.6667,63.1667 99.5,62.5C 101.064,59.6944 101.73,56.6944 101.5,53.5 Z"/></g>
<g><path style="opacity:1" fill="#acaea9" d="M 103.5,31.5 C 104.683,35.1754 104.683,39.0087 103.5,43C 106.253,45.405 108.586,48.2383 110.5,51.5C 109.344,58.9887 109.178,66.6554 110,74.5C 110.849,77.561 112.349,80.2277 114.5,82.5C 116.978,81.2776 117.978,79.2776 117.5,76.5C 119.022,77.1909 120.022,78.3576 120.5,80C 119.287,82.2619 117.954,84.4285 116.5,86.5C 115.425,85.4376 114.425,85.4376 113.5,86.5C 112.499,89.1725 111.499,91.8392 110.5,94.5C 104.017,96.7825 99.8502,101.116 98,107.5C 95.8913,108.035 95.3913,109.035 96.5,110.5C 94.3061,112.588 93.4728,114.921 94,117.5C 93.6667,117.167 93.3333,116.833 93,116.5C 92.5924,119.927 90.7591,121.927 87.5,122.5C 75.1667,122.5 62.8333,122.5 50.5,122.5C 50.5,122.167 50.5,121.833 50.5,121.5C 61.1667,121.5 71.8333,121.5 82.5,121.5C 82.5519,118.063 83.7186,115.063 86,112.5C 87.705,110.023 89.705,108.689 92,108.5C 92.2463,105.11 92.7463,101.777 93.5,98.5C 94.9079,97.7568 96.2412,96.9234 97.5,96C 96.572,95.6121 95.9054,94.9454 95.5,94C 97.0023,91.9943 96.669,90.3277 94.5,89C 95.3617,86.2656 96.195,86.0989 97,88.5C 97.8333,87 99,85.8333 100.5,85C 99.9415,84.2753 99.6082,83.4419 99.5,82.5C 104.057,72.9894 104.724,63.3227 101.5,53.5C 100.46,49.0647 98.4602,45.0647 95.5,41.5C 95.8178,40.3527 96.4844,39.5194 97.5,39C 97.1667,38.6667 96.8333,38.3333 96.5,38C 98.8098,37.5034 101.143,37.3367 103.5,37.5C 103.5,35.5 103.5,33.5 103.5,31.5 Z"/></g>
<g><path style="opacity:0.208" fill="#0d0f10" d="M 111.5,121.5 C 109.833,121.5 108.167,121.5 106.5,121.5C 109.758,119.912 112.425,117.579 114.5,114.5C 116.672,113.339 118.006,111.505 118.5,109C 116.261,105.604 114.261,102.104 112.5,98.5C 112.138,93.9007 113.471,89.9007 116.5,86.5C 117.954,84.4285 119.287,82.2619 120.5,80C 120.022,78.3576 119.022,77.1909 117.5,76.5C 114.246,70.2871 112.746,63.6204 113,56.5C 112.626,54.5087 111.793,52.842 110.5,51.5C 108.586,48.2383 106.253,45.405 103.5,43C 104.683,39.0087 104.683,35.1754 103.5,31.5C 101.167,31.5 98.8333,31.5 96.5,31.5C 92.1718,30.1672 87.8385,28.8338 83.5,27.5C 81.7274,26.1077 79.7274,24.941 77.5,24C 74.1694,23.9206 71.1694,23.0873 68.5,21.5C 64.1866,19.0408 59.5199,18.0408 54.5,18.5C 53.62,21.4251 53.9534,24.4251 55.5,27.5C 54.8075,28.5178 54.1408,29.5178 53.5,30.5C 48.7709,34.0526 45.9375,38.7193 45,44.5C 40.0854,48.7436 35.9187,53.5769 32.5,59C 30.3083,59.926 28.3083,61.0927 26.5,62.5C 25.353,66.6463 25.1864,70.9796 26,75.5C 26.3826,76.056 26.8826,76.3893 27.5,76.5C 27.3893,77.1174 27.056,77.6174 26.5,78C 30.2204,77.7603 32.887,79.2603 34.5,82.5C 31.1018,80.8586 27.6018,79.1919 24,77.5C 22.4301,71.9473 22.0968,66.2806 23,60.5C 26.8581,58.9053 30.1914,56.572 33,53.5C 34.9606,50.5372 37.294,47.8706 40,45.5C 41.3953,38.379 45.062,32.7123 51,28.5C 50.923,24.1951 50.7563,19.8618 50.5,15.5C 54.5138,15.3345 58.5138,15.5012 62.5,16C 73.0585,18.9323 83.3919,22.599 93.5,27C 97.7533,27.1998 101.92,27.6998 106,28.5C 107.224,33.3859 107.891,38.3859 108,43.5C 111.098,45.928 113.431,48.928 115,52.5C 116.06,58.4805 117.06,64.4805 118,70.5C 119.714,73.97 121.881,76.97 124.5,79.5C 122.265,83.6298 119.765,87.6298 117,91.5C 116.333,94.5 116.333,97.5 117,100.5C 118.848,103.011 120.681,105.511 122.5,108C 120.79,114.2 117.123,118.7 111.5,121.5 Z"/></g>
<g><path style="opacity:1" fill="#ebebe9" d="M 37.5,75.5 C 38.3764,75.3691 39.0431,75.7025 39.5,76.5C 38.7174,78.2882 37.3841,79.2882 35.5,79.5C 34.7109,79.2172 34.0442,78.7172 33.5,78C 34.6934,76.9054 36.0267,76.072 37.5,75.5 Z"/></g>
<g><path style="opacity:1" fill="#b6b8b2" d="M 60.5,36.5 C 62.5643,36.687 64.5643,37.187 66.5,38C 65.433,40.6938 66.433,42.5272 69.5,43.5C 67.3759,44.1494 65.3759,44.9827 63.5,46C 65.5127,46.8753 65.5127,48.2087 63.5,50C 64,50.5 64.5,51 65,51.5C 65.8505,48.3876 67.0172,48.0542 68.5,50.5C 70.1376,49.2954 70.4709,47.9621 69.5,46.5C 70.7046,44.8624 72.0379,44.5291 73.5,45.5C 70.2768,50.2941 71.6102,52.2941 77.5,51.5C 77.3038,55.4654 75.9705,58.9654 73.5,62C 70.1006,62.9321 66.7673,63.5988 63.5,64C 64.2225,65.7505 65.2225,67.2505 66.5,68.5C 62.6366,71.3615 58.9699,71.0281 55.5,67.5C 53.1831,69.316 51.0165,71.316 49,73.5C 46.1525,79.5118 41.6525,81.5118 35.5,79.5C 37.3841,79.2882 38.7174,78.2882 39.5,76.5C 39.0431,75.7025 38.3764,75.3691 37.5,75.5C 38.2778,74.8444 38.9444,74.0111 39.5,73C 39.1667,72.5 38.8333,72 38.5,71.5C 35.4408,74.53 31.7742,76.1967 27.5,76.5C 26.8826,76.3893 26.3826,76.056 26,75.5C 25.1864,70.9796 25.353,66.6463 26.5,62.5C 26.56,63.0431 26.8933,63.3764 27.5,63.5C 30.95,61.7758 34.6166,61.1091 38.5,61.5C 38.4794,55.8733 41.146,52.2066 46.5,50.5C 47.3446,46.6833 49.0113,43.35 51.5,40.5C 51.8333,40.5 52.1667,40.5 52.5,40.5C 54.516,43.1438 57.1827,43.9772 60.5,43C 61.6053,40.8797 61.6053,38.7131 60.5,36.5 Z"/></g>
<g><path style="opacity:1" fill="#111313" d="M 31.5,63.5 C 33.0481,63.8212 33.7148,64.8212 33.5,66.5C 30.7524,66.5983 30.0857,65.5983 31.5,63.5 Z"/></g>
<g><path style="opacity:1" fill="#d1d1ce" d="M 110.5,51.5 C 111.793,52.842 112.626,54.5087 113,56.5C 112.746,63.6204 114.246,70.2871 117.5,76.5C 117.978,79.2776 116.978,81.2776 114.5,82.5C 112.349,80.2277 110.849,77.561 110,74.5C 109.178,66.6554 109.344,58.9887 110.5,51.5 Z"/></g>
<g><path style="opacity:1" fill="#e6e7e4" d="M 57.5,49.5 C 58.5,49.5 59.5,49.5 60.5,49.5C 60.3978,53.775 58.2311,56.4417 54,57.5C 53.7766,54.2754 54.9432,51.6087 57.5,49.5 Z"/></g>
<g><path style="opacity:1" fill="#d4d5d2" d="M 53.5,30.5 C 54.5862,30.62 55.2528,31.2867 55.5,32.5C 54.5524,35.4227 53.2191,38.0893 51.5,40.5C 49.0113,43.35 47.3446,46.6833 46.5,50.5C 41.146,52.2066 38.4794,55.8733 38.5,61.5C 34.6166,61.1091 30.95,61.7758 27.5,63.5C 26.8933,63.3764 26.56,63.0431 26.5,62.5C 28.3083,61.0927 30.3083,59.926 32.5,59C 35.9187,53.5769 40.0854,48.7436 45,44.5C 45.9375,38.7193 48.7709,34.0526 53.5,30.5 Z"/></g>
<g><path style="opacity:1" fill="#141616" d="M 60.5,36.5 C 61.6053,38.7131 61.6053,40.8797 60.5,43C 57.1827,43.9772 54.516,43.1438 52.5,40.5C 54.1953,38.4598 56.1953,36.6264 58.5,35C 59.816,34.4719 60.4827,34.9719 60.5,36.5 Z"/></g>
<g><path style="opacity:1" fill="#d9dad7" d="M 83.5,27.5 C 87.8385,28.8338 92.1718,30.1672 96.5,31.5C 97.9187,32.4511 99.5853,32.7845 101.5,32.5C 101.5,33.8333 101.5,35.1667 101.5,36.5C 94.1255,36.3192 87.4588,33.9859 81.5,29.5C 81.8555,28.4777 82.5222,27.811 83.5,27.5 Z"/></g>
<g><path style="opacity:1" fill="#bbbdb7" d="M 54.5,18.5 C 54.5,19.5 54.5,20.5 54.5,21.5C 58.9798,21.2681 63.3132,21.9347 67.5,23.5C 68.2975,23.0431 68.6309,22.3764 68.5,21.5C 71.1694,23.0873 74.1694,23.9206 77.5,24C 79.7274,24.941 81.7274,26.1077 83.5,27.5C 82.5222,27.811 81.8555,28.4777 81.5,29.5C 87.4588,33.9859 94.1255,36.3192 101.5,36.5C 101.5,35.1667 101.5,33.8333 101.5,32.5C 99.5853,32.7845 97.9187,32.4511 96.5,31.5C 98.8333,31.5 101.167,31.5 103.5,31.5C 103.5,33.5 103.5,35.5 103.5,37.5C 101.143,37.3367 98.8098,37.5034 96.5,38C 96.8333,38.3333 97.1667,38.6667 97.5,39C 96.4844,39.5194 95.8178,40.3527 95.5,41.5C 98.4602,45.0647 100.46,49.0647 101.5,53.5C 101.73,56.6944 101.064,59.6944 99.5,62.5C 99.6667,63.1667 99.8333,63.8333 100,64.5C 100.308,63.6919 100.808,63.0253 101.5,62.5C 102.799,64.3066 102.632,65.9732 101,67.5C 100.577,66.0439 99.7441,65.5439 98.5,66C 98.8333,66.3333 99.1667,66.6667 99.5,67C 98.386,68.5699 97.0526,69.9032 95.5,71C 98.1667,72 98.1667,73 95.5,74C 96.7472,75.4936 96.7472,76.9936 95.5,78.5C 90.7594,78.4499 86.0928,79.4499 81.5,81.5C 80.8919,79.3159 81.5586,77.3159 83.5,75.5C 82.9747,74.8076 82.3081,74.3076 81.5,74C 82.2524,73.3292 82.5858,72.4959 82.5,71.5C 86.261,64.6867 86.261,58.0201 82.5,51.5C 82.6716,50.5084 82.3382,49.8417 81.5,49.5C 81.44,48.9569 81.1067,48.6236 80.5,48.5C 79.5078,52.7828 79.1744,57.1161 79.5,61.5C 75.039,63.5643 70.7057,65.8977 66.5,68.5C 65.2225,67.2505 64.2225,65.7505 63.5,64C 66.7673,63.5988 70.1006,62.9321 73.5,62C 75.9705,58.9654 77.3038,55.4654 77.5,51.5C 71.6102,52.2941 70.2768,50.2941 73.5,45.5C 72.0379,44.5291 70.7046,44.8624 69.5,46.5C 70.4709,47.9621 70.1376,49.2954 68.5,50.5C 67.0172,48.0542 65.8505,48.3876 65,51.5C 64.5,51 64,50.5 63.5,50C 65.5127,48.2087 65.5127,46.8753 63.5,46C 65.3759,44.9827 67.3759,44.1494 69.5,43.5C 66.433,42.5272 65.433,40.6938 66.5,38C 64.5643,37.187 62.5643,36.687 60.5,36.5C 60.4827,34.9719 59.816,34.4719 58.5,35C 56.1953,36.6264 54.1953,38.4598 52.5,40.5C 52.1667,40.5 51.8333,40.5 51.5,40.5C 53.2191,38.0893 54.5524,35.4227 55.5,32.5C 55.2528,31.2867 54.5862,30.62 53.5,30.5C 54.1408,29.5178 54.8075,28.5178 55.5,27.5C 53.9534,24.4251 53.62,21.4251 54.5,18.5 Z"/></g>
<g><path style="opacity:0.996" fill="#535553" d="M 81.5,49.5 C 80.8333,53.5 80.1667,57.5 79.5,61.5C 79.1744,57.1161 79.5078,52.7828 80.5,48.5C 81.1067,48.6236 81.44,48.9569 81.5,49.5 Z"/></g>
<g><path style="opacity:1" fill="#151617" d="M 59.5,23.5 C 63.0187,24.3089 64.352,26.3089 63.5,29.5C 62.2638,28.7542 60.9305,28.4208 59.5,28.5C 59.5,26.8333 59.5,25.1667 59.5,23.5 Z"/></g>
<g><path style="opacity:1" fill="#e3e4e1" d="M 54.5,18.5 C 59.5199,18.0408 64.1866,19.0408 68.5,21.5C 68.6309,22.3764 68.2975,23.0431 67.5,23.5C 63.3132,21.9347 58.9798,21.2681 54.5,21.5C 54.5,20.5 54.5,19.5 54.5,18.5 Z"/></g>
<g><path style="opacity:1" fill="#9e9f9a" d="M 116.5,86.5 C 113.471,89.9007 112.138,93.9007 112.5,98.5C 111.883,98.6107 111.383,98.944 111,99.5C 109.676,105.146 110.843,110.146 114.5,114.5C 112.425,117.579 109.758,119.912 106.5,121.5C 100.211,122.372 93.8778,122.705 87.5,122.5C 90.7591,121.927 92.5924,119.927 93,116.5C 93.3333,116.833 93.6667,117.167 94,117.5C 93.4728,114.921 94.3061,112.588 96.5,110.5C 95.3913,109.035 95.8913,108.035 98,107.5C 99.8502,101.116 104.017,96.7825 110.5,94.5C 111.499,91.8392 112.499,89.1725 113.5,86.5C 114.425,85.4376 115.425,85.4376 116.5,86.5 Z"/></g>
<g><path style="opacity:1" fill="#c3c4c1" d="M 112.5,98.5 C 114.261,102.104 116.261,105.604 118.5,109C 118.006,111.505 116.672,113.339 114.5,114.5C 110.843,110.146 109.676,105.146 111,99.5C 111.383,98.944 111.883,98.6107 112.5,98.5 Z"/></g>
<g><path style="opacity:1" fill="#d9d9d6" d="M 62.5,86.5 C 63.4972,86.4701 64.1639,86.9701 64.5,88C 60.4403,95.226 55.4403,101.726 49.5,107.5C 48.1162,112.32 48.4495,116.987 50.5,121.5C 50.5,121.833 50.5,122.167 50.5,122.5C 38.1815,124.528 33.6815,119.528 37,107.5C 40.1126,104.387 43.2792,101.221 46.5,98C 52.2936,94.691 57.6269,90.8577 62.5,86.5 Z"/></g>
<g><path style="opacity:1" fill="#f0f0ef" d="M 109.5,125.5 C 111.982,127.039 111.982,128.539 109.5,130C 84.1667,130.333 58.8333,130.667 33.5,131C 30.4265,131.739 28.2598,133.572 27,136.5C 26.6012,136.272 26.4346,135.938 26.5,135.5C 26.7608,130.813 29.0942,127.647 33.5,126C 58.8311,125.5 84.1645,125.333 109.5,125.5 Z"/></g>
<g><path style="opacity:1" fill="#9fa19c" d="M 116.5,127.5 C 119.978,129.453 121.645,132.453 121.5,136.5C 121.5,137.5 121.5,138.5 121.5,139.5C 102.833,139.5 84.1667,139.5 65.5,139.5C 78.9882,138.308 92.6548,137.475 106.5,137C 111.839,135.849 115.172,132.682 116.5,127.5 Z"/></g>
<g><path style="opacity:1" fill="#bcbeb8" d="M 109.5,125.5 C 112.079,125.394 114.412,126.061 116.5,127.5C 115.172,132.682 111.839,135.849 106.5,137C 92.6548,137.475 78.9882,138.308 65.5,139.5C 52.1667,139.5 38.8333,139.5 25.5,139.5C 25.2322,137.901 25.5655,136.568 26.5,135.5C 26.4346,135.938 26.6012,136.272 27,136.5C 28.2598,133.572 30.4265,131.739 33.5,131C 58.8333,130.667 84.1667,130.333 109.5,130C 111.982,128.539 111.982,127.039 109.5,125.5 Z"/></g>
<g><path style="opacity:1" fill="#303232" d="M 121.5,136.5 C 122.434,137.568 122.768,138.901 122.5,140.5C 89.9957,140.832 57.6624,140.498 25.5,139.5C 38.8333,139.5 52.1667,139.5 65.5,139.5C 84.1667,139.5 102.833,139.5 121.5,139.5C 121.5,138.5 121.5,137.5 121.5,136.5 Z"/></g>
</svg>
