<?xml version="1.0" encoding="UTF-8"?>
<!DOCTYPE svg PUBLIC "-//W3C//DTD SVG 1.1//EN" "http://www.w3.org/Graphics/SVG/1.1/DTD/svg11.dtd">
<svg xmlns="http://www.w3.org/2000/svg" version="1.1" width="150px" height="150px" style="shape-rendering:geometricPrecision; text-rendering:geometricPrecision; image-rendering:optimizeQuality; fill-rule:evenodd; clip-rule:evenodd" xmlns:xlink="http://www.w3.org/1999/xlink">
<g><path style="opacity:1" fill="#9fa09b" d="M 84.5,26.5 C 94.4348,31.374 98.2682,39.374 96,50.5C 94.3392,54.4917 92.1726,58.1583 89.5,61.5C 83.024,65.0599 76.024,66.3933 68.5,65.5C 68.5,65.1667 68.5,64.8333 68.5,64.5C 73.8339,63.8747 79.0006,62.5414 84,60.5C 86.6562,58.072 88.4895,55.072 89.5,51.5C 90.325,50.6143 91.325,50.281 92.5,50.5C 92.942,46.1534 93.7753,45.82 95,49.5C 95.6667,46.5 95.6667,43.5 95,40.5C 94.7978,42.2556 94.2978,43.9223 93.5,45.5C 91.2887,44.8072 90.9554,43.6406 92.5,42C 90.213,36.5916 87.5464,31.4249 84.5,26.5 Z"/></g>
<g><path style="opacity:1" fill="#0a0c0d" d="M 89.5,64.5 C 89.5,63.5 89.5,62.5 89.5,61.5C 92.1726,58.1583 94.3392,54.4917 96,50.5C 98.2682,39.374 94.4348,31.374 84.5,26.5C 83.3285,25.6554 81.9952,24.9887 80.5,24.5C 76.2407,22.9709 72.2407,23.3042 68.5,25.5C 61.9106,27.5881 57.4106,31.9214 55,38.5C 52.9744,46.6916 54.8077,53.6916 60.5,59.5C 61.2623,61.2624 62.5956,62.2624 64.5,62.5C 65.5137,63.6737 66.847,64.3404 68.5,64.5C 68.5,64.8333 68.5,65.1667 68.5,65.5C 62.4858,66.9687 56.4858,67.9687 50.5,68.5C 49.8333,68.5 49.5,68.8333 49.5,69.5C 49.5,70.1667 49.1667,70.5 48.5,70.5C 48.4431,69.391 48.1098,68.391 47.5,67.5C 47.6107,66.8826 47.944,66.3826 48.5,66C 52.8333,65.6667 57.1667,65.3333 61.5,65C 47.7163,52.7963 47.0497,39.7963 59.5,26C 77.1717,16.2062 90.3384,20.3728 99,38.5C 101.445,49.3413 98.2782,58.008 89.5,64.5 Z"/></g>
<g><path style="opacity:1" fill="#b7b9b2" d="M 80.5,24.5 C 81.9952,24.9887 83.3285,25.6554 84.5,26.5C 87.5464,31.4249 90.213,36.5916 92.5,42C 90.9554,43.6406 91.2887,44.8072 93.5,45.5C 94.2978,43.9223 94.7978,42.2556 95,40.5C 95.6667,43.5 95.6667,46.5 95,49.5C 93.7753,45.82 92.942,46.1534 92.5,50.5C 91.325,50.281 90.325,50.6143 89.5,51.5C 88.4895,55.072 86.6562,58.072 84,60.5C 79.0006,62.5414 73.8339,63.8747 68.5,64.5C 66.847,64.3404 65.5137,63.6737 64.5,62.5C 65.9584,62.4207 67.2917,61.9207 68.5,61C 67.4464,59.6124 67.2797,58.1124 68,56.5C 68.7151,60.9393 70.8817,62.106 74.5,60C 73.8333,58.6667 73.1667,57.3333 72.5,56C 74.6239,55.042 76.6239,53.8754 78.5,52.5C 78.8333,53.1667 79.1667,53.8333 79.5,54.5C 80.9056,53.5734 82.4056,52.5734 84,51.5C 84.6302,49.0966 83.7969,47.2633 81.5,46C 82.1667,44.6667 82.8333,43.3333 83.5,42C 82.8333,41.6667 82.1667,41.3333 81.5,41C 83.5858,37.2653 83.5858,33.2653 81.5,29C 81.6448,28.228 81.9781,27.5613 82.5,27C 81.244,26.5831 80.5774,25.7498 80.5,24.5 Z"/></g>
<g><path style="opacity:1" fill="#c4c5bf" d="M 80.5,24.5 C 80.5774,25.7498 81.244,26.5831 82.5,27C 81.9781,27.5613 81.6448,28.228 81.5,29C 83.5858,33.2653 83.5858,37.2653 81.5,41C 82.1667,41.3333 82.8333,41.6667 83.5,42C 82.8333,43.3333 82.1667,44.6667 81.5,46C 83.7969,47.2633 84.6302,49.0966 84,51.5C 82.4056,52.5734 80.9056,53.5734 79.5,54.5C 79.1667,53.8333 78.8333,53.1667 78.5,52.5C 76.6239,53.8754 74.6239,55.042 72.5,56C 73.1667,57.3333 73.8333,58.6667 74.5,60C 70.8817,62.106 68.7151,60.9393 68,56.5C 67.2797,58.1124 67.4464,59.6124 68.5,61C 67.2917,61.9207 65.9584,62.4207 64.5,62.5C 62.5956,62.2624 61.2623,61.2624 60.5,59.5C 63.3455,59.1913 64.8455,57.5246 65,54.5C 65.3333,54.8333 65.6667,55.1667 66,55.5C 67.9347,53.8978 70.1013,52.7311 72.5,52C 71.8333,51.6667 71.1667,51.3333 70.5,51C 73.1572,48.6807 74.9905,45.8474 76,42.5C 78.7344,41.6383 78.9011,40.805 76.5,40C 77.8331,38.1598 77.6665,37.6598 76,38.5C 75.7265,36.6711 74.8932,35.1711 73.5,34C 73.9574,33.586 74.2907,33.086 74.5,32.5C 73.4229,30.2706 72.7563,27.9372 72.5,25.5C 71.1667,25.5 69.8333,25.5 68.5,25.5C 72.2407,23.3042 76.2407,22.9709 80.5,24.5 Z"/></g>
<g><path style="opacity:1" fill="#dbdcd9" d="M 68.5,25.5 C 69.8333,25.5 71.1667,25.5 72.5,25.5C 72.7563,27.9372 73.4229,30.2706 74.5,32.5C 74.2907,33.086 73.9574,33.586 73.5,34C 74.8932,35.1711 75.7265,36.6711 76,38.5C 77.6665,37.6598 77.8331,38.1598 76.5,40C 78.9011,40.805 78.7344,41.6383 76,42.5C 74.9905,45.8474 73.1572,48.6807 70.5,51C 71.1667,51.3333 71.8333,51.6667 72.5,52C 70.1013,52.7311 67.9347,53.8978 66,55.5C 65.6667,55.1667 65.3333,54.8333 65,54.5C 64.8455,57.5246 63.3455,59.1913 60.5,59.5C 54.8077,53.6916 52.9744,46.6916 55,38.5C 57.4106,31.9214 61.9106,27.5881 68.5,25.5 Z"/></g>
<g><path style="opacity:1" fill="#0e1010" d="M 89.5,61.5 C 89.5,62.5 89.5,63.5 89.5,64.5C 93.6472,65.3247 97.9805,65.8247 102.5,66C 107.234,68.8756 107.734,72.3756 104,76.5C 100.724,80.208 96.8906,83.0413 92.5,85C 94.7116,92.3642 98.3782,98.8642 103.5,104.5C 102.5,104.833 101.833,105.5 101.5,106.5C 94.3343,100.169 90.3343,92.1687 89.5,82.5C 80.8333,82.5 72.1667,82.5 63.5,82.5C 61.3862,83.784 60.3862,85.784 60.5,88.5C 57.094,96.7459 52.2606,104.079 46,110.5C 44.8638,112.743 44.0305,115.076 43.5,117.5C 42.596,118.209 42.2627,119.209 42.5,120.5C 41.9569,120.56 41.6236,120.893 41.5,121.5C 63.8234,122.5 86.1567,122.833 108.5,122.5C 86.0694,123.176 63.0694,123.843 39.5,124.5C 37.901,124.232 36.5676,124.566 35.5,125.5C 32.7052,126.063 30.3718,127.396 28.5,129.5C 28.5654,129.062 28.3988,128.728 28,128.5C 27.6667,129.167 27.3333,129.833 27,130.5C 27.0704,133.992 26.2371,136.992 24.5,139.5C 23.837,128.994 28.6703,122.661 39,120.5C 41.2343,111.931 45.5676,104.598 52,98.5C 55.8631,94.0883 57.3631,89.0883 56.5,83.5C 49.9486,81.782 45.9486,77.6153 44.5,71C 44.9778,69.3576 45.9778,68.1909 47.5,67.5C 48.1098,68.391 48.4431,69.391 48.5,70.5C 48.5104,74.7271 50.8438,77.5605 55.5,79C 69.9021,79.9482 84.2354,79.6149 98.5,78C 102.322,75.4483 102.988,72.4483 100.5,69C 83.8367,68.5001 67.17,68.3334 50.5,68.5C 56.4858,67.9687 62.4858,66.9687 68.5,65.5C 76.024,66.3933 83.024,65.0599 89.5,61.5 Z"/></g>
<g><path style="opacity:1" fill="#aeafa9" d="M 49.5,69.5 C 49.5,68.8333 49.8333,68.5 50.5,68.5C 67.17,68.3334 83.8367,68.5001 100.5,69C 102.988,72.4483 102.322,75.4483 98.5,78C 84.2354,79.6149 69.9021,79.9482 55.5,79C 50.8438,77.5605 48.5104,74.7271 48.5,70.5C 59.6591,71.6593 70.9924,71.8259 82.5,71C 71.5637,69.5939 60.5637,69.0939 49.5,69.5 Z"/></g>
<g><path style="opacity:1" fill="#f2f3f1" d="M 49.5,69.5 C 60.5637,69.0939 71.5637,69.5939 82.5,71C 70.9924,71.8259 59.6591,71.6593 48.5,70.5C 49.1667,70.5 49.5,70.1667 49.5,69.5 Z"/></g>
<g><path style="opacity:1" fill="#b8bab2" d="M 63.5,82.5 C 66.6414,83.3213 69.9748,83.8213 73.5,84C 72.3128,85.0195 71.3128,86.1861 70.5,87.5C 74.3103,89.4053 78.3103,90.7386 82.5,91.5C 83.4287,92.6888 83.762,94.0222 83.5,95.5C 79.7706,97.451 76.2706,99.7843 73,102.5C 72.6827,100.699 72.016,100.366 71,101.5C 68.2255,100.864 66.0588,99.3639 64.5,97C 65.4491,96.3828 66.2825,96.5494 67,97.5C 67.0242,94.6975 65.5242,93.3642 62.5,93.5C 62.8799,91.302 62.2132,89.6354 60.5,88.5C 60.3862,85.784 61.3862,83.784 63.5,82.5 Z"/></g>
<g><path style="opacity:1" fill="#e0e1de" d="M 60.5,88.5 C 62.2132,89.6354 62.8799,91.302 62.5,93.5C 62.6663,100.841 62.4997,108.174 62,115.5C 60.5905,116.787 59.0905,117.954 57.5,119C 52.8627,119.829 48.196,120.329 43.5,120.5C 43.5,119.5 43.5,118.5 43.5,117.5C 44.0305,115.076 44.8638,112.743 46,110.5C 52.2606,104.079 57.094,96.7459 60.5,88.5 Z"/></g>
<g><path style="opacity:1" fill="#a2a39d" d="M 63.5,82.5 C 72.1667,82.5 80.8333,82.5 89.5,82.5C 90.3343,92.1687 94.3343,100.169 101.5,106.5C 105.171,110.843 107.504,115.843 108.5,121.5C 98.5,121.5 88.5,121.5 78.5,121.5C 78.3893,120.883 78.056,120.383 77.5,120C 79.3451,118.577 81.3451,117.41 83.5,116.5C 82.4179,116.251 81.0846,116.085 79.5,116C 87.1442,110.599 88.4775,103.766 83.5,95.5C 83.762,94.0222 83.4287,92.6888 82.5,91.5C 78.3103,90.7386 74.3103,89.4053 70.5,87.5C 71.3128,86.1861 72.3128,85.0195 73.5,84C 69.9748,83.8213 66.6414,83.3213 63.5,82.5 Z"/></g>
<g><path style="opacity:1" fill="#b9bab3" d="M 62.5,93.5 C 65.5242,93.3642 67.0242,94.6975 67,97.5C 66.2825,96.5494 65.4491,96.3828 64.5,97C 66.0588,99.3639 68.2255,100.864 71,101.5C 72.016,100.366 72.6827,100.699 73,102.5C 76.2706,99.7843 79.7706,97.451 83.5,95.5C 88.4775,103.766 87.1442,110.599 79.5,116C 81.0846,116.085 82.4179,116.251 83.5,116.5C 81.3451,117.41 79.3451,118.577 77.5,120C 78.056,120.383 78.3893,120.883 78.5,121.5C 66.3217,121.828 54.3217,121.495 42.5,120.5C 42.2627,119.209 42.596,118.209 43.5,117.5C 43.5,118.5 43.5,119.5 43.5,120.5C 48.196,120.329 52.8627,119.829 57.5,119C 59.0905,117.954 60.5905,116.787 62,115.5C 62.4997,108.174 62.6663,100.841 62.5,93.5 Z"/></g>
<g><path style="opacity:0.996" fill="#2c2d2d" d="M 42.5,120.5 C 54.3217,121.495 66.3217,121.828 78.5,121.5C 88.5,121.5 98.5,121.5 108.5,121.5C 108.5,121.833 108.5,122.167 108.5,122.5C 86.1567,122.833 63.8234,122.5 41.5,121.5C 41.6236,120.893 41.9569,120.56 42.5,120.5 Z"/></g>
<g><path style="opacity:1" fill="#eeefed" d="M 35.5,125.5 C 60.5022,125.333 85.5022,125.5 110.5,126C 111.517,127.049 111.684,128.216 111,129.5C 85.2389,130.328 59.4055,130.828 33.5,131C 31.9095,132.046 30.4095,133.213 29,134.5C 28.6012,134.272 28.4346,133.938 28.5,133.5C 28.5,132.167 28.5,130.833 28.5,129.5C 30.3718,127.396 32.7052,126.063 35.5,125.5 Z"/></g>
<g><path style="opacity:1" fill="#9e9f99" d="M 115.5,125.5 C 120.928,128.004 123.595,132.337 123.5,138.5C 110.5,138.5 97.5,138.5 84.5,138.5C 89.8333,137.833 95.1667,137.167 100.5,136.5C 108.353,138.284 114.019,135.617 117.5,128.5C 116.738,128.089 115.738,127.923 114.5,128C 115.252,127.329 115.586,126.496 115.5,125.5 Z"/></g>
<g><path style="opacity:1" fill="#bdbfb8" d="M 35.5,125.5 C 36.5676,124.566 37.901,124.232 39.5,124.5C 64.878,124.185 90.2113,124.519 115.5,125.5C 115.586,126.496 115.252,127.329 114.5,128C 115.738,127.923 116.738,128.089 117.5,128.5C 114.019,135.617 108.353,138.284 100.5,136.5C 96.7757,137.227 94.1091,135.894 92.5,132.5C 75.8433,131.334 59.1767,131.167 42.5,132C 43.1667,132.333 43.8333,132.667 44.5,133C 43.6634,134.011 43.33,135.178 43.5,136.5C 45.1788,136.285 46.1788,136.952 46.5,138.5C 40.1667,138.5 33.8333,138.5 27.5,138.5C 27.2155,136.585 27.5489,134.919 28.5,133.5C 28.4346,133.938 28.6012,134.272 29,134.5C 30.4095,133.213 31.9095,132.046 33.5,131C 59.4055,130.828 85.2389,130.328 111,129.5C 111.684,128.216 111.517,127.049 110.5,126C 85.5022,125.5 60.5022,125.333 35.5,125.5 Z"/></g>
<g><path style="opacity:1" fill="#151717" d="M 103.5,104.5 C 108.023,109.216 110.69,114.883 111.5,121.5C 119.487,121.651 124.32,125.651 126,133.5C 126.498,136.482 126.665,139.482 126.5,142.5C 92.4984,142.667 58.4984,142.5 24.5,142C 23.2264,141.023 23.2264,140.189 24.5,139.5C 26.2371,136.992 27.0704,133.992 27,130.5C 27.3333,129.833 27.6667,129.167 28,128.5C 28.3988,128.728 28.5654,129.062 28.5,129.5C 28.5,130.833 28.5,132.167 28.5,133.5C 27.5489,134.919 27.2155,136.585 27.5,138.5C 33.8333,138.5 40.1667,138.5 46.5,138.5C 59.1667,138.5 71.8333,138.5 84.5,138.5C 97.5,138.5 110.5,138.5 123.5,138.5C 123.595,132.337 120.928,128.004 115.5,125.5C 90.2113,124.519 64.878,124.185 39.5,124.5C 63.0694,123.843 86.0694,123.176 108.5,122.5C 108.5,122.167 108.5,121.833 108.5,121.5C 107.504,115.843 105.171,110.843 101.5,106.5C 101.833,105.5 102.5,104.833 103.5,104.5 Z"/></g>
<g><path style="opacity:1" fill="#b5b7b0" d="M 100.5,136.5 C 95.1667,137.167 89.8333,137.833 84.5,138.5C 71.8333,138.5 59.1667,138.5 46.5,138.5C 46.1788,136.952 45.1788,136.285 43.5,136.5C 43.33,135.178 43.6634,134.011 44.5,133C 43.8333,132.667 43.1667,132.333 42.5,132C 59.1767,131.167 75.8433,131.334 92.5,132.5C 94.1091,135.894 96.7757,137.227 100.5,136.5 Z"/></g>
</svg>
