<?xml version="1.0" encoding="UTF-8"?>
<!DOCTYPE svg PUBLIC "-//W3C//DTD SVG 1.1//EN" "http://www.w3.org/Graphics/SVG/1.1/DTD/svg11.dtd">
<svg xmlns="http://www.w3.org/2000/svg" version="1.1" width="150px" height="150px" style="shape-rendering:geometricPrecision; text-rendering:geometricPrecision; image-rendering:optimizeQuality; fill-rule:evenodd; clip-rule:evenodd" xmlns:xlink="http://www.w3.org/1999/xlink">
<g><path style="opacity:0.736" fill="#0d0f0f" d="M 104.5,53.5 C 102.896,52.713 102.229,51.3797 102.5,49.5C 102.674,47.139 103.007,44.8056 103.5,42.5C 101.799,42.0338 100.299,42.0338 99,42.5C 97.4873,46.188 95.9873,49.8546 94.5,53.5C 92.6,57.6326 90.4333,61.6326 88,65.5C 86.871,67.1412 85.371,68.1412 83.5,68.5C 79.8651,56.8441 78.1984,44.8441 78.5,32.5C 76.8333,32.5 75.1667,32.5 73.5,32.5C 74.2625,31.7321 75.2625,31.2321 76.5,31C 74.9419,30.79 73.6085,30.29 72.5,29.5C 82.1944,30.098 85.6944,25.7647 83,16.5C 79.8437,12.5518 76.0104,11.5518 71.5,13.5C 65.6933,17.48 65.0266,22.1467 69.5,27.5C 69.5,27.8333 69.5,28.1667 69.5,28.5C 68.2617,28.81 68.2617,29.31 69.5,30C 68.9056,30.4643 68.2389,30.631 67.5,30.5C 63.7741,26.6155 62.6074,21.9489 64,16.5C 69.926,7.4301 76.926,6.4301 85,13.5C 89.0566,20.3933 88.0566,26.3933 82,31.5C 82.1388,42.5562 83.1388,53.5562 85,64.5C 89.5988,56.7093 93.4321,48.5426 96.5,40C 91.8976,30.039 94.8976,23.8723 105.5,21.5C 114.307,22.8045 117.807,27.8045 116,36.5C 114.212,40.1229 111.379,42.4563 107.5,43.5C 106.494,46.8622 105.494,50.1956 104.5,53.5 Z"/></g>
<g><path style="opacity:1" fill="#b3b5ae" d="M 71.5,13.5 C 76.0104,11.5518 79.8437,12.5518 83,16.5C 85.6944,25.7647 82.1944,30.098 72.5,29.5C 71.391,29.4431 70.391,29.1098 69.5,28.5C 69.5,28.1667 69.5,27.8333 69.5,27.5C 70.1175,22.1269 72.7842,17.7935 77.5,14.5C 75.604,13.5344 73.604,13.2011 71.5,13.5 Z"/></g>
<g><path style="opacity:1" fill="#e7e7e5" d="M 71.5,13.5 C 73.604,13.2011 75.604,13.5344 77.5,14.5C 72.7842,17.7935 70.1175,22.1269 69.5,27.5C 65.0266,22.1467 65.6933,17.48 71.5,13.5 Z"/></g>
<g><path style="opacity:1" fill="#dddedb" d="M 103.5,25.5 C 104.797,26.8488 104.63,28.1821 103,29.5C 102.503,32.146 102.336,34.8127 102.5,37.5C 101.5,37.5 100.5,37.5 99.5,37.5C 95.99,31.9012 97.3234,27.9012 103.5,25.5 Z"/></g>
<g><path style="opacity:1" fill="#b0b2ab" d="M 103.5,25.5 C 106.867,24.2376 109.7,25.2376 112,28.5C 114.211,34.9685 112.044,38.9685 105.5,40.5C 103.164,39.999 101.164,38.999 99.5,37.5C 100.5,37.5 101.5,37.5 102.5,37.5C 102.336,34.8127 102.503,32.146 103,29.5C 104.63,28.1821 104.797,26.8488 103.5,25.5 Z"/></g>
<g><path style="opacity:1" fill="#a9aaa6" d="M 72.5,39.5 C 72.784,45.4173 72.1173,51.084 70.5,56.5C 70.5,56.1667 70.5,55.8333 70.5,55.5C 70.527,49.9494 71.1937,44.6161 72.5,39.5 Z"/></g>
<g><path style="opacity:0.803" fill="#0b0d0e" d="M 67.5,30.5 C 68.2389,30.631 68.9056,30.4643 69.5,30C 68.2617,29.31 68.2617,28.81 69.5,28.5C 70.391,29.1098 71.391,29.4431 72.5,29.5C 73.6085,30.29 74.9419,30.79 76.5,31C 75.2625,31.2321 74.2625,31.7321 73.5,32.5C 72.5489,33.9187 72.2155,35.5853 72.5,37.5C 72.5,38.1667 72.5,38.8333 72.5,39.5C 71.1937,44.6161 70.527,49.9494 70.5,55.5C 69.525,58.3112 68.8583,61.3112 68.5,64.5C 68.8333,67.5 67.5,68.8333 64.5,68.5C 59.1047,60.3761 54.7714,51.7095 51.5,42.5C 49.2877,41.4495 47.9544,42.2829 47.5,45C 47.8669,47.7082 48.5335,50.2082 49.5,52.5C 49.5,53.5 49.5,54.5 49.5,55.5C 49.8432,57.4832 49.1765,58.8166 47.5,59.5C 46.2727,54.5332 45.106,49.5332 44,44.5C 42.4478,43.0339 40.6145,42.0339 38.5,41.5C 33.1969,35.7024 33.1969,29.8691 38.5,24C 44.6752,20.2234 50.1752,21.0567 55,26.5C 55.9847,28.3659 56.4847,30.3659 56.5,32.5C 55.6472,35.835 55.1472,39.1684 55,42.5C 57.7369,49.6434 61.2369,56.3101 65.5,62.5C 67.2825,53.4083 68.6158,44.2416 69.5,35C 69.2414,33.2134 68.5747,31.7134 67.5,30.5 Z"/></g>
<g><path style="opacity:1" fill="#a2a49d" d="M 42.5,25.5 C 46.7946,24.0403 50.2946,25.3736 53,29.5C 53.9118,35.4311 51.4118,39.0977 45.5,40.5C 43.1643,39.999 41.1643,38.999 39.5,37.5C 40.5,37.5 41.5,37.5 42.5,37.5C 42.5,36.5 42.5,35.5 42.5,34.5C 47.7657,34.4591 49.599,31.7925 48,26.5C 46.4842,29.0515 45.6509,28.7181 45.5,25.5C 44.5,25.5 43.5,25.5 42.5,25.5 Z"/></g>
<g><path style="opacity:1" fill="#c4c6c0" d="M 42.5,25.5 C 43.5,25.5 44.5,25.5 45.5,25.5C 45.6509,28.7181 46.4842,29.0515 48,26.5C 49.599,31.7925 47.7657,34.4591 42.5,34.5C 42.5,35.5 42.5,36.5 42.5,37.5C 41.5,37.5 40.5,37.5 39.5,37.5C 37.615,35.2046 37.115,32.538 38,29.5C 38.7921,27.3563 40.2921,26.023 42.5,25.5 Z"/></g>
<g><path style="opacity:1" fill="#ecedeb" d="M 72.5,37.5 C 73.7868,38.8714 74.4535,40.7047 74.5,43C 73.8323,52.5152 72.9989,62.0152 72,71.5C 67.8385,74.6677 65.3385,73.6677 64.5,68.5C 67.5,68.8333 68.8333,67.5 68.5,64.5C 70.2227,62.22 70.8893,59.5533 70.5,56.5C 72.1173,51.084 72.784,45.4173 72.5,39.5C 72.5,38.8333 72.5,38.1667 72.5,37.5 Z"/></g>
<g><path style="opacity:1" fill="#e3e4e2" d="M 55.5,78.5 C 52.9783,78.8719 50.9783,78.0386 49.5,76C 50.4158,75.7216 51.0825,75.2216 51.5,74.5C 52.4189,68.0649 51.7523,61.7316 49.5,55.5C 49.5,54.5 49.5,53.5 49.5,52.5C 49.3433,51.1266 49.51,49.7932 50,48.5C 51.1221,51.0763 52.1221,53.743 53,56.5C 53.2922,62.8349 54.4589,69.0015 56.5,75C 56.3517,76.2559 56.0184,77.4226 55.5,78.5 Z"/></g>
<g><path style="opacity:1" fill="#e8e8e6" d="M 114.5,63.5 C 116.851,64.9161 116.851,66.5828 114.5,68.5C 110.702,71.7961 107.036,75.2961 103.5,79C 100.074,80.2381 98.4077,79.0714 98.5,75.5C 99.791,75.7373 100.791,75.404 101.5,74.5C 106.719,71.9536 111.052,68.2869 114.5,63.5 Z"/></g>
<g><path style="opacity:1" fill="#b7b9b2" d="M 73.5,32.5 C 75.1667,32.5 76.8333,32.5 78.5,32.5C 78.1984,44.8441 79.8651,56.8441 83.5,68.5C 82.5665,70.4845 83.3999,71.8179 86,72.5C 87.4728,72.0969 88.8061,71.4303 90,70.5C 93.6144,64.9902 95.6144,58.9902 96,52.5C 95.6174,53.056 95.1174,53.3893 94.5,53.5C 95.9873,49.8546 97.4873,46.188 99,42.5C 100.299,42.0338 101.799,42.0338 103.5,42.5C 103.007,44.8056 102.674,47.139 102.5,49.5C 99.9026,57.51 98.5693,65.8433 98.5,74.5C 99.5,74.5 100.5,74.5 101.5,74.5C 100.791,75.404 99.791,75.7373 98.5,75.5C 98.4077,79.0714 100.074,80.2381 103.5,79C 107.036,75.2961 110.702,71.7961 114.5,68.5C 112.295,74.028 108.962,78.6946 104.5,82.5C 102.897,82.3118 101.563,82.8118 100.5,84C 101.731,85.1827 101.731,86.3493 100.5,87.5C 99.8333,86.1667 99.1667,84.8333 98.5,83.5C 97.8333,83.8333 97.1667,84.1667 96.5,84.5C 94.8563,81.6894 92.6897,79.356 90,77.5C 88.8118,78.5634 88.3118,79.8967 88.5,81.5C 87.0695,81.5792 85.7362,81.2458 84.5,80.5C 83.8076,81.0253 83.3076,81.6919 83,82.5C 82.4257,80.508 81.259,79.008 79.5,78C 80.6776,77.0331 82.011,76.5331 83.5,76.5C 81.2388,73.7448 79.4055,74.0782 78,77.5C 73.877,75.9602 69.5436,74.9602 65,74.5C 64.6667,75.5 64.3333,76.5 64,77.5C 63.6667,77.1667 63.3333,76.8333 63,76.5C 62.6924,77.3081 62.1924,77.9747 61.5,78.5C 60.5,77.8333 59.5,77.1667 58.5,76.5C 57.7348,77.6119 56.7348,78.2786 55.5,78.5C 56.0184,77.4226 56.3517,76.2559 56.5,75C 54.4589,69.0015 53.2922,62.8349 53,56.5C 52.1221,53.743 51.1221,51.0763 50,48.5C 49.51,49.7932 49.3433,51.1266 49.5,52.5C 48.5335,50.2082 47.8669,47.7082 47.5,45C 47.9544,42.2829 49.2877,41.4495 51.5,42.5C 54.7714,51.7095 59.1047,60.3761 64.5,68.5C 65.3385,73.6677 67.8385,74.6677 72,71.5C 72.9989,62.0152 73.8323,52.5152 74.5,43C 74.4535,40.7047 73.7868,38.8714 72.5,37.5C 72.2155,35.5853 72.5489,33.9187 73.5,32.5 Z"/></g>
<g><path style="opacity:1" fill="#e4e5e3" d="M 83.5,68.5 C 85.371,68.1412 86.871,67.1412 88,65.5C 90.4333,61.6326 92.6,57.6326 94.5,53.5C 95.1174,53.3893 95.6174,53.056 96,52.5C 95.6144,58.9902 93.6144,64.9902 90,70.5C 88.8061,71.4303 87.4728,72.0969 86,72.5C 83.3999,71.8179 82.5665,70.4845 83.5,68.5 Z"/></g>
<g><path style="opacity:0.996" fill="#565756" d="M 70.5,55.5 C 70.5,55.8333 70.5,56.1667 70.5,56.5C 70.8893,59.5533 70.2227,62.22 68.5,64.5C 68.8583,61.3112 69.525,58.3112 70.5,55.5 Z"/></g>
<g><path style="opacity:1" fill="#b3b5ad" d="M 51.5,74.5 C 51.0825,75.2216 50.4158,75.7216 49.5,76C 50.9783,78.0386 52.9783,78.8719 55.5,78.5C 56.7348,78.2786 57.7348,77.6119 58.5,76.5C 59.5,77.1667 60.5,77.8333 61.5,78.5C 62.1924,77.9747 62.6924,77.3081 63,76.5C 63.3333,76.8333 63.6667,77.1667 64,77.5C 64.3333,76.5 64.6667,75.5 65,74.5C 69.5436,74.9602 73.877,75.9602 78,77.5C 79.4055,74.0782 81.2388,73.7448 83.5,76.5C 82.011,76.5331 80.6776,77.0331 79.5,78C 81.259,79.008 82.4257,80.508 83,82.5C 83.3076,81.6919 83.8076,81.0253 84.5,80.5C 85.7362,81.2458 87.0695,81.5792 88.5,81.5C 88.3118,79.8967 88.8118,78.5634 90,77.5C 92.6897,79.356 94.8563,81.6894 96.5,84.5C 97.1667,84.1667 97.8333,83.8333 98.5,83.5C 99.1667,84.8333 99.8333,86.1667 100.5,87.5C 101.731,86.3493 101.731,85.1827 100.5,84C 101.563,82.8118 102.897,82.3118 104.5,82.5C 103.36,86.7315 101.193,90.3982 98,93.5C 96.5443,97.0153 96.3777,100.515 97.5,104C 81.8369,104.5 66.1702,104.667 50.5,104.5C 50.1667,103.833 49.8333,103.167 49.5,102.5C 53.1692,100.562 54.3359,97.562 53,93.5C 46.6667,84.5 40.3333,75.5 34,66.5C 33.5357,67.0944 33.369,67.7611 33.5,68.5C 30.7861,65.9707 30.9528,63.6374 34,61.5C 37.5,65 41,68.5 44.5,72C 46.441,73.9028 48.7743,74.7361 51.5,74.5 Z"/></g>
<g><path style="opacity:1" fill="#d4d6d2" d="M 49.5,102.5 C 44.2047,91.2384 38.8714,79.9051 33.5,68.5C 33.369,67.7611 33.5357,67.0944 34,66.5C 40.3333,75.5 46.6667,84.5 53,93.5C 54.3359,97.562 53.1692,100.562 49.5,102.5 Z"/></g>
<g><path style="opacity:0.813" fill="#101112" d="M 106.5,98.5 C 105.778,98.0825 105.278,97.4158 105,96.5C 104.617,97.056 104.117,97.3893 103.5,97.5C 108.45,86.3168 113.784,75.3168 119.5,64.5C 118.086,61.2498 116.419,60.9165 114.5,63.5C 111.052,68.2869 106.719,71.9536 101.5,74.5C 100.5,74.5 99.5,74.5 98.5,74.5C 98.5693,65.8433 99.9026,57.51 102.5,49.5C 102.229,51.3797 102.896,52.713 104.5,53.5C 103.757,58.8835 102.757,64.2169 101.5,69.5C 101.833,69.8333 102.167,70.1667 102.5,70.5C 106.485,67.0156 110.318,63.349 114,59.5C 114.065,47.564 119.565,43.7307 130.5,48C 133.772,52.1445 134.272,56.6445 132,61.5C 128.408,64.0629 124.741,66.3963 121,68.5C 116.409,78.6794 111.576,88.6794 106.5,98.5 Z"/></g>
<g><path style="opacity:1" fill="#a9aba4" d="M 124.5,49.5 C 131.584,52.3731 132.251,56.5398 126.5,62C 123.386,63.0874 121.053,62.254 119.5,59.5C 120.828,56.1281 122.495,52.7948 124.5,49.5 Z"/></g>
<g><path style="opacity:1" fill="#e4e5e2" d="M 124.5,49.5 C 122.495,52.7948 120.828,56.1281 119.5,59.5C 115.824,53.6925 117.491,50.3592 124.5,49.5 Z"/></g>
<g><path style="opacity:1" fill="#979994" d="M 103.5,97.5 C 102.449,100.158 101.115,102.658 99.5,105C 82.9948,105.828 66.6615,105.662 50.5,104.5C 66.1702,104.667 81.8369,104.5 97.5,104C 96.3777,100.515 96.5443,97.0153 98,93.5C 101.193,90.3982 103.36,86.7315 104.5,82.5C 108.962,78.6946 112.295,74.028 114.5,68.5C 116.851,66.5828 116.851,64.9161 114.5,63.5C 116.419,60.9165 118.086,61.2498 119.5,64.5C 113.784,75.3168 108.45,86.3168 103.5,97.5 Z"/></g>
<g><path style="opacity:0.926" fill="#121314" d="M 47.5,59.5 C 49.1765,58.8166 49.8432,57.4832 49.5,55.5C 51.7523,61.7316 52.4189,68.0649 51.5,74.5C 48.7743,74.7361 46.441,73.9028 44.5,72C 41,68.5 37.5,65 34,61.5C 30.9528,63.6374 30.7861,65.9707 33.5,68.5C 38.8714,79.9051 44.2047,91.2384 49.5,102.5C 49.8333,103.167 50.1667,103.833 50.5,104.5C 66.6615,105.662 82.9948,105.828 99.5,105C 101.115,102.658 102.449,100.158 103.5,97.5C 104.117,97.3893 104.617,97.056 105,96.5C 105.278,97.4158 105.778,98.0825 106.5,98.5C 105.651,101.035 104.651,103.535 103.5,106C 104.608,108.112 106.108,109.946 108,111.5C 109.027,115.18 108.194,118.347 105.5,121C 120.14,120.806 127.14,127.972 126.5,142.5C 92.5,142.5 58.5,142.5 24.5,142.5C 23.1163,127.382 30.1163,120.215 45.5,121C 43.654,118.976 42.3207,116.643 41.5,114C 43.4796,111.349 45.4796,108.682 47.5,106C 41.5594,92.6196 35.2261,79.453 28.5,66.5C 18.0516,64.608 14.8849,58.9413 19,49.5C 25.4448,43.7903 31.1115,44.457 36,51.5C 36.3333,54.1667 36.6667,56.8333 37,59.5C 40.27,63.7252 44.1033,67.3919 48.5,70.5C 48.8333,70.3333 49.1667,70.1667 49.5,70C 48.6042,66.5723 47.9376,63.0723 47.5,59.5 Z"/></g>
<g><path style="opacity:1" fill="#a1a39c" d="M 28.5,49.5 C 33.5775,51.334 34.7442,54.6674 32,59.5C 29.0819,63.0562 25.9152,63.3895 22.5,60.5C 24.1644,59.0512 24.9977,57.0512 25,54.5C 26.0113,53.6634 27.1779,53.33 28.5,53.5C 28.5,52.1667 28.5,50.8333 28.5,49.5 Z"/></g>
<g><path style="opacity:1" fill="#e1e2df" d="M 28.5,49.5 C 28.5,50.8333 28.5,52.1667 28.5,53.5C 27.1779,53.33 26.0113,53.6634 25,54.5C 24.9977,57.0512 24.1644,59.0512 22.5,60.5C 18.4878,53.6289 20.4878,49.9622 28.5,49.5 Z"/></g>
<g><path style="opacity:1" fill="#afb1aa" d="M 49.5,109.5 C 49.5,108.833 49.8333,108.5 50.5,108.5C 66.8367,108.333 83.1701,108.5 99.5,109C 97.1667,109.333 94.8333,109.667 92.5,110C 93.3279,110.915 94.3279,111.581 95.5,112C 94.5842,112.278 93.9175,112.778 93.5,113.5C 78.8159,112.298 64.1492,110.965 49.5,109.5 Z"/></g>
<g><path style="opacity:1" fill="#e0e1de" d="M 49.5,109.5 C 64.1492,110.965 78.8159,112.298 93.5,113.5C 96.7577,114.171 100.091,115.004 103.5,116C 84.5029,116.5 65.5029,116.667 46.5,116.5C 44.9437,113.312 45.9437,110.979 49.5,109.5 Z"/></g>
<g><path style="opacity:1" fill="#a0a29b" d="M 50.5,108.5 C 66.9949,107.338 83.6616,107.172 100.5,108C 107.198,114.011 106.198,118.677 97.5,122C 82.5,122.667 67.5,122.667 52.5,122C 49.3928,121.294 47.3928,119.461 46.5,116.5C 65.5029,116.667 84.5029,116.5 103.5,116C 100.091,115.004 96.7577,114.171 93.5,113.5C 93.9175,112.778 94.5842,112.278 95.5,112C 94.3279,111.581 93.3279,110.915 92.5,110C 94.8333,109.667 97.1667,109.333 99.5,109C 83.1701,108.5 66.8367,108.333 50.5,108.5 Z"/></g>
<g><path style="opacity:1" fill="#eff0ee" d="M 106.5,125.5 C 103.25,127.125 99.9163,128.792 96.5,130.5C 85.5,130.833 74.5,131.167 63.5,131.5C 52.1458,131.499 41.1458,130.832 30.5,129.5C 31.343,127.827 32.6763,126.66 34.5,126C 58.4977,125.5 82.4977,125.333 106.5,125.5 Z"/></g>
<g><path style="opacity:1" fill="#d1d3ce" d="M 106.5,125.5 C 107.833,125.5 109.167,125.5 110.5,125.5C 109.791,126.404 108.791,126.737 107.5,126.5C 107.67,127.822 107.337,128.989 106.5,130C 104.754,130.471 103.087,131.138 101.5,132C 89.5,132.167 77.5,132.333 65.5,132.5C 53.1476,132.499 41.1476,131.832 29.5,130.5C 29.5,129.833 29.8333,129.5 30.5,129.5C 41.1458,130.832 52.1458,131.499 63.5,131.5C 74.5,131.167 85.5,130.833 96.5,130.5C 99.9163,128.792 103.25,127.125 106.5,125.5 Z"/></g>
<g><path style="opacity:1" fill="#b5b6af" d="M 110.5,125.5 C 113.228,125.171 115.562,125.837 117.5,127.5C 116.49,131.013 114.49,133.847 111.5,136C 102.504,136.714 93.5035,137.381 84.5,138C 83.5842,138.278 82.9175,138.778 82.5,139.5C 64.1667,139.5 45.8333,139.5 27.5,139.5C 27.4203,136.219 28.087,133.219 29.5,130.5C 41.1476,131.832 53.1476,132.499 65.5,132.5C 77.5,132.333 89.5,132.167 101.5,132C 103.087,131.138 104.754,130.471 106.5,130C 107.337,128.989 107.67,127.822 107.5,126.5C 108.791,126.737 109.791,126.404 110.5,125.5 Z"/></g>
<g><path style="opacity:1" fill="#9d9f99" d="M 117.5,127.5 C 121.593,130.352 123.593,134.352 123.5,139.5C 109.833,139.5 96.1667,139.5 82.5,139.5C 82.9175,138.778 83.5842,138.278 84.5,138C 93.5035,137.381 102.504,136.714 111.5,136C 114.49,133.847 116.49,131.013 117.5,127.5 Z"/></g>
</svg>
