<?xml version="1.0" encoding="UTF-8"?>
<!DOCTYPE svg PUBLIC "-//W3C//DTD SVG 1.1//EN" "http://www.w3.org/Graphics/SVG/1.1/DTD/svg11.dtd">
<svg xmlns="http://www.w3.org/2000/svg" version="1.1" width="150px" height="150px" style="shape-rendering:geometricPrecision; text-rendering:geometricPrecision; image-rendering:optimizeQuality; fill-rule:evenodd; clip-rule:evenodd" xmlns:xlink="http://www.w3.org/1999/xlink">
<g><path style="opacity:1" fill="#07090a" d="M 117.5,52.5 C 116.712,49.1129 115.712,45.7796 114.5,42.5C 114.018,36.3397 113.351,30.3397 112.5,24.5C 107.833,24.5 103.167,24.5 98.5,24.5C 97.5184,27.9619 97.185,31.6286 97.5,35.5C 92.8333,35.5 88.1667,35.5 83.5,35.5C 83.815,31.6286 83.4816,27.9619 82.5,24.5C 77.8333,24.5 73.1667,24.5 68.5,24.5C 68.5,28.1667 68.5,31.8333 68.5,35.5C 68.5,36.1667 68.1667,36.5 67.5,36.5C 62.8333,36.5 58.1667,36.5 53.5,36.5C 53.8168,32.2984 53.4834,28.2984 52.5,24.5C 47.5,24.5 42.5,24.5 37.5,24.5C 36.9115,31.485 36.5782,38.485 36.5,45.5C 34.9952,48.361 34.6619,51.361 35.5,54.5C 34.1634,53.6851 33.1634,52.5185 32.5,51C 33.2974,41.5531 34.1307,32.0531 35,22.5C 42.0787,21.5201 49.2454,21.1868 56.5,21.5C 56.5,25.5 56.5,29.5 56.5,33.5C 59.5,33.5 62.5,33.5 65.5,33.5C 65.5,29.5 65.5,25.5 65.5,21.5C 72.1667,21.5 78.8333,21.5 85.5,21.5C 85.5,25.5 85.5,29.5 85.5,33.5C 88.5,33.5 91.5,33.5 94.5,33.5C 94.5,29.5 94.5,25.5 94.5,21.5C 101.755,21.1868 108.921,21.5201 116,22.5C 116.749,32.4906 117.249,42.4906 117.5,52.5 Z"/></g>
<g><path style="opacity:1" fill="#adafa8" d="M 52.5,24.5 C 53.4834,28.2984 53.8168,32.2984 53.5,36.5C 58.1667,36.5 62.8333,36.5 67.5,36.5C 66.2825,37.1614 64.9492,37.8281 63.5,38.5C 65.5,39.1667 67.5,39.8333 69.5,40.5C 70.1279,42.2581 71.1279,43.7581 72.5,45C 71.0922,45.3152 69.7589,44.9819 68.5,44C 69.2052,42.4435 68.5385,41.2768 66.5,40.5C 66.0894,41.2624 65.9227,42.2624 66,43.5C 64.4174,41.0072 62.9174,41.1738 61.5,44C 62.8088,45.7507 62.4755,47.2507 60.5,48.5C 77.1567,49.6663 93.8233,49.8329 110.5,49C 109.422,48.3261 108.755,47.3261 108.5,46C 109.573,43.1081 110.573,40.2748 111.5,37.5C 111.182,36.3527 110.516,35.5194 109.5,35C 110.126,34.2496 110.626,33.4162 111,32.5C 111.333,32.8333 111.667,33.1667 112,33.5C 112.498,30.5184 112.665,27.5184 112.5,24.5C 113.351,30.3397 114.018,36.3397 114.5,42.5C 114.5,45.1667 114.5,47.8333 114.5,50.5C 89.5,50.5 64.5,50.5 39.5,50.5C 41.9971,49.3264 43.3305,47.3264 43.5,44.5C 42.5514,39.1943 41.8848,33.8609 41.5,28.5C 45.1352,27.8857 48.8019,27.5524 52.5,27.5C 52.5,26.5 52.5,25.5 52.5,24.5 Z"/></g>
<g><path style="opacity:1" fill="#2e3030" d="M 82.5,24.5 C 83.4816,27.9619 83.815,31.6286 83.5,35.5C 88.1667,35.5 92.8333,35.5 97.5,35.5C 97.185,31.6286 97.5184,27.9619 98.5,24.5C 98.5,28.5 98.5,32.5 98.5,36.5C 93.1667,36.5 87.8333,36.5 82.5,36.5C 82.5,33.1667 82.5,29.8333 82.5,26.5C 82.5,25.8333 82.5,25.1667 82.5,24.5 Z"/></g>
<g><path style="opacity:1" fill="#b8bab3" d="M 98.5,24.5 C 103.167,24.5 107.833,24.5 112.5,24.5C 112.665,27.5184 112.498,30.5184 112,33.5C 111.667,33.1667 111.333,32.8333 111,32.5C 110.626,33.4162 110.126,34.2496 109.5,35C 110.516,35.5194 111.182,36.3527 111.5,37.5C 110.573,40.2748 109.573,43.1081 108.5,46C 108.755,47.3261 109.422,48.3261 110.5,49C 93.8233,49.8329 77.1567,49.6663 60.5,48.5C 62.4755,47.2507 62.8088,45.7507 61.5,44C 62.9174,41.1738 64.4174,41.0072 66,43.5C 65.9227,42.2624 66.0894,41.2624 66.5,40.5C 68.5385,41.2768 69.2052,42.4435 68.5,44C 69.7589,44.9819 71.0922,45.3152 72.5,45C 71.1279,43.7581 70.1279,42.2581 69.5,40.5C 67.5,39.8333 65.5,39.1667 63.5,38.5C 64.9492,37.8281 66.2825,37.1614 67.5,36.5C 68.1667,36.5 68.5,36.1667 68.5,35.5C 70.2676,33.4922 71.9343,31.3256 73.5,29C 76.652,28.6051 79.652,27.7718 82.5,26.5C 82.5,29.8333 82.5,33.1667 82.5,36.5C 87.8333,36.5 93.1667,36.5 98.5,36.5C 98.5,32.5 98.5,28.5 98.5,24.5 Z"/></g>
<g><path style="opacity:1" fill="#dedfdc" d="M 82.5,24.5 C 82.5,25.1667 82.5,25.8333 82.5,26.5C 79.652,27.7718 76.652,28.6051 73.5,29C 71.9343,31.3256 70.2676,33.4922 68.5,35.5C 68.5,31.8333 68.5,28.1667 68.5,24.5C 73.1667,24.5 77.8333,24.5 82.5,24.5 Z"/></g>
<g><path style="opacity:1" fill="#cecfcb" d="M 52.5,24.5 C 52.5,25.5 52.5,26.5 52.5,27.5C 48.8019,27.5524 45.1352,27.8857 41.5,28.5C 41.8848,33.8609 42.5514,39.1943 43.5,44.5C 43.3305,47.3264 41.9971,49.3264 39.5,50.5C 38.5,50.5 37.5,50.5 36.5,50.5C 36.5,48.8333 36.5,47.1667 36.5,45.5C 36.5782,38.485 36.9115,31.485 37.5,24.5C 42.5,24.5 47.5,24.5 52.5,24.5 Z"/></g>
<g><path style="opacity:0.996" fill="#121414" d="M 114.5,42.5 C 115.712,45.7796 116.712,49.1129 117.5,52.5C 114.538,55.9641 111.371,59.2975 108,62.5C 108.705,82.2175 110.205,101.884 112.5,121.5C 119.942,122.105 124.442,126.105 126,133.5C 126.498,136.482 126.665,139.482 126.5,142.5C 92.5,142.5 58.5,142.5 24.5,142.5C 23.9312,137.223 24.7645,132.223 27,127.5C 30.5603,124.062 34.5603,121.395 39,119.5C 40.6866,100.487 42.0199,81.4873 43,62.5C 40.295,59.9638 37.795,57.2971 35.5,54.5C 34.6619,51.361 34.9952,48.361 36.5,45.5C 36.5,47.1667 36.5,48.8333 36.5,50.5C 37.5,50.5 38.5,50.5 39.5,50.5C 64.5,50.5 89.5,50.5 114.5,50.5C 114.5,47.8333 114.5,45.1667 114.5,42.5 Z"/></g>
<g><path style="opacity:1" fill="#989992" d="M 39.5,54.5 C 63.5,53.1667 87.5,53.1667 111.5,54.5C 109.037,56.4611 106.703,58.6278 104.5,61C 84.8249,61.833 65.1582,61.6664 45.5,60.5C 43.8122,58.1455 41.8122,56.1455 39.5,54.5 Z"/></g>
<g><path style="opacity:0.996" fill="#343634" d="M 111.5,54.5 C 87.5,53.1667 63.5,53.1667 39.5,54.5C 38.9569,54.44 38.6236,54.1067 38.5,53.5C 63.1667,52.1667 87.8333,52.1667 112.5,53.5C 112.376,54.1067 112.043,54.44 111.5,54.5 Z"/></g>
<g><path style="opacity:1" fill="#7d7e79" d="M 78.5,63.5 C 87.1667,63.5 95.8333,63.5 104.5,63.5C 104.5,66.5 104.5,69.5 104.5,72.5C 103.732,73.2625 103.232,74.2625 103,75.5C 97.8525,72.0016 92.6858,68.5016 87.5,65C 84.3054,64.8195 81.3054,64.3195 78.5,63.5 Z"/></g>
<g><path style="opacity:1" fill="#a5a69f" d="M 64.5,64.5 C 68.1669,64.1636 71.5002,64.997 74.5,67C 75.7014,67.9025 76.5348,69.0692 77,70.5C 77.5194,69.4844 78.3527,68.8178 79.5,68.5C 83.0768,69.4579 86.4101,70.7913 89.5,72.5C 89.2148,74.288 89.5481,75.9547 90.5,77.5C 93.3217,79.8374 95.1551,82.8374 96,86.5C 96.6667,87.1667 97.3333,87.8333 98,88.5C 98.7175,87.5494 99.5509,87.3828 100.5,88C 99.3774,89.0437 98.0441,89.7104 96.5,90C 97.6667,93.1667 99.1667,93.3333 101,90.5C 102.914,91.676 102.748,92.676 100.5,93.5C 101.137,95.3031 102.303,96.6364 104,97.5C 103.477,100.542 103.644,103.542 104.5,106.5C 103.167,107.167 101.833,107.833 100.5,108.5C 100.261,110.467 100.594,112.301 101.5,114C 97.5603,115.958 96.8936,118.458 99.5,121.5C 96.5,121.5 93.5,121.5 90.5,121.5C 89.4324,120.566 88.099,120.232 86.5,120.5C 89.5969,119.086 92.2636,116.919 94.5,114C 91.9164,111.866 92.2497,110.032 95.5,108.5C 95.2907,107.914 94.9574,107.414 94.5,107C 96.0441,106.71 97.3774,106.044 98.5,105C 97.782,103.013 96.782,101.179 95.5,99.5C 98.1306,97.9954 97.7973,97.3287 94.5,97.5C 94.528,95.4176 93.8613,93.5843 92.5,92C 93.8163,90.0224 93.3163,88.5224 91,87.5C 90.3828,86.5509 90.5494,85.7175 91.5,85C 89.1128,84.0239 87.9461,82.1906 88,79.5C 87.3333,80.1667 86.6667,80.8333 86,81.5C 85.3691,80.1281 84.7025,78.7948 84,77.5C 79.0299,75.7675 74.1966,73.6008 69.5,71C 67.2319,69.2613 65.5652,67.0946 64.5,64.5 Z"/></g>
<g><path style="opacity:1" fill="#b4b6af" d="M 64.5,64.5 C 65.5652,67.0946 67.2319,69.2613 69.5,71C 74.1966,73.6008 79.0299,75.7675 84,77.5C 84.7025,78.7948 85.3691,80.1281 86,81.5C 86.6667,80.8333 87.3333,80.1667 88,79.5C 87.9461,82.1906 89.1128,84.0239 91.5,85C 90.5494,85.7175 90.3828,86.5509 91,87.5C 93.3163,88.5224 93.8163,90.0224 92.5,92C 93.8613,93.5843 94.528,95.4176 94.5,97.5C 97.7973,97.3287 98.1306,97.9954 95.5,99.5C 96.782,101.179 97.782,103.013 98.5,105C 97.3774,106.044 96.0441,106.71 94.5,107C 94.9574,107.414 95.2907,107.914 95.5,108.5C 92.2497,110.032 91.9164,111.866 94.5,114C 92.2636,116.919 89.5969,119.086 86.5,120.5C 84.8008,120.66 83.1341,120.494 81.5,120C 84.4336,118.438 86.7669,116.272 88.5,113.5C 87.4425,113.094 86.1092,113.094 84.5,113.5C 84.67,112.178 84.3366,111.011 83.5,110C 83.8333,109.833 84.1667,109.667 84.5,109.5C 85.2508,110.376 85.7508,111.376 86,112.5C 87.2413,109.102 89.0746,106.102 91.5,103.5C 90.9067,101.618 90.2401,99.7849 89.5,98C 89.8333,97.6667 90.1667,97.3333 90.5,97C 89.4479,95.8808 88.2812,95.3808 87,95.5C 86.5848,97.2909 85.5848,98.6243 84,99.5C 83.6667,98.8333 83.3333,98.1667 83,97.5C 81.6012,98.2266 80.1012,98.7266 78.5,99C 78.0563,100.533 77.723,102.033 77.5,103.5C 75.6627,99.7234 73.9961,99.7234 72.5,103.5C 71.4937,103.062 71.4937,102.396 72.5,101.5C 71.3966,101.002 70.3966,100.669 69.5,100.5C 69.9767,99.5224 70.6433,98.6891 71.5,98C 69.6546,98.7827 67.6546,99.116 65.5,99C 66.9255,97.2859 66.5922,95.9525 64.5,95C 66.4061,93.0073 67.5727,93.5073 68,96.5C 68.5885,94.1367 70.0885,93.1367 72.5,93.5C 72.0828,90.6567 71.0828,87.99 69.5,85.5C 68.1936,86.9122 67.3603,88.5789 67,90.5C 65.1649,87.142 62.9982,86.8087 60.5,89.5C 59.8333,88.8333 59.1667,88.1667 58.5,87.5C 57.013,91.2411 57.6797,94.5744 60.5,97.5C 59.1916,98.6256 57.8583,98.6256 56.5,97.5C 54.6818,87.8493 52.5151,78.1826 50,68.5C 49.0471,66.6269 47.8804,66.2935 46.5,67.5C 46.5,66.8333 46.5,66.1667 46.5,65.5C 52.4093,64.5447 58.4093,64.2114 64.5,64.5 Z"/></g>
<g><path style="opacity:1" fill="#94968f" d="M 78.5,63.5 C 81.3054,64.3195 84.3054,64.8195 87.5,65C 92.6858,68.5016 97.8525,72.0016 103,75.5C 103.232,74.2625 103.732,73.2625 104.5,72.5C 106.692,88.7546 108.025,105.088 108.5,121.5C 105.5,121.5 102.5,121.5 99.5,121.5C 96.8936,118.458 97.5603,115.958 101.5,114C 100.594,112.301 100.261,110.467 100.5,108.5C 101.833,107.833 103.167,107.167 104.5,106.5C 103.644,103.542 103.477,100.542 104,97.5C 102.303,96.6364 101.137,95.3031 100.5,93.5C 102.748,92.676 102.914,91.676 101,90.5C 99.1667,93.3333 97.6667,93.1667 96.5,90C 98.0441,89.7104 99.3774,89.0437 100.5,88C 99.5509,87.3828 98.7175,87.5494 98,88.5C 97.3333,87.8333 96.6667,87.1667 96,86.5C 95.1551,82.8374 93.3217,79.8374 90.5,77.5C 89.5481,75.9547 89.2148,74.288 89.5,72.5C 86.4101,70.7913 83.0768,69.4579 79.5,68.5C 78.3527,68.8178 77.5194,69.4844 77,70.5C 76.5348,69.0692 75.7014,67.9025 74.5,67C 71.5002,64.997 68.1669,64.1636 64.5,64.5C 58.4093,64.2114 52.4093,64.5447 46.5,65.5C 56.7809,63.5238 67.4476,62.8572 78.5,63.5 Z"/></g>
<g><path style="opacity:1" fill="#d3d4d0" d="M 56.5,97.5 C 62.6931,110.172 58.6931,117.338 44.5,119C 43.7476,119.671 43.4142,120.504 43.5,121.5C 42.8362,119.19 42.5029,116.69 42.5,114C 43.7311,98.4333 45.0644,82.9333 46.5,67.5C 47.8804,66.2935 49.0471,66.6269 50,68.5C 52.5151,78.1826 54.6818,87.8493 56.5,97.5 Z"/></g>
<g><path style="opacity:1" fill="#b6b8b1" d="M 86.5,120.5 C 88.099,120.232 89.4324,120.566 90.5,121.5C 74.8333,121.5 59.1667,121.5 43.5,121.5C 43.4142,120.504 43.7476,119.671 44.5,119C 58.6931,117.338 62.6931,110.172 56.5,97.5C 57.8583,98.6256 59.1916,98.6256 60.5,97.5C 57.6797,94.5744 57.013,91.2411 58.5,87.5C 59.1667,88.1667 59.8333,88.8333 60.5,89.5C 62.9982,86.8087 65.1649,87.142 67,90.5C 67.3603,88.5789 68.1936,86.9122 69.5,85.5C 71.0828,87.99 72.0828,90.6567 72.5,93.5C 70.0885,93.1367 68.5885,94.1367 68,96.5C 67.5727,93.5073 66.4061,93.0073 64.5,95C 66.5922,95.9525 66.9255,97.2859 65.5,99C 67.6546,99.116 69.6546,98.7827 71.5,98C 70.6433,98.6891 69.9767,99.5224 69.5,100.5C 70.3966,100.669 71.3966,101.002 72.5,101.5C 71.4937,102.396 71.4937,103.062 72.5,103.5C 73.9961,99.7234 75.6627,99.7234 77.5,103.5C 77.723,102.033 78.0563,100.533 78.5,99C 80.1012,98.7266 81.6012,98.2266 83,97.5C 83.3333,98.1667 83.6667,98.8333 84,99.5C 85.5848,98.6243 86.5848,97.2909 87,95.5C 88.2812,95.3808 89.4479,95.8808 90.5,97C 90.1667,97.3333 89.8333,97.6667 89.5,98C 90.2401,99.7849 90.9067,101.618 91.5,103.5C 89.0746,106.102 87.2413,109.102 86,112.5C 85.7508,111.376 85.2508,110.376 84.5,109.5C 84.1667,109.667 83.8333,109.833 83.5,110C 84.3366,111.011 84.67,112.178 84.5,113.5C 86.1092,113.094 87.4425,113.094 88.5,113.5C 86.7669,116.272 84.4336,118.438 81.5,120C 83.1341,120.494 84.8008,120.66 86.5,120.5 Z"/></g>
<g><path style="opacity:1" fill="#eeefed" d="M 35.5,125.5 C 60.1689,125.333 84.8356,125.5 109.5,126C 108.833,127.333 108.167,128.667 107.5,130C 94.2576,131.15 80.9242,131.65 67.5,131.5C 54.6622,131.5 41.9955,131.167 29.5,130.5C 30.865,128.14 32.865,126.473 35.5,125.5 Z"/></g>
<g><path style="opacity:1" fill="#b7b8b2" d="M 35.5,125.5 C 61.6635,124.337 87.9968,124.17 114.5,125C 120.608,127.372 123.608,131.872 123.5,138.5C 91.5,138.5 59.5,138.5 27.5,138.5C 27.5651,135.572 28.2318,132.905 29.5,130.5C 41.9955,131.167 54.6622,131.5 67.5,131.5C 80.9242,131.65 94.2576,131.15 107.5,130C 108.167,128.667 108.833,127.333 109.5,126C 84.8356,125.5 60.1689,125.333 35.5,125.5 Z"/></g>
</svg>
