<?xml version="1.0" encoding="UTF-8"?>
<!DOCTYPE svg PUBLIC "-//W3C//DTD SVG 1.1//EN" "http://www.w3.org/Graphics/SVG/1.1/DTD/svg11.dtd">
<svg xmlns="http://www.w3.org/2000/svg" version="1.1" width="300px" height="300px" style="shape-rendering:geometricPrecision; text-rendering:geometricPrecision; image-rendering:optimizeQuality; fill-rule:evenodd; clip-rule:evenodd" xmlns:xlink="http://www.w3.org/1999/xlink">
<g><path style="opacity:1" fill="#262626" d="M 142.5,66.5 C 171.819,65.4922 188.152,79.4922 191.5,108.5C 191.302,119.937 187.302,129.77 179.5,138C 185.667,142.167 191.833,146.333 198,150.5C 198.835,158.16 197.001,165.16 192.5,171.5C 186.872,172.495 181.206,172.829 175.5,172.5C 177.207,187.081 183.54,199.248 194.5,209C 199.991,213.246 205.658,217.246 211.5,221C 225.023,235.068 230.69,251.901 228.5,271.5C 175.5,271.5 122.5,271.5 69.5,271.5C 67.8517,251.268 74.185,234.101 88.5,220C 108.058,209.947 119.724,194.114 123.5,172.5C 117.794,172.829 112.128,172.495 106.5,171.5C 101.696,165.283 99.8623,158.283 101,150.5C 107.167,146.333 113.333,142.167 119.5,138C 107.779,125.067 104.612,110.233 110,93.5C 116.329,78.9388 127.162,69.9388 142.5,66.5 Z"/></g>
<g><path style="opacity:1" fill="#555251" d="M 143.5,74.5 C 154.203,72.2431 163.536,74.9098 171.5,82.5C 184.556,109.253 176.889,127.753 148.5,138C 154.825,138.5 161.158,138.666 167.5,138.5C 167.833,139.5 168.5,140.167 169.5,140.5C 172.126,144.596 173.793,149.096 174.5,154C 173.942,158.618 171.942,162.451 168.5,165.5C 167.833,165.5 167.167,165.5 166.5,165.5C 154.833,165.5 143.167,165.5 131.5,165.5C 124.468,165.83 117.468,165.497 110.5,164.5C 108.273,161.24 107.606,157.906 108.5,154.5C 113.875,154.828 119.208,154.495 124.5,153.5C 126.319,148.693 128.319,144.026 130.5,139.5C 127.949,136.442 125.115,133.442 122,130.5C 119.295,126.423 117.128,122.09 115.5,117.5C 118.442,103.13 125.442,90.9635 136.5,81C 139.833,79 143.167,77 146.5,75C 145.552,74.5172 144.552,74.3505 143.5,74.5 Z"/></g>
<g><path style="opacity:1" fill="#747171" d="M 143.5,74.5 C 144.552,74.3505 145.552,74.5172 146.5,75C 143.167,77 139.833,79 136.5,81C 125.442,90.9635 118.442,103.13 115.5,117.5C 112.061,94.6867 121.394,80.3533 143.5,74.5 Z"/></g>
<g><path style="opacity:1" fill="#454242" d="M 171.5,82.5 C 176.675,85.8503 180.175,90.5169 182,96.5C 187.217,113.342 182.384,127.342 167.5,138.5C 161.158,138.666 154.825,138.5 148.5,138C 176.889,127.753 184.556,109.253 171.5,82.5 Z"/></g>
<g><path style="opacity:1" fill="#757272" d="M 130.5,139.5 C 128.319,144.026 126.319,148.693 124.5,153.5C 119.208,154.495 113.875,154.828 108.5,154.5C 115.796,149.513 123.13,144.513 130.5,139.5 Z"/></g>
<g><path style="opacity:1" fill="#454242" d="M 169.5,140.5 C 176.138,144.823 182.805,149.156 189.5,153.5C 191.019,157.697 190.352,161.53 187.5,165C 181.175,165.5 174.842,165.666 168.5,165.5C 171.942,162.451 173.942,158.618 174.5,154C 173.793,149.096 172.126,144.596 169.5,140.5 Z"/></g>
<g><path style="opacity:1" fill="#454242" d="M 131.5,165.5 C 143.167,165.5 154.833,165.5 166.5,165.5C 167.452,186.237 176.119,203.404 192.5,217C 197.015,220.03 201.349,223.197 205.5,226.5C 193.359,224.762 182.359,220.262 172.5,213C 159.196,200.696 146.196,188.03 133.5,175C 132.423,174.53 131.423,174.697 130.5,175.5C 131.324,172.236 131.658,168.902 131.5,165.5 Z"/></g>
<g><path style="opacity:1" fill="#555251" d="M 205.5,226.5 C 214.224,233.259 219.39,242.259 221,253.5C 221.499,257.152 221.665,260.818 221.5,264.5C 173.167,264.5 124.833,264.5 76.5,264.5C 76.2053,262.265 76.5386,260.265 77.5,258.5C 77.3433,259.873 77.51,261.207 78,262.5C 80.5178,252.625 85.6845,244.459 93.5,238C 102.115,232.441 110.282,226.274 118,219.5C 123.99,210.181 126.824,200.181 126.5,189.5C 128.436,185.024 129.769,180.357 130.5,175.5C 131.423,174.697 132.423,174.53 133.5,175C 146.196,188.03 159.196,200.696 172.5,213C 182.359,220.262 193.359,224.762 205.5,226.5 Z"/></g>
<g><path style="opacity:1" fill="#757272" d="M 126.5,189.5 C 126.824,200.181 123.99,210.181 118,219.5C 110.282,226.274 102.115,232.441 93.5,238C 85.6845,244.459 80.5178,252.625 78,262.5C 77.51,261.207 77.3433,259.873 77.5,258.5C 78.6999,239.8 87.6999,226.3 104.5,218C 114.307,210.366 121.64,200.866 126.5,189.5 Z"/></g>
</svg>
