<?xml version="1.0" encoding="UTF-8"?>
<!DOCTYPE svg PUBLIC "-//W3C//DTD SVG 1.1//EN" "http://www.w3.org/Graphics/SVG/1.1/DTD/svg11.dtd">
<svg xmlns="http://www.w3.org/2000/svg" version="1.1" width="300px" height="300px" style="shape-rendering:geometricPrecision; text-rendering:geometricPrecision; image-rendering:optimizeQuality; fill-rule:evenodd; clip-rule:evenodd" xmlns:xlink="http://www.w3.org/1999/xlink">
<g><path style="opacity:0.981" fill="#474747" d="M 142.5,24.5 C 160.836,25.0035 170.336,34.3368 171,52.5C 159.952,64.9244 152.285,79.2577 148,95.5C 142.837,113.474 140.337,131.808 140.5,150.5C 145.5,150.5 150.5,150.5 155.5,150.5C 155.237,129.172 158.737,108.505 166,88.5C 168.579,83.0082 171.412,77.6748 174.5,72.5C 175.365,71.4173 176.365,71.2506 177.5,72C 195.556,88.618 208.722,108.451 217,131.5C 223.393,158.478 219.393,183.811 205,207.5C 202.872,210.63 200.372,213.463 197.5,216C 210.246,216.794 221.079,221.628 230,230.5C 232.66,234.814 234.327,239.481 235,244.5C 235.5,253.494 235.666,262.494 235.5,271.5C 176.5,271.5 117.5,271.5 58.5,271.5C 58.3526,261.8 58.8526,252.134 60,242.5C 62.2003,231.262 68.7003,223.762 79.5,220C 85.0891,218.346 90.7558,217.013 96.5,216C 74.0733,187.452 68.9066,155.952 81,121.5C 91.2484,99.1945 105.748,80.0278 124.5,64C 116.553,44.3967 122.553,31.2301 142.5,24.5 Z"/></g>
<g><path style="opacity:1" fill="#f7f7f7" d="M 155.5,35.5 C 157.048,42.7329 156.215,49.7329 153,56.5C 145.333,71.1667 137.667,85.8333 130,100.5C 121.676,118.35 121.343,136.35 129,154.5C 130.039,155.71 131.206,156.71 132.5,157.5C 142.5,158.833 152.5,158.833 162.5,157.5C 160.899,131.185 165.732,106.185 177,82.5C 184.529,88.8476 190.696,96.181 195.5,104.5C 212.177,153.491 197.844,190.158 152.5,214.5C 136.821,214.617 121.154,214.783 105.5,215C 83.5792,191.043 76.7459,163.21 85,131.5C 90.5157,115.46 98.849,101.127 110,88.5C 117.863,80.3023 126.03,72.469 134.5,65C 123.829,52.3588 125.496,41.6922 139.5,33C 143.5,32.3333 147.5,32.3333 151.5,33C 153.066,33.6082 154.4,34.4415 155.5,35.5 Z"/></g>
<g><path style="opacity:1" fill="#d1d1d1" d="M 155.5,35.5 C 161.218,38.3975 163.718,43.0641 163,49.5C 148.803,68.9075 139.803,90.5741 136,114.5C 134.29,123.423 133.457,132.423 133.5,141.5C 132.512,146.64 132.179,151.974 132.5,157.5C 131.206,156.71 130.039,155.71 129,154.5C 121.343,136.35 121.676,118.35 130,100.5C 137.667,85.8333 145.333,71.1667 153,56.5C 156.215,49.7329 157.048,42.7329 155.5,35.5 Z"/></g>
<g><path style="opacity:1" fill="#d2d2d2" d="M 195.5,104.5 C 209.716,123.037 215.216,144.037 212,167.5C 209.877,186.245 202.044,202.079 188.5,215C 176.518,214.758 164.518,214.591 152.5,214.5C 197.844,190.158 212.177,153.491 195.5,104.5 Z"/></g>
<g><path style="opacity:1" fill="#838383" d="M 133.5,141.5 C 133.5,146.833 133.5,152.167 133.5,157.5C 143.167,157.5 152.833,157.5 162.5,157.5C 152.5,158.833 142.5,158.833 132.5,157.5C 132.179,151.974 132.512,146.64 133.5,141.5 Z"/></g>
<g><path style="opacity:1" fill="#f8f8f8" d="M 115.5,221.5 C 144.218,220.897 172.885,221.73 201.5,224C 210.241,225.016 217.741,228.516 224,234.5C 225,236.5 226,238.5 227,240.5C 228.321,248.439 228.821,256.439 228.5,264.5C 174.5,264.5 120.5,264.5 66.5,264.5C 66.1696,256.107 66.6696,247.773 68,239.5C 72.0177,231.4 78.5177,226.567 87.5,225C 96.933,223.413 106.266,222.247 115.5,221.5 Z"/></g>
</svg>
