<?xml version="1.0" encoding="UTF-8"?>
<!DOCTYPE svg PUBLIC "-//W3C//DTD SVG 1.1//EN" "http://www.w3.org/Graphics/SVG/1.1/DTD/svg11.dtd">
<svg xmlns="http://www.w3.org/2000/svg" version="1.1" width="300px" height="300px" style="shape-rendering:geometricPrecision; text-rendering:geometricPrecision; image-rendering:optimizeQuality; fill-rule:evenodd; clip-rule:evenodd" xmlns:xlink="http://www.w3.org/1999/xlink">
<g><path style="opacity:0.984" fill="#484848" d="M 116.5,30.5 C 118.857,30.3367 121.19,30.5034 123.5,31C 130.5,38 137.5,45 144.5,52C 195.848,59.3474 226.348,88.5141 236,139.5C 237.947,152.507 237.947,165.507 236,178.5C 233.122,192.678 229.622,206.678 225.5,220.5C 237.485,223.993 244.319,231.993 246,244.5C 246.5,253.494 246.666,262.494 246.5,271.5C 187.595,271.831 128.762,271.498 70,270.5C 68.9954,257.877 70.3288,245.543 74,233.5C 78.2572,226.574 84.2572,221.908 92,219.5C 95.1633,208.839 100.163,199.172 107,190.5C 118.034,179.798 129.367,169.464 141,159.5C 145.99,153.866 147.657,147.533 146,140.5C 138.967,148.204 130.8,154.37 121.5,159C 115.963,160.726 110.296,161.726 104.5,162C 103.167,162.667 101.833,163.333 100.5,164C 97.2424,170.253 92.9091,175.586 87.5,180C 71.8768,180.905 58.3768,176.071 47,165.5C 42.3707,157.327 42.7041,149.327 48,141.5C 56,130.167 64,118.833 72,107.5C 76.1962,97.2452 80.1962,86.9119 84,76.5C 85.3333,74.5 86.6667,72.5 88,70.5C 93.6667,66.1667 98.6667,61.1667 103,55.5C 104.289,49.3829 105.956,43.3829 108,37.5C 110.464,34.519 113.297,32.1856 116.5,30.5 Z"/></g>
<g><path style="opacity:1" fill="#f7f7f7" d="M 150.5,60.5 C 199.89,76.0944 218.057,109.094 205,159.5C 198.286,174.201 189.953,187.867 180,200.5C 177.546,205.073 175.379,209.739 173.5,214.5C 149.92,213.903 126.42,214.903 103,217.5C 102.167,217.167 101.333,216.833 100.5,216.5C 103.388,208.386 107.554,201.053 113,194.5C 124.034,183.798 135.367,173.464 147,163.5C 151.141,158.551 153.641,152.884 154.5,146.5C 160.271,134.873 162.271,122.54 160.5,109.5C 159.325,109.281 158.325,109.614 157.5,110.5C 154.324,116.862 150.658,122.862 146.5,128.5C 138.949,139.102 129.283,147.102 117.5,152.5C 115.801,152.66 114.134,152.494 112.5,152C 108.962,149.731 105.295,147.731 101.5,146C 99.8333,145.333 98.1667,145.333 96.5,146C 92.2211,155.392 87.5544,164.558 82.5,173.5C 71.2306,172.898 61.3973,168.898 53,161.5C 51.5427,157.259 51.2093,152.926 52,148.5C 61.2467,135.674 70.2467,122.674 79,109.5C 82.8007,99.0992 86.8007,88.7659 91,78.5C 96.2792,73.2208 101.613,67.8874 107,62.5C 110.372,56.6067 112.372,50.2734 113,43.5C 114.346,40.8207 116.346,38.8207 119,37.5C 126.791,44.2894 134.291,51.456 141.5,59C 144.695,59.1805 147.695,59.6805 150.5,60.5 Z"/></g>
<g><path style="opacity:1" fill="#d1d1d1" d="M 150.5,60.5 C 194.479,68.9795 220.646,95.3128 229,139.5C 231.71,166.785 227.876,193.118 217.5,218.5C 202.926,216.348 188.259,215.015 173.5,214.5C 175.379,209.739 177.546,205.073 180,200.5C 189.953,187.867 198.286,174.201 205,159.5C 218.057,109.094 199.89,76.0944 150.5,60.5 Z"/></g>
<g><path style="opacity:1" fill="#4b4b4b" d="M 117.5,82.5 C 124.069,81.9005 128.402,84.7339 130.5,91C 129.079,95.4204 126.079,98.087 121.5,99C 117.861,98.7221 114.194,98.7221 110.5,99C 109.421,99.956 108.255,100.789 107,101.5C 107.375,93.4145 110.875,87.0812 117.5,82.5 Z"/></g>
<g><path style="opacity:1" fill="#d3d3d3" d="M 154.5,146.5 C 154.326,139.283 151.659,133.283 146.5,128.5C 150.658,122.862 154.324,116.862 157.5,110.5C 158.325,109.614 159.325,109.281 160.5,109.5C 162.271,122.54 160.271,134.873 154.5,146.5 Z"/></g>
<g><path style="opacity:1" fill="#cecece" d="M 117.5,152.5 C 111.7,153.992 105.7,155.159 99.5,156C 94.2561,160.249 90.0894,165.416 87,171.5C 85.8904,173.037 84.3904,173.703 82.5,173.5C 87.5544,164.558 92.2211,155.392 96.5,146C 98.1667,145.333 99.8333,145.333 101.5,146C 105.295,147.731 108.962,149.731 112.5,152C 114.134,152.494 115.801,152.66 117.5,152.5 Z"/></g>
<g><path style="opacity:1" fill="#fcfcfc" d="M 235.5,236.5 C 235.44,237.043 235.107,237.376 234.5,237.5C 225.738,234.617 217.238,233.284 209,233.5C 205,232.833 201,232.167 197,231.5C 196,231.833 195,232.167 194,232.5C 184,231.833 174,231.167 164,230.5C 151.645,230.918 138.312,231.585 124,232.5C 110.867,232.188 97.2006,233.855 83,237.5C 81.9701,237.164 81.4701,236.497 81.5,235.5C 85.8374,229.991 91.504,226.491 98.5,225C 118.049,222.063 137.715,220.896 157.5,221.5C 177.281,220.896 196.948,222.063 216.5,225C 220.637,225.934 224.637,227.268 228.5,229C 231.739,230.736 234.073,233.236 235.5,236.5 Z"/></g>
<g><path style="opacity:1" fill="#f7f7f7" d="M 235.5,236.5 C 237.446,238.734 238.613,241.401 239,244.5C 239.5,251.158 239.666,257.825 239.5,264.5C 185.5,264.5 131.5,264.5 77.5,264.5C 77.3337,257.492 77.5004,250.492 78,243.5C 78.7048,240.524 79.8714,237.858 81.5,235.5C 81.4701,236.497 81.9701,237.164 83,237.5C 97.2006,233.855 110.867,232.188 124,232.5C 138.312,231.585 151.645,230.918 164,230.5C 174,231.167 184,231.833 194,232.5C 195,232.167 196,231.833 197,231.5C 201,232.167 205,232.833 209,233.5C 217.238,233.284 225.738,234.617 234.5,237.5C 235.107,237.376 235.44,237.043 235.5,236.5 Z"/></g>
</svg>
