<?xml version="1.0" encoding="UTF-8"?>
<!DOCTYPE svg PUBLIC "-//W3C//DTD SVG 1.1//EN" "http://www.w3.org/Graphics/SVG/1.1/DTD/svg11.dtd">
<svg xmlns="http://www.w3.org/2000/svg" version="1.1" width="300px" height="300px" style="shape-rendering:geometricPrecision; text-rendering:geometricPrecision; image-rendering:optimizeQuality; fill-rule:evenodd; clip-rule:evenodd" xmlns:xlink="http://www.w3.org/1999/xlink">
<g><path style="opacity:0.984" fill="#484848" d="M 108.5,31.5 C 131.152,29.6605 142.985,39.9939 144,62.5C 142.568,68.6929 140.068,74.3596 136.5,79.5C 140.702,92.9391 145.202,106.272 150,119.5C 155.317,106.386 160.15,93.0522 164.5,79.5C 152.817,63.8106 154.151,49.3106 168.5,36C 182.765,28.5007 195.598,30.334 207,41.5C 214.595,53.7494 214.262,65.7494 206,77.5C 203.512,79.7433 200.846,81.7433 198,83.5C 198.085,100.982 199.085,118.316 201,135.5C 206.468,129.031 212.301,122.864 218.5,117C 212.218,99.2278 217.885,86.8945 235.5,80C 255.335,77.5813 266.668,86.248 269.5,106C 268.295,119.266 261.462,128.099 249,132.5C 237.069,160.793 225.236,189.126 213.5,217.5C 221.013,220.183 227.513,224.516 233,230.5C 235.66,234.814 237.327,239.481 238,244.5C 238.5,253.494 238.666,262.494 238.5,271.5C 179.5,271.5 120.5,271.5 61.5,271.5C 61.7562,262.157 62.2562,252.824 63,243.5C 64.2873,235.536 68.1206,229.036 74.5,224C 78.9863,221.909 83.3196,219.742 87.5,217.5C 75.6667,189.167 63.8333,160.833 52,132.5C 33.6986,124.562 28.0319,111.228 35,92.5C 43.2926,80.513 54.4592,76.6797 68.5,81C 83.5195,89.1956 88.3528,101.362 83,117.5C 88.3009,123.802 93.9675,129.802 100,135.5C 101.372,118.846 102.539,102.179 103.5,85.5C 87.6092,74.138 84.1092,59.8046 93,42.5C 97.1272,37.202 102.294,33.5354 108.5,31.5 Z"/></g>
<g><path style="opacity:1" fill="#f7f7f7" d="M 127.5,41.5 C 129.417,45.2381 129.917,49.2381 129,53.5C 123.765,59.6177 121.098,66.6177 121,74.5C 128.896,92.7165 137.063,110.717 145.5,128.5C 146.825,132.138 148.158,135.805 149.5,139.5C 150.167,140.833 150.833,140.833 151.5,139.5C 158.439,118.35 165.772,97.3496 173.5,76.5C 160.669,65.3561 160.336,53.8561 172.5,42C 181.018,37.1848 189.351,37.3515 197.5,42.5C 199.253,51.6939 196.42,59.3606 189,65.5C 186.151,69.3762 184.984,73.7095 185.5,78.5C 187.61,99.7147 190.277,120.715 193.5,141.5C 193.334,145.514 193.501,149.514 194,153.5C 205.167,141.667 216.333,129.833 227.5,118C 219.128,104.443 222.128,94.1093 236.5,87C 243.08,85.6355 249.08,86.8022 254.5,90.5C 258.249,96.6859 258.415,103.019 255,109.5C 249.372,113.822 243.705,118.155 238,122.5C 224.649,149.712 207.482,174.212 186.5,196C 175.418,205.709 162.752,211.876 148.5,214.5C 130.414,214.173 112.414,215.173 94.5,217.5C 82.4623,187.085 70.129,156.752 57.5,126.5C 42.7791,122.725 36.9458,113.392 40,98.5C 46.7348,86.3689 56.2348,83.3689 68.5,89.5C 69.0293,91.7832 69.3626,94.1166 69.5,96.5C 68.8133,101.395 67.8133,106.228 66.5,111C 66.6148,113.732 67.4481,116.232 69,118.5C 78.3703,127.373 87.8703,136.04 97.5,144.5C 100.797,147.296 103.964,150.296 107,153.5C 108.571,128.508 109.571,103.508 110,78.5C 98.0439,73.9291 93.3772,65.2624 96,52.5C 102.849,38.4959 113.349,34.8292 127.5,41.5 Z"/></g>
<g><path style="opacity:1" fill="#cfcfcf" d="M 127.5,41.5 C 137.4,49.7944 139.233,59.7944 133,71.5C 131.22,73.2929 129.387,74.9596 127.5,76.5C 133.701,93.7708 139.701,111.104 145.5,128.5C 137.063,110.717 128.896,92.7165 121,74.5C 121.098,66.6177 123.765,59.6177 129,53.5C 129.917,49.2381 129.417,45.2381 127.5,41.5 Z"/></g>
<g><path style="opacity:1" fill="#cdcdcd" d="M 197.5,42.5 C 202.944,46.5565 205.611,52.0565 205.5,59C 205.13,68.9361 200.297,75.4361 191,78.5C 191.531,99.4965 192.365,120.497 193.5,141.5C 190.277,120.715 187.61,99.7147 185.5,78.5C 184.984,73.7095 186.151,69.3762 189,65.5C 196.42,59.3606 199.253,51.6939 197.5,42.5 Z"/></g>
<g><path style="opacity:1" fill="#cecece" d="M 68.5,89.5 C 79.6623,97.2852 81.3289,106.785 73.5,118C 81.729,126.724 89.729,135.557 97.5,144.5C 87.8703,136.04 78.3703,127.373 69,118.5C 67.4481,116.232 66.6148,113.732 66.5,111C 67.8133,106.228 68.8133,101.395 69.5,96.5C 69.3626,94.1166 69.0293,91.7832 68.5,89.5 Z"/></g>
<g><path style="opacity:1" fill="#d2d2d2" d="M 254.5,90.5 C 257.624,92.7244 259.791,95.7244 261,99.5C 263.396,113.922 257.562,122.922 243.5,126.5C 230.902,156.459 218.402,186.459 206,216.5C 205.275,217.059 204.442,217.392 203.5,217.5C 185.257,215.019 166.923,214.019 148.5,214.5C 162.752,211.876 175.418,205.709 186.5,196C 207.482,174.212 224.649,149.712 238,122.5C 243.705,118.155 249.372,113.822 255,109.5C 258.415,103.019 258.249,96.6859 254.5,90.5 Z"/></g>
<g><path style="opacity:1" fill="#fcfcfc" d="M 227.5,236.5 C 227.44,237.043 227.107,237.376 226.5,237.5C 218.064,234.73 209.897,233.397 202,233.5C 197.667,232.833 193.333,232.167 189,231.5C 188,231.833 187,232.167 186,232.5C 172.903,231.661 160.57,230.994 149,230.5C 138,231.167 127,231.833 116,232.5C 115,232.167 114,231.833 113,231.5C 109.333,232.167 105.667,232.833 102,233.5C 92.6657,233.309 83.1657,234.975 73.5,238.5C 72.8933,238.376 72.56,238.043 72.5,237.5C 75.585,231.278 80.585,227.445 87.5,226C 106.795,222.102 126.295,220.602 146,221.5C 164.885,221.247 183.718,222.08 202.5,224C 210.07,224.746 217.07,227.079 223.5,231C 225.464,232.451 226.797,234.284 227.5,236.5 Z"/></g>
<g><path style="opacity:1" fill="#f7f7f7" d="M 227.5,236.5 C 229.714,238.995 230.881,241.995 231,245.5C 231.5,251.825 231.666,258.158 231.5,264.5C 177.5,264.5 123.5,264.5 69.5,264.5C 69.3337,257.492 69.5004,250.492 70,243.5C 70.5662,241.277 71.3995,239.277 72.5,237.5C 72.56,238.043 72.8933,238.376 73.5,238.5C 83.1657,234.975 92.6657,233.309 102,233.5C 105.667,232.833 109.333,232.167 113,231.5C 114,231.833 115,232.167 116,232.5C 127,231.833 138,231.167 149,230.5C 160.57,230.994 172.903,231.661 186,232.5C 187,232.167 188,231.833 189,231.5C 193.333,232.167 197.667,232.833 202,233.5C 209.897,233.397 218.064,234.73 226.5,237.5C 227.107,237.376 227.44,237.043 227.5,236.5 Z"/></g>
</svg>
