<?xml version="1.0" encoding="UTF-8"?>
<!DOCTYPE svg PUBLIC "-//W3C//DTD SVG 1.1//EN" "http://www.w3.org/Graphics/SVG/1.1/DTD/svg11.dtd">
<svg xmlns="http://www.w3.org/2000/svg" version="1.1" width="150px" height="150px" style="shape-rendering:geometricPrecision; text-rendering:geometricPrecision; image-rendering:optimizeQuality; fill-rule:evenodd; clip-rule:evenodd" xmlns:xlink="http://www.w3.org/1999/xlink">
<g><path style="opacity:1" fill="#5e5f5e" d="M 74.5,21.5 C 74.5,24.8333 74.5,28.1667 74.5,31.5C 71.1667,31.5 67.8333,31.5 64.5,31.5C 64.5,28.1667 64.5,24.8333 64.5,21.5C 67.8333,21.5 71.1667,21.5 74.5,21.5 Z"/></g>
<g><path style="opacity:0.985" fill="#383838" d="M 74.5,20.5 C 78.1667,20.5 81.8333,20.5 85.5,20.5C 85.5,23.8333 85.5,27.1667 85.5,30.5C 89.1064,30.2108 92.6064,30.5442 96,31.5C 96.4996,38.4921 96.6663,45.4921 96.5,52.5C 100.167,52.5 103.833,52.5 107.5,52.5C 107.5,67.1667 107.5,81.8333 107.5,96.5C 103.833,96.5 100.167,96.5 96.5,96.5C 96.5,99.5 96.5,102.5 96.5,105.5C 103.755,105.187 110.921,105.52 118,106.5C 118.812,113.747 118.646,120.914 117.5,128C 96.1693,128.5 74.8359,128.667 53.5,128.5C 53.5,121.167 53.5,113.833 53.5,106.5C 57.1667,106.5 60.8333,106.5 64.5,106.5C 64.5,95.5 64.5,84.5 64.5,73.5C 67.5,73.5 70.5,73.5 73.5,73.5C 73.5,66.8333 73.5,60.1667 73.5,53.5C 70.1667,53.5 66.8333,53.5 63.5,53.5C 63.5,50.1667 63.5,46.8333 63.5,43.5C 64.4299,39.6002 64.7633,35.6002 64.5,31.5C 67.8333,31.5 71.1667,31.5 74.5,31.5C 74.5,28.1667 74.5,24.8333 74.5,21.5C 74.5,21.1667 74.5,20.8333 74.5,20.5 Z"/></g>
<g><path style="opacity:0.902" fill="#525352" d="M 74.5,20.5 C 74.5,20.8333 74.5,21.1667 74.5,21.5C 71.1667,21.5 67.8333,21.5 64.5,21.5C 64.5,24.8333 64.5,28.1667 64.5,31.5C 64.7633,35.6002 64.4299,39.6002 63.5,43.5C 59.8333,43.5 56.1667,43.5 52.5,43.5C 52.5,39.1667 52.5,34.8333 52.5,30.5C 56.1817,30.6653 59.8484,30.4986 63.5,30C 62.1667,27 62.1667,24 63.5,21C 67.1516,20.5014 70.8183,20.3347 74.5,20.5 Z"/></g>
<g><path style="opacity:1" fill="#5e5f5e" d="M 53.5,32.5 C 56.8333,32.5 60.1667,32.5 63.5,32.5C 63.5,35.5 63.5,38.5 63.5,41.5C 60.1667,41.5 56.8333,41.5 53.5,41.5C 53.5,38.5 53.5,35.5 53.5,32.5 Z"/></g>
<g><path style="opacity:1" fill="#5b5c5b" d="M 64.5,73.5 C 64.5,84.5 64.5,95.5 64.5,106.5C 60.8333,106.5 57.1667,106.5 53.5,106.5C 53.5,113.833 53.5,121.167 53.5,128.5C 45.8333,128.5 38.1667,128.5 30.5,128.5C 30.3337,121.159 30.5003,113.826 31,106.5C 38.0787,105.52 45.2454,105.187 52.5,105.5C 52.5,102.5 52.5,99.5 52.5,96.5C 48.8333,96.5 45.1667,96.5 41.5,96.5C 41.5,81.8333 41.5,67.1667 41.5,52.5C 45.5,52.5 49.5,52.5 53.5,52.5C 53.5,55.8333 53.5,59.1667 53.5,62.5C 56.8499,62.335 60.1832,62.5017 63.5,63C 64.4558,66.3936 64.7892,69.8936 64.5,73.5 Z"/></g>
</svg>
