<?xml version="1.0" encoding="UTF-8"?>
<!DOCTYPE svg PUBLIC "-//W3C//DTD SVG 1.1//EN" "http://www.w3.org/Graphics/SVG/1.1/DTD/svg11.dtd">
<svg xmlns="http://www.w3.org/2000/svg" version="1.1" width="150px" height="150px" style="shape-rendering:geometricPrecision; text-rendering:geometricPrecision; image-rendering:optimizeQuality; fill-rule:evenodd; clip-rule:evenodd" xmlns:xlink="http://www.w3.org/1999/xlink">
<g><path style="opacity:1" fill="#5e5f5e" d="M 74.5,10.5 C 74.5,13.8333 74.5,17.1667 74.5,20.5C 71.1667,20.5 67.8333,20.5 64.5,20.5C 64.5,17.1667 64.5,13.8333 64.5,10.5C 67.8333,10.5 71.1667,10.5 74.5,10.5 Z"/></g>
<g><path style="opacity:0.978" fill="#383838" d="M 74.5,9.5 C 78.1667,9.5 81.8333,9.5 85.5,9.5C 85.5,13.1667 85.5,16.8333 85.5,20.5C 89.1667,20.5 92.8333,20.5 96.5,20.5C 96.5,24.5 96.5,28.5 96.5,32.5C 92.8333,32.5 89.1667,32.5 85.5,32.5C 85.5,35.5 85.5,38.5 85.5,41.5C 89.1667,41.5 92.8333,41.5 96.5,41.5C 96.5,45.1667 96.5,48.8333 96.5,52.5C 103.755,52.1868 110.921,52.5201 118,53.5C 118.5,64.1615 118.667,74.8281 118.5,85.5C 114.833,85.5 111.167,85.5 107.5,85.5C 107.5,89.1667 107.5,92.8333 107.5,96.5C 103.833,96.5 100.167,96.5 96.5,96.5C 96.5,99.5 96.5,102.5 96.5,105.5C 103.755,105.187 110.921,105.52 118,106.5C 118.5,113.826 118.666,121.159 118.5,128.5C 96.8333,128.5 75.1667,128.5 53.5,128.5C 53.5,121.167 53.5,113.833 53.5,106.5C 46.1667,106.5 38.8333,106.5 31.5,106.5C 38.3134,105.509 45.3134,105.175 52.5,105.5C 52.5,102.5 52.5,99.5 52.5,96.5C 48.8333,96.5 45.1667,96.5 41.5,96.5C 41.5,93.1667 41.5,89.8333 41.5,86.5C 37.9581,86.8128 34.6248,86.4794 31.5,85.5C 35.649,86.0803 39.3157,85.4136 42.5,83.5C 42.5,77.1667 42.5,70.8333 42.5,64.5C 46.0419,64.8128 49.3752,64.4794 52.5,63.5C 53.4794,60.3752 53.8128,57.0419 53.5,53.5C 57.0419,53.8128 60.3752,53.4794 63.5,52.5C 64.4794,49.3752 64.8128,46.0419 64.5,42.5C 67.8333,42.5 71.1667,42.5 74.5,42.5C 74.5,39.1667 74.5,35.8333 74.5,32.5C 71.3752,31.5206 68.0419,31.1872 64.5,31.5C 64.5,28.1667 64.5,24.8333 64.5,21.5C 68.0419,21.8128 71.3752,21.4794 74.5,20.5C 74.5,17.1667 74.5,13.8333 74.5,10.5C 74.5,10.1667 74.5,9.83333 74.5,9.5 Z"/></g>
<g><path style="opacity:1" fill="#5d5e5d" d="M 62.5,20.5 C 63.4816,23.9619 63.815,27.6286 63.5,31.5C 59.8333,31.5 56.1667,31.5 52.5,31.5C 52.5,27.8333 52.5,24.1667 52.5,20.5C 55.8333,20.5 59.1667,20.5 62.5,20.5 Z"/></g>
<g><path style="opacity:0.063" fill="#373837" d="M 52.5,31.5 C 56.1667,31.5 59.8333,31.5 63.5,31.5C 63.8128,35.0419 63.4794,38.3752 62.5,41.5C 62.5,38.5 62.5,35.5 62.5,32.5C 58.9581,32.8128 55.6248,32.4794 52.5,31.5 Z"/></g>
<g><path style="opacity:0.655" fill="#4d4d4d" d="M 74.5,9.5 C 74.5,9.83333 74.5,10.1667 74.5,10.5C 71.1667,10.5 67.8333,10.5 64.5,10.5C 64.5,13.8333 64.5,17.1667 64.5,20.5C 67.8333,20.5 71.1667,20.5 74.5,20.5C 71.3752,21.4794 68.0419,21.8128 64.5,21.5C 64.5,24.8333 64.5,28.1667 64.5,31.5C 68.0419,31.1872 71.3752,31.5206 74.5,32.5C 71.1667,32.5 67.8333,32.5 64.5,32.5C 64.5,35.8333 64.5,39.1667 64.5,42.5C 64.8128,46.0419 64.4794,49.3752 63.5,52.5C 63.5,49.1667 63.5,45.8333 63.5,42.5C 60.1667,42.5 56.8333,42.5 53.5,42.5C 53.5,42.1667 53.5,41.8333 53.5,41.5C 56.5,41.5 59.5,41.5 62.5,41.5C 63.4794,38.3752 63.8128,35.0419 63.5,31.5C 63.815,27.6286 63.4816,23.9619 62.5,20.5C 62.2108,16.8936 62.5442,13.3936 63.5,10C 67.1516,9.50137 70.8183,9.3347 74.5,9.5 Z"/></g>
<g><path style="opacity:1" fill="#5d5e5d" d="M 74.5,32.5 C 74.5,35.8333 74.5,39.1667 74.5,42.5C 71.1667,42.5 67.8333,42.5 64.5,42.5C 64.5,39.1667 64.5,35.8333 64.5,32.5C 67.8333,32.5 71.1667,32.5 74.5,32.5 Z"/></g>
<g><path style="opacity:1" fill="#5e5f5e" d="M 53.5,42.5 C 56.8333,42.5 60.1667,42.5 63.5,42.5C 63.5,45.8333 63.5,49.1667 63.5,52.5C 60.1667,52.5 56.8333,52.5 53.5,52.5C 53.5,49.1667 53.5,45.8333 53.5,42.5 Z"/></g>
<g><path style="opacity:0.482" fill="#535553" d="M 53.5,41.5 C 53.5,41.8333 53.5,42.1667 53.5,42.5C 53.5,45.8333 53.5,49.1667 53.5,52.5C 56.8333,52.5 60.1667,52.5 63.5,52.5C 60.3752,53.4794 57.0419,53.8128 53.5,53.5C 53.8128,57.0419 53.4794,60.3752 52.5,63.5C 52.5,60.1667 52.5,56.8333 52.5,53.5C 45.8333,53.5 39.1667,53.5 32.5,53.5C 32.5,53.1667 32.5,52.8333 32.5,52.5C 39.1667,52.5 45.8333,52.5 52.5,52.5C 52.185,48.6286 52.5184,44.9619 53.5,41.5 Z"/></g>
<g><path style="opacity:0.11" fill="#4d4d4d" d="M 32.5,52.5 C 32.5,52.8333 32.5,53.1667 32.5,53.5C 31.5056,63.9869 31.1722,74.6536 31.5,85.5C 30.8339,80.1771 30.5006,74.6771 30.5,69C 30.5048,63.1238 31.1714,57.6238 32.5,52.5 Z"/></g>
<g><path style="opacity:1" fill="#5d5e5d" d="M 32.5,53.5 C 39.1667,53.5 45.8333,53.5 52.5,53.5C 52.5,56.8333 52.5,60.1667 52.5,63.5C 48.8333,63.5 45.1667,63.5 41.5,63.5C 41.176,70.3543 41.5093,77.021 42.5,83.5C 39.3157,85.4136 35.649,86.0803 31.5,85.5C 31.1722,74.6536 31.5056,63.9869 32.5,53.5 Z"/></g>
<g><path style="opacity:1" fill="#565656" d="M 52.5,63.5 C 49.3752,64.4794 46.0419,64.8128 42.5,64.5C 42.5,70.8333 42.5,77.1667 42.5,83.5C 41.5093,77.021 41.176,70.3543 41.5,63.5C 45.1667,63.5 48.8333,63.5 52.5,63.5 Z"/></g>
<g><path style="opacity:0.11" fill="#4d4d4d" d="M 31.5,106.5 C 31.2027,113.92 31.536,121.254 32.5,128.5C 31.1778,125.232 30.5112,121.565 30.5,117.5C 30.5013,113.651 30.8346,109.984 31.5,106.5 Z"/></g>
<g><path style="opacity:1" fill="#5d5e5d" d="M 31.5,106.5 C 38.8333,106.5 46.1667,106.5 53.5,106.5C 53.5,113.833 53.5,121.167 53.5,128.5C 46.5,128.5 39.5,128.5 32.5,128.5C 31.536,121.254 31.2027,113.92 31.5,106.5 Z"/></g>
</svg>
