<?xml version="1.0" encoding="UTF-8"?>
<!DOCTYPE svg PUBLIC "-//W3C//DTD SVG 1.1//EN" "http://www.w3.org/Graphics/SVG/1.1/DTD/svg11.dtd">
<svg xmlns="http://www.w3.org/2000/svg" version="1.1" width="150px" height="150px" style="shape-rendering:geometricPrecision; text-rendering:geometricPrecision; image-rendering:optimizeQuality; fill-rule:evenodd; clip-rule:evenodd" xmlns:xlink="http://www.w3.org/1999/xlink">
<g><path style="opacity:0.978" fill="#383838" d="M 75.5,20.5 C 74.5184,23.9619 74.185,27.6286 74.5,31.5C 78.1667,31.5 81.8333,31.5 85.5,31.5C 85.756,27.7307 85.4227,24.0641 84.5,20.5C 84.5,16.8333 84.5,13.1667 84.5,9.5C 88.5,9.5 92.5,9.5 96.5,9.5C 96.5,16.5 96.5,23.5 96.5,30.5C 100.106,30.2108 103.606,30.5442 107,31.5C 107.5,56.1644 107.667,80.8311 107.5,105.5C 111.106,105.211 114.606,105.544 118,106.5C 118.812,113.747 118.646,120.914 117.5,128C 96.1693,128.5 74.8359,128.667 53.5,128.5C 53.5,121.167 53.5,113.833 53.5,106.5C 56.8333,106.5 60.1667,106.5 63.5,106.5C 64.4944,96.0131 64.8278,85.3464 64.5,74.5C 67.8333,74.5 71.1667,74.5 74.5,74.5C 74.5,70.8333 74.5,67.1667 74.5,63.5C 70.9581,63.1872 67.6248,63.5206 64.5,64.5C 64.1667,64.5 63.8333,64.5 63.5,64.5C 60.1667,64.5 56.8333,64.5 53.5,64.5C 53.5,64.1667 53.5,63.8333 53.5,63.5C 53.5,56.5 53.5,49.5 53.5,42.5C 57.1667,42.5 60.8333,42.5 64.5,42.5C 64.8128,38.9581 64.4794,35.6248 63.5,32.5C 60.0381,31.5184 56.3714,31.185 52.5,31.5C 55.9619,30.5184 59.6286,30.185 63.5,30.5C 63.5,23.5 63.5,16.5 63.5,9.5C 67.1817,9.3347 70.8484,9.50137 74.5,10C 75.4558,13.3936 75.7892,16.8936 75.5,20.5 Z"/></g>
<g><path style="opacity:1" fill="#5c5d5c" d="M 75.5,20.5 C 78.5,20.5 81.5,20.5 84.5,20.5C 85.4227,24.0641 85.756,27.7307 85.5,31.5C 81.8333,31.5 78.1667,31.5 74.5,31.5C 74.185,27.6286 74.5184,23.9619 75.5,20.5 Z"/></g>
<g><path style="opacity:1" fill="#525252" d="M 52.5,31.5 C 56.3714,31.185 60.0381,31.5184 63.5,32.5C 64.4794,35.6248 64.8128,38.9581 64.5,42.5C 60.8333,42.5 57.1667,42.5 53.5,42.5C 53.5,49.5 53.5,56.5 53.5,63.5C 52.5088,56.6866 52.1755,49.6866 52.5,42.5C 49.1667,42.5 45.8333,42.5 42.5,42.5C 45.6248,41.5206 48.9581,41.1872 52.5,41.5C 52.5,38.1667 52.5,34.8333 52.5,31.5 Z"/></g>
<g><path style="opacity:1" fill="#5e5f5e" d="M 63.5,32.5 C 63.5,35.5 63.5,38.5 63.5,41.5C 60.1667,41.5 56.8333,41.5 53.5,41.5C 53.5,38.5 53.5,35.5 53.5,32.5C 56.8333,32.5 60.1667,32.5 63.5,32.5 Z"/></g>
<g><path style="opacity:1" fill="#5c5c5c" d="M 42.5,42.5 C 45.8333,42.5 49.1667,42.5 52.5,42.5C 52.1755,49.6866 52.5088,56.6866 53.5,63.5C 53.5,63.8333 53.5,64.1667 53.5,64.5C 49.5,64.5 45.5,64.5 41.5,64.5C 41.175,56.9809 41.5084,49.6476 42.5,42.5 Z"/></g>
<g><path style="opacity:1" fill="#5c5d5c" d="M 64.5,74.5 C 64.5,71.1667 64.5,67.8333 64.5,64.5C 67.6248,63.5206 70.9581,63.1872 74.5,63.5C 74.5,67.1667 74.5,70.8333 74.5,74.5C 71.1667,74.5 67.8333,74.5 64.5,74.5 Z"/></g>
<g><path style="opacity:1" fill="#4c4c4c" d="M 63.5,64.5 C 63.8333,64.5 64.1667,64.5 64.5,64.5C 64.5,67.8333 64.5,71.1667 64.5,74.5C 64.8278,85.3464 64.4944,96.0131 63.5,106.5C 63.5,95.8333 63.5,85.1667 63.5,74.5C 59.8333,74.5 56.1667,74.5 52.5,74.5C 55.977,73.6773 59.6437,73.1773 63.5,73C 62.3213,70.2043 62.3213,67.3709 63.5,64.5 Z"/></g>
<g><path style="opacity:1" fill="#5c5d5c" d="M 52.5,74.5 C 56.1667,74.5 59.8333,74.5 63.5,74.5C 63.5,85.1667 63.5,95.8333 63.5,106.5C 60.1667,106.5 56.8333,106.5 53.5,106.5C 53.5,113.833 53.5,121.167 53.5,128.5C 45.8333,128.5 38.1667,128.5 30.5,128.5C 30.3337,121.159 30.5003,113.826 31,106.5C 34.3936,105.544 37.8936,105.211 41.5,105.5C 41.5,98.5 41.5,91.5 41.5,84.5C 45.1667,84.5 48.8333,84.5 52.5,84.5C 52.5,81.1667 52.5,77.8333 52.5,74.5 Z"/></g>
</svg>
