<?xml version="1.0" encoding="UTF-8"?>
<!DOCTYPE svg PUBLIC "-//W3C//DTD SVG 1.1//EN" "http://www.w3.org/Graphics/SVG/1.1/DTD/svg11.dtd">
<svg xmlns="http://www.w3.org/2000/svg" version="1.1" width="150px" height="150px" style="shape-rendering:geometricPrecision; text-rendering:geometricPrecision; image-rendering:optimizeQuality; fill-rule:evenodd; clip-rule:evenodd" xmlns:xlink="http://www.w3.org/1999/xlink">
<g><path style="opacity:1" fill="#5a5b5a" d="M 64.5,20.5 C 67.8333,20.5 71.1667,20.5 74.5,20.5C 74.5,24.1667 74.5,27.8333 74.5,31.5C 71.1667,31.5 67.8333,31.5 64.5,31.5C 64.8245,38.6866 64.4912,45.6866 63.5,52.5C 63.5,45.5 63.5,38.5 63.5,31.5C 63.244,27.7307 63.5773,24.0641 64.5,20.5 Z"/></g>
<g><path style="opacity:0.983" fill="#383838" d="M 74.5,20.5 C 78.1817,20.3347 81.8484,20.5014 85.5,21C 86.8333,24 86.8333,27 85.5,30C 89.1516,30.4986 92.8183,30.6653 96.5,30.5C 96.6664,38.5069 96.4997,46.5069 96,54.5C 92.9433,53.5495 89.7766,53.2161 86.5,53.5C 86.7771,56.4475 86.4438,59.2809 85.5,62C 89.0894,62.2069 92.5894,62.7069 96,63.5C 96.4996,70.4921 96.6663,77.4921 96.5,84.5C 100.167,84.5 103.833,84.5 107.5,84.5C 107.5,91.5 107.5,98.5 107.5,105.5C 111.106,105.211 114.606,105.544 118,106.5C 118.5,113.826 118.666,121.159 118.5,128.5C 96.8333,128.5 75.1667,128.5 53.5,128.5C 53.5,121.167 53.5,113.833 53.5,106.5C 57.1667,106.5 60.8333,106.5 64.5,106.5C 64.6666,92.496 64.4999,78.496 64,64.5C 60.1675,63.1998 56.3342,63.1998 52.5,64.5C 55.7006,62.7397 59.3673,61.9064 63.5,62C 62.565,59.6194 62.2317,57.1194 62.5,54.5C 59.1501,54.665 55.8168,54.4983 52.5,54C 51.2617,53.31 51.2617,52.81 52.5,52.5C 56.2684,53.7866 59.9351,53.7866 63.5,52.5C 64.4912,45.6866 64.8245,38.6866 64.5,31.5C 67.8333,31.5 71.1667,31.5 74.5,31.5C 74.5,27.8333 74.5,24.1667 74.5,20.5 Z"/></g>
<g><path style="opacity:0.09" fill="#3f3f3f" d="M 64.5,20.5 C 63.5773,24.0641 63.244,27.7307 63.5,31.5C 59.7307,31.244 56.0641,31.5773 52.5,32.5C 55.3373,30.5977 58.6707,29.931 62.5,30.5C 61.931,26.6707 62.5977,23.3373 64.5,20.5 Z"/></g>
<g><path style="opacity:1" fill="#5d5e5d" d="M 63.5,31.5 C 63.5,38.5 63.5,45.5 63.5,52.5C 59.9351,53.7866 56.2684,53.7866 52.5,52.5C 52.5,45.8333 52.5,39.1667 52.5,32.5C 56.0641,31.5773 59.7307,31.244 63.5,31.5 Z"/></g>
<g><path style="opacity:1" fill="#5c5d5c" d="M 53.5,128.5 C 46.5,128.5 39.5,128.5 32.5,128.5C 31.536,121.254 31.2027,113.92 31.5,106.5C 35.1667,106.5 38.8333,106.5 42.5,106.5C 42.5,99.1667 42.5,91.8333 42.5,84.5C 45.8333,84.5 49.1667,84.5 52.5,84.5C 52.5,77.8333 52.5,71.1667 52.5,64.5C 56.3342,63.1998 60.1675,63.1998 64,64.5C 64.4999,78.496 64.6666,92.496 64.5,106.5C 60.8333,106.5 57.1667,106.5 53.5,106.5C 53.5,113.833 53.5,121.167 53.5,128.5 Z"/></g>
<g><path style="opacity:0.09" fill="#434343" d="M 42.5,84.5 C 42.5,91.8333 42.5,99.1667 42.5,106.5C 38.8333,106.5 35.1667,106.5 31.5,106.5C 31.2027,113.92 31.536,121.254 32.5,128.5C 30.5349,121.24 29.8682,113.573 30.5,105.5C 34.1667,105.5 37.8333,105.5 41.5,105.5C 41.1755,98.3134 41.5088,91.3134 42.5,84.5 Z"/></g>
</svg>
