<?xml version="1.0" encoding="UTF-8"?>
<!DOCTYPE svg PUBLIC "-//W3C//DTD SVG 1.1//EN" "http://www.w3.org/Graphics/SVG/1.1/DTD/svg11.dtd">
<svg xmlns="http://www.w3.org/2000/svg" version="1.1" width="150px" height="150px" style="shape-rendering:geometricPrecision; text-rendering:geometricPrecision; image-rendering:optimizeQuality; fill-rule:evenodd; clip-rule:evenodd" xmlns:xlink="http://www.w3.org/1999/xlink">
<g><path style="opacity:0.482" fill="#535653" d="M 64.5,41.5 C 64.5,41.8333 64.5,42.1667 64.5,42.5C 63.5088,35.6866 63.1755,28.6866 63.5,21.5C 60.1667,21.5 56.8333,21.5 53.5,21.5C 53.8276,32.0135 53.4942,42.3468 52.5,52.5C 52.5,41.8333 52.5,31.1667 52.5,20.5C 56.5,20.5 60.5,20.5 64.5,20.5C 64.5,27.5 64.5,34.5 64.5,41.5 Z"/></g>
<g><path style="opacity:1" fill="#5d5e5d" d="M 64.5,42.5 C 67.8333,42.5 71.1667,42.5 74.5,42.5C 74.5,45.8333 74.5,49.1667 74.5,52.5C 70.8333,52.5 67.1667,52.5 63.5,52.5C 63.5,56.1667 63.5,59.8333 63.5,63.5C 59.8333,63.5 56.1667,63.5 52.5,63.5C 52.5,74.1667 52.5,84.8333 52.5,95.5C 49.5,95.5 46.5,95.5 43.5,95.5C 44.0803,91.351 43.4136,87.6843 41.5,84.5C 38.2869,84.19 35.2869,84.5233 32.5,85.5C 32.1667,85.5 31.8333,85.5 31.5,85.5C 31.3334,67.8302 31.5001,50.1635 32,32.5C 35.3936,31.5442 38.8936,31.2108 42.5,31.5C 43.4912,38.3134 43.8245,45.3134 43.5,52.5C 46.5,52.5 49.5,52.5 52.5,52.5C 53.4942,42.3468 53.8276,32.0135 53.5,21.5C 56.8333,21.5 60.1667,21.5 63.5,21.5C 63.1755,28.6866 63.5088,35.6866 64.5,42.5 Z"/></g>
<g><path style="opacity:0.986" fill="#383838" d="M 106.5,31.5 C 110.106,31.2108 113.606,31.5442 117,32.5C 117.5,50.1635 117.667,67.8302 117.5,85.5C 114.167,85.5 110.833,85.5 107.5,85.5C 107.5,89.1667 107.5,92.8333 107.5,96.5C 103.833,96.5 100.167,96.5 96.5,96.5C 96.5,99.5 96.5,102.5 96.5,105.5C 103.755,105.187 110.921,105.52 118,106.5C 118.812,113.747 118.646,120.914 117.5,128C 96.1693,128.5 74.8359,128.667 53.5,128.5C 53.5,128.167 53.5,127.833 53.5,127.5C 53.5,120.5 53.5,113.5 53.5,106.5C 56.8499,106.665 60.1832,106.498 63.5,106C 64.8184,102.731 64.8184,99.5645 63.5,96.5C 60.3752,95.5206 57.0419,95.1872 53.5,95.5C 53.5,85.1667 53.5,74.8333 53.5,64.5C 57.0419,64.8128 60.3752,64.4794 63.5,63.5C 64.4794,60.3752 64.8128,57.0419 64.5,53.5C 68.0419,53.8128 71.3752,53.4794 74.5,52.5C 74.5,49.1667 74.5,45.8333 74.5,42.5C 71.1667,42.5 67.8333,42.5 64.5,42.5C 64.5,42.1667 64.5,41.8333 64.5,41.5C 71.1667,41.5 77.8333,41.5 84.5,41.5C 84.5,34.5 84.5,27.5 84.5,20.5C 88.5,20.5 92.5,20.5 96.5,20.5C 96.5,31.1667 96.5,41.8333 96.5,52.5C 99.5,52.5 102.5,52.5 105.5,52.5C 105.175,45.3134 105.509,38.3134 106.5,31.5 Z"/></g>
<g><path style="opacity:0.086" fill="#454545" d="M 42.5,31.5 C 38.8936,31.2108 35.3936,31.5442 32,32.5C 31.5001,50.1635 31.3334,67.8302 31.5,85.5C 30.338,67.6714 30.1713,49.6714 31,31.5C 34.9341,30.179 38.7674,30.179 42.5,31.5 Z"/></g>
<g><path style="opacity:0.086" fill="#454545" d="M 106.5,31.5 C 110.233,30.179 114.066,30.179 118,31.5C 118.829,49.6714 118.662,67.6714 117.5,85.5C 117.667,67.8302 117.5,50.1635 117,32.5C 113.606,31.5442 110.106,31.2108 106.5,31.5 Z"/></g>
<g><path style="opacity:1" fill="#4e4f4e" d="M 74.5,52.5 C 71.3752,53.4794 68.0419,53.8128 64.5,53.5C 64.8128,57.0419 64.4794,60.3752 63.5,63.5C 63.5,59.8333 63.5,56.1667 63.5,52.5C 67.1667,52.5 70.8333,52.5 74.5,52.5 Z"/></g>
<g><path style="opacity:1" fill="#4e4f4e" d="M 63.5,63.5 C 60.3752,64.4794 57.0419,64.8128 53.5,64.5C 53.5,74.8333 53.5,85.1667 53.5,95.5C 53.1667,95.5 52.8333,95.5 52.5,95.5C 52.5,84.8333 52.5,74.1667 52.5,63.5C 56.1667,63.5 59.8333,63.5 63.5,63.5 Z"/></g>
<g><path style="opacity:0.086" fill="#474747" d="M 41.5,84.5 C 41.5,85.1667 41.5,85.8333 41.5,86.5C 38.2869,86.81 35.2869,86.4767 32.5,85.5C 35.2869,84.5233 38.2869,84.19 41.5,84.5 Z"/></g>
<g><path style="opacity:0.482" fill="#525352" d="M 41.5,84.5 C 43.4136,87.6843 44.0803,91.351 43.5,95.5C 46.5,95.5 49.5,95.5 52.5,95.5C 52.8333,95.5 53.1667,95.5 53.5,95.5C 57.0419,95.1872 60.3752,95.5206 63.5,96.5C 60.1667,96.5 56.8333,96.5 53.5,96.5C 53.5,99.5 53.5,102.5 53.5,105.5C 53.1667,105.5 52.8333,105.5 52.5,105.5C 52.5,102.5 52.5,99.5 52.5,96.5C 48.8333,96.5 45.1667,96.5 41.5,96.5C 41.5,93.1667 41.5,89.8333 41.5,86.5C 41.5,85.8333 41.5,85.1667 41.5,84.5 Z"/></g>
<g><path style="opacity:1" fill="#5d5d5d" d="M 63.5,96.5 C 64.8184,99.5645 64.8184,102.731 63.5,106C 60.1832,106.498 56.8499,106.665 53.5,106.5C 53.5,106.167 53.5,105.833 53.5,105.5C 53.5,102.5 53.5,99.5 53.5,96.5C 56.8333,96.5 60.1667,96.5 63.5,96.5 Z"/></g>
<g><path style="opacity:0.981" fill="#4f4f4f" d="M 31.5,106.5 C 38.3134,105.509 45.3134,105.175 52.5,105.5C 52.8333,105.5 53.1667,105.5 53.5,105.5C 53.5,105.833 53.5,106.167 53.5,106.5C 53.5,113.5 53.5,120.5 53.5,127.5C 52.5088,120.687 52.1755,113.687 52.5,106.5C 45.5,106.5 38.5,106.5 31.5,106.5 Z"/></g>
<g><path style="opacity:0.086" fill="#444444" d="M 31.5,106.5 C 31.2027,113.92 31.536,121.254 32.5,128.5C 31.1778,125.232 30.5112,121.565 30.5,117.5C 30.5013,113.651 30.8346,109.984 31.5,106.5 Z"/></g>
<g><path style="opacity:1" fill="#5d5e5d" d="M 31.5,106.5 C 38.5,106.5 45.5,106.5 52.5,106.5C 52.1755,113.687 52.5088,120.687 53.5,127.5C 53.5,127.833 53.5,128.167 53.5,128.5C 46.5,128.5 39.5,128.5 32.5,128.5C 31.536,121.254 31.2027,113.92 31.5,106.5 Z"/></g>
</svg>
