<?xml version="1.0" encoding="UTF-8"?>
<!DOCTYPE svg PUBLIC "-//W3C//DTD SVG 1.1//EN" "http://www.w3.org/Graphics/SVG/1.1/DTD/svg11.dtd">
<svg xmlns="http://www.w3.org/2000/svg" version="1.1" width="150px" height="150px" style="shape-rendering:geometricPrecision; text-rendering:geometricPrecision; image-rendering:optimizeQuality; fill-rule:evenodd; clip-rule:evenodd" xmlns:xlink="http://www.w3.org/1999/xlink">
<g><path style="opacity:0.975" fill="#383838" d="M 74.5,20.5 C 78.1667,20.5 81.8333,20.5 85.5,20.5C 85.5,23.8333 85.5,27.1667 85.5,30.5C 88.8333,30.5 92.1667,30.5 95.5,30.5C 95.5,27.1667 95.5,23.8333 95.5,20.5C 99.5,20.5 103.5,20.5 107.5,20.5C 107.5,31.5 107.5,42.5 107.5,53.5C 103.833,53.5 100.167,53.5 96.5,53.5C 96.5,70.8333 96.5,88.1667 96.5,105.5C 103.755,105.187 110.921,105.52 118,106.5C 118.5,113.826 118.666,121.159 118.5,128.5C 96.8333,128.5 75.1667,128.5 53.5,128.5C 53.5,128.167 53.5,127.833 53.5,127.5C 53.5,120.5 53.5,113.5 53.5,106.5C 57.1667,106.5 60.8333,106.5 64.5,106.5C 64.5,88.8333 64.5,71.1667 64.5,53.5C 67.8333,53.5 71.1667,53.5 74.5,53.5C 74.5,42.5 74.5,31.5 74.5,20.5 Z"/></g>
<g><path style="opacity:1" fill="#5b5c5b" d="M 53.5,30.5 C 56.6248,31.4794 59.9581,31.8128 63.5,31.5C 63.5,28.1667 63.5,24.8333 63.5,21.5C 66.9619,20.5184 70.6286,20.185 74.5,20.5C 74.5,31.5 74.5,42.5 74.5,53.5C 71.1667,53.5 67.8333,53.5 64.5,53.5C 64.5,71.1667 64.5,88.8333 64.5,106.5C 60.8333,106.5 57.1667,106.5 53.5,106.5C 53.5,113.5 53.5,120.5 53.5,127.5C 52.5088,120.687 52.1755,113.687 52.5,106.5C 45.5,106.5 38.5,106.5 31.5,106.5C 38.3134,105.509 45.3134,105.175 52.5,105.5C 52.6666,88.1635 52.4999,70.8301 52,53.5C 48.8653,54.7994 45.6987,54.7994 42.5,53.5C 41.5012,42.5202 41.1679,31.5202 41.5,20.5C 45.5138,20.3345 49.5138,20.5012 53.5,21C 54.792,24.1653 54.792,27.332 53.5,30.5 Z"/></g>
<g><path style="opacity:0.129" fill="#3d3d3d" d="M 63.5,21.5 C 63.5,24.8333 63.5,28.1667 63.5,31.5C 59.9581,31.8128 56.6248,31.4794 53.5,30.5C 56.5,30.5 59.5,30.5 62.5,30.5C 62.19,27.2869 62.5233,24.2869 63.5,21.5 Z"/></g>
<g><path style="opacity:0.129" fill="#3f403f" d="M 31.5,106.5 C 31.2027,113.92 31.536,121.254 32.5,128.5C 31.1778,125.232 30.5112,121.565 30.5,117.5C 30.5013,113.651 30.8346,109.984 31.5,106.5 Z"/></g>
<g><path style="opacity:1" fill="#5d5f5d" d="M 31.5,106.5 C 38.5,106.5 45.5,106.5 52.5,106.5C 52.1755,113.687 52.5088,120.687 53.5,127.5C 53.5,127.833 53.5,128.167 53.5,128.5C 46.5,128.5 39.5,128.5 32.5,128.5C 31.536,121.254 31.2027,113.92 31.5,106.5 Z"/></g>
</svg>
