<?xml version="1.0" encoding="UTF-8"?>
<!DOCTYPE svg PUBLIC "-//W3C//DTD SVG 1.1//EN" "http://www.w3.org/Graphics/SVG/1.1/DTD/svg11.dtd">
<svg xmlns="http://www.w3.org/2000/svg" version="1.1" width="150px" height="150px" style="shape-rendering:geometricPrecision; text-rendering:geometricPrecision; image-rendering:optimizeQuality; fill-rule:evenodd; clip-rule:evenodd" xmlns:xlink="http://www.w3.org/1999/xlink">
<g><path style="opacity:0.627" fill="#efcb7a" d="M 74.5,20.5 C 74.5,20.8333 74.5,21.1667 74.5,21.5C 71.1667,21.5 67.8333,21.5 64.5,21.5C 64.5,24.8333 64.5,28.1667 64.5,31.5C 64.1667,31.5 63.8333,31.5 63.5,31.5C 63.5,31.1667 63.5,30.8333 63.5,30.5C 62.208,27.332 62.208,24.1653 63.5,21C 67.1516,20.5014 70.8183,20.3347 74.5,20.5 Z"/></g>
<g><path style="opacity:1" fill="#f7dc83" d="M 74.5,21.5 C 74.5,21.8333 74.5,22.1667 74.5,22.5C 71.5,22.5 68.5,22.5 65.5,22.5C 65.5,25.5 65.5,28.5 65.5,31.5C 65.1667,31.5 64.8333,31.5 64.5,31.5C 64.5,28.1667 64.5,24.8333 64.5,21.5C 67.8333,21.5 71.1667,21.5 74.5,21.5 Z"/></g>
<g><path style="opacity:1" fill="#f8ca79" d="M 74.5,22.5 C 74.5,22.1667 74.5,21.8333 74.5,21.5C 77.8333,21.5 81.1667,21.5 84.5,21.5C 84.665,24.8499 84.4983,28.1832 84,31.5C 83.502,28.5184 83.3354,25.5184 83.5,22.5C 80.5,22.5 77.5,22.5 74.5,22.5 Z"/></g>
<g><path style="opacity:0.997" fill="#f0c376" d="M 74.5,21.5 C 74.5,21.1667 74.5,20.8333 74.5,20.5C 78.1667,20.5 81.8333,20.5 85.5,20.5C 85.5,23.8333 85.5,27.1667 85.5,30.5C 89.1064,30.2108 92.6064,30.5442 96,31.5C 96.1715,38.6787 96.6715,45.6787 97.5,52.5C 99.6074,53.4682 101.941,53.8016 104.5,53.5C 104.5,67.5 104.5,81.5 104.5,95.5C 101.941,95.1984 99.6074,95.5318 97.5,96.5C 96.5233,99.2869 96.19,102.287 96.5,105.5C 103.167,106.167 109.833,106.833 116.5,107.5C 115.761,107.369 115.094,107.536 114.5,108C 115.476,114.076 115.81,120.242 115.5,126.5C 94.8333,126.5 74.1667,126.5 53.5,126.5C 53.1667,126.5 52.8333,126.5 52.5,126.5C 52.5,119.833 52.5,113.167 52.5,106.5C 56.315,105.895 59.9817,105.895 63.5,106.5C 64.4946,95.6794 64.8279,84.6794 64.5,73.5C 67.5,73.5 70.5,73.5 73.5,73.5C 73.5,66.8333 73.5,60.1667 73.5,53.5C 71.3654,52.7177 68.5321,52.051 65,51.5C 64.5357,52.0944 64.369,52.7611 64.5,53.5C 63.5206,50.3752 63.1872,47.0419 63.5,43.5C 64.4816,40.0381 64.815,36.3714 64.5,32.5C 64.5,32.1667 64.5,31.8333 64.5,31.5C 64.8333,31.5 65.1667,31.5 65.5,31.5C 68.5,31.5 71.5,31.5 74.5,31.5C 74.5,28.5 74.5,25.5 74.5,22.5C 77.5,22.5 80.5,22.5 83.5,22.5C 83.3354,25.5184 83.502,28.5184 84,31.5C 84.4983,28.1832 84.665,24.8499 84.5,21.5C 81.1667,21.5 77.8333,21.5 74.5,21.5 Z"/></g>
<g><path style="opacity:1" fill="#f0d47f" d="M 74.5,22.5 C 74.5,25.5 74.5,28.5 74.5,31.5C 71.5,31.5 68.5,31.5 65.5,31.5C 65.5,28.5 65.5,25.5 65.5,22.5C 68.5,22.5 71.5,22.5 74.5,22.5 Z"/></g>
<g><path style="opacity:0.124" fill="#ecbf75" d="M 63.5,30.5 C 63.5,30.8333 63.5,31.1667 63.5,31.5C 59.9581,31.1872 56.6248,31.5206 53.5,32.5C 53.1667,32.5 52.8333,32.5 52.5,32.5C 55.6843,30.5864 59.351,29.9197 63.5,30.5 Z"/></g>
<g><path style="opacity:1" fill="#f2d580" d="M 63.5,31.5 C 63.8333,31.5 64.1667,31.5 64.5,31.5C 64.5,31.8333 64.5,32.1667 64.5,32.5C 63.5206,35.6248 63.1872,38.9581 63.5,42.5C 60.1667,42.5 56.8333,42.5 53.5,42.5C 53.5,39.1667 53.5,35.8333 53.5,32.5C 56.6248,31.5206 59.9581,31.1872 63.5,31.5 Z"/></g>
<g><path style="opacity:0.278" fill="#eec979" d="M 52.5,32.5 C 52.8333,32.5 53.1667,32.5 53.5,32.5C 53.5,35.8333 53.5,39.1667 53.5,42.5C 56.8333,42.5 60.1667,42.5 63.5,42.5C 63.1872,38.9581 63.5206,35.6248 64.5,32.5C 64.815,36.3714 64.4816,40.0381 63.5,43.5C 59.8333,43.5 56.1667,43.5 52.5,43.5C 52.5,39.8333 52.5,36.1667 52.5,32.5 Z"/></g>
<g><path style="opacity:0.627" fill="#f2d17d" d="M 73.5,53.5 C 70.5,53.5 67.5,53.5 64.5,53.5C 64.369,52.7611 64.5357,52.0944 65,51.5C 68.5321,52.051 71.3654,52.7177 73.5,53.5 Z"/></g>
<g><path style="opacity:0.216" fill="#edc777" d="M 53.5,53.5 C 50.5,53.5 47.5,53.5 44.5,53.5C 43.1696,60.1333 42.5029,67.1333 42.5,74.5C 42.5029,81.8667 43.1696,88.8667 44.5,95.5C 47.5,95.5 50.5,95.5 53.5,95.5C 53.8128,99.0419 53.4794,102.375 52.5,105.5C 52.5,102.5 52.5,99.5 52.5,96.5C 48.8333,96.5 45.1667,96.5 41.5,96.5C 41.5,81.8333 41.5,67.1667 41.5,52.5C 45.7016,52.1832 49.7016,52.5166 53.5,53.5 Z"/></g>
<g><path style="opacity:1" fill="#f6d982" d="M 44.5,53.5 C 44.5,67.5 44.5,81.5 44.5,95.5C 43.1696,88.8667 42.5029,81.8667 42.5,74.5C 42.5029,67.1333 43.1696,60.1333 44.5,53.5 Z"/></g>
<g><path style="opacity:1" fill="#f1d37f" d="M 44.5,53.5 C 47.5,53.5 50.5,53.5 53.5,53.5C 53.5,56.5 53.5,59.5 53.5,62.5C 53.5,63.1667 53.5,63.8333 53.5,64.5C 56.2869,65.4767 59.2869,65.81 62.5,65.5C 62.19,68.7131 62.5233,71.7131 63.5,74.5C 63.5,85.1667 63.5,95.8333 63.5,106.5C 59.9817,105.895 56.315,105.895 52.5,106.5C 45.5,106.5 38.5,106.5 31.5,106.5C 38.3134,105.509 45.3134,105.175 52.5,105.5C 53.4794,102.375 53.8128,99.0419 53.5,95.5C 50.5,95.5 47.5,95.5 44.5,95.5C 44.5,81.5 44.5,67.5 44.5,53.5 Z"/></g>
<g><path style="opacity:0.863" fill="#f2c577" d="M 97.5,52.5 C 100.833,52.5 104.167,52.5 107.5,52.5C 107.5,67.1667 107.5,81.8333 107.5,96.5C 104.167,96.5 100.833,96.5 97.5,96.5C 99.6074,95.5318 101.941,95.1984 104.5,95.5C 104.5,81.5 104.5,67.5 104.5,53.5C 101.941,53.8016 99.6074,53.4682 97.5,52.5 Z"/></g>
<g><path style="opacity:1" fill="#f7dc83" d="M 53.5,64.5 C 56.8333,64.5 60.1667,64.5 63.5,64.5C 63.5,67.8333 63.5,71.1667 63.5,74.5C 62.5233,71.7131 62.19,68.7131 62.5,65.5C 59.2869,65.81 56.2869,65.4767 53.5,64.5 Z"/></g>
<g><path style="opacity:1" fill="#f0ca79" d="M 53.5,62.5 C 56.8499,62.335 60.1832,62.5017 63.5,63C 64.4558,66.3936 64.7892,69.8936 64.5,73.5C 64.8279,84.6794 64.4946,95.6794 63.5,106.5C 63.5,95.8333 63.5,85.1667 63.5,74.5C 63.5,71.1667 63.5,67.8333 63.5,64.5C 60.1667,64.5 56.8333,64.5 53.5,64.5C 53.5,63.8333 53.5,63.1667 53.5,62.5 Z"/></g>
<g><path style="opacity:0.216" fill="#ebc676" d="M 96.5,105.5 C 103.687,105.175 110.687,105.509 117.5,106.5C 117.5,107.167 117.167,107.5 116.5,107.5C 109.833,106.833 103.167,106.167 96.5,105.5 Z"/></g>
<g><path style="opacity:0.124" fill="#ecbf74" d="M 31.5,106.5 C 31.1755,113.687 31.5088,120.687 32.5,127.5C 32.5,127.833 32.5,128.167 32.5,128.5C 31.1778,125.232 30.5112,121.565 30.5,117.5C 30.5013,113.651 30.8346,109.984 31.5,106.5 Z"/></g>
<g><path style="opacity:1" fill="#f7dc83" d="M 52.5,126.5 C 52.8333,126.5 53.1667,126.5 53.5,126.5C 53.5,126.833 53.5,127.167 53.5,127.5C 46.5,127.5 39.5,127.5 32.5,127.5C 32.3337,120.825 32.5004,114.158 33,107.5C 33.4995,113.825 33.6662,120.158 33.5,126.5C 39.8333,126.5 46.1667,126.5 52.5,126.5 Z"/></g>
<g><path style="opacity:1" fill="#f1d480" d="M 31.5,106.5 C 38.5,106.5 45.5,106.5 52.5,106.5C 52.5,113.167 52.5,119.833 52.5,126.5C 46.1667,126.5 39.8333,126.5 33.5,126.5C 33.6662,120.158 33.4995,113.825 33,107.5C 32.5004,114.158 32.3337,120.825 32.5,127.5C 31.5088,120.687 31.1755,113.687 31.5,106.5 Z"/></g>
<g><path style="opacity:1" fill="#f8ca79" d="M 116.5,107.5 C 116.5,114.167 116.5,120.833 116.5,127.5C 95.5,127.5 74.5,127.5 53.5,127.5C 53.5,127.167 53.5,126.833 53.5,126.5C 74.1667,126.5 94.8333,126.5 115.5,126.5C 115.81,120.242 115.476,114.076 114.5,108C 115.094,107.536 115.761,107.369 116.5,107.5 Z"/></g>
<g><path style="opacity:0.741" fill="#efc175" d="M 117.5,106.5 C 118.827,113.568 118.827,120.735 117.5,128C 89.1686,128.5 60.8353,128.667 32.5,128.5C 32.5,128.167 32.5,127.833 32.5,127.5C 39.5,127.5 46.5,127.5 53.5,127.5C 74.5,127.5 95.5,127.5 116.5,127.5C 116.5,120.833 116.5,114.167 116.5,107.5C 117.167,107.5 117.5,107.167 117.5,106.5 Z"/></g>
</svg>
