<?xml version="1.0" encoding="UTF-8"?>
<svg version="1.1" xmlns="http://www.w3.org/2000/svg" width="150" height="150">
<path d="M0 0 C0.86931152 0.01047363 1.73862305 0.02094727 2.63427734 0.03173828 C3.57529297 0.03818359 4.51630859 0.04462891 5.48583984 0.05126953 C6.47068359 0.06802734 7.45552734 0.08478516 8.47021484 0.10205078 C9.46279297 0.11107422 10.45537109 0.12009766 11.47802734 0.12939453 C13.93399618 0.15300962 16.38948653 0.18594279 18.84521484 0.22705078 C20.5598752 3.6563715 19.89925541 7.44421143 19.84521484 11.22705078 C23.47521484 11.22705078 27.10521484 11.22705078 30.84521484 11.22705078 C30.84521484 15.18705078 30.84521484 19.14705078 30.84521484 23.22705078 C28.43975846 24.42977897 26.89524532 24.3277655 24.22021484 24.28955078 C22.99431641 24.27601562 22.99431641 24.27601562 21.74365234 24.26220703 C21.11716797 24.25060547 20.49068359 24.23900391 19.84521484 24.22705078 C19.84521484 26.86705078 19.84521484 29.50705078 19.84521484 32.22705078 C23.47521484 32.22705078 27.10521484 32.22705078 30.84521484 32.22705078 C30.84521484 35.85705078 30.84521484 39.48705078 30.84521484 43.22705078 C32.02599609 43.21544922 33.20677734 43.20384766 34.42333984 43.19189453 C35.98062993 43.18251327 37.53792172 43.17341343 39.09521484 43.16455078 C39.87251953 43.15617187 40.64982422 43.14779297 41.45068359 43.13916016 C42.58183594 43.13432617 42.58183594 43.13432617 43.73583984 43.12939453 C44.77272949 43.12153931 44.77272949 43.12153931 45.83056641 43.11352539 C47.94495382 43.23267107 49.81163 43.65086841 51.84521484 44.22705078 C53.11272153 51.02368114 52.9566121 57.77003762 52.90771484 64.66455078 C52.90320313 65.87304688 52.89869141 67.08154297 52.89404297 68.32666016 C52.88231641 71.2934785 52.86438284 74.26027118 52.84521484 77.22705078 C49.21521484 77.22705078 45.58521484 77.22705078 41.84521484 77.22705078 C41.84521484 80.85705078 41.84521484 84.48705078 41.84521484 88.22705078 C38.21521484 88.22705078 34.58521484 88.22705078 30.84521484 88.22705078 C30.84521484 90.86705078 30.84521484 93.50705078 30.84521484 96.22705078 C32.59898438 96.20964844 32.59898438 96.20964844 34.38818359 96.19189453 C35.93635907 96.18251165 37.48453629 96.17341198 39.03271484 96.16455078 C39.80164063 96.15617187 40.57056641 96.14779297 41.36279297 96.13916016 C42.11367187 96.1359375 42.86455078 96.13271484 43.63818359 96.12939453 C44.32420654 96.12415771 45.01022949 96.1189209 45.71704102 96.11352539 C47.84521484 96.22705078 47.84521484 96.22705078 52.84521484 97.22705078 C52.84521484 104.81705078 52.84521484 112.40705078 52.84521484 120.22705078 C23.80521484 120.22705078 -5.23478516 120.22705078 -35.15478516 120.22705078 C-35.9572537 117.01717662 -36.27413424 114.89071556 -36.25244141 111.68017578 C-36.24921875 110.83583984 -36.24599609 109.99150391 -36.24267578 109.12158203 C-36.23429687 108.24888672 -36.22591797 107.37619141 -36.21728516 106.47705078 C-36.21277344 105.58888672 -36.20826172 104.70072266 -36.20361328 103.78564453 C-36.19185916 101.59937749 -36.17542764 99.41324899 -36.15478516 97.22705078 C-31.53019272 96.0500503 -27.07612054 96.11296666 -22.34228516 96.16455078 C-21.15989258 96.17131836 -21.15989258 96.17131836 -19.95361328 96.17822266 C-18.02063755 96.18993766 -16.08770123 96.2078708 -14.15478516 96.22705078 C-14.15478516 93.58705078 -14.15478516 90.94705078 -14.15478516 88.22705078 C-17.78478516 88.22705078 -21.41478516 88.22705078 -25.15478516 88.22705078 C-25.15478516 84.92705078 -25.15478516 81.62705078 -25.15478516 78.22705078 C-26.82541016 78.25798828 -26.82541016 78.25798828 -28.52978516 78.28955078 C-32.15478516 78.22705078 -32.15478516 78.22705078 -34.15478516 77.22705078 C-36.43771352 69.68735614 -36.40882723 61.83974432 -36.27978516 54.03955078 C-36.23853516 50.47142578 -36.19728516 46.90330078 -36.15478516 43.22705078 C-28.89478516 43.22705078 -21.63478516 43.22705078 -14.15478516 43.22705078 C-14.15478516 40.25705078 -14.15478516 37.28705078 -14.15478516 34.22705078 C-10.5481745 32.42374545 -8.0708509 31.76105975 -4.15478516 31.22705078 C-4.15478516 29.24705078 -4.15478516 27.26705078 -4.15478516 25.22705078 C-7.45478516 24.89705078 -10.75478516 24.56705078 -14.15478516 24.22705078 C-14.15478516 19.93705078 -14.15478516 15.64705078 -14.15478516 11.22705078 C-10.85478516 10.89705078 -7.55478516 10.56705078 -4.15478516 10.22705078 C-4.19603516 8.94830078 -4.23728516 7.66955078 -4.27978516 6.35205078 C-4.35009766 4.17236328 -4.35009766 4.17236328 -4.15478516 2.22705078 C-2.15478516 0.22705078 -2.15478516 0.22705078 0 0 Z " fill="#EFC376" transform="translate(66.15478515625,8.77294921875)"/>
<path d="M0 0 C0.02689216 1.47906892 0.04634621 2.95827483 0.0625 4.4375 C0.07410156 5.26121094 0.08570313 6.08492187 0.09765625 6.93359375 C0 9 0 9 -1 10 C-2.51928038 10.07179964 -4.04167482 10.08392007 -5.5625 10.0625 C-6.38878906 10.05347656 -7.21507813 10.04445313 -8.06640625 10.03515625 C-8.70449219 10.02355469 -9.34257813 10.01195312 -10 10 C-10.02578125 10.69867188 -10.0515625 11.39734375 -10.078125 12.1171875 C-10.13484375 13.02726562 -10.1915625 13.93734375 -10.25 14.875 C-10.31960937 16.23238281 -10.31960937 16.23238281 -10.390625 17.6171875 C-11 20 -11 20 -12.671875 21.3203125 C-15 22 -15 22 -21 22 C-21 28.27 -21 34.54 -21 41 C-24.8726592 41.9681648 -28.03611362 42.07622858 -32 42 C-33.83316496 34.54540473 -34.2505902 27.52933362 -34.125 19.875 C-34.08375 16.28625 -34.0425 12.6975 -34 9 C-26.74 9 -19.48 9 -12 9 C-12 6.03 -12 3.06 -12 0 C-3.96428571 -1.20535714 -3.96428571 -1.20535714 0 0 Z " fill="#F0D27E" transform="translate(64,43)"/>
<path d="M0 0 C1.21236328 0.01353516 1.21236328 0.01353516 2.44921875 0.02734375 C3.37154297 0.04474609 3.37154297 0.04474609 4.3125 0.0625 C5.57276798 2.58303595 5.23124445 3.9167098 4.875 6.6875 C4.77316406 7.50476563 4.67132813 8.32203125 4.56640625 9.1640625 C4.48261719 9.79054688 4.39882812 10.41703125 4.3125 11.0625 C2.26171875 11.29036458 0.2109375 11.51822917 -1.83984375 11.74609375 C-3.69890229 11.88136614 -3.69890229 11.88136614 -4.6875 13.0625 C-4.89354085 14.39031878 -5.0537959 15.72545895 -5.1875 17.0625 C-5.57638889 20.95138889 -5.57638889 20.95138889 -6.6875 22.0625 C-8.53641946 22.29613881 -10.39238031 22.47553635 -12.25 22.625 C-14.9415625 22.8415625 -14.9415625 22.8415625 -17.6875 23.0625 C-17.6875 18.7725 -17.6875 14.4825 -17.6875 10.0625 C-14.3875 9.7325 -11.0875 9.4025 -7.6875 9.0625 C-7.6875 6.4225 -7.6875 3.7825 -7.6875 1.0625 C-4.80538698 0.10179566 -2.98899956 -0.04331883 0 0 Z " fill="#F0D27E" transform="translate(69.6875,9.9375)"/>
<path d="M0 0 C3.46679688 0.04882812 3.46679688 0.04882812 6.93359375 0.09765625 C6.93359375 3.39765625 6.93359375 6.69765625 6.93359375 10.09765625 C3.63359375 10.09765625 0.33359375 10.09765625 -3.06640625 10.09765625 C-3.1640625 3.1640625 -3.1640625 3.1640625 -3.06640625 1.09765625 C-2.06640625 0.09765625 -2.06640625 0.09765625 0 0 Z " fill="#F0D37E" transform="translate(67.06640625,31.90234375)"/>
</svg>
