<?xml version="1.0" encoding="UTF-8"?>
<!DOCTYPE svg PUBLIC "-//W3C//DTD SVG 1.1//EN" "http://www.w3.org/Graphics/SVG/1.1/DTD/svg11.dtd">
<svg xmlns="http://www.w3.org/2000/svg" version="1.1" width="150px" height="150px" style="shape-rendering:geometricPrecision; text-rendering:geometricPrecision; image-rendering:optimizeQuality; fill-rule:evenodd; clip-rule:evenodd" xmlns:xlink="http://www.w3.org/1999/xlink">
<g><path style="opacity:0.494" fill="#eec879" d="M 74.5,10.5 C 71.1667,10.5 67.8333,10.5 64.5,10.5C 64.5,17.5 64.5,24.5 64.5,31.5C 63.8333,31.5 63.5,31.8333 63.5,32.5C 60.1667,32.5 56.8333,32.5 53.5,32.5C 53.81,35.7131 53.4767,38.7131 52.5,41.5C 52.5,37.8333 52.5,34.1667 52.5,30.5C 56.1667,30.5 59.8333,30.5 63.5,30.5C 63.5,23.5 63.5,16.5 63.5,9.5C 67.3714,9.18503 71.0381,9.51836 74.5,10.5 Z"/></g>
<g><path style="opacity:1" fill="#f7c879" d="M 74.5,10.5 C 74.5,14.1667 74.5,17.8333 74.5,21.5C 73.5233,18.7131 73.19,15.7131 73.5,12.5C 70.8333,12.5 68.1667,12.5 65.5,12.5C 65.8235,19.0221 65.4902,25.3554 64.5,31.5C 64.5,24.5 64.5,17.5 64.5,10.5C 67.8333,10.5 71.1667,10.5 74.5,10.5 Z"/></g>
<g><path style="opacity:1" fill="#efc376" d="M 106.5,31.5 C 103.253,32.2515 99.9194,32.7515 96.5,33C 99.146,33.4974 101.813,33.6641 104.5,33.5C 103.843,58.1896 104.51,82.5229 106.5,106.5C 106.833,106.5 107.167,106.5 107.5,106.5C 107.783,107.289 108.283,107.956 109,108.5C 111,107.167 113,107.167 115,108.5C 115.499,114.491 115.666,120.491 115.5,126.5C 94.8333,126.5 74.1667,126.5 53.5,126.5C 53.5,119.833 53.5,113.167 53.5,106.5C 56.8333,106.5 60.1667,106.5 63.5,106.5C 64.4944,96.0131 64.8278,85.3464 64.5,74.5C 67.8333,74.5 71.1667,74.5 74.5,74.5C 74.5,71.1667 74.5,67.8333 74.5,64.5C 70.8333,64.5 67.1667,64.5 63.5,64.5C 59.8333,64.5 56.1667,64.5 52.5,64.5C 52.8333,63.8333 53.1667,63.1667 53.5,62.5C 53.5,56.5 53.5,50.5 53.5,44.5C 53.1667,43.8333 52.8333,43.1667 52.5,42.5C 56.5,42.5 60.5,42.5 64.5,42.5C 64.8128,38.9581 64.4794,35.6248 63.5,32.5C 63.5,31.8333 63.8333,31.5 64.5,31.5C 65.4902,25.3554 65.8235,19.0221 65.5,12.5C 68.1667,12.5 70.8333,12.5 73.5,12.5C 73.19,15.7131 73.5233,18.7131 74.5,21.5C 74.5,17.8333 74.5,14.1667 74.5,10.5C 75.4794,13.6248 75.8128,16.9581 75.5,20.5C 78.5,20.5 81.5,20.5 84.5,20.5C 84.5,16.8333 84.5,13.1667 84.5,9.5C 88.5,9.5 92.5,9.5 96.5,9.5C 96.5,16.5 96.5,23.5 96.5,30.5C 100.042,30.1872 103.375,30.5206 106.5,31.5 Z"/></g>
<g><path style="opacity:1" fill="#f1d37f" d="M 74.5,21.5 C 78.1667,21.5 81.8333,21.5 85.5,21.5C 85.8204,24.8984 85.487,28.2317 84.5,31.5C 83.0615,32.0634 81.5615,32.3968 80,32.5C 78.1282,31.9648 76.4616,31.9648 75,32.5C 74.5014,28.8484 74.3347,25.1817 74.5,21.5 Z"/></g>
<g><path style="opacity:0.914" fill="#f5c778" d="M 106.5,31.5 C 107.498,55.9944 107.831,80.661 107.5,105.5C 106.833,105.5 106.5,105.833 106.5,106.5C 104.51,82.5229 103.843,58.1896 104.5,33.5C 101.813,33.6641 99.146,33.4974 96.5,33C 99.9194,32.7515 103.253,32.2515 106.5,31.5 Z"/></g>
<g><path style="opacity:1" fill="#f1d37f" d="M 63.5,32.5 C 64.4794,35.6248 64.8128,38.9581 64.5,42.5C 60.5,42.5 56.5,42.5 52.5,42.5C 52.5,42.1667 52.5,41.8333 52.5,41.5C 53.4767,38.7131 53.81,35.7131 53.5,32.5C 56.8333,32.5 60.1667,32.5 63.5,32.5 Z"/></g>
<g><path style="opacity:0.216" fill="#eac575" d="M 52.5,41.5 C 52.5,41.8333 52.5,42.1667 52.5,42.5C 49.2234,42.2161 46.0567,42.5495 43,43.5C 42.2055,50.5803 42.3722,57.5803 43.5,64.5C 42.1778,61.2319 41.5112,57.5652 41.5,53.5C 41.6667,49.8333 41.8333,46.1667 42,42.5C 45.3936,41.5442 48.8936,41.2108 52.5,41.5 Z"/></g>
<g><path style="opacity:1" fill="#f5d881" d="M 52.5,42.5 C 52.8333,43.1667 53.1667,43.8333 53.5,44.5C 50.5,44.5 47.5,44.5 44.5,44.5C 44.5,50.5 44.5,56.5 44.5,62.5C 47.5,62.5 50.5,62.5 53.5,62.5C 53.1667,63.1667 52.8333,63.8333 52.5,64.5C 49.5,64.5 46.5,64.5 43.5,64.5C 42.3722,57.5803 42.2055,50.5803 43,43.5C 46.0567,42.5495 49.2234,42.2161 52.5,42.5 Z"/></g>
<g><path style="opacity:1" fill="#f0d37f" d="M 53.5,44.5 C 53.5,50.5 53.5,56.5 53.5,62.5C 50.5,62.5 47.5,62.5 44.5,62.5C 44.5,56.5 44.5,50.5 44.5,44.5C 47.5,44.5 50.5,44.5 53.5,44.5 Z"/></g>
<g><path style="opacity:1" fill="#f1d37f" d="M 63.5,64.5 C 67.1667,64.5 70.8333,64.5 74.5,64.5C 74.5,67.8333 74.5,71.1667 74.5,74.5C 71.1667,74.5 67.8333,74.5 64.5,74.5C 64.5,73.8333 64.1667,73.5 63.5,73.5C 62.2665,70.5352 62.2665,67.5352 63.5,64.5 Z"/></g>
<g><path style="opacity:1" fill="#efca7a" d="M 63.5,73.5 C 64.1667,73.5 64.5,73.8333 64.5,74.5C 64.8278,85.3464 64.4944,96.0131 63.5,106.5C 63.5,95.8333 63.5,85.1667 63.5,74.5C 60.1667,74.5 56.8333,74.5 53.5,74.5C 53.815,78.3714 53.4816,82.0381 52.5,85.5C 52.5,85.1667 52.5,84.8333 52.5,84.5C 52.5,80.8333 52.5,77.1667 52.5,73.5C 56.1667,73.5 59.8333,73.5 63.5,73.5 Z"/></g>
<g><path style="opacity:1" fill="#f1d37f" d="M 63.5,106.5 C 60.1667,106.5 56.8333,106.5 53.5,106.5C 53.5,113.167 53.5,119.833 53.5,126.5C 46.8333,126.5 40.1667,126.5 33.5,126.5C 33.1703,120.132 33.5037,113.798 34.5,107.5C 37.0584,108.016 39.5584,108.35 42,108.5C 42.4643,107.906 42.631,107.239 42.5,106.5C 43.1174,106.389 43.6174,106.056 44,105.5C 44.4995,99.1754 44.6662,92.8421 44.5,86.5C 47.3854,86.8064 50.0521,86.4731 52.5,85.5C 53.4816,82.0381 53.815,78.3714 53.5,74.5C 56.8333,74.5 60.1667,74.5 63.5,74.5C 63.5,85.1667 63.5,95.8333 63.5,106.5 Z"/></g>
<g><path style="opacity:0.216" fill="#e9c476" d="M 43.5,84.5 C 42.536,91.7463 42.2027,99.0796 42.5,106.5C 38.9581,106.187 35.6248,106.521 32.5,107.5C 31.5088,114.313 31.1755,121.313 31.5,128.5C 30.3448,121.345 30.1782,114.012 31,106.5C 34.3936,105.544 37.8936,105.211 41.5,105.5C 40.8721,98.0869 41.5388,91.0869 43.5,84.5 Z"/></g>
<g><path style="opacity:1" fill="#f5d881" d="M 43.5,84.5 C 46.5,84.5 49.5,84.5 52.5,84.5C 52.5,84.8333 52.5,85.1667 52.5,85.5C 50.0521,86.4731 47.3854,86.8064 44.5,86.5C 44.6662,92.8421 44.4995,99.1754 44,105.5C 43.6174,106.056 43.1174,106.389 42.5,106.5C 42.2027,99.0796 42.536,91.7463 43.5,84.5 Z"/></g>
<g><path style="opacity:0.985" fill="#f8ca79" d="M 107.5,106.5 C 110.713,106.19 113.713,106.523 116.5,107.5C 116.5,114.167 116.5,120.833 116.5,127.5C 95.5,127.5 74.5,127.5 53.5,127.5C 53.5,127.167 53.5,126.833 53.5,126.5C 74.1667,126.5 94.8333,126.5 115.5,126.5C 115.666,120.491 115.499,114.491 115,108.5C 113,107.167 111,107.167 109,108.5C 108.283,107.956 107.783,107.289 107.5,106.5 Z"/></g>
<g><path style="opacity:0.09" fill="#e8c378" d="M 106.5,106.5 C 106.5,105.833 106.833,105.5 107.5,105.5C 111.106,105.211 114.606,105.544 118,106.5C 118.821,113.679 118.655,120.679 117.5,127.5C 117.824,120.646 117.491,113.979 116.5,107.5C 113.713,106.523 110.713,106.19 107.5,106.5C 107.167,106.5 106.833,106.5 106.5,106.5 Z"/></g>
<g><path style="opacity:1" fill="#f7da83" d="M 42.5,106.5 C 42.631,107.239 42.4643,107.906 42,108.5C 39.5584,108.35 37.0584,108.016 34.5,107.5C 33.5037,113.798 33.1703,120.132 33.5,126.5C 40.1667,126.5 46.8333,126.5 53.5,126.5C 53.5,126.833 53.5,127.167 53.5,127.5C 53.1667,127.5 52.8333,127.5 52.5,127.5C 45.8333,127.5 39.1667,127.5 32.5,127.5C 32.5,120.833 32.5,114.167 32.5,107.5C 35.6248,106.521 38.9581,106.187 42.5,106.5 Z"/></g>
<g><path style="opacity:0.494" fill="#f2ca79" d="M 32.5,107.5 C 32.5,114.167 32.5,120.833 32.5,127.5C 39.1667,127.5 45.8333,127.5 52.5,127.5C 52.5,127.833 52.5,128.167 52.5,128.5C 45.5,128.5 38.5,128.5 31.5,128.5C 31.1755,121.313 31.5088,114.313 32.5,107.5 Z"/></g>
<g><path style="opacity:0.412" fill="#f1c377" d="M 116.5,107.5 C 117.491,113.979 117.824,120.646 117.5,127.5C 96.0064,128.497 74.3398,128.831 52.5,128.5C 52.5,128.167 52.5,127.833 52.5,127.5C 52.8333,127.5 53.1667,127.5 53.5,127.5C 74.5,127.5 95.5,127.5 116.5,127.5C 116.5,120.833 116.5,114.167 116.5,107.5 Z"/></g>
</svg>
