<?xml version="1.0" encoding="UTF-8"?>
<!DOCTYPE svg PUBLIC "-//W3C//DTD SVG 1.1//EN" "http://www.w3.org/Graphics/SVG/1.1/DTD/svg11.dtd">
<svg xmlns="http://www.w3.org/2000/svg" version="1.1" width="150px" height="150px" style="shape-rendering:geometricPrecision; text-rendering:geometricPrecision; image-rendering:optimizeQuality; fill-rule:evenodd; clip-rule:evenodd" xmlns:xlink="http://www.w3.org/1999/xlink">
<g><path style="opacity:0.627" fill="#efca7a" d="M 74.5,20.5 C 74.5,20.8333 74.5,21.1667 74.5,21.5C 71.1667,21.5 67.8333,21.5 64.5,21.5C 64.1872,25.0419 64.5206,28.3752 65.5,31.5C 68.5,31.5 71.5,31.5 74.5,31.5C 71.3752,32.4794 68.0419,32.8128 64.5,32.5C 64.8235,39.0221 64.4902,45.3554 63.5,51.5C 63.5,45.1667 63.5,38.8333 63.5,32.5C 60.1667,32.5 56.8333,32.5 53.5,32.5C 53.5,39.5 53.5,46.5 53.5,53.5C 52.3448,46.3451 52.1782,39.0118 53,31.5C 56.4106,30.7069 59.9106,30.2069 63.5,30C 63.3063,27.2366 63.3063,24.4032 63.5,21.5C 67.1073,20.5108 70.774,20.1774 74.5,20.5 Z"/></g>
<g><path style="opacity:1" fill="#f8dc84" d="M 74.5,21.5 C 74.5,21.8333 74.5,22.1667 74.5,22.5C 71.5,22.5 68.5,22.5 65.5,22.5C 65.5,25.5 65.5,28.5 65.5,31.5C 64.5206,28.3752 64.1872,25.0419 64.5,21.5C 67.8333,21.5 71.1667,21.5 74.5,21.5 Z"/></g>
<g><path style="opacity:1" fill="#f5c979" d="M 74.5,20.5 C 78.1667,20.5 81.8333,20.5 85.5,20.5C 85.5,23.8333 85.5,27.1667 85.5,30.5C 85.6068,32.3786 85.1068,32.7119 84,31.5C 83.502,28.5184 83.3354,25.5184 83.5,22.5C 80.5,22.5 77.5,22.5 74.5,22.5C 74.5,22.1667 74.5,21.8333 74.5,21.5C 74.5,21.1667 74.5,20.8333 74.5,20.5 Z"/></g>
<g><path style="opacity:1" fill="#f0d47f" d="M 74.5,22.5 C 74.5,25.5 74.5,28.5 74.5,31.5C 71.5,31.5 68.5,31.5 65.5,31.5C 65.5,28.5 65.5,25.5 65.5,22.5C 68.5,22.5 71.5,22.5 74.5,22.5 Z"/></g>
<g><path style="opacity:1" fill="#f0c376" d="M 74.5,22.5 C 77.5,22.5 80.5,22.5 83.5,22.5C 83.3354,25.5184 83.502,28.5184 84,31.5C 85.1068,32.7119 85.6068,32.3786 85.5,30.5C 89.1064,30.2108 92.6064,30.5442 96,31.5C 96.4996,38.4921 96.6663,45.4921 96.5,52.5C 92.5,52.5 88.5,52.5 84.5,52.5C 84.185,56.3714 84.5184,60.0381 85.5,63.5C 89.1667,63.5 92.8333,63.5 96.5,63.5C 96.1755,70.6866 96.5088,77.6866 97.5,84.5C 99.6074,85.4682 101.941,85.8016 104.5,85.5C 104.175,92.6866 104.509,99.6866 105.5,106.5C 108.728,107.414 112.061,107.747 115.5,107.5C 115.5,113.833 115.5,120.167 115.5,126.5C 94.8333,126.5 74.1667,126.5 53.5,126.5C 53.1667,126.5 52.8333,126.5 52.5,126.5C 52.5,119.833 52.5,113.167 52.5,106.5C 56.1667,106.5 59.8333,106.5 63.5,106.5C 63.5,92.5 63.5,78.5 63.5,64.5C 64.8333,60.5 64.8333,56.5 63.5,52.5C 63.5,52.1667 63.5,51.8333 63.5,51.5C 64.4902,45.3554 64.8235,39.0221 64.5,32.5C 68.0419,32.8128 71.3752,32.4794 74.5,31.5C 74.5,28.5 74.5,25.5 74.5,22.5 Z"/></g>
<g><path style="opacity:1" fill="#f1d480" d="M 63.5,51.5 C 63.5,51.8333 63.5,52.1667 63.5,52.5C 63.5,52.8333 63.5,53.1667 63.5,53.5C 60.1667,53.5 56.8333,53.5 53.5,53.5C 53.5,46.5 53.5,39.5 53.5,32.5C 56.8333,32.5 60.1667,32.5 63.5,32.5C 63.5,38.8333 63.5,45.1667 63.5,51.5 Z"/></g>
<g><path style="opacity:0.627" fill="#f1ce7b" d="M 96.5,52.5 C 93.0381,53.4816 89.3714,53.815 85.5,53.5C 85.5,56.8333 85.5,60.1667 85.5,63.5C 84.5184,60.0381 84.185,56.3714 84.5,52.5C 88.5,52.5 92.5,52.5 96.5,52.5 Z"/></g>
<g><path style="opacity:0.51" fill="#f1cc7b" d="M 63.5,52.5 C 64.8333,56.5 64.8333,60.5 63.5,64.5C 60.1667,64.5 56.8333,64.5 53.5,64.5C 53.8245,71.6866 53.4912,78.6866 52.5,85.5C 49.5,85.5 46.5,85.5 43.5,85.5C 43.5,85.1667 43.5,84.8333 43.5,84.5C 46.5,84.5 49.5,84.5 52.5,84.5C 52.5,77.5 52.5,70.5 52.5,63.5C 55.8499,63.665 59.1832,63.4983 62.5,63C 63.4505,59.9433 63.7839,56.7766 63.5,53.5C 63.5,53.1667 63.5,52.8333 63.5,52.5 Z"/></g>
<g><path style="opacity:1" fill="#f1d480" d="M 63.5,64.5 C 63.5,78.5 63.5,92.5 63.5,106.5C 59.8333,106.5 56.1667,106.5 52.5,106.5C 52.5,113.167 52.5,119.833 52.5,126.5C 46.1667,126.5 39.8333,126.5 33.5,126.5C 33.8235,119.978 33.4902,113.645 32.5,107.5C 32.5,107.167 32.5,106.833 32.5,106.5C 35.8333,106.5 39.1667,106.5 42.5,106.5C 42.1755,99.3134 42.5088,92.3134 43.5,85.5C 43.3337,92.175 43.5004,98.8417 44,105.5C 44.4995,99.1754 44.6662,92.8421 44.5,86.5C 47.3854,86.8064 50.0521,86.4731 52.5,85.5C 53.4912,78.6866 53.8245,71.6866 53.5,64.5C 56.8333,64.5 60.1667,64.5 63.5,64.5 Z"/></g>
<g><path style="opacity:0.106" fill="#e9c077" d="M 105.5,85.5 C 105.5,85.1667 105.5,84.8333 105.5,84.5C 107.461,91.0869 108.128,98.0869 107.5,105.5C 106.833,98.8333 106.167,92.1667 105.5,85.5 Z"/></g>
<g><path style="opacity:0.216" fill="#ebc677" d="M 43.5,84.5 C 43.5,84.8333 43.5,85.1667 43.5,85.5C 42.5088,92.3134 42.1755,99.3134 42.5,106.5C 39.1667,106.5 35.8333,106.5 32.5,106.5C 32.1667,106.5 31.8333,106.5 31.5,106.5C 34.6248,105.521 37.9581,105.187 41.5,105.5C 40.8721,98.0869 41.5388,91.0869 43.5,84.5 Z"/></g>
<g><path style="opacity:1" fill="#f8dc84" d="M 43.5,85.5 C 46.5,85.5 49.5,85.5 52.5,85.5C 50.0521,86.4731 47.3854,86.8064 44.5,86.5C 44.6662,92.8421 44.4995,99.1754 44,105.5C 43.5004,98.8417 43.3337,92.175 43.5,85.5 Z"/></g>
<g><path style="opacity:1" fill="#f7cb7a" d="M 97.5,84.5 C 100.167,84.5 102.833,84.5 105.5,84.5C 105.5,84.8333 105.5,85.1667 105.5,85.5C 105.5,92.5 105.5,99.5 105.5,106.5C 104.509,99.6866 104.175,92.6866 104.5,85.5C 101.941,85.8016 99.6074,85.4682 97.5,84.5 Z"/></g>
<g><path style="opacity:0.807" fill="#f1cc7a" d="M 105.5,85.5 C 106.167,92.1667 106.833,98.8333 107.5,105.5C 111.042,105.187 114.375,105.521 117.5,106.5C 117.5,107.167 117.167,107.5 116.5,107.5C 116.167,107.5 115.833,107.5 115.5,107.5C 112.061,107.747 108.728,107.414 105.5,106.5C 105.5,99.5 105.5,92.5 105.5,85.5 Z"/></g>
<g><path style="opacity:1" fill="#f8db84" d="M 32.5,107.5 C 33.4902,113.645 33.8235,119.978 33.5,126.5C 39.8333,126.5 46.1667,126.5 52.5,126.5C 52.8333,126.5 53.1667,126.5 53.5,126.5C 53.5,126.833 53.5,127.167 53.5,127.5C 53.1667,127.5 52.8333,127.5 52.5,127.5C 45.8333,127.5 39.1667,127.5 32.5,127.5C 32.5,120.833 32.5,114.167 32.5,107.5 Z"/></g>
<g><path style="opacity:1" fill="#f8cb79" d="M 115.5,107.5 C 115.833,107.5 116.167,107.5 116.5,107.5C 116.5,114.167 116.5,120.833 116.5,127.5C 95.5,127.5 74.5,127.5 53.5,127.5C 53.5,127.167 53.5,126.833 53.5,126.5C 74.1667,126.5 94.8333,126.5 115.5,126.5C 115.5,120.167 115.5,113.833 115.5,107.5 Z"/></g>
<g><path style="opacity:0.506" fill="#efc879" d="M 31.5,106.5 C 31.8333,106.5 32.1667,106.5 32.5,106.5C 32.5,106.833 32.5,107.167 32.5,107.5C 32.5,114.167 32.5,120.833 32.5,127.5C 39.1667,127.5 45.8333,127.5 52.5,127.5C 52.5,127.833 52.5,128.167 52.5,128.5C 45.2454,128.813 38.0787,128.48 31,127.5C 30.1787,120.321 30.3454,113.321 31.5,106.5 Z"/></g>
<g><path style="opacity:0.42" fill="#efc277" d="M 117.5,106.5 C 118.827,113.568 118.827,120.735 117.5,128C 95.8359,128.5 74.1692,128.667 52.5,128.5C 52.5,128.167 52.5,127.833 52.5,127.5C 52.8333,127.5 53.1667,127.5 53.5,127.5C 74.5,127.5 95.5,127.5 116.5,127.5C 116.5,120.833 116.5,114.167 116.5,107.5C 117.167,107.5 117.5,107.167 117.5,106.5 Z"/></g>
</svg>
