<?xml version="1.0" encoding="UTF-8"?>
<!DOCTYPE svg PUBLIC "-//W3C//DTD SVG 1.1//EN" "http://www.w3.org/Graphics/SVG/1.1/DTD/svg11.dtd">
<svg xmlns="http://www.w3.org/2000/svg" version="1.1" width="150px" height="150px" style="shape-rendering:geometricPrecision; text-rendering:geometricPrecision; image-rendering:optimizeQuality; fill-rule:evenodd; clip-rule:evenodd" xmlns:xlink="http://www.w3.org/1999/xlink">
<g><path style="opacity:0.49" fill="#efcc7b" d="M 64.5,41.5 C 64.5,41.8333 64.5,42.1667 64.5,42.5C 64.1667,42.5 63.8333,42.5 63.5,42.5C 63.5,35.5 63.5,28.5 63.5,21.5C 59.9581,21.1872 56.6248,21.5206 53.5,22.5C 53.5,32.8333 53.5,43.1667 53.5,53.5C 49.8333,53.5 46.1667,53.5 42.5,53.5C 42.5,46.1667 42.5,38.8333 42.5,31.5C 43.4912,38.3134 43.8245,45.3134 43.5,52.5C 46.5,52.5 49.5,52.5 52.5,52.5C 52.5,41.8333 52.5,31.1667 52.5,20.5C 56.5,20.5 60.5,20.5 64.5,20.5C 64.5,27.5 64.5,34.5 64.5,41.5 Z"/></g>
<g><path style="opacity:1" fill="#f6db83" d="M 53.5,22.5 C 56.6248,21.5206 59.9581,21.1872 63.5,21.5C 63.5,28.5 63.5,35.5 63.5,42.5C 62.5093,36.021 62.176,29.3543 62.5,22.5C 59.5,22.5 56.5,22.5 53.5,22.5 Z"/></g>
<g><path style="opacity:1" fill="#f1d37f" d="M 53.5,22.5 C 56.5,22.5 59.5,22.5 62.5,22.5C 62.176,29.3543 62.5093,36.021 63.5,42.5C 63.8333,42.5 64.1667,42.5 64.5,42.5C 71.1667,42.5 77.8333,42.5 84.5,42.5C 81.3752,43.4794 78.0419,43.8128 74.5,43.5C 74.5,46.5 74.5,49.5 74.5,52.5C 70.8333,52.5 67.1667,52.5 63.5,52.5C 61.9509,52.7358 60.4509,52.7358 59,52.5C 59.6609,54.0348 59.9942,55.7015 60,57.5C 58.324,56.9389 56.9906,55.9389 56,54.5C 55.0975,55.7014 53.9308,56.5348 52.5,57C 53.0219,57.5613 53.3552,58.228 53.5,59C 52.6604,60.1712 51.8271,61.3379 51,62.5C 50.3333,61.1667 49.6667,59.8333 49,58.5C 45,58.5 41,58.5 37,58.5C 36.5,59 36,59.5 35.5,60C 35.6158,61.2682 35.9491,62.6015 36.5,64C 34.203,65.1597 34.5363,66.1597 37.5,67C 36.1854,68.3946 36.5188,69.3946 38.5,70C 37.3279,70.4186 36.3279,71.0853 35.5,72C 35.6938,73.4299 35.6938,74.9299 35.5,76.5C 36.8532,77.5237 37.5198,78.857 37.5,80.5C 40.089,80.461 42.089,81.461 43.5,83.5C 40.1667,83.5 36.8333,83.5 33.5,83.5C 33.5,66.8333 33.5,50.1667 33.5,33.5C 36.1667,33.5 38.8333,33.5 41.5,33.5C 41.176,40.3543 41.5093,47.021 42.5,53.5C 46.1667,53.5 49.8333,53.5 53.5,53.5C 53.5,43.1667 53.5,32.8333 53.5,22.5 Z"/></g>
<g><path style="opacity:1" fill="#efc376" d="M 84.5,21.5 C 88.2984,20.5166 92.2984,20.1832 96.5,20.5C 96.5,31.1667 96.5,41.8333 96.5,52.5C 99.5,52.5 102.5,52.5 105.5,52.5C 105.334,45.4921 105.5,38.4921 106,31.5C 110,30.1667 114,30.1667 118,31.5C 118.167,40.5 118.333,49.5 118.5,58.5C 118.498,67.859 117.832,76.859 116.5,85.5C 116.5,67.8333 116.5,50.1667 116.5,32.5C 113.5,32.5 110.5,32.5 107.5,32.5C 107.334,39.175 107.5,45.8417 108,52.5C 108.5,46.1754 108.666,39.8421 108.5,33.5C 110.833,33.5 113.167,33.5 115.5,33.5C 115.5,50.1667 115.5,66.8333 115.5,83.5C 111.988,82.9455 108.988,83.6122 106.5,85.5C 105.213,89.0649 105.213,92.7316 106.5,96.5C 103.167,96.5 99.8333,96.5 96.5,96.5C 96.5,99.5 96.5,102.5 96.5,105.5C 103.755,105.187 110.921,105.52 118,106.5C 118.812,113.747 118.646,120.914 117.5,128C 95.8359,128.5 74.1692,128.667 52.5,128.5C 52.5,127.833 52.8333,127.5 53.5,127.5C 74.5,127.5 95.5,127.5 116.5,127.5C 116.5,120.833 116.5,114.167 116.5,107.5C 109.825,107.334 103.158,107.5 96.5,108C 102.825,108.5 109.158,108.666 115.5,108.5C 115.5,114.5 115.5,120.5 115.5,126.5C 94.8333,126.5 74.1667,126.5 53.5,126.5C 53.5376,124.479 52.871,122.313 51.5,120C 52.1667,119.333 52.8333,118.667 53.5,118C 52.5939,116.301 52.2606,114.467 52.5,112.5C 52.3253,110.379 52.6586,108.379 53.5,106.5C 57.012,105.49 60.1786,105.49 63,106.5C 63.4983,103.183 63.665,99.8499 63.5,96.5C 60.1667,96.5 56.8333,96.5 53.5,96.5C 53.1667,96.5 52.8333,96.5 52.5,96.5C 52.5803,90.5246 52.5803,84.858 52.5,79.5C 52.2161,76.2234 52.5495,73.0567 53.5,70C 51.5663,67.7287 51.5663,65.7287 53.5,64C 56.4262,63.7822 59.2595,63.2822 62,62.5C 62.3333,62.8333 62.6667,63.1667 63,63.5C 62.1915,59.8235 62.3582,56.1568 63.5,52.5C 67.1667,52.5 70.8333,52.5 74.5,52.5C 74.5,49.5 74.5,46.5 74.5,43.5C 78.0419,43.8128 81.3752,43.4794 84.5,42.5C 85.8333,35.5 85.8333,28.5 84.5,21.5 Z"/></g>
<g><path style="opacity:0.812" fill="#efce7d" d="M 42.5,31.5 C 42.5,38.8333 42.5,46.1667 42.5,53.5C 41.5093,47.021 41.176,40.3543 41.5,33.5C 38.7131,32.5233 35.7131,32.19 32.5,32.5C 32.5,49.8333 32.5,67.1667 32.5,84.5C 35.5,84.5 38.5,84.5 41.5,84.5C 38.7131,85.4767 35.7131,85.81 32.5,85.5C 31.1684,76.859 30.5017,67.859 30.5,58.5C 30.6667,49.5 30.8333,40.5 31,31.5C 34.9341,30.179 38.7674,30.179 42.5,31.5 Z"/></g>
<g><path style="opacity:1" fill="#f6db83" d="M 41.5,33.5 C 38.8333,33.5 36.1667,33.5 33.5,33.5C 33.5,50.1667 33.5,66.8333 33.5,83.5C 36.8333,83.5 40.1667,83.5 43.5,83.5C 43.5,84.1667 43.1667,84.5 42.5,84.5C 42.1667,84.5 41.8333,84.5 41.5,84.5C 38.5,84.5 35.5,84.5 32.5,84.5C 32.5,67.1667 32.5,49.8333 32.5,32.5C 35.7131,32.19 38.7131,32.5233 41.5,33.5 Z"/></g>
<g><path style="opacity:1" fill="#f4ca7a" d="M 116.5,85.5 C 113.5,85.5 110.5,85.5 107.5,85.5C 107.167,85.5 106.833,85.5 106.5,85.5C 108.988,83.6122 111.988,82.9455 115.5,83.5C 115.5,66.8333 115.5,50.1667 115.5,33.5C 113.167,33.5 110.833,33.5 108.5,33.5C 108.666,39.8421 108.5,46.1754 108,52.5C 107.5,45.8417 107.334,39.175 107.5,32.5C 110.5,32.5 113.5,32.5 116.5,32.5C 116.5,50.1667 116.5,67.8333 116.5,85.5 Z"/></g>
<g><path style="opacity:0.118" fill="#ebc77a" d="M 84.5,21.5 C 85.8333,28.5 85.8333,35.5 84.5,42.5C 77.8333,42.5 71.1667,42.5 64.5,42.5C 64.5,42.1667 64.5,41.8333 64.5,41.5C 71.1667,41.5 77.8333,41.5 84.5,41.5C 84.5,34.8333 84.5,28.1667 84.5,21.5 Z"/></g>
<g><path style="opacity:1" fill="#f5d881" d="M 63.5,52.5 C 62.3582,56.1568 62.1915,59.8235 63,63.5C 62.6667,63.1667 62.3333,62.8333 62,62.5C 59.2595,63.2822 56.4262,63.7822 53.5,64C 51.5663,65.7287 51.5663,67.7287 53.5,70C 52.5495,73.0567 52.2161,76.2234 52.5,79.5C 51.9086,77.0972 50.7419,75.7638 49,75.5C 48.5,76.6667 47.6667,77.5 46.5,78C 47.6719,79.8684 47.5053,81.7017 46,83.5C 45.2303,82.4019 44.397,82.4019 43.5,83.5C 42.089,81.461 40.089,80.461 37.5,80.5C 37.5198,78.857 36.8532,77.5237 35.5,76.5C 35.6938,74.9299 35.6938,73.4299 35.5,72C 36.3279,71.0853 37.3279,70.4186 38.5,70C 36.5188,69.3946 36.1854,68.3946 37.5,67C 34.5363,66.1597 34.203,65.1597 36.5,64C 35.9491,62.6015 35.6158,61.2682 35.5,60C 36,59.5 36.5,59 37,58.5C 41,58.5 45,58.5 49,58.5C 49.6667,59.8333 50.3333,61.1667 51,62.5C 51.8271,61.3379 52.6604,60.1712 53.5,59C 53.3552,58.228 53.0219,57.5613 52.5,57C 53.9308,56.5348 55.0975,55.7014 56,54.5C 56.9906,55.9389 58.324,56.9389 60,57.5C 59.9942,55.7015 59.6609,54.0348 59,52.5C 60.4509,52.7358 61.9509,52.7358 63.5,52.5 Z"/></g>
<g><path style="opacity:1" fill="#f2d480" d="M 52.5,79.5 C 52.5803,84.858 52.5803,90.5246 52.5,96.5C 49.5,96.5 46.5,96.5 43.5,96.5C 42.5701,92.6002 42.2367,88.6002 42.5,84.5C 43.1667,84.5 43.5,84.1667 43.5,83.5C 44.397,82.4019 45.2303,82.4019 46,83.5C 47.5053,81.7017 47.6719,79.8684 46.5,78C 47.6667,77.5 48.5,76.6667 49,75.5C 50.7419,75.7638 51.9086,77.0972 52.5,79.5 Z"/></g>
<g><path style="opacity:0.118" fill="#ebc97c" d="M 106.5,85.5 C 106.833,85.5 107.167,85.5 107.5,85.5C 107.815,89.3714 107.482,93.0381 106.5,96.5C 105.213,92.7316 105.213,89.0649 106.5,85.5 Z"/></g>
<g><path style="opacity:0.212" fill="#ebc175" d="M 41.5,84.5 C 41.8333,84.5 42.1667,84.5 42.5,84.5C 42.2367,88.6002 42.5701,92.6002 43.5,96.5C 41.5977,93.6627 40.931,90.3293 41.5,86.5C 38.2869,86.81 35.2869,86.4767 32.5,85.5C 35.7131,85.81 38.7131,85.4767 41.5,84.5 Z"/></g>
<g><path style="opacity:1" fill="#f1d480" d="M 53.5,96.5 C 56.8333,96.5 60.1667,96.5 63.5,96.5C 63.665,99.8499 63.4983,103.183 63,106.5C 60.1786,105.49 57.012,105.49 53.5,106.5C 53.5,103.167 53.5,99.8333 53.5,96.5 Z"/></g>
<g><path style="opacity:0.275" fill="#edc979" d="M 52.5,96.5 C 52.8333,96.5 53.1667,96.5 53.5,96.5C 53.5,99.8333 53.5,103.167 53.5,106.5C 46.1667,106.5 38.8333,106.5 31.5,106.5C 38.3134,105.509 45.3134,105.175 52.5,105.5C 52.5,102.5 52.5,99.5 52.5,96.5 Z"/></g>
<g><path style="opacity:0.118" fill="#e7c47a" d="M 31.5,106.5 C 31.1755,113.687 31.5088,120.687 32.5,127.5C 32.5,127.833 32.5,128.167 32.5,128.5C 31.1778,125.232 30.5112,121.565 30.5,117.5C 30.5013,113.651 30.8346,109.984 31.5,106.5 Z"/></g>
<g><path style="opacity:1" fill="#f1d37f" d="M 31.5,106.5 C 38.8333,106.5 46.1667,106.5 53.5,106.5C 52.6586,108.379 52.3253,110.379 52.5,112.5C 51.7784,112.918 51.2784,113.584 51,114.5C 50.6667,113.833 50.3333,113.167 50,112.5C 46,112.5 42,112.5 38,112.5C 34.6857,115.764 34.6857,119.098 38,122.5C 38.6667,121.167 39.3333,121.167 40,122.5C 41.3333,121.833 42.3333,120.833 43,119.5C 44.6549,119.802 45.9882,121.136 47,123.5C 52.9952,121.965 52.9952,122.965 47,126.5C 44.8047,126.362 42.638,126.362 40.5,126.5C 39.5224,126.023 38.6891,125.357 38,124.5C 37.3333,127.167 36.6667,127.167 36,124.5C 35.6924,125.308 35.1924,125.975 34.5,126.5C 33.6694,120.193 33.1694,113.859 33,107.5C 32.5004,114.158 32.3337,120.825 32.5,127.5C 31.5088,120.687 31.1755,113.687 31.5,106.5 Z"/></g>
<g><path style="opacity:1" fill="#f4ca79" d="M 53.5,127.5 C 53.5,127.167 53.5,126.833 53.5,126.5C 74.1667,126.5 94.8333,126.5 115.5,126.5C 115.5,120.5 115.5,114.5 115.5,108.5C 109.158,108.666 102.825,108.5 96.5,108C 103.158,107.5 109.825,107.334 116.5,107.5C 116.5,114.167 116.5,120.833 116.5,127.5C 95.5,127.5 74.5,127.5 53.5,127.5 Z"/></g>
<g><path style="opacity:1" fill="#f5d781" d="M 52.5,112.5 C 52.2606,114.467 52.5939,116.301 53.5,118C 52.8333,118.667 52.1667,119.333 51.5,120C 52.871,122.313 53.5376,124.479 53.5,126.5C 53.5,126.833 53.5,127.167 53.5,127.5C 52.8333,127.5 52.5,127.833 52.5,128.5C 45.8333,128.5 39.1667,128.5 32.5,128.5C 32.5,128.167 32.5,127.833 32.5,127.5C 32.3337,120.825 32.5004,114.158 33,107.5C 33.1694,113.859 33.6694,120.193 34.5,126.5C 35.1924,125.975 35.6924,125.308 36,124.5C 36.6667,127.167 37.3333,127.167 38,124.5C 38.6891,125.357 39.5224,126.023 40.5,126.5C 42.638,126.362 44.8047,126.362 47,126.5C 52.9952,122.965 52.9952,121.965 47,123.5C 45.9882,121.136 44.6549,119.802 43,119.5C 42.3333,120.833 41.3333,121.833 40,122.5C 39.3333,121.167 38.6667,121.167 38,122.5C 34.6857,119.098 34.6857,115.764 38,112.5C 42,112.5 46,112.5 50,112.5C 50.3333,113.167 50.6667,113.833 51,114.5C 51.2784,113.584 51.7784,112.918 52.5,112.5 Z"/></g>
</svg>
