<?xml version="1.0" encoding="UTF-8"?>
<!DOCTYPE svg PUBLIC "-//W3C//DTD SVG 1.1//EN" "http://www.w3.org/Graphics/SVG/1.1/DTD/svg11.dtd">
<svg xmlns="http://www.w3.org/2000/svg" version="1.1" width="150px" height="150px" style="shape-rendering:geometricPrecision; text-rendering:geometricPrecision; image-rendering:optimizeQuality; fill-rule:evenodd; clip-rule:evenodd" xmlns:xlink="http://www.w3.org/1999/xlink">
<g><path style="opacity:0.216" fill="#e9c376" d="M 43.5,20.5 C 42.5242,31.085 42.1909,41.7517 42.5,52.5C 45.8333,52.5 49.1667,52.5 52.5,52.5C 52.5,53.1667 52.5,53.8333 52.5,54.5C 48.8936,54.7892 45.3936,54.4558 42,53.5C 41.8333,48 41.6667,42.5 41.5,37C 41.5048,31.1238 42.1714,25.6238 43.5,20.5 Z"/></g>
<g><path style="opacity:1" fill="#f5d881" d="M 43.5,20.5 C 46.5,20.5 49.5,20.5 52.5,20.5C 52.5,24.1667 52.5,27.8333 52.5,31.5C 51.5233,28.7131 51.19,25.7131 51.5,22.5C 49.1667,22.5 46.8333,22.5 44.5,22.5C 44.5,32.1667 44.5,41.8333 44.5,51.5C 47.9725,51.1596 50.6391,51.493 52.5,52.5C 49.1667,52.5 45.8333,52.5 42.5,52.5C 42.1909,41.7517 42.5242,31.085 43.5,20.5 Z"/></g>
<g><path style="opacity:0.775" fill="#f1c578" d="M 74.5,20.5 C 78.1817,20.3347 81.8484,20.5014 85.5,21C 86.792,24.1653 86.792,27.332 85.5,30.5C 85.44,31.0431 85.1067,31.3764 84.5,31.5C 83.5159,28.5719 83.1826,25.5719 83.5,22.5C 80.5,22.5 77.5,22.5 74.5,22.5C 74.5,21.8333 74.5,21.1667 74.5,20.5 Z"/></g>
<g><path style="opacity:1" fill="#f4c778" d="M 96.5,53.5 C 95.9569,53.44 95.6236,53.1067 95.5,52.5C 98.4281,51.5159 101.428,51.1826 104.5,51.5C 104.5,41.8333 104.5,32.1667 104.5,22.5C 102.167,22.5 99.8333,22.5 97.5,22.5C 97.8174,25.5719 97.4841,28.5719 96.5,31.5C 95.8933,31.3764 95.56,31.0431 95.5,30.5C 95.5,27.1667 95.5,23.8333 95.5,20.5C 99.5,20.5 103.5,20.5 107.5,20.5C 107.5,31.5 107.5,42.5 107.5,53.5C 103.833,53.5 100.167,53.5 96.5,53.5 Z"/></g>
<g><path style="opacity:1" fill="#f0d37f" d="M 64.5,20.5 C 67.8333,20.5 71.1667,20.5 74.5,20.5C 74.5,21.1667 74.5,21.8333 74.5,22.5C 74.5,32.8333 74.5,43.1667 74.5,53.5C 71.1667,53.5 67.8333,53.5 64.5,53.5C 64.5,71.1667 64.5,88.8333 64.5,106.5C 60.3998,106.763 56.3998,106.43 52.5,105.5C 52.5,88.5 52.5,71.5 52.5,54.5C 52.5,53.8333 52.5,53.1667 52.5,52.5C 50.6391,51.493 47.9725,51.1596 44.5,51.5C 44.5,41.8333 44.5,32.1667 44.5,22.5C 46.8333,22.5 49.1667,22.5 51.5,22.5C 51.19,25.7131 51.5233,28.7131 52.5,31.5C 56.5,31.5 60.5,31.5 64.5,31.5C 64.5,27.8333 64.5,24.1667 64.5,20.5 Z"/></g>
<g><path style="opacity:0.999" fill="#f0c376" d="M 74.5,22.5 C 77.5,22.5 80.5,22.5 83.5,22.5C 83.1826,25.5719 83.5159,28.5719 84.5,31.5C 85.1067,31.3764 85.44,31.0431 85.5,30.5C 88.8333,30.5 92.1667,30.5 95.5,30.5C 95.56,31.0431 95.8933,31.3764 96.5,31.5C 97.4841,28.5719 97.8174,25.5719 97.5,22.5C 99.8333,22.5 102.167,22.5 104.5,22.5C 104.5,32.1667 104.5,41.8333 104.5,51.5C 101.428,51.1826 98.4281,51.5159 95.5,52.5C 95.6236,53.1067 95.9569,53.44 96.5,53.5C 96.5,70.8333 96.5,88.1667 96.5,105.5C 95.475,105.897 95.3083,106.563 96,107.5C 102.932,106.173 109.765,106.173 116.5,107.5C 115.51,113.645 115.177,119.978 115.5,126.5C 94.8333,126.5 74.1667,126.5 53.5,126.5C 53.8235,119.978 53.4902,113.645 52.5,107.5C 45.6866,106.509 38.6866,106.175 31.5,106.5C 31.5,106.167 31.5,105.833 31.5,105.5C 38.5,105.5 45.5,105.5 52.5,105.5C 56.3998,106.43 60.3998,106.763 64.5,106.5C 64.5,88.8333 64.5,71.1667 64.5,53.5C 67.8333,53.5 71.1667,53.5 74.5,53.5C 74.5,43.1667 74.5,32.8333 74.5,22.5 Z"/></g>
<g><path style="opacity:0.11" fill="#e6bf76" d="M 52.5,20.5 C 53.1174,20.6107 53.6174,20.944 54,21.5C 54.7772,24.4294 54.6105,27.2628 53.5,30C 56.4816,30.498 59.4816,30.6646 62.5,30.5C 61.931,26.6707 62.5977,23.3373 64.5,20.5C 64.5,24.1667 64.5,27.8333 64.5,31.5C 60.5,31.5 56.5,31.5 52.5,31.5C 52.5,27.8333 52.5,24.1667 52.5,20.5 Z"/></g>
<g><path style="opacity:0.11" fill="#e8be76" d="M 31.5,105.5 C 31.5,105.833 31.5,106.167 31.5,106.5C 31.2027,113.92 31.536,121.254 32.5,128.5C 31.1768,125.062 30.5102,121.229 30.5,117C 30.5012,112.985 30.8345,109.151 31.5,105.5 Z"/></g>
<g><path style="opacity:0.683" fill="#eec477" d="M 96.5,105.5 C 103.755,105.187 110.921,105.52 118,106.5C 118.5,113.826 118.666,121.159 118.5,128.5C 96.5,128.5 74.5,128.5 52.5,128.5C 52.5,127.833 52.8333,127.5 53.5,127.5C 74.5,127.5 95.5,127.5 116.5,127.5C 116.5,120.833 116.5,114.167 116.5,107.5C 109.765,106.173 102.932,106.173 96,107.5C 95.3083,106.563 95.475,105.897 96.5,105.5 Z"/></g>
<g><path style="opacity:1" fill="#f5d781" d="M 31.5,106.5 C 38.6866,106.175 45.6866,106.509 52.5,107.5C 46.6891,108.542 40.6891,108.542 34.5,107.5C 33.5037,113.798 33.1703,120.132 33.5,126.5C 40.1667,126.5 46.8333,126.5 53.5,126.5C 53.5,126.833 53.5,127.167 53.5,127.5C 52.8333,127.5 52.5,127.833 52.5,128.5C 45.8333,128.5 39.1667,128.5 32.5,128.5C 31.536,121.254 31.2027,113.92 31.5,106.5 Z"/></g>
<g><path style="opacity:1" fill="#f0d37f" d="M 52.5,107.5 C 53.4902,113.645 53.8235,119.978 53.5,126.5C 46.8333,126.5 40.1667,126.5 33.5,126.5C 33.1703,120.132 33.5037,113.798 34.5,107.5C 40.6891,108.542 46.6891,108.542 52.5,107.5 Z"/></g>
<g><path style="opacity:1" fill="#f8ca79" d="M 116.5,107.5 C 116.5,114.167 116.5,120.833 116.5,127.5C 95.5,127.5 74.5,127.5 53.5,127.5C 53.5,127.167 53.5,126.833 53.5,126.5C 74.1667,126.5 94.8333,126.5 115.5,126.5C 115.177,119.978 115.51,113.645 116.5,107.5 Z"/></g>
</svg>
